<svg xmlns="http://www.w3.org/2000/svg" xmlns:xlink="http://www.w3.org/1999/xlink" width="400" zoomAndPan="magnify" viewBox="0 0 300 299.999988" height="400" preserveAspectRatio="xMidYMid meet" version="1.0"><defs><clipPath id="3c09426ebf"><path d="M 154 15 L 264 15 L 264 124 L 154 124 Z M 154 15 " clip-rule="nonzero"/></clipPath><clipPath id="adf9d13f49"><path d="M 79.523438 -5.019531 L 269.664062 30.890625 L 217.890625 305.042969 L 27.75 269.136719 Z M 79.523438 -5.019531 " clip-rule="nonzero"/></clipPath><clipPath id="4b3d0e20bc"><path d="M 79.523438 -5.019531 L 269.664062 30.890625 L 217.890625 305.042969 L 27.75 269.136719 Z M 79.523438 -5.019531 " clip-rule="nonzero"/></clipPath><clipPath id="af424bebc1"><path d="M 79.523438 -5.019531 L 269.664062 30.890625 L 217.890625 305.042969 L 27.75 269.136719 Z M 79.523438 -5.019531 " clip-rule="nonzero"/></clipPath><clipPath id="1c8376333a"><path d="M 184 44 L 231 44 L 231 87 L 184 87 Z M 184 44 " clip-rule="nonzero"/></clipPath><clipPath id="16fa6b9c8e"><path d="M 79.523438 -5.019531 L 269.664062 30.890625 L 217.890625 305.042969 L 27.75 269.136719 Z M 79.523438 -5.019531 " clip-rule="nonzero"/></clipPath><clipPath id="114bc50741"><path d="M 79.523438 -5.019531 L 269.664062 30.890625 L 217.890625 305.042969 L 27.75 269.136719 Z M 79.523438 -5.019531 " clip-rule="nonzero"/></clipPath><clipPath id="24572b3d88"><path d="M 79.523438 -5.019531 L 269.664062 30.890625 L 217.890625 305.042969 L 27.75 269.136719 Z M 79.523438 -5.019531 " clip-rule="nonzero"/></clipPath><clipPath id="dacc3b0dbf"><path d="M 154 64 L 211 64 L 211 101 L 154 101 Z M 154 64 " clip-rule="nonzero"/></clipPath><clipPath id="8a9d345244"><path d="M 79.523438 -5.019531 L 269.664062 30.890625 L 217.890625 305.042969 L 27.75 269.136719 Z M 79.523438 -5.019531 " clip-rule="nonzero"/></clipPath><clipPath id="30865346eb"><path d="M 79.523438 -5.019531 L 269.664062 30.890625 L 217.890625 305.042969 L 27.75 269.136719 Z M 79.523438 -5.019531 " clip-rule="nonzero"/></clipPath><clipPath id="82e35eee3c"><path d="M 79.523438 -5.019531 L 269.664062 30.890625 L 217.890625 305.042969 L 27.75 269.136719 Z M 79.523438 -5.019531 " clip-rule="nonzero"/></clipPath><clipPath id="01c5c33763"><path d="M 134 90 L 177 90 L 177 130 L 134 130 Z M 134 90 " clip-rule="nonzero"/></clipPath><clipPath id="cb42175f3b"><path d="M 79.523438 -5.019531 L 269.664062 30.890625 L 217.890625 305.042969 L 27.75 269.136719 Z M 79.523438 -5.019531 " clip-rule="nonzero"/></clipPath><clipPath id="3097351060"><path d="M 79.523438 -5.019531 L 269.664062 30.890625 L 217.890625 305.042969 L 27.75 269.136719 Z M 79.523438 -5.019531 " clip-rule="nonzero"/></clipPath><clipPath id="37bb1b78e5"><path d="M 79.523438 -5.019531 L 269.664062 30.890625 L 217.890625 305.042969 L 27.75 269.136719 Z M 79.523438 -5.019531 " clip-rule="nonzero"/></clipPath><clipPath id="828bb273d3"><path d="M 43 103 L 228 103 L 228 288 L 43 288 Z M 43 103 " clip-rule="nonzero"/></clipPath><clipPath id="813c698687"><path d="M 79.523438 -5.019531 L 269.664062 30.890625 L 217.890625 305.042969 L 27.75 269.136719 Z M 79.523438 -5.019531 " clip-rule="nonzero"/></clipPath><clipPath id="acee7ce40b"><path d="M 79.523438 -5.019531 L 269.664062 30.890625 L 217.890625 305.042969 L 27.75 269.136719 Z M 79.523438 -5.019531 " clip-rule="nonzero"/></clipPath><clipPath id="6db7570136"><path d="M 79.523438 -5.019531 L 269.664062 30.890625 L 217.890625 305.042969 L 27.75 269.136719 Z M 79.523438 -5.019531 " clip-rule="nonzero"/></clipPath><clipPath id="ef587838b3"><path d="M 77 124 L 115 124 L 115 162 L 77 162 Z M 77 124 " clip-rule="nonzero"/></clipPath><clipPath id="314f6cc271"><path d="M 79.523438 -5.019531 L 269.664062 30.890625 L 217.890625 305.042969 L 27.75 269.136719 Z M 79.523438 -5.019531 " clip-rule="nonzero"/></clipPath><clipPath id="cac9a703ad"><path d="M 79.523438 -5.019531 L 269.664062 30.890625 L 217.890625 305.042969 L 27.75 269.136719 Z M 79.523438 -5.019531 " clip-rule="nonzero"/></clipPath><clipPath id="2c0a67c66d"><path d="M 79.523438 -5.019531 L 269.664062 30.890625 L 217.890625 305.042969 L 27.75 269.136719 Z M 79.523438 -5.019531 " clip-rule="nonzero"/></clipPath><clipPath id="f8fe64b00d"><path d="M 67 161 L 87 161 L 87 180 L 67 180 Z M 67 161 " clip-rule="nonzero"/></clipPath><clipPath id="e8be0bfba9"><path d="M 79.523438 -5.019531 L 269.664062 30.890625 L 217.890625 305.042969 L 27.75 269.136719 Z M 79.523438 -5.019531 " clip-rule="nonzero"/></clipPath><clipPath id="9c7e2b96f6"><path d="M 79.523438 -5.019531 L 269.664062 30.890625 L 217.890625 305.042969 L 27.75 269.136719 Z M 79.523438 -5.019531 " clip-rule="nonzero"/></clipPath><clipPath id="3062f3f9cf"><path d="M 79.523438 -5.019531 L 269.664062 30.890625 L 217.890625 305.042969 L 27.75 269.136719 Z M 79.523438 -5.019531 " clip-rule="nonzero"/></clipPath><clipPath id="662cb5d079"><path d="M 51 141 L 228 141 L 228 288 L 51 288 Z M 51 141 " clip-rule="nonzero"/></clipPath><clipPath id="b720308ed0"><path d="M 79.523438 -5.019531 L 269.664062 30.890625 L 217.890625 305.042969 L 27.75 269.136719 Z M 79.523438 -5.019531 " clip-rule="nonzero"/></clipPath><clipPath id="184c0aa2b4"><path d="M 79.523438 -5.019531 L 269.664062 30.890625 L 217.890625 305.042969 L 27.75 269.136719 Z M 79.523438 -5.019531 " clip-rule="nonzero"/></clipPath><clipPath id="04495888e8"><path d="M 79.523438 -5.019531 L 269.664062 30.890625 L 217.890625 305.042969 L 27.75 269.136719 Z M 79.523438 -5.019531 " clip-rule="nonzero"/></clipPath></defs><g clip-path="url(#3c09426ebf)"><g clip-path="url(#adf9d13f49)"><g clip-path="url(#4b3d0e20bc)"><g clip-path="url(#af424bebc1)"><path fill="#f8b051" d="M 226.089844 77.242188 L 263.613281 62.515625 L 232.332031 56.824219 L 240.75 40.097656 L 220.488281 51.394531 L 213.09375 24.777344 L 203.484375 37.566406 L 186.054688 15.144531 L 188.558594 45.90625 L 166.460938 46.882812 L 182.375 65.796875 L 154.183594 75.269531 L 178.308594 78.25 L 172.996094 98.136719 L 191.234375 92.53125 L 188.152344 114.410156 L 201.492188 90.078125 L 226.410156 123.375 L 223.996094 88.703125 L 231.011719 90.9375 Z M 226.089844 77.242188 " fill-opacity="1" fill-rule="nonzero"/></g></g></g></g><g clip-path="url(#1c8376333a)"><g clip-path="url(#16fa6b9c8e)"><g clip-path="url(#114bc50741)"><g clip-path="url(#24572b3d88)"><path fill="#e83c37" d="M 215.574219 70.332031 L 230.109375 66.285156 L 221.433594 61.890625 L 224.6875 55.746094 L 212.859375 57.824219 L 209.285156 44.945312 L 204.636719 51.132812 L 199.039062 44.402344 L 201.125 55.808594 L 200.804688 56.234375 L 186.722656 55.640625 L 191.5 62.472656 L 184.972656 69.828125 L 194.246094 68.058594 L 194.808594 67.199219 L 189.691406 80.402344 L 198.707031 77.726562 L 199.308594 82.21875 L 203.671875 76.539062 L 212.949219 86.019531 L 214.558594 75.875 L 223.675781 83.171875 Z M 215.574219 70.332031 " fill-opacity="1" fill-rule="nonzero"/></g></g></g></g><g clip-path="url(#dacc3b0dbf)"><g clip-path="url(#8a9d345244)"><g clip-path="url(#30865346eb)"><g clip-path="url(#82e35eee3c)"><path fill="#bad5f1" d="M 202.480469 67.3125 C 199.894531 80.101562 190.046875 82.808594 178.261719 81.320312 C 172.777344 80.625 168.8125 79.820312 163.769531 82.550781 C 159.597656 84.808594 157.011719 90.875 154.925781 94.828125 C 152.402344 99.613281 159.917969 103.269531 162.429688 98.511719 C 163.738281 96.03125 165.015625 93.605469 166.675781 91.335938 C 169.585938 87.363281 174.574219 89.273438 178.632812 89.789062 C 183.824219 90.445312 188.972656 90.132812 194.046875 88.898438 C 203.648438 86.566406 208.851562 77.964844 210.6875 68.863281 C 211.757812 63.570312 203.550781 62.023438 202.480469 67.3125 Z M 202.480469 67.3125 " fill-opacity="1" fill-rule="nonzero"/></g></g></g></g><g clip-path="url(#01c5c33763)"><g clip-path="url(#cb42175f3b)"><g clip-path="url(#3097351060)"><g clip-path="url(#37bb1b78e5)"><path fill="#131328" d="M 176.632812 113.972656 C 174.625 124.617188 164.386719 131.621094 153.765625 129.613281 L 150.1875 128.9375 C 139.566406 126.933594 132.582031 116.679688 134.59375 106.035156 C 136.605469 95.390625 146.84375 88.390625 157.464844 90.394531 L 161.042969 91.070312 C 171.664062 93.078125 178.644531 103.332031 176.632812 113.972656 Z M 176.632812 113.972656 " fill-opacity="1" fill-rule="nonzero"/></g></g></g></g><g clip-path="url(#828bb273d3)"><g clip-path="url(#813c698687)"><g clip-path="url(#acee7ce40b)"><g clip-path="url(#6db7570136)"><path fill="#181930" d="M 225.597656 212.804688 C 225.316406 214.285156 225 215.757812 224.648438 217.226562 C 224.296875 218.691406 223.910156 220.148438 223.484375 221.59375 C 223.0625 223.042969 222.605469 224.476562 222.109375 225.902344 C 221.617188 227.328125 221.089844 228.738281 220.523438 230.136719 C 219.960938 231.535156 219.367188 232.921875 218.734375 234.289062 C 218.105469 235.660156 217.441406 237.011719 216.742188 238.347656 C 216.046875 239.6875 215.316406 241.003906 214.554688 242.304688 C 213.792969 243.605469 213 244.886719 212.175781 246.148438 C 211.351562 247.414062 210.5 248.652344 209.613281 249.875 C 208.726562 251.09375 207.8125 252.289062 206.871094 253.464844 C 205.925781 254.640625 204.953125 255.792969 203.953125 256.917969 C 202.953125 258.046875 201.925781 259.148438 200.871094 260.226562 C 199.820312 261.300781 198.738281 262.351562 197.632812 263.375 C 196.527344 264.398438 195.398438 265.394531 194.242188 266.363281 C 193.089844 267.332031 191.914062 268.269531 190.710938 269.183594 C 189.511719 270.09375 188.289062 270.972656 187.046875 271.824219 C 185.804688 272.671875 184.539062 273.492188 183.257812 274.28125 C 181.972656 275.066406 180.671875 275.824219 179.351562 276.546875 C 178.03125 277.273438 176.691406 277.964844 175.339844 278.621094 C 173.984375 279.28125 172.613281 279.90625 171.230469 280.496094 C 169.84375 281.085938 168.445312 281.644531 167.035156 282.164062 C 165.621094 282.6875 164.199219 283.175781 162.761719 283.628906 C 161.328125 284.078125 159.882812 284.496094 158.425781 284.878906 C 156.96875 285.257812 155.503906 285.601562 154.03125 285.914062 C 152.558594 286.222656 151.078125 286.492188 149.59375 286.730469 C 148.105469 286.964844 146.613281 287.164062 145.117188 287.328125 C 143.621094 287.492188 142.125 287.617188 140.621094 287.707031 C 139.117188 287.796875 137.617188 287.847656 136.109375 287.863281 C 134.605469 287.878906 133.101562 287.855469 131.597656 287.796875 C 130.09375 287.738281 128.59375 287.644531 127.09375 287.511719 C 125.597656 287.378906 124.101562 287.207031 122.609375 287.003906 C 121.121094 286.796875 119.636719 286.554688 118.15625 286.273438 C 116.679688 285.996094 115.207031 285.679688 113.746094 285.328125 C 112.28125 284.976562 110.828125 284.589844 109.382812 284.167969 C 107.941406 283.742188 106.507812 283.285156 105.085938 282.792969 C 103.664062 282.296875 102.257812 281.769531 100.859375 281.207031 C 99.464844 280.644531 98.085938 280.046875 96.71875 279.414062 C 95.351562 278.785156 94 278.121094 92.667969 277.421875 C 91.335938 276.726562 90.019531 275.996094 88.722656 275.234375 C 87.421875 274.472656 86.144531 273.679688 84.886719 272.855469 C 83.628906 272.027344 82.390625 271.171875 81.171875 270.289062 C 79.957031 269.402344 78.761719 268.488281 77.589844 267.542969 C 76.417969 266.597656 75.269531 265.625 74.144531 264.625 C 73.019531 263.621094 71.921875 262.59375 70.847656 261.539062 C 69.773438 260.484375 68.726562 259.402344 67.703125 258.296875 C 66.683594 257.1875 65.691406 256.058594 64.726562 254.902344 C 63.757812 253.746094 62.824219 252.566406 61.914062 251.363281 C 61.007812 250.164062 60.128906 248.9375 59.28125 247.695312 C 58.433594 246.449219 57.617188 245.183594 56.832031 243.898438 C 56.046875 242.613281 55.292969 241.308594 54.570312 239.988281 C 53.851562 238.664062 53.160156 237.324219 52.503906 235.96875 C 51.847656 234.613281 51.226562 233.242188 50.636719 231.855469 C 50.050781 230.464844 49.496094 229.066406 48.976562 227.652344 C 48.453125 226.238281 47.96875 224.8125 47.519531 223.371094 C 47.070312 221.933594 46.65625 220.484375 46.273438 219.027344 C 45.894531 217.566406 45.554688 216.101562 45.246094 214.625 C 44.9375 213.148438 44.667969 211.667969 44.433594 210.179688 C 44.199219 208.6875 44 207.195312 43.839844 205.695312 C 43.675781 204.199219 43.550781 202.695312 43.464844 201.191406 C 43.375 199.683594 43.324219 198.179688 43.3125 196.671875 C 43.296875 195.164062 43.320312 193.65625 43.378906 192.148438 C 43.441406 190.644531 43.535156 189.140625 43.671875 187.636719 C 43.804688 186.136719 43.972656 184.636719 44.179688 183.144531 C 44.386719 181.652344 44.632812 180.164062 44.910156 178.679688 C 45.191406 177.199219 45.507812 175.726562 45.859375 174.261719 C 46.210938 172.792969 46.597656 171.335938 47.023438 169.890625 C 47.445312 168.441406 47.902344 167.007812 48.398438 165.582031 C 48.890625 164.15625 49.417969 162.746094 49.984375 161.347656 C 50.546875 159.949219 51.140625 158.566406 51.773438 157.195312 C 52.402344 155.824219 53.066406 154.472656 53.765625 153.136719 C 54.460938 151.800781 55.191406 150.480469 55.953125 149.179688 C 56.714844 147.878906 57.507812 146.597656 58.332031 145.335938 C 59.15625 144.074219 60.011719 142.832031 60.894531 141.613281 C 61.78125 140.390625 62.695312 139.195312 63.636719 138.019531 C 64.582031 136.84375 65.554688 135.695312 66.554688 134.566406 C 67.554688 133.4375 68.582031 132.335938 69.636719 131.261719 C 70.6875 130.183594 71.769531 129.132812 72.875 128.109375 C 73.980469 127.085938 75.109375 126.089844 76.265625 125.121094 C 77.417969 124.152344 78.597656 123.214844 79.796875 122.304688 C 80.996094 121.394531 82.21875 120.511719 83.460938 119.664062 C 84.703125 118.8125 85.96875 117.992188 87.25 117.207031 C 88.535156 116.417969 89.835938 115.660156 91.15625 114.9375 C 92.476562 114.214844 93.816406 113.523438 95.167969 112.863281 C 96.523438 112.207031 97.894531 111.582031 99.277344 110.988281 C 100.664062 110.398438 102.0625 109.84375 103.472656 109.320312 C 104.886719 108.796875 106.308594 108.308594 107.746094 107.859375 C 109.179688 107.40625 110.625 106.988281 112.082031 106.609375 C 113.539062 106.226562 115.003906 105.882812 116.476562 105.574219 C 117.949219 105.265625 119.429688 104.992188 120.914062 104.753906 C 122.402344 104.519531 123.894531 104.320312 125.390625 104.15625 C 126.886719 103.992188 128.386719 103.867188 129.886719 103.777344 C 131.390625 103.6875 132.894531 103.636719 134.398438 103.621094 C 135.902344 103.605469 137.40625 103.628906 138.910156 103.6875 C 140.414062 103.746094 141.914062 103.84375 143.414062 103.972656 C 144.914062 104.105469 146.40625 104.277344 147.898438 104.484375 C 149.386719 104.6875 150.871094 104.933594 152.351562 105.210938 C 153.828125 105.488281 155.300781 105.804688 156.761719 106.15625 C 158.226562 106.507812 159.679688 106.894531 161.125 107.320312 C 162.566406 107.742188 164 108.199219 165.421875 108.695312 C 166.84375 109.1875 168.25 109.714844 169.648438 110.277344 C 171.042969 110.84375 172.425781 111.4375 173.789062 112.070312 C 175.15625 112.699219 176.507812 113.363281 177.839844 114.0625 C 179.171875 114.757812 180.488281 115.488281 181.785156 116.25 C 183.085938 117.011719 184.363281 117.804688 185.621094 118.632812 C 186.882812 119.457031 188.117188 120.3125 189.335938 121.199219 C 190.554688 122.082031 191.746094 123 192.917969 123.945312 C 194.089844 124.886719 195.238281 125.859375 196.363281 126.863281 C 197.488281 127.863281 198.585938 128.890625 199.660156 129.945312 C 200.734375 131.003906 201.78125 132.082031 202.804688 133.191406 C 203.824219 134.296875 204.816406 135.429688 205.78125 136.585938 C 206.75 137.738281 207.683594 138.917969 208.59375 140.121094 C 209.5 141.324219 210.378906 142.546875 211.226562 143.792969 C 212.074219 145.035156 212.890625 146.300781 213.675781 147.585938 C 214.460938 148.871094 215.214844 150.175781 215.9375 151.5 C 216.65625 152.820312 217.347656 154.160156 218.003906 155.515625 C 218.660156 156.871094 219.28125 158.246094 219.871094 159.632812 C 220.457031 161.019531 221.011719 162.417969 221.53125 163.832031 C 222.054688 165.25 222.539062 166.675781 222.988281 168.113281 C 223.4375 169.550781 223.855469 171 224.234375 172.457031 C 224.613281 173.917969 224.957031 175.382812 225.261719 176.859375 C 225.570312 178.335938 225.839844 179.816406 226.074219 181.308594 C 226.308594 182.796875 226.507812 184.289062 226.667969 185.789062 C 226.832031 187.289062 226.957031 188.789062 227.042969 190.296875 C 227.132812 191.800781 227.183594 193.304688 227.195312 194.8125 C 227.210938 196.320312 227.1875 197.828125 227.128906 199.335938 C 227.066406 200.84375 226.972656 202.347656 226.835938 203.847656 C 226.703125 205.351562 226.535156 206.847656 226.328125 208.339844 C 226.121094 209.835938 225.875 211.324219 225.597656 212.804688 Z M 225.597656 212.804688 " fill-opacity="1" fill-rule="nonzero"/></g></g></g></g><g clip-path="url(#ef587838b3)"><g clip-path="url(#314f6cc271)"><g clip-path="url(#cac9a703ad)"><g clip-path="url(#2c0a67c66d)"><path fill="#ffffff" d="M 114.03125 146.246094 C 113.917969 146.835938 113.78125 147.414062 113.613281 147.988281 C 113.445312 148.5625 113.25 149.125 113.027344 149.679688 C 112.800781 150.234375 112.554688 150.777344 112.277344 151.304688 C 112 151.835938 111.699219 152.351562 111.371094 152.851562 C 111.046875 153.351562 110.695312 153.832031 110.320312 154.296875 C 109.949219 154.761719 109.550781 155.210938 109.136719 155.636719 C 108.71875 156.0625 108.28125 156.46875 107.824219 156.851562 C 107.367188 157.234375 106.890625 157.59375 106.398438 157.933594 C 105.90625 158.269531 105.398438 158.582031 104.875 158.867188 C 104.351562 159.15625 103.816406 159.414062 103.265625 159.648438 C 102.71875 159.882812 102.160156 160.089844 101.589844 160.269531 C 101.019531 160.449219 100.445312 160.597656 99.863281 160.722656 C 99.277344 160.84375 98.691406 160.9375 98.097656 161.003906 C 97.503906 161.066406 96.910156 161.101562 96.3125 161.109375 C 95.71875 161.113281 95.121094 161.089844 94.527344 161.039062 C 93.933594 160.984375 93.34375 160.902344 92.757812 160.792969 C 92.171875 160.683594 91.59375 160.542969 91.023438 160.375 C 90.449219 160.207031 89.886719 160.011719 89.335938 159.789062 C 88.78125 159.566406 88.242188 159.316406 87.714844 159.042969 C 87.183594 158.765625 86.671875 158.464844 86.171875 158.136719 C 85.671875 157.808594 85.191406 157.460938 84.726562 157.085938 C 84.261719 156.710938 83.816406 156.3125 83.394531 155.894531 C 82.96875 155.476562 82.5625 155.039062 82.179688 154.582031 C 81.796875 154.125 81.4375 153.648438 81.101562 153.15625 C 80.765625 152.664062 80.457031 152.152344 80.171875 151.628906 C 79.886719 151.105469 79.625 150.570312 79.390625 150.019531 C 79.160156 149.46875 78.953125 148.910156 78.773438 148.339844 C 78.597656 147.769531 78.445312 147.191406 78.324219 146.609375 C 78.203125 146.023438 78.109375 145.433594 78.046875 144.839844 C 77.980469 144.246094 77.945312 143.652344 77.941406 143.054688 C 77.9375 142.457031 77.960938 141.859375 78.011719 141.265625 C 78.066406 140.671875 78.148438 140.078125 78.257812 139.492188 C 78.367188 138.90625 78.507812 138.324219 78.675781 137.753906 C 78.84375 137.179688 79.039062 136.613281 79.261719 136.0625 C 79.484375 135.507812 79.734375 134.964844 80.011719 134.433594 C 80.285156 133.90625 80.589844 133.390625 80.914062 132.890625 C 81.242188 132.390625 81.589844 131.90625 81.964844 131.441406 C 82.339844 130.976562 82.734375 130.53125 83.152344 130.105469 C 83.570312 129.675781 84.007812 129.273438 84.464844 128.890625 C 84.921875 128.503906 85.398438 128.144531 85.890625 127.808594 C 86.382812 127.472656 86.890625 127.160156 87.414062 126.871094 C 87.9375 126.585938 88.472656 126.324219 89.019531 126.089844 C 89.570312 125.855469 90.128906 125.648438 90.699219 125.472656 C 91.265625 125.292969 91.84375 125.140625 92.425781 125.019531 C 93.011719 124.894531 93.597656 124.804688 94.191406 124.738281 C 94.785156 124.671875 95.378906 124.636719 95.972656 124.632812 C 96.570312 124.625 97.164062 124.648438 97.757812 124.703125 C 98.351562 124.753906 98.941406 124.835938 99.527344 124.945312 C 100.113281 125.058594 100.695312 125.195312 101.265625 125.363281 C 101.835938 125.53125 102.398438 125.726562 102.953125 125.949219 C 103.507812 126.171875 104.046875 126.421875 104.574219 126.699219 C 105.101562 126.976562 105.617188 127.277344 106.117188 127.605469 C 106.613281 127.929688 107.097656 128.28125 107.558594 128.65625 C 108.023438 129.03125 108.46875 129.425781 108.894531 129.84375 C 109.320312 130.261719 109.722656 130.699219 110.105469 131.15625 C 110.488281 131.617188 110.847656 132.089844 111.183594 132.585938 C 111.519531 133.078125 111.832031 133.585938 112.117188 134.109375 C 112.402344 134.636719 112.664062 135.171875 112.894531 135.722656 C 113.128906 136.269531 113.335938 136.832031 113.511719 137.398438 C 113.691406 137.96875 113.84375 138.546875 113.964844 139.132812 C 114.085938 139.714844 114.179688 140.304688 114.242188 140.898438 C 114.304688 141.492188 114.339844 142.089844 114.347656 142.6875 C 114.351562 143.285156 114.328125 143.878906 114.277344 144.476562 C 114.222656 145.070312 114.140625 145.660156 114.03125 146.246094 Z M 114.03125 146.246094 " fill-opacity="0.298" fill-rule="nonzero"/></g></g></g></g><g clip-path="url(#f8fe64b00d)"><g clip-path="url(#e8be0bfba9)"><g clip-path="url(#9c7e2b96f6)"><g clip-path="url(#3062f3f9cf)"><path fill="#ffffff" d="M 85.917969 172.503906 C 85.808594 173.09375 85.640625 173.664062 85.414062 174.21875 C 85.191406 174.777344 84.917969 175.304688 84.589844 175.804688 C 84.261719 176.304688 83.890625 176.769531 83.46875 177.199219 C 83.050781 177.625 82.59375 178.007812 82.101562 178.347656 C 81.609375 178.683594 81.085938 178.96875 80.535156 179.207031 C 79.984375 179.441406 79.417969 179.617188 78.832031 179.742188 C 78.246094 179.863281 77.65625 179.929688 77.058594 179.933594 C 76.460938 179.941406 75.867188 179.886719 75.28125 179.777344 C 74.695312 179.667969 74.125 179.5 73.570312 179.277344 C 73.015625 179.050781 72.488281 178.777344 71.988281 178.449219 C 71.488281 178.121094 71.023438 177.746094 70.597656 177.328125 C 70.171875 176.910156 69.789062 176.453125 69.453125 175.957031 C 69.117188 175.464844 68.832031 174.941406 68.597656 174.390625 C 68.363281 173.839844 68.183594 173.269531 68.0625 172.683594 C 67.941406 172.097656 67.878906 171.503906 67.871094 170.90625 C 67.867188 170.308594 67.917969 169.714844 68.03125 169.125 C 68.140625 168.539062 68.308594 167.964844 68.53125 167.410156 C 68.753906 166.855469 69.03125 166.324219 69.359375 165.824219 C 69.6875 165.324219 70.058594 164.859375 70.476562 164.429688 C 70.894531 164.003906 71.351562 163.621094 71.847656 163.28125 C 72.339844 162.945312 72.863281 162.660156 73.414062 162.425781 C 73.960938 162.1875 74.53125 162.011719 75.113281 161.886719 C 75.699219 161.765625 76.292969 161.699219 76.890625 161.695312 C 77.488281 161.6875 78.078125 161.742188 78.667969 161.851562 C 79.253906 161.964844 79.824219 162.128906 80.378906 162.355469 C 80.933594 162.578125 81.460938 162.851562 81.960938 163.179688 C 82.460938 163.507812 82.921875 163.882812 83.351562 164.300781 C 83.777344 164.71875 84.160156 165.175781 84.496094 165.671875 C 84.832031 166.167969 85.117188 166.6875 85.351562 167.238281 C 85.585938 167.789062 85.761719 168.359375 85.882812 168.945312 C 86.007812 169.53125 86.070312 170.125 86.074219 170.722656 C 86.082031 171.320312 86.027344 171.914062 85.917969 172.503906 Z M 85.917969 172.503906 " fill-opacity="0.298" fill-rule="nonzero"/></g></g></g></g><g clip-path="url(#662cb5d079)"><g clip-path="url(#b720308ed0)"><g clip-path="url(#184c0aa2b4)"><g clip-path="url(#04495888e8)"><path fill="#131328" d="M 209.375 141.183594 C 200.296875 170.539062 181.433594 196.34375 155.9375 213.78125 C 126.203125 234.113281 89.191406 241.886719 53.816406 235.207031 C 53.195312 235.089844 52.582031 234.957031 51.964844 234.832031 C 64.070312 260.707031 87.984375 280.578125 118.15625 286.277344 C 168.050781 295.699219 216.15625 262.804688 225.597656 212.804688 C 230.53125 186.671875 223.925781 161.046875 209.375 141.183594 Z M 209.375 141.183594 " fill-opacity="1" fill-rule="nonzero"/></g></g></g></g></svg>