<svg xmlns="http://www.w3.org/2000/svg" xmlns:xlink="http://www.w3.org/1999/xlink" width="400" zoomAndPan="magnify" viewBox="0 0 300 299.999988" height="400" preserveAspectRatio="xMidYMid meet" version="1.0"><defs><clipPath id="b58a23fc98"><path d="M 164 271 L 182 271 L 182 283 L 164 283 Z M 164 271 " clip-rule="nonzero"/></clipPath><clipPath id="3fe8bfcceb"><path d="M -6.769531 88.246094 L 165.820312 -17.675781 L 306.65625 211.804688 L 134.066406 317.722656 Z M -6.769531 88.246094 " clip-rule="nonzero"/></clipPath><clipPath id="4f68ac7642"><path d="M -6.769531 88.246094 L 165.820312 -17.675781 L 306.65625 211.804688 L 134.066406 317.722656 Z M -6.769531 88.246094 " clip-rule="nonzero"/></clipPath><clipPath id="2cbbf4210a"><path d="M 171 272 L 193 272 L 193 291 L 171 291 Z M 171 272 " clip-rule="nonzero"/></clipPath><clipPath id="a2f4f73285"><path d="M -6.769531 88.246094 L 165.820312 -17.675781 L 306.65625 211.804688 L 134.066406 317.722656 Z M -6.769531 88.246094 " clip-rule="nonzero"/></clipPath><clipPath id="bbedd03a87"><path d="M -6.769531 88.246094 L 165.820312 -17.675781 L 306.65625 211.804688 L 134.066406 317.722656 Z M -6.769531 88.246094 " clip-rule="nonzero"/></clipPath><clipPath id="37546209de"><path d="M 168.355469 282.410156 L 189.167969 269.640625 L 195.558594 280.050781 L 174.746094 292.824219 Z M 168.355469 282.410156 " clip-rule="nonzero"/></clipPath><clipPath id="6b580a9da8"><path d="M 168.355469 282.410156 L 189.167969 269.640625 L 195.542969 280.023438 L 174.730469 292.796875 Z M 168.355469 282.410156 " clip-rule="nonzero"/></clipPath><clipPath id="8665dffd05"><path d="M 171 266 L 185 266 L 185 281 L 171 281 Z M 171 266 " clip-rule="nonzero"/></clipPath><clipPath id="de5520b703"><path d="M -6.769531 88.246094 L 165.820312 -17.675781 L 306.65625 211.804688 L 134.066406 317.722656 Z M -6.769531 88.246094 " clip-rule="nonzero"/></clipPath><clipPath id="3e79fa0f32"><path d="M -6.769531 88.246094 L 165.820312 -17.675781 L 306.65625 211.804688 L 134.066406 317.722656 Z M -6.769531 88.246094 " clip-rule="nonzero"/></clipPath><clipPath id="06842490a3"><path d="M 132 93 L 144 93 L 144 113 L 132 113 Z M 132 93 " clip-rule="nonzero"/></clipPath><clipPath id="b949a4acbc"><path d="M -6.769531 88.246094 L 165.820312 -17.675781 L 306.65625 211.804688 L 134.066406 317.722656 Z M -6.769531 88.246094 " clip-rule="nonzero"/></clipPath><clipPath id="01aa4e1179"><path d="M -6.769531 88.246094 L 165.820312 -17.675781 L 306.65625 211.804688 L 134.066406 317.722656 Z M -6.769531 88.246094 " clip-rule="nonzero"/></clipPath><clipPath id="807dad84da"><path d="M 127 105 L 150 105 L 150 121 L 127 121 Z M 127 105 " clip-rule="nonzero"/></clipPath><clipPath id="8ce93a1459"><path d="M -6.769531 88.246094 L 165.820312 -17.675781 L 306.65625 211.804688 L 134.066406 317.722656 Z M -6.769531 88.246094 " clip-rule="nonzero"/></clipPath><clipPath id="ed6f9764b3"><path d="M -6.769531 88.246094 L 165.820312 -17.675781 L 306.65625 211.804688 L 134.066406 317.722656 Z M -6.769531 88.246094 " clip-rule="nonzero"/></clipPath><clipPath id="1ee4f1ae23"><path d="M 126 98 L 140 98 L 140 114 L 126 114 Z M 126 98 " clip-rule="nonzero"/></clipPath><clipPath id="b8dcb2bfa7"><path d="M -6.769531 88.246094 L 165.820312 -17.675781 L 306.65625 211.804688 L 134.066406 317.722656 Z M -6.769531 88.246094 " clip-rule="nonzero"/></clipPath><clipPath id="6bc56d6c74"><path d="M -6.769531 88.246094 L 165.820312 -17.675781 L 306.65625 211.804688 L 134.066406 317.722656 Z M -6.769531 88.246094 " clip-rule="nonzero"/></clipPath><clipPath id="a3c1129019"><path d="M 94 216 L 107 216 L 107 235 L 94 235 Z M 94 216 " clip-rule="nonzero"/></clipPath><clipPath id="c7acdcf38b"><path d="M -6.769531 88.246094 L 165.820312 -17.675781 L 306.65625 211.804688 L 134.066406 317.722656 Z M -6.769531 88.246094 " clip-rule="nonzero"/></clipPath><clipPath id="c88e7acf52"><path d="M -6.769531 88.246094 L 165.820312 -17.675781 L 306.65625 211.804688 L 134.066406 317.722656 Z M -6.769531 88.246094 " clip-rule="nonzero"/></clipPath><clipPath id="8bb3ebca62"><path d="M 85 229 L 110 229 L 110 242 L 85 242 Z M 85 229 " clip-rule="nonzero"/></clipPath><clipPath id="1c19c126da"><path d="M -6.769531 88.246094 L 165.820312 -17.675781 L 306.65625 211.804688 L 134.066406 317.722656 Z M -6.769531 88.246094 " clip-rule="nonzero"/></clipPath><clipPath id="ff075b8ce2"><path d="M -6.769531 88.246094 L 165.820312 -17.675781 L 306.65625 211.804688 L 134.066406 317.722656 Z M -6.769531 88.246094 " clip-rule="nonzero"/></clipPath><clipPath id="4a5a440b40"><path d="M 88 218 L 101 218 L 101 236 L 88 236 Z M 88 218 " clip-rule="nonzero"/></clipPath><clipPath id="3cf4d22d51"><path d="M -6.769531 88.246094 L 165.820312 -17.675781 L 306.65625 211.804688 L 134.066406 317.722656 Z M -6.769531 88.246094 " clip-rule="nonzero"/></clipPath><clipPath id="33e00fd1bb"><path d="M -6.769531 88.246094 L 165.820312 -17.675781 L 306.65625 211.804688 L 134.066406 317.722656 Z M -6.769531 88.246094 " clip-rule="nonzero"/></clipPath><clipPath id="b804a042f3"><path d="M 64 121 L 86 121 L 86 147 L 64 147 Z M 64 121 " clip-rule="nonzero"/></clipPath><clipPath id="b670517a98"><path d="M -6.769531 88.246094 L 165.820312 -17.675781 L 306.65625 211.804688 L 134.066406 317.722656 Z M -6.769531 88.246094 " clip-rule="nonzero"/></clipPath><clipPath id="d6a123139b"><path d="M -6.769531 88.246094 L 165.820312 -17.675781 L 306.65625 211.804688 L 134.066406 317.722656 Z M -6.769531 88.246094 " clip-rule="nonzero"/></clipPath><clipPath id="497a6308f1"><path d="M 64 138 L 103 138 L 103 158 L 64 158 Z M 64 138 " clip-rule="nonzero"/></clipPath><clipPath id="7a0a58d9af"><path d="M -6.769531 88.246094 L 165.820312 -17.675781 L 306.65625 211.804688 L 134.066406 317.722656 Z M -6.769531 88.246094 " clip-rule="nonzero"/></clipPath><clipPath id="a9bba5896c"><path d="M -6.769531 88.246094 L 165.820312 -17.675781 L 306.65625 211.804688 L 134.066406 317.722656 Z M -6.769531 88.246094 " clip-rule="nonzero"/></clipPath><clipPath id="77bd311469"><path d="M 74 120 L 94 120 L 94 148 L 74 148 Z M 74 120 " clip-rule="nonzero"/></clipPath><clipPath id="641b391116"><path d="M -6.769531 88.246094 L 165.820312 -17.675781 L 306.65625 211.804688 L 134.066406 317.722656 Z M -6.769531 88.246094 " clip-rule="nonzero"/></clipPath><clipPath id="4d35641a94"><path d="M -6.769531 88.246094 L 165.820312 -17.675781 L 306.65625 211.804688 L 134.066406 317.722656 Z M -6.769531 88.246094 " clip-rule="nonzero"/></clipPath><clipPath id="fda7124a8f"><path d="M 196 96 L 223 96 L 223 114 L 196 114 Z M 196 96 " clip-rule="nonzero"/></clipPath><clipPath id="d0b7f87600"><path d="M -6.769531 88.246094 L 165.820312 -17.675781 L 306.65625 211.804688 L 134.066406 317.722656 Z M -6.769531 88.246094 " clip-rule="nonzero"/></clipPath><clipPath id="15c7c66fdf"><path d="M -6.769531 88.246094 L 165.820312 -17.675781 L 306.65625 211.804688 L 134.066406 317.722656 Z M -6.769531 88.246094 " clip-rule="nonzero"/></clipPath><clipPath id="6be5bd5632"><path d="M 207 99 L 240 99 L 240 127 L 207 127 Z M 207 99 " clip-rule="nonzero"/></clipPath><clipPath id="e4f9064a82"><path d="M -6.769531 88.246094 L 165.820312 -17.675781 L 306.65625 211.804688 L 134.066406 317.722656 Z M -6.769531 88.246094 " clip-rule="nonzero"/></clipPath><clipPath id="d62b4f6c09"><path d="M -6.769531 88.246094 L 165.820312 -17.675781 L 306.65625 211.804688 L 134.066406 317.722656 Z M -6.769531 88.246094 " clip-rule="nonzero"/></clipPath><clipPath id="6ab5c34338"><path d="M 201.863281 115.261719 L 234.972656 94.941406 L 244.847656 111.03125 L 211.738281 131.351562 Z M 201.863281 115.261719 " clip-rule="nonzero"/></clipPath><clipPath id="9d713543e8"><path d="M 201.863281 115.261719 L 234.902344 94.984375 L 244.777344 111.074219 L 211.738281 131.351562 Z M 201.863281 115.261719 " clip-rule="nonzero"/></clipPath><clipPath id="4440a5beb6"><path d="M 208 88 L 229 88 L 229 113 L 208 113 Z M 208 88 " clip-rule="nonzero"/></clipPath><clipPath id="298b419413"><path d="M -6.769531 88.246094 L 165.820312 -17.675781 L 306.65625 211.804688 L 134.066406 317.722656 Z M -6.769531 88.246094 " clip-rule="nonzero"/></clipPath><clipPath id="132f7b69ec"><path d="M -6.769531 88.246094 L 165.820312 -17.675781 L 306.65625 211.804688 L 134.066406 317.722656 Z M -6.769531 88.246094 " clip-rule="nonzero"/></clipPath><clipPath id="95d97c6218"><path d="M 259 163 L 284 163 L 284 202 L 259 202 Z M 259 163 " clip-rule="nonzero"/></clipPath><clipPath id="3a8ce13f70"><path d="M -6.769531 88.246094 L 165.820312 -17.675781 L 306.65625 211.804688 L 134.066406 317.722656 Z M -6.769531 88.246094 " clip-rule="nonzero"/></clipPath><clipPath id="f81e8be8c6"><path d="M -6.769531 88.246094 L 165.820312 -17.675781 L 306.65625 211.804688 L 134.066406 317.722656 Z M -6.769531 88.246094 " clip-rule="nonzero"/></clipPath><clipPath id="b75c926c8b"><path d="M 250.859375 177.054688 L 275.925781 161.667969 L 292.191406 188.171875 L 267.121094 203.554688 Z M 250.859375 177.054688 " clip-rule="nonzero"/></clipPath><clipPath id="1b6c5a4447"><path d="M 250.859375 177.054688 L 275.855469 161.710938 L 292.121094 188.214844 L 267.121094 203.554688 Z M 250.859375 177.054688 " clip-rule="nonzero"/></clipPath><clipPath id="52edd0b051"><path d="M 246 189 L 294 189 L 294 217 L 246 217 Z M 246 189 " clip-rule="nonzero"/></clipPath><clipPath id="1199c252d9"><path d="M -6.769531 88.246094 L 165.820312 -17.675781 L 306.65625 211.804688 L 134.066406 317.722656 Z M -6.769531 88.246094 " clip-rule="nonzero"/></clipPath><clipPath id="3b3e80695c"><path d="M -6.769531 88.246094 L 165.820312 -17.675781 L 306.65625 211.804688 L 134.066406 317.722656 Z M -6.769531 88.246094 " clip-rule="nonzero"/></clipPath><clipPath id="75e630dac2"><path d="M 247 171 L 274 171 L 274 204 L 247 204 Z M 247 171 " clip-rule="nonzero"/></clipPath><clipPath id="e04fbc438e"><path d="M -6.769531 88.246094 L 165.820312 -17.675781 L 306.65625 211.804688 L 134.066406 317.722656 Z M -6.769531 88.246094 " clip-rule="nonzero"/></clipPath><clipPath id="c39aa32d00"><path d="M -6.769531 88.246094 L 165.820312 -17.675781 L 306.65625 211.804688 L 134.066406 317.722656 Z M -6.769531 88.246094 " clip-rule="nonzero"/></clipPath><clipPath id="d0817f1d0a"><path d="M 111 13 L 127 13 L 127 37 L 111 37 Z M 111 13 " clip-rule="nonzero"/></clipPath><clipPath id="0c680493b9"><path d="M -6.769531 88.246094 L 165.820312 -17.675781 L 306.65625 211.804688 L 134.066406 317.722656 Z M -6.769531 88.246094 " clip-rule="nonzero"/></clipPath><clipPath id="4baa32c769"><path d="M -6.769531 88.246094 L 165.820312 -17.675781 L 306.65625 211.804688 L 134.066406 317.722656 Z M -6.769531 88.246094 " clip-rule="nonzero"/></clipPath><clipPath id="c961ecf18e"><path d="M 103 28 L 133 28 L 133 46 L 103 46 Z M 103 28 " clip-rule="nonzero"/></clipPath><clipPath id="e7c1e66921"><path d="M -6.769531 88.246094 L 165.820312 -17.675781 L 306.65625 211.804688 L 134.066406 317.722656 Z M -6.769531 88.246094 " clip-rule="nonzero"/></clipPath><clipPath id="7a25f904b6"><path d="M -6.769531 88.246094 L 165.820312 -17.675781 L 306.65625 211.804688 L 134.066406 317.722656 Z M -6.769531 88.246094 " clip-rule="nonzero"/></clipPath><clipPath id="e35adb6751"><path d="M 104 17 L 120 17 L 120 38 L 104 38 Z M 104 17 " clip-rule="nonzero"/></clipPath><clipPath id="a6b3bacc52"><path d="M -6.769531 88.246094 L 165.820312 -17.675781 L 306.65625 211.804688 L 134.066406 317.722656 Z M -6.769531 88.246094 " clip-rule="nonzero"/></clipPath><clipPath id="c4636896c4"><path d="M -6.769531 88.246094 L 165.820312 -17.675781 L 306.65625 211.804688 L 134.066406 317.722656 Z M -6.769531 88.246094 " clip-rule="nonzero"/></clipPath><clipPath id="2c816fbfec"><path d="M 158 164 L 175 164 L 175 184 L 158 184 Z M 158 164 " clip-rule="nonzero"/></clipPath><clipPath id="662e174a6f"><path d="M -6.769531 88.246094 L 165.820312 -17.675781 L 306.65625 211.804688 L 134.066406 317.722656 Z M -6.769531 88.246094 " clip-rule="nonzero"/></clipPath><clipPath id="18920e86db"><path d="M -6.769531 88.246094 L 165.820312 -17.675781 L 306.65625 211.804688 L 134.066406 317.722656 Z M -6.769531 88.246094 " clip-rule="nonzero"/></clipPath><clipPath id="082e3c6fe3"><path d="M 164 169 L 184 169 L 184 198 L 164 198 Z M 164 169 " clip-rule="nonzero"/></clipPath><clipPath id="c6cc8a94eb"><path d="M -6.769531 88.246094 L 165.820312 -17.675781 L 306.65625 211.804688 L 134.066406 317.722656 Z M -6.769531 88.246094 " clip-rule="nonzero"/></clipPath><clipPath id="979ac79357"><path d="M -6.769531 88.246094 L 165.820312 -17.675781 L 306.65625 211.804688 L 134.066406 317.722656 Z M -6.769531 88.246094 " clip-rule="nonzero"/></clipPath><clipPath id="c310ab6245"><path d="M 153 173 L 175 173 L 175 189 L 153 189 Z M 153 173 " clip-rule="nonzero"/></clipPath><clipPath id="affbaa14a9"><path d="M -6.769531 88.246094 L 165.820312 -17.675781 L 306.65625 211.804688 L 134.066406 317.722656 Z M -6.769531 88.246094 " clip-rule="nonzero"/></clipPath><clipPath id="20c2f80030"><path d="M -6.769531 88.246094 L 165.820312 -17.675781 L 306.65625 211.804688 L 134.066406 317.722656 Z M -6.769531 88.246094 " clip-rule="nonzero"/></clipPath></defs><g clip-path="url(#b58a23fc98)"><g clip-path="url(#3fe8bfcceb)"><g clip-path="url(#4f68ac7642)"><path fill="#ebfcff" d="M 169.105469 280.882812 C 172.425781 282.621094 176.945312 282.566406 181.386719 281.070312 C 181.8125 277.46875 180.375 274.296875 177.054688 272.5625 C 173.730469 270.824219 169.214844 270.882812 164.773438 272.378906 C 164.347656 275.976562 165.78125 279.148438 169.105469 280.882812 " fill-opacity="1" fill-rule="nonzero"/></g></g></g><g clip-path="url(#2cbbf4210a)"><g clip-path="url(#a2f4f73285)"><g clip-path="url(#bbedd03a87)"><g clip-path="url(#37546209de)"><g clip-path="url(#6b580a9da8)"><path fill="#000000" d="M 191.40625 273.992188 C 193.378906 276.503906 190.734375 281.878906 185.496094 285.992188 C 180.257812 290.105469 174.40625 291.398438 172.433594 288.886719 C 170.457031 286.371094 173.105469 280.996094 178.34375 276.882812 C 183.582031 272.769531 189.429688 271.472656 191.40625 273.992188 " fill-opacity="1" fill-rule="nonzero"/></g></g></g></g></g><g clip-path="url(#8665dffd05)"><g clip-path="url(#de5520b703)"><g clip-path="url(#3e79fa0f32)"><path fill="#ebfcff" d="M 173.078125 276.722656 C 174.890625 279.675781 178.492188 281.105469 182.710938 280.96875 C 184.738281 277.269531 185.097656 273.410156 183.285156 270.460938 C 181.472656 267.507812 177.871094 266.078125 173.652344 266.210938 C 171.625 269.910156 171.269531 273.773438 173.078125 276.722656 " fill-opacity="1" fill-rule="nonzero"/></g></g></g><g clip-path="url(#06842490a3)"><g clip-path="url(#b949a4acbc)"><g clip-path="url(#01aa4e1179)"><path fill="#ebfcff" d="M 143.617188 101.1875 C 143.664062 104.9375 141.566406 108.9375 138.21875 112.21875 C 134.820312 110.96875 132.640625 108.253906 132.597656 104.503906 C 132.554688 100.753906 134.648438 96.753906 137.992188 93.472656 C 141.394531 94.722656 143.574219 97.4375 143.617188 101.1875 " fill-opacity="1" fill-rule="nonzero"/></g></g></g><g clip-path="url(#807dad84da)"><g clip-path="url(#8ce93a1459)"><g clip-path="url(#ed6f9764b3)"><path fill="#000000" d="M 127.375 117.945312 C 128.71875 120.847656 134.710938 120.921875 140.75 118.113281 C 146.789062 115.304688 150.59375 110.679688 149.242188 107.777344 C 147.894531 104.878906 141.90625 104.804688 135.867188 107.613281 C 129.824219 110.421875 126.023438 115.046875 127.375 117.945312 " fill-opacity="1" fill-rule="nonzero"/></g></g></g><g clip-path="url(#1ee4f1ae23)"><g clip-path="url(#b8dcb2bfa7)"><g clip-path="url(#6bc56d6c74)"><path fill="#ebfcff" d="M 138.105469 102.847656 C 139.917969 105.796875 139.5625 109.65625 137.535156 113.355469 C 133.316406 113.492188 129.714844 112.058594 127.902344 109.109375 C 126.089844 106.15625 126.445312 102.300781 128.476562 98.597656 C 132.695312 98.464844 136.292969 99.894531 138.105469 102.847656 " fill-opacity="1" fill-rule="nonzero"/></g></g></g><g clip-path="url(#a3c1129019)"><g clip-path="url(#c7acdcf38b)"><g clip-path="url(#c88e7acf52)"><path fill="#ebfcff" d="M 106.515625 225.738281 C 105.382812 229.308594 102.132812 232.449219 97.925781 234.511719 C 95.089844 232.257812 93.875 228.996094 95.007812 225.425781 C 96.144531 221.851562 99.390625 218.710938 103.597656 216.648438 C 106.433594 218.902344 107.652344 222.164062 106.515625 225.738281 " fill-opacity="1" fill-rule="nonzero"/></g></g></g><g clip-path="url(#8bb3ebca62)"><g clip-path="url(#1c19c126da)"><g clip-path="url(#ff075b8ce2)"><path fill="#000000" d="M 85.828125 236.539062 C 86.195312 239.714844 91.859375 241.667969 98.476562 240.902344 C 105.09375 240.136719 110.15625 236.9375 109.789062 233.761719 C 109.417969 230.582031 103.753906 228.632812 97.136719 229.398438 C 90.519531 230.167969 85.457031 233.363281 85.828125 236.539062 " fill-opacity="1" fill-rule="nonzero"/></g></g></g><g clip-path="url(#4a5a440b40)"><g clip-path="url(#3cf4d22d51)"><g clip-path="url(#33e00fd1bb)"><path fill="#ebfcff" d="M 100.761719 225.578125 C 101.554688 228.953125 100.003906 232.5 96.917969 235.375 C 92.871094 234.179688 89.898438 231.6875 89.105469 228.320312 C 88.3125 224.949219 89.863281 221.394531 92.953125 218.523438 C 97 219.71875 99.96875 222.210938 100.761719 225.578125 " fill-opacity="1" fill-rule="nonzero"/></g></g></g><g clip-path="url(#b804a042f3)"><g clip-path="url(#b670517a98)"><g clip-path="url(#d6a123139b)"><path fill="#ebfcff" d="M 66.191406 136.691406 C 69.304688 141.753906 75.503906 145.347656 82.769531 146.914062 C 86.269531 142.363281 86.890625 136.878906 83.777344 131.816406 C 80.664062 126.753906 74.460938 123.160156 67.199219 121.59375 C 63.695312 126.144531 63.074219 131.628906 66.191406 136.691406 " fill-opacity="1" fill-rule="nonzero"/></g></g></g><g clip-path="url(#497a6308f1)"><g clip-path="url(#7a0a58d9af)"><g clip-path="url(#a9bba5896c)"><path fill="#000000" d="M 102.164062 145.417969 C 102.808594 150.445312 94.839844 155.613281 84.367188 156.957031 C 73.894531 158.300781 64.875 155.316406 64.230469 150.285156 C 63.582031 145.257812 71.550781 140.089844 82.023438 138.746094 C 92.5 137.402344 101.515625 140.390625 102.164062 145.417969 " fill-opacity="1" fill-rule="nonzero"/></g></g></g><g clip-path="url(#77bd311469)"><g clip-path="url(#641b391116)"><g clip-path="url(#4d35641a94)"><path fill="#ebfcff" d="M 74.984375 134.253906 C 75.054688 139.742188 78.796875 144.613281 84.652344 147.859375 C 90.421875 144.46875 94.042969 139.507812 93.96875 134.015625 C 93.898438 128.527344 90.152344 123.65625 84.296875 120.414062 C 78.53125 123.800781 74.914062 128.765625 74.984375 134.253906 " fill-opacity="1" fill-rule="nonzero"/></g></g></g><g clip-path="url(#fda7124a8f)"><g clip-path="url(#d0b7f87600)"><g clip-path="url(#15c7c66fdf)"><path fill="#ebfcff" d="M 203.289062 111.273438 C 208.425781 114.261719 215.585938 114.496094 222.726562 112.4375 C 223.65625 106.769531 221.609375 101.644531 216.472656 98.65625 C 211.332031 95.667969 204.175781 95.4375 197.035156 97.492188 C 196.105469 103.160156 198.152344 108.285156 203.289062 111.273438 " fill-opacity="1" fill-rule="nonzero"/></g></g></g><g clip-path="url(#6be5bd5632)"><g clip-path="url(#e4f9064a82)"><g clip-path="url(#d62b4f6c09)"><g clip-path="url(#6ab5c34338)"><g clip-path="url(#9d713543e8)"><path fill="#000000" d="M 239.097656 101.945312 C 242.046875 106.066406 237.472656 114.390625 228.886719 120.53125 C 220.292969 126.671875 210.941406 128.308594 207.992188 124.183594 C 205.042969 120.058594 209.617188 111.734375 218.207031 105.59375 C 226.796875 99.453125 236.152344 97.816406 239.097656 101.945312 " fill-opacity="1" fill-rule="nonzero"/></g></g></g></g></g><g clip-path="url(#4440a5beb6)"><g clip-path="url(#298b419413)"><g clip-path="url(#132f7b69ec)"><path fill="#ebfcff" d="M 209.882812 104.964844 C 212.539062 109.769531 218.140625 112.292969 224.832031 112.378906 C 228.3125 106.664062 229.148438 100.578125 226.492188 95.773438 C 223.832031 90.96875 218.230469 88.449219 211.539062 88.359375 C 208.0625 94.074219 207.222656 100.160156 209.882812 104.964844 " fill-opacity="1" fill-rule="nonzero"/></g></g></g><g clip-path="url(#95d97c6218)"><g clip-path="url(#3a8ce13f70)"><g clip-path="url(#f81e8be8c6)"><g clip-path="url(#b75c926c8b)"><g clip-path="url(#1b6c5a4447)"><path fill="#ebfcff" d="M 283.1875 180.402344 C 282.425781 188.039062 277.25 195.703125 269.699219 201.613281 C 263.0625 198.296875 259.25 192.28125 260.011719 184.644531 C 260.769531 177.007812 265.945312 169.347656 273.5 163.433594 C 280.136719 166.75 283.949219 172.765625 283.1875 180.402344 " fill-opacity="1" fill-rule="nonzero"/></g></g></g></g></g><g clip-path="url(#52edd0b051)"><g clip-path="url(#1199c252d9)"><g clip-path="url(#3b3e80695c)"><path fill="#000000" d="M 246.328125 210.800781 C 248.414062 217.003906 260.578125 218.519531 273.503906 214.179688 C 286.429688 209.839844 295.21875 201.292969 293.136719 195.089844 C 291.046875 188.882812 278.878906 187.371094 265.957031 191.707031 C 253.027344 196.046875 244.242188 204.59375 246.328125 210.800781 " fill-opacity="1" fill-rule="nonzero"/></g></g></g><g clip-path="url(#75e630dac2)"><g clip-path="url(#e04fbc438e)"><g clip-path="url(#c39aa32d00)"><path fill="#ebfcff" d="M 271.597656 182.523438 C 274.613281 188.9375 273.011719 196.707031 268.042969 203.773438 C 259.429688 203.085938 252.425781 199.359375 249.414062 192.941406 C 246.398438 186.527344 248 178.757812 252.96875 171.691406 C 261.582031 172.378906 268.585938 176.105469 271.597656 182.523438 " fill-opacity="1" fill-rule="nonzero"/></g></g></g><g clip-path="url(#d0817f1d0a)"><g clip-path="url(#0c680493b9)"><g clip-path="url(#4baa32c769)"><path fill="#ebfcff" d="M 126.191406 23.484375 C 125.6875 28.164062 122.476562 32.839844 117.8125 36.429688 C 113.757812 34.367188 111.449219 30.65625 111.953125 25.972656 C 112.457031 21.292969 115.667969 16.617188 120.328125 13.027344 C 124.382812 15.089844 126.695312 18.800781 126.191406 23.484375 " fill-opacity="1" fill-rule="nonzero"/></g></g></g><g clip-path="url(#c961ecf18e)"><g clip-path="url(#e7c1e66921)"><g clip-path="url(#7a25f904b6)"><path fill="#000000" d="M 103.433594 41.957031 C 104.683594 45.773438 112.140625 46.757812 120.09375 44.160156 C 128.039062 41.558594 133.472656 36.355469 132.222656 32.539062 C 130.972656 28.722656 123.515625 27.738281 115.566406 30.335938 C 107.617188 32.9375 102.183594 38.140625 103.433594 41.957031 " fill-opacity="1" fill-rule="nonzero"/></g></g></g><g clip-path="url(#e35adb6751)"><g clip-path="url(#a6b3bacc52)"><g clip-path="url(#c4636896c4)"><path fill="#ebfcff" d="M 119.070312 24.730469 C 120.890625 28.679688 119.871094 33.4375 116.789062 37.746094 C 111.507812 37.285156 107.230469 34.964844 105.414062 31.015625 C 103.59375 27.0625 104.613281 22.308594 107.695312 17.996094 C 112.976562 18.457031 117.253906 20.777344 119.070312 24.730469 " fill-opacity="1" fill-rule="nonzero"/></g></g></g><g clip-path="url(#2c816fbfec)"><g clip-path="url(#662e174a6f)"><g clip-path="url(#18920e86db)"><path fill="#ebfcff" d="M 170.605469 167.886719 C 173.558594 171.554688 174.59375 177.136719 173.839844 182.972656 C 169.511719 184.378906 165.257812 183.386719 162.300781 179.722656 C 159.347656 176.050781 158.3125 170.472656 159.070312 164.632812 C 163.394531 163.230469 167.652344 164.222656 170.605469 167.886719 " fill-opacity="1" fill-rule="nonzero"/></g></g></g><g clip-path="url(#082e3c6fe3)"><g clip-path="url(#c6cc8a94eb)"><g clip-path="url(#979ac79357)"><path fill="#000000" d="M 167.578125 197.050781 C 171.160156 198.867188 177.128906 194.292969 180.910156 186.828125 C 184.6875 179.367188 184.851562 171.84375 181.269531 170.027344 C 177.691406 168.210938 171.722656 172.789062 167.941406 180.25 C 164.160156 187.714844 163.996094 195.234375 167.578125 197.050781 " fill-opacity="1" fill-rule="nonzero"/></g></g></g><g clip-path="url(#c310ab6245)"><g clip-path="url(#affbaa14a9)"><g clip-path="url(#20c2f80030)"><path fill="#ebfcff" d="M 166.453125 173.804688 C 170.53125 175.3125 173.175781 179.398438 174.042969 184.628906 C 169.984375 188.035156 165.320312 189.421875 161.242188 187.914062 C 157.164062 186.402344 154.523438 182.316406 153.652344 177.085938 C 157.710938 173.679688 162.375 172.292969 166.453125 173.804688 " fill-opacity="1" fill-rule="nonzero"/></g></g></g></svg>