<svg xmlns="http://www.w3.org/2000/svg" xmlns:xlink="http://www.w3.org/1999/xlink" width="400" zoomAndPan="magnify" viewBox="0 0 300 299.999988" height="400" preserveAspectRatio="xMidYMid meet" version="1.0"><defs><clipPath id="c54f1c471c"><path d="M 23 25.066406 L 272 25.066406 L 272 274.816406 L 23 274.816406 Z M 23 25.066406 " clip-rule="nonzero"/></clipPath></defs><g clip-path="url(#c54f1c471c)"><path fill="#ff3131" d="M 267.292969 174.898438 C 267.292969 174.898438 263.257812 172.566406 257.648438 169.332031 C 257.121094 169.035156 256.589844 168.734375 256.035156 168.425781 C 250.949219 165.601562 245.355469 163.691406 240.382812 160.640625 C 235.25 157.492188 229.058594 154 224.726562 149.894531 C 230.636719 144.507812 239.890625 141.121094 246.859375 136.976562 C 253.878906 132.804688 277.089844 124.59375 270.46875 113.128906 C 270.46875 113.128906 240.929688 61.972656 240.859375 61.859375 C 235.542969 52.652344 225.457031 60.816406 219.453125 64.296875 C 214.949219 68.800781 206.4375 71.84375 200.898438 75.058594 C 195.878906 77.972656 190.789062 80.738281 185.765625 83.636719 C 187.15625 82.835938 185.570312 68.058594 185.53125 66.46875 C 185.304688 57.582031 185.382812 48.6875 185.761719 39.804688 C 185.871094 37.222656 186.007812 34.601562 185.421875 32.082031 C 184.457031 27.933594 181.441406 25.046875 177.085938 25.046875 L 117.867188 25.046875 C 117.074219 25.046875 116.304688 25.15625 115.570312 25.359375 C 108.273438 27.375 110.136719 38.363281 110.257812 43.515625 C 110.4375 50.917969 110.199219 58.332031 109.535156 65.707031 C 109.230469 69.136719 106.65625 81.503906 109.183594 84.03125 C 102.191406 77.035156 92.570312 73.574219 83.933594 69.140625 C 77.140625 65.652344 65.691406 53.742188 57.296875 58.664062 C 56.664062 59.035156 56.058594 59.488281 55.515625 60.023438 C 54.972656 60.554688 54.492188 61.167969 54.09375 61.859375 L 24.488281 113.128906 C 22.894531 115.886719 23 119.175781 24.472656 121.769531 C 24.839844 122.417969 25.292969 123.023438 25.828125 123.566406 C 26.359375 124.109375 26.976562 124.585938 27.664062 124.984375 C 28.394531 125.332031 29.125 125.691406 29.867188 126.066406 C 41.023438 131.917969 50.234375 140.207031 61.960938 144.78125 C 62.816406 145.277344 63.648438 145.753906 64.425781 146.207031 C 68.320312 148.453125 70.898438 149.941406 70.898438 149.941406 C 70.898438 149.941406 68.765625 151.175781 65.441406 153.089844 C 64.613281 153.570312 63.707031 154.09375 62.75 154.664062 C 55.058594 159.210938 46.9375 163.972656 38.550781 167.761719 C 31.902344 170.765625 24.609375 174.375 23.328125 182.371094 C 23.324219 183.117188 23.414062 183.867188 23.605469 184.605469 C 23.796875 185.339844 24.089844 186.0625 24.484375 186.753906 L 54.09375 238.023438 C 56.480469 242.15625 61.816406 243.585938 65.953125 241.199219 C 65.953125 241.199219 66.988281 240.601562 68.738281 239.59375 C 69.320312 239.253906 69.984375 238.871094 70.707031 238.457031 C 77.042969 234.921875 82.75 230.410156 88.925781 226.621094 C 92.292969 224.558594 95.792969 223.09375 99.320312 221.386719 C 101.53125 220.320312 105.605469 219.308594 107.371094 217.683594 C 107.976562 217.335938 108.582031 216.988281 109.183594 216.640625 C 109.183594 230.859375 110.125 244.902344 109.1875 259.121094 C 109.1875 259.679688 109.1875 260.238281 109.1875 260.796875 C 109.1875 261.351562 109.1875 261.910156 109.1875 262.464844 L 109.1875 264.445312 C 109.1875 265.539062 109.1875 266.15625 109.1875 266.15625 C 109.1875 270.929688 113.09375 274.835938 117.867188 274.835938 L 177.085938 274.835938 C 181.859375 274.835938 185.765625 270.929688 185.765625 266.15625 C 185.765625 266.15625 185.765625 264.496094 185.765625 261.785156 C 185.765625 260.878906 185.765625 259.859375 185.765625 258.742188 C 185.765625 245.804688 185.644531 232.863281 185.765625 219.925781 C 185.765625 218.785156 185.765625 217.859375 185.765625 217.226562 L 185.765625 216.246094 C 185.765625 218.003906 198.652344 222.257812 200.316406 223.105469 C 207.207031 226.613281 212.8125 231.855469 219.359375 235.632812 C 224.964844 238.871094 229.003906 241.199219 229.003906 241.199219 C 233.136719 243.585938 238.472656 242.15625 240.859375 238.023438 L 270.46875 186.75 C 272.855469 182.617188 271.425781 177.285156 267.292969 174.898438 Z M 267.292969 174.898438 " fill-opacity="1" fill-rule="nonzero"/></g><path fill="#ffffff" d="M 173.785156 68.988281 C 173.785156 71.527344 169.84375 71.523438 169.84375 68.988281 L 169.84375 41.742188 C 169.84375 39.203125 173.785156 39.207031 173.785156 41.742188 Z M 173.785156 68.988281 " fill-opacity="1" fill-rule="nonzero"/><path fill="#ffffff" d="M 180.679688 87.039062 C 180.679688 89.582031 176.734375 89.578125 176.738281 87.039062 C 176.738281 82.085938 176.8125 77.136719 176.871094 72.183594 C 176.980469 63.453125 177.050781 54.710938 176.617188 45.984375 C 176.46875 43.011719 176.59375 39.863281 175.914062 36.945312 C 175.382812 34.679688 174.375 32.664062 171.949219 32.15625 C 169.460938 31.632812 170.519531 27.832031 172.996094 28.355469 C 176.53125 29.097656 178.671875 32.027344 179.578125 35.363281 C 180.4375 38.511719 180.339844 41.859375 180.515625 45.089844 C 180.761719 49.742188 180.863281 54.402344 180.890625 59.0625 C 180.9375 68.390625 180.683594 77.714844 180.679688 87.039062 Z M 180.679688 87.039062 " fill-opacity="1" fill-rule="nonzero"/><path fill="#ffffff" d="M 179.066406 138.492188 L 162.417969 138.492188 C 160.203125 138.492188 158.40625 136.699219 158.40625 134.484375 L 158.40625 120.8125 C 158.40625 118.597656 156.609375 116.800781 154.394531 116.800781 L 138.070312 116.800781 C 135.855469 116.800781 134.058594 118.597656 134.058594 120.8125 C 134.058594 120.8125 134.058594 122.332031 134.058594 124.355469 C 134.058594 126.382812 134.058594 128.914062 134.058594 130.941406 C 133.703125 133.101562 133.703125 136.140625 132.691406 137.15625 C 126.613281 141.207031 111.410156 133.101562 111.933594 145.679688 C 111.925781 147.492188 111.921875 149.757812 111.921875 151.574219 C 111.921875 153.386719 111.921875 154.746094 111.921875 154.746094 C 111.921875 156.960938 113.71875 158.757812 115.933594 158.757812 L 130.046875 158.757812 C 131.15625 158.757812 132.15625 159.207031 132.882812 159.933594 C 133.609375 160.65625 134.0625 161.660156 134.078125 162.769531 C 136.742188 169.574219 130.664062 185.785156 142.335938 183.96875 C 144.71875 183.96875 147.742188 183.96875 150.160156 183.96875 C 152.578125 183.96875 154.390625 183.96875 154.390625 183.96875 C 156.609375 183.96875 158.402344 182.175781 158.402344 179.960938 C 158.402344 179.960938 158.402344 172.320312 158.402344 167.226562 C 158.402344 165.953125 158.402344 164.835938 158.402344 164.042969 C 158.023438 162.484375 159.039062 160.457031 160.050781 159.445312 C 168.15625 155.390625 186.398438 163.496094 183.078125 148.625 C 183.078125 147.605469 183.078125 146.585938 183.078125 145.679688 C 183.078125 143.867188 183.078125 142.507812 183.078125 142.507812 C 183.078125 140.289062 181.28125 138.492188 179.066406 138.492188 Z M 179.066406 138.492188 " fill-opacity="1" fill-rule="nonzero"/><path fill="#ffffff" d="M 79.441406 72.863281 C 76.546875 70.550781 73.433594 68.558594 70.066406 67.007812 C 66.816406 65.507812 62.929688 63.671875 59.417969 65.359375 C 56.390625 66.8125 54.734375 70.179688 53.113281 72.933594 C 50.90625 76.6875 48.699219 80.441406 46.488281 84.195312 C 44.007812 88.410156 41.53125 92.621094 39.050781 96.835938 C 38.144531 98.375 40.53125 99.765625 41.433594 98.230469 C 45.386719 91.515625 49.339844 84.796875 53.292969 78.082031 C 54.261719 76.433594 55.230469 74.789062 56.199219 73.140625 C 56.972656 71.820312 57.738281 70.460938 58.773438 69.324219 C 59.726562 68.28125 60.886719 67.449219 62.347656 67.410156 C 64.121094 67.367188 65.976562 68.226562 67.582031 68.90625 C 71.125 70.410156 74.476562 72.414062 77.484375 74.816406 C 78.863281 75.914062 80.832031 73.972656 79.441406 72.863281 Z M 79.441406 72.863281 " fill-opacity="1" fill-rule="nonzero"/><path fill="#ffffff" d="M 57.589844 87.578125 C 58.246094 85.148438 59.152344 82.8125 60.363281 80.601562 C 60.960938 79.507812 61.625 78.445312 62.347656 77.429688 C 62.675781 76.96875 62.988281 76.460938 63.53125 76.25 C 64.066406 76.042969 64.8125 76.105469 65.375 76.085938 C 66.664062 76.039062 67.980469 76.039062 69.1875 76.550781 C 70.417969 77.070312 71.539062 77.917969 72.660156 78.636719 C 75.132812 80.222656 77.605469 81.8125 80.078125 83.398438 C 81.578125 84.363281 82.964844 81.972656 81.472656 81.015625 C 78.617188 79.183594 75.765625 77.347656 72.910156 75.519531 C 71.589844 74.671875 70.238281 73.835938 68.679688 73.523438 C 67.210938 73.226562 65.671875 73.265625 64.183594 73.382812 C 62.800781 73.492188 61.660156 73.882812 60.75 74.972656 C 59.84375 76.0625 59.070312 77.296875 58.363281 78.519531 C 56.855469 81.125 55.707031 83.9375 54.921875 86.84375 C 54.460938 88.5625 57.125 89.296875 57.589844 87.578125 Z M 57.589844 87.578125 " fill-opacity="1" fill-rule="nonzero"/></svg>