<svg xmlns="http://www.w3.org/2000/svg" xmlns:xlink="http://www.w3.org/1999/xlink" width="400" zoomAndPan="magnify" viewBox="0 0 300 299.999988" height="400" preserveAspectRatio="xMidYMid meet" version="1.0"><defs><filter x="0%" y="0%" width="100%" height="100%" id="c960a68c39"><feColorMatrix values="0 0 0 0 1 0 0 0 0 1 0 0 0 0 1 0 0 0 1 0" color-interpolation-filters="sRGB"/></filter><clipPath id="ac06e19878"><path d="M 16 16 L 284 16 L 284 284 L 16 284 Z M 16 16 " clip-rule="nonzero"/></clipPath><clipPath id="b5358ae5d6"><path d="M 111.773438 -34.761719 L 334.90625 111.867188 L 188.277344 335.003906 L -34.859375 188.371094 Z M 111.773438 -34.761719 " clip-rule="nonzero"/></clipPath><clipPath id="42be795756"><path d="M 111.773438 -34.761719 L 334.90625 111.867188 L 188.277344 335.003906 L -34.859375 188.371094 Z M 111.773438 -34.761719 " clip-rule="nonzero"/></clipPath><clipPath id="bccb1e2c0d"><path d="M 261.488281 222.933594 C 241.351562 253.574219 213.183594 272.726562 176.976562 280.390625 C 140.902344 287.851562 107.546875 281.507812 76.910156 261.378906 C 46.070312 241.113281 26.921875 212.941406 19.453125 176.875 C 12.125 140.59375 18.519531 107.144531 38.65625 76.503906 C 58.921875 45.664062 87.023438 26.613281 122.96875 19.351562 C 159.042969 11.886719 192.5 18.289062 223.339844 38.554688 C 253.972656 58.683594 273.027344 86.789062 280.492188 122.867188 C 288.085938 158.742188 281.753906 192.09375 261.488281 222.933594 Z M 261.488281 222.933594 " clip-rule="evenodd"/></clipPath><radialGradient gradientTransform="matrix(0.180116, 0.983645, 0.983645, -0.180116, 110.435557, -36.293729)" gradientUnits="userSpaceOnUse" r="223.389944" cx="95.439814" id="bdb72a77a0" cy="-0.397967" fx="95.439814" fy="-0.397967"><stop stop-opacity="1" stop-color="rgb(100%, 74.099731%, 34.899902%)" offset="0"/><stop stop-opacity="1" stop-color="rgb(100%, 74.099731%, 34.899902%)" offset="0.25"/><stop stop-opacity="1" stop-color="rgb(100%, 74.069214%, 34.890747%)" offset="0.296875"/><stop stop-opacity="1" stop-color="rgb(100%, 73.94104%, 34.855652%)" offset="0.316406"/><stop stop-opacity="1" stop-color="rgb(100%, 73.744202%, 34.802246%)" offset="0.324219"/><stop stop-opacity="1" stop-color="rgb(100%, 73.548889%, 34.74884%)" offset="0.332031"/><stop stop-opacity="1" stop-color="rgb(100%, 73.353577%, 34.695435%)" offset="0.339844"/><stop stop-opacity="1" stop-color="rgb(100%, 73.156738%, 34.640503%)" offset="0.347656"/><stop stop-opacity="1" stop-color="rgb(100%, 72.961426%, 34.587097%)" offset="0.355469"/><stop stop-opacity="1" stop-color="rgb(100%, 72.766113%, 34.533691%)" offset="0.363281"/><stop stop-opacity="1" stop-color="rgb(100%, 72.569275%, 34.480286%)" offset="0.371094"/><stop stop-opacity="1" stop-color="rgb(100%, 72.373962%, 34.42688%)" offset="0.378906"/><stop stop-opacity="1" stop-color="rgb(100%, 72.177124%, 34.373474%)" offset="0.386719"/><stop stop-opacity="1" stop-color="rgb(100%, 71.884155%, 34.294128%)" offset="0.394531"/><stop stop-opacity="1" stop-color="rgb(100%, 71.589661%, 34.213257%)" offset="0.410156"/><stop stop-opacity="1" stop-color="rgb(100%, 71.296692%, 34.133911%)" offset="0.417969"/><stop stop-opacity="1" stop-color="rgb(100%, 71.002197%, 34.05304%)" offset="0.433594"/><stop stop-opacity="1" stop-color="rgb(100%, 70.806885%, 33.999634%)" offset="0.441406"/><stop stop-opacity="1" stop-color="rgb(100%, 70.610046%, 33.944702%)" offset="0.449219"/><stop stop-opacity="1" stop-color="rgb(100%, 70.317078%, 33.865356%)" offset="0.457031"/><stop stop-opacity="1" stop-color="rgb(100%, 70.022583%, 33.784485%)" offset="0.472656"/><stop stop-opacity="1" stop-color="rgb(100%, 69.729614%, 33.705139%)" offset="0.480469"/><stop stop-opacity="1" stop-color="rgb(100%, 69.43512%, 33.624268%)" offset="0.496094"/><stop stop-opacity="1" stop-color="rgb(100%, 69.190979%, 33.557129%)" offset="0.503906"/><stop stop-opacity="1" stop-color="rgb(100%, 68.896484%, 33.477783%)" offset="0.515625"/><stop stop-opacity="1" stop-color="rgb(100%, 68.603516%, 33.396912%)" offset="0.527344"/><stop stop-opacity="1" stop-color="rgb(100%, 68.309021%, 33.31604%)" offset="0.539062"/><stop stop-opacity="1" stop-color="rgb(100%, 68.014526%, 33.236694%)" offset="0.550781"/><stop stop-opacity="1" stop-color="rgb(100%, 67.721558%, 33.155823%)" offset="0.5625"/><stop stop-opacity="1" stop-color="rgb(100%, 67.427063%, 33.076477%)" offset="0.574219"/><stop stop-opacity="1" stop-color="rgb(100%, 67.134094%, 32.995605%)" offset="0.585938"/><stop stop-opacity="1" stop-color="rgb(100%, 66.8396%, 32.914734%)" offset="0.597656"/><stop stop-opacity="1" stop-color="rgb(100%, 66.546631%, 32.835388%)" offset="0.609375"/><stop stop-opacity="1" stop-color="rgb(100%, 66.252136%, 32.754517%)" offset="0.621094"/><stop stop-opacity="1" stop-color="rgb(100%, 66.007996%, 32.687378%)" offset="0.632812"/><stop stop-opacity="1" stop-color="rgb(100%, 65.811157%, 32.633972%)" offset="0.640625"/><stop stop-opacity="1" stop-color="rgb(100%, 65.615845%, 32.580566%)" offset="0.648438"/><stop stop-opacity="1" stop-color="rgb(100%, 65.420532%, 32.527161%)" offset="0.65625"/><stop stop-opacity="1" stop-color="rgb(100%, 65.223694%, 32.473755%)" offset="0.664062"/><stop stop-opacity="1" stop-color="rgb(100%, 65.028381%, 32.420349%)" offset="0.671875"/><stop stop-opacity="1" stop-color="rgb(100%, 64.831543%, 32.366943%)" offset="0.679688"/><stop stop-opacity="1" stop-color="rgb(100%, 64.63623%, 32.313538%)" offset="0.6875"/><stop stop-opacity="1" stop-color="rgb(100%, 64.440918%, 32.258606%)" offset="0.695312"/><stop stop-opacity="1" stop-color="rgb(100%, 64.24408%, 32.2052%)" offset="0.703125"/><stop stop-opacity="1" stop-color="rgb(100%, 63.951111%, 32.125854%)" offset="0.710938"/><stop stop-opacity="1" stop-color="rgb(100%, 63.656616%, 32.044983%)" offset="0.726562"/><stop stop-opacity="1" stop-color="rgb(100%, 63.461304%, 31.991577%)" offset="0.734375"/><stop stop-opacity="1" stop-color="rgb(100%, 63.264465%, 31.938171%)" offset="0.742188"/><stop stop-opacity="1" stop-color="rgb(100%, 62.971497%, 31.858826%)" offset="0.75"/><stop stop-opacity="1" stop-color="rgb(100%, 62.628174%, 31.764221%)" offset="0.765625"/><stop stop-opacity="1" stop-color="rgb(100%, 62.335205%, 31.68335%)" offset="0.777344"/><stop stop-opacity="1" stop-color="rgb(100%, 62.04071%, 31.604004%)" offset="0.789062"/><stop stop-opacity="1" stop-color="rgb(100%, 61.746216%, 31.523132%)" offset="0.800781"/><stop stop-opacity="1" stop-color="rgb(100%, 61.453247%, 31.443787%)" offset="0.8125"/><stop stop-opacity="1" stop-color="rgb(100%, 61.209106%, 31.376648%)" offset="0.824219"/><stop stop-opacity="1" stop-color="rgb(100%, 61.012268%, 31.323242%)" offset="0.832031"/><stop stop-opacity="1" stop-color="rgb(100%, 60.816956%, 31.268311%)" offset="0.839844"/><stop stop-opacity="1" stop-color="rgb(100%, 60.620117%, 31.214905%)" offset="0.847656"/><stop stop-opacity="1" stop-color="rgb(100%, 60.327148%, 31.135559%)" offset="0.855469"/><stop stop-opacity="1" stop-color="rgb(100%, 60.032654%, 31.054688%)" offset="0.871094"/><stop stop-opacity="1" stop-color="rgb(100%, 59.788513%, 30.987549%)" offset="0.878906"/><stop stop-opacity="1" stop-color="rgb(100%, 59.494019%, 30.908203%)" offset="0.890625"/><stop stop-opacity="1" stop-color="rgb(100%, 59.20105%, 30.827332%)" offset="0.902344"/><stop stop-opacity="1" stop-color="rgb(100%, 58.955383%, 30.760193%)" offset="0.914062"/><stop stop-opacity="1" stop-color="rgb(100%, 58.760071%, 30.706787%)" offset="0.921875"/><stop stop-opacity="1" stop-color="rgb(100%, 58.563232%, 30.653381%)" offset="0.929688"/><stop stop-opacity="1" stop-color="rgb(100%, 58.270264%, 30.574036%)" offset="0.9375"/><stop stop-opacity="1" stop-color="rgb(100%, 57.926941%, 30.479431%)" offset="0.953125"/><stop stop-opacity="1" stop-color="rgb(100%, 57.6828%, 30.412292%)" offset="0.964844"/><stop stop-opacity="1" stop-color="rgb(100%, 57.437134%, 30.34668%)" offset="0.972656"/><stop stop-opacity="1" stop-color="rgb(100%, 57.192993%, 30.279541%)" offset="0.984375"/><stop stop-opacity="1" stop-color="rgb(100%, 56.996155%, 30.224609%)" offset="0.992188"/><stop stop-opacity="1" stop-color="rgb(100%, 56.898499%, 30.198669%)" offset="1"/></radialGradient><clipPath id="0c951726e6"><path d="M 96 37 L 149 37 L 149 71 L 96 71 Z M 96 37 " clip-rule="nonzero"/></clipPath><clipPath id="3935ed4c1f"><path d="M 111.773438 -34.761719 L 334.90625 111.867188 L 188.277344 335.003906 L -34.859375 188.371094 Z M 111.773438 -34.761719 " clip-rule="nonzero"/></clipPath><clipPath id="ddf1613c36"><path d="M 111.773438 -34.761719 L 334.90625 111.867188 L 188.277344 335.003906 L -34.859375 188.371094 Z M 111.773438 -34.761719 " clip-rule="nonzero"/></clipPath><clipPath id="eb7772374f"><path d="M 71 70 L 86 70 L 86 86 L 71 86 Z M 71 70 " clip-rule="nonzero"/></clipPath><clipPath id="7249324983"><path d="M 111.773438 -34.761719 L 334.90625 111.867188 L 188.277344 335.003906 L -34.859375 188.371094 Z M 111.773438 -34.761719 " clip-rule="nonzero"/></clipPath><clipPath id="9c43bfbefd"><path d="M 111.773438 -34.761719 L 334.90625 111.867188 L 188.277344 335.003906 L -34.859375 188.371094 Z M 111.773438 -34.761719 " clip-rule="nonzero"/></clipPath><clipPath id="6b9d101a77"><path d="M 0 10 L 300 10 L 300 300 L 0 300 Z M 0 10 " clip-rule="nonzero"/></clipPath><clipPath id="84e9dac7cd"><path d="M 111.773438 -34.761719 L 334.90625 111.867188 L 188.277344 335.003906 L -34.859375 188.371094 Z M 111.773438 -34.761719 " clip-rule="nonzero"/></clipPath><clipPath id="4abb4a4006"><path d="M 111.773438 -34.761719 L 334.90625 111.867188 L 188.277344 335.003906 L -34.859375 188.371094 Z M 111.773438 -34.761719 " clip-rule="nonzero"/></clipPath><mask id="c1f9826921"><g filter="url(#c960a68c39)"><rect x="-30" width="360" fill="#000000" y="-29.999999" height="359.999986" fill-opacity="0.2157"/></g></mask><clipPath id="f4cf04e329"><path d="M 16 120 L 284 120 L 284 274 L 16 274 Z M 16 120 " clip-rule="nonzero"/></clipPath><clipPath id="9d2e5b486b"><path d="M 111.773438 -44.761719 L 334.90625 101.867188 L 188.277344 325.003906 L -34.859375 178.371094 Z M 111.773438 -44.761719 " clip-rule="nonzero"/></clipPath><clipPath id="e56b61cbb0"><path d="M 111.773438 -44.761719 L 334.90625 101.867188 L 188.277344 325.003906 L -34.859375 178.371094 Z M 111.773438 -44.761719 " clip-rule="nonzero"/></clipPath><clipPath id="b665b2b7e2"><path d="M -21.960938 186.414062 L 188.171875 324.5 L 310.164062 138.859375 L 100.03125 0.773438 Z M -21.960938 186.414062 " clip-rule="nonzero"/></clipPath><clipPath id="6ccf0be266"><rect x="0" width="300" y="0" height="290"/></clipPath></defs><g clip-path="url(#ac06e19878)"><g clip-path="url(#b5358ae5d6)"><g clip-path="url(#42be795756)"><g clip-path="url(#bccb1e2c0d)"><path fill="url(#bdb72a77a0)" d="M -36.769531 20.839844 L 279.132812 -37.007812 L 336.980469 278.898438 L 21.078125 336.746094 Z M -36.769531 20.839844 " fill-rule="nonzero"/></g></g></g></g><g clip-path="url(#0c951726e6)"><g clip-path="url(#3935ed4c1f)"><g clip-path="url(#ddf1613c36)"><path fill="#fad4ad" d="M 139.0625 40.316406 C 153.375 50.589844 150.59375 59 130.699219 65.558594 C 109.136719 72.453125 97.726562 72.03125 96.472656 64.28125 C 95.222656 57.394531 100.160156 50.539062 111.289062 43.710938 C 122.882812 36.609375 132.136719 35.480469 139.0625 40.316406 Z M 139.0625 40.316406 " fill-opacity="1" fill-rule="evenodd"/></g></g></g><g clip-path="url(#eb7772374f)"><g clip-path="url(#7249324983)"><g clip-path="url(#9c43bfbefd)"><path fill="#fad4ad" d="M 83.574219 71.390625 C 86.875 74.707031 86.160156 78.429688 81.441406 82.542969 C 76.722656 86.652344 73.613281 86.773438 72.113281 82.902344 C 70.753906 79.699219 71.734375 76.445312 75.058594 73.152344 C 78.582031 69.988281 81.421875 69.394531 83.574219 71.390625 Z M 83.574219 71.390625 " fill-opacity="1" fill-rule="evenodd"/></g></g></g><g clip-path="url(#6b9d101a77)"><g clip-path="url(#84e9dac7cd)"><g clip-path="url(#4abb4a4006)"><g mask="url(#c1f9826921)"><g transform="matrix(1, 0, 0, 1, 0, 10)"><g clip-path="url(#6ccf0be266)"><g clip-path="url(#f4cf04e329)"><g clip-path="url(#9d2e5b486b)"><g clip-path="url(#e56b61cbb0)"><g clip-path="url(#b665b2b7e2)"><path fill="#ffbd59" d="M 282.046875 120.382812 C 287.015625 153.664062 280.164062 184.511719 261.488281 212.933594 C 241.351562 243.574219 213.183594 262.726562 176.976562 270.390625 C 140.902344 277.851562 107.542969 271.515625 76.90625 251.386719 C 55.742188 237.476562 39.835938 219.085938 29.179688 196.210938 C 18.996094 173.933594 15.132812 150.613281 17.578125 126.246094 C 20.175781 144.691406 26.441406 161.941406 36.382812 178 C 46.59375 194.519531 59.863281 208.148438 76.191406 218.878906 C 107.03125 239.144531 140.488281 245.546875 176.5625 238.082031 C 212.429688 230.480469 240.441406 211.363281 260.570312 180.730469 C 272.890625 161.984375 280.050781 141.867188 282.046875 120.382812 Z M 282.046875 120.382812 " fill-opacity="1" fill-rule="evenodd"/></g></g></g></g></g></g></g></g></g></g><path fill="#004aad" d="M 123.261719 181.40625 C 123.585938 181.074219 131.195312 172.5625 140.171875 162.484375 L 156.492188 144.160156 L 158.992188 143.726562 C 163.507812 142.9375 168.394531 143.433594 171.578125 145 C 176.375 147.359375 179.703125 151.859375 184.632812 162.65625 C 188.238281 170.542969 190.453125 174.023438 193.519531 176.617188 C 195.859375 178.59375 195.941406 178.636719 199.957031 179.859375 C 204.441406 181.226562 206.273438 181.34375 210.5 180.535156 L 212.683594 180.117188 L 229.925781 160.746094 C 239.410156 150.09375 247.226562 141.191406 247.292969 140.964844 C 247.382812 140.683594 246.753906 140.660156 245.300781 140.886719 C 240.230469 141.671875 235.410156 141.203125 232.347656 139.625 C 227.59375 137.179688 224.527344 133.0625 219.710938 122.667969 C 216.480469 115.691406 214.320312 111.910156 212.308594 109.703125 C 208.148438 105.136719 202.015625 103.066406 195.023438 103.867188 C 192.390625 104.167969 192.320312 104.160156 192.5 103.578125 C 192.609375 103.21875 191.296875 102.234375 190.214844 101.859375 C 189.972656 101.777344 120.324219 179.664062 120.15625 180.203125 C 120.121094 180.320312 120.449219 180.613281 120.882812 180.855469 C 121.320312 181.101562 121.898438 181.460938 122.171875 181.65625 C 122.5 181.886719 122.871094 181.804688 123.261719 181.40625 Z M 195.371094 177.328125 C 194.503906 176.714844 192.957031 175.257812 191.9375 174.09375 L 190.082031 171.976562 L 191.0625 170.871094 C 191.601562 170.265625 193.125 168.566406 194.441406 167.09375 L 196.839844 164.421875 L 198.515625 166.429688 C 200.179688 168.421875 202.902344 170.609375 204.234375 171.019531 C 204.613281 171.132812 204.875 171.390625 204.816406 171.582031 C 204.757812 171.777344 203.332031 173.515625 201.644531 175.441406 C 198.191406 179.394531 198.261719 179.375 195.371094 177.328125 Z M 205.230469 171.488281 C 205.257812 171.402344 206.722656 169.722656 208.492188 167.75 C 210.257812 165.78125 211.734375 164.070312 211.773438 163.953125 C 211.808594 163.832031 210.996094 163.226562 209.96875 162.605469 C 207.988281 161.410156 206.671875 160.238281 205.007812 158.191406 C 204.445312 157.5 203.910156 156.914062 203.8125 156.882812 C 203.714844 156.855469 202.25 158.390625 200.550781 160.296875 C 198.855469 162.207031 197.273438 163.859375 197.042969 163.96875 C 196.5625 164.199219 195.214844 161.929688 192.984375 157.136719 C 192.210938 155.476562 191.542969 154.109375 191.503906 154.097656 C 191.460938 154.085938 190.019531 155.667969 188.296875 157.613281 C 186.574219 159.558594 185.039062 161.113281 184.890625 161.066406 C 184.738281 161.019531 184.121094 159.894531 183.519531 158.5625 C 182.917969 157.230469 181.757812 155.015625 180.941406 153.640625 L 179.460938 151.140625 L 182.335938 147.898438 C 183.914062 146.117188 185.398438 144.429688 185.628906 144.148438 C 186.007812 143.6875 186.175781 143.828125 187.246094 145.476562 C 187.902344 146.492188 189.121094 148.765625 189.953125 150.535156 C 190.785156 152.304688 191.519531 153.769531 191.585938 153.789062 C 191.652344 153.808594 193.21875 152.109375 195.066406 150.007812 C 196.914062 147.90625 198.453125 146.242188 198.488281 146.308594 C 198.523438 146.375 199.398438 148.191406 200.429688 150.339844 C 201.464844 152.492188 202.664062 154.777344 203.09375 155.417969 L 203.878906 156.582031 L 207.023438 152.957031 C 208.757812 150.964844 210.335938 149.253906 210.539062 149.15625 C 210.742188 149.058594 211.445312 149.675781 212.109375 150.539062 C 213.441406 152.273438 216.097656 154.542969 217.765625 155.375 C 218.363281 155.671875 218.824219 156.007812 218.789062 156.121094 C 218.753906 156.234375 217.28125 157.9375 215.511719 159.90625 C 213.746094 161.875 212.277344 163.558594 212.25 163.644531 C 212.152344 163.96875 215.671875 164.84375 217.722656 165 C 218.90625 165.089844 221.128906 165.023438 222.664062 164.847656 C 224.199219 164.675781 225.445312 164.574219 225.429688 164.625 C 225.414062 164.679688 223.878906 166.421875 222.023438 168.503906 L 218.644531 172.28125 L 215.664062 172.613281 C 214.023438 172.792969 211.75 172.871094 210.609375 172.785156 C 208.597656 172.636719 205.136719 171.800781 205.230469 171.488281 Z M 161.113281 139.539062 C 162.765625 137.6875 164.347656 136.042969 164.628906 135.886719 C 165.410156 135.445312 168.496094 135.167969 171.390625 135.277344 C 174.339844 135.390625 178.058594 136.359375 177.582031 136.894531 C 177.417969 137.074219 175.894531 138.78125 174.195312 140.6875 L 171.101562 144.15625 L 168.910156 143.480469 C 166.546875 142.753906 162.980469 142.519531 160.066406 142.90625 C 159.070312 143.035156 158.226562 143.089844 158.183594 143.023438 C 158.140625 142.960938 159.457031 141.390625 161.113281 139.539062 Z M 219.410156 155.925781 C 219.378906 155.6875 220.78125 153.90625 222.523438 151.964844 C 224.261719 150.027344 225.644531 148.3125 225.59375 148.160156 C 225.542969 148.007812 225.277344 147.8125 225.007812 147.730469 C 223.851562 147.375 220.890625 144.980469 219.304688 143.117188 C 217.613281 141.132812 217.585938 141.113281 217.074219 141.703125 C 214.878906 144.222656 210.925781 148.597656 210.757812 148.683594 C 210.5 148.816406 208.734375 145.621094 206.933594 141.757812 C 206.164062 140.101562 205.398438 138.773438 205.234375 138.804688 C 205.074219 138.835938 203.53125 140.46875 201.8125 142.429688 C 200.09375 144.394531 198.582031 145.921875 198.457031 145.832031 C 198.332031 145.738281 197.375 143.898438 196.332031 141.746094 C 195.289062 139.589844 194.125 137.371094 193.75 136.816406 L 193.066406 135.808594 L 192.515625 136.4375 C 192.210938 136.785156 190.726562 138.480469 189.214844 140.210938 C 187.703125 141.9375 186.394531 143.382812 186.304688 143.421875 C 186.21875 143.460938 185.535156 142.746094 184.785156 141.835938 C 183.355469 140.085938 180.566406 137.730469 179.542969 137.410156 C 177.855469 136.875 177.996094 136.519531 181.480469 132.625 C 183.328125 130.5625 184.878906 128.851562 184.929688 128.828125 C 184.980469 128.804688 185.75 129.207031 186.640625 129.722656 C 188.648438 130.882812 190.367188 132.359375 191.777344 134.140625 C 192.367188 134.890625 192.953125 135.535156 193.070312 135.570312 C 193.191406 135.605469 194.71875 134.011719 196.46875 132.03125 C 198.21875 130.050781 199.730469 128.386719 199.824219 128.335938 C 200.132812 128.164062 202.359375 131.882812 203.785156 134.949219 C 204.554688 136.609375 205.296875 138 205.4375 138.042969 C 205.574219 138.085938 207.101562 136.519531 208.832031 134.566406 C 210.5625 132.613281 212.089844 130.992188 212.222656 130.96875 C 212.355469 130.941406 213.214844 132.527344 214.128906 134.488281 C 215.789062 138.054688 217.503906 141.003906 217.816406 140.828125 C 217.90625 140.777344 219.390625 139.140625 221.113281 137.195312 C 222.835938 135.25 224.300781 133.625 224.367188 133.582031 C 224.4375 133.542969 225.167969 134.3125 225.996094 135.292969 C 227.9375 137.59375 228.621094 138.1875 230.859375 139.511719 L 232.703125 140.597656 L 229.546875 144.117188 C 227.8125 146.050781 226.332031 147.824219 226.261719 148.058594 C 226.15625 148.40625 226.589844 148.582031 228.523438 148.988281 C 231.199219 149.546875 233.867188 149.640625 236.96875 149.28125 C 238.113281 149.148438 239.019531 149.15625 238.976562 149.296875 C 238.710938 150.164062 232.785156 156.402344 231.917969 156.730469 C 229.058594 157.804688 219.5625 157.195312 219.410156 155.925781 Z M 174.992188 123.976562 L 178.367188 120.214844 L 180.851562 119.886719 C 184.949219 119.34375 191.671875 120.148438 191.367188 121.140625 C 191.300781 121.355469 189.828125 123.117188 188.089844 125.050781 L 184.9375 128.570312 L 182.574219 128.0625 C 179.636719 127.433594 176.828125 127.308594 173.964844 127.671875 C 172.753906 127.828125 171.730469 127.90625 171.691406 127.847656 C 171.652344 127.789062 173.136719 126.046875 174.992188 123.976562 Z M 196.328125 123.929688 C 195.722656 123.414062 194.648438 122.628906 193.933594 122.1875 C 193.222656 121.746094 192.46875 121.277344 192.257812 121.144531 C 192.003906 120.984375 192.960938 119.6875 195.105469 117.292969 C 196.878906 115.308594 198.511719 113.601562 198.730469 113.5 C 199.652344 113.074219 203.507812 116.023438 206.140625 119.167969 L 206.988281 120.175781 L 210.195312 116.59375 C 211.957031 114.621094 213.585938 113.011719 213.808594 113.015625 C 214.191406 113.023438 218.085938 120.382812 218.714844 122.292969 C 218.980469 123.097656 218.757812 123.445312 215.84375 126.734375 C 214.105469 128.699219 212.574219 130.324219 212.445312 130.351562 C 212.316406 130.375 211.425781 128.742188 210.464844 126.71875 C 208.699219 122.992188 207.144531 120.324219 206.84375 120.492188 C 206.707031 120.570312 202.445312 125.300781 200.566406 127.460938 C 200.050781 128.054688 200.050781 128.054688 198.738281 126.464844 C 198.015625 125.585938 196.933594 124.449219 196.328125 123.929688 Z M 185.652344 112.125 C 185.679688 112.042969 187.035156 110.472656 188.664062 108.632812 C 192.027344 104.839844 192.542969 104.570312 196.765625 104.363281 C 199.414062 104.234375 204.945312 104.886719 205.246094 105.363281 C 205.320312 105.484375 203.859375 107.3125 201.996094 109.425781 L 198.613281 113.269531 L 196.488281 112.621094 C 194.269531 111.941406 189.078125 111.703125 187.152344 112.1875 C 186.167969 112.4375 185.566406 112.410156 185.652344 112.125 Z M 185.652344 112.125 " fill-opacity="1" fill-rule="nonzero"/><path fill="#004aad" d="M 175.628906 182.414062 C 175.304688 182.082031 167.789062 173.484375 158.925781 163.316406 L 142.808594 144.824219 L 140.3125 144.359375 C 135.808594 143.527344 130.925781 143.96875 127.730469 145.5 C 122.917969 147.808594 119.550781 152.269531 114.515625 163.011719 C 110.839844 170.859375 108.59375 174.316406 105.507812 176.875 C 103.148438 178.832031 103.066406 178.871094 99.042969 180.050781 C 94.550781 181.371094 92.71875 181.46875 88.503906 180.617188 L 86.328125 180.175781 L 69.300781 160.625 C 59.933594 149.871094 52.214844 140.886719 52.148438 140.660156 C 52.0625 140.378906 52.6875 140.359375 54.140625 140.601562 C 59.195312 141.441406 64.015625 141.023438 67.089844 139.480469 C 71.859375 137.085938 74.964844 133 79.875 122.660156 C 83.171875 115.71875 85.367188 111.960938 87.398438 109.777344 C 91.597656 105.253906 97.746094 103.25 104.722656 104.125 C 107.347656 104.453125 107.414062 104.445312 107.242188 103.863281 C 107.136719 103.503906 108.457031 102.53125 109.542969 102.167969 C 109.785156 102.085938 178.578125 180.703125 178.738281 181.246094 C 178.773438 181.359375 178.441406 181.652344 178.007812 181.890625 C 177.570312 182.128906 176.988281 182.484375 176.710938 182.675781 C 176.382812 182.902344 176.015625 182.816406 175.628906 182.414062 Z M 103.648438 177.570312 C 104.523438 176.964844 106.082031 175.527344 107.113281 174.371094 L 108.988281 172.273438 L 108.015625 171.160156 C 107.484375 170.546875 105.980469 168.832031 104.679688 167.347656 L 102.3125 164.648438 L 100.617188 166.640625 C 98.9375 168.613281 96.195312 170.769531 94.859375 171.164062 C 94.480469 171.277344 94.214844 171.53125 94.273438 171.722656 C 94.332031 171.917969 95.738281 173.671875 97.402344 175.617188 C 100.8125 179.605469 100.742188 179.585938 103.648438 177.570312 Z M 93.859375 171.625 C 93.835938 171.539062 92.386719 169.84375 90.640625 167.855469 C 88.894531 165.867188 87.4375 164.140625 87.402344 164.019531 C 87.367188 163.898438 88.183594 163.304688 89.214844 162.695312 C 91.203125 161.519531 92.53125 160.363281 94.214844 158.332031 C 94.78125 157.648438 95.324219 157.066406 95.421875 157.039062 C 95.519531 157.007812 96.96875 158.5625 98.644531 160.488281 C 100.320312 162.414062 101.882812 164.082031 102.113281 164.195312 C 102.589844 164.429688 103.957031 162.171875 106.234375 157.40625 C 107.023438 155.757812 107.699219 154.394531 107.742188 154.382812 C 107.78125 154.371094 109.207031 155.96875 110.910156 157.933594 C 112.613281 159.894531 114.128906 161.464844 114.28125 161.421875 C 114.429688 161.375 115.058594 160.257812 115.671875 158.929688 C 116.285156 157.605469 117.464844 155.40625 118.292969 154.039062 L 119.796875 151.554688 L 116.960938 148.285156 C 115.398438 146.484375 113.9375 144.78125 113.707031 144.496094 C 113.332031 144.035156 113.164062 144.171875 112.078125 145.808594 C 111.414062 146.816406 110.175781 149.078125 109.328125 150.839844 C 108.476562 152.597656 107.730469 154.054688 107.664062 154.074219 C 107.597656 154.09375 106.050781 152.375 104.226562 150.253906 C 102.402344 148.136719 100.878906 146.457031 100.84375 146.519531 C 100.808594 146.585938 99.914062 148.390625 98.863281 150.53125 C 97.808594 152.671875 96.589844 154.945312 96.152344 155.578125 L 95.359375 156.734375 L 92.25 153.078125 C 90.542969 151.070312 88.980469 149.339844 88.777344 149.242188 C 88.578125 149.140625 87.871094 149.75 87.199219 150.605469 C 85.847656 152.328125 83.171875 154.566406 81.5 155.378906 C 80.902344 155.671875 80.4375 156 80.472656 156.113281 C 80.503906 156.226562 81.960938 157.949219 83.707031 159.9375 C 85.453125 161.925781 86.902344 163.621094 86.925781 163.707031 C 87.023438 164.035156 83.5 164.871094 81.445312 165.003906 C 80.265625 165.082031 78.046875 164.992188 76.511719 164.800781 C 74.980469 164.609375 73.742188 164.496094 73.753906 164.550781 C 73.769531 164.601562 75.285156 166.363281 77.117188 168.460938 L 80.453125 172.277344 L 83.429688 172.636719 C 85.066406 172.835938 87.335938 172.9375 88.476562 172.867188 C 90.488281 172.738281 93.953125 171.9375 93.859375 171.625 Z M 138.238281 140.152344 C 136.605469 138.28125 135.042969 136.621094 134.761719 136.460938 C 133.984375 136.011719 130.90625 135.703125 128.015625 135.78125 C 125.070312 135.859375 121.34375 136.792969 121.816406 137.332031 C 121.976562 137.511719 123.480469 139.234375 125.160156 141.160156 L 128.214844 144.660156 L 130.410156 144.007812 C 132.777344 143.308594 136.34375 143.113281 139.253906 143.527344 C 140.242188 143.667969 141.089844 143.730469 141.128906 143.667969 C 141.171875 143.601562 139.871094 142.019531 138.238281 140.152344 Z M 79.855469 155.914062 C 79.886719 155.675781 78.503906 153.878906 76.785156 151.921875 C 75.066406 149.964844 73.703125 148.238281 73.753906 148.085938 C 73.808594 147.933594 74.074219 147.742188 74.347656 147.660156 C 75.503906 147.316406 78.484375 144.953125 80.085938 143.109375 C 81.796875 141.140625 81.824219 141.125 82.328125 141.71875 C 84.492188 144.261719 88.402344 148.679688 88.566406 148.765625 C 88.824219 148.902344 90.617188 145.722656 92.453125 141.882812 C 93.242188 140.234375 94.019531 138.914062 94.179688 138.945312 C 94.34375 138.980469 95.863281 140.628906 97.5625 142.609375 C 99.261719 144.589844 100.753906 146.132812 100.878906 146.042969 C 101.007812 145.953125 101.980469 144.125 103.042969 141.980469 C 104.109375 139.835938 105.289062 137.632812 105.671875 137.082031 L 106.363281 136.078125 L 106.910156 136.714844 C 107.207031 137.0625 108.675781 138.777344 110.167969 140.519531 C 111.660156 142.265625 112.953125 143.726562 113.039062 143.765625 C 113.128906 143.804688 113.816406 143.097656 114.574219 142.191406 C 116.023438 140.460938 118.832031 138.136719 119.851562 137.824219 C 121.546875 137.308594 121.40625 136.949219 117.964844 133.019531 C 116.140625 130.9375 114.609375 129.214844 114.558594 129.1875 C 114.507812 129.164062 113.734375 129.558594 112.839844 130.0625 C 110.824219 131.199219 109.09375 132.660156 107.667969 134.425781 C 107.070312 135.171875 106.480469 135.808594 106.359375 135.84375 C 106.242188 135.875 104.730469 134.265625 103 132.265625 C 101.273438 130.265625 99.78125 128.585938 99.6875 128.535156 C 99.382812 128.363281 97.121094 132.054688 95.667969 135.109375 C 94.882812 136.757812 94.125 138.140625 93.988281 138.183594 C 93.847656 138.222656 92.339844 136.644531 90.628906 134.671875 C 88.921875 132.699219 87.414062 131.0625 87.277344 131.035156 C 87.144531 131.007812 86.273438 132.582031 85.339844 134.539062 C 83.648438 138.082031 81.902344 141.015625 81.59375 140.835938 C 81.503906 140.78125 80.039062 139.132812 78.339844 137.167969 C 76.636719 135.203125 75.1875 133.5625 75.121094 133.519531 C 75.054688 133.480469 74.316406 134.242188 73.480469 135.214844 C 71.519531 137.492188 70.828125 138.078125 68.582031 139.378906 L 66.730469 140.449219 L 69.84375 143.996094 C 71.558594 145.949219 73.019531 147.738281 73.089844 147.976562 C 73.191406 148.324219 72.753906 148.496094 70.820312 148.878906 C 68.140625 149.410156 65.476562 149.472656 62.382812 149.082031 C 61.238281 148.9375 60.335938 148.9375 60.378906 149.078125 C 60.636719 149.949219 66.492188 156.25 67.355469 156.585938 C 70.199219 157.691406 79.6875 157.179688 79.855469 155.914062 Z M 124.53125 124.441406 L 121.199219 120.644531 L 118.71875 120.289062 C 114.632812 119.707031 107.910156 120.4375 108.203125 121.433594 C 108.269531 121.648438 109.722656 123.421875 111.4375 125.378906 L 114.554688 128.929688 L 116.921875 128.449219 C 119.859375 127.851562 122.664062 127.753906 125.519531 128.148438 C 126.730469 128.316406 127.75 128.40625 127.789062 128.347656 C 127.832031 128.289062 126.363281 126.53125 124.53125 124.441406 Z M 103.222656 124.167969 C 103.832031 123.660156 104.914062 122.886719 105.628906 122.453125 C 106.347656 122.019531 107.105469 121.558594 107.316406 121.425781 C 107.570312 121.269531 106.628906 119.964844 104.511719 117.546875 C 102.757812 115.542969 101.144531 113.820312 100.925781 113.714844 C 100.011719 113.277344 96.132812 116.183594 93.46875 119.304688 L 92.617188 120.304688 L 89.445312 116.6875 C 87.703125 114.695312 86.09375 113.070312 85.871094 113.070312 C 85.488281 113.074219 81.527344 120.390625 80.878906 122.292969 C 80.605469 123.09375 80.828125 123.445312 83.707031 126.765625 C 85.421875 128.746094 86.933594 130.390625 87.0625 130.417969 C 87.191406 130.445312 88.097656 128.820312 89.078125 126.808594 C 90.878906 123.101562 92.457031 120.445312 92.753906 120.621094 C 92.890625 120.699219 97.101562 125.472656 98.953125 127.65625 C 99.464844 128.253906 99.464844 128.253906 100.792969 126.675781 C 101.519531 125.808594 102.613281 124.679688 103.222656 124.167969 Z M 114 112.476562 C 113.976562 112.394531 112.640625 110.8125 111.027344 108.953125 C 107.707031 105.128906 107.195312 104.851562 102.980469 104.601562 C 100.335938 104.445312 94.804688 105.039062 94.5 105.511719 C 94.425781 105.628906 95.867188 107.472656 97.703125 109.609375 L 101.042969 113.488281 L 103.171875 112.859375 C 105.398438 112.207031 110.585938 112.019531 112.503906 112.527344 C 113.484375 112.785156 114.085938 112.765625 114 112.476562 Z M 114 112.476562 " fill-opacity="1" fill-rule="nonzero"/></svg>