<svg xmlns="http://www.w3.org/2000/svg" width="512" height="512" viewBox="0 0 512 512" id="astronaut"><path fill="#FE5B67" d="M278.622 393.636c0-.993-1.252-19.616-2.289-34.88-.86-12.656-8.808-23.412-20.01-27.117-19.231-6.356-51.03-14.058-84.305-10.115-26.533 3.145-45.761 29.648-41.875 58.256 1.49 10.972 4.605 21.791 10.556 29.813l137.923-15.957z"></path><path fill="#FFE3D1" d="M192.566 304.634s1.745 28.265-1.616 46.546a19.095 19.095 0 0 1-10.942 13.955c-10.696 4.83-32.985 14.322-48.743 18.273a3.465 3.465 0 0 0-2.507 4.32c3.515 12.334 17.048 54.521 73.71 66.696 20.731 4.455 42.129 4.324 62.726-.724 10.445-2.562 22.006-6.288 30.604-11.51 4.975-3.021 7.549-8.841 6.315-14.526-2.72-12.522-12.502-36.088-47.396-56.622-5.921-3.482-9.984-9.456-11.131-16.229-.988-5.842-1.376-13.926.092-24.625 0 .001-36.509-7.821-51.112-25.554z"></path><path fill="#FE5B67" d="M202.468 454.426c20.731 4.455 42.129 4.324 62.726-.724.055-.013.109-.028.164-.042-4.125-14.92-17.762-25.89-33.995-25.89-16.082 0-29.627 10.765-33.888 25.474 1.627.419 3.288.816 4.993 1.182z"></path><path fill="#FEFEFE" d="M256.732 455.475c-3.27-10.924-13.384-18.889-25.371-18.889-11.851 0-21.88 7.784-25.264 18.519 16.762 3.157 33.889 3.362 50.635.37z"></path><path fill="#CC9C81" d="M244.894 359.477a23.58 23.58 0 0 1-1.308-4.662c-.988-5.842-1.376-13.924.092-24.625 0 0-36.509-7.821-51.112-25.556 0 0 .5 8.11.448 18.449l51.88 36.394z"></path><path fill="#E0BEA8" d="M183.178 282.207v4.803c0 9.287 3.895 18.172 10.827 24.354 8.599 7.668 22.588 17.065 42.914 21.909 9.261 2.209 18.891-1.909 23.796-10.068l1.131-1.88c0-.001-42.681 2.607-78.668-39.118z"></path><path fill="#FFE3D1" d="M375.338 195.965c2.586 86.643-39.096 129.105-105.393 131.902-62.144 2.623-118.937-55.111-121.6-131.396-2.664-76.284 45.566-139.884 107.727-142.055 62.159-2.171 116.988 65.253 119.266 141.549z"></path><path fill="#304757" d="M362.453 278.382c9.705-18.334 34.092-74.465 11.822-142.057-2.808-8.519-12.822-12.164-20.567-7.642-17.135 10.004-51.806 22.636-111.627 14.947-14.758-1.896-27.84 9.591-27.84 24.47v98.366a30.266 30.266 0 0 0 20.014 28.483c29.94 10.783 76.726 23.729 119.478-5.85 3.828-2.647 6.542-6.604 8.72-10.717z"></path><path fill="#FE5B67" d="M189.442 211.125l-.987 32.357c-.22 7.228-7.822 11.77-14.321 8.598-7.897-3.855-18.013-10.237-27.188-20.412-2.711-3.007-4.438-6.773-5.076-10.771-1.215-7.624-2.771-21.314-1.081-34.464.561-4.36 5.833-6.23 9.074-3.261 6.393 5.859 17.209 13.789 32.299 18.093 4.399 1.255 7.42 5.288 7.28 9.86z"></path><path fill="#BC3F4B" d="M182.162 201.266a79.039 79.039 0 0 1-4.639-1.507c1.022 3.125 1.919 6.638 2.218 10.001.961 10.808.293 35.857.067 43.246 4.582-.604 8.49-4.373 8.647-9.522l.987-32.357c.14-4.574-2.881-8.607-7.28-9.861z"></path><path fill="#FEFEFE" d="M252.337 154.049a257.57 257.57 0 0 1-2.871-.353c-12.82-1.648-24.18 8.337-24.18 21.262 0 2.841.957 5.596 2.733 7.813 17.044 21.28 52.122 61.82 100.878 101.676 2.54 2.076 6.108 2.463 8.999.908a89.997 89.997 0 0 0 8.59-5.265c3.325-2.301 5.686-5.739 7.576-9.313 1.632-3.078 3.737-7.394 5.937-12.766a8.224 8.224 0 0 0-2.159-9.276c-17.291-15.266-57.053-51.154-90.367-87.048-3.973-4.275-9.338-6.959-15.136-7.638zM370.684 218.428c.146-1.041.282-2.093.409-3.155a9.639 9.639 0 0 0-3.721-8.792c-15.991-12.26-36.974-30.287-54.662-51.99a3.173 3.173 0 0 0-3.013-1.132c-1.856.32-3.774.613-5.754.876-2.569.342-3.737 3.392-2.007 5.32 12.79 14.252 37.875 40.793 64.102 60.754 1.77 1.347 4.337.322 4.646-1.881z"></path></svg>