<svg xmlns="http://www.w3.org/2000/svg" width="512" height="512" id="galaxy"><path fill="#FE5B67" d="M242.32 441.427c-79.569-14.429-115.183-69.774-130.457-107.368-9.871-24.297-13.644-50.765-10.536-76.804 4.377-36.676 20.279-61.807 37.023-78.551 25.261-25.261 60.823-37.582 96.403-34.395 49.873 4.468 74.146 36.605 74.146 36.605 51.745 66.075 12.341 113.214 12.341 113.214s-33.854 41.813-83.1 22.599c-50.41-19.67-28.532-62.2-28.532-62.2 12.229-22.232 29.75-24.254 40.534-22.938 2.489.304 3.637-3.009 1.509-4.337-8.246-5.146-22.153-9.76-39.035.681-14.535 8.99-24.185 24.307-26.338 41.262-2.73 21.498 3.544 52.805 53.004 73.211 0 0 70.303 31.865 120.975-47.363 0 0 62.2-104.427-57.063-182.034 0 0-89.59-54.781-179.181 25.679 0 0-67.906 58.205-54.211 153.501 0 0 4.625 46.955 37.662 87.879 0 0 53.395 64.059 134.495 65.043a1.875 1.875 0 0 0 1.888-1.87 1.849 1.849 0 0 0-1.527-1.814z"></path><path fill="#4A6273" d="M258.518 85.694c79.569 14.429 115.183 69.774 130.457 107.369 9.871 24.296 13.645 50.764 10.535 76.803-4.376 36.677-20.277 61.807-37.022 78.552-25.261 25.26-60.822 37.581-96.403 34.395-49.872-4.469-74.146-36.605-74.146-36.605-51.746-66.075-12.341-113.214-12.341-113.214s33.855-41.813 83.101-22.599c50.41 19.67 28.532 62.2 28.532 62.2-12.229 22.232-29.75 24.254-40.535 22.938-2.49-.304-3.637 3.009-1.509 4.337 8.247 5.146 22.152 9.76 39.034-.682 14.536-8.989 24.186-24.307 26.339-41.262 2.73-21.497-3.545-52.805-53.003-73.211 0 0-70.305-31.865-120.977 47.363 0 0-62.2 104.427 57.064 182.033 0 0 89.59 54.781 179.181-25.678 0 0 67.906-58.205 54.211-153.502 0 0-4.625-46.954-37.662-87.879 0 0-53.395-64.058-134.496-65.041a1.874 1.874 0 0 0-1.887 1.869 1.849 1.849 0 0 0 1.527 1.814z"></path><g fill="#283D49"><circle cx="372.093" cy="337.648" r="10.309"></circle><circle cx="445.324" cy="303.074" r="5.474"></circle><circle cx="376.405" cy="226.988" r="5.997"></circle><circle cx="414.672" cy="139.957" r="4.379"></circle><circle cx="247.177" cy="58.946" r="4.379"></circle><circle cx="256.481" cy="166.778" r="5.474"></circle><circle cx="128.733" cy="189.484" r="9.617"></circle><circle cx="118.086" cy="113.684" r="6.281"></circle><circle cx="67.979" cy="358.358" r="6.776"></circle><circle cx="143.724" cy="353.979" r="7.663"></circle><circle cx="327.64" cy="450.316" r="7.116"></circle><circle cx="247.176" cy="318.83" r="7.277"></circle></g><circle cx="232.504" cy="397.32" r="5.721" fill="#F2F2F2"></circle><circle cx="146.046" cy="291.789" r="3.814" fill="#F2F2F2"></circle><circle cx="196.904" cy="193.888" r="3.814" fill="#F2F2F2"></circle><circle cx="224.24" cy="115.057" r="6.993" fill="#F2F2F2"></circle><circle cx="336.128" cy="192.616" r="2.543" fill="#F2F2F2"></circle><circle cx="372.364" cy="140.486" r="5.722" fill="#F2F2F2"></circle><circle cx="81.201" cy="261.273" r="2.543" fill="#F2F2F2"></circle><circle cx="348.843" cy="274.625" r="4.45" fill="#F2F2F2"></circle></svg>