<?xml version="1.0" encoding="UTF-8" standalone="no"?>
<!DOCTYPE svg PUBLIC "-//W3C//DTD SVG 1.1//EN" "http://www.w3.org/Graphics/SVG/1.1/DTD/svg11.dtd">
<svg width="100%" height="100%" viewBox="0 0 100 100" version="1.1" xmlns="http://www.w3.org/2000/svg" xmlns:xlink="http://www.w3.org/1999/xlink" xml:space="preserve" xmlns:serif="http://www.serif.com/" style="fill-rule:evenodd;clip-rule:evenodd;stroke-linejoin:round;stroke-miterlimit:2;">
    <g transform="matrix(0.822113,0,0,0.863781,9.00796,10.0754)">
        <path d="M11.163,54.342C10.708,54.212 10.236,54.107 9.839,53.967C8.082,53.356 6.931,52.239 6.521,50.336C5.803,46.996 5.217,43.639 5.217,40.22C5.217,38.422 5.528,36.646 6.302,34.97C7.333,32.737 9.066,31.499 11.449,31.093C12.345,30.941 13.247,30.819 14.135,30.625C14.381,30.571 14.695,30.356 14.787,30.136C16.051,27.131 17.75,24.378 19.892,21.948C21.809,19.773 23.94,17.787 26.407,16.21C27.53,15.492 28.686,14.816 29.753,14.022C30.379,13.557 30.817,12.846 31.413,12.33C35.166,9.081 39.523,7.078 44.395,6.222C46.489,5.854 48.605,5.472 50.722,5.404C53.546,5.314 56.389,5.41 59.207,5.635C62.005,5.858 64.792,6.01 67.6,6.047C69.545,6.073 71.543,6.309 73.339,7.144C74.888,7.862 76.191,8.929 76.673,10.721C76.735,10.955 77.009,11.227 77.244,11.308C79.551,12.098 81.69,13.164 83.472,14.869C86.185,17.467 87.93,20.573 88.372,24.333C88.649,26.701 88.944,29.076 89.03,31.456C89.111,33.694 88.932,35.944 88.855,38.188C88.822,39.164 88.758,40.138 88.707,41.151C89.246,41.187 89.774,41.145 90.259,41.27C93.097,42 94.946,44.005 95.044,47.154C95.195,52.005 91.852,57.198 87.038,59.071C86.1,59.433 85.164,59.8 84.223,60.157C82.922,60.651 81.958,61.525 81.28,62.73C78.238,68.131 74.21,72.625 68.954,75.941C67.098,77.113 65.119,78.087 63.198,79.157C60.549,80.632 58.024,82.301 55.958,84.532C53.079,87.64 49.498,89.226 45.38,89.803C41.998,90.276 38.6,90.337 35.231,89.857C31.419,89.311 28.498,87.261 26.546,83.94C25.696,82.496 25.091,80.91 24.266,79.45C23.707,78.464 23.056,77.493 22.274,76.682C20.339,74.678 18.279,72.797 16.319,70.821C14.357,68.842 13.319,66.319 12.385,63.76C11.319,60.848 10.868,57.837 11.128,54.733C11.136,54.62 11.153,54.507 11.163,54.342ZM15.177,55.114C15.177,56.891 15.016,58.539 15.218,60.138C15.485,62.254 16.206,64.277 17.274,66.141C18.469,68.227 20.254,69.79 22.006,71.383C22.922,72.215 23.859,73.036 24.682,73.954C26.685,76.195 27.945,78.893 29.218,81.581C29.989,83.209 31.106,84.646 32.89,85.149C35.479,85.879 38.168,86.306 40.858,86.109C42.797,85.965 44.729,85.515 46.627,85.053C48.663,84.555 50.417,83.467 51.897,81.975C54.05,79.803 56.384,77.857 59.094,76.416C62.851,74.42 66.682,72.557 70.381,70.461C71.751,69.684 72.921,68.486 74.033,67.339C76.068,65.239 77.497,62.688 78.942,60.175C80.124,58.121 81.564,56.635 84.095,56.328C85.204,56.194 86.354,55.622 87.289,54.967C89.643,53.321 90.951,50.965 91.404,48.128C91.604,46.869 91.122,45.974 89.928,45.516C88.036,44.789 84.672,45.218 83.826,48.127C83.547,49.089 83.194,50.035 82.818,50.966C82.506,51.74 81.662,52.128 80.874,51.946C79.569,51.643 79.136,51.053 79.353,49.652C79.63,47.877 79.965,46.109 80.323,44.347C80.433,43.805 80.202,43.609 79.767,43.498C79.225,43.359 78.683,43.208 78.132,43.118C76.937,42.924 75.737,42.745 74.534,42.614C74.285,42.608 74.011,42.7 73.946,42.979C73.363,45.756 72.389,48.356 70.732,50.69C69.6,52.283 68.363,53.696 66.428,54.346C62.756,55.581 58.992,55.605 55.196,55.288C54.513,55.229 53.832,55.18 52.992,55.114C53.174,55.336 55.49,57.091 56.332,58.182C58.082,60.452 59.43,62.877 59.257,65.856C59.185,67.099 58.837,68.321 57.603,68.924C55.749,69.832 53.838,69.96 51.931,69.016C50.519,68.315 49.608,67.133 48.925,65.777C47.683,63.316 45.687,61.707 43.244,60.567C42.656,60.294 42.233,60.274 41.746,60.872C39.73,63.345 36.063,63.851 33.867,62.163C33.476,61.864 33.18,62.004 33.037,62.396C32.59,63.621 32.195,64.864 31.752,66.089C31.439,66.96 31.17,67.868 30.715,68.663C30.233,69.508 29.458,70.135 28.448,70.299C26.385,70.629 24.611,69.652 23.623,67.807C22.819,66.306 22.808,64.752 23.119,63.162C23.566,60.871 24.623,58.849 25.957,56.96C26.39,56.347 27.374,54.922 27.345,54.847C23.385,56.019 19.232,55.886 15.177,55.114ZM69.447,16.116C68.998,16.289 68.57,16.464 68.135,16.621C67.216,16.954 65.953,17.364 64.807,17.681C62.734,18.145 61.331,18.389 59.294,18.536C56.758,18.718 54.198,18.761 51.66,18.643C48.936,18.518 46.222,18.175 43.512,17.855C40.22,17.466 36.937,16.997 33.649,16.582C33.37,16.547 33.012,16.564 32.795,16.709C30.742,18.091 28.64,19.417 26.689,20.933C23.82,23.162 21.886,26.217 19.863,29.172C19.686,29.431 19.539,29.741 19.324,30.199C20.827,30.199 22.228,30.221 23.581,30.199C26.447,30.15 29.281,30.388 32.094,30.95C34.539,31.438 36.44,33.244 36.954,35.687C37.145,36.597 37.287,37.515 37.457,38.46C39.146,37.751 40.855,37.864 42.564,38.415C42.764,37.493 42.911,36.646 43.136,35.818C43.904,32.996 45.761,31.276 48.607,30.712C50,30.435 51.434,30.352 52.855,30.226C58.057,29.764 63.225,30.047 68.365,30.959C70.823,31.396 72.641,32.561 73.276,35.123C73.549,36.23 73.847,37.338 74.012,38.463C74.098,39.06 74.407,39.154 74.866,39.234C75.926,39.416 76.982,39.609 78.038,39.819C78.879,39.986 79.774,40.183 80.64,40.375C80.686,40.202 80.687,40.072 80.69,39.94C80.738,38.029 80.916,36.109 80.788,34.211C80.599,31.391 79.354,28.96 77.472,26.873C76.015,25.259 74.484,23.712 73.033,22.093C71.488,20.375 70.36,18.387 69.447,16.116ZM42.417,45.48C42.417,45.246 42.418,45.012 42.416,44.778C42.402,43.361 41.749,42.603 40.335,42.513C39.791,42.479 39.219,42.621 38.69,42.782C38.482,42.845 38.251,43.161 38.209,43.393C37.976,44.701 37.826,46.025 37.592,47.332C37.125,49.955 36.655,52.58 35.496,55.017C35.266,55.499 35.108,56.021 34.966,56.538C34.714,57.454 35.052,58.331 35.826,58.877C36.472,59.335 37.502,59.339 38.21,58.879C39.17,58.255 39.784,57.362 40.162,56.299C40.325,55.835 40.452,55.359 40.632,54.904C41.833,51.874 42.206,48.694 42.417,45.48Z" style="fill:white;"/>
    </g>
</svg>
