<svg width="113" height="96" viewBox="0 0 113 96" fill="none" xmlns="http://www.w3.org/2000/svg">
<g id="LiveDive-Logo-W" filter="url(#filter0_d_6_33)">
<path fill-rule="evenodd" clip-rule="evenodd" d="M108.5 26.5011C108.485 24.0607 108.134 21.9266 107.446 20.0986C106.742 18.2174 105.758 16.6561 104.492 15.4147C103.239 14.1733 101.768 13.2455 100.08 12.6312C98.405 12.0042 96.5956 11.6906 94.652 11.6906C91.762 11.6906 89.243 12.3305 87.0947 13.6102C84.9593 14.89 83.3033 16.6753 82.1269 18.966C80.9505 21.2568 80.3622 23.9187 80.3622 26.9518C80.3622 30.0616 80.9505 32.7555 82.1269 35.0334C83.3033 37.2986 84.9784 39.0519 87.1523 40.2933C89.3389 41.5218 91.9475 42.1361 94.978 42.1361C97.4076 42.1361 99.5495 41.765 101.404 41.0227C103.271 40.2677 104.792 39.2183 105.969 37.8745C107.158 36.518 107.944 34.9311 108.328 33.1138L100.771 32.6147C100.489 33.3569 100.08 33.984 99.5431 34.4959C99.006 35.0078 98.3602 35.3918 97.6058 35.6477C96.8513 35.9037 96.0202 36.0317 95.1123 36.0317C93.744 36.0317 92.5612 35.7437 91.5639 35.1678C90.5665 34.5919 89.7928 33.7729 89.243 32.7107C88.7059 31.6485 88.4374 30.3879 88.4374 28.929V28.9098H108.5V26.5011ZM88.4451 23.8419C88.4943 22.7831 88.7667 21.8169 89.2621 20.9433C89.7992 19.9835 90.5409 19.222 91.4871 18.6589C92.4462 18.083 93.5459 17.7951 94.7862 17.7951C95.9754 17.7951 97.0176 18.0574 97.9127 18.5821C98.8206 19.094 99.5303 19.8043 100.042 20.7129C100.553 21.6216 100.809 22.6646 100.809 23.8419H88.4451Z" fill="#D9D9D9"/>
<path d="M108.5 57.0826C107.372 56.829 106.191 56.7021 104.954 56.7021C102.064 56.7021 99.5453 57.342 97.3971 58.6218C95.2616 59.9015 93.6057 61.6868 92.4292 63.9776C91.2528 66.2683 90.6646 68.9302 90.6646 71.9633C90.6646 75.0731 91.2528 77.767 92.4292 80.045C93.6057 82.3101 95.2808 84.0634 97.4546 85.3048C99.6412 86.5333 102.25 87.1476 105.28 87.1476C106.416 87.1476 107.49 87.0665 108.5 86.9042V80.4218C108.311 80.5104 108.113 80.5896 107.908 80.6592C107.154 80.9152 106.323 81.0432 105.415 81.0432C104.046 81.0432 102.864 80.7552 101.866 80.1793C100.869 79.6034 100.095 78.7844 99.5453 77.7222C99.0082 76.66 98.7397 75.3994 98.7397 73.9405V73.9213H108.5V68.8535H98.7474C98.7967 67.7947 99.069 66.8284 99.5645 65.9548C100.102 64.995 100.843 64.2335 101.789 63.6704C102.748 63.0945 103.848 62.8066 105.089 62.8066C106.278 62.8066 107.32 63.0689 108.215 63.5936C108.312 63.6485 108.407 63.7056 108.5 63.765V57.0826Z" fill="#D9D9D9"/>
<path d="M36.1361 12.0745V41.5602H44.3071V12.0745H36.1361Z" fill="#D9D9D9"/>
<path d="M37.1143 7.06428C37.9839 7.87053 39.026 8.27365 40.2408 8.27365C41.4556 8.27365 42.4913 7.87053 43.3481 7.06428C44.2176 6.24523 44.6524 5.26621 44.6524 4.12723C44.6524 3.00104 44.2176 2.03482 43.3481 1.22857C42.4913 0.409525 41.4556 0 40.2408 0C39.026 0 37.9839 0.409525 37.1143 1.22857C36.2576 2.03482 35.8292 3.00104 35.8292 4.12723C35.8292 5.26621 36.2576 6.24523 37.1143 7.06428Z" fill="#D9D9D9"/>
<path d="M4 2.24599V41.5602H29.146V34.7071H12.3053V2.24599H4Z" fill="#D9D9D9"/>
<path d="M78.3195 12.0745L68.0194 41.5602H58.8126L48.5125 12.0745H57.1439L63.2626 33.1714H63.5694L69.6689 12.0745H78.3195Z" fill="#D9D9D9"/>
<path fill-rule="evenodd" clip-rule="evenodd" d="M17.9253 86.5717H4V47.2575H18.0403C21.9916 47.2575 25.393 48.0446 28.2445 49.6187C31.0961 51.18 33.2891 53.4259 34.8235 56.3566C36.3708 59.2872 37.1444 62.7938 37.1444 66.8762C37.1444 70.9715 36.3708 74.4908 34.8235 77.4342C33.2891 80.3777 31.0833 82.6365 28.2062 84.2106C25.3418 85.7847 21.9149 86.5717 17.9253 86.5717ZM12.3053 79.4499H17.58C20.0351 79.4499 22.1003 79.0147 23.7754 78.1445C25.4633 77.2615 26.7292 75.8985 27.5732 74.0557C28.4299 72.2 28.8583 69.8069 28.8583 66.8762C28.8583 63.9712 28.4299 61.5972 27.5732 59.7544C26.7292 57.9115 25.4697 56.555 23.7946 55.6847C22.1194 54.8145 20.0543 54.3794 17.5992 54.3794H12.3053V79.4499Z" fill="#D9D9D9"/>
<path d="M44.614 57.0861V86.5717H52.785V57.0861H44.614Z" fill="#D9D9D9"/>
<path d="M45.5922 52.0758C46.4618 52.882 47.5039 53.2852 48.7187 53.2852C49.9335 53.2852 50.9692 52.882 51.826 52.0758C52.6955 51.2567 53.1303 50.2777 53.1303 49.1387C53.1303 48.0126 52.6955 47.0463 51.826 46.2401C50.9692 45.421 49.9335 45.0115 48.7187 45.0115C47.5039 45.0115 46.4618 45.421 45.5922 46.2401C44.7355 47.0463 44.3071 48.0126 44.3071 49.1387C44.3071 50.2777 44.7355 51.2567 45.5922 52.0758Z" fill="#D9D9D9"/>
<path d="M88.6218 57.0861L78.3218 86.5717H69.115L58.8149 57.0861H67.4463L73.5649 78.1829H73.8718L79.9713 57.0861H88.6218Z" fill="#D9D9D9"/>
</g>
<defs>
<filter id="filter0_d_6_33" x="0" y="0" width="112.5" height="95.1476" filterUnits="userSpaceOnUse" color-interpolation-filters="sRGB">
<feFlood flood-opacity="0" result="BackgroundImageFix"/>
<feColorMatrix in="SourceAlpha" type="matrix" values="0 0 0 0 0 0 0 0 0 0 0 0 0 0 0 0 0 0 127 0" result="hardAlpha"/>
<feOffset dy="4"/>
<feGaussianBlur stdDeviation="2"/>
<feComposite in2="hardAlpha" operator="out"/>
<feColorMatrix type="matrix" values="0 0 0 0 0 0 0 0 0 0 0 0 0 0 0 0 0 0 0.25 0"/>
<feBlend mode="normal" in2="BackgroundImageFix" result="effect1_dropShadow_6_33"/>
<feBlend mode="normal" in="SourceGraphic" in2="effect1_dropShadow_6_33" result="shape"/>
</filter>
</defs>
</svg>
