<?xml version="1.0" encoding="utf-8"?>
<!-- Generator: Adobe Illustrator 27.7.0, SVG Export Plug-In . SVG Version: 6.00 Build 0)  -->
<svg version="1.1" id="Layer_1" xmlns="http://www.w3.org/2000/svg" xmlns:xlink="http://www.w3.org/1999/xlink" x="0px" y="0px"
	 viewBox="0 0 113 96" style="enable-background:new 0 0 113 96;" xml:space="preserve">
<style type="text/css">
	.st0{fill-rule:evenodd;clip-rule:evenodd;fill:#FFFFFF;}
	.st1{fill:#FFFFFF;}
</style>
<g id="LiveDive-Logo-W">
	<path class="st0" d="M108.5,26.5c0-2.4-0.4-4.6-1.1-6.4c-0.7-1.9-1.7-3.4-3-4.7c-1.3-1.2-2.7-2.2-4.4-2.8c-1.7-0.6-3.5-0.9-5.4-0.9
		c-2.9,0-5.4,0.6-7.6,1.9c-2.1,1.3-3.8,3.1-5,5.4c-1.2,2.3-1.8,5-1.8,8c0,3.1,0.6,5.8,1.8,8.1c1.2,2.3,2.9,4,5,5.3
		c2.2,1.2,4.8,1.8,7.8,1.8c2.4,0,4.6-0.4,6.4-1.1c1.9-0.8,3.4-1.8,4.6-3.1c1.2-1.4,2-2.9,2.4-4.8l-7.6-0.5c-0.3,0.7-0.7,1.4-1.2,1.9
		c-0.5,0.5-1.2,0.9-1.9,1.2C96.9,35.9,96,36,95.1,36c-1.4,0-2.6-0.3-3.5-0.9c-1-0.6-1.8-1.4-2.3-2.5c-0.5-1.1-0.8-2.3-0.8-3.8v0
		h20.1V26.5z M88.4,23.8c0-1.1,0.3-2,0.8-2.9c0.5-1,1.3-1.7,2.2-2.3c1-0.6,2.1-0.9,3.3-0.9c1.2,0,2.2,0.3,3.1,0.8
		c0.9,0.5,1.6,1.2,2.1,2.1c0.5,0.9,0.8,2,0.8,3.1H88.4z"/>
	<path class="st1" d="M108.5,57.1c-1.1-0.3-2.3-0.4-3.5-0.4c-2.9,0-5.4,0.6-7.6,1.9c-2.1,1.3-3.8,3.1-5,5.4c-1.2,2.3-1.8,5-1.8,8
		c0,3.1,0.6,5.8,1.8,8.1c1.2,2.3,2.9,4,5,5.3c2.2,1.2,4.8,1.8,7.8,1.8c1.1,0,2.2-0.1,3.2-0.2v-6.5c-0.2,0.1-0.4,0.2-0.6,0.2
		c-0.8,0.3-1.6,0.4-2.5,0.4c-1.4,0-2.6-0.3-3.5-0.9c-1-0.6-1.8-1.4-2.3-2.5c-0.5-1.1-0.8-2.3-0.8-3.8v0h9.8v-5.1h-9.8
		c0-1.1,0.3-2,0.8-2.9c0.5-1,1.3-1.7,2.2-2.3c1-0.6,2.1-0.9,3.3-0.9c1.2,0,2.2,0.3,3.1,0.8c0.1,0.1,0.2,0.1,0.3,0.2V57.1z"/>
	<path class="st1" d="M36.1,12.1v29.5h8.2V12.1H36.1z"/>
	<path class="st1" d="M37.1,7.1C38,7.9,39,8.3,40.2,8.3c1.2,0,2.3-0.4,3.1-1.2c0.9-0.8,1.3-1.8,1.3-2.9c0-1.1-0.4-2.1-1.3-2.9
		C42.5,0.4,41.5,0,40.2,0C39,0,38,0.4,37.1,1.2C36.3,2,35.8,3,35.8,4.1C35.8,5.3,36.3,6.2,37.1,7.1z"/>
	<path class="st1" d="M4,2.2v39.3h25.1v-6.9H12.3V2.2H4z"/>
	<path class="st1" d="M78.3,12.1L68,41.6h-9.2L48.5,12.1h8.6l6.1,21.1h0.3l6.1-21.1H78.3z"/>
	<path class="st0" d="M17.9,86.6H4V47.3h14c4,0,7.4,0.8,10.2,2.4c2.9,1.6,5,3.8,6.6,6.7c1.5,2.9,2.3,6.4,2.3,10.5
		c0,4.1-0.8,7.6-2.3,10.6c-1.5,2.9-3.7,5.2-6.6,6.8C25.3,85.8,21.9,86.6,17.9,86.6z M12.3,79.4h5.3c2.5,0,4.5-0.4,6.2-1.3
		c1.7-0.9,3-2.2,3.8-4.1c0.9-1.9,1.3-4.2,1.3-7.2c0-2.9-0.4-5.3-1.3-7.1c-0.8-1.8-2.1-3.2-3.8-4.1c-1.7-0.9-3.7-1.3-6.2-1.3h-5.3
		V79.4z"/>
	<path class="st1" d="M44.6,57.1v29.5h8.2V57.1H44.6z"/>
	<path class="st1" d="M45.6,52.1c0.9,0.8,1.9,1.2,3.1,1.2c1.2,0,2.3-0.4,3.1-1.2c0.9-0.8,1.3-1.8,1.3-2.9c0-1.1-0.4-2.1-1.3-2.9
		C51,45.4,49.9,45,48.7,45c-1.2,0-2.3,0.4-3.1,1.2c-0.9,0.8-1.3,1.8-1.3,2.9C44.3,50.3,44.7,51.3,45.6,52.1z"/>
	<path class="st1" d="M88.6,57.1L78.3,86.6h-9.2L58.8,57.1h8.6l6.1,21.1h0.3L80,57.1H88.6z"/>
</g>
</svg>
