<?xml version="1.0" encoding="UTF-8" standalone="no"?>
<!DOCTYPE svg PUBLIC "-//W3C//DTD SVG 1.1//EN" "http://www.w3.org/Graphics/SVG/1.1/DTD/svg11.dtd">
<svg width="100%" height="100%" viewBox="0 0 800 800" version="1.1" xmlns="http://www.w3.org/2000/svg" xmlns:xlink="http://www.w3.org/1999/xlink" xml:space="preserve" xmlns:serif="http://www.serif.com/" style="fill-rule:evenodd;clip-rule:evenodd;stroke-linejoin:round;stroke-miterlimit:2;">
    <g transform="matrix(7.35348,0,0,7.35348,33.4052,32.4622)">
        <path d="M31.63,-4.16C31.51,-3.66 31.16,-3.04 30.38,-2.3C29.99,-1.93 29.74,-1.52 29.64,-1.08C29.54,-0.65 29.62,-0.21 29.78,0.17C30.09,0.93 30.7,1.57 31.31,2.27C31.92,2.95 32.54,3.68 32.94,4.47C33.34,5.27 33.52,6.1 33.28,7.14L34.4,7.4C34.671,6.239 34.519,5.018 33.97,3.96C33.481,3.064 32.876,2.237 32.17,1.5C31.648,0.974 31.2,0.378 30.84,-0.27C30.757,-0.444 30.733,-0.641 30.77,-0.83C30.81,-1 30.91,-1.21 31.17,-1.46C31.919,-2.102 32.467,-2.945 32.75,-3.89L31.63,-4.16ZM80.33,-1.94C79.79,-1.95 79.29,-1.92 78.83,-1.86C76.99,-1.63 75.83,-0.86 75.03,-0.07C74.23,0.72 73.73,1.47 73.25,1.78C73.01,1.93 72.78,2.01 72.41,1.98C71.862,1.917 71.332,1.747 70.85,1.48C69.6,0.86 68.44,0.28 67.16,0.2C65.89,0.13 64.56,0.64 63.13,1.97C61.55,3.45 60.56,3.74 59.86,3.63C59.16,3.52 58.52,2.93 57.8,2.17C57.08,1.41 56.3,0.5 55.12,0.13C53.94,-0.24 52.48,0.03 50.69,1.3L51.35,2.24C52.98,1.09 53.98,0.98 54.77,1.24C55.55,1.48 56.23,2.19 56.97,2.96C57.69,3.73 58.49,4.58 59.67,4.77C60.87,4.96 62.22,4.41 63.92,2.81C65.2,1.61 66.15,1.31 67.1,1.35C68.05,1.41 69.08,1.89 70.34,2.52C70.961,2.853 71.64,3.063 72.34,3.14C72.878,3.172 73.413,3.035 73.87,2.75C74.69,2.23 75.15,1.43 75.84,0.75C76.675,-0.097 77.785,-0.619 78.97,-0.72C80.57,-0.92 82.93,-0.7 86.47,0.4L86.81,-0.7C84.722,-1.414 82.544,-1.831 80.34,-1.94L80.33,-1.94ZM26.96,-1.83C25.779,-1.767 24.642,-1.361 23.69,-0.66C23.091,-0.148 22.67,0.543 22.49,1.31C22.31,1.97 22.25,2.56 22.12,2.95C21.99,3.34 21.89,3.5 21.44,3.62C18.92,4.3 17.5,4.77 16.64,5.86C15.79,6.96 15.69,8.41 15.52,10.81C15.44,11.87 15.18,12.21 14.94,12.36C14.69,12.52 14.26,12.54 13.7,12.56C13.15,12.56 12.44,12.58 11.86,13.08C11.27,13.59 10.98,14.46 10.96,15.84L12.11,15.86C12.13,14.64 12.39,14.16 12.61,13.96C12.84,13.76 13.2,13.71 13.73,13.7C14.26,13.7 14.93,13.73 15.56,13.33C16.18,12.93 16.57,12.14 16.66,10.89C16.84,8.5 17,7.29 17.56,6.58C18.11,5.87 19.26,5.4 21.74,4.74C22.431,4.541 22.982,4.013 23.21,3.33C23.41,2.73 23.46,2.14 23.61,1.61C23.75,1.07 23.95,0.61 24.43,0.22C25.212,-0.328 26.136,-0.64 27.09,-0.68L26.96,-1.83ZM92.34,3.04C91.8,5.55 92.96,7.14 93.5,8.3C93.77,8.87 93.89,9.3 93.76,9.8C93.62,10.3 93.19,10.97 92.1,11.87L92.84,12.76C94.02,11.78 94.65,10.93 94.87,10.09C95.037,9.315 94.92,8.505 94.54,7.81C93.91,6.47 93.02,5.38 93.47,3.28L92.34,3.04ZM12.24,3.21C10.821,3.199 9.508,3.979 8.84,5.23C8.54,5.73 8.31,6.24 8.11,6.63C7.91,7.03 7.71,7.29 7.61,7.35C6.96,7.78 6.4,7.75 5.61,8.03C4.81,8.31 3.99,8.97 3.24,10.55L4.28,11.05C4.95,9.62 5.44,9.31 5.98,9.12C6.53,8.92 7.34,8.92 8.25,8.32C8.68,8.02 8.91,7.6 9.13,7.16C9.36,6.73 9.57,6.26 9.83,5.83C10.34,4.98 10.92,4.34 12.23,4.36L12.24,3.21ZM45.85,3.61C44.15,3.61 42.97,4.07 42.18,4.81C41.485,5.537 40.977,6.423 40.7,7.39C40.38,8.27 40.12,9.09 39.7,9.65C39.28,10.22 38.75,10.58 37.62,10.65L37.69,11.8C38.841,11.789 39.926,11.251 40.63,10.34C41.22,9.55 41.48,8.62 41.79,7.78C42.09,6.93 42.41,6.18 42.97,5.65C43.53,5.12 44.34,4.75 45.84,4.77L45.85,3.61ZM79.55,4.55C77.85,4.76 76.7,5.36 75.93,6.15C75.271,6.872 74.771,7.723 74.46,8.65C74.259,9.308 73.941,9.925 73.52,10.47C73.15,10.84 72.68,11.04 71.54,10.88L71.38,12.02C72.73,12.22 73.71,11.92 74.34,11.29C74.96,10.66 75.23,9.84 75.54,9.07C75.794,8.288 76.206,7.566 76.75,6.95C77.551,6.199 78.593,5.756 79.69,5.7L79.55,4.55ZM55.7,7.3C54.73,7.65 54.13,8.13 53.79,8.68C53.45,9.24 53.39,9.79 53.32,10.23C53.25,10.67 53.18,10.98 52.95,11.25C52.73,11.52 52.3,11.82 51.35,12.06C50.65,12.208 50.058,12.674 49.75,13.32C49.553,13.853 49.488,14.426 49.56,14.99C49.6,15.52 49.66,15.99 49.6,16.33C49.56,16.67 49.5,16.81 49.19,16.97C48.7,17.23 47.96,17.01 47,16.8C46.53,16.69 46,16.6 45.46,16.68C44.842,16.773 44.277,17.085 43.87,17.56L44.74,18.32C45.04,17.98 45.3,17.86 45.62,17.82C45.94,17.77 46.32,17.82 46.75,17.92C47.61,18.12 48.68,18.54 49.72,18C50.35,17.67 50.67,17.05 50.75,16.5C50.83,15.93 50.75,15.4 50.72,14.91C50.68,14.43 50.7,14.02 50.8,13.77C50.91,13.51 51.07,13.33 51.64,13.17C52.482,13.019 53.253,12.602 53.84,11.98C54.27,11.46 54.38,10.88 54.46,10.42C54.53,9.95 54.59,9.59 54.77,9.29C54.96,8.99 55.29,8.67 56.09,8.39L55.7,7.3ZM87.73,7.47C84.53,7.83 81.78,8.8 80.13,10.71C78.49,12.62 78.1,15.44 79.43,19.11C79.98,20.62 80.69,22.88 80.16,24.85C79.62,26.81 77.92,28.65 73.09,29.48L73.29,30.62C78.37,29.75 80.61,27.56 81.27,25.15C81.93,22.73 81.07,20.26 80.51,18.71C79.27,15.29 79.67,13.03 81.01,11.46C82.36,9.89 84.81,8.96 87.86,8.62L87.73,7.47ZM59.58,11.12L58.66,11.82C61.53,15.62 64.53,15.81 66.76,15.82C67.86,15.82 68.77,15.82 69.43,16.14C70.09,16.46 70.65,17.07 71.09,18.64L72.2,18.33C71.71,16.58 70.93,15.57 69.93,15.1C68.93,14.62 67.86,14.67 66.76,14.66C64.56,14.66 62.24,14.66 59.58,11.12ZM20.3,11.77L20.2,12.92C21.32,13.02 21.93,13.35 22.36,13.8C22.79,14.26 23.04,14.87 23.26,15.55C23.46,16.23 23.62,16.96 23.96,17.62C24.31,18.28 24.94,18.86 25.86,18.99C26.78,19.12 27.92,19.07 28.71,19.43C29.1,19.61 29.41,19.87 29.62,20.32C29.84,20.77 29.97,21.46 29.88,22.5C29.83,23.03 29.9,23.5 30.12,23.9C30.32,24.3 30.67,24.57 31.04,24.76C31.78,25.13 32.65,25.21 33.57,25.33C34.48,25.45 35.43,25.59 36.25,25.93C37.07,26.27 37.76,26.78 38.25,27.72L39.28,27.18C38.72,26.126 37.801,25.306 36.69,24.87C35.69,24.45 34.64,24.31 33.72,24.19C32.979,24.137 32.249,23.982 31.55,23.73C31.373,23.652 31.225,23.519 31.13,23.35C31.023,23.119 30.988,22.861 31.03,22.61C31.164,21.66 31.036,20.692 30.66,19.81C30.352,19.177 29.832,18.671 29.19,18.38C28.02,17.85 26.71,17.94 26.03,17.85C25.45,17.77 25.23,17.54 24.99,17.08C24.75,16.63 24.59,15.94 24.36,15.21C24.153,14.392 23.755,13.635 23.2,13C22.423,12.239 21.387,11.796 20.3,11.76L20.3,11.77ZM88.26,15.17L87.12,15.37C87.27,16.21 87.74,16.85 88.32,17.25C88.91,17.65 89.59,17.85 90.26,17.95C90.93,18.05 91.58,18.07 92.11,18.07L93.14,18.07C93.91,18.21 94.28,18.47 94.62,18.85C94.96,19.22 95.24,19.75 95.68,20.29C96.199,20.965 96.905,21.473 97.71,21.75C98.69,22.1 99.99,22.26 101.86,22.15C102.46,22.11 103.07,22.17 103.66,22.34L103.97,21.24C103.27,21.03 102.53,20.94 101.79,21C100.55,21.135 99.296,21.023 98.1,20.67C97.494,20.466 96.964,20.082 96.58,19.57C96.22,19.13 95.94,18.59 95.48,18.07C94.918,17.459 94.162,17.06 93.34,16.94C92.98,16.87 92.62,16.91 92.11,16.91C91.6,16.91 91.01,16.9 90.44,16.81C89.92,16.75 89.419,16.58 88.97,16.31C88.576,16.059 88.315,15.644 88.26,15.18L88.26,15.17ZM39.06,17.81L37.9,17.85C37.98,20.55 38.69,22.11 39.73,23.04C40.78,23.96 42.05,24.22 43.11,24.57C44.17,24.93 45.01,25.31 45.59,26.44C46.17,27.57 46.49,29.56 46.09,33.09L47.23,33.22C47.64,29.58 47.37,27.37 46.62,25.92C45.955,24.709 44.818,23.825 43.48,23.48C42.33,23.09 41.27,22.85 40.5,22.18C39.73,21.49 39.13,20.33 39.05,17.81L39.06,17.81ZM-3.43,19.56L-4.33,20.28C-3.807,20.953 -3.103,21.464 -2.3,21.75C-1.32,22.1 -0.02,22.26 1.86,22.15C4,22.02 5.89,22.98 7.73,25.9L8.71,25.28C6.73,22.15 4.34,20.84 1.79,21C0.546,21.134 -0.712,21.018 -1.91,20.66C-2.516,20.456 -3.046,20.072 -3.43,19.56ZM64.54,20.9C63.565,20.947 62.616,21.236 61.78,21.74C60.297,22.683 59.252,24.182 58.88,25.9C58.131,28.932 55.225,30.965 52.12,30.63L52.02,31.78C55.692,32.155 59.116,29.744 60,26.16C60.303,24.745 61.156,23.507 62.37,22.72C63.61,21.96 65.33,21.72 67.65,22.59L68.06,21.51C66.938,21.066 65.736,20.861 64.53,20.91L64.54,20.9ZM14.34,21.93C13.719,22.502 13.283,23.248 13.09,24.07C12.96,24.76 13.08,25.37 13.24,25.9C13.4,26.42 13.6,26.86 13.68,27.2C13.76,27.54 13.76,27.72 13.6,27.97C12.98,28.97 11.98,29.33 11.03,30.15C10.56,30.56 10.13,31.11 9.89,31.87C9.65,32.62 9.59,33.57 9.77,34.82L10.92,34.66C10.762,33.848 10.786,33.011 10.99,32.21C11.16,31.67 11.43,31.34 11.79,31.02C12.52,30.39 13.74,29.92 14.58,28.59C14.92,28.04 14.92,27.43 14.8,26.93C14.68,26.43 14.48,25.99 14.34,25.56C14.194,25.153 14.156,24.716 14.23,24.29C14.31,23.86 14.55,23.36 15.16,22.75L14.34,21.93ZM20.98,24.6L20.96,25.75C21.09,25.75 21.61,25.93 22.05,26.26C22.48,26.6 22.85,27.06 22.95,27.5C23.22,28.54 23.8,29.3 24.59,29.7C25.437,30.085 26.392,30.163 27.29,29.92L27.03,28.79C26.23,28.97 25.58,28.92 25.11,28.68C24.63,28.44 24.28,28.01 24.08,27.22C23.859,26.465 23.391,25.806 22.75,25.35C22.255,24.918 21.635,24.655 20.98,24.6ZM90.01,24.64L89.27,25.54C90.41,26.47 90.72,27.28 90.72,28.08C90.72,28.88 90.34,29.74 89.86,30.62C89.38,31.49 88.8,32.36 88.51,33.28C88.21,34.2 88.31,35.28 89.19,36.09C89.65,36.52 90.29,36.89 90.96,37.35C91.63,37.8 92.32,38.31 92.82,38.87C93.32,39.43 93.64,40.01 93.66,40.67C93.68,41.35 93.41,42.17 92.54,43.21C92.11,43.71 91.86,44.2 91.83,44.71C91.79,45.21 92,45.67 92.29,46.03C92.87,46.73 93.76,47.23 94.62,47.91C95.583,48.601 96.348,49.532 96.84,50.61C97.35,51.82 97.55,53.43 97.02,55.77L98.14,56.03C98.72,53.51 98.52,51.62 97.9,50.17C97.335,48.91 96.453,47.818 95.34,47C94.4,46.27 93.53,45.72 93.18,45.3C93.01,45.09 92.96,44.96 92.98,44.79C92.98,44.62 93.09,44.35 93.42,43.95C94.42,42.76 94.84,41.65 94.82,40.65C94.76,39.691 94.355,38.785 93.68,38.1C93.061,37.452 92.366,36.882 91.61,36.4C90.91,35.93 90.28,35.53 89.97,35.24C89.39,34.71 89.39,34.31 89.61,33.63C89.82,32.95 90.36,32.1 90.87,31.18C91.38,30.25 91.87,29.22 91.87,28.08C91.87,26.94 91.33,25.74 90.01,24.64ZM62.73,30.67L61.68,31.15C62.063,32.114 62.756,32.924 63.65,33.45C64.39,33.85 65.13,33.91 65.75,33.97C66.38,34.02 66.89,34.07 67.29,34.31C67.69,34.54 68.09,34.95 68.43,35.95C68.79,36.99 69.29,37.69 69.95,38.06C70.6,38.44 71.34,38.46 72.03,38.34C73.42,38.12 74.83,37.45 76.13,37.41C77.65,37.37 78.44,37.61 78.9,37.91C79.36,38.21 79.56,38.61 79.82,39.11C80.08,39.61 80.43,40.25 81.18,40.59C81.93,40.94 82.96,40.99 84.58,40.68L84.36,39.55C82.86,39.83 82.07,39.73 81.66,39.55C81.26,39.35 81.1,39.06 80.84,38.58C80.565,37.928 80.115,37.363 79.54,36.95C78.81,36.48 77.75,36.21 76.1,36.25C74.46,36.31 72.97,37.02 71.85,37.2C71.29,37.3 70.87,37.26 70.52,37.06C70.17,36.86 69.82,36.46 69.52,35.57C69.12,34.4 68.54,33.69 67.86,33.31C67.18,32.92 66.48,32.87 65.86,32.81C65.284,32.801 64.716,32.675 64.19,32.44C63.7,32.18 63.21,31.71 62.73,30.67ZM38.63,31.48C36.55,31.572 34.593,32.504 33.21,34.06C32.446,34.978 31.499,35.727 30.43,36.26C29.76,36.52 29.33,36.46 28.86,36.32C28.39,36.17 27.89,35.88 27.23,35.75C26.422,35.611 25.592,35.806 24.93,36.29C24.63,36.49 24.39,36.77 24.02,37.12C23.65,37.47 23.21,37.87 22.74,38.19C22.27,38.52 21.77,38.76 21.32,38.83C20.88,38.9 20.48,38.84 20.03,38.5L19.34,39.43C20.02,39.94 20.8,40.08 21.51,39.97C22.192,39.842 22.836,39.558 23.39,39.14C23.894,38.781 24.369,38.384 24.81,37.95C25.2,37.58 25.54,37.26 25.57,37.25C26.22,36.82 26.59,36.8 27.01,36.88C27.42,36.97 27.9,37.23 28.52,37.42C29.15,37.61 29.95,37.68 30.85,37.32C31.75,36.97 32.77,36.22 34.05,34.85C35.721,32.879 38.428,32.103 40.89,32.89L41.18,31.77C40.348,31.551 39.49,31.454 38.63,31.48ZM-2.55,32.04L-2.62,33.19C-0.12,33.35 1.21,33.81 1.98,34.39C2.77,34.97 3.09,35.71 3.52,36.69C4,37.925 4.729,39.048 5.66,39.99C6.86,41.12 8.68,42.22 11.69,43.18L12.04,42.08C9.14,41.15 7.49,40.14 6.46,39.15C5.63,38.32 4.989,37.32 4.58,36.22C4.15,35.25 3.72,34.23 2.68,33.46C1.63,32.69 0.07,32.21 -2.55,32.04ZM97.45,32.04L97.38,33.19C99.65,33.34 100.95,33.73 101.75,34.23C102.55,34.73 102.91,35.34 103.29,36.15L104.33,35.67C103.939,34.682 103.255,33.837 102.37,33.25C101.32,32.6 99.82,32.19 97.45,32.05L97.45,32.04ZM57.55,37.1C57.14,37.1 56.71,37.16 56.25,37.3L56.57,38.4C58.04,37.98 58.89,38.4 59.7,39.14C60.52,39.87 61.18,40.94 62.01,41.71C62.48,42.15 63.03,42.35 63.54,42.41C64.05,42.47 64.53,42.42 64.99,42.41C65.91,42.39 66.78,42.43 67.99,43.52C68.92,44.37 69.67,45.74 70.49,47.04C71.32,48.33 72.24,49.6 73.72,50.02L74.03,48.92C73.04,48.62 72.26,47.66 71.47,46.42C70.68,45.17 69.92,43.72 68.77,42.67C67.751,41.699 66.376,41.189 64.97,41.26C64.45,41.26 64.02,41.3 63.67,41.26C63.339,41.235 63.026,41.094 62.79,40.86C62.16,40.28 61.46,39.16 60.47,38.28C59.676,37.533 58.63,37.111 57.54,37.1L57.55,37.1ZM35.22,39.28L34.17,39.74C34.49,40.49 35.15,41.09 35.5,41.74C35.68,42.08 35.77,42.38 35.76,42.68C35.76,42.98 35.66,43.28 35.32,43.68C34.62,44.48 34.56,45.56 34.67,46.53C34.77,47.49 35.07,48.41 35.27,49L36.36,48.65C36.16,48.05 35.9,47.21 35.81,46.4C35.72,45.59 35.82,44.87 36.2,44.43C36.67,43.87 36.9,43.28 36.92,42.71C36.921,42.184 36.783,41.666 36.52,41.21C36.05,40.33 35.37,39.61 35.22,39.28ZM50.05,41.81C48.78,41.89 47.87,42.79 47.05,43.61C46.25,44.41 45.49,45.15 44.73,45.32C43.96,45.5 43.01,45.25 41.49,43.66L40.66,44.46C42.31,46.19 43.75,46.73 44.98,46.45C46.22,46.17 47.08,45.21 47.88,44.42C48.68,43.62 49.38,43.01 50.12,42.96C50.86,42.92 51.9,43.4 53.45,45.34L54.35,44.62C52.7,42.55 51.33,41.74 50.05,41.82L50.05,41.81ZM22.2,43.86C22.075,44.809 22.25,45.775 22.7,46.62C23.1,47.27 23.7,47.62 24.28,47.84C24.84,48.04 25.4,48.14 25.82,48.27C26.24,48.4 26.48,48.54 26.62,48.77C27.15,49.65 27.66,50.92 28.44,52.01C29.21,53.11 30.34,54.06 31.94,54.07C34.1,54.09 35.3,54.41 36.05,54.97C36.8,55.53 37.2,56.4 37.62,57.75L38.72,57.41C38.28,55.99 37.79,54.83 36.74,54.05C35.7,53.26 34.22,52.93 31.95,52.92C30.78,52.91 30.05,52.29 29.38,51.35C28.72,50.41 28.21,49.18 27.61,48.18C27.271,47.673 26.753,47.313 26.16,47.17C25.63,47 25.11,46.91 24.68,46.75C24.273,46.634 23.921,46.374 23.69,46.02C23.45,45.63 23.29,45 23.35,43.93L22.2,43.86ZM3.95,44.56L4.08,45.7C4.99,45.6 5.58,45.8 6.08,46.12C6.58,46.45 6.98,46.94 7.37,47.45C7.76,47.95 8.11,48.49 8.67,48.84C9.24,49.19 10.05,49.19 10.82,48.72C11.63,48.22 12.05,48.2 12.4,48.3C12.74,48.4 13.1,48.7 13.56,49.12C14.03,49.54 14.6,50.05 15.42,50.35C16.24,50.65 17.29,50.72 18.62,50.38L18.34,49.26C17.17,49.56 16.41,49.48 15.82,49.26C15.262,49.028 14.756,48.688 14.33,48.26C13.88,47.86 13.41,47.39 12.71,47.19C12.01,46.99 11.19,47.15 10.23,47.73C9.68,48.06 9.53,48.01 9.28,47.86C9.02,47.7 8.68,47.27 8.28,46.75C7.857,46.13 7.329,45.589 6.72,45.15C5.898,44.626 4.915,44.413 3.95,44.55L3.95,44.56ZM80.39,49.03L79.24,49.03C79.24,51.69 79.96,53.28 81.09,54.19C82.22,55.1 83.62,55.29 84.86,55.53C86.1,55.76 87.18,56.01 87.87,56.75C88.57,57.49 89.04,58.83 88.81,61.55L89.96,61.65C90.21,58.76 89.72,57.02 88.71,55.95C87.71,54.89 86.33,54.62 85.07,54.39C83.8,54.16 82.63,53.95 81.81,53.29C81,52.64 80.4,51.49 80.39,49.03ZM57.75,49.1C56.95,49.18 56.33,49.65 55.8,50.05C55.27,50.45 54.8,50.76 54.44,50.82C54.08,50.87 53.7,50.79 53.04,50.02L52.17,50.78C52.97,51.71 53.84,52.08 54.62,51.96C55.39,51.84 55.97,51.36 56.49,50.97C56.883,50.625 57.353,50.378 57.86,50.25C58.26,50.21 58.7,50.35 59.43,51.17C60.62,52.54 61.75,53.12 62.8,53.28C63.85,53.45 64.76,53.24 65.59,53.2C66.41,53.16 67.15,53.23 68.09,53.88C69.01,54.53 70.14,55.82 71.49,58.25L72.51,57.68C71.11,55.18 69.9,53.74 68.74,52.94C67.808,52.276 66.672,51.957 65.53,52.04C64.58,52.09 63.77,52.27 62.98,52.14C62.19,52.02 61.36,51.64 60.3,50.41C59.44,49.43 58.56,49.02 57.75,49.11L57.75,49.1ZM43.1,51.3C42.432,51.292 41.764,51.325 41.1,51.4L41.22,52.55C44,52.23 45.37,52.71 46.15,53.47C46.94,54.23 47.24,55.42 47.55,56.74C47.85,58.05 48.18,59.5 49.31,60.52C50.44,61.54 52.27,61.98 55.26,61.55L55.1,60.41C52.27,60.81 50.88,60.38 50.08,59.66C49.28,58.94 48.98,57.78 48.67,56.47C48.37,55.17 48.05,53.71 46.95,52.64C46.13,51.84 44.91,51.35 43.1,51.3ZM14.3,56.01C13.9,56.01 13.51,56.03 13.14,56.07C11.66,56.24 10.35,56.62 8.97,56.25L8.67,57.37C10.41,57.82 11.92,57.37 13.27,57.22C14.715,56.93 16.214,57.363 17.28,58.38C18.28,59.24 19.26,59.49 20.13,59.42C21.01,59.36 21.75,59.03 22.48,58.85C24.3,58.4 25.4,58.5 26.13,58.8C26.86,59.1 27.3,59.61 27.76,60.19C28.23,60.76 28.74,61.44 29.63,61.7C30.52,61.97 31.63,61.76 33.21,60.96L32.68,59.93C31.23,60.67 30.44,60.74 29.96,60.6C29.48,60.46 29.14,60.05 28.66,59.46C28.126,58.707 27.401,58.11 26.56,57.73C25.55,57.32 24.17,57.24 22.2,57.73C21.36,57.93 20.66,58.23 20.04,58.27C19.42,58.32 18.85,58.21 18.04,57.5C17.013,56.565 15.679,56.035 14.29,56.01L14.3,56.01ZM79.2,57.61L78.07,57.88C78.26,58.65 78.15,59.12 77.93,59.51C77.7,59.89 77.3,60.21 76.8,60.51C76.3,60.79 75.72,61.05 75.18,61.35C74.599,61.622 74.124,62.079 73.83,62.65C73.33,63.8 73.47,65.12 73.37,66.34C73.27,67.56 73.02,68.61 71.92,69.42C70.41,70.55 69.65,71.49 69.32,72.38C68.97,73.28 69.11,74.06 69.2,74.68C69.3,75.31 69.36,75.76 69.1,76.34C68.84,76.92 68.19,77.68 66.68,78.69L67.33,79.65C68.93,78.58 69.76,77.68 70.15,76.81C70.55,75.94 70.44,75.15 70.35,74.51C70.25,73.88 70.16,73.39 70.39,72.79C70.62,72.19 71.19,71.39 72.61,70.35C74.03,69.29 74.41,67.78 74.52,66.43C74.63,65.09 74.56,63.85 74.89,63.11C74.99,62.88 75.29,62.62 75.75,62.36C76.21,62.1 76.8,61.84 77.38,61.5C78.006,61.174 78.536,60.692 78.92,60.1C79.337,59.339 79.438,58.444 79.2,57.61ZM67.17,59.8C65.57,59.8 64.27,60.43 63.33,61.4C62.396,62.445 61.716,63.69 61.34,65.04C60.04,69.17 57.41,69.84 56.01,69.73C53.99,69.57 52.61,70.01 51.64,70.73C50.68,71.47 50.16,72.43 49.67,73.23C49.19,74.01 48.77,74.58 48.11,74.83C47.44,75.08 46.37,75.06 44.48,74.3L44.04,75.37C46.07,76.18 47.45,76.31 48.51,75.91C49.57,75.51 50.15,74.64 50.65,73.83C51.15,73.01 51.61,72.21 52.35,71.66C53.07,71.1 54.1,70.73 55.92,70.88C57.83,71.02 61.01,69.93 62.44,65.39C62.84,64.13 63.4,62.99 64.16,62.21C64.932,61.373 66.032,60.913 67.17,60.95L67.17,59.8ZM4.84,61.44L3.91,62.12C4.6,63.167 5.611,63.964 6.79,64.39C7.76,64.71 8.69,64.68 9.49,64.67C10.29,64.65 10.95,64.67 11.52,64.92C12.09,65.18 12.63,65.69 13.17,66.89L14.22,66.41C13.61,65.05 12.85,64.26 11.99,63.87C11.187,63.564 10.326,63.441 9.47,63.51C8.66,63.52 7.89,63.54 7.15,63.29C6.2,62.945 5.391,62.294 4.85,61.44L4.84,61.44ZM86.2,65.18C85.15,65.29 84.14,65.642 83.25,66.21C82.16,66.82 81.25,67.37 79.68,67.19L79.55,68.34C81.45,68.55 82.74,67.82 83.82,67.22C84.9,66.62 85.77,66.12 87.31,66.39C89.1,66.7 90.15,67.72 91.37,68.61C92.58,69.51 94.08,70.21 96.23,69.44C98.76,68.54 100.33,68.41 101.33,68.61C102.35,68.81 102.86,69.3 103.39,69.86L104.23,69.08C103.544,68.264 102.603,67.7 101.56,67.48C100.25,67.22 98.48,67.41 95.84,68.35C94.03,69 93.17,68.51 92.04,67.68C90.92,66.86 89.64,65.63 87.51,65.25C87.04,65.17 86.61,65.15 86.21,65.18L86.2,65.18ZM42.21,65.39C41.082,65.362 39.961,65.574 38.92,66.01C37.92,66.41 37.02,66.9 36.24,67.27C35.47,67.63 34.81,67.85 34.42,67.82C32.82,67.72 31.91,66.98 30.51,66.52C29.11,66.07 27.34,66.08 24.47,67.56L24.99,68.59C27.71,67.19 29,67.25 30.15,67.62C31.31,67.99 32.43,68.85 34.35,68.98C35.15,69.03 35.92,68.7 36.74,68.31C37.56,67.92 38.44,67.45 39.34,67.09C41.17,66.37 43.03,66.06 45.12,67.7L45.84,66.8C44.811,65.957 43.538,65.466 42.21,65.4L42.21,65.39ZM1.44,67.45C0.15,67.23 -1.56,67.43 -4.07,68.31L-3.69,69.41C-1.29,68.55 0.24,68.41 1.24,68.59C2.24,68.76 2.76,69.2 3.27,69.74C3.78,70.27 4.25,70.94 5.1,71.27C5.96,71.58 7.05,71.42 8.59,70.61L8.05,69.59C6.65,70.33 5.95,70.35 5.51,70.19C5.06,70.02 4.68,69.54 4.11,68.94C3.413,68.158 2.472,67.633 1.44,67.45ZM86.8,69.57L85.67,69.78C86.01,71.6 85.97,73.28 85.53,74.56C85.162,75.806 84.147,76.76 82.88,77.05C80.38,77.69 79.08,78.61 78.47,79.58C77.995,80.286 77.883,81.178 78.17,81.98L79.25,81.57C79.087,81.11 79.158,80.598 79.44,80.2C79.84,79.57 80.84,78.76 83.17,78.16C84.795,77.751 86.1,76.533 86.62,74.94C87.16,73.39 87.17,71.52 86.8,69.57ZM14.93,71.7C13.33,71.9 11.67,73.24 9.55,76.33L10.51,76.99C12.55,73.99 14.03,72.98 15.08,72.85C16.12,72.72 17.02,73.39 18.05,74.36C19.08,75.34 20.15,76.56 21.63,77.08C23.11,77.58 24.91,77.22 26.99,75.32L26.21,74.47C24.31,76.21 23.09,76.36 22.01,75.99C20.93,75.61 19.91,74.54 18.84,73.53C17.76,72.51 16.54,71.5 14.94,71.7L14.93,71.7ZM33.47,74.02L33.25,75.15C34.118,75.284 34.914,75.716 35.5,76.37C36,76.94 36.31,77.64 36.57,78.38C36.83,79.13 37.03,79.9 37.35,80.59C37.67,81.28 38.19,81.93 39.01,82.16C40.98,82.72 42.42,82.78 43.54,83.12C44.66,83.46 45.53,84.01 46.63,85.73L47.6,85.11C46.4,83.23 45.2,82.41 43.87,82.01C42.55,81.61 41.17,81.57 39.33,81.05C38.89,80.93 38.65,80.65 38.4,80.1C38.14,79.56 37.94,78.8 37.66,78C37.388,77.126 36.946,76.314 36.36,75.61C35.6,74.775 34.583,74.215 33.47,74.02ZM97.02,78.03C95.45,77.87 94.33,78.23 93.59,78.9C92.928,79.588 92.447,80.43 92.19,81.35C91.89,82.21 91.61,83.03 91.16,83.62C90.7,84.21 90.11,84.62 88.93,84.72L89.03,85.87C90.218,85.814 91.327,85.249 92.07,84.32C92.69,83.52 92.98,82.58 93.28,81.74C93.58,80.91 93.88,80.2 94.37,79.75C94.85,79.31 95.54,79.04 96.9,79.18L97.02,78.03ZM58.42,78.57C57.837,78.478 57.243,78.478 56.66,78.57C55.62,78.75 54.87,79.27 54.32,79.87C53.77,80.45 53.38,81.09 52.99,81.57C52.61,82.06 52.27,82.37 51.79,82.47L52.04,83.59C52.794,83.39 53.453,82.929 53.9,82.29C54.35,81.73 54.71,81.13 55.16,80.66C55.6,80.19 56.09,79.84 56.86,79.71C58.02,79.591 59.191,79.773 60.26,80.24L60.66,79.16C59.81,78.86 59.07,78.66 58.41,78.56L58.42,78.57ZM5.75,79.02C5.75,79.62 5.59,79.94 5.32,80.22C4.995,80.539 4.606,80.788 4.18,80.95C3.71,81.16 3.18,81.36 2.67,81.65C2.16,81.95 1.67,82.36 1.41,83C1.14,83.67 1.11,84.26 1.26,84.74C1.41,85.22 1.69,85.54 1.89,85.83C2.09,86.11 2.25,86.34 2.31,86.67C2.37,86.99 2.35,87.44 2.09,88.17C1.65,89.37 1.84,90.35 2.33,91C2.83,91.66 3.49,92.03 3.97,92.43C4.44,92.83 4.71,93.15 4.71,93.83C4.71,94.49 4.34,95.59 3.18,97.31L4.13,97.95C5.36,96.15 5.86,94.88 5.87,93.83C5.87,92.78 5.29,92.04 4.71,91.55C4.13,91.05 3.55,90.7 3.25,90.31C2.95,89.91 2.82,89.53 3.18,88.56C3.48,87.7 3.55,87.02 3.44,86.46C3.34,85.88 3.06,85.46 2.83,85.15C2.6,84.83 2.43,84.61 2.36,84.39C2.29,84.18 2.27,83.93 2.48,83.43C2.61,83.1 2.86,82.88 3.24,82.65C3.63,82.43 4.14,82.24 4.66,82C5.221,81.774 5.732,81.437 6.16,81.01C6.61,80.54 6.9,79.86 6.91,79.03L5.75,79.02ZM19.28,79.24L18.33,79.89C19.78,82.01 21.73,82.27 22.93,82.67C23.54,82.87 23.93,83.07 24.21,83.51C24.48,83.95 24.67,84.73 24.58,86.14L25.73,86.21C25.83,84.68 25.65,83.64 25.19,82.9C24.741,82.244 24.07,81.771 23.3,81.57C21.9,81.11 20.5,81.01 19.28,79.24ZM11.48,82.79L11.3,83.93C13.75,84.33 14.92,85.25 15.58,86.43C16.24,87.6 16.38,89.13 16.43,90.68C16.48,92.24 16.44,93.8 17,95.1C17.29,95.75 17.74,96.34 18.42,96.72C19.23,97.141 20.138,97.341 21.05,97.3L21.05,96.14C20.09,96.14 19.45,95.98 18.99,95.72C18.54,95.46 18.27,95.12 18.06,94.65C17.66,93.7 17.64,92.23 17.58,90.65C17.53,89.06 17.42,87.35 16.58,85.86C15.76,84.38 14.18,83.22 11.48,82.79ZM30.19,83.32L29.37,84.12C30.15,84.92 30.39,85.58 30.41,86.2C30.44,86.82 30.23,87.45 29.94,88.1C29.65,88.75 29.29,89.4 29.12,90.13C28.95,90.85 29.04,91.71 29.65,92.41C30.25,93.11 31.15,93.81 31.51,94.61C31.69,95.01 31.75,95.39 31.62,95.88C31.49,96.37 31.13,96.98 30.38,97.69C29.879,98.124 29.594,98.757 29.6,99.42C29.663,100.004 29.896,100.557 30.27,101.01C30.97,101.97 31.99,102.89 32.67,103.96L33.64,103.35C32.85,102.1 31.78,101.12 31.2,100.33C30.91,99.93 30.76,99.6 30.75,99.36C30.74,99.11 30.8,98.89 31.18,98.53C31.901,97.902 32.436,97.09 32.73,96.18C32.93,95.43 32.83,94.72 32.56,94.13C32.03,92.96 30.98,92.17 30.52,91.65C30.14,91.21 30.12,90.9 30.24,90.4C30.36,89.9 30.69,89.27 31,88.57C31.3,87.87 31.6,87.06 31.57,86.15C31.48,85.068 30.988,84.057 30.19,83.32ZM83.21,84.37L82.47,85.25C82.85,85.57 83.02,85.9 83.11,86.3C83.2,86.7 83.18,87.18 83.13,87.7C83.03,88.74 82.74,89.96 83.37,91.06C83.73,91.7 84.29,92.06 84.83,92.16C85.37,92.24 85.86,92.14 86.3,92.09C86.75,92.03 87.13,92.01 87.45,92.11C87.77,92.21 88.09,92.41 88.45,93.01C89.63,94.96 90.71,95.44 91.52,95.73C92.32,96.01 92.8,96.07 93.68,97.66L94.68,97.1C93.7,95.32 92.68,94.91 91.9,94.64C91.12,94.36 90.51,94.19 89.43,92.4C89.076,91.746 88.491,91.247 87.79,91C87.258,90.86 86.701,90.84 86.16,90.94C85.68,91 85.29,91.06 85.02,91.01C84.76,90.97 84.6,90.91 84.37,90.5C84.03,89.89 84.17,88.93 84.28,87.81C84.355,87.228 84.338,86.637 84.23,86.06C84.09,85.395 83.73,84.797 83.21,84.36L83.21,84.37ZM58.34,85.67L57.24,86.01C57.577,87.281 58.154,88.476 58.94,89.53C59.62,90.36 60.44,90.87 61.32,91.05C63.09,91.41 64.97,90.55 66.98,89.24C67.496,88.902 68.122,88.773 68.73,88.88C69.36,88.98 70.03,89.25 70.67,89.63C71.682,90.242 72.554,91.059 73.23,92.03L74.26,91.51C73.519,90.315 72.487,89.327 71.26,88.64C70.538,88.185 69.732,87.879 68.89,87.74C68.007,87.6 67.103,87.788 66.35,88.27C64.43,89.52 62.78,90.17 61.55,89.92C60.863,89.767 60.255,89.368 59.84,88.8C59.148,87.86 58.639,86.798 58.34,85.67ZM37.8,91.8L37.65,92.94C38.694,93.176 39.643,93.724 40.37,94.51C41.26,95.34 42.12,96.37 43.02,97.21C43.92,98.06 44.9,98.77 46.08,98.74C47.26,98.72 48.41,97.92 49.58,96.22C50.476,94.735 52.245,93.999 53.93,94.41C55.713,94.843 57.314,95.83 58.5,97.23L59.37,96.47C58.02,94.865 56.184,93.741 54.14,93.27C52.012,92.83 49.821,93.747 48.64,95.57C47.57,97.11 46.73,97.57 46.05,97.59C45.37,97.61 44.63,97.15 43.81,96.37C42.98,95.6 42.11,94.57 41.16,93.67C40.19,92.77 39.11,91.97 37.8,91.8ZM80.33,98.05C79.78,98.05 79.28,98.07 78.82,98.13C76.98,98.37 75.82,99.13 75.02,99.93C74.22,100.71 73.72,101.47 73.24,101.77C73,101.93 72.77,102 72.4,101.98C71.852,101.917 71.322,101.747 70.84,101.48C69.58,100.86 68.43,100.28 67.15,100.2C65.87,100.13 64.55,100.63 63.12,101.97C62.65,102.43 62.12,102.83 61.57,103.17L62.17,104.15C62.802,103.766 63.389,103.314 63.92,102.8L63.91,102.8C65.19,101.61 66.13,101.3 67.08,101.35C68.04,101.4 69.07,101.89 70.32,102.52C71.1,102.9 71.75,103.1 72.34,103.14C72.92,103.17 73.44,103.01 73.86,102.75C74.68,102.23 75.15,101.42 75.83,100.75C76.664,99.902 77.775,99.38 78.96,99.28C80.56,99.08 82.92,99.29 86.46,100.4L86.8,99.3C84.712,98.583 82.534,98.162 80.33,98.05ZM53.69,100C52.8,100.1 51.82,100.5 50.69,101.3L51.36,102.24C52.071,101.672 52.914,101.294 53.81,101.14C54.43,101.08 54.91,101.24 55.37,101.52C56.31,102.1 57.1,103.32 58.23,104.14L58.91,103.2C58.05,102.58 57.24,101.31 55.98,100.54C55.299,100.108 54.492,99.918 53.69,100Z" style="fill:white;fill-opacity:0.2;fill-rule:nonzero;"/>
    </g>
</svg>
