<svg xmlns="http://www.w3.org/2000/svg" xmlns:xlink="http://www.w3.org/1999/xlink" width="100" zoomAndPan="magnify" viewBox="0 0 75 74.999997" height="100" preserveAspectRatio="xMidYMid meet" version="1.0"><defs><clipPath id="0b345667ca"><path d="M 15 21 L 65 21 L 65 71 L 15 71 Z M 15 21 " clip-rule="nonzero"/></clipPath><clipPath id="df9d088e8b"><path d="M 72.609375 33.679688 L 51.292969 78.351562 L 7.296875 57.359375 L 28.613281 12.683594 Z M 72.609375 33.679688 " clip-rule="nonzero"/></clipPath><clipPath id="c486b80591"><path d="M 72.609375 33.679688 L 51.292969 78.351562 L 7.296875 57.359375 L 28.613281 12.683594 Z M 72.609375 33.679688 " clip-rule="nonzero"/></clipPath><clipPath id="8c4fe8dc53"><path d="M 15 33 L 59 33 L 59 65 L 15 65 Z M 15 33 " clip-rule="nonzero"/></clipPath><clipPath id="80644a1536"><path d="M 72.609375 33.679688 L 51.292969 78.351562 L 7.296875 57.359375 L 28.613281 12.683594 Z M 72.609375 33.679688 " clip-rule="nonzero"/></clipPath><clipPath id="959d35a134"><path d="M 72.609375 33.679688 L 51.292969 78.351562 L 7.296875 57.359375 L 28.613281 12.683594 Z M 72.609375 33.679688 " clip-rule="nonzero"/></clipPath><clipPath id="64e51ddec6"><path d="M 55 38 L 65 38 L 65 65 L 55 65 Z M 55 38 " clip-rule="nonzero"/></clipPath><clipPath id="376e3c6513"><path d="M 72.609375 33.679688 L 51.292969 78.351562 L 7.296875 57.359375 L 28.613281 12.683594 Z M 72.609375 33.679688 " clip-rule="nonzero"/></clipPath><clipPath id="f2dd11e567"><path d="M 72.609375 33.679688 L 51.292969 78.351562 L 7.296875 57.359375 L 28.613281 12.683594 Z M 72.609375 33.679688 " clip-rule="nonzero"/></clipPath><clipPath id="d377cb47b3"><path d="M 44 21 L 61 21 L 61 39 L 44 39 Z M 44 21 " clip-rule="nonzero"/></clipPath><clipPath id="7e04666cc8"><path d="M 72.609375 33.679688 L 51.292969 78.351562 L 7.296875 57.359375 L 28.613281 12.683594 Z M 72.609375 33.679688 " clip-rule="nonzero"/></clipPath><clipPath id="a97067e927"><path d="M 72.609375 33.679688 L 51.292969 78.351562 L 7.296875 57.359375 L 28.613281 12.683594 Z M 72.609375 33.679688 " clip-rule="nonzero"/></clipPath><clipPath id="8bd6bd3370"><path d="M 54 33 L 61 33 L 61 43 L 54 43 Z M 54 33 " clip-rule="nonzero"/></clipPath><clipPath id="c43bd029ba"><path d="M 72.609375 33.679688 L 51.292969 78.351562 L 7.296875 57.359375 L 28.613281 12.683594 Z M 72.609375 33.679688 " clip-rule="nonzero"/></clipPath><clipPath id="a1a35b3004"><path d="M 72.609375 33.679688 L 51.292969 78.351562 L 7.296875 57.359375 L 28.613281 12.683594 Z M 72.609375 33.679688 " clip-rule="nonzero"/></clipPath><clipPath id="43d9817f6f"><path d="M 46.050781 34 L 61.800781 34 L 61.800781 47 L 46.050781 47 Z M 46.050781 34 " clip-rule="nonzero"/></clipPath><clipPath id="af43f79f42"><path d="M 50 40 L 61.800781 40 L 61.800781 47 L 50 47 Z M 50 40 " clip-rule="nonzero"/></clipPath><clipPath id="8dbbec7c02"><path d="M 48 38 L 61.800781 38 L 61.800781 47 L 48 47 Z M 48 38 " clip-rule="nonzero"/></clipPath><clipPath id="307a12789b"><path d="M 13 24 L 70 24 L 70 45 L 13 45 Z M 13 24 " clip-rule="nonzero"/></clipPath><clipPath id="317a01cc9e"><path d="M 4.867188 13.867188 L 60.863281 -3.058594 L 71.496094 32.121094 L 15.5 49.046875 Z M 4.867188 13.867188 " clip-rule="nonzero"/></clipPath><clipPath id="bee498835a"><path d="M 4.867188 13.867188 L 60.863281 -3.058594 L 71.496094 32.121094 L 15.5 49.046875 Z M 4.867188 13.867188 " clip-rule="nonzero"/></clipPath><clipPath id="e2b30276e4"><path d="M 4.867188 13.867188 L 60.863281 -3.058594 L 71.496094 32.121094 L 15.5 49.046875 Z M 4.867188 13.867188 " clip-rule="nonzero"/></clipPath><clipPath id="55e974a2ef"><path d="M 12.34375 37.699219 L 67.363281 21.070312 L 70.765625 32.328125 L 15.746094 48.957031 Z M 12.34375 37.699219 " clip-rule="nonzero"/></clipPath><clipPath id="4e8b8d100e"><path d="M 12.34375 37.699219 L 67.347656 21.074219 L 70.75 32.332031 L 15.746094 48.957031 Z M 12.34375 37.699219 " clip-rule="nonzero"/></clipPath><clipPath id="9fef3a029e"><path d="M 13 23 L 69 23 L 69 43 L 13 43 Z M 13 23 " clip-rule="nonzero"/></clipPath><clipPath id="d8453bfbcc"><path d="M 4.867188 13.867188 L 60.863281 -3.058594 L 71.496094 32.121094 L 15.5 49.046875 Z M 4.867188 13.867188 " clip-rule="nonzero"/></clipPath><clipPath id="88aa6b4d07"><path d="M 4.867188 13.867188 L 60.863281 -3.058594 L 71.496094 32.121094 L 15.5 49.046875 Z M 4.867188 13.867188 " clip-rule="nonzero"/></clipPath><clipPath id="cd2984ee60"><path d="M 4.867188 13.867188 L 60.863281 -3.058594 L 71.496094 32.121094 L 15.5 49.046875 Z M 4.867188 13.867188 " clip-rule="nonzero"/></clipPath><clipPath id="717db9a38b"><path d="M 14 6 L 60 6 L 60 42 L 14 42 Z M 14 6 " clip-rule="nonzero"/></clipPath><clipPath id="482fbbaab7"><path d="M 4.867188 13.867188 L 60.863281 -3.058594 L 71.496094 32.121094 L 15.5 49.046875 Z M 4.867188 13.867188 " clip-rule="nonzero"/></clipPath><clipPath id="f4fe07875f"><path d="M 4.867188 13.867188 L 60.863281 -3.058594 L 71.496094 32.121094 L 15.5 49.046875 Z M 4.867188 13.867188 " clip-rule="nonzero"/></clipPath><clipPath id="8db203f452"><path d="M 4.867188 13.867188 L 60.863281 -3.058594 L 71.496094 32.121094 L 15.5 49.046875 Z M 4.867188 13.867188 " clip-rule="nonzero"/></clipPath><clipPath id="0836d52810"><path d="M 25 10 L 46 10 L 46 35 L 25 35 Z M 25 10 " clip-rule="nonzero"/></clipPath><clipPath id="f8b1d1e36b"><path d="M 4.867188 13.867188 L 60.863281 -3.058594 L 71.496094 32.121094 L 15.5 49.046875 Z M 4.867188 13.867188 " clip-rule="nonzero"/></clipPath><clipPath id="0401c8f4dc"><path d="M 4.867188 13.867188 L 60.863281 -3.058594 L 71.496094 32.121094 L 15.5 49.046875 Z M 4.867188 13.867188 " clip-rule="nonzero"/></clipPath><clipPath id="947bee6357"><path d="M 4.867188 13.867188 L 60.863281 -3.058594 L 71.496094 32.121094 L 15.5 49.046875 Z M 4.867188 13.867188 " clip-rule="nonzero"/></clipPath><clipPath id="82e95325cc"><path d="M 39 13 L 51 13 L 51 29 L 39 29 Z M 39 13 " clip-rule="nonzero"/></clipPath><clipPath id="5bea1e561c"><path d="M 4.867188 13.867188 L 60.863281 -3.058594 L 71.496094 32.121094 L 15.5 49.046875 Z M 4.867188 13.867188 " clip-rule="nonzero"/></clipPath><clipPath id="8e9318f39b"><path d="M 4.867188 13.867188 L 60.863281 -3.058594 L 71.496094 32.121094 L 15.5 49.046875 Z M 4.867188 13.867188 " clip-rule="nonzero"/></clipPath><clipPath id="9ce6e01376"><path d="M 4.867188 13.867188 L 60.863281 -3.058594 L 71.496094 32.121094 L 15.5 49.046875 Z M 4.867188 13.867188 " clip-rule="nonzero"/></clipPath><clipPath id="5cc582fafc"><path d="M 13 23 L 49 23 L 49 41 L 13 41 Z M 13 23 " clip-rule="nonzero"/></clipPath><clipPath id="eb830a6ae0"><path d="M 4.867188 13.867188 L 60.863281 -3.058594 L 71.496094 32.121094 L 15.5 49.046875 Z M 4.867188 13.867188 " clip-rule="nonzero"/></clipPath><clipPath id="3b92ccefd1"><path d="M 4.867188 13.867188 L 60.863281 -3.058594 L 71.496094 32.121094 L 15.5 49.046875 Z M 4.867188 13.867188 " clip-rule="nonzero"/></clipPath><clipPath id="efbb56fc79"><path d="M 4.867188 13.867188 L 60.863281 -3.058594 L 71.496094 32.121094 L 15.5 49.046875 Z M 4.867188 13.867188 " clip-rule="nonzero"/></clipPath><clipPath id="d17d9211cd"><path d="M 44 10 L 58 10 L 58 29 L 44 29 Z M 44 10 " clip-rule="nonzero"/></clipPath><clipPath id="dc9f26a8c5"><path d="M 4.867188 13.867188 L 60.863281 -3.058594 L 71.496094 32.121094 L 15.5 49.046875 Z M 4.867188 13.867188 " clip-rule="nonzero"/></clipPath><clipPath id="1b0c067e28"><path d="M 4.867188 13.867188 L 60.863281 -3.058594 L 71.496094 32.121094 L 15.5 49.046875 Z M 4.867188 13.867188 " clip-rule="nonzero"/></clipPath><clipPath id="e04f15ddb6"><path d="M 4.867188 13.867188 L 60.863281 -3.058594 L 71.496094 32.121094 L 15.5 49.046875 Z M 4.867188 13.867188 " clip-rule="nonzero"/></clipPath><clipPath id="75592ce70b"><path d="M 48 10 L 62 10 L 62 27 L 48 27 Z M 48 10 " clip-rule="nonzero"/></clipPath><clipPath id="c78ea74032"><path d="M 4.867188 13.867188 L 60.863281 -3.058594 L 71.496094 32.121094 L 15.5 49.046875 Z M 4.867188 13.867188 " clip-rule="nonzero"/></clipPath><clipPath id="de4dab401a"><path d="M 4.867188 13.867188 L 60.863281 -3.058594 L 71.496094 32.121094 L 15.5 49.046875 Z M 4.867188 13.867188 " clip-rule="nonzero"/></clipPath><clipPath id="8b623491cf"><path d="M 4.867188 13.867188 L 60.863281 -3.058594 L 71.496094 32.121094 L 15.5 49.046875 Z M 4.867188 13.867188 " clip-rule="nonzero"/></clipPath><clipPath id="3a81ae0c3f"><path d="M 50 12 L 60 12 L 60 25 L 50 25 Z M 50 12 " clip-rule="nonzero"/></clipPath><clipPath id="28c4b50762"><path d="M 4.867188 13.867188 L 60.863281 -3.058594 L 71.496094 32.121094 L 15.5 49.046875 Z M 4.867188 13.867188 " clip-rule="nonzero"/></clipPath><clipPath id="5a0026e91a"><path d="M 4.867188 13.867188 L 60.863281 -3.058594 L 71.496094 32.121094 L 15.5 49.046875 Z M 4.867188 13.867188 " clip-rule="nonzero"/></clipPath><clipPath id="e5ff72a22d"><path d="M 4.867188 13.867188 L 60.863281 -3.058594 L 71.496094 32.121094 L 15.5 49.046875 Z M 4.867188 13.867188 " clip-rule="nonzero"/></clipPath><clipPath id="f04001627f"><path d="M 4 21 L 42 21 L 42 62 L 4 62 Z M 4 21 " clip-rule="nonzero"/></clipPath><clipPath id="859cacbe5e"><path d="M 2.375 58.449219 L 6.101562 18.875 L 45.675781 22.605469 L 41.949219 62.179688 Z M 2.375 58.449219 " clip-rule="nonzero"/></clipPath><clipPath id="eb6189afab"><path d="M 6.109375 18.816406 L 2.378906 58.390625 L 41.957031 62.121094 L 45.683594 22.546875 Z M 6.109375 18.816406 " clip-rule="nonzero"/></clipPath><clipPath id="b1027f22ab"><path d="M 6.109375 18.816406 L 2.378906 58.390625 L 41.957031 62.121094 L 45.683594 22.546875 Z M 6.109375 18.816406 " clip-rule="nonzero"/></clipPath><clipPath id="51a0e0d194"><path d="M 16 21 L 36 21 L 36 30 L 16 30 Z M 16 21 " clip-rule="nonzero"/></clipPath><clipPath id="c6f9900853"><path d="M 2.375 58.449219 L 6.101562 18.875 L 45.675781 22.605469 L 41.949219 62.179688 Z M 2.375 58.449219 " clip-rule="nonzero"/></clipPath><clipPath id="2cfcb4a269"><path d="M 6.109375 18.816406 L 2.378906 58.390625 L 41.957031 62.121094 L 45.683594 22.546875 Z M 6.109375 18.816406 " clip-rule="nonzero"/></clipPath><clipPath id="b6e3db234a"><path d="M 6.109375 18.816406 L 2.378906 58.390625 L 41.957031 62.121094 L 45.683594 22.546875 Z M 6.109375 18.816406 " clip-rule="nonzero"/></clipPath><clipPath id="7f42412535"><path d="M 4 30 L 15 30 L 15 50 L 4 50 Z M 4 30 " clip-rule="nonzero"/></clipPath><clipPath id="680a21a794"><path d="M 2.375 58.449219 L 6.101562 18.875 L 45.675781 22.605469 L 41.949219 62.179688 Z M 2.375 58.449219 " clip-rule="nonzero"/></clipPath><clipPath id="ac908a9cb0"><path d="M 6.109375 18.816406 L 2.378906 58.390625 L 41.957031 62.121094 L 45.683594 22.546875 Z M 6.109375 18.816406 " clip-rule="nonzero"/></clipPath><clipPath id="28a76e8837"><path d="M 6.109375 18.816406 L 2.378906 58.390625 L 41.957031 62.121094 L 45.683594 22.546875 Z M 6.109375 18.816406 " clip-rule="nonzero"/></clipPath><clipPath id="5df44056b1"><path d="M 10 24 L 21 24 L 21 36 L 10 36 Z M 10 24 " clip-rule="nonzero"/></clipPath><clipPath id="426f5a447a"><path d="M 2.375 58.449219 L 6.101562 18.875 L 45.675781 22.605469 L 41.949219 62.179688 Z M 2.375 58.449219 " clip-rule="nonzero"/></clipPath><clipPath id="5d00807acd"><path d="M 6.109375 18.816406 L 2.378906 58.390625 L 41.957031 62.121094 L 45.683594 22.546875 Z M 6.109375 18.816406 " clip-rule="nonzero"/></clipPath><clipPath id="f20700872f"><path d="M 6.109375 18.816406 L 2.378906 58.390625 L 41.957031 62.121094 L 45.683594 22.546875 Z M 6.109375 18.816406 " clip-rule="nonzero"/></clipPath><clipPath id="e64cb52c9e"><path d="M 41 40 L 70 40 L 70 58 L 41 58 Z M 41 40 " clip-rule="nonzero"/></clipPath><clipPath id="571d17467c"><path d="M 39.925781 54.96875 L 54.273438 33.890625 L 69.773438 44.441406 L 55.425781 65.519531 Z M 39.925781 54.96875 " clip-rule="nonzero"/></clipPath><clipPath id="80dfc9b019"><path d="M 59.289062 26.523438 L 39.875 55.042969 L 60.953125 69.394531 L 80.367188 40.875 Z M 59.289062 26.523438 " clip-rule="nonzero"/></clipPath><clipPath id="d3b1345729"><path d="M 59.289062 26.523438 L 39.875 55.042969 L 60.953125 69.394531 L 80.367188 40.875 Z M 59.289062 26.523438 " clip-rule="nonzero"/></clipPath><clipPath id="5ed86e6793"><path d="M 41 51 L 44 51 L 44 56 L 41 56 Z M 41 51 " clip-rule="nonzero"/></clipPath><clipPath id="490242a229"><path d="M 39.925781 54.96875 L 54.273438 33.890625 L 69.773438 44.441406 L 55.425781 65.519531 Z M 39.925781 54.96875 " clip-rule="nonzero"/></clipPath><clipPath id="835fd8b126"><path d="M 59.289062 26.523438 L 39.875 55.042969 L 60.953125 69.394531 L 80.367188 40.875 Z M 59.289062 26.523438 " clip-rule="nonzero"/></clipPath><clipPath id="8d2342b8ec"><path d="M 59.289062 26.523438 L 39.875 55.042969 L 60.953125 69.394531 L 80.367188 40.875 Z M 59.289062 26.523438 " clip-rule="nonzero"/></clipPath></defs><g clip-path="url(#0b345667ca)"><g clip-path="url(#df9d088e8b)"><g clip-path="url(#c486b80591)"><path fill="#f8d445" d="M 61.785156 56.367188 C 61.964844 55.992188 62.132812 55.613281 62.296875 55.230469 C 67.523438 42.792969 61.832031 28.554688 49.574219 23.410156 C 37.316406 18.261719 23.136719 24.160156 17.886719 36.582031 C 12.828125 48.597656 17.953125 62.390625 29.539062 67.9375 C 29.582031 67.972656 29.617188 67.980469 29.660156 68.007812 C 30.058594 68.167969 30.257812 68.238281 30.652344 68.433594 C 30.730469 68.464844 30.816406 68.542969 30.898438 68.558594 C 42.734375 73.339844 56.238281 67.917969 61.785156 56.367188 Z M 61.785156 56.367188 " fill-opacity="1" fill-rule="evenodd"/></g></g></g><g clip-path="url(#8c4fe8dc53)"><g clip-path="url(#80644a1536)"><g clip-path="url(#959d35a134)"><path fill="#5271ff" d="M 57.949219 39.15625 C 57.953125 39.140625 57.945312 39.148438 57.910156 39.199219 C 57.867188 39.289062 57.941406 39.183594 57.949219 39.15625 Z M 57.910156 39.199219 C 57.9375 39.140625 57.960938 39.085938 57.972656 39.027344 C 57.988281 39.007812 57.996094 38.984375 58.007812 38.960938 C 58.058594 38.882812 58.085938 38.835938 57.960938 38.789062 C 57.878906 38.472656 57.464844 38.113281 56.417969 37.566406 C 55.703125 37.191406 54.695312 36.734375 53.480469 36.25 C 51.960938 35.71875 49.554688 34.890625 47.058594 34.277344 C 44.554688 33.664062 41.964844 33.265625 39.621094 33.113281 C 37.277344 32.957031 35.175781 33.054688 33.167969 33.253906 C 31.164062 33.457031 29.242188 33.765625 27.195312 34.3125 C 25.65625 34.71875 24.089844 35.25 22.558594 35.953125 C 22.496094 35.984375 22.425781 36.015625 22.363281 36.050781 C 21.613281 36.425781 20.675781 36.929688 19.789062 37.523438 C 18.902344 38.117188 18.070312 38.792969 17.492188 39.453125 C 17.003906 40.015625 16.695312 40.566406 16.488281 41.039062 C 16.484375 41.042969 16.488281 41.046875 16.484375 41.058594 C 16.480469 41.078125 16.476562 41.097656 16.472656 41.117188 C 16.464844 41.140625 16.460938 41.171875 16.457031 41.195312 C 16.453125 41.214844 16.449219 41.234375 16.441406 41.257812 C 16.433594 41.28125 16.429688 41.3125 16.425781 41.335938 C 16.421875 41.355469 16.414062 41.382812 16.410156 41.402344 C 16.40625 41.425781 16.402344 41.453125 16.394531 41.480469 C 16.390625 41.5 16.382812 41.523438 16.382812 41.546875 C 16.378906 41.570312 16.375 41.597656 16.371094 41.621094 C 16.367188 41.640625 16.363281 41.660156 16.355469 41.683594 C 16.351562 41.707031 16.347656 41.738281 16.339844 41.761719 C 16.335938 41.78125 16.328125 41.804688 16.328125 41.828125 C 16.324219 41.851562 16.320312 41.882812 16.3125 41.90625 C 16.308594 41.925781 16.308594 41.941406 16.304688 41.960938 C 16.300781 41.992188 16.292969 42.019531 16.289062 42.050781 C 16.285156 42.066406 16.28125 42.085938 16.277344 42.101562 C 16.273438 42.132812 16.269531 42.15625 16.265625 42.1875 C 16.265625 42.1875 16.265625 42.1875 16.261719 42.191406 C 16.257812 42.210938 16.257812 42.226562 16.253906 42.246094 C 16.25 42.277344 16.242188 42.300781 16.238281 42.332031 C 16.238281 42.347656 16.234375 42.367188 16.230469 42.382812 C 16.230469 42.382812 16.230469 42.382812 16.230469 42.386719 C 16.226562 42.417969 16.222656 42.445312 16.21875 42.476562 C 16.214844 42.492188 16.210938 42.511719 16.210938 42.527344 C 16.207031 42.558594 16.203125 42.585938 16.195312 42.613281 C 16.191406 42.632812 16.1875 42.652344 16.1875 42.675781 C 16.183594 42.707031 16.179688 42.730469 16.171875 42.761719 C 16.167969 42.78125 16.167969 42.796875 16.164062 42.816406 C 16.160156 42.84375 16.15625 42.875 16.152344 42.90625 C 16.148438 42.921875 16.144531 42.941406 16.144531 42.957031 C 16.140625 42.988281 16.136719 43.019531 16.132812 43.046875 C 16.128906 43.0625 16.128906 43.078125 16.125 43.097656 C 16.121094 43.128906 16.113281 43.164062 16.109375 43.195312 C 16.109375 43.207031 16.109375 43.21875 16.101562 43.230469 C 16.097656 43.265625 16.097656 43.296875 16.09375 43.332031 C 16.089844 43.347656 16.085938 43.363281 16.089844 43.375 C 16.085938 43.378906 16.085938 43.378906 16.089844 43.386719 C 16.085938 43.414062 16.082031 43.445312 16.078125 43.476562 C 16.074219 43.492188 16.074219 43.507812 16.070312 43.523438 C 16.066406 43.554688 16.066406 43.589844 16.0625 43.621094 C 16.0625 43.632812 16.058594 43.640625 16.058594 43.652344 C 16.058594 43.652344 16.054688 43.65625 16.058594 43.660156 C 16.054688 43.695312 16.050781 43.730469 16.046875 43.765625 C 16.046875 43.777344 16.042969 43.792969 16.042969 43.800781 C 16.039062 43.835938 16.039062 43.871094 16.03125 43.90625 C 16.03125 43.910156 16.03125 43.917969 16.03125 43.917969 C 16.03125 43.921875 16.03125 43.921875 16.03125 43.925781 C 16.027344 43.96875 16.023438 44.011719 16.019531 44.050781 C 16.019531 44.0625 16.019531 44.066406 16.019531 44.078125 C 16.015625 44.113281 16.015625 44.15625 16.011719 44.195312 C 16.011719 44.199219 16.015625 44.199219 16.011719 44.203125 C 16.007812 44.246094 16.003906 44.292969 16.003906 44.335938 C 16 44.386719 15.996094 44.4375 15.992188 44.480469 C 15.992188 44.492188 15.988281 44.496094 15.988281 44.507812 C 15.988281 44.550781 15.988281 44.59375 15.984375 44.632812 C 15.984375 44.644531 15.984375 44.65625 15.980469 44.664062 C 15.976562 44.707031 15.972656 44.746094 15.972656 44.789062 C 15.972656 44.796875 15.972656 44.808594 15.96875 44.816406 C 15.964844 44.859375 15.96875 44.902344 15.964844 44.945312 C 15.964844 44.957031 15.960938 44.960938 15.960938 44.96875 C 15.957031 45.011719 15.957031 45.054688 15.957031 45.105469 C 15.957031 45.109375 15.953125 45.117188 15.957031 45.125 C 15.957031 45.167969 15.953125 45.210938 15.953125 45.257812 C 15.953125 45.269531 15.949219 45.273438 15.949219 45.285156 C 15.949219 45.332031 15.945312 45.378906 15.945312 45.429688 C 15.945312 45.429688 15.945312 45.429688 15.945312 45.433594 C 15.941406 45.484375 15.941406 45.535156 15.9375 45.585938 C 15.941406 45.59375 15.9375 45.597656 15.9375 45.609375 C 15.9375 45.648438 15.941406 45.6875 15.9375 45.726562 C 15.9375 45.738281 15.933594 45.742188 15.933594 45.753906 C 15.933594 45.796875 15.9375 45.839844 15.933594 45.882812 C 15.933594 45.882812 15.929688 45.886719 15.929688 45.886719 C 15.929688 45.929688 15.929688 45.972656 15.929688 46.015625 C 15.929688 46.015625 15.929688 46.023438 15.933594 46.023438 C 15.9375 46.0625 15.933594 46.105469 15.933594 46.144531 C 15.933594 46.15625 15.933594 46.160156 15.933594 46.167969 C 15.933594 46.207031 15.933594 46.246094 15.933594 46.28125 C 15.933594 46.289062 15.929688 46.296875 15.933594 46.304688 C 15.929688 46.34375 15.933594 46.382812 15.933594 46.414062 C 15.933594 46.425781 15.933594 46.4375 15.933594 46.445312 C 15.933594 46.484375 15.9375 46.519531 15.9375 46.554688 C 15.9375 46.566406 15.9375 46.578125 15.9375 46.589844 C 15.933594 46.625 15.941406 46.660156 15.9375 46.695312 C 15.9375 46.707031 15.9375 46.71875 15.9375 46.730469 C 15.9375 46.765625 15.941406 46.800781 15.941406 46.839844 C 15.941406 46.847656 15.941406 46.859375 15.941406 46.871094 C 15.941406 46.902344 15.945312 46.941406 15.945312 46.976562 C 15.945312 46.988281 15.945312 47.003906 15.945312 47.015625 C 15.945312 47.046875 15.949219 47.082031 15.953125 47.113281 C 15.953125 47.125 15.953125 47.144531 15.953125 47.15625 C 15.957031 47.1875 15.957031 47.226562 15.957031 47.257812 C 15.957031 47.269531 15.957031 47.28125 15.957031 47.292969 C 15.964844 47.328125 15.960938 47.363281 15.964844 47.398438 C 15.964844 47.410156 15.964844 47.421875 15.96875 47.429688 C 15.96875 47.46875 15.96875 47.503906 15.972656 47.542969 C 15.972656 47.550781 15.972656 47.5625 15.976562 47.570312 C 15.976562 47.609375 15.976562 47.640625 15.980469 47.679688 C 15.980469 47.691406 15.980469 47.703125 15.980469 47.714844 C 15.980469 47.746094 15.988281 47.78125 15.988281 47.8125 C 15.988281 47.824219 15.988281 47.84375 15.988281 47.851562 C 15.996094 47.886719 15.996094 47.921875 15.996094 47.960938 C 15.996094 47.96875 15.996094 47.980469 15.996094 47.992188 C 16.003906 48.027344 16.003906 48.058594 16.007812 48.09375 C 16.007812 48.105469 16.011719 48.121094 16.011719 48.132812 C 16.011719 48.167969 16.015625 48.199219 16.019531 48.234375 C 16.019531 48.246094 16.023438 48.257812 16.023438 48.273438 C 16.027344 48.308594 16.027344 48.34375 16.03125 48.378906 C 16.03125 48.386719 16.039062 48.402344 16.035156 48.417969 C 16.039062 48.449219 16.046875 48.484375 16.042969 48.523438 C 16.042969 48.535156 16.046875 48.539062 16.046875 48.550781 C 16.046875 48.589844 16.054688 48.625 16.054688 48.664062 C 16.054688 48.675781 16.058594 48.683594 16.058594 48.691406 C 16.0625 48.726562 16.066406 48.765625 16.070312 48.800781 C 16.070312 48.8125 16.070312 48.824219 16.074219 48.835938 C 16.082031 48.871094 16.082031 48.910156 16.085938 48.945312 C 16.085938 48.957031 16.089844 48.964844 16.089844 48.972656 C 16.09375 49.007812 16.097656 49.046875 16.101562 49.082031 C 16.101562 49.09375 16.105469 49.097656 16.105469 49.109375 C 16.109375 49.144531 16.113281 49.183594 16.117188 49.21875 C 16.117188 49.230469 16.117188 49.242188 16.125 49.25 C 16.128906 49.285156 16.132812 49.324219 16.136719 49.359375 C 16.136719 49.363281 16.136719 49.375 16.140625 49.382812 C 16.144531 49.421875 16.152344 49.457031 16.15625 49.496094 C 16.15625 49.503906 16.15625 49.515625 16.160156 49.519531 C 16.167969 49.5625 16.171875 49.597656 16.179688 49.636719 C 16.179688 49.644531 16.179688 49.648438 16.183594 49.652344 C 16.191406 49.691406 16.191406 49.730469 16.199219 49.773438 C 16.203125 49.777344 16.203125 49.789062 16.203125 49.796875 C 16.210938 49.835938 16.214844 49.871094 16.222656 49.914062 C 16.226562 49.917969 16.222656 49.925781 16.226562 49.929688 C 16.234375 49.972656 16.238281 50.011719 16.246094 50.054688 C 16.246094 50.054688 16.246094 50.058594 16.25 50.0625 C 16.253906 50.101562 16.265625 50.148438 16.273438 50.191406 C 16.289062 50.285156 16.308594 50.386719 16.320312 50.480469 C 16.332031 50.527344 16.339844 50.574219 16.347656 50.621094 C 16.359375 50.671875 16.367188 50.71875 16.375 50.765625 C 16.386719 50.8125 16.394531 50.863281 16.40625 50.910156 C 16.414062 50.957031 16.421875 51.003906 16.433594 51.050781 C 16.441406 51.101562 16.449219 51.148438 16.460938 51.191406 C 16.472656 51.238281 16.484375 51.28125 16.492188 51.328125 C 16.492188 51.328125 16.492188 51.328125 16.488281 51.335938 C 16.488281 51.335938 16.488281 51.335938 16.488281 51.339844 C 16.5 51.382812 16.507812 51.429688 16.519531 51.472656 C 16.519531 51.472656 16.523438 51.480469 16.523438 51.480469 C 16.53125 51.523438 16.542969 51.570312 16.554688 51.613281 C 16.554688 51.621094 16.554688 51.621094 16.558594 51.625 C 16.570312 51.671875 16.578125 51.71875 16.589844 51.761719 C 16.597656 51.808594 16.609375 51.851562 16.625 51.902344 C 16.632812 51.949219 16.648438 51.996094 16.660156 52.042969 C 16.691406 52.183594 16.730469 52.328125 16.769531 52.46875 C 16.78125 52.511719 16.792969 52.554688 16.804688 52.597656 C 16.804688 52.597656 16.804688 52.597656 16.804688 52.605469 C 16.816406 52.648438 16.832031 52.6875 16.84375 52.730469 C 16.84375 52.730469 16.84375 52.738281 16.84375 52.738281 C 16.855469 52.78125 16.867188 52.824219 16.878906 52.863281 C 16.878906 52.863281 16.878906 52.863281 16.882812 52.871094 C 16.894531 52.914062 16.90625 52.953125 16.917969 52.996094 C 16.917969 52.996094 16.917969 53 16.921875 53 C 16.933594 53.046875 16.949219 53.089844 16.960938 53.132812 C 16.972656 53.175781 16.984375 53.214844 16.996094 53.257812 C 17 53.265625 17 53.265625 17 53.273438 C 17.011719 53.316406 17.03125 53.355469 17.039062 53.398438 C 17.054688 53.4375 17.066406 53.480469 17.078125 53.519531 C 17.082031 53.527344 17.082031 53.527344 17.082031 53.535156 C 17.097656 53.574219 17.109375 53.617188 17.121094 53.65625 C 17.121094 53.65625 17.125 53.660156 17.125 53.660156 C 17.136719 53.699219 17.148438 53.742188 17.167969 53.785156 C 17.167969 53.785156 17.167969 53.785156 17.167969 53.792969 C 17.183594 53.832031 17.195312 53.875 17.207031 53.914062 C 17.210938 53.917969 17.210938 53.917969 17.210938 53.925781 C 17.226562 53.964844 17.238281 54.003906 17.253906 54.042969 C 17.253906 54.046875 17.257812 54.054688 17.257812 54.0625 C 17.273438 54.101562 17.285156 54.140625 17.300781 54.179688 C 17.300781 54.183594 17.300781 54.183594 17.304688 54.191406 C 17.316406 54.230469 17.332031 54.269531 17.34375 54.308594 C 17.347656 54.3125 17.347656 54.320312 17.347656 54.320312 C 17.363281 54.359375 17.375 54.398438 17.394531 54.441406 C 17.394531 54.441406 17.394531 54.441406 17.394531 54.445312 C 17.394531 54.445312 17.394531 54.445312 17.398438 54.453125 C 17.410156 54.492188 17.425781 54.53125 17.441406 54.570312 C 17.445312 54.578125 17.445312 54.585938 17.445312 54.585938 C 17.460938 54.625 17.472656 54.664062 17.488281 54.695312 C 17.492188 54.703125 17.492188 54.703125 17.492188 54.710938 C 17.507812 54.75 17.523438 54.789062 17.539062 54.828125 C 17.539062 54.828125 17.539062 54.835938 17.539062 54.835938 C 17.558594 54.875 17.570312 54.914062 17.589844 54.957031 C 17.609375 54.996094 17.621094 55.035156 17.640625 55.078125 C 17.640625 55.082031 17.640625 55.082031 17.644531 55.089844 C 17.65625 55.128906 17.675781 55.167969 17.6875 55.207031 C 17.691406 55.210938 17.691406 55.214844 17.695312 55.21875 C 17.707031 55.253906 17.726562 55.296875 17.742188 55.335938 C 18.949219 58.328125 20.71875 61.035156 23.003906 63.316406 C 23.230469 63.542969 23.464844 63.769531 23.703125 63.984375 C 23.929688 64.058594 24.214844 64.148438 24.585938 64.183594 C 25.144531 64.242188 25.902344 64.199219 26.535156 64.117188 C 26.8125 64.082031 27.0625 64.039062 27.277344 63.996094 C 27.605469 63.917969 27.949219 63.828125 28.316406 63.726562 C 28.867188 63.589844 29.457031 63.417969 30.074219 63.21875 C 32.214844 62.519531 34.6875 61.417969 36.972656 60.117188 C 39.261719 58.816406 41.363281 57.3125 43.550781 55.496094 C 45.734375 53.683594 48.003906 51.550781 49.957031 49.476562 C 51.90625 47.398438 53.542969 45.378906 54.816406 43.675781 C 56.011719 42.074219 56.894531 40.753906 57.402344 39.964844 C 57.425781 39.933594 57.476562 39.855469 57.484375 39.839844 C 57.484375 39.832031 57.484375 39.832031 57.484375 39.832031 C 57.488281 39.828125 57.488281 39.824219 57.492188 39.820312 C 57.597656 39.65625 57.6875 39.511719 57.75 39.402344 C 57.8125 39.328125 57.867188 39.257812 57.910156 39.199219 Z M 57.910156 39.199219 " fill-opacity="0.8824" fill-rule="nonzero"/></g></g></g><g clip-path="url(#64e51ddec6)"><g clip-path="url(#376e3c6513)"><g clip-path="url(#f2dd11e567)"><path fill="#ff0202" d="M 61.785156 56.367188 C 61.964844 55.992188 62.132812 55.613281 62.296875 55.230469 C 63.925781 51.351562 64.492188 47.300781 64.132812 43.40625 C 63.820312 43.039062 63.515625 42.707031 63.21875 42.390625 C 62.5 41.628906 61.808594 40.996094 60.90625 40.308594 C 60 39.621094 58.875 38.878906 58.34375 38.683594 C 57.808594 38.488281 57.863281 38.84375 58.203125 40.273438 C 58.550781 41.707031 59.515625 44.121094 59.773438 46.894531 C 60.027344 49.671875 60.039062 53.097656 59.507812 55.839844 C 59.144531 57.742188 58.546875 59.515625 57.609375 61.285156 C 57.191406 62.070312 56.359375 63.5 55.734375 64.308594 C 55.613281 64.539062 55.859375 64.078125 55.734375 64.308594 C 58.203125 62.160156 60.285156 59.488281 61.785156 56.367188 Z M 61.785156 56.367188 " fill-opacity="1" fill-rule="nonzero"/></g></g></g><g clip-path="url(#d377cb47b3)"><g clip-path="url(#7e04666cc8)"><g clip-path="url(#a97067e927)"><path fill="#ff0202" d="M 58.128906 38.765625 C 58.152344 38.71875 58.179688 38.660156 58.203125 38.597656 C 58.351562 38.25 58.578125 37.691406 58.828125 37.019531 C 59.078125 36.351562 59.355469 35.570312 59.648438 34.496094 C 59.839844 33.792969 60.035156 32.96875 60.195312 32.195312 C 57.679688 28.402344 54.070312 25.292969 49.574219 23.410156 C 47.820312 22.671875 46.019531 22.160156 44.214844 21.863281 C 44.824219 22.183594 45.542969 22.539062 46.1875 22.882812 C 47.386719 23.527344 48.304688 24.128906 49.355469 25.023438 C 50.40625 25.921875 51.585938 27.113281 52.679688 28.601562 C 53.769531 30.09375 54.769531 31.875 55.578125 33.484375 C 56.390625 35.09375 57.003906 36.539062 57.363281 37.464844 C 57.722656 38.386719 57.816406 38.796875 57.898438 38.933594 C 57.96875 39.046875 58.027344 38.976562 58.128906 38.765625 Z M 58.128906 38.765625 " fill-opacity="1" fill-rule="nonzero"/></g></g></g><g clip-path="url(#8bd6bd3370)"><g clip-path="url(#c43bd029ba)"><g clip-path="url(#a1a35b3004)"><path fill="#ffffff" d="M 59.652344 42.664062 C 61.09375 41.960938 61.371094 39.410156 60.269531 36.964844 C 59.164062 34.523438 57.101562 33.117188 55.660156 33.820312 C 54.21875 34.523438 53.941406 37.074219 55.042969 39.519531 C 56.148438 41.960938 58.210938 43.367188 59.652344 42.664062 Z M 59.652344 42.664062 " fill-opacity="1" fill-rule="nonzero"/></g></g></g><g clip-path="url(#43d9817f6f)"><path fill="#242132" d="M 84.292969 42.304688 C 84.292969 42.304688 84.171875 42.128906 83.949219 41.839844 C 83.957031 42.589844 83.792969 44.199219 82.335938 45.074219 C 80.929688 45.914062 79.433594 46.300781 78.707031 46.453125 C 76.636719 46.917969 74.179688 46.152344 73.53125 43.578125 C 72.992188 41.441406 73.519531 38.746094 73.773438 37.671875 C 72.367188 38.667969 71.511719 40.019531 71.511719 40.019531 C 70.355469 38.953125 72.472656 35.453125 76.171875 34.628906 C 79.875 33.800781 83.574219 38.5625 84.292969 40.214844 C 85.015625 41.867188 84.292969 42.304688 84.292969 42.304688 Z M 72.671875 35.429688 C 72.742188 35.414062 72.789062 35.34375 72.773438 35.269531 C 72.757812 35.195312 72.683594 35.148438 72.613281 35.164062 C 70.671875 35.605469 70.1875 38.28125 70.164062 38.394531 C 70.152344 38.46875 70.203125 38.539062 70.273438 38.550781 C 70.285156 38.554688 70.289062 38.554688 70.300781 38.554688 C 70.363281 38.554688 70.421875 38.507812 70.429688 38.441406 C 70.433594 38.414062 70.90625 35.832031 72.671875 35.429688 Z M 54.925781 35.011719 C 51.226562 34.183594 47.527344 38.945312 46.804688 40.597656 C 46.085938 42.25 46.804688 42.6875 46.804688 42.6875 C 46.804688 42.6875 46.929688 42.511719 47.152344 42.222656 C 47.140625 42.972656 47.304688 44.582031 48.761719 45.457031 C 50.167969 46.296875 51.664062 46.683594 52.390625 46.832031 C 54.460938 47.300781 56.917969 46.535156 57.566406 43.960938 C 58.109375 41.824219 57.578125 39.128906 57.324219 38.054688 C 58.730469 39.050781 59.589844 40.402344 59.589844 40.402344 C 60.742188 39.335938 58.628906 35.835938 54.925781 35.011719 Z M 58.488281 35.546875 C 58.417969 35.53125 58.34375 35.578125 58.328125 35.652344 C 58.3125 35.722656 58.355469 35.796875 58.429688 35.8125 C 60.195312 36.214844 60.664062 38.796875 60.667969 38.824219 C 60.679688 38.890625 60.738281 38.9375 60.800781 38.9375 C 60.808594 38.9375 60.816406 38.9375 60.824219 38.933594 C 60.898438 38.921875 60.949219 38.851562 60.9375 38.777344 C 60.914062 38.664062 60.429688 35.988281 58.488281 35.546875 Z M 58.488281 35.546875 " fill-opacity="1" fill-rule="nonzero"/></g><g clip-path="url(#af43f79f42)"><path fill="#7ed957" d="M 80.878906 40.527344 C 80.851562 42.796875 79.992188 45.128906 78.847656 45.515625 C 77.042969 46.125 74.742188 45.480469 74.160156 42.957031 C 74.050781 42.472656 73.992188 41.960938 73.972656 41.445312 L 76.039062 41.171875 C 76.121094 42.265625 76.585938 43.105469 77.144531 43.105469 C 77.757812 43.105469 78.253906 42.109375 78.261719 40.875 Z M 53.953125 43.488281 C 53.34375 43.488281 52.847656 42.492188 52.835938 41.257812 L 50.222656 40.910156 C 50.25 43.179688 51.109375 45.511719 52.253906 45.898438 C 54.058594 46.507812 56.359375 45.863281 56.941406 43.339844 C 57.050781 42.855469 57.109375 42.34375 57.128906 41.828125 L 55.058594 41.554688 C 54.980469 42.648438 54.515625 43.488281 53.953125 43.488281 Z M 53.953125 43.488281 " fill-opacity="1" fill-rule="nonzero"/></g><g clip-path="url(#8dbbec7c02)"><path fill="#f1ffe0" d="M 51.269531 46.273438 C 50.285156 45.777344 49.148438 45.003906 48.835938 43.960938 C 48.433594 42.617188 48.488281 41.257812 48.554688 40.554688 C 48.933594 40.140625 49.359375 39.710938 49.816406 39.296875 C 49.1875 41.742188 49.949219 45.019531 51.269531 46.273438 Z M 81.28125 38.914062 C 81.914062 41.359375 81.148438 44.640625 79.832031 45.890625 C 80.816406 45.398438 81.953125 44.621094 82.265625 43.578125 C 82.667969 42.234375 82.613281 40.875 82.542969 40.171875 C 82.164062 39.761719 81.738281 39.328125 81.28125 38.914062 Z M 77.144531 43.105469 C 77.757812 43.105469 78.253906 42.109375 78.261719 40.875 C 78.261719 40.859375 78.261719 40.847656 78.261719 40.835938 C 78.261719 39.582031 77.761719 38.5625 77.144531 38.5625 C 76.527344 38.5625 76.027344 39.578125 76.027344 40.835938 C 76.027344 40.949219 76.03125 41.058594 76.039062 41.167969 C 76.121094 42.265625 76.585938 43.105469 77.144531 43.105469 Z M 53.953125 43.488281 C 54.515625 43.488281 54.980469 42.648438 55.058594 41.554688 C 55.066406 41.445312 55.070312 41.332031 55.070312 41.21875 C 55.070312 39.964844 54.570312 38.945312 53.953125 38.945312 C 53.335938 38.945312 52.835938 39.964844 52.835938 41.21875 C 52.835938 41.230469 52.835938 41.246094 52.835938 41.257812 C 52.847656 42.492188 53.34375 43.488281 53.953125 43.488281 Z M 53.953125 43.488281 " fill-opacity="1" fill-rule="nonzero"/></g><g clip-path="url(#307a12789b)"><g clip-path="url(#317a01cc9e)"><g clip-path="url(#bee498835a)"><g clip-path="url(#e2b30276e4)"><g clip-path="url(#55e974a2ef)"><g clip-path="url(#4e8b8d100e)"><path fill="#fbc617" d="M 55.964844 24.59375 C 58.089844 25.222656 67.539062 25.761719 68.929688 26.578125 C 69.167969 26.960938 69.375 27.679688 69.273438 27.914062 C 68.855469 28.875 55.117188 36.582031 50.507812 38.429688 C 47.261719 39.726562 36.953125 39.683594 26.992188 41.625 C 21.746094 42.648438 16.527344 44.59375 14.875 44.054688 C 14.191406 43.828125 13.910156 43.011719 13.539062 41.597656 C 16.664062 34.875 55.957031 24.910156 55.964844 24.59375 " fill-opacity="1" fill-rule="evenodd"/></g></g></g></g></g></g><g clip-path="url(#9fef3a029e)"><g clip-path="url(#d8453bfbcc)"><g clip-path="url(#88aa6b4d07)"><g clip-path="url(#cd2984ee60)"><path fill="#f9dd47" d="M 55.609375 23.417969 C 58.203125 24.183594 69.476562 25.445312 68.917969 26.738281 C 68.5 27.703125 54.761719 35.40625 50.152344 37.253906 C 46.90625 38.550781 36.597656 38.507812 26.636719 40.449219 C 21.390625 41.472656 16.171875 43.417969 14.519531 42.878906 C 13.835938 42.652344 13.234375 41.550781 13.644531 40.664062 C 16.769531 33.941406 55.601562 23.734375 55.609375 23.417969 " fill-opacity="1" fill-rule="evenodd"/></g></g></g></g><g clip-path="url(#717db9a38b)"><g clip-path="url(#482fbbaab7)"><g clip-path="url(#f4fe07875f)"><g clip-path="url(#8db203f452)"><path fill="#fbc617" d="M 14.421875 40.492188 C 13.769531 31.628906 13.824219 17.742188 23.289062 11.621094 C 32.898438 5.410156 48.527344 1.984375 58.496094 22.371094 C 58.804688 23 60.574219 25.511719 58.085938 26.851562 C 46.324219 33.183594 30.308594 38.429688 17.242188 41.355469 C 16.019531 41.628906 14.78125 41.339844 14.421875 40.492188 " fill-opacity="1" fill-rule="evenodd"/></g></g></g></g><g clip-path="url(#0836d52810)"><g clip-path="url(#f8b1d1e36b)"><g clip-path="url(#0401c8f4dc)"><g clip-path="url(#947bee6357)"><path fill="#e58e16" d="M 45.132812 32.792969 C 42.363281 26.421875 36.324219 10.25 25.503906 10.3125 L 25.359375 10.390625 C 33.128906 12.808594 39.03125 26.734375 41.808594 34.070312 L 45.132812 32.792969 " fill-opacity="1" fill-rule="evenodd"/></g></g></g></g><g clip-path="url(#82e95325cc)"><g clip-path="url(#5bea1e561c)"><g clip-path="url(#8e9318f39b)"><g clip-path="url(#9ce6e01376)"><path fill="#28292a" d="M 49.800781 26.738281 L 45.0625 28.4375 C 44.492188 28.640625 43.863281 28.339844 43.65625 27.769531 L 39.851562 17.152344 C 39.648438 16.582031 39.945312 15.945312 40.515625 15.742188 L 45.253906 14.042969 C 45.820312 13.839844 46.453125 14.140625 46.660156 14.710938 L 50.460938 25.332031 C 50.667969 25.902344 50.367188 26.535156 49.800781 26.738281 " fill-opacity="1" fill-rule="evenodd"/></g></g></g></g><g clip-path="url(#5cc582fafc)"><g clip-path="url(#eb830a6ae0)"><g clip-path="url(#3b92ccefd1)"><g clip-path="url(#efbb56fc79)"><path fill="#28292a" d="M 47.722656 26.359375 C 48.417969 26.160156 48.824219 25.433594 48.625 24.738281 C 48.429688 24.039062 47.703125 23.628906 47.007812 23.828125 C 34.785156 27.289062 20.414062 24.808594 13.574219 37.257812 C 13.09375 38.128906 13.21875 38.070312 13.574219 39.910156 C 13.6875 40.480469 14.265625 41.101562 14.640625 40.695312 C 14.730469 40.605469 15.15625 39.832031 15.214844 39.710938 C 21.152344 27.167969 35.949219 29.691406 47.722656 26.359375 " fill-opacity="1" fill-rule="evenodd"/></g></g></g></g><g clip-path="url(#d17d9211cd)"><g clip-path="url(#dc9f26a8c5)"><g clip-path="url(#1b0c067e28)"><g clip-path="url(#e04f15ddb6)"><path fill="#151516" d="M 47.949219 12.425781 C 44.851562 13.535156 43.578125 17.882812 45.097656 22.128906 C 46.621094 26.378906 50.363281 28.925781 53.460938 27.8125 L 57.773438 26.265625 L 56.78125 23.488281 C 57.109375 21.867188 56.980469 19.976562 56.3125 18.109375 C 55.640625 16.242188 54.542969 14.699219 53.257812 13.65625 L 52.261719 10.878906 L 47.949219 12.425781 " fill-opacity="1" fill-rule="evenodd"/></g></g></g></g><g clip-path="url(#75592ce70b)"><g clip-path="url(#c78ea74032)"><g clip-path="url(#de4dab401a)"><g clip-path="url(#8b623491cf)"><path fill="#28292a" d="M 52.261719 10.878906 C 49.164062 11.988281 47.890625 16.335938 49.410156 20.582031 C 50.933594 24.832031 54.679688 27.378906 57.773438 26.265625 C 60.871094 25.15625 62.148438 20.8125 60.625 16.5625 C 59.101562 12.3125 55.359375 9.769531 52.261719 10.878906 " fill-opacity="1" fill-rule="evenodd"/></g></g></g></g><g clip-path="url(#3a81ae0c3f)"><g clip-path="url(#28c4b50762)"><g clip-path="url(#5a0026e91a)"><g clip-path="url(#e5ff72a22d)"><path fill="#ffffff" d="M 52.898438 12.65625 C 50.515625 13.507812 49.535156 16.851562 50.707031 20.121094 C 51.875 23.386719 54.757812 25.34375 57.136719 24.492188 C 59.519531 23.636719 60.503906 20.292969 59.332031 17.027344 C 58.160156 13.757812 55.28125 11.800781 52.898438 12.65625 " fill-opacity="1" fill-rule="evenodd"/></g></g></g></g><g clip-path="url(#f04001627f)"><g clip-path="url(#859cacbe5e)"><g clip-path="url(#eb6189afab)"><g clip-path="url(#b1027f22ab)"><path fill="#c19b7a" d="M 39.210938 61.414062 L 17.1875 34.601562 L 16.285156 35.351562 L 14.539062 33.382812 C 12.898438 34.984375 11.019531 37.09375 9.226562 39.765625 C 6.925781 43.203125 5.507812 46.464844 4.621094 49.015625 C 4.347656 46.894531 4 41.90625 6.59375 36.558594 C 8.105469 33.441406 10.085938 31.304688 11.53125 30 L 10.519531 28.863281 C 11.066406 27.527344 11.921875 26.710938 12.359375 26.347656 C 13.46875 25.425781 14.597656 25.109375 15.15625 24.996094 L 16.074219 26.207031 C 17.617188 25.023438 20.070312 23.460938 23.390625 22.542969 C 29.089844 20.976562 33.886719 22.25 35.902344 22.917969 C 33.25 23.316406 29.808594 24.113281 26.027344 25.75 C 23.085938 27.027344 20.679688 28.496094 18.8125 29.816406 L 20.402344 31.914062 L 19.503906 32.667969 L 41.53125 59.480469 C 42.058594 60.125 41.96875 61.082031 41.328125 61.617188 C 41.011719 61.882812 40.613281 61.992188 40.226562 61.957031 C 39.84375 61.921875 39.476562 61.738281 39.210938 61.414062 Z M 39.210938 61.414062 " fill-opacity="1" fill-rule="nonzero"/></g></g></g></g><g clip-path="url(#51a0e0d194)"><g clip-path="url(#c6f9900853)"><g clip-path="url(#2cfcb4a269)"><g clip-path="url(#b6e3db234a)"><path fill="#d2d2d1" d="M 16.074219 26.207031 L 18.8125 29.816406 C 20.679688 28.496094 23.085938 27.027344 26.027344 25.75 C 29.808594 24.113281 33.25 23.316406 35.902344 22.917969 C 33.886719 22.25 29.089844 20.976562 23.390625 22.542969 C 20.070312 23.460938 17.617188 25.023438 16.074219 26.207031 Z M 16.074219 26.207031 " fill-opacity="1" fill-rule="nonzero"/></g></g></g></g><g clip-path="url(#7f42412535)"><g clip-path="url(#680a21a794)"><g clip-path="url(#ac908a9cb0)"><g clip-path="url(#28a76e8837)"><path fill="#d2d2d1" d="M 4.621094 49.015625 C 5.507812 46.464844 6.925781 43.203125 9.226562 39.765625 C 11.019531 37.09375 12.898438 34.984375 14.539062 33.382812 L 11.53125 30 C 10.085938 31.304688 8.105469 33.441406 6.59375 36.558594 C 4 41.90625 4.347656 46.894531 4.621094 49.015625 Z M 4.621094 49.015625 " fill-opacity="1" fill-rule="nonzero"/></g></g></g></g><g clip-path="url(#5df44056b1)"><g clip-path="url(#426f5a447a)"><g clip-path="url(#5d00807acd)"><g clip-path="url(#f20700872f)"><path fill="#604533" d="M 14.539062 33.382812 L 16.285156 35.351562 L 17.1875 34.601562 L 18.34375 33.632812 L 19.503906 32.667969 L 20.402344 31.914062 L 18.8125 29.816406 L 16.074219 26.207031 L 15.15625 24.996094 C 14.597656 25.109375 13.46875 25.425781 12.359375 26.347656 C 11.921875 26.710938 11.066406 27.527344 10.519531 28.863281 L 11.53125 30 Z M 14.539062 33.382812 " fill-opacity="1" fill-rule="nonzero"/></g></g></g></g><g clip-path="url(#e64cb52c9e)"><g clip-path="url(#571d17467c)"><g clip-path="url(#80dfc9b019)"><g clip-path="url(#d3b1345729)"><path fill="#000000" d="M 78.421875 40.90625 C 77.691406 43.601562 76.023438 46.09375 74.195312 48.183594 C 72.3125 50.328125 70.109375 52.144531 67.667969 53.621094 C 62.714844 56.617188 56.84375 57.855469 51.136719 57.121094 C 49.554688 56.914062 47.988281 56.578125 46.472656 56.09375 C 45.714844 55.855469 44.960938 55.566406 44.21875 55.261719 C 43.445312 54.933594 42.648438 54.617188 42.035156 54.03125 C 41.59375 53.613281 42.175781 53.046875 42.636719 53.148438 C 43.28125 53.285156 43.863281 53.648438 44.472656 53.910156 C 45.148438 54.203125 45.828125 54.46875 46.53125 54.703125 C 47.808594 55.132812 49.105469 55.464844 50.433594 55.667969 C 53.183594 56.109375 55.996094 56.105469 58.746094 55.632812 C 64.085938 54.714844 68.953125 51.910156 72.789062 48.09375 C 74.964844 45.921875 76.589844 43.402344 78.09375 40.726562 C 78.191406 40.535156 78.484375 40.703125 78.421875 40.90625 Z M 78.421875 40.90625 " fill-opacity="1" fill-rule="nonzero"/></g></g></g></g><g clip-path="url(#5ed86e6793)"><g clip-path="url(#490242a229)"><g clip-path="url(#835fd8b126)"><g clip-path="url(#8d2342b8ec)"><path fill="#000000" d="M 43.066406 52.160156 C 43.046875 52.210938 43.058594 52.460938 43.019531 52.585938 C 42.929688 52.847656 42.820312 53.074219 42.753906 53.351562 C 42.621094 53.898438 42.613281 54.425781 42.738281 54.96875 C 42.953125 55.875 41.519531 56.164062 41.3125 55.246094 C 41.039062 54.027344 41.390625 52.847656 42.285156 51.980469 C 42.398438 51.875 42.609375 51.835938 42.753906 51.886719 C 42.742188 51.882812 42.738281 51.863281 42.738281 51.863281 C 42.925781 51.792969 43.144531 51.957031 43.066406 52.160156 Z M 43.066406 52.160156 " fill-opacity="1" fill-rule="nonzero"/></g></g></g></g></svg>