<svg xmlns="http://www.w3.org/2000/svg" xmlns:xlink="http://www.w3.org/1999/xlink" width="100" zoomAndPan="magnify" viewBox="0 0 75 74.999997" height="100" preserveAspectRatio="xMidYMid meet" version="1.0"><defs><clipPath id="f611fbbd21"><path d="M 24 41 L 51 41 L 51 71.566406 L 24 71.566406 Z M 24 41 " clip-rule="nonzero"/></clipPath><clipPath id="49577600df"><path d="M 18.359375 6 L 56.609375 6 L 56.609375 44 L 18.359375 44 Z M 18.359375 6 " clip-rule="nonzero"/></clipPath><clipPath id="c3d5052abc"><path d="M 30 3.316406 L 45 3.316406 L 45 8 L 30 8 Z M 30 3.316406 " clip-rule="nonzero"/></clipPath><clipPath id="7880efe4ce"><path d="M 24 46 L 51 46 L 51 71.566406 L 24 71.566406 Z M 24 46 " clip-rule="nonzero"/></clipPath></defs><g clip-path="url(#f611fbbd21)"><path fill="#c84242" d="M 50.621094 65.71875 L 50.621094 71.546875 L 24.347656 71.546875 L 24.347656 65.71875 L 26.246094 65.71875 L 29.925781 46.722656 C 28.394531 46.722656 27.15625 45.488281 27.15625 43.957031 C 27.15625 43.417969 27.308594 42.917969 27.578125 42.492188 C 27.847656 42.066406 28.226562 41.71875 28.675781 41.492188 L 46.292969 41.492188 C 47.195312 41.945312 47.8125 42.878906 47.8125 43.957031 C 47.8125 44.722656 47.503906 45.414062 47.003906 45.914062 C 46.5 46.414062 45.808594 46.722656 45.046875 46.722656 L 48.722656 65.71875 Z M 50.621094 65.71875 " fill-opacity="1" fill-rule="nonzero"/></g><g clip-path="url(#49577600df)"><path fill="#e7f2f1" d="M 44.175781 6.613281 L 30.796875 6.613281 C 23.53125 9.324219 18.359375 16.320312 18.359375 24.523438 C 18.359375 31.90625 22.546875 38.308594 28.675781 41.492188 C 31.3125 42.859375 34.308594 43.632812 37.484375 43.632812 C 40.660156 43.632812 43.65625 42.859375 46.292969 41.492188 C 52.421875 38.308594 56.609375 31.90625 56.609375 24.523438 C 56.609375 16.320312 51.4375 9.324219 44.175781 6.613281 Z M 44.175781 6.613281 " fill-opacity="1" fill-rule="nonzero"/></g><path fill="#d6eae8" d="M 39.140625 59.441406 L 40.910156 59.441406 C 40.910156 61.75 39.378906 63.621094 37.484375 63.621094 C 35.59375 63.621094 34.058594 61.75 34.058594 59.441406 Z M 39.140625 59.441406 " fill-opacity="1" fill-rule="nonzero"/><path fill="#ae2c36" d="M 41.636719 53.363281 L 44.027344 53.363281 L 44.027344 57.109375 L 41.636719 57.109375 Z M 41.636719 53.363281 " fill-opacity="1" fill-rule="nonzero"/><path fill="#ae2c36" d="M 35.828125 52.835938 L 39.140625 52.835938 L 39.140625 59.441406 L 35.828125 59.441406 Z M 35.828125 52.835938 " fill-opacity="1" fill-rule="nonzero"/><path fill="#ae2c36" d="M 33.792969 55.234375 C 33.792969 55.457031 33.75 55.667969 33.667969 55.867188 C 33.582031 56.070312 33.464844 56.25 33.308594 56.40625 C 33.152344 56.5625 32.972656 56.679688 32.769531 56.765625 C 32.566406 56.847656 32.355469 56.890625 32.136719 56.890625 C 31.917969 56.890625 31.707031 56.847656 31.503906 56.765625 C 31.300781 56.679688 31.121094 56.5625 30.964844 56.40625 C 30.8125 56.25 30.691406 56.070312 30.609375 55.867188 C 30.523438 55.667969 30.480469 55.457031 30.480469 55.234375 C 30.480469 55.015625 30.523438 54.804688 30.609375 54.601562 C 30.691406 54.398438 30.8125 54.222656 30.964844 54.066406 C 31.121094 53.910156 31.300781 53.792969 31.503906 53.707031 C 31.707031 53.625 31.917969 53.582031 32.136719 53.582031 C 32.355469 53.582031 32.566406 53.625 32.769531 53.707031 C 32.972656 53.792969 33.152344 53.910156 33.308594 54.066406 C 33.464844 54.222656 33.582031 54.398438 33.667969 54.601562 C 33.75 54.804688 33.792969 55.015625 33.792969 55.234375 Z M 33.792969 55.234375 " fill-opacity="1" fill-rule="nonzero"/><path fill="#e15c63" d="M 30.796875 5.414062 L 30.796875 7.488281 C 30.796875 8.632812 33.789062 9.558594 37.484375 9.558594 C 41.179688 9.558594 44.175781 8.632812 44.175781 7.488281 L 44.175781 5.414062 Z M 30.796875 5.414062 " fill-opacity="1" fill-rule="nonzero"/><g clip-path="url(#c3d5052abc)"><path fill="#c84242" d="M 37.484375 3.339844 C 41.179688 3.339844 44.175781 4.269531 44.175781 5.414062 C 44.175781 6.558594 41.179688 7.488281 37.484375 7.488281 C 33.789062 7.488281 30.796875 6.558594 30.796875 5.414062 C 30.796875 4.269531 33.789062 3.339844 37.484375 3.339844 Z M 37.484375 3.339844 " fill-opacity="1" fill-rule="nonzero"/></g><path fill="#f48ca7" d="M 43.445312 29.085938 C 43.445312 29.285156 43.425781 29.480469 43.382812 29.667969 C 42.25 29.722656 41.304688 30.496094 40.992188 31.539062 C 40.578125 31.273438 40.085938 31.113281 39.558594 31.113281 C 39.429688 31.113281 39.300781 31.125 39.175781 31.140625 C 38.570312 30.660156 38.183594 29.917969 38.183594 29.085938 C 38.183594 28.859375 38.210938 28.636719 38.265625 28.429688 C 38.558594 27.292969 39.585938 26.453125 40.816406 26.453125 C 41.046875 26.453125 41.273438 26.484375 41.488281 26.542969 C 42.617188 26.839844 43.445312 27.867188 43.445312 29.085938 Z M 43.445312 29.085938 " fill-opacity="1" fill-rule="nonzero"/><path fill="#53b79a" d="M 51.496094 27.324219 C 51.496094 27.84375 51.34375 28.324219 51.085938 28.734375 C 50.746094 28.574219 50.371094 28.484375 49.972656 28.484375 C 49.453125 28.484375 48.972656 28.632812 48.566406 28.890625 C 48.136719 28.210938 47.40625 27.738281 46.558594 27.667969 C 46.5625 27.621094 46.5625 27.574219 46.5625 27.527344 C 46.5625 27.167969 46.492188 26.824219 46.359375 26.511719 C 46.703125 25.457031 47.695312 24.691406 48.863281 24.691406 C 50.316406 24.691406 51.496094 25.871094 51.496094 27.324219 Z M 51.496094 27.324219 " fill-opacity="1" fill-rule="nonzero"/><path fill="#53b79a" d="M 29.035156 22.828125 C 30.242188 22.828125 31.257812 23.636719 31.570312 24.742188 C 30.359375 24.980469 29.445312 26.046875 29.445312 27.324219 C 29.445312 27.402344 29.449219 27.476562 29.457031 27.554688 C 29.015625 27.226562 28.472656 27.035156 27.882812 27.035156 C 27.589844 27.035156 27.304688 27.082031 27.039062 27.171875 C 26.644531 26.710938 26.402344 26.113281 26.402344 25.457031 C 26.402344 25.101562 26.472656 24.761719 26.601562 24.453125 C 26.996094 23.5 27.9375 22.828125 29.035156 22.828125 Z M 29.035156 22.828125 " fill-opacity="1" fill-rule="nonzero"/><path fill="#53b79a" d="M 27.015625 32.148438 C 26.460938 32.523438 26.0625 33.105469 25.921875 33.78125 C 25.632812 33.890625 25.324219 33.949219 24.996094 33.949219 C 23.542969 33.949219 22.363281 32.773438 22.363281 31.320312 C 22.363281 30.273438 22.976562 29.371094 23.859375 28.945312 C 24.207031 28.78125 24.589844 28.691406 24.996094 28.691406 C 25.140625 28.691406 25.285156 28.703125 25.425781 28.726562 C 25.3125 29.015625 25.253906 29.332031 25.253906 29.664062 C 25.253906 30.8125 25.988281 31.789062 27.015625 32.148438 Z M 27.015625 32.148438 " fill-opacity="1" fill-rule="nonzero"/><path fill="#53b79a" d="M 40.878906 32.292969 C 40.878906 33.1875 41.328125 33.976562 42.007812 34.449219 C 40.851562 34.597656 39.933594 35.492188 39.746094 36.628906 C 39.289062 35.859375 38.445312 35.34375 37.484375 35.34375 C 37.480469 35.34375 37.472656 35.34375 37.464844 35.34375 C 37.125 34.902344 36.925781 34.347656 36.925781 33.746094 C 36.925781 33.25 37.0625 32.785156 37.304688 32.386719 C 37.699219 31.726562 38.378906 31.257812 39.175781 31.140625 C 39.300781 31.125 39.429688 31.113281 39.558594 31.113281 C 40.085938 31.113281 40.578125 31.273438 40.992188 31.539062 C 40.917969 31.777344 40.878906 32.03125 40.878906 32.292969 Z M 40.878906 32.292969 " fill-opacity="1" fill-rule="nonzero"/><path fill="#8ecaef" d="M 46.917969 32.230469 C 46.648438 32.230469 46.390625 32.273438 46.144531 32.347656 C 46.144531 32.328125 46.144531 32.3125 46.144531 32.292969 C 46.144531 31.3125 45.609375 30.460938 44.8125 30.007812 C 45.792969 29.660156 46.503906 28.75 46.558594 27.667969 C 47.40625 27.738281 48.136719 28.210938 48.566406 28.890625 C 48.820312 29.296875 48.964844 29.773438 48.964844 30.289062 C 48.964844 31.160156 48.539062 31.9375 47.882812 32.414062 C 47.585938 32.296875 47.257812 32.230469 46.917969 32.230469 Z M 46.917969 32.230469 " fill-opacity="1" fill-rule="nonzero"/><path fill="#8ecaef" d="M 35.515625 31.6875 C 35.015625 31.6875 34.550781 31.828125 34.152344 32.066406 C 34.152344 32.035156 34.15625 32.003906 34.15625 31.972656 C 34.15625 31.308594 33.910156 30.703125 33.503906 30.242188 C 33.492188 30.148438 33.488281 30.050781 33.488281 29.953125 C 33.488281 29.03125 33.960938 28.222656 34.675781 27.753906 C 35.089844 27.480469 35.585938 27.324219 36.121094 27.324219 C 37.003906 27.324219 37.785156 27.761719 38.265625 28.429688 C 38.210938 28.636719 38.183594 28.859375 38.183594 29.085938 C 38.183594 29.917969 38.570312 30.660156 39.175781 31.140625 C 38.378906 31.257812 37.699219 31.726562 37.304688 32.386719 C 36.832031 31.953125 36.203125 31.6875 35.515625 31.6875 Z M 35.515625 31.6875 " fill-opacity="1" fill-rule="nonzero"/><path fill="#8ecaef" d="M 30.515625 29.542969 C 29.636719 29.90625 28.996094 30.734375 28.902344 31.71875 C 28.769531 31.699219 28.636719 31.6875 28.5 31.6875 C 27.949219 31.6875 27.4375 31.859375 27.015625 32.148438 C 25.988281 31.789062 25.253906 30.8125 25.253906 29.664062 C 25.253906 29.332031 25.3125 29.015625 25.425781 28.726562 C 25.703125 27.996094 26.296875 27.425781 27.039062 27.171875 C 27.304688 27.082031 27.589844 27.035156 27.882812 27.035156 C 28.472656 27.035156 29.015625 27.226562 29.457031 27.554688 C 30.070312 28.011719 30.476562 28.726562 30.515625 29.542969 Z M 30.515625 29.542969 " fill-opacity="1" fill-rule="nonzero"/><path fill="#8ecaef" d="M 35.378906 36.398438 C 35.046875 36.835938 34.851562 37.382812 34.851562 37.972656 C 34.851562 38.113281 34.863281 38.25 34.882812 38.386719 C 34.402344 39.027344 33.640625 39.441406 32.777344 39.441406 C 31.324219 39.441406 30.144531 38.265625 30.144531 36.8125 C 30.144531 36.648438 30.160156 36.492188 30.1875 36.335938 C 30.300781 35.71875 30.628906 35.179688 31.089844 34.792969 C 31.546875 34.414062 32.136719 34.183594 32.777344 34.183594 C 32.8125 34.183594 32.851562 34.183594 32.886719 34.1875 C 34.148438 34.238281 35.183594 35.175781 35.378906 36.398438 Z M 35.378906 36.398438 " fill-opacity="1" fill-rule="nonzero"/><path fill="#8ecaef" d="M 44.933594 36.59375 C 44.960938 36.742188 44.976562 36.898438 44.976562 37.058594 C 44.976562 38.511719 43.796875 39.6875 42.34375 39.6875 C 41.382812 39.6875 40.542969 39.175781 40.082031 38.40625 C 40.105469 38.265625 40.117188 38.121094 40.117188 37.972656 C 40.117188 37.480469 39.984375 37.019531 39.746094 36.628906 C 39.933594 35.492188 40.851562 34.597656 42.007812 34.449219 C 42.117188 34.4375 42.230469 34.429688 42.34375 34.429688 C 43.136719 34.429688 43.84375 34.777344 44.324219 35.328125 C 44.632812 35.683594 44.847656 36.113281 44.933594 36.59375 Z M 44.933594 36.59375 " fill-opacity="1" fill-rule="nonzero"/><path fill="#c84242" d="M 51.085938 28.734375 C 51.984375 29.152344 52.605469 30.0625 52.605469 31.113281 C 52.605469 32.570312 51.425781 33.746094 49.972656 33.746094 C 49.722656 33.746094 49.480469 33.710938 49.25 33.648438 C 48.960938 33.089844 48.476562 32.648438 47.882812 32.414062 C 48.539062 31.9375 48.964844 31.160156 48.964844 30.289062 C 48.964844 29.773438 48.820312 29.296875 48.566406 28.890625 C 48.972656 28.632812 49.453125 28.484375 49.972656 28.484375 C 50.371094 28.484375 50.746094 28.574219 51.085938 28.734375 Z M 51.085938 28.734375 " fill-opacity="1" fill-rule="nonzero"/><path fill="#c84242" d="M 44.285156 34.859375 C 44.285156 35.019531 44.300781 35.175781 44.328125 35.328125 L 44.324219 35.328125 C 43.84375 34.777344 43.136719 34.429688 42.34375 34.429688 C 42.230469 34.429688 42.117188 34.4375 42.007812 34.449219 C 41.328125 33.976562 40.878906 33.1875 40.878906 32.292969 C 40.878906 32.03125 40.917969 31.777344 40.992188 31.539062 C 41.304688 30.496094 42.25 29.722656 43.382812 29.667969 C 43.425781 29.664062 43.46875 29.664062 43.511719 29.664062 C 43.984375 29.664062 44.429688 29.789062 44.8125 30.007812 C 45.609375 30.460938 46.144531 31.3125 46.144531 32.292969 C 46.144531 32.3125 46.144531 32.328125 46.144531 32.347656 C 45.070312 32.675781 44.285156 33.675781 44.285156 34.859375 Z M 44.285156 34.859375 " fill-opacity="1" fill-rule="nonzero"/><path fill="#f48ca7" d="M 36.925781 33.746094 C 36.925781 34.347656 37.125 34.902344 37.464844 35.34375 C 36.613281 35.347656 35.855469 35.761719 35.378906 36.398438 C 35.183594 35.175781 34.148438 34.238281 32.886719 34.1875 L 32.886719 34.183594 C 32.929688 33.285156 33.425781 32.507812 34.152344 32.066406 C 34.550781 31.828125 35.015625 31.6875 35.515625 31.6875 C 36.203125 31.6875 36.832031 31.953125 37.304688 32.386719 C 37.0625 32.785156 36.925781 33.25 36.925781 33.746094 Z M 36.925781 33.746094 " fill-opacity="1" fill-rule="nonzero"/><path fill="#c84242" d="M 34.710938 27.324219 C 34.710938 27.472656 34.699219 27.613281 34.675781 27.753906 C 33.960938 28.222656 33.488281 29.03125 33.488281 29.953125 C 33.488281 30.050781 33.492188 30.148438 33.503906 30.242188 C 33.019531 29.691406 32.3125 29.34375 31.523438 29.34375 C 31.164062 29.34375 30.824219 29.414062 30.515625 29.542969 C 30.476562 28.726562 30.070312 28.011719 29.457031 27.554688 C 29.449219 27.476562 29.445312 27.402344 29.445312 27.324219 C 29.445312 26.046875 30.359375 24.980469 31.570312 24.742188 C 31.734375 24.710938 31.90625 24.691406 32.078125 24.691406 C 33.53125 24.691406 34.710938 25.871094 34.710938 27.324219 Z M 34.710938 27.324219 " fill-opacity="1" fill-rule="nonzero"/><path fill="#f48ca7" d="M 31.132812 34.316406 C 31.132812 34.480469 31.117188 34.640625 31.089844 34.792969 C 30.628906 35.179688 30.300781 35.71875 30.1875 36.335938 C 29.730469 36.71875 29.140625 36.949219 28.5 36.949219 C 27.046875 36.949219 25.867188 35.769531 25.867188 34.316406 C 25.867188 34.136719 25.886719 33.953125 25.921875 33.78125 C 26.0625 33.105469 26.460938 32.523438 27.015625 32.148438 C 27.4375 31.859375 27.949219 31.6875 28.5 31.6875 C 28.636719 31.6875 28.769531 31.699219 28.902344 31.71875 C 30.164062 31.910156 31.132812 33 31.132812 34.316406 Z M 31.132812 34.316406 " fill-opacity="1" fill-rule="nonzero"/><path fill="#c84242" d="M 26.402344 25.457031 C 26.402344 26.113281 26.644531 26.710938 27.039062 27.171875 C 26.296875 27.425781 25.703125 27.996094 25.425781 28.726562 C 25.285156 28.703125 25.140625 28.691406 24.996094 28.691406 C 24.589844 28.691406 24.207031 28.78125 23.859375 28.945312 C 23.117188 28.484375 22.621094 27.65625 22.621094 26.714844 C 22.621094 25.261719 23.796875 24.082031 25.253906 24.082031 C 25.746094 24.082031 26.207031 24.21875 26.601562 24.453125 C 26.472656 24.761719 26.402344 25.101562 26.402344 25.457031 Z M 26.402344 25.457031 " fill-opacity="1" fill-rule="nonzero"/><path fill="#f9b132" d="M 46.359375 26.511719 C 46.492188 26.824219 46.5625 27.167969 46.5625 27.527344 C 46.5625 27.574219 46.5625 27.621094 46.558594 27.667969 C 46.503906 28.75 45.792969 29.660156 44.8125 30.007812 C 44.429688 29.789062 43.984375 29.664062 43.511719 29.664062 C 43.46875 29.664062 43.425781 29.664062 43.382812 29.667969 C 43.425781 29.480469 43.445312 29.285156 43.445312 29.085938 C 43.445312 27.867188 42.617188 26.839844 41.488281 26.542969 C 41.882812 25.578125 42.828125 24.898438 43.929688 24.898438 C 45.023438 24.898438 45.960938 25.5625 46.359375 26.511719 Z M 46.359375 26.511719 " fill-opacity="1" fill-rule="nonzero"/><path fill="#f9b132" d="M 32.886719 34.183594 L 32.886719 34.1875 C 32.851562 34.183594 32.8125 34.183594 32.777344 34.183594 C 32.136719 34.183594 31.546875 34.414062 31.089844 34.792969 C 31.117188 34.640625 31.132812 34.480469 31.132812 34.316406 C 31.132812 33 30.164062 31.910156 28.902344 31.71875 C 28.996094 30.734375 29.636719 29.90625 30.515625 29.542969 C 30.824219 29.414062 31.164062 29.34375 31.523438 29.34375 C 32.3125 29.34375 33.019531 29.691406 33.503906 30.242188 C 33.910156 30.703125 34.15625 31.308594 34.15625 31.972656 C 34.15625 32.003906 34.152344 32.035156 34.152344 32.066406 C 33.425781 32.507812 32.929688 33.285156 32.886719 34.183594 Z M 32.886719 34.183594 " fill-opacity="1" fill-rule="nonzero"/><path fill="#f9b132" d="M 49.25 33.648438 C 49.441406 34.007812 49.550781 34.421875 49.550781 34.859375 C 49.550781 36.3125 48.371094 37.492188 46.917969 37.492188 C 46.128906 37.492188 45.417969 37.144531 44.933594 36.59375 C 44.847656 36.113281 44.632812 35.683594 44.324219 35.328125 L 44.328125 35.328125 C 44.300781 35.175781 44.285156 35.019531 44.285156 34.859375 C 44.285156 33.675781 45.070312 32.675781 46.144531 32.347656 C 46.390625 32.273438 46.648438 32.230469 46.917969 32.230469 C 47.257812 32.230469 47.585938 32.296875 47.882812 32.414062 C 48.476562 32.648438 48.960938 33.089844 49.25 33.648438 Z M 49.25 33.648438 " fill-opacity="1" fill-rule="nonzero"/><path fill="#f9b132" d="M 40.117188 37.972656 C 40.117188 38.121094 40.105469 38.265625 40.082031 38.40625 C 39.875 39.652344 38.789062 40.601562 37.484375 40.601562 C 36.171875 40.601562 35.082031 39.644531 34.882812 38.386719 C 34.863281 38.25 34.851562 38.113281 34.851562 37.972656 C 34.851562 37.382812 35.046875 36.835938 35.378906 36.398438 C 35.855469 35.761719 36.613281 35.347656 37.464844 35.34375 C 37.472656 35.34375 37.480469 35.34375 37.484375 35.34375 C 38.445312 35.34375 39.289062 35.859375 39.746094 36.628906 C 39.984375 37.019531 40.117188 37.480469 40.117188 37.972656 Z M 40.117188 37.972656 " fill-opacity="1" fill-rule="nonzero"/><path fill="#c3ddda" d="M 25.601562 12.773438 C 26.039062 13.941406 27.046875 14.714844 28.601562 15.105469 C 25.125 16.277344 22.574219 18.785156 20.847656 22.484375 C 21.320312 18.714844 23.050781 15.335938 25.601562 12.773438 Z M 25.601562 12.773438 " fill-opacity="1" fill-rule="nonzero"/><path fill="#c3ddda" d="M 30.28125 10.503906 C 30.894531 11.074219 30.976562 11.976562 30.472656 12.515625 C 29.964844 13.054688 29.0625 13.03125 28.453125 12.457031 C 27.839844 11.886719 27.757812 10.988281 28.261719 10.449219 C 28.769531 9.910156 29.671875 9.933594 30.28125 10.503906 Z M 30.28125 10.503906 " fill-opacity="1" fill-rule="nonzero"/><path fill="#be3a3c" d="M 42.328125 47.273438 L 32.640625 47.273438 C 32.335938 47.273438 32.089844 47.027344 32.089844 46.722656 C 32.089844 46.421875 32.335938 46.175781 32.640625 46.175781 L 42.328125 46.175781 C 42.632812 46.175781 42.878906 46.421875 42.878906 46.722656 C 42.878906 47.027344 42.632812 47.273438 42.328125 47.273438 Z M 42.328125 47.273438 " fill-opacity="1" fill-rule="nonzero"/><g clip-path="url(#7880efe4ce)"><path fill="#be3a3c" d="M 29.925781 46.722656 L 26.246094 65.71875 L 24.347656 65.71875 L 24.347656 71.546875 L 50.085938 71.546875 C 34.0625 69.722656 28.78125 60.453125 29.925781 46.722656 Z M 29.925781 46.722656 " fill-opacity="1" fill-rule="nonzero"/></g></svg>