<svg xmlns="http://www.w3.org/2000/svg" xmlns:xlink="http://www.w3.org/1999/xlink" width="100" zoomAndPan="magnify" viewBox="0 0 75 74.999997" height="100" preserveAspectRatio="xMidYMid meet" version="1.0"><defs><clipPath id="04152b5699"><path d="M 7.5 8.445312 L 69 8.445312 L 69 66.195312 L 7.5 66.195312 Z M 7.5 8.445312 " clip-rule="nonzero"/></clipPath><clipPath id="923282fdc6"><path d="M 7.5 8.445312 L 69 8.445312 L 69 66.195312 L 7.5 66.195312 Z M 7.5 8.445312 " clip-rule="nonzero"/></clipPath></defs><g clip-path="url(#04152b5699)"><path fill="#fe9f01" d="M 67.964844 58.414062 C 67.65625 58.933594 67.414062 59.484375 67.089844 59.996094 C 66.585938 60.785156 65.847656 61.324219 65.113281 61.871094 C 64.199219 62.546875 63.191406 63.066406 62.160156 63.535156 C 61.386719 63.890625 60.664062 64.328125 59.957031 64.792969 C 58.773438 65.570312 57.46875 65.96875 56.054688 66.0625 C 55.4375 66.101562 54.816406 66.148438 54.195312 66.164062 C 53.253906 66.195312 52.335938 66.109375 51.4375 65.800781 C 50.203125 65.375 48.957031 64.976562 47.84375 64.273438 C 47.09375 63.796875 46.453125 63.191406 45.800781 62.601562 C 45.089844 61.960938 44.316406 61.390625 43.695312 60.652344 C 42.898438 59.699219 42.277344 58.625 41.625 57.570312 C 41.21875 56.914062 40.890625 56.222656 40.546875 55.535156 C 40.046875 54.535156 39.417969 53.636719 38.609375 52.863281 C 37.59375 51.886719 36.671875 50.804688 35.519531 49.976562 C 33.710938 48.671875 31.726562 47.71875 29.554688 47.164062 C 28.949219 47.007812 28.328125 46.890625 27.714844 46.757812 C 27.515625 46.714844 27.34375 46.632812 27.304688 46.410156 C 27.261719 46.183594 27.402344 46.046875 27.582031 45.953125 C 28.480469 45.476562 29.421875 45.140625 30.449219 45.105469 C 30.839844 45.09375 31.230469 45.15625 31.582031 45.316406 C 32.480469 45.726562 33.402344 46.085938 34.316406 46.464844 C 34.894531 46.699219 35.398438 47.066406 35.921875 47.402344 C 36.132812 47.535156 36.351562 47.652344 36.640625 47.664062 C 36.417969 47.175781 36.148438 46.761719 35.824219 46.386719 C 34.875 45.277344 33.847656 44.261719 32.519531 43.597656 C 31.851562 43.261719 31.136719 43.046875 30.445312 42.765625 C 28.777344 42.082031 27.339844 41.042969 26.019531 39.835938 C 25.667969 39.511719 25.308594 39.191406 25.019531 38.808594 C 24.425781 38.023438 24.335938 37.121094 24.453125 36.183594 C 24.535156 35.5625 24.640625 34.941406 24.679688 34.316406 C 24.742188 33.273438 24.53125 32.273438 24.207031 31.289062 C 23.886719 30.316406 23.558594 29.34375 23.210938 28.378906 C 22.710938 26.992188 21.742188 26.03125 20.5 25.292969 C 19.140625 24.484375 17.71875 23.777344 16.320312 23.035156 C 15.058594 22.363281 13.929688 21.539062 13.09375 20.367188 C 11.800781 18.546875 10.925781 16.554688 10.589844 14.339844 C 10.390625 13.019531 10.40625 11.6875 10.394531 10.355469 C 10.390625 9.886719 10.273438 9.429688 10.285156 8.957031 C 10.289062 8.765625 10.324219 8.601562 10.515625 8.523438 C 10.71875 8.445312 10.859375 8.546875 10.996094 8.695312 C 11.371094 9.101562 11.507812 9.613281 11.628906 10.125 C 11.929688 11.390625 12.53125 12.511719 13.285156 13.554688 C 13.671875 14.089844 14.046875 14.640625 14.558594 15.074219 C 15.375 15.761719 16.359375 16.074219 17.371094 16.351562 C 19.253906 16.867188 21.101562 17.464844 22.847656 18.375 C 24.753906 19.367188 26.261719 20.757812 27.441406 22.527344 C 27.941406 23.28125 28.386719 24.066406 28.894531 24.8125 C 29.371094 25.511719 29.917969 26.144531 30.703125 26.523438 C 31.292969 26.804688 31.9375 26.882812 32.570312 27 C 32.671875 27.019531 32.742188 27.003906 32.695312 26.871094 C 32.332031 25.804688 32.121094 24.699219 31.792969 23.621094 C 31.539062 22.796875 30.988281 22.1875 30.351562 21.636719 C 29.597656 20.984375 28.816406 20.363281 28.015625 19.765625 C 27.828125 19.625 27.652344 19.464844 27.527344 19.261719 C 27.449219 19.132812 27.421875 19.003906 27.503906 18.863281 C 27.605469 18.683594 27.722656 18.621094 27.910156 18.746094 C 28.410156 19.082031 28.921875 19.40625 29.414062 19.75 C 30.3125 20.378906 31.269531 20.898438 32.300781 21.265625 C 33.742188 21.777344 34.988281 22.597656 36.09375 23.632812 C 37.492188 24.941406 38.691406 26.414062 39.632812 28.085938 C 40.015625 28.765625 40.257812 29.507812 40.574219 30.21875 C 41.046875 31.277344 41.578125 32.300781 42.421875 33.125 C 43.074219 33.761719 43.839844 34.234375 44.664062 34.628906 C 44.398438 34.191406 44.132812 33.761719 43.96875 33.28125 C 43.71875 32.546875 43.617188 31.78125 43.574219 31.015625 C 43.5 29.753906 43.3125 28.53125 42.644531 27.417969 C 42.359375 26.9375 42.171875 26.402344 41.953125 25.890625 C 41.683594 25.257812 41.3125 24.695312 40.808594 24.222656 C 40.765625 24.183594 40.71875 24.144531 40.683594 24.101562 C 40.515625 23.90625 40.503906 23.695312 40.648438 23.53125 C 40.804688 23.359375 41.03125 23.339844 41.234375 23.511719 C 41.671875 23.878906 42.101562 24.253906 42.523438 24.640625 C 43.164062 25.226562 43.691406 25.910156 44.179688 26.625 C 44.824219 27.574219 45.496094 28.507812 46.195312 29.417969 C 47.109375 30.605469 47.746094 31.960938 48.496094 33.246094 C 49.203125 34.457031 50.019531 35.585938 50.886719 36.691406 C 51.511719 37.484375 52.3125 37.507812 53.183594 37.335938 C 54.410156 37.089844 55.640625 36.878906 56.886719 36.769531 C 57.828125 36.683594 58.722656 36.867188 59.554688 37.324219 C 60.324219 37.75 61.085938 38.1875 61.792969 38.71875 C 62.589844 39.316406 63.171875 40.109375 63.714844 40.929688 C 65.609375 43.773438 67.019531 46.847656 67.96875 50.125 C 68.34375 51.417969 68.628906 52.730469 68.796875 54.066406 C 68.992188 55.601562 68.765625 57.0625 67.964844 58.414062 Z M 23.214844 32.945312 C 23.195312 32.820312 23.171875 32.628906 23.128906 32.441406 C 22.8125 31.066406 22.054688 29.976562 20.9375 29.125 C 20.835938 29.050781 20.738281 28.9375 20.605469 29.046875 C 20.492188 29.144531 20.53125 29.273438 20.578125 29.394531 C 20.675781 29.65625 20.84375 29.875 20.988281 30.109375 C 21.78125 31.378906 22.320312 32.699219 22.023438 34.246094 C 21.898438 34.886719 22.257812 35.40625 22.644531 35.882812 C 22.695312 35.949219 22.773438 35.960938 22.847656 35.921875 C 22.929688 35.878906 22.96875 35.804688 22.945312 35.710938 C 22.925781 35.628906 22.894531 35.550781 22.867188 35.472656 C 22.699219 35.050781 22.699219 34.636719 22.90625 34.21875 C 23.089844 33.839844 23.195312 33.4375 23.214844 32.945312 Z M 25.605469 18.332031 C 25.832031 18.332031 26.019531 18.136719 26.023438 17.886719 C 26.027344 17.585938 25.757812 17.300781 25.460938 17.292969 C 25.21875 17.285156 24.992188 17.464844 24.984375 17.675781 C 24.96875 17.949219 25.332031 18.332031 25.605469 18.332031 Z M 7.941406 9.125 C 7.78125 9.25 7.601562 9.363281 7.511719 9.5625 C 7.511719 9.679688 7.511719 9.796875 7.511719 9.914062 C 7.574219 9.929688 7.558594 9.992188 7.582031 10.035156 C 7.683594 10.238281 7.839844 10.363281 8.070312 10.375 C 8.3125 10.390625 8.488281 10.273438 8.609375 10.074219 C 8.738281 9.859375 8.757812 9.628906 8.691406 9.394531 C 8.601562 9.078125 8.195312 8.925781 7.941406 9.125 Z M 39.523438 23.089844 C 39.710938 23.042969 39.792969 22.90625 39.8125 22.75 C 39.804688 22.503906 39.636719 22.429688 39.464844 22.34375 C 39.300781 22.261719 39.144531 22.230469 39.011719 22.382812 C 38.890625 22.527344 38.886719 22.695312 38.992188 22.847656 C 39.117188 23.03125 39.28125 23.152344 39.523438 23.089844 Z M 12.859375 10.910156 C 12.914062 11.425781 13.113281 11.863281 13.5 12.207031 C 13.789062 12.464844 14.089844 12.707031 14.382812 12.953125 C 14.464844 13.023438 14.550781 13.042969 14.632812 12.960938 C 14.714844 12.875 14.664062 12.792969 14.601562 12.71875 C 14.5 12.605469 14.398438 12.496094 14.296875 12.382812 C 13.902344 11.945312 13.585938 11.480469 13.5625 10.859375 C 13.550781 10.523438 13.429688 10.203125 13.226562 9.925781 C 13.136719 9.800781 13.019531 9.722656 12.859375 9.789062 C 12.710938 9.851562 12.6875 9.984375 12.703125 10.175781 C 12.746094 10.390625 12.828125 10.648438 12.859375 10.910156 Z M 12.859375 10.910156 " fill-opacity="1" fill-rule="nonzero"/></g><path fill="#e12700" d="M 46.191406 36.105469 C 45.902344 35.519531 45.722656 34.9375 45.640625 34.332031 C 45.550781 33.625 45.414062 32.933594 45.210938 32.253906 C 45 31.550781 44.695312 30.894531 44.332031 30.257812 C 44.214844 30.050781 44.113281 29.828125 44.050781 29.59375 C 44.003906 29.414062 44.042969 29.269531 44.175781 29.164062 C 44.324219 29.050781 44.484375 29.09375 44.621094 29.195312 C 45.351562 29.761719 45.917969 30.460938 46.273438 31.3125 C 46.492188 31.828125 46.664062 32.359375 46.753906 32.917969 C 46.816406 33.308594 47.003906 33.660156 47.171875 34.011719 C 47.636719 34.980469 48.097656 35.949219 48.800781 36.777344 C 49.46875 37.566406 50.257812 38.179688 51.28125 38.453125 C 51.996094 38.644531 52.699219 38.867188 53.453125 38.816406 C 53.671875 38.800781 53.882812 38.742188 54.097656 38.71875 C 55.417969 38.578125 56.710938 38.714844 57.980469 39.082031 C 59.273438 39.453125 60.257812 40.242188 61.035156 41.304688 C 61.796875 42.355469 62.65625 43.332031 63.441406 44.363281 C 63.730469 44.742188 64 45.140625 64.242188 45.546875 C 64.652344 46.234375 65.128906 46.867188 65.613281 47.5 C 66.105469 48.148438 66.320312 48.90625 66.425781 49.683594 C 66.582031 50.832031 66.421875 51.996094 66.507812 53.144531 C 66.597656 54.378906 66.355469 55.550781 66.070312 56.730469 C 65.890625 57.457031 65.488281 58.0625 65.035156 58.636719 C 64.371094 59.476562 63.675781 60.296875 62.804688 60.945312 C 62.015625 61.535156 61.117188 61.9375 60.210938 62.320312 C 58.910156 62.867188 57.589844 63.359375 56.320312 63.976562 C 55.742188 64.257812 55.121094 64.398438 54.476562 64.433594 C 54.296875 64.441406 54.105469 64.414062 53.933594 64.367188 C 53.199219 64.15625 52.449219 64.015625 51.699219 63.878906 C 50.75 63.703125 49.96875 63.179688 49.203125 62.628906 C 48.511719 62.125 47.808594 61.632812 47.113281 61.136719 C 45.917969 60.289062 44.933594 59.230469 44.011719 58.105469 C 43.542969 57.53125 43.183594 56.886719 42.796875 56.261719 C 42.289062 55.429688 41.59375 54.734375 41.050781 53.929688 C 40.824219 53.589844 40.621094 53.230469 40.40625 52.878906 C 39.773438 51.851562 39.023438 50.910156 37.976562 50.28125 C 37.261719 49.851562 36.476562 49.527344 35.71875 49.171875 C 35.132812 48.894531 34.515625 48.679688 33.953125 48.371094 C 33.289062 48 32.683594 47.53125 32.070312 47.082031 C 31.988281 47.023438 31.972656 46.941406 32.03125 46.863281 C 32.082031 46.789062 32.160156 46.789062 32.234375 46.828125 C 33.746094 47.539062 35.378906 47.878906 36.960938 48.378906 C 37.40625 48.519531 37.691406 48.234375 38.007812 48.023438 C 38.101562 47.960938 38.023438 47.84375 37.996094 47.769531 C 37.652344 46.699219 37.371094 45.609375 36.734375 44.640625 C 36.214844 43.84375 35.789062 42.984375 35.324219 42.152344 C 35.234375 41.988281 35.109375 41.878906 34.929688 41.886719 C 34.15625 41.90625 33.425781 41.679688 32.675781 41.539062 C 31.96875 41.402344 31.265625 41.269531 30.570312 41.074219 C 30.046875 40.925781 29.554688 40.71875 29.15625 40.335938 C 28.835938 40.03125 28.425781 39.867188 28.0625 39.625 C 26.988281 38.902344 26.457031 37.839844 26.210938 36.628906 C 26.015625 35.675781 26.15625 34.714844 26.460938 33.789062 C 26.601562 33.359375 26.574219 32.925781 26.53125 32.496094 C 26.40625 31.242188 25.933594 30.070312 25.5625 28.878906 C 25.261719 27.910156 24.59375 27.226562 23.777344 26.644531 C 22.820312 25.960938 22.164062 25.046875 21.835938 23.910156 C 21.761719 23.664062 21.808594 23.414062 21.773438 23.164062 C 21.671875 22.449219 21.257812 21.960938 20.675781 21.566406 C 19.789062 20.960938 18.769531 20.671875 17.777344 20.3125 C 17.140625 20.078125 16.484375 19.886719 15.90625 19.507812 C 15.65625 19.34375 15.480469 19.160156 15.511719 18.820312 C 15.539062 18.546875 15.667969 18.363281 15.957031 18.359375 C 16.429688 18.355469 16.886719 18.457031 17.351562 18.535156 C 18.464844 18.71875 19.578125 18.910156 20.695312 19.066406 C 21.078125 19.117188 21.457031 19.195312 21.832031 19.285156 C 22.1875 19.367188 22.460938 19.578125 22.664062 19.890625 C 23.132812 20.613281 23.6875 21.277344 24.113281 22.03125 C 24.417969 22.574219 24.605469 23.167969 24.875 23.722656 C 25.480469 24.96875 26.257812 26.09375 27.296875 27.027344 C 27.777344 27.453125 28.320312 27.699219 28.964844 27.761719 C 29.738281 27.839844 30.507812 27.863281 31.28125 27.863281 C 31.925781 27.859375 32.539062 28.023438 33.132812 28.261719 C 33.265625 28.3125 33.398438 28.367188 33.535156 28.398438 C 33.886719 28.472656 34.105469 28.292969 34.128906 27.933594 C 34.148438 27.628906 34.078125 27.335938 34.015625 27.042969 C 33.917969 26.5625 33.816406 26.078125 33.695312 25.601562 C 33.527344 24.945312 33.230469 24.332031 32.988281 23.703125 C 32.941406 23.578125 32.898438 23.449219 32.851562 23.324219 C 32.816406 23.230469 32.765625 23.132812 32.894531 23.066406 C 33.015625 23 33.125 23.027344 33.207031 23.132812 C 33.382812 23.355469 33.539062 23.597656 33.726562 23.808594 C 34.214844 24.363281 34.714844 24.902344 35.210938 25.449219 C 35.484375 25.753906 35.761719 26.058594 36.035156 26.363281 C 36.152344 26.488281 36.230469 26.640625 36.285156 26.796875 C 36.609375 27.742188 37.097656 28.628906 37.320312 29.617188 C 37.4375 30.117188 37.726562 30.570312 37.96875 31.027344 C 38.328125 31.710938 38.699219 32.378906 39.1875 32.988281 C 40.152344 34.195312 41.355469 35.039062 42.863281 35.441406 C 43.550781 35.621094 44.21875 35.886719 44.929688 35.972656 C 45.335938 36.027344 45.742188 36.058594 46.191406 36.105469 Z M 60.785156 44.894531 C 60.765625 44.878906 60.75 44.863281 60.734375 44.84375 C 60.613281 44.734375 60.488281 44.625 60.367188 44.507812 C 59.617188 43.761719 58.867188 43.015625 58.121094 42.269531 C 57.984375 42.128906 57.832031 42.015625 57.65625 41.929688 C 57.574219 41.777344 57.410156 41.730469 57.277344 41.652344 C 56.417969 41.132812 55.527344 41.246094 54.824219 41.957031 C 54.476562 42.308594 54.199219 42.722656 53.9375 43.140625 C 53.769531 43.410156 53.554688 43.613281 53.222656 43.628906 C 52.507812 43.664062 51.835938 43.519531 51.277344 43.039062 C 50.949219 42.761719 50.59375 42.703125 50.199219 42.875 C 49.898438 43.007812 49.609375 43.15625 49.339844 43.34375 C 48.457031 43.949219 47.671875 44.660156 46.953125 45.453125 C 46.1875 46.308594 45.429688 47.171875 44.820312 48.148438 C 44.507812 48.648438 44.242188 49.164062 44.328125 49.792969 C 44.375 50.136719 44.398438 50.488281 44.421875 50.835938 C 44.46875 51.59375 44.574219 52.347656 44.703125 53.09375 C 44.816406 53.738281 44.945312 54.386719 45.089844 55.027344 C 45.183594 55.449219 45.289062 55.871094 45.585938 56.214844 C 45.644531 56.390625 45.789062 56.511719 45.894531 56.660156 C 46.152344 57.023438 46.457031 57.355469 46.832031 57.613281 C 47.710938 58.546875 48.824219 59.164062 49.910156 59.816406 C 50.382812 60.101562 50.917969 60.28125 51.355469 60.625 C 51.863281 61.023438 52.417969 61.332031 52.996094 61.601562 C 53.757812 61.957031 54.488281 61.929688 55.164062 61.375 C 55.5625 61.054688 55.957031 60.730469 56.398438 60.46875 C 56.855469 60.195312 57.222656 59.84375 57.480469 59.375 C 57.691406 58.984375 58.007812 58.707031 58.433594 58.5625 C 58.730469 58.460938 59.042969 58.445312 59.351562 58.414062 C 59.867188 58.367188 60.390625 58.324219 60.875 58.117188 C 61.425781 57.878906 62 57.664062 62.34375 57.113281 C 62.738281 56.492188 63.042969 55.828125 63.332031 55.148438 C 63.839844 53.964844 64.128906 52.726562 64.257812 51.449219 C 64.339844 50.644531 64.359375 49.835938 64.570312 49.046875 C 64.648438 48.75 64.582031 48.464844 64.429688 48.207031 C 64.28125 47.953125 64.089844 47.730469 63.890625 47.515625 C 63.351562 46.933594 62.746094 46.429688 62.136719 45.933594 C 61.695312 45.574219 61.257812 45.203125 60.78125 44.890625 Z M 14.074219 18.097656 C 13.726562 18.089844 13.515625 17.871094 13.339844 17.640625 C 12.917969 17.097656 12.625 16.476562 12.363281 15.84375 C 12.316406 15.726562 12.300781 15.609375 12.414062 15.527344 C 12.523438 15.449219 12.625 15.511719 12.714844 15.574219 C 13.160156 15.902344 13.527344 16.296875 13.75 16.8125 C 13.886719 17.132812 14.054688 17.441406 14.246094 17.734375 C 14.382812 17.941406 14.296875 18.09375 14.074219 18.097656 Z M 30.925781 46.855469 C 30.660156 46.800781 30.386719 46.75 30.121094 46.683594 C 30.019531 46.65625 29.953125 46.5625 29.953125 46.457031 C 29.953125 46.339844 30.023438 46.238281 30.136719 46.214844 C 30.480469 46.140625 30.816406 46.148438 31.113281 46.378906 C 31.214844 46.460938 31.324219 46.542969 31.261719 46.6875 C 31.203125 46.824219 31.078125 46.871094 30.925781 46.855469 Z M 30.925781 46.855469 " fill-opacity="1" fill-rule="nonzero"/><path fill="#fe5100" d="M 57.65625 41.929688 C 57.832031 42.015625 57.984375 42.128906 58.121094 42.269531 C 58.867188 43.015625 59.617188 43.761719 60.367188 44.507812 C 60.488281 44.625 60.613281 44.734375 60.734375 44.84375 C 60.75 44.863281 60.765625 44.878906 60.785156 44.894531 L 60.78125 44.890625 C 60.785156 45.039062 60.882812 45.144531 60.96875 45.238281 C 61.355469 45.679688 61.671875 46.171875 62.027344 46.636719 C 62.59375 47.378906 62.988281 48.1875 63.085938 49.113281 C 63.128906 49.507812 63.191406 49.925781 62.964844 50.3125 C 62.828125 50.554688 62.601562 50.683594 62.390625 50.820312 C 61.710938 51.25 61.722656 51.855469 62.230469 52.390625 C 62.433594 52.601562 62.546875 52.847656 62.609375 53.132812 C 62.699219 53.566406 62.636719 53.980469 62.503906 54.390625 C 62.332031 54.921875 61.941406 55.054688 61.503906 54.71875 C 61.261719 54.53125 60.996094 54.425781 60.707031 54.363281 C 60.355469 54.28125 59.988281 54.421875 59.824219 54.691406 C 59.652344 54.96875 59.6875 55.265625 59.925781 55.574219 C 60.007812 55.679688 60.097656 55.78125 60.183594 55.882812 C 60.414062 56.167969 60.660156 56.441406 60.820312 56.777344 C 60.929688 57.003906 60.910156 57.191406 60.710938 57.359375 C 60.191406 57.789062 59.621094 57.921875 58.976562 57.691406 C 58.613281 57.558594 58.25 57.585938 57.898438 57.734375 C 57.28125 57.992188 56.839844 58.453125 56.4375 58.96875 C 56.148438 59.335938 55.859375 59.707031 55.398438 59.890625 C 55.164062 59.980469 54.953125 60.015625 54.742188 59.835938 C 54.621094 59.730469 54.480469 59.652344 54.34375 59.570312 C 54.007812 59.371094 53.675781 59.375 53.433594 59.589844 C 53.277344 59.730469 53.207031 59.917969 53.152344 60.113281 C 53.101562 60.292969 52.980469 60.398438 52.800781 60.371094 C 52.214844 60.277344 51.636719 60.160156 51.136719 59.796875 C 50.625 59.429688 50.152344 59.019531 49.664062 58.625 C 48.941406 58.050781 48.078125 57.816406 47.21875 57.566406 C 47.097656 57.53125 46.949219 57.515625 46.832031 57.613281 C 46.457031 57.355469 46.15625 57.023438 45.894531 56.660156 C 45.792969 56.511719 45.648438 56.390625 45.585938 56.214844 C 45.792969 55.992188 45.886719 55.71875 45.9375 55.425781 C 46.03125 54.84375 46.140625 54.261719 46.394531 53.71875 C 46.566406 53.351562 46.542969 52.960938 46.386719 52.597656 C 46.203125 52.167969 46.035156 51.734375 45.871094 51.296875 C 45.5625 50.46875 45.644531 49.808594 46.421875 49.25 C 47.28125 48.628906 48.039062 47.890625 48.6875 47.050781 C 49.203125 46.382812 49.714844 45.710938 50.285156 45.085938 C 50.785156 44.53125 51.402344 44.3125 52.132812 44.488281 C 52.535156 44.582031 52.898438 44.527344 53.246094 44.332031 C 53.773438 44.03125 54.257812 43.671875 54.710938 43.273438 C 55.007812 43.015625 55.304688 42.753906 55.605469 42.5 C 56.199219 41.996094 56.902344 41.878906 57.65625 41.929688 Z M 52.449219 47.703125 C 52.667969 47.792969 52.898438 47.800781 53.125 47.804688 C 53.613281 47.816406 53.796875 47.683594 53.933594 47.210938 C 54.003906 46.972656 54.070312 46.734375 54.066406 46.480469 C 54.066406 46.386719 54.070312 46.296875 53.960938 46.25 C 53.90625 46.046875 53.726562 45.984375 53.5625 45.960938 C 52.859375 45.878906 52.046875 46.171875 51.9375 47.089844 C 51.894531 47.4375 52.085938 47.679688 52.449219 47.703125 Z M 52.148438 49.765625 C 52.167969 49.695312 52.140625 49.640625 52.09375 49.585938 C 51.863281 49.335938 51.582031 49.183594 51.234375 49.167969 C 50.777344 49.144531 50.347656 49.269531 49.957031 49.484375 C 49.34375 49.820312 48.921875 50.429688 49.105469 51.238281 C 49.203125 51.6875 49.367188 52.113281 49.542969 52.539062 C 49.667969 52.839844 49.859375 53.066406 50.175781 53.179688 C 50.296875 53.199219 50.425781 53.242188 50.542969 53.226562 C 51 53.167969 51.457031 53.09375 51.886719 52.929688 C 52.261719 52.785156 52.59375 52.597656 52.738281 52.175781 C 53.035156 51.300781 52.722656 50.554688 52.277344 49.832031 C 52.25 49.785156 52.203125 49.769531 52.148438 49.765625 Z M 51.742188 57.460938 C 51.734375 58.039062 51.9375 58.289062 52.503906 58.425781 C 52.828125 58.503906 53.144531 58.46875 53.441406 58.355469 C 54.460938 57.976562 55.398438 57.410156 56.429688 57.042969 C 56.914062 56.871094 57.066406 56.382812 56.871094 55.921875 C 56.742188 55.621094 56.554688 55.355469 56.289062 55.152344 C 55.96875 54.792969 55.542969 54.609375 55.121094 54.402344 C 54.714844 54.203125 54.335938 54.234375 53.929688 54.34375 C 53.3125 54.5 52.886719 54.921875 52.464844 55.355469 C 52.132812 55.691406 51.902344 56.074219 51.804688 56.539062 C 51.742188 56.84375 51.738281 57.152344 51.742188 57.460938 Z M 59.585938 46.496094 C 59.492188 46.390625 59.382812 46.300781 59.265625 46.21875 C 58.460938 45.652344 57.617188 45.710938 56.757812 46.066406 C 56.40625 46.214844 56.226562 46.515625 56.144531 46.871094 C 56.066406 47.203125 56.105469 47.535156 56.167969 47.863281 C 56.347656 48.769531 56.765625 49.59375 57.132812 50.433594 C 57.375 50.980469 57.570312 51.554688 57.953125 52.03125 C 58.5 52.5625 59.171875 52.679688 59.886719 52.546875 C 60.46875 52.4375 61.070312 51.964844 60.988281 51.183594 C 60.957031 50.875 60.957031 50.566406 60.945312 50.257812 C 60.921875 49.648438 60.855469 49.046875 60.683594 48.460938 C 60.464844 47.722656 60.191406 47.019531 59.585938 46.496094 Z M 50.320312 57.40625 C 50.042969 57.40625 49.90625 57.632812 50.023438 57.898438 C 50.246094 58.390625 50.613281 58.742188 51.101562 58.972656 C 51.179688 59.011719 51.261719 59.042969 51.335938 58.976562 C 51.414062 58.910156 51.445312 58.824219 51.417969 58.707031 C 51.300781 58.226562 51.007812 57.859375 50.660156 57.53125 C 50.570312 57.449219 50.449219 57.390625 50.320312 57.40625 Z M 58.550781 54.304688 C 58.539062 53.976562 58.242188 53.691406 57.929688 53.707031 C 57.539062 53.726562 57.238281 54.035156 57.25 54.40625 C 57.257812 54.699219 57.546875 55 57.800781 54.984375 C 58.257812 54.957031 58.5625 54.679688 58.550781 54.304688 Z M 58.699219 44.898438 C 58.816406 44.902344 58.929688 44.894531 58.988281 44.78125 C 59.046875 44.660156 59.019531 44.539062 58.953125 44.425781 C 58.757812 44.101562 58.414062 44.023438 58.085938 43.945312 C 57.933594 43.910156 57.773438 44.164062 57.871094 44.300781 C 58.074219 44.59375 58.339844 44.816406 58.699219 44.898438 Z M 56.785156 52.886719 C 56.910156 52.875 56.988281 52.808594 56.988281 52.683594 C 56.992188 52.5625 56.925781 52.460938 56.804688 52.453125 C 56.695312 52.445312 56.597656 52.507812 56.59375 52.644531 C 56.585938 52.777344 56.648438 52.859375 56.785156 52.886719 Z M 49.160156 56.328125 C 49.128906 56.210938 49.09375 56.101562 48.941406 56.101562 C 48.832031 56.101562 48.765625 56.152344 48.765625 56.261719 C 48.769531 56.386719 48.792969 56.5 48.953125 56.5 C 49.066406 56.5 49.132812 56.4375 49.160156 56.328125 Z M 49.160156 56.328125 " fill-opacity="1" fill-rule="nonzero"/><path fill="#d13300" d="M 59.585938 46.496094 C 60.191406 47.019531 60.464844 47.722656 60.683594 48.460938 C 60.855469 49.046875 60.921875 49.648438 60.945312 50.257812 C 60.957031 50.566406 60.957031 50.875 60.988281 51.183594 C 61.070312 51.964844 60.46875 52.4375 59.886719 52.546875 C 59.171875 52.679688 58.5 52.5625 57.953125 52.03125 C 58.035156 51.964844 58 51.882812 57.984375 51.800781 C 57.835938 50.855469 57.546875 49.9375 57.417969 48.988281 C 57.347656 48.492188 57.332031 47.992188 57.347656 47.488281 C 57.347656 47.398438 57.398438 47.335938 57.453125 47.273438 C 57.761719 46.933594 58.179688 46.84375 58.601562 46.753906 C 58.933594 46.679688 59.285156 46.6875 59.585938 46.496094 Z M 51.742188 57.460938 C 51.738281 57.152344 51.742188 56.84375 51.804688 56.539062 C 51.902344 56.074219 52.132812 55.691406 52.464844 55.355469 C 52.886719 54.921875 53.3125 54.5 53.929688 54.34375 C 54.335938 54.234375 54.714844 54.203125 55.121094 54.402344 C 55.542969 54.609375 55.96875 54.792969 56.289062 55.152344 C 56.242188 55.699219 55.976562 56.097656 55.5 56.378906 C 54.957031 56.699219 54.371094 56.933594 53.808594 57.207031 C 53.167969 57.523438 52.519531 57.785156 51.792969 57.460938 C 51.78125 57.453125 51.761719 57.460938 51.742188 57.460938 Z M 52.148438 49.765625 C 52.203125 49.769531 52.25 49.785156 52.277344 49.832031 C 52.722656 50.554688 53.035156 51.300781 52.738281 52.175781 C 52.59375 52.59375 52.261719 52.785156 51.886719 52.929688 C 51.457031 53.09375 51 53.167969 50.542969 53.226562 C 50.425781 53.242188 50.296875 53.199219 50.171875 53.179688 C 50.207031 52.734375 50.054688 52.308594 49.992188 51.878906 C 49.894531 51.230469 50.121094 50.714844 50.710938 50.464844 C 51.136719 50.285156 51.539062 50.066406 51.941406 49.839844 C 52.007812 49.800781 52.066406 49.757812 52.148438 49.765625 Z M 53.964844 46.25 C 54.070312 46.296875 54.066406 46.386719 54.066406 46.480469 C 54.070312 46.734375 54.003906 46.972656 53.933594 47.210938 C 53.796875 47.683594 53.617188 47.816406 53.125 47.804688 C 52.898438 47.800781 52.667969 47.792969 52.449219 47.703125 C 52.414062 47.308594 52.59375 46.996094 52.90625 46.796875 C 53.238281 46.582031 53.609375 46.429688 53.964844 46.25 Z M 53.964844 46.25 " fill-opacity="1" fill-rule="nonzero"/><path fill="#812c23" d="M 57.65625 41.929688 C 56.902344 41.878906 56.199219 41.996094 55.605469 42.5 C 55.304688 42.753906 55.007812 43.015625 54.710938 43.273438 C 54.257812 43.671875 53.773438 44.03125 53.246094 44.332031 C 52.898438 44.527344 52.535156 44.582031 52.132812 44.488281 C 51.402344 44.3125 50.785156 44.53125 50.285156 45.085938 C 49.714844 45.710938 49.203125 46.382812 48.6875 47.050781 C 48.039062 47.890625 47.28125 48.628906 46.421875 49.25 C 45.644531 49.808594 45.5625 50.46875 45.871094 51.292969 C 46.035156 51.730469 46.203125 52.167969 46.386719 52.597656 C 46.542969 52.960938 46.566406 53.351562 46.394531 53.71875 C 46.140625 54.261719 46.03125 54.84375 45.933594 55.425781 C 45.886719 55.71875 45.792969 55.992188 45.585938 56.214844 C 45.289062 55.871094 45.183594 55.449219 45.089844 55.027344 C 44.945312 54.382812 44.816406 53.738281 44.703125 53.09375 C 44.574219 52.34375 44.46875 51.59375 44.421875 50.835938 C 44.398438 50.488281 44.375 50.136719 44.328125 49.792969 C 44.242188 49.164062 44.507812 48.648438 44.820312 48.148438 C 45.429688 47.171875 46.1875 46.308594 46.953125 45.453125 C 47.671875 44.660156 48.457031 43.949219 49.339844 43.34375 C 49.609375 43.15625 49.898438 43.007812 50.199219 42.875 C 50.59375 42.703125 50.949219 42.761719 51.277344 43.039062 C 51.835938 43.519531 52.507812 43.664062 53.222656 43.628906 C 53.554688 43.613281 53.769531 43.410156 53.941406 43.140625 C 54.203125 42.71875 54.476562 42.308594 54.824219 41.957031 C 55.527344 41.246094 56.417969 41.132812 57.277344 41.648438 C 57.410156 41.730469 57.574219 41.777344 57.65625 41.929688 Z M 59.585938 46.496094 C 59.285156 46.6875 58.933594 46.679688 58.601562 46.753906 C 58.179688 46.84375 57.761719 46.933594 57.453125 47.273438 C 57.398438 47.335938 57.347656 47.398438 57.347656 47.488281 C 57.332031 47.992188 57.347656 48.492188 57.417969 48.988281 C 57.546875 49.9375 57.835938 50.855469 57.984375 51.800781 C 58 51.882812 58.035156 51.964844 57.953125 52.03125 C 57.570312 51.554688 57.375 50.980469 57.132812 50.433594 C 56.765625 49.59375 56.347656 48.773438 56.167969 47.863281 C 56.105469 47.535156 56.066406 47.203125 56.144531 46.871094 C 56.226562 46.515625 56.40625 46.214844 56.757812 46.066406 C 57.617188 45.710938 58.460938 45.652344 59.265625 46.21875 C 59.382812 46.300781 59.492188 46.390625 59.585938 46.496094 Z M 51.742188 57.460938 C 51.761719 57.460938 51.78125 57.453125 51.792969 57.460938 C 52.519531 57.785156 53.164062 57.523438 53.808594 57.207031 C 54.371094 56.933594 54.957031 56.699219 55.5 56.378906 C 55.976562 56.097656 56.242188 55.699219 56.289062 55.152344 C 56.554688 55.355469 56.742188 55.621094 56.871094 55.921875 C 57.066406 56.382812 56.914062 56.871094 56.429688 57.042969 C 55.398438 57.410156 54.460938 57.976562 53.441406 58.355469 C 53.144531 58.46875 52.828125 58.503906 52.507812 58.425781 C 51.9375 58.289062 51.734375 58.039062 51.742188 57.460938 Z M 52.148438 49.765625 C 52.066406 49.757812 52.007812 49.800781 51.941406 49.839844 C 51.539062 50.066406 51.136719 50.285156 50.710938 50.464844 C 50.121094 50.714844 49.894531 51.230469 49.992188 51.878906 C 50.054688 52.308594 50.207031 52.734375 50.175781 53.179688 C 49.859375 53.066406 49.667969 52.839844 49.542969 52.539062 C 49.367188 52.113281 49.203125 51.6875 49.105469 51.238281 C 48.921875 50.429688 49.34375 49.820312 49.957031 49.484375 C 50.347656 49.269531 50.777344 49.144531 51.234375 49.167969 C 51.582031 49.183594 51.863281 49.335938 52.09375 49.585938 C 52.140625 49.640625 52.167969 49.695312 52.148438 49.765625 Z M 53.964844 46.25 C 53.609375 46.429688 53.238281 46.582031 52.90625 46.796875 C 52.59375 46.996094 52.414062 47.308594 52.449219 47.703125 C 52.085938 47.679688 51.894531 47.4375 51.9375 47.089844 C 52.046875 46.171875 52.859375 45.878906 53.5625 45.964844 C 53.726562 45.984375 53.90625 46.046875 53.964844 46.25 Z M 53.964844 46.25 " fill-opacity="1" fill-rule="nonzero"/><g clip-path="url(#923282fdc6)"><path fill="#fe9f01" d="M 7.511719 9.5625 C 7.601562 9.363281 7.78125 9.25 7.941406 9.125 C 8.195312 8.925781 8.601562 9.078125 8.691406 9.394531 C 8.757812 9.628906 8.738281 9.859375 8.609375 10.074219 C 8.488281 10.273438 8.3125 10.390625 8.070312 10.375 C 7.839844 10.363281 7.683594 10.238281 7.582031 10.035156 C 7.558594 9.992188 7.574219 9.929688 7.511719 9.914062 C 7.511719 9.796875 7.511719 9.679688 7.511719 9.5625 Z M 36.640625 47.664062 C 36.417969 47.175781 36.148438 46.761719 35.824219 46.386719 C 34.875 45.277344 33.847656 44.261719 32.519531 43.597656 C 31.851562 43.261719 31.136719 43.046875 30.445312 42.765625 C 28.777344 42.082031 27.339844 41.042969 26.019531 39.835938 C 25.667969 39.511719 25.308594 39.191406 25.019531 38.808594 C 24.425781 38.023438 24.335938 37.121094 24.453125 36.183594 C 24.535156 35.5625 24.640625 34.941406 24.679688 34.316406 C 24.742188 33.273438 24.53125 32.273438 24.207031 31.289062 C 23.886719 30.316406 23.558594 29.34375 23.210938 28.378906 C 22.710938 26.992188 21.742188 26.03125 20.5 25.292969 C 19.140625 24.484375 17.71875 23.777344 16.320312 23.035156 C 15.058594 22.363281 13.929688 21.539062 13.09375 20.367188 C 11.800781 18.546875 10.925781 16.554688 10.589844 14.339844 C 10.390625 13.019531 10.40625 11.6875 10.394531 10.355469 C 10.390625 9.886719 10.273438 9.429688 10.285156 8.957031 C 10.289062 8.765625 10.324219 8.601562 10.515625 8.523438 C 10.71875 8.445312 10.859375 8.546875 10.996094 8.695312 C 11.371094 9.101562 11.507812 9.613281 11.628906 10.125 C 11.929688 11.390625 12.53125 12.511719 13.285156 13.554688 C 13.671875 14.089844 14.046875 14.640625 14.558594 15.074219 C 15.375 15.761719 16.359375 16.074219 17.371094 16.351562 C 19.253906 16.867188 21.101562 17.464844 22.847656 18.375 C 24.753906 19.367188 26.261719 20.757812 27.441406 22.527344 C 27.941406 23.28125 28.386719 24.066406 28.894531 24.8125 C 29.371094 25.511719 29.917969 26.144531 30.703125 26.523438 C 31.292969 26.804688 31.9375 26.882812 32.570312 27 C 32.671875 27.019531 32.742188 27.003906 32.695312 26.871094 C 32.332031 25.804688 32.121094 24.699219 31.792969 23.621094 C 31.539062 22.796875 30.988281 22.1875 30.351562 21.636719 C 29.597656 20.984375 28.816406 20.363281 28.015625 19.765625 C 27.828125 19.625 27.65625 19.464844 27.527344 19.261719 C 27.449219 19.132812 27.421875 19.003906 27.503906 18.863281 C 27.605469 18.683594 27.722656 18.621094 27.910156 18.746094 C 28.410156 19.082031 28.921875 19.40625 29.414062 19.75 C 30.3125 20.378906 31.269531 20.898438 32.300781 21.265625 C 33.742188 21.777344 34.988281 22.597656 36.09375 23.632812 C 37.492188 24.941406 38.691406 26.414062 39.632812 28.085938 C 40.015625 28.765625 40.257812 29.507812 40.574219 30.21875 C 41.046875 31.277344 41.578125 32.300781 42.421875 33.125 C 43.074219 33.761719 43.839844 34.234375 44.664062 34.628906 C 44.398438 34.191406 44.132812 33.761719 43.96875 33.28125 C 43.71875 32.546875 43.617188 31.78125 43.574219 31.015625 C 43.5 29.753906 43.3125 28.53125 42.644531 27.417969 C 42.359375 26.9375 42.171875 26.402344 41.953125 25.890625 C 41.683594 25.257812 41.3125 24.695312 40.808594 24.222656 C 40.765625 24.183594 40.71875 24.144531 40.683594 24.101562 C 40.515625 23.90625 40.503906 23.695312 40.648438 23.53125 C 40.804688 23.359375 41.03125 23.339844 41.234375 23.511719 C 41.671875 23.878906 42.101562 24.253906 42.523438 24.640625 C 43.164062 25.226562 43.691406 25.910156 44.179688 26.625 C 44.824219 27.574219 45.496094 28.507812 46.195312 29.417969 C 47.109375 30.605469 47.746094 31.960938 48.496094 33.246094 C 49.203125 34.457031 50.019531 35.585938 50.886719 36.691406 C 51.511719 37.484375 52.3125 37.507812 53.183594 37.335938 C 54.410156 37.089844 55.640625 36.878906 56.886719 36.769531 C 57.828125 36.683594 58.722656 36.867188 59.554688 37.324219 C 60.324219 37.75 61.085938 38.1875 61.792969 38.71875 C 62.589844 39.316406 63.171875 40.109375 63.714844 40.929688 C 65.609375 43.773438 67.019531 46.847656 67.96875 50.125 C 68.34375 51.417969 68.628906 52.730469 68.796875 54.066406 C 68.992188 55.601562 68.765625 57.0625 67.964844 58.414062 C 67.65625 58.933594 67.414062 59.484375 67.089844 59.996094 C 66.585938 60.785156 65.847656 61.324219 65.113281 61.871094 C 64.199219 62.546875 63.191406 63.066406 62.160156 63.535156 C 61.390625 63.890625 60.664062 64.328125 59.957031 64.792969 C 58.773438 65.570312 57.46875 65.96875 56.054688 66.0625 C 55.4375 66.101562 54.816406 66.148438 54.195312 66.164062 C 53.253906 66.195312 52.335938 66.109375 51.4375 65.800781 C 50.203125 65.375 48.957031 64.976562 47.84375 64.273438 C 47.09375 63.796875 46.453125 63.191406 45.800781 62.601562 C 45.089844 61.960938 44.316406 61.390625 43.695312 60.652344 C 42.898438 59.699219 42.277344 58.625 41.625 57.570312 C 41.21875 56.914062 40.890625 56.222656 40.546875 55.535156 C 40.046875 54.535156 39.417969 53.636719 38.609375 52.863281 C 37.59375 51.886719 36.671875 50.804688 35.519531 49.976562 C 33.710938 48.671875 31.726562 47.71875 29.554688 47.164062 C 28.949219 47.007812 28.328125 46.890625 27.714844 46.757812 C 27.515625 46.714844 27.34375 46.632812 27.304688 46.410156 C 27.261719 46.183594 27.402344 46.046875 27.582031 45.953125 C 28.480469 45.476562 29.421875 45.140625 30.449219 45.105469 C 30.839844 45.09375 31.230469 45.15625 31.582031 45.316406 C 32.480469 45.726562 33.402344 46.085938 34.316406 46.464844 C 34.894531 46.699219 35.398438 47.066406 35.921875 47.402344 C 36.132812 47.535156 36.351562 47.652344 36.640625 47.664062 Z M 46.191406 36.105469 C 45.746094 36.058594 45.335938 36.027344 44.929688 35.976562 C 44.21875 35.886719 43.554688 35.625 42.867188 35.441406 C 41.355469 35.042969 40.152344 34.195312 39.1875 32.988281 C 38.699219 32.382812 38.328125 31.710938 37.96875 31.03125 C 37.726562 30.570312 37.4375 30.117188 37.320312 29.617188 C 37.097656 28.628906 36.609375 27.742188 36.285156 26.796875 C 36.234375 26.640625 36.152344 26.488281 36.039062 26.363281 C 35.761719 26.058594 35.484375 25.753906 35.210938 25.449219 C 34.714844 24.90625 34.214844 24.363281 33.726562 23.808594 C 33.539062 23.597656 33.382812 23.355469 33.207031 23.132812 C 33.125 23.027344 33.015625 23 32.894531 23.066406 C 32.765625 23.132812 32.816406 23.230469 32.851562 23.328125 C 32.898438 23.453125 32.941406 23.578125 32.988281 23.703125 C 33.230469 24.335938 33.527344 24.945312 33.695312 25.605469 C 33.816406 26.082031 33.917969 26.5625 34.015625 27.042969 C 34.078125 27.335938 34.148438 27.628906 34.128906 27.933594 C 34.105469 28.292969 33.886719 28.472656 33.539062 28.398438 C 33.398438 28.371094 33.265625 28.316406 33.132812 28.261719 C 32.539062 28.023438 31.929688 27.863281 31.28125 27.863281 C 30.507812 27.867188 29.738281 27.839844 28.964844 27.765625 C 28.320312 27.699219 27.777344 27.457031 27.300781 27.027344 C 26.257812 26.09375 25.480469 24.972656 24.875 23.722656 C 24.605469 23.167969 24.421875 22.574219 24.113281 22.03125 C 23.6875 21.277344 23.132812 20.613281 22.664062 19.890625 C 22.460938 19.578125 22.1875 19.371094 21.832031 19.285156 C 21.457031 19.195312 21.078125 19.117188 20.699219 19.066406 C 19.578125 18.910156 18.464844 18.71875 17.351562 18.535156 C 16.890625 18.460938 16.429688 18.355469 15.957031 18.363281 C 15.667969 18.363281 15.539062 18.546875 15.511719 18.824219 C 15.480469 19.160156 15.65625 19.347656 15.910156 19.511719 C 16.484375 19.886719 17.140625 20.082031 17.777344 20.3125 C 18.769531 20.671875 19.789062 20.964844 20.679688 21.566406 C 21.261719 21.960938 21.671875 22.449219 21.773438 23.164062 C 21.808594 23.414062 21.761719 23.664062 21.835938 23.914062 C 22.164062 25.050781 22.820312 25.964844 23.777344 26.644531 C 24.59375 27.226562 25.261719 27.914062 25.5625 28.878906 C 25.933594 30.070312 26.40625 31.242188 26.53125 32.5 C 26.574219 32.925781 26.601562 33.363281 26.460938 33.792969 C 26.15625 34.714844 26.019531 35.675781 26.210938 36.632812 C 26.457031 37.839844 26.988281 38.902344 28.0625 39.625 C 28.425781 39.871094 28.839844 40.03125 29.160156 40.335938 C 29.558594 40.71875 30.046875 40.925781 30.570312 41.074219 C 31.265625 41.269531 31.96875 41.402344 32.679688 41.539062 C 33.425781 41.679688 34.15625 41.90625 34.929688 41.886719 C 35.113281 41.882812 35.234375 41.988281 35.324219 42.152344 C 35.789062 42.988281 36.214844 43.847656 36.738281 44.640625 C 37.371094 45.609375 37.652344 46.699219 38 47.769531 C 38.023438 47.84375 38.105469 47.960938 38.007812 48.023438 C 37.691406 48.234375 37.410156 48.519531 36.960938 48.378906 C 35.378906 47.878906 33.746094 47.539062 32.234375 46.828125 C 32.160156 46.792969 32.082031 46.789062 32.03125 46.863281 C 31.976562 46.941406 31.988281 47.023438 32.070312 47.082031 C 32.683594 47.53125 33.289062 48 33.953125 48.371094 C 34.519531 48.683594 35.132812 48.894531 35.71875 49.171875 C 36.476562 49.527344 37.261719 49.851562 37.976562 50.285156 C 39.023438 50.914062 39.773438 51.851562 40.40625 52.882812 C 40.621094 53.230469 40.824219 53.589844 41.054688 53.929688 C 41.59375 54.734375 42.289062 55.429688 42.796875 56.261719 C 43.183594 56.886719 43.542969 57.53125 44.011719 58.105469 C 44.933594 59.230469 45.917969 60.289062 47.113281 61.140625 C 47.8125 61.632812 48.511719 62.125 49.203125 62.628906 C 49.96875 63.183594 50.75 63.703125 51.703125 63.878906 C 52.449219 64.015625 53.199219 64.15625 53.933594 64.367188 C 54.105469 64.417969 54.296875 64.441406 54.480469 64.433594 C 55.121094 64.398438 55.742188 64.257812 56.324219 63.976562 C 57.589844 63.359375 58.910156 62.867188 60.210938 62.320312 C 61.117188 61.9375 62.015625 61.535156 62.808594 60.945312 C 63.675781 60.296875 64.371094 59.476562 65.035156 58.636719 C 65.492188 58.0625 65.894531 57.457031 66.070312 56.730469 C 66.359375 55.554688 66.597656 54.378906 66.507812 53.148438 C 66.421875 51.996094 66.582031 50.832031 66.425781 49.6875 C 66.320312 48.910156 66.105469 48.148438 65.613281 47.5 C 65.132812 46.867188 64.652344 46.234375 64.242188 45.550781 C 64 45.140625 63.730469 44.742188 63.441406 44.363281 C 62.65625 43.332031 61.796875 42.355469 61.035156 41.308594 C 60.257812 40.242188 59.273438 39.453125 57.980469 39.082031 C 56.710938 38.71875 55.417969 38.578125 54.097656 38.71875 C 53.882812 38.742188 53.671875 38.800781 53.453125 38.816406 C 52.699219 38.867188 51.996094 38.644531 51.28125 38.453125 C 50.257812 38.179688 49.46875 37.566406 48.800781 36.777344 C 48.101562 35.949219 47.636719 34.980469 47.171875 34.015625 C 47.003906 33.660156 46.816406 33.308594 46.753906 32.917969 C 46.664062 32.359375 46.492188 31.828125 46.273438 31.3125 C 45.917969 30.460938 45.355469 29.761719 44.621094 29.199219 C 44.488281 29.09375 44.324219 29.050781 44.179688 29.164062 C 44.042969 29.269531 44.003906 29.414062 44.050781 29.59375 C 44.113281 29.832031 44.214844 30.050781 44.332031 30.261719 C 44.695312 30.894531 45 31.550781 45.210938 32.253906 C 45.417969 32.933594 45.550781 33.628906 45.644531 34.332031 C 45.722656 34.9375 45.902344 35.519531 46.191406 36.105469 Z M 14.074219 18.097656 C 14.296875 18.09375 14.382812 17.941406 14.246094 17.734375 C 14.054688 17.441406 13.886719 17.132812 13.75 16.808594 C 13.53125 16.296875 13.160156 15.902344 12.714844 15.574219 C 12.625 15.511719 12.523438 15.449219 12.414062 15.527344 C 12.300781 15.609375 12.316406 15.726562 12.363281 15.84375 C 12.625 16.476562 12.917969 17.09375 13.339844 17.640625 C 13.515625 17.871094 13.726562 18.089844 14.074219 18.097656 Z M 30.925781 46.855469 C 31.078125 46.871094 31.203125 46.824219 31.261719 46.6875 C 31.324219 46.542969 31.214844 46.460938 31.113281 46.378906 C 30.816406 46.148438 30.480469 46.140625 30.136719 46.214844 C 30.023438 46.238281 29.953125 46.339844 29.953125 46.457031 C 29.953125 46.5625 30.019531 46.65625 30.121094 46.683594 C 30.386719 46.75 30.660156 46.800781 30.925781 46.855469 Z M 23.214844 32.945312 C 23.195312 33.4375 23.089844 33.839844 22.90625 34.21875 C 22.699219 34.636719 22.699219 35.050781 22.867188 35.472656 C 22.894531 35.550781 22.925781 35.628906 22.945312 35.710938 C 22.96875 35.804688 22.929688 35.878906 22.847656 35.921875 C 22.773438 35.960938 22.695312 35.949219 22.644531 35.882812 C 22.257812 35.40625 21.898438 34.886719 22.023438 34.246094 C 22.320312 32.699219 21.78125 31.378906 20.988281 30.109375 C 20.84375 29.875 20.675781 29.65625 20.578125 29.394531 C 20.53125 29.273438 20.492188 29.144531 20.605469 29.046875 C 20.738281 28.9375 20.835938 29.050781 20.9375 29.125 C 22.054688 29.976562 22.8125 31.066406 23.128906 32.441406 C 23.171875 32.628906 23.195312 32.820312 23.214844 32.945312 Z M 12.703125 10.175781 C 12.6875 9.984375 12.710938 9.851562 12.859375 9.789062 C 13.019531 9.722656 13.136719 9.800781 13.226562 9.925781 C 13.429688 10.203125 13.550781 10.523438 13.5625 10.859375 C 13.585938 11.480469 13.902344 11.945312 14.296875 12.382812 C 14.398438 12.496094 14.5 12.605469 14.601562 12.71875 C 14.664062 12.792969 14.714844 12.875 14.632812 12.960938 C 14.550781 13.042969 14.464844 13.023438 14.382812 12.953125 C 14.089844 12.707031 13.789062 12.464844 13.5 12.207031 C 13.113281 11.863281 12.914062 11.425781 12.859375 10.910156 C 12.828125 10.648438 12.746094 10.390625 12.703125 10.175781 Z M 26.023438 17.886719 C 26.019531 18.136719 25.832031 18.332031 25.605469 18.332031 C 25.332031 18.332031 24.96875 17.949219 24.984375 17.675781 C 24.992188 17.464844 25.21875 17.285156 25.460938 17.292969 C 25.757812 17.300781 26.027344 17.585938 26.023438 17.886719 Z M 39.8125 22.75 C 39.792969 22.90625 39.710938 23.042969 39.523438 23.089844 C 39.28125 23.152344 39.117188 23.03125 38.992188 22.847656 C 38.886719 22.695312 38.890625 22.527344 39.011719 22.382812 C 39.144531 22.230469 39.300781 22.261719 39.464844 22.34375 C 39.636719 22.429688 39.804688 22.503906 39.8125 22.75 Z M 46.832031 57.613281 C 46.949219 57.515625 47.097656 57.53125 47.21875 57.566406 C 48.078125 57.816406 48.941406 58.050781 49.664062 58.625 C 50.152344 59.019531 50.625 59.429688 51.136719 59.796875 C 51.636719 60.160156 52.214844 60.277344 52.800781 60.367188 C 52.980469 60.398438 53.105469 60.292969 53.152344 60.113281 C 53.207031 59.917969 53.277344 59.730469 53.433594 59.589844 C 53.675781 59.375 54.007812 59.371094 54.34375 59.570312 C 54.480469 59.652344 54.621094 59.730469 54.742188 59.832031 C 54.953125 60.015625 55.164062 59.980469 55.398438 59.890625 C 55.859375 59.707031 56.148438 59.335938 56.4375 58.96875 C 56.839844 58.453125 57.28125 57.992188 57.898438 57.734375 C 58.25 57.585938 58.613281 57.558594 58.976562 57.691406 C 59.621094 57.921875 60.191406 57.789062 60.710938 57.355469 C 60.910156 57.191406 60.929688 57.003906 60.820312 56.777344 C 60.660156 56.441406 60.414062 56.167969 60.183594 55.882812 C 60.097656 55.777344 60.007812 55.679688 59.925781 55.574219 C 59.6875 55.261719 59.652344 54.96875 59.824219 54.691406 C 59.988281 54.421875 60.355469 54.28125 60.707031 54.359375 C 60.996094 54.425781 61.261719 54.53125 61.503906 54.71875 C 61.941406 55.054688 62.332031 54.921875 62.503906 54.386719 C 62.636719 53.980469 62.699219 53.566406 62.609375 53.132812 C 62.546875 52.847656 62.433594 52.601562 62.230469 52.386719 C 61.722656 51.855469 61.710938 51.25 62.390625 50.820312 C 62.601562 50.683594 62.828125 50.554688 62.964844 50.3125 C 63.191406 49.925781 63.128906 49.507812 63.085938 49.113281 C 62.988281 48.183594 62.59375 47.378906 62.027344 46.636719 C 61.671875 46.171875 61.355469 45.679688 60.96875 45.238281 C 60.882812 45.144531 60.785156 45.039062 60.78125 44.890625 C 61.261719 45.203125 61.695312 45.574219 62.136719 45.933594 C 62.746094 46.429688 63.351562 46.933594 63.890625 47.515625 C 64.089844 47.730469 64.28125 47.953125 64.429688 48.207031 C 64.582031 48.464844 64.648438 48.75 64.570312 49.046875 C 64.359375 49.835938 64.34375 50.644531 64.257812 51.449219 C 64.128906 52.726562 63.839844 53.960938 63.332031 55.148438 C 63.042969 55.828125 62.738281 56.492188 62.34375 57.113281 C 62 57.664062 61.425781 57.878906 60.875 58.117188 C 60.390625 58.324219 59.867188 58.367188 59.351562 58.414062 C 59.042969 58.445312 58.730469 58.460938 58.433594 58.5625 C 58.007812 58.707031 57.691406 58.984375 57.480469 59.375 C 57.226562 59.84375 56.855469 60.195312 56.402344 60.46875 C 55.960938 60.730469 55.5625 61.054688 55.164062 61.375 C 54.488281 61.929688 53.757812 61.957031 52.996094 61.601562 C 52.417969 61.332031 51.863281 61.023438 51.359375 60.625 C 50.921875 60.28125 50.382812 60.101562 49.910156 59.816406 C 48.824219 59.164062 47.714844 58.546875 46.832031 57.613281 Z M 60.785156 44.894531 C 60.765625 44.878906 60.75 44.863281 60.734375 44.84375 C 60.75 44.863281 60.765625 44.878906 60.785156 44.894531 Z M 50.320312 57.40625 C 50.449219 57.390625 50.570312 57.449219 50.660156 57.53125 C 51.007812 57.859375 51.300781 58.226562 51.417969 58.707031 C 51.445312 58.824219 51.414062 58.910156 51.335938 58.976562 C 51.261719 59.042969 51.179688 59.011719 51.101562 58.972656 C 50.613281 58.742188 50.246094 58.390625 50.023438 57.898438 C 49.90625 57.632812 50.042969 57.40625 50.320312 57.40625 Z M 58.550781 54.304688 C 58.5625 54.679688 58.257812 54.957031 57.800781 54.984375 C 57.546875 55 57.257812 54.699219 57.25 54.40625 C 57.238281 54.035156 57.539062 53.726562 57.929688 53.707031 C 58.242188 53.691406 58.539062 53.976562 58.550781 54.304688 Z M 58.699219 44.898438 C 58.339844 44.816406 58.074219 44.59375 57.871094 44.300781 C 57.777344 44.164062 57.933594 43.910156 58.085938 43.945312 C 58.414062 44.023438 58.757812 44.101562 58.953125 44.425781 C 59.019531 44.539062 59.046875 44.660156 58.988281 44.78125 C 58.929688 44.894531 58.816406 44.902344 58.699219 44.898438 Z M 56.785156 52.886719 C 56.648438 52.859375 56.585938 52.777344 56.59375 52.644531 C 56.597656 52.507812 56.695312 52.445312 56.804688 52.453125 C 56.925781 52.460938 56.988281 52.5625 56.988281 52.683594 C 56.988281 52.808594 56.910156 52.875 56.785156 52.886719 Z M 49.160156 56.328125 C 49.132812 56.4375 49.066406 56.5 48.953125 56.5 C 48.792969 56.5 48.769531 56.386719 48.765625 56.261719 C 48.765625 56.152344 48.832031 56.101562 48.941406 56.101562 C 49.09375 56.101562 49.128906 56.210938 49.160156 56.328125 Z M 49.160156 56.328125 " fill-opacity="1" fill-rule="nonzero"/></g></svg>