<svg xmlns="http://www.w3.org/2000/svg" xmlns:xlink="http://www.w3.org/1999/xlink" width="100" zoomAndPan="magnify" viewBox="0 0 75 74.999997" height="100" preserveAspectRatio="xMidYMid meet" version="1.0"><defs><clipPath id="d1cc348e51"><path d="M 5.445312 25 L 69.195312 25 L 69.195312 39 L 5.445312 39 Z M 5.445312 25 " clip-rule="nonzero"/></clipPath><clipPath id="8093e47d5e"><path d="M 5.445312 36 L 69.195312 36 L 69.195312 50 L 5.445312 50 Z M 5.445312 36 " clip-rule="nonzero"/></clipPath></defs><path fill="#ff1416" d="M 56.09375 14.921875 C 48.414062 8.5 37.988281 6.441406 28.402344 9.589844 C 25.035156 10.683594 21.925781 12.378906 19.175781 14.589844 C 22.871094 14.589844 26.570312 14.816406 30.234375 15.195312 C 38.769531 16.070312 47.589844 16.328125 56.09375 14.921875 Z M 56.09375 14.921875 " fill-opacity="1" fill-rule="evenodd"/><path fill="#ed7408" d="M 15.628906 15.421875 C 12.324219 18.554688 9.710938 22.355469 7.984375 26.582031 C 16.382812 25.355469 24.976562 25.519531 33.40625 26.398438 C 44.222656 27.535156 55.476562 27.640625 66.082031 24.976562 C 64.402344 21.433594 62.085938 18.222656 59.246094 15.527344 C 49.453125 17.328125 39.25 17.054688 29.378906 16.042969 C 24.8125 15.574219 20.226562 15.332031 15.628906 15.421875 Z M 15.628906 15.421875 " fill-opacity="1" fill-rule="evenodd"/><g clip-path="url(#d1cc348e51)"><path fill="#f2dd07" d="M 7.292969 27.335938 C 6.042969 30.925781 5.445312 34.710938 5.519531 38.511719 C 15.886719 36.210938 26.71875 36.285156 37.234375 37.390625 C 47.8125 38.511719 58.75 38.542969 69.117188 35.921875 C 68.953125 33.210938 68.441406 30.53125 67.617188 27.945312 C 67.347656 27.125 67.046875 26.292969 66.714844 25.492188 C 55.820312 28.292969 44.3125 28.1875 33.210938 27.035156 C 24.617188 26.140625 15.839844 25.988281 7.292969 27.335938 Z M 7.292969 27.335938 " fill-opacity="1" fill-rule="evenodd"/></g><g clip-path="url(#8093e47d5e)"><path fill="#2db759" d="M 69.164062 36.90625 C 58.707031 39.496094 47.695312 39.464844 37.039062 38.347656 C 26.613281 37.242188 15.855469 37.164062 5.578125 39.496094 C 5.757812 42.101562 6.253906 44.660156 7.066406 47.144531 C 7.367188 48.066406 7.699219 48.976562 8.074219 49.855469 C 18.847656 47.386719 30.144531 47.535156 41.066406 48.703125 C 49.738281 49.625 58.601562 49.734375 67.210938 48.234375 C 68.53125 44.613281 69.195312 40.769531 69.164062 36.90625 Z M 69.164062 36.90625 " fill-opacity="1" fill-rule="evenodd"/></g><path fill="#1a91ed" d="M 8.71875 50.519531 C 10.460938 54.09375 12.851562 57.320312 15.765625 60.015625 C 25.367188 58.484375 35.269531 58.789062 44.898438 59.832031 C 49.359375 60.316406 53.855469 60.558594 58.332031 60.46875 C 61.847656 57.347656 64.625 53.472656 66.488281 49.140625 C 58.046875 50.503906 49.359375 50.367188 40.871094 49.460938 C 30.234375 48.324219 19.222656 48.171875 8.71875 50.519531 Z M 8.71875 50.519531 " fill-opacity="1" fill-rule="evenodd"/><path fill="#7a1bb5" d="M 19.371094 60.753906 C 26.839844 66.796875 36.84375 68.691406 46.039062 65.660156 C 49.015625 64.691406 51.796875 63.238281 54.289062 61.375 C 50.820312 61.363281 47.332031 61.148438 43.878906 60.769531 C 35.792969 59.90625 27.46875 59.605469 19.371094 60.753906 Z M 19.371094 60.753906 " fill-opacity="1" fill-rule="evenodd"/></svg>