<?xml version="1.0" encoding="iso-8859-1"?>
<svg fill="#000000" height="800px" width="800px" version="1.1" id="Capa_1" xmlns="http://www.w3.org/2000/svg" xmlns:xlink="http://www.w3.org/1999/xlink" 
	 viewBox="0 0 232 232" xml:space="preserve">
<path d="M194.713,26H183v-6.912v-6.797C183,5.669,178.286,0,171.664,0H61.001C54.379,0,49,5.669,49,12.291v6.797V26H37.022
	C31.857,26,22,28.772,22,40.76v19.693c0,21.338,14.733,39.332,34.613,44.59c8.514,17.113,23.482,30.125,41.462,35.463
	c-2.939,1.324-4.98,4.241-4.98,7.64c0,1.813,0.6,3.854,1.59,4.854h-0.327c-4.518,0-8.213,4-8.472,8H74.939
	c-2.935,0-5.694,1.122-7.771,3.21c-2.077,2.087-3.212,4.839-3.197,7.773L64.155,208h-5.072C52.594,208,47,213.261,47,219.75v0.5
	c0,6.489,5.594,11.75,12.083,11.75h113.5c6.489,0,11.417-5.261,11.417-11.75v-0.5c0-6.489-4.927-11.75-11.417-11.75h-4.073
	l0.183-36.03c0.015-2.935-1.12-5.673-3.197-7.761c-2.076-2.087-4.836-3.209-7.771-3.209h-10.945c-0.259-4-3.954-8-8.472-8h-0.327
	c0.99-1,1.578-3.04,1.578-4.854c0-3.4-2.052-6.322-4.991-7.646c17.98-5.337,32.637-18.346,41.151-35.46
	C195.6,99.782,210,81.791,210,60.453V41.449C210,28.917,200.2,26,194.713,26z M40,64.796V44h9v28.233
	c0,6.394,0.735,12.588,2.247,18.485C44.334,84.193,40,74.986,40,64.796z M136.919,90.086L116.333,75.13L95.748,90.086l7.863-24.165
	L83.026,51h25.445l7.863-24.199L124.196,51h25.445l-20.585,14.921L136.919,90.086z M192,64.796c0,10.191-4.334,19.399-11.249,25.924
	C182.264,84.822,183,78.628,183,72.233V44h9V64.796z"/>
</svg>