<svg xmlns="http://www.w3.org/2000/svg" width="512" height="512" id="alien"><path fill="#FE5B67" d="M194.523 292.873s4.348 18.414 1.32 51.336c-1 10.879-7.248 20.689-16.914 25.782-5.023 2.647-11.453 4.897-19.555 5.896-10.051 1.238-16.669 11.166-14.084 20.959 6.107 23.141 27.044 57.304 97.496 56.469 15.542-.186 30.784-5.315 42.507-15.521 11.021-9.596 20.954-24.945 20.947-49.107-.002-5.131-4.358-9.369-9.487-9.477-11.354-.24-31.034-2.207-48.901-11.664-7.15-3.785-11.887-10.951-12.36-19.029-.519-8.873-.622-21.936 1.459-36.328l-42.428-19.316z"></path><path fill="#BC3F4B" d="m236.95 312.188-42.427-19.313s2.084 8.856 2.359 25.242l38.442 26.967c-.343-8.652-.201-20.261 1.626-32.896z"></path><ellipse cx="256.157" cy="194.568" fill="#FE5B67" rx="138.136" ry="108.262" transform="rotate(-106.911 256.146 194.56)"></ellipse><path fill="#283D49" d="M305.315 210.417c-2.271-14.239-10.091-40.909-36.985-61.293-5.174-3.921-10.984-6.991-17.262-8.645a48.23 48.23 0 0 0-1.453-.36c-20.577-4.77-40.042 11.562-38.163 32.601.433 4.84 1.942 10.126 5.169 15.655 2.89 4.952 6.857 9.17 11.378 12.697 10.924 8.52 36.459 24.803 68.354 21.102 5.791-.672 9.879-6.001 8.962-11.757z"></path><path fill="#FEFEFE" d="M233.62 156.904c3.284 1.987 6.847 6.283 5.88 15.528-.186 1.774-.965 3.502-2.398 4.565-1.76 1.305-4.583 1.794-8.373-2.61-3.899-4.532-4.786-9.787-4.005-13.664.81-4.019 5.389-5.942 8.896-3.819z"></path><path fill="#283D49" d="M337.665 134.698c3.174-4.972 9.832-6.496 14.8-3.314 9.98 6.391 23.664 27.137 5.582 60.633 0 0-6.397 12.353-18.852 19.384-3.347 1.889-7.408-.927-6.981-4.745.423-3.783.771-8.276.638-12.096-.256-7.291-6.403-42.29 4.813-59.862z"></path><path fill="#FEFEFE" d="M350.447 146.443c1.421 2.561 2.151 6.756-1.993 12.512-.796 1.104-1.967 1.953-3.319 2.114-1.66.197-3.715-.549-4.555-4.903-.864-4.479.541-8.295 2.528-10.567 2.061-2.354 5.822-1.891 7.339.844z"></path></svg>