<svg xmlns="http://www.w3.org/2000/svg" xmlns:xlink="http://www.w3.org/1999/xlink" width="500" zoomAndPan="magnify" viewBox="0 0 375 374.999991" height="500" preserveAspectRatio="xMidYMid meet" version="1.0"><defs><clipPath id="13d907caa5"><path d="M 132 68 L 370 68 L 370 269 L 132 269 Z M 132 68 " clip-rule="nonzero"/></clipPath><clipPath id="983ff848b3"><path d="M 405.664062 105.078125 L 348.792969 322.769531 L 128.921875 265.332031 L 185.792969 47.636719 Z M 405.664062 105.078125 " clip-rule="nonzero"/></clipPath><clipPath id="d201f5584b"><path d="M 405.664062 105.078125 L 348.792969 322.769531 L 128.921875 265.332031 L 185.792969 47.636719 Z M 405.664062 105.078125 " clip-rule="nonzero"/></clipPath><clipPath id="149b4b394c"><path d="M 405.664062 105.078125 L 348.792969 322.769531 L 128.921875 265.332031 L 185.792969 47.636719 Z M 405.664062 105.078125 " clip-rule="nonzero"/></clipPath><clipPath id="f3bde727d4"><path d="M 237 68 L 338 68 L 338 139 L 237 139 Z M 237 68 " clip-rule="nonzero"/></clipPath><clipPath id="135836f955"><path d="M 405.664062 105.078125 L 348.792969 322.769531 L 128.921875 265.332031 L 185.792969 47.636719 Z M 405.664062 105.078125 " clip-rule="nonzero"/></clipPath><clipPath id="48e813b6ed"><path d="M 405.664062 105.078125 L 348.792969 322.769531 L 128.921875 265.332031 L 185.792969 47.636719 Z M 405.664062 105.078125 " clip-rule="nonzero"/></clipPath><clipPath id="c3061bb4ca"><path d="M 405.664062 105.078125 L 348.792969 322.769531 L 128.921875 265.332031 L 185.792969 47.636719 Z M 405.664062 105.078125 " clip-rule="nonzero"/></clipPath><clipPath id="ebcdc8a599"><path d="M 332 153 L 370 153 L 370 269 L 332 269 Z M 332 153 " clip-rule="nonzero"/></clipPath><clipPath id="4aa9248068"><path d="M 405.664062 105.078125 L 348.792969 322.769531 L 128.921875 265.332031 L 185.792969 47.636719 Z M 405.664062 105.078125 " clip-rule="nonzero"/></clipPath><clipPath id="4535af4234"><path d="M 405.664062 105.078125 L 348.792969 322.769531 L 128.921875 265.332031 L 185.792969 47.636719 Z M 405.664062 105.078125 " clip-rule="nonzero"/></clipPath><clipPath id="f8228f5e84"><path d="M 405.664062 105.078125 L 348.792969 322.769531 L 128.921875 265.332031 L 185.792969 47.636719 Z M 405.664062 105.078125 " clip-rule="nonzero"/></clipPath><clipPath id="3d0e455bab"><path d="M 303 120 L 363 120 L 363 174 L 303 174 Z M 303 120 " clip-rule="nonzero"/></clipPath><clipPath id="d78c191fd3"><path d="M 405.664062 105.078125 L 348.792969 322.769531 L 128.921875 265.332031 L 185.792969 47.636719 Z M 405.664062 105.078125 " clip-rule="nonzero"/></clipPath><clipPath id="9537285d4f"><path d="M 405.664062 105.078125 L 348.792969 322.769531 L 128.921875 265.332031 L 185.792969 47.636719 Z M 405.664062 105.078125 " clip-rule="nonzero"/></clipPath><clipPath id="8eedf419d2"><path d="M 405.664062 105.078125 L 348.792969 322.769531 L 128.921875 265.332031 L 185.792969 47.636719 Z M 405.664062 105.078125 " clip-rule="nonzero"/></clipPath><clipPath id="69c372823a"><path d="M 106 104 L 243 104 L 243 190 L 106 190 Z M 106 104 " clip-rule="nonzero"/></clipPath><clipPath id="00aacf2bb5"><path d="M 178.242188 56.421875 L 308.582031 242.578125 L 127.339844 369.476562 L -3 183.316406 Z M 178.242188 56.421875 " clip-rule="nonzero"/></clipPath><clipPath id="bd16e7895f"><path d="M 178.242188 56.421875 L 308.582031 242.578125 L 127.339844 369.476562 L -3 183.316406 Z M 178.242188 56.421875 " clip-rule="nonzero"/></clipPath><clipPath id="4a314eae1a"><path d="M 85 189 L 234 189 L 234 326 L 85 326 Z M 85 189 " clip-rule="nonzero"/></clipPath><clipPath id="448486d54a"><path d="M 178.242188 56.421875 L 308.582031 242.578125 L 127.339844 369.476562 L -3 183.316406 Z M 178.242188 56.421875 " clip-rule="nonzero"/></clipPath><clipPath id="5a3d5ee66f"><path d="M 178.242188 56.421875 L 308.582031 242.578125 L 127.339844 369.476562 L -3 183.316406 Z M 178.242188 56.421875 " clip-rule="nonzero"/></clipPath><clipPath id="941e74295c"><path d="M 191 189 L 265 189 L 265 319 L 191 319 Z M 191 189 " clip-rule="nonzero"/></clipPath><clipPath id="2ebbe76aa6"><path d="M 178.242188 56.421875 L 308.582031 242.578125 L 127.339844 369.476562 L -3 183.316406 Z M 178.242188 56.421875 " clip-rule="nonzero"/></clipPath><clipPath id="524fa9012b"><path d="M 178.242188 56.421875 L 308.582031 242.578125 L 127.339844 369.476562 L -3 183.316406 Z M 178.242188 56.421875 " clip-rule="nonzero"/></clipPath><clipPath id="1d30217b49"><path d="M 243.632812 169.203125 L 299.078125 248.386719 L 193.921875 322.007812 L 138.480469 242.824219 Z M 243.632812 169.203125 " clip-rule="nonzero"/></clipPath><clipPath id="3da9bdea99"><path d="M 243.632812 169.203125 L 299.050781 248.347656 L 193.898438 321.972656 L 138.480469 242.824219 Z M 243.632812 169.203125 " clip-rule="nonzero"/></clipPath><clipPath id="d1548daaab"><path d="M 44 111 L 216 111 L 216 203 L 44 203 Z M 44 111 " clip-rule="nonzero"/></clipPath><clipPath id="62672c3b94"><path d="M 178.242188 56.421875 L 308.582031 242.578125 L 127.339844 369.476562 L -3 183.316406 Z M 178.242188 56.421875 " clip-rule="nonzero"/></clipPath><clipPath id="2fa10daec2"><path d="M 178.242188 56.421875 L 308.582031 242.578125 L 127.339844 369.476562 L -3 183.316406 Z M 178.242188 56.421875 " clip-rule="nonzero"/></clipPath><clipPath id="39b70e57a7"><path d="M 43 161 L 216 161 L 216 302 L 43 302 Z M 43 161 " clip-rule="nonzero"/></clipPath><clipPath id="7ea7d03d75"><path d="M 178.242188 56.421875 L 308.582031 242.578125 L 127.339844 369.476562 L -3 183.316406 Z M 178.242188 56.421875 " clip-rule="nonzero"/></clipPath><clipPath id="e47cff6507"><path d="M 178.242188 56.421875 L 308.582031 242.578125 L 127.339844 369.476562 L -3 183.316406 Z M 178.242188 56.421875 " clip-rule="nonzero"/></clipPath><clipPath id="dbe0932c2b"><path d="M 163.203125 114.769531 L 239.996094 224.449219 L 96.210938 325.121094 L 19.417969 215.441406 Z M 163.203125 114.769531 " clip-rule="nonzero"/></clipPath><clipPath id="b659db9f35"><path d="M 163.203125 114.769531 L 239.996094 224.449219 L 96.265625 325.082031 L 19.472656 215.402344 Z M 163.203125 114.769531 " clip-rule="nonzero"/></clipPath><clipPath id="c6395de0d4"><path d="M 215 149 L 264 149 L 264 198 L 215 198 Z M 215 149 " clip-rule="nonzero"/></clipPath><clipPath id="82d3f96c0a"><path d="M 178.242188 56.421875 L 308.582031 242.578125 L 127.339844 369.476562 L -3 183.316406 Z M 178.242188 56.421875 " clip-rule="nonzero"/></clipPath><clipPath id="3dc389fac8"><path d="M 178.242188 56.421875 L 308.582031 242.578125 L 127.339844 369.476562 L -3 183.316406 Z M 178.242188 56.421875 " clip-rule="nonzero"/></clipPath><clipPath id="d34cea5e02"><path d="M 188 166 L 234 166 L 234 216 L 188 216 Z M 188 166 " clip-rule="nonzero"/></clipPath><clipPath id="faaf8c5c29"><path d="M 178.242188 56.421875 L 308.582031 242.578125 L 127.339844 369.476562 L -3 183.316406 Z M 178.242188 56.421875 " clip-rule="nonzero"/></clipPath><clipPath id="c5bffc7888"><path d="M 178.242188 56.421875 L 308.582031 242.578125 L 127.339844 369.476562 L -3 183.316406 Z M 178.242188 56.421875 " clip-rule="nonzero"/></clipPath><clipPath id="930e8f0ed8"><path d="M 29 36 L 219 36 L 219 180 L 29 180 Z M 29 36 " clip-rule="nonzero"/></clipPath><clipPath id="722c28ec77"><path d="M -48.410156 101.046875 L 212.203125 -4.699219 L 267.191406 130.816406 L 6.578125 236.566406 Z M -48.410156 101.046875 " clip-rule="nonzero"/></clipPath><clipPath id="868e7857ab"><path d="M -48.410156 101.046875 L 212.203125 -4.699219 L 267.191406 130.816406 L 6.578125 236.566406 Z M -48.410156 101.046875 " clip-rule="nonzero"/></clipPath><clipPath id="07d64ea532"><path d="M -48.410156 101.046875 L 212.203125 -4.699219 L 267.191406 130.816406 L 6.578125 236.566406 Z M -48.410156 101.046875 " clip-rule="nonzero"/></clipPath><clipPath id="8172340cce"><path d="M 32 86 L 219 86 L 219 180 L 32 180 Z M 32 86 " clip-rule="nonzero"/></clipPath><clipPath id="b588bfafb5"><path d="M -48.410156 101.046875 L 212.203125 -4.699219 L 267.191406 130.816406 L 6.578125 236.566406 Z M -48.410156 101.046875 " clip-rule="nonzero"/></clipPath><clipPath id="9097f14e77"><path d="M -48.410156 101.046875 L 212.203125 -4.699219 L 267.191406 130.816406 L 6.578125 236.566406 Z M -48.410156 101.046875 " clip-rule="nonzero"/></clipPath><clipPath id="5624590147"><path d="M -48.410156 101.046875 L 212.203125 -4.699219 L 267.191406 130.816406 L 6.578125 236.566406 Z M -48.410156 101.046875 " clip-rule="nonzero"/></clipPath><clipPath id="da8715986b"><path d="M 4 102 L 255 102 L 255 211 L 4 211 Z M 4 102 " clip-rule="nonzero"/></clipPath><clipPath id="4055e094f9"><path d="M -48.410156 101.046875 L 212.203125 -4.699219 L 267.191406 130.816406 L 6.578125 236.566406 Z M -48.410156 101.046875 " clip-rule="nonzero"/></clipPath><clipPath id="31c136a265"><path d="M -48.410156 101.046875 L 212.203125 -4.699219 L 267.191406 130.816406 L 6.578125 236.566406 Z M -48.410156 101.046875 " clip-rule="nonzero"/></clipPath><clipPath id="73a89a4185"><path d="M -48.410156 101.046875 L 212.203125 -4.699219 L 267.191406 130.816406 L 6.578125 236.566406 Z M -48.410156 101.046875 " clip-rule="nonzero"/></clipPath><clipPath id="607662fb2e"><path d="M 67 67 L 108 67 L 108 71 L 67 71 Z M 67 67 " clip-rule="nonzero"/></clipPath><clipPath id="753352437c"><path d="M -48.410156 101.046875 L 212.203125 -4.699219 L 267.191406 130.816406 L 6.578125 236.566406 Z M -48.410156 101.046875 " clip-rule="nonzero"/></clipPath><clipPath id="8b7a40d953"><path d="M -48.410156 101.046875 L 212.203125 -4.699219 L 267.191406 130.816406 L 6.578125 236.566406 Z M -48.410156 101.046875 " clip-rule="nonzero"/></clipPath><clipPath id="f25729ddd2"><path d="M -48.410156 101.046875 L 212.203125 -4.699219 L 267.191406 130.816406 L 6.578125 236.566406 Z M -48.410156 101.046875 " clip-rule="nonzero"/></clipPath><clipPath id="65bc390819"><path d="M 3 34 L 257 34 L 257 213 L 3 213 Z M 3 34 " clip-rule="nonzero"/></clipPath><clipPath id="ea1b4d6b42"><path d="M -48.410156 101.046875 L 212.203125 -4.699219 L 267.191406 130.816406 L 6.578125 236.566406 Z M -48.410156 101.046875 " clip-rule="nonzero"/></clipPath><clipPath id="ea03b0f633"><path d="M -48.410156 101.046875 L 212.203125 -4.699219 L 267.191406 130.816406 L 6.578125 236.566406 Z M -48.410156 101.046875 " clip-rule="nonzero"/></clipPath><clipPath id="509573c526"><path d="M -48.410156 101.046875 L 212.203125 -4.699219 L 267.191406 130.816406 L 6.578125 236.566406 Z M -48.410156 101.046875 " clip-rule="nonzero"/></clipPath></defs><g clip-path="url(#13d907caa5)"><g clip-path="url(#983ff848b3)"><g clip-path="url(#d201f5584b)"><g clip-path="url(#149b4b394c)"><path fill="#c19b7a" d="M 145.019531 266.941406 L 315.472656 167.371094 L 318.863281 173.117188 L 332.070312 166.074219 C 337.761719 177.78125 343.765625 192.660156 348.203125 210.371094 C 353.898438 233.144531 355.179688 253.253906 354.988281 268.542969 C 360.582031 257.796875 372.128906 231.960938 368.589844 198.464844 C 366.511719 178.9375 360.023438 163.710938 354.804688 153.949219 L 362.441406 149.867188 C 362.101562 141.695312 359.089844 135.699219 357.4375 132.910156 C 353.285156 125.84375 347.820312 121.964844 345.054688 120.265625 L 337.75 124.914062 C 331.765625 115.597656 321.621094 102.507812 305.558594 91.148438 C 277.992188 71.6875 249.75 69.09375 237.613281 68.703125 C 251.078125 76.015625 268.042969 86.964844 285.171875 103.058594 C 298.496094 115.578125 308.574219 128.082031 316.027344 138.757812 L 303.40625 146.800781 L 306.773438 152.558594 L 136.320312 252.128906 C 132.226562 254.519531 130.851562 259.777344 133.253906 263.867188 C 134.453125 265.910156 136.367188 267.277344 138.511719 267.835938 C 140.636719 268.390625 142.972656 268.136719 145.019531 266.941406 Z M 145.019531 266.941406 " fill-opacity="1" fill-rule="nonzero"/></g></g></g></g><g clip-path="url(#f3bde727d4)"><g clip-path="url(#135836f955)"><g clip-path="url(#48e813b6ed)"><g clip-path="url(#c3061bb4ca)"><path fill="#d2d2d1" d="M 337.75 124.914062 L 316.027344 138.757812 C 308.570312 128.082031 298.496094 115.578125 285.171875 103.058594 C 268.042969 86.964844 251.078125 76.015625 237.613281 68.707031 C 249.75 69.09375 277.992188 71.6875 305.558594 91.148438 C 321.621094 102.507812 331.765625 115.597656 337.75 124.914062 Z M 337.75 124.914062 " fill-opacity="1" fill-rule="nonzero"/></g></g></g></g><g clip-path="url(#ebcdc8a599)"><g clip-path="url(#4aa9248068)"><g clip-path="url(#4535af4234)"><g clip-path="url(#f8228f5e84)"><path fill="#d2d2d1" d="M 354.988281 268.542969 C 355.179688 253.253906 353.898438 233.144531 348.203125 210.371094 C 343.765625 192.660156 337.761719 177.78125 332.070312 166.074219 L 354.804688 153.949219 C 360.023438 163.710938 366.511719 178.9375 368.589844 198.464844 C 372.128906 231.960938 360.582031 257.796875 354.988281 268.542969 Z M 354.988281 268.542969 " fill-opacity="1" fill-rule="nonzero"/></g></g></g></g><g clip-path="url(#3d0e455bab)"><g clip-path="url(#d78c191fd3)"><g clip-path="url(#9537285d4f)"><g clip-path="url(#8eedf419d2)"><path fill="#604533" d="M 332.070312 166.074219 L 318.863281 173.117188 L 315.472656 167.371094 L 311.132812 159.960938 L 306.773438 152.558594 L 303.40625 146.800781 L 316.027344 138.757812 L 337.75 124.914062 L 345.054688 120.265625 C 347.820312 121.964844 353.285156 125.84375 357.4375 132.910156 C 359.089844 135.699219 362.101562 141.695312 362.441406 149.867188 L 354.804688 153.949219 Z M 332.070312 166.074219 " fill-opacity="1" fill-rule="nonzero"/></g></g></g></g><g clip-path="url(#69c372823a)"><g clip-path="url(#00aacf2bb5)"><g clip-path="url(#bd16e7895f)"><path fill="#e6373b" d="M 215.015625 189.253906 L 242.847656 149.074219 C 213.257812 108.96875 159.171875 92.621094 111.214844 112.664062 C 109.578125 113.347656 107.964844 114.074219 106.375 114.832031 C 153.308594 101.675781 202.339844 128.667969 215.015625 189.253906 " fill-opacity="1" fill-rule="nonzero"/></g></g></g><g clip-path="url(#4a314eae1a)"><g clip-path="url(#448486d54a)"><g clip-path="url(#5a3d5ee66f)"><path fill="#ffde59" d="M 215.015625 189.253906 C 211.523438 247.917969 154.816406 304.714844 85.832031 301.804688 C 115.039062 324.660156 154.878906 332.195312 191.769531 318.792969 C 234.101562 294.644531 249.292969 240.816406 215.015625 189.253906 " fill-opacity="1" fill-rule="nonzero"/></g></g></g><g clip-path="url(#941e74295c)"><g clip-path="url(#2ebbe76aa6)"><g clip-path="url(#524fa9012b)"><g clip-path="url(#1d30217b49)"><g clip-path="url(#3da9bdea99)"><path fill="#e6373b" d="M 263.191406 197.671875 L 215.015625 189.253906 C 249.292969 240.816406 234.101562 294.644531 191.769531 318.792969 C 193.421875 318.1875 195.070312 317.558594 196.710938 316.871094 C 244.667969 296.832031 270.996094 246.882812 263.191406 197.671875 " fill-opacity="1" fill-rule="nonzero"/></g></g></g></g></g><g clip-path="url(#d1548daaab)"><g clip-path="url(#62672c3b94)"><g clip-path="url(#2fa10daec2)"><path fill="#ffde59" d="M 215.015625 189.253906 C 202.339844 128.667969 153.308594 101.675781 106.375 114.832031 C 70.921875 131.65625 48.3125 165.289062 44.101562 202.105469 C 90.460938 151 170.765625 150.550781 215.015625 189.253906 " fill-opacity="1" fill-rule="nonzero"/></g></g></g><g clip-path="url(#39b70e57a7)"><g clip-path="url(#7ea7d03d75)"><g clip-path="url(#e47cff6507)"><g clip-path="url(#dbe0932c2b)"><g clip-path="url(#b659db9f35)"><path fill="#5271ff" d="M 215.015625 189.253906 C 170.765625 150.550781 90.460938 151 44.101562 202.105469 C 42.015625 220.308594 44.398438 239.277344 51.980469 257.386719 C 59.5625 275.492188 71.40625 290.507812 85.832031 301.804688 C 154.816406 304.714844 211.523438 247.917969 215.015625 189.253906 " fill-opacity="1" fill-rule="nonzero"/></g></g></g></g></g><g clip-path="url(#c6395de0d4)"><g clip-path="url(#82d3f96c0a)"><g clip-path="url(#3dc389fac8)"><path fill="#5271ff" d="M 263.191406 197.671875 C 261.832031 189.085938 259.457031 180.527344 255.945312 172.152344 C 252.445312 163.773438 248.007812 156.070312 242.847656 149.074219 L 215.015625 189.253906 L 263.191406 197.671875 " fill-opacity="1" fill-rule="nonzero"/></g></g></g><g clip-path="url(#d34cea5e02)"><g clip-path="url(#faaf8c5c29)"><g clip-path="url(#c5bffc7888)"><path fill="#ffffff" d="M 220.566406 213.683594 C 209.578125 218.273438 196.40625 211.804688 191.140625 199.230469 C 185.875 186.660156 190.519531 172.742188 201.503906 168.152344 C 212.492188 163.5625 225.667969 170.027344 230.933594 182.601562 C 236.203125 195.179688 231.558594 209.089844 220.566406 213.683594 " fill-opacity="1" fill-rule="nonzero"/></g></g></g><g clip-path="url(#930e8f0ed8)"><g clip-path="url(#722c28ec77)"><g clip-path="url(#868e7857ab)"><g clip-path="url(#07d64ea532)"><path fill="#f4a637" d="M 218.648438 105.894531 C 218.648438 105.894531 164.730469 14.640625 125.71875 40.964844 C 84.496094 68.773438 57.855469 68.5 57.855469 68.5 C 12.007812 79.121094 36.441406 179.828125 36.441406 179.828125 C 36.441406 179.828125 132.261719 174.417969 218.648438 105.894531 " fill-opacity="1" fill-rule="nonzero"/></g></g></g></g><g clip-path="url(#8172340cce)"><g clip-path="url(#b588bfafb5)"><g clip-path="url(#9097f14e77)"><g clip-path="url(#5624590147)"><path fill="#293034" d="M 205.664062 86.558594 C 174.996094 111.523438 147.273438 125.574219 124.3125 134.890625 C 101.34375 144.210938 71.675781 153.445312 32.277344 156.910156 C 32.277344 156.910156 35.191406 176.5625 36.441406 179.828125 C 36.441406 179.828125 78.777344 178.1875 132.726562 155.632812 C 187.136719 134.21875 218.648438 105.894531 218.648438 105.894531 C 217.269531 102.683594 205.664062 86.558594 205.664062 86.558594 " fill-opacity="1" fill-rule="nonzero"/></g></g></g></g><g clip-path="url(#da8715986b)"><g clip-path="url(#4055e094f9)"><g clip-path="url(#31c136a265)"><g clip-path="url(#73a89a4185)"><path fill="#f4a637" d="M 130.09375 156.6875 C 78.425781 177.972656 36.441406 179.828125 36.441406 179.828125 C 15.265625 192.027344 3.136719 201.921875 5.046875 206.632812 C 8.886719 216.097656 70.601562 207.859375 139.511719 179.898438 C 208.417969 151.941406 258.425781 114.84375 254.585938 105.378906 C 252.824219 101.039062 239.460938 101.847656 218.855469 106.691406 C 218.855469 106.691406 167.257812 143.890625 130.09375 156.6875 " fill-opacity="1" fill-rule="nonzero"/></g></g></g></g><g clip-path="url(#607662fb2e)"><g clip-path="url(#753352437c)"><g clip-path="url(#8b7a40d953)"><g clip-path="url(#f25729ddd2)"><path fill="#231e1f" d="M 67.402344 67.332031 C 67.402344 67.332031 82.222656 67.125 89.816406 69.265625 C 97.410156 71.402344 102.78125 69.660156 107.625 67.695312 " fill-opacity="1" fill-rule="nonzero"/></g></g></g></g><g clip-path="url(#65bc390819)"><g clip-path="url(#ea1b4d6b42)"><g clip-path="url(#ea03b0f633)"><g clip-path="url(#509573c526)"><path fill="#231e1f" d="M 252.40625 108.65625 C 251.164062 111.308594 248.941406 113.582031 246.925781 115.65625 C 239.484375 123.3125 230.441406 129.5625 221.605469 135.46875 C 192.882812 154.667969 161.273438 169.800781 129.078125 182.171875 C 99.28125 193.621094 68.050781 203.152344 36.324219 207.367188 C 28.035156 208.464844 19 209.644531 10.695312 207.964844 C 9.679688 207.757812 8.699219 207.441406 7.773438 206.972656 C 7.21875 206.695312 6.78125 206.203125 6.742188 206.042969 C 6.007812 203.085938 11.441406 199.09375 13.230469 197.570312 C 17.835938 193.640625 22.953125 190.296875 28.066406 187.070312 C 29.578125 186.117188 31.109375 185.1875 32.640625 184.261719 C 33.492188 183.75 35.871094 181.761719 36.714844 181.71875 C 50.546875 181.167969 64.480469 178.511719 77.988281 175.300781 C 85.46875 173.585938 92.886719 171.601562 100.234375 169.363281 C 113.269531 165.460938 126.144531 160.828125 138.71875 155.503906 C 145.917969 152.636719 152.96875 149.335938 159.890625 145.742188 C 166.296875 142.546875 172.605469 139.183594 178.785156 135.640625 C 190.609375 128.859375 202.5625 121.5 213.3125 112.898438 C 215.351562 111.496094 217.386719 110.085938 219.402344 108.652344 C 220.328125 107.992188 221.296875 108.082031 222.472656 107.816406 C 226.753906 106.855469 231.0625 106.03125 235.402344 105.375 C 240.355469 104.621094 246.535156 103.464844 251.4375 105.125 C 253.535156 105.832031 253.226562 106.902344 252.40625 108.65625 Z M 35.558594 95.023438 C 37.839844 87.445312 41.625 80.097656 47.964844 75.167969 C 52.105469 71.949219 56.480469 70.691406 61.503906 70.171875 C 63.71875 69.9375 65.925781 69.621094 68.121094 69.222656 C 73.636719 69.171875 79.195312 69.4375 84.660156 70.171875 C 88.597656 70.703125 92.34375 72.132812 96.347656 72.136719 C 100.566406 72.136719 104.460938 71.027344 108.347656 69.472656 C 110.511719 68.601562 109.148438 65.238281 106.980469 66.109375 C 102.882812 67.75 98.871094 68.796875 94.417969 68.410156 C 90.519531 68.074219 86.71875 66.730469 82.804688 66.292969 C 82.09375 66.210938 81.382812 66.160156 80.667969 66.09375 C 97.207031 60.894531 112.90625 51.859375 126.859375 42.496094 C 141.371094 32.757812 158.25 41.332031 170.398438 50.835938 C 183.078125 60.75 193.703125 73.3125 203.234375 86.296875 C 154.535156 125.371094 96.03125 149.113281 33.871094 155.027344 C 33.652344 153.304688 33.4375 151.585938 33.242188 149.867188 C 31.195312 131.886719 30.289062 112.542969 35.558594 95.023438 Z M 35.726562 167.027344 C 35.261719 164.230469 34.820312 161.425781 34.398438 158.621094 C 97.078125 152.640625 156.210938 128.648438 205.339844 89.257812 C 206.863281 91.394531 208.375 93.535156 209.875 95.6875 C 210.214844 96.179688 210.570312 96.671875 210.925781 97.171875 C 212.785156 99.917969 214.59375 102.703125 216.3125 105.535156 C 211.335938 109.429688 206.246094 113.1875 201.054688 116.800781 C 187.816406 125.582031 174.226562 133.929688 160.164062 141.316406 C 157.765625 142.539062 155.351562 143.730469 152.925781 144.902344 C 145.707031 148.261719 138.390625 151.421875 131.007812 154.492188 C 130.683594 154.628906 130.351562 154.757812 130.027344 154.890625 C 129.832031 154.957031 129.644531 155.03125 129.449219 155.101562 C 126.074219 156.480469 122.679688 157.8125 119.265625 159.09375 C 98.25 166.710938 76.539062 172.367188 54.558594 175.894531 C 49.042969 176.777344 43.46875 177.601562 37.886719 178.007812 C 37.222656 175.144531 36.628906 172.265625 36.089844 169.371094 C 35.972656 168.582031 35.855469 167.796875 35.726562 167.027344 Z M 248.902344 100.960938 C 242.757812 100.328125 236.359375 101.464844 230.335938 102.535156 C 227.066406 103.113281 223.261719 103.5 219.960938 104.5 C 218.550781 101.664062 216.636719 99 214.785156 96.398438 C 211.117188 90.855469 207.199219 85.464844 203.179688 80.203125 C 192.261719 65.921875 179.761719 51.703125 164.355469 42.171875 C 157.6875 38.046875 150.167969 34.816406 142.25 34.507812 C 131.742188 34.097656 124.464844 39.976562 115.910156 45.238281 C 103.691406 52.753906 90.59375 59.074219 76.839844 63.230469 C 73.773438 64.160156 70.625 64.992188 67.441406 65.621094 C 67.371094 65.621094 67.296875 65.621094 67.226562 65.621094 C 66.917969 65.625 66.660156 65.695312 66.445312 65.808594 C 63.828125 66.289062 61.183594 66.636719 58.542969 66.765625 C 52.726562 67.050781 46.707031 70.988281 42.703125 74.988281 C 36.949219 80.730469 33.664062 88.308594 31.523438 96.050781 C 26.671875 113.621094 27.660156 132.859375 29.707031 150.792969 C 30.433594 157.199219 31.34375 163.628906 32.527344 169.992188 C 32.988281 173.039062 33.449219 176.167969 34.316406 179.101562 C 33.054688 179.726562 31.84375 180.542969 30.433594 181.382812 C 23.902344 185.285156 17.453125 189.421875 11.558594 194.242188 C 8.496094 196.746094 4.859375 199.804688 3.457031 203.648438 C -1.402344 216.96875 35.105469 211.21875 39.550781 210.585938 C 71.390625 206.042969 102.695312 196.269531 132.605469 184.699219 C 164.375 172.414062 195.410156 157.222656 223.8125 138.347656 C 232.707031 132.4375 241.566406 126.109375 249.140625 118.535156 C 252.207031 115.464844 257.90625 110.085938 256.40625 105.105469 C 255.472656 102.015625 251.65625 101.242188 248.902344 100.960938 " fill-opacity="1" fill-rule="nonzero"/></g></g></g></g></svg>