<svg xmlns="http://www.w3.org/2000/svg" version="1.1" width="3300" height="2000"><g id="Notes"><style>
    text {
      font-family: monospace;
      text-anchor: middle;
    }
    text.emphasis {
      font-weight:bold;
    }
    text.lanchor {
      text-anchor: start;
    }
  </style><rect height="2200" id="artboard" fill="white" width="3300" x="0" y="0"/><line id="" style="fill:none;stroke:black;stroke-width:0.5;" x1="263" x2="3036" y1="292" y2="292"/><text class="lanchor emphasis" transform="matrix(1 0 0 1 263 322)">Weight/Scale Variations</text><text transform="matrix(1 0 0 1 559.711 322)">Ultralight</text><text transform="matrix(1 0 0 1 856.422 322)">Thin</text><text transform="matrix(1 0 0 1 1153.13 322)">Light</text><text transform="matrix(1 0 0 1 1449.84 322)">Regular</text><text transform="matrix(1 0 0 1 1746.56 322)">Medium</text><text transform="matrix(1 0 0 1 2043.27 322)">Semibold</text><text transform="matrix(1 0 0 1 2339.98 322)">Bold</text><text transform="matrix(1 0 0 1 2636.69 322)">Heavy</text><text transform="matrix(1 0 0 1 2933.4 322)">Black</text><text id="template-version" style="text-anchor: end;" transform="matrix(1 0 0 1 3036 1933)">Template v.1.0</text><text class="lanchor" transform="matrix(1 0 0 1 263 726)">Small</text><text class="lanchor" transform="matrix(1 0 0 1 263 1156)">Medium</text><text class="lanchor" transform="matrix(1 0 0 1 263 1586)">Large</text></g><g id="Guides"><g id="H-reference" style="fill:#27AAE1;stroke:none;" transform="matrix(1 0 0 1 339 696)"><path d="M 54.9316 0 L 57.666 0 L 30.5664 -70.459 L 28.0762 -70.459 L 0.976562 0 L 3.66211 0 L 12.9395 -24.4629 L 45.7031 -24.4629 Z M 29.1992 -67.0898 L 29.4434 -67.0898 L 44.8242 -26.709 L 13.8184 -26.709 Z"/></g><line id="Baseline-S" style="fill:none;stroke:#27AAE1;opacity:1;stroke-width:0.577;" x1="263" x2="3036" y1="696" y2="696"/><line id="Capline-S" style="fill:none;stroke:#27AAE1;opacity:1;stroke-width:0.577;" x1="263" x2="3036" y1="625.541" y2="625.541"/><g id="H-reference" style="fill:#27AAE1;stroke:none;" transform="matrix(1 0 0 1 339 1126)"><path d="M 54.9316 0 L 57.666 0 L 30.5664 -70.459 L 28.0762 -70.459 L 0.976562 0 L 3.66211 0 L 12.9395 -24.4629 L 45.7031 -24.4629 Z M 29.1992 -67.0898 L 29.4434 -67.0898 L 44.8242 -26.709 L 13.8184 -26.709 Z"/></g><line id="Baseline-M" style="fill:none;stroke:#27AAE1;opacity:1;stroke-width:0.577;" x1="263" x2="3036" y1="1126" y2="1126"/><line id="Capline-M" style="fill:none;stroke:#27AAE1;opacity:1;stroke-width:0.577;" x1="263" x2="3036" y1="1055.54" y2="1055.54"/><g id="H-reference" style="fill:#27AAE1;stroke:none;" transform="matrix(1 0 0 1 339 1556)"><path d="M 54.9316 0 L 57.666 0 L 30.5664 -70.459 L 28.0762 -70.459 L 0.976562 0 L 3.66211 0 L 12.9395 -24.4629 L 45.7031 -24.4629 Z M 29.1992 -67.0898 L 29.4434 -67.0898 L 44.8242 -26.709 L 13.8184 -26.709 Z"/></g><line id="Baseline-L" style="fill:none;stroke:#27AAE1;opacity:1;stroke-width:0.577;" x1="263" x2="3036" y1="1556" y2="1556"/><line id="Capline-L" style="fill:none;stroke:#27AAE1;opacity:1;stroke-width:0.577;" x1="263" x2="3036" y1="1485.54" y2="1485.54"/><rect height="119.336" id="left-margin" style="fill:darkred;stroke:none;opacity:0.4;" width="12.4512" x="1394.06" y="1030.79"/><rect height="119.336" id="right-margin" style="fill:darkgreen;stroke:none;opacity:0.4;" width="12.4512" x="1502.5112" y="1030.79"/><rect x="1406.5112" y="1045" width="96" height="96" fill="none" stroke="blue" stroke-dasharray="5"/><rect x="1394.06" y="1030.79" width="120.9024" height="119.336" fill="none" stroke="blue"/></g><g id="Symbols"><g id="Bold-L" transform="matrix(1 0 0 1 2266 1556)"><path d="M77.37178125 12.661250000000017 Q74.175 12.661250000000017 71.998125 10.464218750000015 Q69.82125 8.267187500000013 69.82125 5.082500000000017 V-27.65124999999999 H37.0875 Q33.9028125 -27.65124999999999 31.70578125 -29.856343749999994 Q29.50875 -32.06159874999999 29.50875 -35.25821874999998 Q29.50875 -38.454999999999984 31.70578125 -40.63187499999998 Q33.9028125 -42.80874999999999 37.0875 -42.80874999999999 H69.82125 V-75.54249999999999 Q69.82125 -78.72718749999999 72.02634375000001 -80.92421875 Q74.23159875 -83.12124999999999 77.42821875 -83.12124999999999 Q80.625 -83.12124999999999 82.801875 -80.92421875 Q84.97875 -78.72718749999999 84.97875 -75.54249999999999 V-42.80874999999999 H117.7125 Q120.8971875 -42.80874999999999 123.09421875000001 -40.60365625 Q125.29125 -38.39840124999999 125.29125 -35.20178124999998 Q125.29125 -32.00499999999998 123.09421875000001 -29.828124999999986 Q120.8971875 -27.65124999999999 117.7125 -27.65124999999999 H84.97875 V5.082500000000017 Q84.97875 8.267187500000013 82.77365625000002 10.464218750000015 Q80.56840125000001 12.661250000000017 77.37178125 12.661250000000017 Z"/></g><g id="Semibold-L" transform="matrix(1 0 0 1 1970.27 1556)"><path d="M77.37178125 11.469451250000017 Q74.66568375 11.469451250000017 72.83936625 9.622977500000012 Q71.01304875000001 7.7765037500000105 71.01304875000001 5.082500000000017 V-28.843048749999994 H37.0875 Q34.393496250000005 -28.843048749999994 32.547022500000004 -30.69758499999999 Q30.70054875 -32.55228249999999 30.70054875 -35.25821874999998 Q30.70054875 -37.96431624999998 32.547022500000004 -39.790633749999984 Q34.393496250000005 -41.616951249999985 37.0875 -41.616951249999985 H71.01304875000001 V-75.54249999999999 Q71.01304875000001 -78.23650374999998 72.867585 -80.08297749999998 Q74.7222825 -81.92945125 77.42821875 -81.92945125 Q80.13431625 -81.92945125 81.96063375 -80.08297749999998 Q83.78695125 -78.23650374999998 83.78695125 -75.54249999999999 V-41.616951249999985 H117.7125 Q120.40650375 -41.616951249999985 122.2529775 -39.76241499999999 Q124.09945125000002 -37.90771749999999 124.09945125000002 -35.20178124999998 Q124.09945125000002 -32.49568374999998 122.2529775 -30.66936624999998 Q120.40650375 -28.843048749999994 117.7125 -28.843048749999994 H83.78695125 V5.082500000000017 Q83.78695125 7.7765037500000105 81.932415 9.622977500000012 Q80.0777175 11.469451250000017 77.37178125 11.469451250000017 Z"/></g><g id="Medium-L" transform="matrix(1 0 0 1 1674.31 1556)"><path d="M77.37178125 10.575481250000013 Q75.03381750000001 10.575481250000013 73.4703375 8.992006250000017 Q71.90701875 7.408370000000019 71.90701875 5.082500000000017 V-29.73701874999999 H37.0875 Q34.76163 -29.73701874999999 33.17799375 -31.328717499999982 Q31.594518750000002 -32.92041624999999 31.594518750000002 -35.25821874999998 Q31.594518750000002 -37.59618249999998 33.17799375 -39.15966249999998 Q34.76163 -40.72298124999999 37.0875 -40.72298124999999 H71.90701875 V-75.54249999999999 Q71.90701875 -77.86836999999998 73.4987175 -79.45200624999998 Q75.09041625 -81.03548124999999 77.42821875 -81.03548124999999 Q79.7661825 -81.03548124999999 81.3296625 -79.45200624999998 Q82.89298125 -77.86836999999998 82.89298125 -75.54249999999999 V-40.72298124999999 H117.7125 Q120.03837 -40.72298124999999 121.62200625 -39.13128249999998 Q123.20548125 -37.53958374999998 123.20548125 -35.20178124999998 Q123.20548125 -32.863817499999996 121.62200625 -31.300337499999983 Q120.03837 -29.73701874999999 117.7125 -29.73701874999999 H82.89298125 V5.082500000000017 Q82.89298125 7.408370000000019 81.3012825 8.992006250000017 Q79.70958375 10.575481250000013 77.37178125 10.575481250000013 Z"/></g><g id="Regular-L" transform="matrix(1 0 0 1 1378.56 1556)"><path d="M77.37178125 9.920000000000016 Q75.30375000000001 9.920000000000016 73.933125 8.529218750000013 Q72.5625 7.138437500000016 72.5625 5.082500000000017 V-30.392499999999984 H37.0875 Q35.0315625 -30.392499999999984 33.64078125 -31.79134374999998 Q32.25 -33.190348749999984 32.25 -35.25821874999998 Q32.25 -37.32624999999999 33.64078125 -38.69687499999999 Q35.0315625 -40.06749999999998 37.0875 -40.06749999999998 H72.5625 V-75.54249999999999 Q72.5625 -77.59843749999999 73.96134375 -78.98921874999999 Q75.36034875 -80.37999999999998 77.42821875 -80.37999999999998 Q79.49625 -80.37999999999998 80.86687500000001 -78.98921874999999 Q82.2375 -77.59843749999999 82.2375 -75.54249999999999 V-40.06749999999998 H117.7125 Q119.7684375 -40.06749999999998 121.15921875000001 -38.668656249999984 Q122.55 -37.26965124999998 122.55 -35.20178124999998 Q122.55 -33.13374999999999 121.15921875000001 -31.763124999999988 Q119.7684375 -30.392499999999984 117.7125 -30.392499999999984 H82.2375 V5.082500000000017 Q82.2375 7.138437500000016 80.83865625 8.529218750000013 Q79.43965125 9.920000000000016 77.37178125 9.920000000000016 Z"/></g><g id="Light-L" transform="matrix(1 0 0 1 1082.77 1556)"><path d="M77.36839499999999 8.307338750000014 Q75.79991625 8.307338750000014 74.77049625 7.255343750000016 Q73.740915 6.203510000000016 73.740915 4.648253750000016 V-31.570914999999985 H37.52174625 Q35.96649 -31.570914999999985 34.91465625 -32.631939999999986 Q33.86266125 -33.69312624999999 33.86266125 -35.26160499999999 Q33.86266125 -36.830083749999986 34.91465625 -37.85950374999999 Q35.96649 -38.889084999999994 37.52174625 -38.889084999999994 H73.740915 V-75.10825374999999 Q73.740915 -76.66334875 74.80194 -77.71534374999999 Q75.86312625000001 -78.76733875 77.431605 -78.76733875 Q79.00008375 -78.76733875 80.02950375 -77.71534374999999 Q81.05908500000001 -76.66334875 81.05908500000001 -75.10825374999999 V-38.889084999999994 H117.27825375 Q118.83334875000001 -38.889084999999994 119.88534375 -37.828059999999994 Q120.93733875000001 -36.76687374999999 120.93733875000001 -35.19839499999998 Q120.93733875000001 -33.62991624999998 119.88534375 -32.60049624999998 Q118.83334875000001 -31.570914999999985 117.27825375 -31.570914999999985 H81.05908500000001 V4.648253750000016 Q81.05908500000001 6.203510000000016 79.99806000000001 7.255343750000016 Q78.93687375 8.307338750000014 77.36839499999999 8.307338750000014 Z"/></g><g id="Thin-L" transform="matrix(1 0 0 1 787.282 1556)"><path d="M77.36517 6.6950000000000145 Q76.2960825 6.6950000000000145 75.60770625 5.981791250000015 Q74.91916875 5.268582500000015 74.91916875 4.214168750000013 V-32.74916874999998 H37.95583125 Q36.9014175 -32.74916874999998 36.18820875 -33.472374999999985 Q35.475 -34.195742499999994 35.475 -35.26482999999999 Q35.475 -36.333917499999984 36.18820875 -37.02229374999999 Q36.9014175 -37.710831249999984 37.95583125 -37.710831249999984 H74.91916875 V-74.67416874999999 Q74.91916875 -75.72858249999999 75.642375 -76.44179124999998 Q76.36574250000001 -77.15499999999999 77.43483 -77.15499999999999 Q78.5039175 -77.15499999999999 79.19229375 -76.44179124999998 Q79.88083125 -75.72858249999999 79.88083125 -74.67416874999999 V-37.710831249999984 H116.84416875000001 Q117.8985825 -37.710831249999984 118.61179125 -36.98762499999998 Q119.325 -36.264257499999985 119.325 -35.19516999999999 Q119.325 -34.12608249999998 118.61179125 -33.43770624999999 Q117.8985825 -32.74916874999998 116.84416875000001 -32.74916874999998 H79.88083125 V4.214168750000013 Q79.88083125 5.268582500000015 79.157625 5.981791250000015 Q78.4342575 6.6950000000000145 77.36517 6.6950000000000145 Z"/></g><g id="Ultralight-L" transform="matrix(1 0 0 1 491.205 1556)"><path d="M77.363235 5.727500000000013 Q76.59375 5.727500000000013 76.11 5.217466250000015 Q75.62625 4.707593750000015 75.62625 3.9537500000000136 V-33.45624999999998 H38.21625 Q37.46240625 -33.45624999999998 36.95253375 -33.976764999999986 Q36.4425 -34.49727999999999 36.4425 -35.26676499999999 Q36.4425 -36.03624999999998 36.95253375 -36.51999999999998 Q37.46240625 -37.00374999999998 38.21625 -37.00374999999998 H75.62625 V-74.41375 Q75.62625 -75.16759374999998 76.146765 -75.67762749999999 Q76.66728 -76.18749999999999 77.43676500000001 -76.18749999999999 Q78.20625 -76.18749999999999 78.69 -75.67762749999999 Q79.17375 -75.16759374999998 79.17375 -74.41375 V-37.00374999999998 H116.58375000000001 Q117.33759375 -37.00374999999998 117.8476275 -36.48323499999998 Q118.3575 -35.96271999999999 118.3575 -35.19323499999999 Q118.3575 -34.423749999999984 117.8476275 -33.93999999999998 Q117.33759375 -33.45624999999998 116.58375000000001 -33.45624999999998 H79.17375 V3.9537500000000136 Q79.17375 4.707593750000015 78.653235 5.217466250000015 Q78.13272 5.727500000000013 77.363235 5.727500000000013 Z"/></g><g id="Bold-M" transform="matrix(1 0 0 1 2281.8 1126)"><path d="M60.0 2.6450000000000102 Q56.75 2.6450000000000102 54.4375 0.33250000000001023 Q52.125 -1.9799999999999898 52.125 -5.22999999999999 V-27.35499999999999 H30.0 Q26.75 -27.35499999999999 24.4375 -29.66749999999999 Q22.125 -31.97999999999999 22.125 -35.22999999999999 Q22.125 -38.47999999999999 24.4375 -40.79249999999999 Q26.75 -43.10499999999999 30.0 -43.10499999999999 H52.125 V-65.22999999999999 Q52.125 -68.47999999999999 54.4375 -70.79249999999999 Q56.75 -73.10499999999999 60.0 -73.10499999999999 Q63.25 -73.10499999999999 65.5625 -70.79249999999999 Q67.875 -68.47999999999999 67.875 -65.22999999999999 V-43.10499999999999 H90.0 Q93.25 -43.10499999999999 95.5625 -40.79249999999999 Q97.875 -38.47999999999999 97.875 -35.22999999999999 Q97.875 -31.97999999999999 95.5625 -29.66749999999999 Q93.25 -27.35499999999999 90.0 -27.35499999999999 H67.875 V-5.22999999999999 Q67.875 -1.9799999999999898 65.5625 0.33250000000001023 Q63.25 2.6450000000000102 60.0 2.6450000000000102 Z"/></g><g id="Semibold-M" transform="matrix(1 0 0 1 1985.97 1126)"><path d="M60.0 1.3951250000000108 Q57.239125 1.3951250000000108 55.307 -0.5369999999999884 Q53.374875 -2.469124999999991 53.374875 -5.22999999999999 V-28.604874999999993 H30.0 Q27.239125 -28.604874999999993 25.307 -30.536999999999992 Q23.374875 -32.46912499999999 23.374875 -35.22999999999999 Q23.374875 -37.99087499999999 25.307 -39.92299999999999 Q27.239125 -41.85512499999999 30.0 -41.85512499999999 H53.374875 V-65.22999999999999 Q53.374875 -67.99087499999999 55.307 -69.92299999999999 Q57.239125 -71.85512499999999 60.0 -71.85512499999999 Q62.760875 -71.85512499999999 64.693 -69.92299999999999 Q66.625125 -67.99087499999999 66.625125 -65.22999999999999 V-41.85512499999999 H90.0 Q92.760875 -41.85512499999999 94.693 -39.92299999999999 Q96.625125 -37.99087499999999 96.625125 -35.22999999999999 Q96.625125 -32.46912499999999 94.693 -30.536999999999992 Q92.760875 -28.604874999999993 90.0 -28.604874999999993 H66.625125 V-5.22999999999999 Q66.625125 -2.469124999999991 64.693 -0.5369999999999884 Q62.760875 1.3951250000000108 60.0 1.3951250000000108 Z"/></g><g id="Medium-M" transform="matrix(1 0 0 1 1689.91 1126)"><path d="M60.0 0.45750000000001023 Q57.606 0.45750000000001023 55.95925 -1.1892499999999906 Q54.3125 -2.8359999999999914 54.3125 -5.22999999999999 V-29.54249999999999 H30.0 Q27.606 -29.54249999999999 25.95925 -31.189249999999987 Q24.3125 -32.83599999999999 24.3125 -35.22999999999999 Q24.3125 -37.62399999999999 25.95925 -39.27074999999999 Q27.606 -40.91749999999999 30.0 -40.91749999999999 H54.3125 V-65.22999999999999 Q54.3125 -67.624 55.95925 -69.27074999999999 Q57.606 -70.91749999999999 60.0 -70.91749999999999 Q62.394 -70.91749999999999 64.04075 -69.27074999999999 Q65.6875 -67.624 65.6875 -65.22999999999999 V-40.91749999999999 H90.0 Q92.394 -40.91749999999999 94.04075 -39.27074999999999 Q95.6875 -37.62399999999999 95.6875 -35.22999999999999 Q95.6875 -32.83599999999999 94.04075 -31.189249999999987 Q92.394 -29.54249999999999 90.0 -29.54249999999999 H65.6875 V-5.22999999999999 Q65.6875 -2.8359999999999914 64.04075 -1.1892499999999906 Q62.394 0.45750000000001023 60.0 0.45750000000001023 Z"/></g><g id="Regular-M" transform="matrix(1 0 0 1 1394.06 1126)"><path d="M60.0 -0.22999999999998977 Q57.875 -0.22999999999998977 56.4375 -1.6674999999999898 Q55.0 -3.1049999999999898 55.0 -5.22999999999999 V-30.22999999999999 H30.0 Q27.875 -30.22999999999999 26.4375 -31.66749999999999 Q25.0 -33.10499999999999 25.0 -35.22999999999999 Q25.0 -37.35499999999999 26.4375 -38.79249999999999 Q27.875 -40.22999999999999 30.0 -40.22999999999999 H55.0 V-65.22999999999999 Q55.0 -67.35499999999999 56.4375 -68.79249999999999 Q57.875 -70.22999999999999 60.0 -70.22999999999999 Q62.125 -70.22999999999999 63.5625 -68.79249999999999 Q65.0 -67.35499999999999 65.0 -65.22999999999999 V-40.22999999999999 H90.0 Q92.125 -40.22999999999999 93.5625 -38.79249999999999 Q95.0 -37.35499999999999 95.0 -35.22999999999999 Q95.0 -33.10499999999999 93.5625 -31.66749999999999 Q92.125 -30.22999999999999 90.0 -30.22999999999999 H65.0 V-5.22999999999999 Q65.0 -3.1049999999999898 63.5625 -1.6674999999999898 Q62.125 -0.22999999999998977 60.0 -0.22999999999998977 Z"/></g><g id="Light-M" transform="matrix(1 0 0 1 1098.18 1126)"><path d="M59.998375 -1.4801249999999904 Q58.403875 -1.4801249999999904 57.327 -2.5582499999999904 Q56.250125 -3.6362499999999898 56.250125 -5.22999999999999 V-31.480124999999987 H30.0 Q28.40625 -31.480124999999987 27.32825 -32.55862499999999 Q26.250125 -33.63724999999999 26.250125 -35.23162499999999 Q26.250125 -36.82612499999999 27.32825 -37.90299999999999 Q28.40625 -38.97987499999999 30.0 -38.97987499999999 H56.250125 V-65.22999999999999 Q56.250125 -66.82374999999999 57.328625 -67.90187499999999 Q58.40725 -68.97987499999999 60.001625 -68.97987499999999 Q61.596125 -68.97987499999999 62.673 -67.90187499999999 Q63.749875 -66.82374999999999 63.749875 -65.22999999999999 V-38.97987499999999 H90.0 Q91.59375 -38.97987499999999 92.671875 -37.90137499999999 Q93.749875 -36.82274999999999 93.749875 -35.22837499999999 Q93.749875 -33.63387499999999 92.671875 -32.55699999999999 Q91.59375 -31.480124999999987 90.0 -31.480124999999987 H63.749875 V-5.22999999999999 Q63.749875 -3.6362499999999898 62.671375 -2.5582499999999904 Q61.59275 -1.4801249999999904 59.998375 -1.4801249999999904 Z"/></g><g id="Thin-M" transform="matrix(1 0 0 1 802.565 1126)"><path d="M59.996625 -2.7299999999999898 Q58.932625 -2.7299999999999898 58.216375 -3.4487499999999898 Q57.5 -4.16749999999999 57.5 -5.22999999999999 V-32.72999999999999 H30.0 Q28.9375 -32.72999999999999 28.21875 -33.44974999999999 Q27.5 -34.16937499999999 27.5 -35.23337499999999 Q27.5 -36.29737499999999 28.21875 -37.01362499999999 Q28.9375 -37.72999999999999 30.0 -37.72999999999999 H57.5 V-65.22999999999999 Q57.5 -66.29249999999999 58.21975 -67.01124999999999 Q58.939375 -67.72999999999999 60.003375 -67.72999999999999 Q61.067375 -67.72999999999999 61.783625 -67.01124999999999 Q62.5 -66.29249999999999 62.5 -65.22999999999999 V-37.72999999999999 H90.0 Q91.0625 -37.72999999999999 91.78125 -37.01024999999999 Q92.5 -36.29062499999999 92.5 -35.22662499999999 Q92.5 -34.16262499999999 91.78125 -33.44637499999999 Q91.0625 -32.72999999999999 90.0 -32.72999999999999 H62.5 V-5.22999999999999 Q62.5 -4.16749999999999 61.78025 -3.4487499999999898 Q61.060625 -2.7299999999999898 59.996625 -2.7299999999999898 Z"/></g><g id="Ultralight-M" transform="matrix(1 0 0 1 506.415 1126)"><path d="M59.995625 -3.4799999999999898 Q59.25 -3.4799999999999898 58.75 -3.9831249999999905 Q58.25 -4.486249999999991 58.25 -5.22999999999999 V-33.47999999999999 H30.0 Q29.25625 -33.47999999999999 28.753125 -33.98437499999999 Q28.25 -34.48874999999999 28.25 -35.23437499999999 Q28.25 -35.97999999999999 28.753125 -36.47999999999999 Q29.25625 -36.97999999999999 30.0 -36.97999999999999 H58.25 V-65.22999999999999 Q58.25 -65.97375 58.754375 -66.47687499999999 Q59.25875 -66.97999999999999 60.004375 -66.97999999999999 Q60.75 -66.97999999999999 61.25 -66.47687499999999 Q61.75 -65.97375 61.75 -65.22999999999999 V-36.97999999999999 H90.0 Q90.74375 -36.97999999999999 91.246875 -36.47562499999999 Q91.75 -35.97124999999999 91.75 -35.22562499999999 Q91.75 -34.47999999999999 91.246875 -33.97999999999999 Q90.74375 -33.47999999999999 90.0 -33.47999999999999 H61.75 V-5.22999999999999 Q61.75 -4.486249999999991 61.245625 -3.9831249999999905 Q60.74125 -3.4799999999999898 59.995625 -3.4799999999999898 Z"/></g><g id="Bold-S" transform="matrix(1 0 0 1 2294.23 696)"><path d="M47.34 -5.346624999999989 Q44.77575 -5.346624999999989 42.852562500000005 -7.269812499999986 Q40.929375 -9.192999999999987 40.929375 -11.726380374999987 V-28.819374999999987 H23.836380375 Q21.303 -28.819374999999987 19.3798125 -30.74256249999999 Q17.456625000000003 -32.66574999999999 17.456625000000003 -35.22999999999999 Q17.456625000000003 -37.79424999999999 19.3798125 -39.71743749999999 Q21.303 -41.640624999999986 23.836380375 -41.640624999999986 H40.929375 V-58.73361962499999 Q40.929375 -61.266999999999996 42.852562500000005 -63.19018749999999 Q44.77575 -65.11337499999999 47.34 -65.11337499999999 Q49.904250000000005 -65.11337499999999 51.8274375 -63.19018749999999 Q53.750625 -61.266999999999996 53.750625 -58.73361962499999 V-41.640624999999986 H70.843619625 Q73.37700000000001 -41.640624999999986 75.3001875 -39.71743749999999 Q77.223375 -37.79424999999999 77.223375 -35.22999999999999 Q77.223375 -32.66574999999999 75.3001875 -30.74256249999999 Q73.37700000000001 -28.819374999999987 70.843619625 -28.819374999999987 H53.750625 V-11.726380374999987 Q53.750625 -9.192999999999987 51.8274375 -7.269812499999986 Q49.904250000000005 -5.346624999999989 47.34 -5.346624999999989 Z"/></g><g id="Semibold-S" transform="matrix(1 0 0 1 1998.1 696)"><path d="M47.34 -6.3327763749999875 Q45.161669625 -6.3327763749999875 43.538598 -7.955847999999985 Q41.915526375000006 -9.578919624999987 41.915526375000006 -11.726380374999987 V-29.805526374999992 H23.836380375 Q21.688919625 -29.805526374999992 20.065848 -31.428597999999987 Q18.442776375 -33.05166962499999 18.442776375 -35.22999999999999 Q18.442776375 -37.408330374999984 20.065848 -39.031401999999986 Q21.688919625 -40.65447362499999 23.836380375 -40.65447362499999 H41.915526375000006 V-58.73361962499999 Q41.915526375000006 -60.88108037499998 43.538598 -62.50415199999999 Q45.161669625 -64.12722362499998 47.34 -64.12722362499998 Q49.518330375 -64.12722362499998 51.141402 -62.50415199999999 Q52.764473625 -60.88108037499998 52.764473625 -58.73361962499999 V-40.65447362499999 H70.843619625 Q72.991080375 -40.65447362499999 74.614152 -39.031401999999986 Q76.237223625 -37.408330374999984 76.237223625 -35.22999999999999 Q76.237223625 -33.05166962499999 74.614152 -31.428597999999987 Q72.991080375 -29.805526374999992 70.843619625 -29.805526374999992 H52.764473625 V-11.726380374999987 Q52.764473625 -9.578919624999987 51.141402 -7.955847999999985 Q49.518330375 -6.3327763749999875 47.34 -6.3327763749999875 Z"/></g><g id="Medium-S" transform="matrix(1 0 0 1 1701.85 696)"><path d="M47.34 -7.072562499999986 Q45.451134 -7.072562499999986 44.05322325 -8.470473249999987 Q42.6553125 -9.868383999999988 42.6553125 -11.726380374999987 V-30.545312499999987 H23.836380375 Q21.978384000000002 -30.545312499999987 20.58047325 -31.94322324999999 Q19.1825625 -33.34113399999999 19.1825625 -35.22999999999999 Q19.1825625 -37.11886599999999 20.58047325 -38.51677674999999 Q21.978384000000002 -39.914687499999985 23.836380375 -39.914687499999985 H42.6553125 V-58.73361962499999 Q42.6553125 -60.59161599999999 44.05322325 -61.989526749999996 Q45.451134 -63.38743749999999 47.34 -63.38743749999999 Q49.228866000000004 -63.38743749999999 50.626776750000005 -61.989526749999996 Q52.0246875 -60.59161599999999 52.0246875 -58.73361962499999 V-39.914687499999985 H70.843619625 Q72.701616 -39.914687499999985 74.09952675000001 -38.51677674999999 Q75.4974375 -37.11886599999999 75.4974375 -35.22999999999999 Q75.4974375 -33.34113399999999 74.09952675000001 -31.94322324999999 Q72.701616 -30.545312499999987 70.843619625 -30.545312499999987 H52.0246875 V-11.726380374999987 Q52.0246875 -9.868383999999988 50.626776750000005 -8.470473249999987 Q49.228866000000004 -7.072562499999986 47.34 -7.072562499999986 Z"/></g><g id="Regular-S" transform="matrix(1 0 0 1 1405.73 696)"><path d="M47.34 -7.614999999999988 Q45.663375 -7.614999999999988 44.4305625 -8.847812499999986 Q43.19775 -10.080624999999987 43.19775 -11.726380374999987 V-31.087749999999986 H23.836380375 Q22.190625 -31.087749999999986 20.9578125 -32.32056249999999 Q19.725 -33.55337499999999 19.725 -35.22999999999999 Q19.725 -36.90662499999999 20.9578125 -38.139437499999985 Q22.190625 -39.37224999999999 23.836380375 -39.37224999999999 H43.19775 V-58.73361962499999 Q43.19775 -60.379374999999996 44.4305625 -61.61218749999999 Q45.663375 -62.844999999999985 47.34 -62.844999999999985 Q49.016625000000005 -62.844999999999985 50.2494375 -61.61218749999999 Q51.48225 -60.379374999999996 51.48225 -58.73361962499999 V-39.37224999999999 H70.843619625 Q72.48937500000001 -39.37224999999999 73.7221875 -38.139437499999985 Q74.955 -36.90662499999999 74.955 -35.22999999999999 Q74.955 -33.55337499999999 73.7221875 -32.32056249999999 Q72.48937500000001 -31.087749999999986 70.843619625 -31.087749999999986 H51.48225 V-11.726380374999987 Q51.48225 -10.080624999999987 50.2494375 -8.847812499999986 Q49.016625000000005 -7.614999999999988 47.34 -7.614999999999988 Z"/></g><g id="Light-S" transform="matrix(1 0 0 1 1109.75 696)"><path d="M47.33871787500001 -8.60134862499999 Q46.080657375 -8.60134862499999 45.132378 -9.550614249999988 Q44.184098625 -10.499781249999987 44.184098625 -11.726380374999987 V-32.07409862499998 H23.836380375 Q22.60978125 -32.07409862499998 21.660614250000002 -33.02366012499999 Q20.711348625000003 -33.973320249999986 20.711348625000003 -35.231282124999986 Q20.711348625000003 -36.48934262499999 21.660614250000002 -37.43762199999999 Q22.60978125 -38.38590137499999 23.836380375 -38.38590137499999 H44.184098625 V-58.73361962499999 Q44.184098625 -59.960218749999996 45.133660125000006 -60.90948437499999 Q46.08332025 -61.858651374999994 47.341282125 -61.858651374999994 Q48.599342625000006 -61.858651374999994 49.547622000000004 -60.90948437499999 Q50.495901375 -59.960218749999996 50.495901375 -58.73361962499999 V-38.38590137499999 H70.843619625 Q72.07021875000001 -38.38590137499999 73.019484375 -37.43633987499999 Q73.96865137500001 -36.48667974999999 73.96865137500001 -35.228717874999994 Q73.96865137500001 -33.97065737499999 73.019484375 -33.02237799999999 Q72.07021875000001 -32.07409862499998 70.843619625 -32.07409862499998 H50.495901375 V-11.726380374999987 Q50.495901375 -10.499781249999987 49.546339875 -9.550614249999988 Q48.59667975000001 -8.60134862499999 47.33871787500001 -8.60134862499999 Z"/></g><g id="Thin-S" transform="matrix(1 0 0 1 814.015 696)"><path d="M47.337337125000005 -9.587499999999988 Q46.497841125 -9.587499999999988 45.834094875 -10.253218749999988 Q45.17025 -10.918937499999988 45.17025 -11.726380374999987 V-33.06024999999999 H23.836380375 Q23.0289375 -33.06024999999999 22.36321875 -33.72675774999998 Q21.6975 -34.393166874999984 21.6975 -35.23266287499999 Q21.6975 -36.072158874999985 22.36321875 -36.73590512499999 Q23.0289375 -37.39974999999999 23.836380375 -37.39974999999999 H45.17025 V-58.73361962499999 Q45.17025 -59.541062499999995 45.83675775 -60.20678124999999 Q46.503166875 -60.87249999999999 47.342662875 -60.87249999999999 Q48.182158875 -60.87249999999999 48.845905125 -60.20678124999999 Q49.509750000000004 -59.541062499999995 49.509750000000004 -58.73361962499999 V-37.39974999999999 H70.843619625 Q71.65106250000001 -37.39974999999999 72.31678125 -36.73324224999999 Q72.9825 -36.06683312499999 72.9825 -35.22733712499999 Q72.9825 -34.38784112499999 72.31678125 -33.724094874999984 Q71.65106250000001 -33.06024999999999 70.843619625 -33.06024999999999 H49.509750000000004 V-11.726380374999987 Q49.509750000000004 -10.918937499999988 48.84324225 -10.253218749999988 Q48.176833125 -9.587499999999988 47.337337125000005 -9.587499999999988 Z"/></g><g id="Ultralight-S" transform="matrix(1 0 0 1 517.792 696)"><path d="M47.336548125 -10.179249999999989 Q46.74825 -10.179249999999989 46.255125 -10.674840624999987 Q45.762 -11.17043124999999 45.762 -11.726380374999987 V-33.65199999999999 H23.836380375 Q23.280431250000003 -33.65199999999999 22.784840625 -34.14857687499999 Q22.289250000000003 -34.645153749999984 22.289250000000003 -35.23345187499999 Q22.289250000000003 -35.82174999999999 22.784840625 -36.31487499999999 Q23.280431250000003 -36.807999999999986 23.836380375 -36.807999999999986 H45.762 V-58.73361962499999 Q45.762 -59.28956875 46.258576875 -59.78515937499999 Q46.75515375 -60.28074999999998 47.34345187500001 -60.28074999999998 Q47.93175 -60.28074999999998 48.424875 -59.78515937499999 Q48.918 -59.28956875 48.918 -58.73361962499999 V-36.807999999999986 H70.843619625 Q71.39956875000001 -36.807999999999986 71.895159375 -36.31142312499998 Q72.39075 -35.81484624999999 72.39075 -35.22654812499999 Q72.39075 -34.638249999999985 71.895159375 -34.145124999999986 Q71.39956875000001 -33.65199999999999 70.843619625 -33.65199999999999 H48.918 V-11.726380374999987 Q48.918 -11.17043124999999 48.421423125 -10.674840624999987 Q47.92484625 -10.179249999999989 47.336548125 -10.179249999999989 Z"/></g></g></svg>