<svg xmlns="http://www.w3.org/2000/svg" version="1.1" width="3300" height="2000"><g id="Notes"><style>
    text {
      font-family: monospace;
      text-anchor: middle;
    }
    text.emphasis {
      font-weight:bold;
    }
    text.lanchor {
      text-anchor: start;
    }
  </style><rect height="2200" id="artboard" fill="white" width="3300" x="0" y="0"/><line id="" style="fill:none;stroke:black;stroke-width:0.5;" x1="263" x2="3036" y1="292" y2="292"/><text class="lanchor emphasis" transform="matrix(1 0 0 1 263 322)">Weight/Scale Variations</text><text transform="matrix(1 0 0 1 559.711 322)">Ultralight</text><text transform="matrix(1 0 0 1 856.422 322)">Thin</text><text transform="matrix(1 0 0 1 1153.13 322)">Light</text><text transform="matrix(1 0 0 1 1449.84 322)">Regular</text><text transform="matrix(1 0 0 1 1746.56 322)">Medium</text><text transform="matrix(1 0 0 1 2043.27 322)">Semibold</text><text transform="matrix(1 0 0 1 2339.98 322)">Bold</text><text transform="matrix(1 0 0 1 2636.69 322)">Heavy</text><text transform="matrix(1 0 0 1 2933.4 322)">Black</text><text id="template-version" style="text-anchor: end;" transform="matrix(1 0 0 1 3036 1933)">Template v.1.0</text><text class="lanchor" transform="matrix(1 0 0 1 263 726)">Small</text><text class="lanchor" transform="matrix(1 0 0 1 263 1156)">Medium</text><text class="lanchor" transform="matrix(1 0 0 1 263 1586)">Large</text></g><g id="Guides"><g id="H-reference" style="fill:#27AAE1;stroke:none;" transform="matrix(1 0 0 1 339 696)"><path d="M 54.9316 0 L 57.666 0 L 30.5664 -70.459 L 28.0762 -70.459 L 0.976562 0 L 3.66211 0 L 12.9395 -24.4629 L 45.7031 -24.4629 Z M 29.1992 -67.0898 L 29.4434 -67.0898 L 44.8242 -26.709 L 13.8184 -26.709 Z"/></g><line id="Baseline-S" style="fill:none;stroke:#27AAE1;opacity:1;stroke-width:0.577;" x1="263" x2="3036" y1="696" y2="696"/><line id="Capline-S" style="fill:none;stroke:#27AAE1;opacity:1;stroke-width:0.577;" x1="263" x2="3036" y1="625.541" y2="625.541"/><g id="H-reference" style="fill:#27AAE1;stroke:none;" transform="matrix(1 0 0 1 339 1126)"><path d="M 54.9316 0 L 57.666 0 L 30.5664 -70.459 L 28.0762 -70.459 L 0.976562 0 L 3.66211 0 L 12.9395 -24.4629 L 45.7031 -24.4629 Z M 29.1992 -67.0898 L 29.4434 -67.0898 L 44.8242 -26.709 L 13.8184 -26.709 Z"/></g><line id="Baseline-M" style="fill:none;stroke:#27AAE1;opacity:1;stroke-width:0.577;" x1="263" x2="3036" y1="1126" y2="1126"/><line id="Capline-M" style="fill:none;stroke:#27AAE1;opacity:1;stroke-width:0.577;" x1="263" x2="3036" y1="1055.54" y2="1055.54"/><g id="H-reference" style="fill:#27AAE1;stroke:none;" transform="matrix(1 0 0 1 339 1556)"><path d="M 54.9316 0 L 57.666 0 L 30.5664 -70.459 L 28.0762 -70.459 L 0.976562 0 L 3.66211 0 L 12.9395 -24.4629 L 45.7031 -24.4629 Z M 29.1992 -67.0898 L 29.4434 -67.0898 L 44.8242 -26.709 L 13.8184 -26.709 Z"/></g><line id="Baseline-L" style="fill:none;stroke:#27AAE1;opacity:1;stroke-width:0.577;" x1="263" x2="3036" y1="1556" y2="1556"/><line id="Capline-L" style="fill:none;stroke:#27AAE1;opacity:1;stroke-width:0.577;" x1="263" x2="3036" y1="1485.54" y2="1485.54"/><rect height="119.336" id="left-margin" style="fill:darkred;stroke:none;opacity:0.4;" width="12.4512" x="1394.06" y="1030.79"/><rect height="119.336" id="right-margin" style="fill:darkgreen;stroke:none;opacity:0.4;" width="12.4512" x="1502.5112" y="1030.79"/><rect x="1406.5112" y="1045" width="96" height="96" fill="none" stroke="blue" stroke-dasharray="5"/><rect x="1394.06" y="1030.79" width="120.9024" height="119.336" fill="none" stroke="blue"/></g><g id="Symbols"><g id="Bold-L" transform="matrix(1 0 0 1 2266 1556)"><path d="M61.92 26.690000000000015  5.32125 -29.908749999999984 Q4.1925 -31.03749999999998 3.6281250000000003 -32.408124999999984 Q3.06375 -33.77874999999999 3.06375 -35.22999999999999 Q3.06375 -36.68124999999999 3.6281250000000003 -38.05187499999998 Q4.1925 -39.422499999999985 5.32125 -40.55124999999998 L61.92 -97.14999999999998 Q64.5 -99.72999999999999 68.37 -99.81062499999999 Q72.24000000000001 -99.89124999999999 74.82000000000001 -97.31125 Q77.56125 -94.57 77.56125 -90.69999999999999 Q77.56125 -86.82999999999998 74.82000000000001 -84.08874999999999 L25.96125 -35.22999999999999 L74.82000000000001 13.628750000000014 Q77.56125 16.370000000000015 77.56125 20.159375000000015 Q77.56125 23.948750000000015 74.98125 26.528750000000016 Q72.24000000000001 29.270000000000017 68.37 29.270000000000017 Q64.5 29.270000000000017 61.92 26.690000000000015 Z"/></g><g id="Semibold-L" transform="matrix(1 0 0 1 1970.27 1556)"><path d="M61.078758750000006 25.848758750000016  4.4800087500000005 -30.74999124999998 Q3.491385 -31.73861499999998 3.03230625 -32.863817499999996 Q2.57306625 -33.98901999999998 2.57306625 -35.22999999999999 Q2.57306625 -36.47098 3.03230625 -37.59618249999998 Q3.491385 -38.721384999999984 4.4800087500000005 -39.710008749999986 L61.078758750000006 -96.30875874999998 Q63.308201249999996 -98.53820124999999 66.6875175 -98.583835 Q70.06683375 -98.62930749999998 72.29627625 -96.39986499999998 Q74.68696875 -94.0091725 74.68696875 -90.66500875 Q74.68696875 -87.32068375 72.29627625 -84.92999124999999 L22.596285 -35.22999999999999 L72.29627625 14.469991250000017 Q74.68696875 16.860683750000018 74.6519775 20.159375000000015 Q74.616825 23.458066250000016 72.3873825 25.687508750000017 Q69.99669 28.078201250000014 66.65252625 28.078201250000014 Q63.308201249999996 28.078201250000014 61.078758750000006 25.848758750000016 Z"/></g><g id="Medium-L" transform="matrix(1 0 0 1 1674.31 1556)"><path d="M60.447787500000004 25.217787500000018  3.8490375 -31.38096249999998 Q2.96554875 -32.26445124999998 2.5853212500000002 -33.20566749999999 Q2.2049325 -34.146883749999986 2.2049325 -35.22999999999999 Q2.2049325 -36.31311624999998 2.5853212500000002 -37.254332499999975 Q2.96554875 -38.195548749999986 3.8490375 -39.079037499999984 L60.447787500000004 -95.6777875 Q62.41423125 -97.64423124999999 65.42541375 -97.66358125 Q68.43659625000001 -97.68276999999998 70.40320125 -95.71632624999998 Q72.53105625 -93.58847125 72.53105625 -90.638725 Q72.53105625 -87.6888175 70.40320125 -85.56096249999999 L20.07223875 -35.22999999999999 L70.40320125 15.100962500000016 Q72.53105625 17.228817500000016 72.46961999999999 20.159375000000015 Q72.408345 23.089932500000018 70.44174000000001 25.056537500000015 Q68.313885 27.184231250000018 65.36413875 27.184231250000018 Q62.41423125 27.184231250000018 60.447787500000004 25.217787500000018 Z"/></g><g id="Regular-L" transform="matrix(1 0 0 1 1378.56 1556)"><path d="M59.985 24.755000000000017  3.38625 -31.843749999999986 Q2.58 -32.64999999999999 2.2575000000000003 -33.45624999999998 Q1.935 -34.26249999999999 1.935 -35.22999999999999 Q1.935 -36.19749999999999 2.2575000000000003 -37.00374999999998 Q2.58 -37.80999999999999 3.38625 -38.61624999999998 L59.985 -95.21499999999997 Q61.75875 -96.98874999999998 64.5 -96.98874999999998 Q67.24125000000001 -96.98874999999998 69.015 -95.21499999999997 Q70.95 -93.28 70.95 -90.61937499999999 Q70.95 -87.95874999999998 69.015 -86.02374999999998 L18.22125 -35.22999999999999 L69.015 15.563750000000017 Q70.95 17.498750000000015 70.869375 20.159375000000015 Q70.78875000000001 22.820000000000014 69.015 24.593750000000014 Q67.08 26.528750000000016 64.419375 26.528750000000016 Q61.75875 26.528750000000016 59.985 24.755000000000017 Z"/></g><g id="Light-L" transform="matrix(1 0 0 1 1082.77 1556)"><path d="M60.791250000000005 23.328421250000016  5.484273750000001 -31.979844999999983 Q4.7507475 -32.71208124999998 4.4282475 -33.495594999999994 Q4.1057475 -34.27910874999999 4.1057475 -35.23822374999999 Q4.1057475 -36.19749999999999 4.4282475 -36.97278999999999 Q4.7507475 -37.74791874999998 5.484273750000001 -38.48128374999999 L60.853331250000004 -93.85050249999998 Q62.3169975 -95.31416875 64.5 -95.31416875 Q66.6830025 -95.31416875 68.20875 -93.78842125 Q69.70950375000001 -92.2876675 69.70950375000001 -90.06677124999999 Q69.70950375000001 -87.84603625 68.20875 -86.27191374999998 L17.104755 -35.22999999999999 L68.27067000000001 15.873833750000017 Q69.833505 17.436668750000017 69.75288 19.588388750000014 Q69.672255 21.740108750000015 68.20875 23.229252500000015 Q66.6513975 24.792087500000015 64.4532375 24.792087500000015 Q62.25491625 24.792087500000015 60.791250000000005 23.328421250000016 Z"/></g><g id="Thin-L" transform="matrix(1 0 0 1 787.282 1556)"><path d="M61.597500000000004 21.902165000000018  7.58181375 -32.11577874999999 Q6.9213337500000005 -32.77400124999998 6.598833750000001 -33.53477874999999 Q6.27633375 -34.29555624999999 6.27633375 -35.24660874999999 Q6.27633375 -36.19749999999999 6.598833750000001 -36.94166874999999 Q6.9213337500000005 -37.68599874999998 7.58181375 -38.34647874999999 L61.72150125 -92.48616625 Q62.87508375 -93.63974875 64.5 -93.63974875 Q66.12491625 -93.63974875 67.4025 -92.36216499999998 Q68.46916875000001 -91.295335 68.46916875000001 -89.51432875 Q68.46916875000001 -87.73316125 67.4025 -86.51991625 L15.9885825 -35.22999999999999 L67.52650125000001 16.183917500000017 Q68.7173325 17.374748750000013 68.6367075 19.01756375000002 Q68.5560825 20.660378750000014 67.4025 21.864916250000014 Q66.22295625 23.055747500000017 64.4871 23.055747500000017 Q62.7510825 23.055747500000017 61.597500000000004 21.902165000000018 Z"/></g><g id="Ultralight-L" transform="matrix(1 0 0 1 491.205 1556)"><path d="M62.081250000000004 21.046250000000015  8.840531250000002 -32.19737124999999 Q8.22375 -32.81124999999999 7.90125 -33.55832124999998 Q7.57875 -34.30555374999999 7.57875 -35.25144624999999 Q7.57875 -36.19749999999999 7.90125 -36.923124999999985 Q8.22375 -37.64874999999999 8.840531250000002 -38.26553124999998 L62.2425 -91.66749999999999 Q63.21 -92.63499999999999 64.5 -92.63499999999999 Q65.79 -92.63499999999999 66.91875 -91.50625 Q67.72500000000001 -90.69999999999999 67.72500000000001 -89.18279874999999 Q67.72500000000001 -87.66559749999999 66.91875 -86.66874999999999 L15.31875 -35.22999999999999 L67.08 16.370000000000015 Q68.0475 17.337500000000016 67.966875 18.675068750000012 Q67.88625 20.012476250000017 66.91875 21.046250000000015 Q65.96592375 22.013750000000016 64.50725625 22.013750000000016 Q63.04875 22.013750000000016 62.081250000000004 21.046250000000015 Z"/></g><g id="Bold-M" transform="matrix(1 0 0 1 2281.8 1126)"><path d="M47.625 12.27000000000001  5.5 -29.72999999999999 Q4.375 -30.85499999999999 3.8125 -32.29249999999999 Q3.25 -33.72999999999999 3.25 -35.22999999999999 Q3.25 -36.72999999999999 3.8125 -38.16749999999999 Q4.375 -39.60499999999999 5.5 -40.72999999999999 L47.625 -82.85499999999999 Q50.25 -85.47999999999999 54.0 -85.54249999999999 Q57.75 -85.60499999999999 60.5 -82.85499999999999 Q63.125 -80.22999999999999 63.125 -76.41749999999999 Q63.125 -72.60499999999999 60.5 -69.97999999999999 L25.75 -35.22999999999999 L60.5 -0.47999999999998977 Q63.125 2.1450000000000102 63.1875 5.83250000000001 Q63.25 9.52000000000001 60.5 12.27000000000001 Q57.875 14.89500000000001 54.0625 14.89500000000001 Q50.25 14.89500000000001 47.625 12.27000000000001 Z"/></g><g id="Semibold-M" transform="matrix(1 0 0 1 1985.97 1126)"><path d="M46.7555 11.40050000000001  4.6305 -30.599499999999992 Q3.6685 -31.561499999999988 3.21475 -32.75437499999999 Q2.760875 -33.94737499999999 2.760875 -35.22999999999999 Q2.760875 -36.51262499999999 3.21475 -37.70562499999999 Q3.6685 -38.89849999999999 4.6305 -39.86049999999999 L46.7555 -81.98549999999999 Q49.000125 -84.23012499999999 52.261 -84.26537499999999 Q55.521875 -84.30075 57.8915 -81.931125 Q60.190375 -79.63224999999998 60.190375 -76.39037499999999 Q60.190375 -73.14849999999998 57.8915 -70.84949999999999 L22.272 -35.22999999999999 L57.8915 0.38950000000000884 Q60.136125 2.6341250000000116 60.171375 5.83250000000001 Q60.20675 9.03087500000001 57.837125 11.40050000000001 Q55.53825 13.69937500000001 52.296375 13.69937500000001 Q49.054375 13.69937500000001 46.7555 11.40050000000001 Z"/></g><g id="Medium-M" transform="matrix(1 0 0 1 1689.91 1126)"><path d="M46.10325 10.74825000000001  3.97825 -31.251749999999987 Q3.138625 -32.09137499999999 2.766375 -33.10087499999999 Q2.394 -34.11037499999999 2.394 -35.22999999999999 Q2.394 -36.34962499999999 2.766375 -37.35912499999999 Q3.138625 -38.36862499999999 3.97825 -39.20824999999999 L46.10325 -81.33324999999999 Q48.0625 -83.29249999999999 50.9565 -83.30749999999999 Q53.850625 -83.322375 55.934875 -81.238125 Q57.989125 -79.18374999999999 57.989125 -76.36999999999999 Q57.989125 -73.556125 55.934875 -71.50174999999999 L19.663125 -35.22999999999999 L55.934875 1.041750000000011 Q57.894 3.001000000000012 57.909 5.83250000000001 Q57.924 8.664000000000009 55.83975 10.74825000000001 Q53.785375 12.80262500000001 50.9715 12.80262500000001 Q48.157625 12.80262500000001 46.10325 10.74825000000001 Z"/></g><g id="Regular-M" transform="matrix(1 0 0 1 1394.06 1126)"><path d="M45.625 10.27000000000001  3.5 -31.72999999999999 Q2.75 -32.47999999999999 2.4375 -33.35499999999999 Q2.125 -34.22999999999999 2.125 -35.22999999999999 Q2.125 -36.22999999999999 2.4375 -37.10499999999999 Q2.75 -37.97999999999999 3.5 -38.72999999999999 L45.625 -80.85499999999999 Q47.375 -82.60499999999999 50.0 -82.60499999999999 Q52.625 -82.60499999999999 54.5 -80.72999999999999 Q56.375 -78.85499999999999 56.375 -76.35499999999999 Q56.375 -73.85499999999999 54.5 -71.97999999999999 L17.75 -35.22999999999999 L54.5 1.5200000000000102 Q56.25 3.2700000000000102 56.25 5.83250000000001 Q56.25 8.39500000000001 54.375 10.27000000000001 Q52.5 12.14500000000001 50.0 12.14500000000001 Q47.5 12.14500000000001 45.625 10.27000000000001 Z"/></g><g id="Light-M" transform="matrix(1 0 0 1 1098.18 1126)"><path d="M46.4905 9.45262500000001  4.894375 -32.06662499999999 Q4.192375 -32.76849999999999 3.904 -33.54737499999999 Q3.6155 -34.32612499999999 3.6155 -35.22999999999999 Q3.6155 -36.13387499999999 3.904 -36.91262499999999 Q4.192375 -37.69149999999999 4.894375 -38.39337499999999 L46.5385 -80.03762499999999 Q47.952 -81.45112499999999 50.0 -81.45112499999999 Q52.048 -81.45112499999999 53.5865 -79.91262499999999 Q55.076875 -78.42224999999999 55.076875 -76.40312499999999 Q55.076875 -74.38387499999999 53.5865 -72.89349999999999 L15.923 -35.22999999999999 L53.6345 2.4816250000000117 Q55.048 3.8950000000000102 55.048 5.90462500000001 Q55.048 7.91425000000001 53.5095 9.45262500000001 Q52.01925 10.94300000000001 50.0 10.94300000000001 Q47.98075 10.94300000000001 46.4905 9.45262500000001 Z"/></g><g id="Thin-M" transform="matrix(1 0 0 1 802.565 1126)"><path d="M47.35575 8.63537500000001  6.2885 -32.40312499999999 Q5.634625 -33.05687499999999 5.370125 -33.73962499999999 Q5.10575 -34.42224999999999 5.10575 -35.22999999999999 Q5.10575 -36.03774999999999 5.370125 -36.72037499999999 Q5.634625 -37.40312499999999 6.2885 -38.05687499999999 L47.451875 -79.22037499999999 Q48.528875 -80.29737499999999 50.0 -80.29737499999999 Q51.471125 -80.29737499999999 52.673125 -79.09537499999999 Q53.778875 -77.98962499999999 53.778875 -76.45112499999999 Q53.778875 -74.91262499999999 52.673125 -73.80687499999999 L14.096125 -35.22999999999999 L52.76925 3.443125000000009 Q53.846125 4.52000000000001 53.846125 5.97675000000001 Q53.846125 7.433500000000009 52.64425 8.63537500000001 Q51.5385 9.741125000000011 50.0 9.741125000000011 Q48.4615 9.741125000000011 47.35575 8.63537500000001 Z"/></g><g id="Ultralight-M" transform="matrix(1 0 0 1 506.415 1126)"><path d="M47.875 8.14500000000001  7.125 -32.60499999999999 Q6.5 -33.22999999999999 6.25 -33.85499999999999 Q6.0 -34.47999999999999 6.0 -35.22999999999999 Q6.0 -35.97999999999999 6.25 -36.60499999999999 Q6.5 -37.22999999999999 7.125 -37.85499999999999 L48.0 -78.72999999999999 Q48.875 -79.60499999999999 50.0 -79.60499999999999 Q51.125 -79.60499999999999 52.125 -78.60499999999999 Q53.0 -77.72999999999999 53.0 -76.47999999999999 Q53.0 -75.22999999999999 52.125 -74.35499999999999 L13.0 -35.22999999999999 L52.25 4.02000000000001 Q53.125 4.89500000000001 53.125 6.02000000000001 Q53.125 7.14500000000001 52.125 8.14500000000001 Q51.25 9.02000000000001 50.0 9.02000000000001 Q48.75 9.02000000000001 47.875 8.14500000000001 Z"/></g><g id="Bold-S" transform="matrix(1 0 0 1 2294.23 696)"><path d="M37.378875 2.1488750000000127  4.5367500000000005 -30.693249999999985 Q3.5505 -31.67949999999999 3.057375 -32.862999999999985 Q2.56425 -34.04649999999999 2.56425 -35.22999999999999 Q2.56425 -36.41349999999999 3.057375 -37.59699999999999 Q3.5505 -38.78049999999999 4.5367500000000005 -39.76674999999999 L37.4775 -72.7075 Q39.64725 -74.87724999999999 42.6553125 -74.92656249999999 Q45.663375 -74.97587499999999 47.833125 -72.7075 Q50.002875 -70.63637499999999 49.904250000000005 -67.4310625 Q49.805625 -64.22574999999999 47.734500000000004 -62.154624999999996 L20.809875 -35.22999999999999 L47.833125 -8.206749999999989 Q49.904250000000005 -6.135624999999987 49.953562500000004 -3.028937499999987 Q50.002875 0.07775000000001242 47.93175 2.1488750000000127 Q45.860625 4.220000000000013 42.6553125 4.220000000000013 Q39.45 4.220000000000013 37.378875 2.1488750000000127 Z"/></g><g id="Semibold-S" transform="matrix(1 0 0 1 1998.1 696)"><path d="M36.6928395 1.4628395000000136  3.8507145 -31.379285499999988 Q2.9930715 -32.23692849999999 2.5857502500000002 -33.22741937499999 Q2.1783303750000003 -34.21800887499999 2.1783303750000003 -35.22999999999999 Q2.1783303750000003 -36.24199112499999 2.5857502500000002 -37.23258062499999 Q2.9930715 -38.22307149999999 3.8507145 -39.080714499999985 L36.7914645 -72.0214645 Q38.661098625 -73.89109862499998 41.2832415 -73.918910875 Q43.905384375000004 -73.94682175 45.7750185 -71.978562625 Q47.687455875000005 -70.16475024999998 47.588830875000006 -67.40966087499999 Q47.49020587500001 -64.65457149999999 45.6763935 -62.840660499999984 L18.065732999999998 -35.22999999999999 L45.7750185 -7.52071449999999 Q47.546027625 -5.749705374999987 47.573839875 -3.028937499999987 Q47.60175075 -0.30816962499998724 45.830741625 1.4628395000000136 Q44.01692925 3.276651875000013 41.261839875 3.276651875000013 Q38.506651875 3.276651875000013 36.6928395 1.4628395000000136 Z"/></g><g id="Medium-S" transform="matrix(1 0 0 1 1701.85 696)"><path d="M36.17821425 0.9482142500000119  3.33608925 -31.89391074999999 Q2.5750001250000003 -32.65499987499999 2.2319823750000003 -33.500807874999985 Q1.8888660000000002 -34.34661587499999 1.8888660000000002 -35.22999999999999 Q1.8888660000000002 -36.11338412499999 2.2319823750000003 -36.95919212499999 Q2.5750001250000003 -37.805000124999985 3.33608925 -38.56608924999999 L36.27683925 -71.50683925 Q37.9213125 -73.15131249999999 40.253991 -73.1631475 Q42.586768125000006 -73.17488387499999 44.231241375 -71.43178562499999 Q45.950669625 -69.81088374999999 45.852044625000005 -67.39358499999999 Q45.75341962500001 -64.976187625 44.132616375 -63.35528574999999 L16.007330625 -35.22999999999999 L44.231241375 -7.006089249999988 Q45.776991 -5.460240999999986 45.788826 -3.028937499999987 Q45.800661 -0.5976339999999887 44.254812750000006 0.9482142500000119 Q42.633910875000005 2.569116125000013 40.2165135 2.569116125000013 Q37.799116125000005 2.569116125000013 36.17821425 0.9482142500000119 Z"/></g><g id="Regular-S" transform="matrix(1 0 0 1 1405.73 696)"><path d="M35.800875000000005 0.5708750000000133  2.95875 -32.27124999999999 Q2.2683750000000003 -32.96162499999999 1.9725000000000001 -33.701312499999986 Q1.676625 -34.44099999999999 1.676625 -35.22999999999999 Q1.676625 -36.01899999999999 1.9725000000000001 -36.758687499999986 Q2.2683750000000003 -37.49837499999999 2.95875 -38.18874999999999 L35.8995 -71.1295 Q37.378875 -72.60887499999998 39.4993125 -72.60887499999998 Q41.61975 -72.60887499999998 43.099125 -71.030875 Q44.677125000000004 -69.55149999999999 44.578500000000005 -67.38175 Q44.479875 -65.21199999999999 43.0005 -63.732624999999985 L14.497875 -35.22999999999999 L43.099125 -6.628749999999986 Q44.479875 -5.247999999999987 44.479875 -3.028937499999987 Q44.479875 -0.8098749999999875 43.099125 0.5708750000000133 Q41.61975 2.0502500000000126 39.45 2.0502500000000126 Q37.28025 2.0502500000000126 35.800875000000005 0.5708750000000133 Z"/></g><g id="Light-S" transform="matrix(1 0 0 1 1109.75 696)"><path d="M36.483754499999996 -0.07403387499998715  4.058911875000001 -32.53684712499999 Q3.4064088750000003 -33.18925149999999 3.1295685 -33.853096374999986 Q2.8526295 -34.51684262499999 2.8526295 -35.22999999999999 Q2.8526295 -35.94315737499999 3.1295685 -36.60690362499999 Q3.4064088750000003 -37.27074849999999 4.058911875000001 -37.92315287499999 L36.6202515 -70.484591125 Q37.834128 -71.69846762499999 39.4993125 -71.69846762499999 Q41.164497000000004 -71.69846762499999 42.3783735 -70.385966125 Q43.652904375000006 -69.21006025 43.554279375 -67.41972062499998 Q43.455654375 -65.62928237499999 42.279748500000004 -64.45337649999999 L13.056372 -35.22999999999999 L42.4162455 -5.8700278749999875 Q43.531497 -4.754874999999988 43.531497 -2.9720308749999873 Q43.531497 -1.1891867499999869 42.4162455 -0.07403387499998715 Q41.240438250000004 1.1018720000000126 39.45 1.1018720000000126 Q37.65956175 1.1018720000000126 36.483754499999996 -0.07403387499998715 Z"/></g><g id="Thin-S" transform="matrix(1 0 0 1 814.015 696)"><path d="M37.16643675 -0.7188441249999862  5.1588765 -32.80234562499999 Q4.544344125 -33.41677937499999 4.286341125 -34.004781624999985 Q4.02843675 -34.59268524999999 4.02843675 -35.22999999999999 Q4.02843675 -35.867314749999984 4.286341125 -36.45521837499999 Q4.544344125 -37.04322062499999 5.1588765 -37.65765437499999 L37.340904375 -69.83978087499999 Q38.289282375 -70.788158875 39.4993125 -70.788158875 Q40.709342625000005 -70.788158875 41.657720625 -69.74115587499999 Q42.628782375 -68.86871912499998 42.530157375 -67.45759262499999 Q42.431532375 -66.046466125 41.559095625 -65.17402937499999 L11.614967625 -35.22999999999999 L41.73356325 -5.111404374999989 Q42.583217625 -4.261749999999989 42.583217625 -2.9151242499999874 Q42.583217625 -1.568498499999988 41.73356325 -0.7188441249999862 Q40.861126500000005 0.15359262500001414 39.45 0.15359262500001414 Q38.0388735 0.15359262500001414 37.16643675 -0.7188441249999862 Z"/></g><g id="Ultralight-S" transform="matrix(1 0 0 1 517.792 696)"><path d="M37.576125000000005 -1.1057499999999862  5.818875 -32.96162499999999 Q5.227125 -33.55337499999999 4.9805625000000004 -34.09581249999999 Q4.734 -34.638249999999985 4.734 -35.22999999999999 Q4.734 -35.82174999999999 4.9805625000000004 -36.364187499999986 Q5.227125 -36.90662499999999 5.818875 -37.49837499999999 L37.773375 -69.45287499999999 Q38.562375 -70.241875 39.4993125 -70.241875 Q40.43625 -70.241875 41.22525 -69.35425 Q42.014250000000004 -68.66387499999999 41.915625 -67.480375 Q41.817 -66.29687499999999 41.126625000000004 -65.60649999999998 L10.750125 -35.22999999999999 L41.323875 -4.656249999999986 Q42.014250000000004 -3.9658749999999863 42.014250000000004 -2.880999999999988 Q42.014250000000004 -1.7961249999999875 41.323875 -1.1057499999999862 Q40.633500000000005 -0.4153749999999867 39.45 -0.4153749999999867 Q38.2665 -0.4153749999999867 37.576125000000005 -1.1057499999999862 Z"/></g></g></svg>