<svg xmlns="http://www.w3.org/2000/svg" version="1.1" width="3300" height="2000"><g id="Notes"><style>
    text {
      font-family: monospace;
      text-anchor: middle;
    }
    text.emphasis {
      font-weight:bold;
    }
    text.lanchor {
      text-anchor: start;
    }
  </style><rect height="2200" id="artboard" fill="white" width="3300" x="0" y="0"/><line id="" style="fill:none;stroke:black;stroke-width:0.5;" x1="263" x2="3036" y1="292" y2="292"/><text class="lanchor emphasis" transform="matrix(1 0 0 1 263 322)">Weight/Scale Variations</text><text transform="matrix(1 0 0 1 559.711 322)">Ultralight</text><text transform="matrix(1 0 0 1 856.422 322)">Thin</text><text transform="matrix(1 0 0 1 1153.13 322)">Light</text><text transform="matrix(1 0 0 1 1449.84 322)">Regular</text><text transform="matrix(1 0 0 1 1746.56 322)">Medium</text><text transform="matrix(1 0 0 1 2043.27 322)">Semibold</text><text transform="matrix(1 0 0 1 2339.98 322)">Bold</text><text transform="matrix(1 0 0 1 2636.69 322)">Heavy</text><text transform="matrix(1 0 0 1 2933.4 322)">Black</text><text id="template-version" style="text-anchor: end;" transform="matrix(1 0 0 1 3036 1933)">Template v.1.0</text><text class="lanchor" transform="matrix(1 0 0 1 263 726)">Small</text><text class="lanchor" transform="matrix(1 0 0 1 263 1156)">Medium</text><text class="lanchor" transform="matrix(1 0 0 1 263 1586)">Large</text></g><g id="Guides"><g id="H-reference" style="fill:#27AAE1;stroke:none;" transform="matrix(1 0 0 1 339 696)"><path d="M 54.9316 0 L 57.666 0 L 30.5664 -70.459 L 28.0762 -70.459 L 0.976562 0 L 3.66211 0 L 12.9395 -24.4629 L 45.7031 -24.4629 Z M 29.1992 -67.0898 L 29.4434 -67.0898 L 44.8242 -26.709 L 13.8184 -26.709 Z"/></g><line id="Baseline-S" style="fill:none;stroke:#27AAE1;opacity:1;stroke-width:0.577;" x1="263" x2="3036" y1="696" y2="696"/><line id="Capline-S" style="fill:none;stroke:#27AAE1;opacity:1;stroke-width:0.577;" x1="263" x2="3036" y1="625.541" y2="625.541"/><g id="H-reference" style="fill:#27AAE1;stroke:none;" transform="matrix(1 0 0 1 339 1126)"><path d="M 54.9316 0 L 57.666 0 L 30.5664 -70.459 L 28.0762 -70.459 L 0.976562 0 L 3.66211 0 L 12.9395 -24.4629 L 45.7031 -24.4629 Z M 29.1992 -67.0898 L 29.4434 -67.0898 L 44.8242 -26.709 L 13.8184 -26.709 Z"/></g><line id="Baseline-M" style="fill:none;stroke:#27AAE1;opacity:1;stroke-width:0.577;" x1="263" x2="3036" y1="1126" y2="1126"/><line id="Capline-M" style="fill:none;stroke:#27AAE1;opacity:1;stroke-width:0.577;" x1="263" x2="3036" y1="1055.54" y2="1055.54"/><g id="H-reference" style="fill:#27AAE1;stroke:none;" transform="matrix(1 0 0 1 339 1556)"><path d="M 54.9316 0 L 57.666 0 L 30.5664 -70.459 L 28.0762 -70.459 L 0.976562 0 L 3.66211 0 L 12.9395 -24.4629 L 45.7031 -24.4629 Z M 29.1992 -67.0898 L 29.4434 -67.0898 L 44.8242 -26.709 L 13.8184 -26.709 Z"/></g><line id="Baseline-L" style="fill:none;stroke:#27AAE1;opacity:1;stroke-width:0.577;" x1="263" x2="3036" y1="1556" y2="1556"/><line id="Capline-L" style="fill:none;stroke:#27AAE1;opacity:1;stroke-width:0.577;" x1="263" x2="3036" y1="1485.54" y2="1485.54"/><rect height="119.336" id="left-margin" style="fill:darkred;stroke:none;opacity:0.4;" width="12.4512" x="1394.06" y="1030.79"/><rect height="119.336" id="right-margin" style="fill:darkgreen;stroke:none;opacity:0.4;" width="12.4512" x="1502.5112" y="1030.79"/><rect x="1406.5112" y="1045" width="96" height="96" fill="none" stroke="blue" stroke-dasharray="5"/><rect x="1394.06" y="1030.79" width="120.9024" height="119.336" fill="none" stroke="blue"/></g><g id="Symbols"><g id="Bold-L" transform="matrix(1 0 0 1 2266 1556)"><path d="M69.015 12.661250000000017  26.28375 -29.908749999999984 Q25.155 -31.03749999999998 24.590625 -32.408124999999984 Q24.02625 -33.77874999999999 24.02625 -35.22999999999999 Q24.02625 -36.68124999999999 24.590625 -38.05187499999998 Q25.155 -39.422499999999985 26.28375 -40.55124999999998 L69.17625 -83.44375 Q71.43375 -85.70124999999999 74.4975 -85.62062499999999 Q77.56125 -85.53999999999999 79.81875000000001 -83.28249999999998 Q82.07625 -80.86374999999998 82.07625 -77.79999999999998 Q82.07625 -74.73624999999998 79.81875000000001 -72.47874999999999 L50.31 -42.80874999999999 H120.2925 Q123.5175 -42.80874999999999 125.69437500000001 -40.63187499999998 Q127.87125 -38.454999999999984 127.87125 -35.22999999999999 Q127.87125 -32.00499999999998 125.69437500000001 -29.828124999999986 Q123.5175 -27.65124999999999 120.2925 -27.65124999999999 H50.31 L79.98 2.180000000000014 Q82.2375 4.437500000000014 82.156875 7.420625000000015 Q82.07625 10.403750000000016 79.81875000000001 12.661250000000017 Q77.4 15.080000000000016 74.33625 15.080000000000016 Q71.27250000000001 15.080000000000016 69.015 12.661250000000017 Z"/></g><g id="Semibold-L" transform="matrix(1 0 0 1 1970.27 1556)"><path d="M70.346925 12.801537500000016  26.70445125 -30.74999124999998 Q25.715827500000003 -31.73861499999998 25.2565875 -32.863817499999996 Q24.7973475 -33.98901999999998 24.7973475 -35.22999999999999 Q24.7973475 -36.47098 25.2565875 -37.59618249999998 Q25.715827500000003 -38.721384999999984 26.70445125 -39.710008749999986 L70.508175 -83.51389374999998 Q72.345135 -85.3506925 74.91820125 -85.30521999999999 Q77.49110625 -85.25958624999998 79.39804875 -83.35264374999998 Q81.3051525 -81.35443374999998 81.3051525 -78.78152874999999 Q81.3051525 -76.20846249999998 79.39804875 -74.30151999999998 L46.804747500000005 -41.616951249999985 H121.13374125 Q123.8680575 -41.616951249999985 125.69437500000001 -39.790633749999984 Q127.52069250000001 -37.96431624999998 127.52069250000001 -35.22999999999999 Q127.52069250000001 -32.49568374999998 125.69437500000001 -30.66936624999998 Q123.8680575 -28.843048749999994 121.13374125 -28.843048749999994 H46.804747500000005 L79.55929875000001 4.002770000000012 Q81.39625875 5.839568750000012 81.35062500000001 8.367001250000015 Q81.3051525 10.894433750000015 79.39804875 12.801537500000016 Q77.4 14.799586250000015 74.82693375000001 14.799586250000015 Q72.25402875 14.799586250000015 70.346925 12.801537500000016 Z"/></g><g id="Medium-L" transform="matrix(1 0 0 1 1674.31 1556)"><path d="M71.34603 12.906672500000013  27.01985625 -31.38096249999998 Q26.13652875 -32.26445124999998 25.756140000000002 -33.20566749999999 Q25.375912500000002 -34.146883749999986 25.375912500000002 -35.22999999999999 Q25.375912500000002 -36.31311624999998 25.756140000000002 -37.254332499999975 Q26.13652875 -38.195548749999986 27.01985625 -39.079037499999984 L71.50728000000001 -83.56646124999999 Q73.02867375000001 -85.08785499999999 75.23360625000001 -85.06850499999999 Q77.43853874999999 -85.04931624999999 79.08264375 -83.40521124999998 Q80.72658750000001 -81.7225675 80.72658750000001 -79.517635 Q80.72658750000001 -77.31270249999999 79.08264375 -75.66859749999999 L44.17556625 -40.72298124999999 H121.7647125 Q124.130895 -40.72298124999999 125.69437500000001 -39.15966249999998 Q127.257855 -37.59618249999998 127.257855 -35.22999999999999 Q127.257855 -32.863817499999996 125.69437500000001 -31.300337499999983 Q124.130895 -29.73701874999999 121.7647125 -29.73701874999999 H44.17556625 L79.24389375 5.36984750000002 Q80.7652875 6.891241250000014 80.7459375 9.076985000000015 Q80.72658750000001 11.262567500000014 79.08264375 12.906672500000013 Q77.4 14.589316250000014 75.19506750000001 14.589316250000014 Q72.990135 14.589316250000014 71.34603 12.906672500000013 Z"/></g><g id="Regular-L" transform="matrix(1 0 0 1 1378.56 1556)"><path d="M72.07875 12.983750000000015  27.251250000000002 -31.843749999999986 Q26.445 -32.64999999999999 26.122500000000002 -33.45624999999998 Q25.8 -34.26249999999999 25.8 -35.22999999999999 Q25.8 -36.19749999999999 26.122500000000002 -37.00374999999998 Q26.445 -37.80999999999999 27.251250000000002 -38.61624999999998 L72.24000000000001 -83.60499999999999 Q73.53 -84.89499999999998 75.465 -84.89499999999998 Q77.4 -84.89499999999998 78.85125000000001 -83.44375 Q80.30250000000001 -81.99249999999999 80.30250000000001 -80.05749999999999 Q80.30250000000001 -78.12249999999999 78.85125000000001 -76.67124999999999 L42.2475 -40.06749999999998 H122.2275 Q124.32375 -40.06749999999998 125.69437500000001 -38.69687499999999 Q127.065 -37.32624999999999 127.065 -35.22999999999999 Q127.065 -33.13374999999999 125.69437500000001 -31.763124999999988 Q124.32375 -30.392499999999984 122.2275 -30.392499999999984 H42.2475 L79.0125 6.3725000000000165 Q80.30250000000001 7.662500000000016 80.30250000000001 9.597500000000018 Q80.30250000000001 11.532500000000017 78.85125000000001 12.983750000000015 Q77.4 14.435000000000016 75.465 14.435000000000016 Q73.53 14.435000000000016 72.07875 12.983750000000015 Z"/></g><g id="Light-L" transform="matrix(1 0 0 1 1082.77 1556)"><path d="M73.0091625 11.309168750000016  29.670161250000003 -31.967751249999992 Q28.9259925 -32.71208124999998 28.6034925 -33.48720999999999 Q28.2809925 -34.26249999999999 28.2809925 -35.22999999999999 Q28.2809925 -36.19749999999999 28.6034925 -36.97278999999999 Q28.9259925 -37.74791874999998 29.670161250000003 -38.49224874999999 L73.1704125 -81.93041874999999 Q74.15016750000001 -82.91017375 75.58900125000001 -82.91017375 Q77.02783500000001 -82.91017375 78.10692 -81.76916874999999 Q79.24808625 -80.6280025 79.24808625 -79.18916875 Q79.24808625 -77.75033499999999 78.10692 -76.60916875 L40.38683625 -38.889084999999994 H121.049085 Q122.58708750000001 -38.889084999999994 123.64762875000001 -37.85950374999999 Q124.70817000000001 -36.830083749999986 124.70817000000001 -35.22999999999999 Q124.70817000000001 -33.62991624999998 123.64762875000001 -32.60049624999998 Q122.58708750000001 -31.570914999999985 121.049085 -31.570914999999985 H40.38683625 L78.26817 6.3725000000000165 Q79.24808625 7.352416250000012 79.24808625 8.760128750000014 Q79.24808625 10.168002500000014 78.10692 11.309168750000016 Q76.96575375 12.450173750000015 75.52708125 12.450173750000015 Q74.0882475 12.450173750000015 73.0091625 11.309168750000016 Z"/></g><g id="Thin-L" transform="matrix(1 0 0 1 787.282 1556)"><path d="M73.93925250000001 9.634748750000014  32.08875 -32.091752499999984 Q31.40650125 -32.77400124999998 31.08400125 -33.51833124999999 Q30.761501250000002 -34.26249999999999 30.761501250000002 -35.22999999999999 Q30.761501250000002 -36.19749999999999 31.08400125 -36.94166874999999 Q31.40650125 -37.68599874999998 32.08875 -38.36824749999998 L74.1005025 -80.25599874999999 Q74.770335 -80.92583124999999 75.7130025 -80.92583124999999 Q76.65583125 -80.92583124999999 77.36275125 -80.09474874999998 Q78.19383375 -79.26366624999999 78.19383375 -78.32099874999999 Q78.19383375 -77.37833124999999 77.36275125 -76.54724874999998 L38.52633375 -37.710831249999984 H119.87083125 Q120.8507475 -37.710831249999984 121.60120500000001 -37.02229374999999 Q122.35150125 -36.333917499999984 122.35150125 -35.22999999999999 Q122.35150125 -34.12608249999998 121.60120500000001 -33.43770624999999 Q120.8507475 -32.74916874999998 119.87083125 -32.74916874999998 H38.52633375 L77.52400125 6.3725000000000165 Q78.19383375 7.042332500000015 78.19383375 7.922918750000015 Q78.19383375 8.803666250000013 77.36275125 9.634748750000014 Q76.53166875000001 10.465831250000015 75.58900125000001 10.465831250000015 Q74.64633375 10.465831250000015 73.93925250000001 9.634748750000014 Z"/></g><g id="Ultralight-L" transform="matrix(1 0 0 1 491.205 1556)"><path d="M74.4975 8.630000000000017  33.54 -32.16624999999999 Q32.895 -32.81124999999999 32.5725 -33.53687499999998 Q32.25 -34.26249999999999 32.25 -35.22999999999999 Q32.25 -36.19749999999999 32.5725 -36.923124999999985 Q32.895 -37.64874999999999 33.54 -38.29374999999999 L74.65875 -79.25124999999998 Q75.1425 -79.73499999999999 75.78750000000001 -79.73499999999999 Q76.4325 -79.73499999999999 76.91625 -79.08999999999999 Q77.56125 -78.445 77.56125 -77.79999999999998 Q77.56125 -77.15499999999999 76.91625 -76.50999999999999 L37.410000000000004 -37.00374999999998 H119.16375000000001 Q119.80875 -37.00374999999998 120.373125 -36.51999999999998 Q120.9375 -36.03624999999998 120.9375 -35.22999999999999 Q120.9375 -34.423749999999984 120.373125 -33.93999999999998 Q119.80875 -33.45624999999998 119.16375000000001 -33.45624999999998 H37.410000000000004 L77.0775 6.3725000000000165 Q77.56125 6.856250000000017 77.56125 7.420625000000015 Q77.56125 7.985000000000014 76.91625 8.630000000000017 Q76.27125000000001 9.275000000000013 75.62625 9.275000000000013 Q74.98125 9.275000000000013 74.4975 8.630000000000017 Z"/></g><g id="Bold-M" transform="matrix(1 0 0 1 2281.8 1126)"><path d="M51.25 1.0200000000000102  20.375 -29.72999999999999 Q19.25 -30.85499999999999 18.6875 -32.29249999999999 Q18.125 -33.72999999999999 18.125 -35.22999999999999 Q18.125 -36.72999999999999 18.6875 -38.16749999999999 Q19.25 -39.60499999999999 20.375 -40.72999999999999 L51.25 -71.60499999999999 Q53.5 -73.85499999999999 56.75 -73.85499999999999 Q60.0 -73.85499999999999 62.375 -71.47999999999999 Q64.75 -69.10499999999999 64.8125 -65.91749999999999 Q64.875 -62.72999999999999 62.5 -60.35499999999999 L45.25 -43.10499999999999 H90.875 Q94.125 -43.10499999999999 96.4375 -40.79249999999999 Q98.75 -38.47999999999999 98.75 -35.22999999999999 Q98.75 -31.97999999999999 96.4375 -29.66749999999999 Q94.125 -27.35499999999999 90.875 -27.35499999999999 H45.25 L62.5 -10.10499999999999 Q64.75 -7.85499999999999 64.8125 -4.60499999999999 Q64.875 -1.3549999999999898 62.5 1.0200000000000102 Q60.125 3.3950000000000102 56.875 3.3950000000000102 Q53.625 3.3950000000000102 51.25 1.0200000000000102 Z"/></g><g id="Semibold-M" transform="matrix(1 0 0 1 1985.97 1126)"><path d="M52.608625 1.1287500000000108  20.80975 -30.599499999999992 Q19.84775 -31.561499999999988 19.394 -32.75437499999999 Q18.940125 -33.94737499999999 18.940125 -35.22999999999999 Q18.940125 -36.51262499999999 19.394 -37.70562499999999 Q19.84775 -38.89849999999999 20.80975 -39.86049999999999 L52.608625 -71.65937499999998 Q54.47825 -73.52887499999999 57.211875 -73.556125 Q59.945625 -73.58324999999999 61.94025 -71.58874999999999 Q63.934875 -69.64849999999998 63.997375 -66.94999999999999 Q64.059875 -64.25162499999999 62.06525 -62.25699999999999 L41.66325 -41.85512499999999 H91.7445 Q94.505375 -41.85512499999999 96.4375 -39.92299999999999 Q98.369625 -37.99087499999999 98.369625 -35.22999999999999 Q98.369625 -32.46912499999999 96.4375 -30.536999999999992 Q94.505375 -28.604874999999993 91.7445 -28.604874999999993 H41.66325 L62.06525 -8.202999999999989 Q63.934875 -6.3333749999999895 63.997375 -3.572499999999991 Q64.059875 -0.8114999999999881 62.06525 1.1287500000000108 Q60.125 3.1232500000000094 57.364125 3.1232500000000094 Q54.60325 3.1232500000000094 52.608625 1.1287500000000108 Z"/></g><g id="Medium-M" transform="matrix(1 0 0 1 1689.91 1126)"><path d="M53.62775 1.2102500000000092  21.135875 -31.251749999999987 Q20.29625 -32.09137499999999 19.923875 -33.10087499999999 Q19.551625 -34.11037499999999 19.551625 -35.22999999999999 Q19.551625 -36.34962499999999 19.923875 -37.35912499999999 Q20.29625 -38.36862499999999 21.135875 -39.20824999999999 L53.62775 -71.70012499999999 Q55.212 -73.28437499999998 57.558375 -73.331875 Q59.904875 -73.3795 61.614125 -71.67025 Q63.323375 -70.056125 63.385875 -67.72449999999999 Q63.448375 -65.39299999999999 61.739125 -63.68374999999999 L38.972875 -40.91749999999999 H92.39675 Q94.79075 -40.91749999999999 96.4375 -39.27074999999999 Q98.08425 -37.62399999999999 98.08425 -35.22999999999999 Q98.08425 -32.83599999999999 96.4375 -31.189249999999987 Q94.79075 -29.54249999999999 92.39675 -29.54249999999999 H38.972875 L61.739125 -6.77624999999999 Q63.323375 -5.1919999999999895 63.385875 -2.797999999999991 Q63.448375 -0.40387499999998866 61.739125 1.2102500000000092 Q60.125 2.91950000000001 57.731 2.91950000000001 Q55.337 2.91950000000001 53.62775 1.2102500000000092 Z"/></g><g id="Regular-M" transform="matrix(1 0 0 1 1394.06 1126)"><path d="M54.375 1.2700000000000102  21.375 -31.72999999999999 Q20.625 -32.47999999999999 20.3125 -33.35499999999999 Q20.0 -34.22999999999999 20.0 -35.22999999999999 Q20.0 -36.22999999999999 20.3125 -37.10499999999999 Q20.625 -37.97999999999999 21.375 -38.72999999999999 L54.375 -71.72999999999999 Q55.75 -73.10499999999999 57.8125 -73.16749999999999 Q59.875 -73.22999999999999 61.375 -71.72999999999999 Q62.875 -70.35499999999999 62.9375 -68.29249999999999 Q63.0 -66.22999999999999 61.5 -64.72999999999999 L37.0 -40.22999999999999 H92.875 Q95.0 -40.22999999999999 96.4375 -38.79249999999999 Q97.875 -37.35499999999999 97.875 -35.22999999999999 Q97.875 -33.10499999999999 96.4375 -31.66749999999999 Q95.0 -30.22999999999999 92.875 -30.22999999999999 H37.0 L61.5 -5.72999999999999 Q62.875 -4.35499999999999 62.9375 -2.2299999999999898 Q63.0 -0.10499999999998977 61.5 1.2700000000000102 Q60.125 2.7700000000000102 58.0 2.7700000000000102 Q55.875 2.7700000000000102 54.375 1.2700000000000102 Z"/></g><g id="Light-M" transform="matrix(1 0 0 1 1098.18 1126)"><path d="M55.480875 0.2122500000000116  23.202 -32.06662499999999 Q22.500125 -32.76849999999999 22.211625 -33.54737499999999 Q21.92325 -34.32612499999999 21.92325 -35.22999999999999 Q21.92325 -36.13387499999999 22.211625 -36.91262499999999 Q22.500125 -37.69149999999999 23.202 -38.39337499999999 L55.528875 -70.72025 Q56.567375 -71.75874999999999 58.077 -71.79724999999999 Q59.5865 -71.835625 60.75 -70.67224999999999 Q61.913375 -69.58574999999999 61.951875 -68.07612499999999 Q61.99025 -66.56662499999999 60.826875 -65.40312499999999 L34.403625 -38.97987499999999 H92.44225 Q94.038375 -38.97987499999999 95.11525 -37.90299999999999 Q96.192125 -36.82612499999999 96.192125 -35.22999999999999 Q96.192125 -33.63387499999999 95.11525 -32.55699999999999 Q94.038375 -31.480124999999987 92.44225 -31.480124999999987 H34.403625 L60.875 -5.0087499999999885 Q61.913375 -3.97037499999999 61.951875 -2.422374999999988 Q61.99025 -0.8742499999999893 60.826875 0.2122500000000116 Q59.740375 1.37562500000001 58.192375 1.37562500000001 Q56.64425 1.37562500000001 55.480875 0.2122500000000116 Z"/></g><g id="Thin-M" transform="matrix(1 0 0 1 802.565 1126)"><path d="M56.5865 -0.84537499999999  25.028875 -32.40312499999999 Q24.375 -33.05687499999999 24.1105 -33.73962499999999 Q23.846125 -34.42224999999999 23.846125 -35.22999999999999 Q23.846125 -36.03774999999999 24.1105 -36.72037499999999 Q24.375 -37.40312499999999 25.028875 -38.05687499999999 L56.682625 -69.71074999999999 Q57.384625 -70.41274999999999 58.341375 -70.42712499999999 Q59.298125 -70.44149999999999 60.125 -69.61462499999999 Q60.951875 -68.81649999999999 60.966375 -67.85974999999999 Q60.98075 -66.90312499999999 60.153875 -66.07612499999999 L31.80775 -37.72999999999999 H92.009625 Q93.076875 -37.72999999999999 93.79325 -37.01362499999999 Q94.509625 -36.29737499999999 94.509625 -35.22999999999999 Q94.509625 -34.16262499999999 93.79325 -33.44637499999999 Q93.076875 -32.72999999999999 92.009625 -32.72999999999999 H31.80775 L60.25 -4.287749999999988 Q60.951875 -3.5857499999999902 60.966375 -2.6146249999999895 Q60.98075 -1.6434999999999889 60.153875 -0.84537499999999 Q59.35575 -0.01849999999998886 58.384625 -0.01849999999998886 Q57.4135 -0.01849999999998886 56.5865 -0.84537499999999 Z"/></g><g id="Ultralight-M" transform="matrix(1 0 0 1 506.415 1126)"><path d="M57.25 -1.4799999999999898  26.125 -32.60499999999999 Q25.5 -33.22999999999999 25.25 -33.85499999999999 Q25.0 -34.47999999999999 25.0 -35.22999999999999 Q25.0 -35.97999999999999 25.25 -36.60499999999999 Q25.5 -37.22999999999999 26.125 -37.85499999999999 L57.375 -69.10499999999999 Q57.875 -69.60499999999999 58.5 -69.60499999999999 Q59.125 -69.60499999999999 59.75 -68.97999999999999 Q60.375 -68.35499999999999 60.375 -67.72999999999999 Q60.375 -67.10499999999999 59.75 -66.47999999999999 L30.25 -36.97999999999999 H91.75 Q92.5 -36.97999999999999 93.0 -36.47999999999999 Q93.5 -35.97999999999999 93.5 -35.22999999999999 Q93.5 -34.47999999999999 93.0 -33.97999999999999 Q92.5 -33.47999999999999 91.75 -33.47999999999999 H30.25 L59.875 -3.8549999999999898 Q60.375 -3.3549999999999898 60.375 -2.7299999999999898 Q60.375 -2.1049999999999898 59.75 -1.4799999999999898 Q59.125 -0.8549999999999898 58.5 -0.8549999999999898 Q57.875 -0.8549999999999898 57.25 -1.4799999999999898 Z"/></g><g id="Bold-S" transform="matrix(1 0 0 1 2294.23 696)"><path d="M40.337625 -6.825999999999986  16.273125 -30.693249999999985 Q15.286875 -31.67949999999999 14.793750000000001 -32.862999999999985 Q14.300625 -34.04649999999999 14.300625 -35.22999999999999 Q14.300625 -36.41349999999999 14.793750000000001 -37.59699999999999 Q15.286875 -38.78049999999999 16.273125 -39.76674999999999 L40.337625 -63.83124999999998 Q42.2115 -65.705125 44.8250625 -65.705125 Q47.438625 -65.705125 49.411125000000006 -63.732624999999985 Q51.285000000000004 -61.76012499999999 51.285000000000004 -59.14656249999999 Q51.285000000000004 -56.53299999999999 49.411125000000006 -54.65912499999999 L36.392625 -41.640624999999986 H71.503125 Q74.067375 -41.640624999999986 75.99056250000001 -39.71743749999999 Q77.91375000000001 -37.79424999999999 77.91375000000001 -35.22999999999999 Q77.91375000000001 -32.66574999999999 75.99056250000001 -30.74256249999999 Q74.067375 -28.819374999999987 71.503125 -28.819374999999987 H36.392625 L49.411125000000006 -15.800874999999987 Q51.285000000000004 -13.926999999999989 51.3343125 -11.412062499999987 Q51.383625 -8.897124999999988 49.411125000000006 -6.825999999999986 Q47.438625 -4.952124999999988 44.8250625 -4.952124999999988 Q42.2115 -4.952124999999988 40.337625 -6.825999999999986 Z"/></g><g id="Semibold-S" transform="matrix(1 0 0 1 1998.1 696)"><path d="M41.409580125000005 -6.740196249999986  16.61614275 -31.379285499999988 Q15.758499750000002 -32.23692849999999 15.3511785 -33.22741937499999 Q14.943758625 -34.21800887499999 14.943758625 -35.22999999999999 Q14.943758625 -36.24199112499999 15.3511785 -37.23258062499999 Q15.758499750000002 -38.22307149999999 16.61614275 -39.080714499999985 L41.409580125000005 -63.87415187499998 Q42.98333925000001 -65.44781237499998 45.189481875 -65.46931262499999 Q47.395723125 -65.49071425 49.068107250000004 -63.818428749999995 Q50.641866375000006 -62.188946499999986 50.641866375000006 -59.96120499999999 Q50.641866375000006 -57.73356212499999 49.068107250000004 -56.159803 L33.56267925 -40.65447362499999 H72.1891605 Q74.367490875 -40.65447362499999 75.99056250000001 -39.031401999999986 Q77.613634125 -37.408330374999984 77.613634125 -35.22999999999999 Q77.613634125 -33.05166962499999 75.99056250000001 -31.428597999999987 Q74.367490875 -29.805526374999992 72.1891605 -29.805526374999992 H33.56267925 L49.068107250000004 -14.300196999999987 Q50.641866375000006 -12.726437874999988 50.691178875000006 -10.597419999999989 Q50.740491375000005 -8.468303499999987 49.068107250000004 -6.740196249999986 Q47.438625 -5.166535749999987 45.210982125 -5.166535749999987 Q42.98333925000001 -5.166535749999987 41.409580125000005 -6.740196249999986 Z"/></g><g id="Medium-S" transform="matrix(1 0 0 1 1701.85 696)"><path d="M42.21366975 -6.6758927499999885  16.873455375 -31.89391074999999 Q16.11236625 -32.65499987499999 15.769249875 -33.500807874999985 Q15.426232125000002 -34.34661587499999 15.426232125000002 -35.22999999999999 Q15.426232125000002 -36.11338412499999 15.769249875 -36.95919212499999 Q16.11236625 -37.805000124999985 16.873455375 -38.56608924999999 L42.21366975 -63.90630362499999 Q43.562268 -65.25490187499999 45.462870375 -65.292379375 Q47.363571375 -65.3299555 48.810794625 -63.88273224999999 Q50.159392875 -62.51056262499999 50.159392875 -60.57228549999999 Q50.159392875 -58.634106999999986 48.810794625 -57.28550874999999 L31.439973375000005 -39.914687499999985 H72.70378575 Q74.59265175 -39.914687499999985 75.99056250000001 -38.51677674999999 Q77.38847325 -37.11886599999999 77.38847325 -35.22999999999999 Q77.38847325 -33.34113399999999 75.99056250000001 -31.94322324999999 Q74.59265175 -30.545312499999987 72.70378575 -30.545312499999987 H31.439973375000005 L48.810794625 -13.174491249999988 Q50.159392875 -11.825892999999986 50.208705375 -9.986339499999989 Q50.258017875 -8.146687374999985 48.810794625 -6.6758927499999885 Q47.438625 -5.3272944999999865 45.5004465 -5.3272944999999865 Q43.562268 -5.3272944999999865 42.21366975 -6.6758927499999885 Z"/></g><g id="Regular-S" transform="matrix(1 0 0 1 1405.73 696)"><path d="M42.80325 -6.628749999999986  17.062125 -32.27124999999999 Q16.371750000000002 -32.96162499999999 16.075875 -33.701312499999986 Q15.780000000000001 -34.44099999999999 15.780000000000001 -35.22999999999999 Q15.780000000000001 -36.01899999999999 16.075875 -36.758687499999986 Q16.371750000000002 -37.49837499999999 17.062125 -38.18874999999999 L42.80325 -63.929874999999996 Q43.98675 -65.11337499999999 45.663375 -65.16268749999999 Q47.34 -65.21199999999999 48.622125000000004 -63.929874999999996 Q49.805625 -62.746374999999986 49.805625 -61.020437499999986 Q49.805625 -59.294499999999985 48.622125000000004 -58.11099999999999 L29.883375 -39.37224999999999 H73.081125 Q74.75775 -39.37224999999999 75.99056250000001 -38.139437499999985 Q77.223375 -36.90662499999999 77.223375 -35.22999999999999 Q77.223375 -33.55337499999999 75.99056250000001 -32.32056249999999 Q74.75775 -31.087749999999986 73.081125 -31.087749999999986 H29.883375 L48.622125000000004 -12.348999999999986 Q49.805625 -11.165499999999987 49.854937500000005 -9.538187499999989 Q49.904250000000005 -7.910874999999987 48.622125000000004 -6.628749999999986 Q47.438625 -5.445249999999987 45.7126875 -5.445249999999987 Q43.98675 -5.445249999999987 42.80325 -6.628749999999986 Z"/></g><g id="Light-S" transform="matrix(1 0 0 1 1109.75 696)"><path d="M43.675785375 -7.463314749999988  18.503628000000003 -32.53684712499999 Q17.851223625000003 -33.18925149999999 17.574284625 -33.853096374999986 Q17.29744425 -34.51684262499999 17.29744425 -35.22999999999999 Q17.29744425 -35.94315737499999 17.574284625 -36.60690362499999 Q17.851223625000003 -37.27074849999999 18.503628000000003 -37.92315287499999 L43.713657375000004 -63.13318224999999 Q44.631658875 -64.05118374999999 45.8720655 -64.08156025 Q47.112373500000004 -64.11183812499999 48.129000000000005 -63.09531025 Q49.046902875 -62.13943674999999 49.027966875000004 -60.849717625 Q49.00893225000001 -59.560097124999984 48.091029375000005 -58.64209562499998 L27.834835125 -38.38590137499999 H72.73968525000001 Q73.99902787500001 -38.38590137499999 74.94730725000001 -37.43762199999999 Q75.895586625 -36.48934262499999 75.895586625 -35.22999999999999 Q75.895586625 -33.97065737499999 74.94730725000001 -33.02237799999999 Q73.99902787500001 -32.07409862499998 72.73968525000001 -32.07409862499998 H27.834835125 L48.129000000000005 -11.779933749999987 Q49.046902875 -10.862030874999988 49.077279375 -9.689971374999985 Q49.107557250000006 -8.517813249999985 48.091029375000005 -7.463314749999988 Q47.135155875 -6.5454118749999886 45.864471375 -6.5454118749999886 Q44.59368825 -6.5454118749999886 43.675785375 -7.463314749999988 Z"/></g><g id="Thin-S" transform="matrix(1 0 0 1 814.015 696)"><path d="M44.5481235 -8.297780874999987  19.945032375 -32.80234562499999 Q19.3305 -33.41677937499999 19.072497 -34.004781624999985 Q18.814592625000003 -34.59268524999999 18.814592625000003 -35.22999999999999 Q18.814592625000003 -35.867314749999984 19.072497 -36.45521837499999 Q19.3305 -37.04322062499999 19.945032375 -37.65765437499999 L44.623966125 -62.336686749999984 Q45.276469125 -62.989189749999994 46.080657375 -63.000531624999994 Q46.884845625000004 -63.01187349999999 47.635875 -62.26084412499999 Q48.288279375 -61.53249849999999 48.250407375 -60.67899774999999 Q48.21243675 -59.82559562499999 47.560032375 -59.173092624999995 L25.78668975 -37.39974999999999 H72.39834412500001 Q73.240404375 -37.39974999999999 73.90424925 -36.73590512499999 Q74.568094125 -36.072158874999985 74.568094125 -35.22999999999999 Q74.568094125 -34.38784112499999 73.90424925 -33.724094874999984 Q73.240404375 -33.06024999999999 72.39834412500001 -33.06024999999999 H25.78668975 L47.635875 -11.211064749999988 Q48.288279375 -10.558561749999988 48.299719875 -9.841656624999988 Q48.31106175 -9.124751499999988 47.560032375 -8.297780874999987 Q46.83168675 -7.645376499999987 46.016156625 -7.645376499999987 Q45.2006265 -7.645376499999987 44.5481235 -8.297780874999987 Z"/></g><g id="Ultralight-S" transform="matrix(1 0 0 1 517.792 696)"><path d="M45.071625000000004 -8.798499999999986  20.809875 -32.96162499999999 Q20.218125 -33.55337499999999 19.9715625 -34.09581249999999 Q19.725 -34.638249999999985 19.725 -35.22999999999999 Q19.725 -35.82174999999999 19.9715625 -36.364187499999986 Q20.218125 -36.90662499999999 20.809875 -37.49837499999999 L45.17025 -61.858749999999986 Q45.663375 -62.35187499999999 46.2058125 -62.35187499999999 Q46.74825 -62.35187499999999 47.34 -61.76012499999999 Q47.833125 -61.16837499999998 47.7838125 -60.57662499999999 Q47.734500000000004 -59.98487499999999 47.241375000000005 -59.491749999999996 L24.557625 -36.807999999999986 H72.1935 Q72.78525 -36.807999999999986 73.278375 -36.31487499999999 Q73.7715 -35.82174999999999 73.7715 -35.22999999999999 Q73.7715 -34.638249999999985 73.278375 -34.145124999999986 Q72.78525 -33.65199999999999 72.1935 -33.65199999999999 H24.557625 L47.34 -10.869624999999989 Q47.833125 -10.376499999999986 47.833125 -9.932687499999986 Q47.833125 -9.488874999999986 47.241375000000005 -8.798499999999986 Q46.649625 -8.305374999999987 46.1071875 -8.305374999999987 Q45.564750000000004 -8.305374999999987 45.071625000000004 -8.798499999999986 Z"/></g></g></svg>