<svg xmlns="http://www.w3.org/2000/svg" version="1.1" width="3300" height="2000"><g id="Notes"><style>
    text {
      font-family: monospace;
      text-anchor: middle;
    }
    text.emphasis {
      font-weight:bold;
    }
    text.lanchor {
      text-anchor: start;
    }
  </style><rect height="2200" id="artboard" fill="white" width="3300" x="0" y="0"/><line id="" style="fill:none;stroke:black;stroke-width:0.5;" x1="263" x2="3036" y1="292" y2="292"/><text class="lanchor emphasis" transform="matrix(1 0 0 1 263 322)">Weight/Scale Variations</text><text transform="matrix(1 0 0 1 559.711 322)">Ultralight</text><text transform="matrix(1 0 0 1 856.422 322)">Thin</text><text transform="matrix(1 0 0 1 1153.13 322)">Light</text><text transform="matrix(1 0 0 1 1449.84 322)">Regular</text><text transform="matrix(1 0 0 1 1746.56 322)">Medium</text><text transform="matrix(1 0 0 1 2043.27 322)">Semibold</text><text transform="matrix(1 0 0 1 2339.98 322)">Bold</text><text transform="matrix(1 0 0 1 2636.69 322)">Heavy</text><text transform="matrix(1 0 0 1 2933.4 322)">Black</text><text id="template-version" style="text-anchor: end;" transform="matrix(1 0 0 1 3036 1933)">Template v.1.0</text><text class="lanchor" transform="matrix(1 0 0 1 263 726)">Small</text><text class="lanchor" transform="matrix(1 0 0 1 263 1156)">Medium</text><text class="lanchor" transform="matrix(1 0 0 1 263 1586)">Large</text></g><g id="Guides"><g id="H-reference" style="fill:#27AAE1;stroke:none;" transform="matrix(1 0 0 1 339 696)"><path d="M 54.9316 0 L 57.666 0 L 30.5664 -70.459 L 28.0762 -70.459 L 0.976562 0 L 3.66211 0 L 12.9395 -24.4629 L 45.7031 -24.4629 Z M 29.1992 -67.0898 L 29.4434 -67.0898 L 44.8242 -26.709 L 13.8184 -26.709 Z"/></g><line id="Baseline-S" style="fill:none;stroke:#27AAE1;opacity:1;stroke-width:0.577;" x1="263" x2="3036" y1="696" y2="696"/><line id="Capline-S" style="fill:none;stroke:#27AAE1;opacity:1;stroke-width:0.577;" x1="263" x2="3036" y1="625.541" y2="625.541"/><g id="H-reference" style="fill:#27AAE1;stroke:none;" transform="matrix(1 0 0 1 339 1126)"><path d="M 54.9316 0 L 57.666 0 L 30.5664 -70.459 L 28.0762 -70.459 L 0.976562 0 L 3.66211 0 L 12.9395 -24.4629 L 45.7031 -24.4629 Z M 29.1992 -67.0898 L 29.4434 -67.0898 L 44.8242 -26.709 L 13.8184 -26.709 Z"/></g><line id="Baseline-M" style="fill:none;stroke:#27AAE1;opacity:1;stroke-width:0.577;" x1="263" x2="3036" y1="1126" y2="1126"/><line id="Capline-M" style="fill:none;stroke:#27AAE1;opacity:1;stroke-width:0.577;" x1="263" x2="3036" y1="1055.54" y2="1055.54"/><g id="H-reference" style="fill:#27AAE1;stroke:none;" transform="matrix(1 0 0 1 339 1556)"><path d="M 54.9316 0 L 57.666 0 L 30.5664 -70.459 L 28.0762 -70.459 L 0.976562 0 L 3.66211 0 L 12.9395 -24.4629 L 45.7031 -24.4629 Z M 29.1992 -67.0898 L 29.4434 -67.0898 L 44.8242 -26.709 L 13.8184 -26.709 Z"/></g><line id="Baseline-L" style="fill:none;stroke:#27AAE1;opacity:1;stroke-width:0.577;" x1="263" x2="3036" y1="1556" y2="1556"/><line id="Capline-L" style="fill:none;stroke:#27AAE1;opacity:1;stroke-width:0.577;" x1="263" x2="3036" y1="1485.54" y2="1485.54"/><rect height="119.336" id="left-margin" style="fill:darkred;stroke:none;opacity:0.4;" width="12.4512" x="1394.06" y="1030.79"/><rect height="119.336" id="right-margin" style="fill:darkgreen;stroke:none;opacity:0.4;" width="12.4512" x="1502.5112" y="1030.79"/><rect x="1406.5112" y="1045" width="96" height="96" fill="none" stroke="blue" stroke-dasharray="5"/><rect x="1394.06" y="1030.79" width="120.9024" height="119.336" fill="none" stroke="blue"/></g><g id="Symbols"><g id="Bold-L" transform="matrix(1 0 0 1 2266 1556)"><path d="M42.57 26.206250000000015 Q39.99 23.465000000000014 39.909375000000004 19.756250000000016 Q39.82875 16.047500000000014 42.57 13.306250000000016 L91.42875000000001 -35.55249999999998 L42.57 -84.41124999999998 Q39.99 -86.99124999999998 39.82875 -90.78062499999999 Q39.667500000000004 -94.57 42.40875 -97.31125 Q44.98875 -100.05249999999998 48.85875 -100.13312499999998 Q52.72875 -100.21374999999998 55.30875 -97.4725 L112.06875000000001 -40.87374999999999 Q113.1975 -39.74499999999999 113.761875 -38.374374999999986 Q114.32625 -37.00374999999998 114.32625 -35.55249999999998 Q114.32625 -34.10124999999999 113.761875 -32.73062499999999 Q113.1975 -31.359999999999985 112.06875000000001 -30.23124999999999 L55.47 26.367500000000014 Q52.89 28.947500000000016 49.100625 28.947500000000016 Q45.31125 28.947500000000016 42.57 26.206250000000015 Z"/></g><g id="Semibold-L" transform="matrix(1 0 0 1 1970.27 1556)"><path d="M43.411241249999996 25.365008750000015 Q41.18179875 22.974316250000015 41.10117375 19.756250000000016 Q41.02054875 16.538183750000016 43.411241249999996 14.147491250000016 L93.1112325 -35.55249999999998 L43.411241249999996 -85.25249124999999 Q41.18179875 -87.48193375 41.05554 -90.78062499999999 Q40.9294425 -94.07931624999998 43.320135 -96.47000874999998 Q45.549577500000005 -98.86070125 48.89374125 -98.94132625 Q52.23806625 -99.02195125 54.53765250000001 -96.63125875 L111.22750875000001 -40.03250874999999 Q112.21597125000001 -39.04388499999999 112.67521125 -37.91868249999999 Q113.13445125000001 -36.79347999999999 113.13445125000001 -35.55249999999998 Q113.13445125000001 -34.31151999999999 112.67521125 -33.18631749999999 Q112.21597125000001 -32.06111499999999 111.22750875000001 -31.072491249999985 L54.62875875 25.526258750000014 Q52.39931625 27.755701250000016 49.100625 27.755701250000016 Q45.80193375 27.755701250000016 43.411241249999996 25.365008750000015 Z"/></g><g id="Medium-L" transform="matrix(1 0 0 1 1674.31 1556)"><path d="M44.0422125 24.734037500000017 Q42.07576875 22.606182500000017 41.995143750000004 19.756250000000016 Q41.91451875 16.906317500000014 44.0422125 14.778462500000014 L94.37333625 -35.55249999999998 L44.0422125 -85.88346249999998 Q42.07576875 -87.8500675 41.97579375 -90.78062499999999 Q41.875980000000006 -93.71118249999998 44.003673750000004 -95.83903749999999 Q45.97027875 -97.96673125000001 48.920025 -98.04735625 Q51.8699325 -98.12798125 53.9590875 -96.00028749999998 L110.59653750000001 -39.40153749999999 Q111.47986499999999 -38.51804874999999 111.86025375 -37.57683249999998 Q112.24048125000002 -36.635616249999984 112.24048125000002 -35.55249999999998 Q112.24048125000002 -34.46938374999999 111.86025375 -33.528167499999995 Q111.47986499999999 -32.586951249999984 110.59653750000001 -31.703462499999986 L53.9977875 24.895287500000016 Q52.0311825 26.861731250000012 49.100625 26.861731250000012 Q46.1700675 26.861731250000012 44.0422125 24.734037500000017 Z"/></g><g id="Regular-L" transform="matrix(1 0 0 1 1378.56 1556)"><path d="M44.505 24.271250000000016 Q42.73125 22.336250000000014 42.650625 19.756250000000016 Q42.57 17.176250000000014 44.505 15.241250000000015 L95.29875 -35.55249999999998 L44.505 -86.34625 Q42.73125 -88.11999999999998 42.650625 -90.78062499999999 Q42.57 -93.44125 44.505 -95.37625 Q46.27875 -97.31125 48.939375 -97.391875 Q51.6 -97.4725 53.535000000000004 -95.5375 L110.13375 -38.938749999999985 Q110.94 -38.13249999999999 111.2625 -37.32624999999999 Q111.58500000000001 -36.51999999999998 111.58500000000001 -35.55249999999998 Q111.58500000000001 -34.58499999999998 111.2625 -33.77874999999999 Q110.94 -32.97249999999998 110.13375 -32.16624999999999 L53.535000000000004 24.432500000000015 Q51.761250000000004 26.206250000000015 49.100625 26.206250000000015 Q46.44 26.206250000000015 44.505 24.271250000000016 Z"/></g><g id="Light-L" transform="matrix(1 0 0 1 1082.77 1556)"><path d="M45.99349875 22.968672500000014 Q44.529993749999996 21.467918750000017 44.48032875 19.322003750000015 Q44.43066375 17.176250000000014 45.99349875 15.613415000000014 L97.09749375 -35.49041874999999 L45.93157875 -86.59441374999997 Q44.4679125 -88.05791875 44.4182475 -90.1914175 Q44.36874375 -92.32475499999998 45.99349875 -93.88775124999998 Q47.457165 -95.45058624999999 49.652583750000005 -95.53121124999998 Q51.84816375 -95.61183624999998 53.41099875 -94.04900124999998 L108.70717125 -38.75266749999999 Q109.45150125 -37.94641749999998 109.77400125 -37.17112749999998 Q110.09650125 -36.39599874999999 110.09650125 -35.49041874999999 Q110.09650125 -34.52291874999999 109.77400125 -33.74778999999998 Q109.45150125 -32.97249999999998 108.70717125 -32.22833124999998 L53.3489175 23.129922500000013 Q51.88525125 24.593588750000016 49.75191375 24.593588750000016 Q47.618415 24.593588750000016 45.99349875 22.968672500000014 Z"/></g><g id="Thin-L" transform="matrix(1 0 0 1 787.282 1556)"><path d="M47.48183625 21.666417500000016 Q46.328415 20.599748750000014 46.30971 18.887918750000015 Q46.29116625 17.176250000000014 47.48183625 15.985418750000015 L98.895915 -35.42849874999999 L47.357835 -86.84241624999999 Q46.2042525 -87.99599874999998 46.18570875 -89.60220999999999 Q46.167165 -91.20858249999998 47.48183625 -92.39941374999998 Q48.63541875 -93.59008374999999 50.365792500000005 -93.67070874999999 Q52.09616625 -93.75133374999999 53.2869975 -92.56066374999997 L107.28091500000001 -38.56658499999999 Q107.96316375 -37.76033499999998 108.28566375 -37.01616624999998 Q108.60816375 -36.27199749999998 108.60816375 -35.42849874999999 Q108.60816375 -34.46099874999999 108.28566375 -33.71666874999998 Q107.96316375 -32.97249999999998 107.28091500000001 -32.29025124999998 L53.162835 21.827667500000015 Q52.0092525 22.981250000000017 50.40304125 22.981250000000017 Q48.79666875 22.981250000000017 47.48183625 21.666417500000016 Z"/></g><g id="Ultralight-L" transform="matrix(1 0 0 1 491.205 1556)"><path d="M48.375 20.885000000000016 Q47.4075 20.078750000000014 47.4075 18.627500000000015 Q47.4075 17.176250000000014 48.375 16.208750000000016 L99.97500000000001 -35.391249999999985 L48.213750000000005 -86.99124999999998 Q47.24625 -87.95874999999998 47.24625 -89.24875 Q47.24625 -90.53875 48.375 -91.50625 Q49.3425 -92.47375 50.79375 -92.554375 Q52.245000000000005 -92.63499999999999 53.2125 -91.66749999999999 L106.425 -38.454999999999984 Q107.07000000000001 -37.64874999999999 107.3925 -36.923124999999985 Q107.715 -36.19749999999999 107.715 -35.391249999999985 Q107.715 -34.423749999999984 107.3925 -33.69812499999999 Q107.07000000000001 -32.97249999999998 106.425 -32.327499999999986 L53.05125 21.046250000000015 Q52.08375 22.013750000000016 50.79375 22.013750000000016 Q49.503750000000004 22.013750000000016 48.375 20.885000000000016 Z"/></g><g id="Bold-M" transform="matrix(1 0 0 1 2281.8 1126)"><path d="M33.75 12.27000000000001 Q31.125 9.64500000000001 31.125 5.83250000000001 Q31.125 2.0200000000000102 33.75 -0.6049999999999898 L68.375 -35.22999999999999 L33.625 -69.97999999999999 Q31.0 -72.60499999999999 30.9375 -76.35499999999999 Q30.875 -80.10499999999999 33.625 -82.85499999999999 Q36.25 -85.47999999999999 40.0625 -85.47999999999999 Q43.875 -85.47999999999999 46.5 -82.85499999999999 L88.625 -40.72999999999999 Q89.75 -39.60499999999999 90.3125 -38.16749999999999 Q90.875 -36.72999999999999 90.875 -35.22999999999999 Q90.875 -33.72999999999999 90.3125 -32.29249999999999 Q89.75 -30.85499999999999 88.625 -29.72999999999999 L46.5 12.39500000000001 Q43.875 15.02000000000001 40.1875 15.02000000000001 Q36.5 15.02000000000001 33.75 12.27000000000001 Z"/></g><g id="Semibold-M" transform="matrix(1 0 0 1 1985.97 1126)"><path d="M34.6195 11.40050000000001 Q32.320625 9.10150000000001 32.320625 5.83250000000001 Q32.320625 2.563500000000012 34.6195 0.26450000000000884 L70.114 -35.22999999999999 L34.4945 -70.84949999999999 Q32.249875 -73.09412499999999 32.214625 -76.35499999999999 Q32.17925 -79.61587499999999 34.548875 -81.98549999999999 Q36.84775 -84.28437499999998 40.116875 -84.28437499999998 Q43.385875 -84.28437499999998 45.684875 -81.98549999999999 L87.7555 -39.86049999999999 Q88.7175 -38.89849999999999 89.17125 -37.70562499999999 Q89.625125 -36.51262499999999 89.625125 -35.22999999999999 Q89.625125 -33.94737499999999 89.17125 -32.75437499999999 Q88.7175 -31.561499999999988 87.7555 -30.599499999999992 L45.6305 11.52550000000001 Q43.385875 13.77012500000001 40.1875 13.77012500000001 Q36.989125 13.77012500000001 34.6195 11.40050000000001 Z"/></g><g id="Medium-M" transform="matrix(1 0 0 1 1689.91 1126)"><path d="M35.27175 10.74825000000001 Q33.217375 8.69387500000001 33.217375 5.83250000000001 Q33.217375 2.9711250000000113 35.27175 0.9167500000000111 L71.4185 -35.22999999999999 L35.14675 -71.50174999999999 Q33.1875 -73.46099999999998 33.1725 -76.35499999999999 Q33.157625 -79.249 35.241875 -81.33324999999999 Q37.29625 -83.38762499999999 40.157625 -83.38762499999999 Q43.019 -83.38762499999999 45.073375 -81.33324999999999 L87.10325 -39.20824999999999 Q87.943 -38.36862499999999 88.31525 -37.35912499999999 Q88.6875 -36.34962499999999 88.6875 -35.22999999999999 Q88.6875 -34.11037499999999 88.31525 -33.10087499999999 Q87.943 -32.09137499999999 87.10325 -31.251749999999987 L44.97825 10.87325000000001 Q43.019 12.83250000000001 40.1875 12.83250000000001 Q37.356 12.83250000000001 35.27175 10.74825000000001 Z"/></g><g id="Regular-M" transform="matrix(1 0 0 1 1394.06 1126)"><path d="M35.75 10.27000000000001 Q33.875 8.39500000000001 33.875 5.83250000000001 Q33.875 3.2700000000000102 35.75 1.3950000000000102 L72.375 -35.22999999999999 L35.625 -71.97999999999999 Q33.875 -73.72999999999999 33.875 -76.35499999999999 Q33.875 -78.97999999999999 35.75 -80.85499999999999 Q37.625 -82.72999999999999 40.1875 -82.72999999999999 Q42.75 -82.72999999999999 44.625 -80.85499999999999 L86.625 -38.72999999999999 Q87.375 -37.97999999999999 87.6875 -37.10499999999999 Q88.0 -36.22999999999999 88.0 -35.22999999999999 Q88.0 -34.22999999999999 87.6875 -33.35499999999999 Q87.375 -32.47999999999999 86.625 -31.72999999999999 L44.5 10.39500000000001 Q42.75 12.14500000000001 40.1875 12.14500000000001 Q37.625 12.14500000000001 35.75 10.27000000000001 Z"/></g><g id="Light-M" transform="matrix(1 0 0 1 1098.18 1126)"><path d="M36.567375 9.45262500000001 Q35.077 7.962250000000012 35.077 5.90462500000001 Q35.077 3.847000000000012 36.567375 2.3566250000000117 L74.154 -35.22999999999999 L36.442375 -72.94162499999999 Q35.028875 -74.35499999999999 35.028875 -76.40312499999999 Q35.028875 -78.45112499999999 36.567375 -79.98949999999999 Q38.05775 -81.47987499999999 40.115375 -81.47987499999999 Q42.173 -81.47987499999999 43.663375 -79.98949999999999 L85.182625 -38.39337499999999 Q85.8845 -37.69149999999999 86.173 -36.91262499999999 Q86.461375 -36.13387499999999 86.461375 -35.22999999999999 Q86.461375 -34.32612499999999 86.173 -33.54737499999999 Q85.8845 -32.76849999999999 85.182625 -32.06662499999999 L43.538375 9.57762500000001 Q42.125 10.991125000000011 40.115375 10.991125000000011 Q38.10575 10.991125000000011 36.567375 9.45262500000001 Z"/></g><g id="Thin-M" transform="matrix(1 0 0 1 802.565 1126)"><path d="M37.384625 8.63537500000001 Q36.278875 7.52962500000001 36.278875 5.97675000000001 Q36.278875 4.4238750000000095 37.384625 3.318125000000009 L75.932625 -35.22999999999999 L37.259625 -73.90312499999999 Q36.182625 -74.97999999999999 36.182625 -76.45112499999999 Q36.182625 -77.92237499999999 37.384625 -79.12424999999999 Q38.490375 -80.22999999999999 40.04325 -80.22999999999999 Q41.596125 -80.22999999999999 42.701875 -79.12424999999999 L83.740375 -38.05687499999999 Q84.39425 -37.40312499999999 84.658625 -36.72037499999999 Q84.923125 -36.03774999999999 84.923125 -35.22999999999999 Q84.923125 -34.42224999999999 84.658625 -33.73962499999999 Q84.39425 -33.05687499999999 83.740375 -32.40312499999999 L42.576875 8.76037500000001 Q41.5 9.83737500000001 40.04325 9.83737500000001 Q38.5865 9.83737500000001 37.384625 8.63537500000001 Z"/></g><g id="Ultralight-M" transform="matrix(1 0 0 1 506.415 1126)"><path d="M37.875 8.14500000000001 Q37.0 7.27000000000001 37.0 6.02000000000001 Q37.0 4.77000000000001 37.875 3.8950000000000102 L77.0 -35.22999999999999 L37.75 -74.47999999999999 Q36.875 -75.35499999999999 36.875 -76.47999999999999 Q36.875 -77.60499999999999 37.875 -78.60499999999999 Q38.75 -79.47999999999999 40.0 -79.47999999999999 Q41.25 -79.47999999999999 42.125 -78.60499999999999 L82.875 -37.85499999999999 Q83.5 -37.22999999999999 83.75 -36.60499999999999 Q84.0 -35.97999999999999 84.0 -35.22999999999999 Q84.0 -34.47999999999999 83.75 -33.85499999999999 Q83.5 -33.22999999999999 82.875 -32.60499999999999 L42.0 8.27000000000001 Q41.125 9.14500000000001 40.0 9.14500000000001 Q38.875 9.14500000000001 37.875 8.14500000000001 Z"/></g><g id="Bold-S" transform="matrix(1 0 0 1 2294.23 696)"><path d="M26.727375000000002 2.1488750000000127 Q24.557625 -0.020874999999987764 24.557625 -3.0782499999999864 Q24.557625 -6.135624999999987 26.727375000000002 -8.305374999999987 L53.652 -35.22999999999999 L26.62875 -62.253249999999994 Q24.459 -64.42299999999999 24.4096875 -67.38175 Q24.360375 -70.34049999999999 26.62875 -72.60887499999998 Q28.699875000000002 -74.67999999999999 31.806562500000002 -74.67999999999999 Q34.913250000000005 -74.67999999999999 36.984375 -72.60887499999998 L69.92512500000001 -39.76674999999999 Q70.911375 -38.78049999999999 71.4045 -37.59699999999999 Q71.897625 -36.41349999999999 71.897625 -35.22999999999999 Q71.897625 -34.04649999999999 71.4045 -32.862999999999985 Q70.911375 -31.67949999999999 69.92512500000001 -30.693249999999985 L36.984375 2.247500000000013 Q34.716 4.515875000000014 31.806562500000002 4.417250000000013 Q28.897125000000003 4.318625000000013 26.727375000000002 2.1488750000000127 Z"/></g><g id="Semibold-S" transform="matrix(1 0 0 1 1998.1 696)"><path d="M27.4134105 1.4628395000000136 Q25.500973125 -0.4496964999999875 25.500973125 -3.0782499999999864 Q25.500973125 -5.706803499999985 27.4134105 -7.619339499999988 L55.024071000000006 -35.22999999999999 L27.314785500000003 -62.9392855 Q25.445151375000002 -64.80891962499999 25.417339124999998 -67.38175 Q25.389428250000005 -69.95458037499999 27.357687375000005 -71.9228395 Q29.17149975 -73.73665187499998 31.849464375 -73.73665187499998 Q34.527330375 -73.73665187499998 36.341241375 -71.9228395 L69.2390895 -39.080714499999985 Q70.0967325 -38.22307149999999 70.50405375 -37.23258062499999 Q70.911473625 -36.24199112499999 70.911473625 -35.22999999999999 Q70.911473625 -34.21800887499999 70.50405375 -33.22741937499999 Q70.0967325 -32.23692849999999 69.2390895 -31.379285499999988 L36.2983395 1.561464500000012 Q34.330080375 3.5297236250000132 31.806562500000002 3.431098625000013 Q29.283044625000002 3.332473625000013 27.4134105 1.4628395000000136 Z"/></g><g id="Medium-S" transform="matrix(1 0 0 1 1701.85 696)"><path d="M27.92803575 0.9482142500000119 Q26.208508875 -0.7713126249999878 26.208508875 -3.0782499999999864 Q26.208508875 -5.385187374999987 27.92803575 -7.1047142499999865 L56.053321499999996 -35.22999999999999 L27.829410749999997 -63.45391074999999 Q26.1849375 -65.09838399999998 26.173102500000002 -67.38175 Q26.161366125000004 -69.665116 27.904464375 -71.40821424999999 Q29.52536625 -73.02911612499999 31.881616125000004 -73.02911612499999 Q34.237866 -73.02911612499999 35.858767875 -71.40821424999999 L68.72446425000001 -38.56608924999999 Q69.485652 -37.805000124999985 69.82866975 -36.95919212499999 Q70.1716875 -36.11338412499999 70.1716875 -35.22999999999999 Q70.1716875 -34.34661587499999 69.82866975 -33.500807874999985 Q69.485652 -32.65499987499999 68.72446425000001 -31.89391074999999 L35.78371425 1.046839250000012 Q34.040616 2.789937500000013 31.806562500000002 2.691312500000013 Q29.572509000000004 2.5926875000000127 27.92803575 0.9482142500000119 Z"/></g><g id="Regular-S" transform="matrix(1 0 0 1 1405.73 696)"><path d="M28.305375 0.5708750000000133 Q26.727375000000002 -1.007124999999986 26.727375000000002 -3.0782499999999864 Q26.727375000000002 -5.1493749999999885 28.305375 -6.727374999999988 L56.808 -35.22999999999999 L28.20675 -63.83124999999998 Q26.727375000000002 -65.31062499999999 26.727375000000002 -67.38175 Q26.727375000000002 -69.45287499999999 28.305375 -71.030875 Q29.784750000000003 -72.51024999999998 31.9051875 -72.51024999999998 Q34.025625 -72.51024999999998 35.505 -71.030875 L68.347125 -38.18874999999999 Q69.03750000000001 -37.49837499999999 69.333375 -36.758687499999986 Q69.62925 -36.01899999999999 69.62925 -35.22999999999999 Q69.62925 -34.44099999999999 69.333375 -33.701312499999986 Q69.03750000000001 -32.96162499999999 68.347125 -32.27124999999999 L35.406375000000004 0.6695000000000135 Q33.828375 2.247500000000013 31.806562500000002 2.1488750000000127 Q29.784750000000003 2.0502500000000126 28.305375 0.5708750000000133 Z"/></g><g id="Light-S" transform="matrix(1 0 0 1 1109.75 696)"><path d="M28.950283875 -0.07403387499998715 Q27.675753 -1.3485647499999853 27.675753 -3.0213433749999865 Q27.675753 -4.694121999999986 28.950283875 -5.968652874999986 L58.211631 -35.22999999999999 L28.851658875 -64.58997212499999 Q27.637782375 -65.80375 27.637782375 -67.41972062499998 Q27.637782375 -69.03559262499999 28.950283875 -70.3479955 Q30.12618975 -71.523901375 31.848280875 -71.523901375 Q33.570372000000006 -71.523901375 34.746277875000004 -70.3479955 L67.209091125 -37.92315287499999 Q67.8614955 -37.27074849999999 68.1384345 -36.60690362499999 Q68.41527487500001 -35.94315737499999 68.41527487500001 -35.22999999999999 Q68.41527487500001 -34.51684262499999 68.1384345 -33.853096374999986 Q67.8614955 -33.18925149999999 67.209091125 -32.53684712499999 L34.647652875000006 0.024591125000013037 Q33.33525 1.3370926250000146 31.749655875000002 1.2384676250000144 Q30.164061750000002 1.1398426250000142 28.950283875 -0.07403387499998715 Z"/></g><g id="Thin-S" transform="matrix(1 0 0 1 814.015 696)"><path d="M29.595094125000003 -0.7188441249999862 Q28.624032375000002 -1.6899058749999867 28.624032375000002 -2.9644367499999866 Q28.624032375000002 -4.238967624999987 29.595094125000003 -5.210029374999987 L59.614966125 -35.22999999999999 L29.496469125 -65.34859562499999 Q28.548091125000003 -66.29687499999999 28.548091125000003 -67.45759262499999 Q28.548091125000003 -68.61840887499999 29.595094125000003 -69.66531324999998 Q30.467530875 -70.53774999999999 31.79137425 -70.53774999999999 Q33.115217625 -70.53774999999999 33.987654375000005 -69.66531324999998 L66.071155875 -37.65765437499999 Q66.68568825 -37.04322062499999 66.94359262500001 -36.45521837499999 Q67.201595625 -35.867314749999984 67.201595625 -35.22999999999999 Q67.201595625 -34.59268524999999 66.94359262500001 -34.004781624999985 Q66.68568825 -33.41677937499999 66.071155875 -32.80234562499999 L33.889029375 -0.620219124999986 Q32.842125 0.42678387500001413 31.692749250000002 0.32815887500001395 Q30.5433735 0.22953387500001377 29.595094125000003 -0.7188441249999862 Z"/></g><g id="Ultralight-S" transform="matrix(1 0 0 1 517.792 696)"><path d="M29.982000000000003 -1.1057499999999862 Q29.193 -1.8947499999999877 29.193 -2.930312499999987 Q29.193 -3.9658749999999863 29.982000000000003 -4.754874999999988 L60.457125000000005 -35.22999999999999 L29.883375 -65.80375 Q29.094375000000003 -66.59275 29.094375000000003 -67.480375 Q29.094375000000003 -68.368 29.982000000000003 -69.255625 Q30.672375000000002 -69.94599999999998 31.757250000000003 -69.94599999999998 Q32.842125 -69.94599999999998 33.5325 -69.255625 L65.388375 -37.49837499999999 Q65.980125 -36.90662499999999 66.2266875 -36.364187499999986 Q66.47325000000001 -35.82174999999999 66.47325000000001 -35.22999999999999 Q66.47325000000001 -34.638249999999985 66.2266875 -34.09581249999999 Q65.980125 -33.55337499999999 65.388375 -32.96162499999999 L33.433875 -1.007124999999986 Q32.54625 -0.11949999999998617 31.658625 -0.21812499999998636 Q30.771 -0.31674999999998654 29.982000000000003 -1.1057499999999862 Z"/></g></g></svg>