<svg xmlns="http://www.w3.org/2000/svg" version="1.1" width="3300" height="2000"><g id="Notes"><style>
    text {
      font-family: monospace;
      text-anchor: middle;
    }
    text.emphasis {
      font-weight:bold;
    }
    text.lanchor {
      text-anchor: start;
    }
  </style><rect height="2200" id="artboard" fill="white" width="3300" x="0" y="0"/><line id="" style="fill:none;stroke:black;stroke-width:0.5;" x1="263" x2="3036" y1="292" y2="292"/><text class="lanchor emphasis" transform="matrix(1 0 0 1 263 322)">Weight/Scale Variations</text><text transform="matrix(1 0 0 1 559.711 322)">Ultralight</text><text transform="matrix(1 0 0 1 856.422 322)">Thin</text><text transform="matrix(1 0 0 1 1153.13 322)">Light</text><text transform="matrix(1 0 0 1 1449.84 322)">Regular</text><text transform="matrix(1 0 0 1 1746.56 322)">Medium</text><text transform="matrix(1 0 0 1 2043.27 322)">Semibold</text><text transform="matrix(1 0 0 1 2339.98 322)">Bold</text><text transform="matrix(1 0 0 1 2636.69 322)">Heavy</text><text transform="matrix(1 0 0 1 2933.4 322)">Black</text><text id="template-version" style="text-anchor: end;" transform="matrix(1 0 0 1 3036 1933)">Template v.1.0</text><text class="lanchor" transform="matrix(1 0 0 1 263 726)">Small</text><text class="lanchor" transform="matrix(1 0 0 1 263 1156)">Medium</text><text class="lanchor" transform="matrix(1 0 0 1 263 1586)">Large</text></g><g id="Guides"><g id="H-reference" style="fill:#27AAE1;stroke:none;" transform="matrix(1 0 0 1 339 696)"><path d="M 54.9316 0 L 57.666 0 L 30.5664 -70.459 L 28.0762 -70.459 L 0.976562 0 L 3.66211 0 L 12.9395 -24.4629 L 45.7031 -24.4629 Z M 29.1992 -67.0898 L 29.4434 -67.0898 L 44.8242 -26.709 L 13.8184 -26.709 Z"/></g><line id="Baseline-S" style="fill:none;stroke:#27AAE1;opacity:1;stroke-width:0.577;" x1="263" x2="3036" y1="696" y2="696"/><line id="Capline-S" style="fill:none;stroke:#27AAE1;opacity:1;stroke-width:0.577;" x1="263" x2="3036" y1="625.541" y2="625.541"/><g id="H-reference" style="fill:#27AAE1;stroke:none;" transform="matrix(1 0 0 1 339 1126)"><path d="M 54.9316 0 L 57.666 0 L 30.5664 -70.459 L 28.0762 -70.459 L 0.976562 0 L 3.66211 0 L 12.9395 -24.4629 L 45.7031 -24.4629 Z M 29.1992 -67.0898 L 29.4434 -67.0898 L 44.8242 -26.709 L 13.8184 -26.709 Z"/></g><line id="Baseline-M" style="fill:none;stroke:#27AAE1;opacity:1;stroke-width:0.577;" x1="263" x2="3036" y1="1126" y2="1126"/><line id="Capline-M" style="fill:none;stroke:#27AAE1;opacity:1;stroke-width:0.577;" x1="263" x2="3036" y1="1055.54" y2="1055.54"/><g id="H-reference" style="fill:#27AAE1;stroke:none;" transform="matrix(1 0 0 1 339 1556)"><path d="M 54.9316 0 L 57.666 0 L 30.5664 -70.459 L 28.0762 -70.459 L 0.976562 0 L 3.66211 0 L 12.9395 -24.4629 L 45.7031 -24.4629 Z M 29.1992 -67.0898 L 29.4434 -67.0898 L 44.8242 -26.709 L 13.8184 -26.709 Z"/></g><line id="Baseline-L" style="fill:none;stroke:#27AAE1;opacity:1;stroke-width:0.577;" x1="263" x2="3036" y1="1556" y2="1556"/><line id="Capline-L" style="fill:none;stroke:#27AAE1;opacity:1;stroke-width:0.577;" x1="263" x2="3036" y1="1485.54" y2="1485.54"/><rect height="119.336" id="left-margin" style="fill:darkred;stroke:none;opacity:0.4;" width="12.4512" x="1394.06" y="1030.79"/><rect height="119.336" id="right-margin" style="fill:darkgreen;stroke:none;opacity:0.4;" width="12.4512" x="1502.5112" y="1030.79"/><rect x="1406.5112" y="1045" width="96" height="96" fill="none" stroke="blue" stroke-dasharray="5"/><rect x="1394.06" y="1030.79" width="120.9024" height="119.336" fill="none" stroke="blue"/></g><g id="Symbols"><g id="Bold-L" transform="matrix(1 0 0 1 2266 1556)"><path d="M77.4 -24.58749999999999  45.472500000000004 7.340000000000018 Q43.215 9.597500000000018 40.151250000000005 9.597500000000018 Q37.0875 9.597500000000018 34.83 7.340000000000018 Q32.5725 5.082500000000017 32.5725 2.0187500000000114 Q32.5725 -1.0449999999999875 34.83 -3.302499999999988 L66.75750000000001 -35.22999999999999 L34.83 -67.15749999999998 Q32.5725 -69.41499999999999 32.5725 -72.47874999999999 Q32.5725 -75.54249999999999 34.83 -77.79999999999998 Q37.0875 -80.05749999999999 40.151250000000005 -80.05749999999999 Q43.215 -80.05749999999999 45.472500000000004 -77.79999999999998 L77.4 -45.87249999999999 L109.3275 -77.79999999999998 Q111.58500000000001 -80.05749999999999 114.64875 -80.05749999999999 Q117.7125 -80.05749999999999 119.97 -77.79999999999998 Q122.2275 -75.54249999999999 122.2275 -72.47874999999999 Q122.2275 -69.41499999999999 119.97 -67.15749999999998 L88.0425 -35.22999999999999 L119.97 -3.302499999999988 Q122.2275 -1.0449999999999875 122.2275 2.0187500000000114 Q122.2275 5.082500000000017 119.97 7.340000000000018 Q117.7125 9.597500000000018 114.64875 9.597500000000018 Q111.58500000000001 9.597500000000018 109.3275 7.340000000000018 L77.4 -24.58749999999999 Z"/></g><g id="Semibold-L" transform="matrix(1 0 0 1 1970.27 1556)"><path d="M77.4 -26.269982499999983  44.63125875 6.498758750000015 Q42.72431625 8.405701250000014 40.151250000000005 8.405701250000014 Q37.57818375 8.405701250000014 35.67124125 6.498758750000015 Q33.76429875 4.591816250000015 33.76429875 2.0187500000000114 Q33.76429875 -0.5543162499999852 35.67124125 -2.4612587499999847 L68.4399825 -35.22999999999999 L35.67124125 -67.99874124999998 Q33.76429875 -69.90568375 33.76429875 -72.47874999999999 Q33.76429875 -75.05181624999999 35.67124125 -76.95875874999999 Q37.57818375 -78.86570124999999 40.151250000000005 -78.86570124999999 Q42.72431625 -78.86570124999999 44.63125875 -76.95875874999999 L77.4 -44.190017499999996 L110.16874125 -76.95875874999999 Q112.07568375000001 -78.86570124999999 114.64875 -78.86570124999999 Q117.22181625 -78.86570124999999 119.12875875 -76.95875874999999 Q121.03570125 -75.05181624999999 121.03570125 -72.47874999999999 Q121.03570125 -69.90568375 119.12875875 -67.99874124999998 L86.36001750000001 -35.22999999999999 L119.12875875 -2.4612587499999847 Q121.03570125 -0.5543162499999852 121.03570125 2.0187500000000114 Q121.03570125 4.591816250000015 119.12875875 6.498758750000015 Q117.22181625 8.405701250000014 114.64875 8.405701250000014 Q112.07568375000001 8.405701250000014 110.16874125 6.498758750000015 L77.4 -26.269982499999983 Z"/></g><g id="Medium-L" transform="matrix(1 0 0 1 1674.31 1556)"><path d="M77.4 -27.532086249999992  44.0002875 5.867787500000013 Q42.356182499999996 7.511731250000011 40.151250000000005 7.511731250000011 Q37.9463175 7.511731250000011 36.3022125 5.867787500000013 Q34.658268750000005 4.223682500000017 34.658268750000005 2.0187500000000114 Q34.658268750000005 -0.1861824999999797 36.3022125 -1.830287499999983 L69.70208625000001 -35.22999999999999 L36.3022125 -68.62971249999998 Q34.658268750000005 -70.27381749999999 34.658268750000005 -72.47874999999999 Q34.658268750000005 -74.68368249999999 36.3022125 -76.32778749999999 Q37.9463175 -77.97173124999999 40.151250000000005 -77.97173124999999 Q42.356182499999996 -77.97173124999999 44.0002875 -76.32778749999999 L77.4 -42.92791374999999 L110.7997125 -76.32778749999999 Q112.44381750000001 -77.97173124999999 114.64875 -77.97173124999999 Q116.8536825 -77.97173124999999 118.4977875 -76.32778749999999 Q120.14173125 -74.68368249999999 120.14173125 -72.47874999999999 Q120.14173125 -70.27381749999999 118.4977875 -68.62971249999998 L85.09791375 -35.22999999999999 L118.4977875 -1.830287499999983 Q120.14173125 -0.1861824999999797 120.14173125 2.0187500000000114 Q120.14173125 4.223682500000017 118.4977875 5.867787500000013 Q116.8536825 7.511731250000011 114.64875 7.511731250000011 Q112.44381750000001 7.511731250000011 110.7997125 5.867787500000013 L77.4 -27.532086249999992 Z"/></g><g id="Regular-L" transform="matrix(1 0 0 1 1378.56 1556)"><path d="M77.4 -28.457499999999982  43.5375 5.405000000000015 Q42.08625 6.856250000000017 40.151250000000005 6.856250000000017 Q38.21625 6.856250000000017 36.765 5.405000000000015 Q35.31375 3.9537500000000136 35.31375 2.0187500000000114 Q35.31375 0.0837500000000162 36.765 -1.3674999999999855 L70.6275 -35.22999999999999 L36.765 -69.09249999999999 Q35.31375 -70.54374999999999 35.31375 -72.47874999999999 Q35.31375 -74.41375 36.765 -75.86499999999998 Q38.21625 -77.31624999999998 40.151250000000005 -77.31624999999998 Q42.08625 -77.31624999999998 43.5375 -75.86499999999998 L77.4 -42.00249999999998 L111.2625 -75.86499999999998 Q112.71375 -77.31624999999998 114.64875 -77.31624999999998 Q116.58375000000001 -77.31624999999998 118.035 -75.86499999999998 Q119.48625 -74.41375 119.48625 -72.47874999999999 Q119.48625 -70.54374999999999 118.035 -69.09249999999999 L84.1725 -35.22999999999999 L118.035 -1.3674999999999855 Q119.48625 0.0837500000000162 119.48625 2.0187500000000114 Q119.48625 3.9537500000000136 118.035 5.405000000000015 Q116.58375000000001 6.856250000000017 114.64875 6.856250000000017 Q112.71375 6.856250000000017 111.2625 5.405000000000015 L77.4 -28.457499999999982 Z"/></g><g id="Light-L" transform="matrix(1 0 0 1 1082.77 1556)"><path d="M77.4 -30.070161249999984  43.04133375 4.288505000000015 Q41.96224875 5.367751250000019 40.49245500000001 5.398711250000019 Q39.0225 5.429671250000013 37.881495 4.288505000000015 Q36.74032875 3.147500000000015 36.74032875 1.7086662500000145 Q36.74032875 0.2698325000000139 37.881495 -0.8713337499999838 L72.24016125 -35.22999999999999 L37.881495 -69.58866624999999 Q36.80224875 -70.66775125 36.77128875 -72.13754499999999 Q36.74032875 -73.60749999999999 37.881495 -74.748505 Q39.0225 -75.88967124999999 40.46133375 -75.88967124999999 Q41.9001675 -75.88967124999999 43.04133375 -74.748505 L77.4 -40.389838749999996 L111.75866625 -74.748505 Q112.83775125000001 -75.82775124999999 114.307545 -75.85871124999998 Q115.7775 -75.88967124999999 116.91850500000001 -74.748505 Q118.05967125000001 -73.60749999999999 118.05967125000001 -72.16866624999999 Q118.05967125000001 -70.72983249999999 116.91850500000001 -69.58866624999999 L82.55983875000001 -35.22999999999999 L116.91850500000001 -0.8713337499999838 Q117.99775125000001 0.20775125000001538 118.02871125 1.6775450000000092 Q118.05967125000001 3.147500000000015 116.91850500000001 4.288505000000015 Q115.7775 5.429671250000013 114.33866625 5.429671250000013 Q112.8998325 5.429671250000013 111.75866625 4.288505000000015 L77.4 -30.070161249999984 Z"/></g><g id="Thin-L" transform="matrix(1 0 0 1 787.282 1556)"><path d="M77.4 -31.68249999999999  42.545167500000005 3.1723325000000173 Q41.8382475 3.879413750000012 40.83349875 3.9413337500000125 Q39.82875 4.003415000000011 38.9976675 3.1723325000000173 Q38.166585000000005 2.3412500000000165 38.166585000000005 1.3985825000000176 Q38.166585000000005 0.4559150000000116 38.9976675 -0.3751674999999892 L73.8525 -35.22999999999999 L38.9976675 -70.08483249999999 Q38.290586250000004 -70.79175249999999 38.22866625 -71.79650124999999 Q38.166585000000005 -72.80124999999998 38.9976675 -73.63233249999999 Q39.82875 -74.46341499999998 40.7714175 -74.46341499999998 Q41.714085000000004 -74.46341499999998 42.545167500000005 -73.63233249999999 L77.4 -38.77749999999999 L112.2548325 -73.63233249999999 Q112.9617525 -74.33941374999999 113.96650125000001 -74.40133374999999 Q114.97125 -74.46341499999998 115.8023325 -73.63233249999999 Q116.633415 -72.80124999999998 116.633415 -71.85858249999998 Q116.633415 -70.91591499999998 115.8023325 -70.08483249999999 L80.9475 -35.22999999999999 L115.8023325 -0.3751674999999892 Q116.50941375000001 0.33175250000001455 116.57133375000001 1.336501250000019 Q116.633415 2.3412500000000165 115.8023325 3.1723325000000173 Q114.97125 4.003415000000011 114.0285825 4.003415000000011 Q113.085915 4.003415000000011 112.2548325 3.1723325000000173 L77.4 -31.68249999999999 Z"/></g><g id="Ultralight-L" transform="matrix(1 0 0 1 491.205 1556)"><path d="M77.4 -32.64999999999999  42.2475 2.502500000000012 Q41.76375 2.9862500000000125 41.038125 3.0668750000000173 Q40.3125 3.147500000000015 39.667500000000004 2.502500000000012 Q39.0225 1.857500000000016 39.0225 1.2125000000000128 Q39.0225 0.5675000000000168 39.667500000000004 -0.07749999999998636 L74.82000000000001 -35.22999999999999 L39.667500000000004 -70.3825 Q39.18375 -70.86625 39.103125 -71.59187499999999 Q39.0225 -72.31749999999998 39.667500000000004 -72.96249999999999 Q40.3125 -73.60749999999999 40.9575 -73.60749999999999 Q41.6025 -73.60749999999999 42.2475 -72.96249999999999 L77.4 -37.80999999999999 L112.55250000000001 -72.96249999999999 Q113.03625000000001 -73.44624999999999 113.761875 -73.52687499999999 Q114.4875 -73.60749999999999 115.13250000000001 -72.96249999999999 Q115.7775 -72.31749999999998 115.7775 -71.67249999999999 Q115.7775 -71.02749999999999 115.13250000000001 -70.3825 L79.98 -35.22999999999999 L115.13250000000001 -0.07749999999998636 Q115.61625000000001 0.4062500000000142 115.696875 1.131875000000015 Q115.7775 1.857500000000016 115.13250000000001 2.502500000000012 Q114.4875 3.147500000000015 113.8425 3.147500000000015 Q113.1975 3.147500000000015 112.55250000000001 2.502500000000012 L77.4 -32.64999999999999 Z"/></g><g id="Bold-M" transform="matrix(1 0 0 1 2281.8 1126)"><path d="M60.0 -24.22999999999999  37.5 -1.7299999999999898 Q35.25 0.5200000000000102 32.0 0.5200000000000102 Q28.75 0.5200000000000102 26.5 -1.7299999999999898 Q24.25 -3.9799999999999898 24.25 -7.22999999999999 Q24.25 -10.47999999999999 26.5 -12.72999999999999 L49.0 -35.22999999999999 L26.5 -57.72999999999999 Q24.25 -59.97999999999999 24.25 -63.22999999999999 Q24.25 -66.47999999999999 26.5 -68.72999999999999 Q28.75 -70.97999999999999 32.0 -70.97999999999999 Q35.25 -70.97999999999999 37.5 -68.72999999999999 L60.0 -46.22999999999999 L82.5 -68.72999999999999 Q84.75 -70.97999999999999 88.0 -70.97999999999999 Q91.25 -70.97999999999999 93.5 -68.72999999999999 Q95.75 -66.47999999999999 95.75 -63.22999999999999 Q95.75 -59.97999999999999 93.5 -57.72999999999999 L71.0 -35.22999999999999 L93.5 -12.72999999999999 Q95.75 -10.47999999999999 95.75 -7.22999999999999 Q95.75 -3.9799999999999898 93.5 -1.7299999999999898 Q91.25 0.5200000000000102 88.0 0.5200000000000102 Q84.75 0.5200000000000102 82.5 -1.7299999999999898 L60.0 -24.22999999999999 Z"/></g><g id="Semibold-M" transform="matrix(1 0 0 1 1985.97 1126)"><path d="M60.0 -25.968999999999987  36.6305 -2.5994999999999884 Q34.760875 -0.7298749999999892 32.0 -0.7298749999999892 Q29.239125 -0.7298749999999892 27.3695 -2.5994999999999884 Q25.499875 -4.469124999999991 25.499875 -7.22999999999999 Q25.499875 -9.990874999999988 27.3695 -11.860499999999988 L50.739 -35.22999999999999 L27.3695 -58.59949999999999 Q25.499875 -60.46912499999999 25.499875 -63.22999999999999 Q25.499875 -65.99087499999999 27.3695 -67.86049999999999 Q29.239125 -69.73012499999999 32.0 -69.73012499999999 Q34.760875 -69.73012499999999 36.6305 -67.86049999999999 L60.0 -44.490999999999985 L83.3695 -67.86049999999999 Q85.239125 -69.73012499999999 88.0 -69.73012499999999 Q90.760875 -69.73012499999999 92.6305 -67.86049999999999 Q94.500125 -65.99087499999999 94.500125 -63.22999999999999 Q94.500125 -60.46912499999999 92.6305 -58.59949999999999 L69.261 -35.22999999999999 L92.6305 -11.860499999999988 Q94.500125 -9.990874999999988 94.500125 -7.22999999999999 Q94.500125 -4.469124999999991 92.6305 -2.5994999999999884 Q90.760875 -0.7298749999999892 88.0 -0.7298749999999892 Q85.239125 -0.7298749999999892 83.3695 -2.5994999999999884 L60.0 -25.968999999999987 Z"/></g><g id="Medium-M" transform="matrix(1 0 0 1 1689.91 1126)"><path d="M60.0 -27.27349999999999  35.97825 -3.2517499999999906 Q34.394 -1.6674999999999898 32.0 -1.6674999999999898 Q29.606 -1.6674999999999898 28.02175 -3.2517499999999906 Q26.4375 -4.835999999999991 26.4375 -7.22999999999999 Q26.4375 -9.623999999999988 28.02175 -11.208249999999992 L52.0435 -35.22999999999999 L28.02175 -59.25174999999999 Q26.4375 -60.835999999999984 26.4375 -63.22999999999999 Q26.4375 -65.624 28.02175 -67.20824999999999 Q29.606 -68.79249999999999 32.0 -68.79249999999999 Q34.394 -68.79249999999999 35.97825 -67.20824999999999 L60.0 -43.186499999999995 L84.02175 -67.20824999999999 Q85.606 -68.79249999999999 88.0 -68.79249999999999 Q90.394 -68.79249999999999 91.97825 -67.20824999999999 Q93.5625 -65.624 93.5625 -63.22999999999999 Q93.5625 -60.835999999999984 91.97825 -59.25174999999999 L67.9565 -35.22999999999999 L91.97825 -11.208249999999992 Q93.5625 -9.623999999999988 93.5625 -7.22999999999999 Q93.5625 -4.835999999999991 91.97825 -3.2517499999999906 Q90.394 -1.6674999999999898 88.0 -1.6674999999999898 Q85.606 -1.6674999999999898 84.02175 -3.2517499999999906 L60.0 -27.27349999999999 Z"/></g><g id="Regular-M" transform="matrix(1 0 0 1 1394.06 1126)"><path d="M60.0 -28.22999999999999  35.5 -3.7299999999999898 Q34.125 -2.3549999999999898 32.0 -2.3549999999999898 Q29.875 -2.3549999999999898 28.5 -3.7299999999999898 Q27.125 -5.10499999999999 27.125 -7.22999999999999 Q27.125 -9.35499999999999 28.5 -10.72999999999999 L53.0 -35.22999999999999 L28.5 -59.72999999999999 Q27.125 -61.10499999999999 27.125 -63.22999999999999 Q27.125 -65.35499999999999 28.5 -66.72999999999999 Q29.875 -68.10499999999999 32.0 -68.10499999999999 Q34.125 -68.10499999999999 35.5 -66.72999999999999 L60.0 -42.22999999999999 L84.5 -66.72999999999999 Q85.875 -68.10499999999999 88.0 -68.10499999999999 Q90.125 -68.10499999999999 91.5 -66.72999999999999 Q92.875 -65.35499999999999 92.875 -63.22999999999999 Q92.875 -61.10499999999999 91.5 -59.72999999999999 L67.0 -35.22999999999999 L91.5 -10.72999999999999 Q92.875 -9.35499999999999 92.875 -7.22999999999999 Q92.875 -5.10499999999999 91.5 -3.7299999999999898 Q90.125 -2.3549999999999898 88.0 -2.3549999999999898 Q85.875 -2.3549999999999898 84.5 -3.7299999999999898 L60.0 -28.22999999999999 Z"/></g><g id="Light-M" transform="matrix(1 0 0 1 1098.18 1126)"><path d="M60.0 -29.960874999999987  34.6345 -4.595499999999991 Q33.596125 -3.5569999999999915 32.024 -3.5329999999999906 Q30.452 -3.508874999999989 29.3655 -4.595499999999991 Q28.278875 -5.6819999999999915 28.278875 -7.22999999999999 Q28.278875 -8.777999999999992 29.3655 -9.864499999999992 L54.730875 -35.22999999999999 L29.3655 -60.59549999999999 Q28.327 -61.63387499999999 28.303 -63.20599999999999 Q28.278875 -64.77799999999999 29.3655 -65.86449999999999 Q30.452 -66.95112499999999 32.0 -66.95112499999999 Q33.548 -66.95112499999999 34.6345 -65.86449999999999 L60.0 -40.49912499999999 L85.3655 -65.86449999999999 Q86.403875 -66.90299999999999 87.976 -66.92699999999999 Q89.548 -66.95112499999999 90.6345 -65.86449999999999 Q91.721125 -64.77799999999999 91.721125 -63.22999999999999 Q91.721125 -61.68199999999999 90.6345 -60.59549999999999 L65.269125 -35.22999999999999 L90.6345 -9.864499999999992 Q91.673 -8.82612499999999 91.697 -7.253999999999991 Q91.721125 -5.6819999999999915 90.6345 -4.595499999999991 Q89.548 -3.508874999999989 88.0 -3.508874999999989 Q86.452 -3.508874999999989 85.3655 -4.595499999999991 L60.0 -29.960874999999987 Z"/></g><g id="Thin-M" transform="matrix(1 0 0 1 802.565 1126)"><path d="M60.0 -31.69149999999999  33.76925 -5.46074999999999 Q33.067375 -4.758874999999989 32.048125 -4.71074999999999 Q31.028875 -4.662624999999991 30.23075 -5.46074999999999 Q29.432625 -6.258874999999989 29.432625 -7.22999999999999 Q29.432625 -8.20112499999999 30.23075 -8.99924999999999 L56.4615 -35.22999999999999 L30.23075 -61.46074999999999 Q29.528875 -62.16262499999999 29.48075 -63.18187499999999 Q29.432625 -64.20112499999999 30.23075 -64.99924999999999 Q31.028875 -65.79737499999999 32.0 -65.79737499999999 Q32.971125 -65.79737499999999 33.76925 -64.99924999999999 L60.0 -38.76849999999999 L86.23075 -64.99924999999999 Q86.932625 -65.70112499999999 87.951875 -65.74924999999999 Q88.971125 -65.79737499999999 89.76925 -64.99924999999999 Q90.567375 -64.20112499999999 90.567375 -63.22999999999999 Q90.567375 -62.25887499999999 89.76925 -61.46074999999999 L63.5385 -35.22999999999999 L89.76925 -8.99924999999999 Q90.471125 -8.297374999999988 90.51925 -7.278124999999989 Q90.567375 -6.258874999999989 89.76925 -5.46074999999999 Q88.971125 -4.662624999999991 88.0 -4.662624999999991 Q87.028875 -4.662624999999991 86.23075 -5.46074999999999 L60.0 -31.69149999999999 Z"/></g><g id="Ultralight-M" transform="matrix(1 0 0 1 506.415 1126)"><path d="M60.0 -32.72999999999999  33.25 -5.97999999999999 Q32.75 -5.47999999999999 32.0625 -5.41749999999999 Q31.375 -5.35499999999999 30.75 -5.97999999999999 Q30.125 -6.60499999999999 30.125 -7.22999999999999 Q30.125 -7.85499999999999 30.75 -8.47999999999999 L57.5 -35.22999999999999 L30.75 -61.97999999999999 Q30.25 -62.47999999999999 30.1875 -63.16749999999999 Q30.125 -63.85499999999999 30.75 -64.47999999999999 Q31.375 -65.10499999999999 32.0 -65.10499999999999 Q32.625 -65.10499999999999 33.25 -64.47999999999999 L60.0 -37.72999999999999 L86.75 -64.47999999999999 Q87.25 -64.97999999999999 87.9375 -65.04249999999999 Q88.625 -65.10499999999999 89.25 -64.47999999999999 Q89.875 -63.85499999999999 89.875 -63.22999999999999 Q89.875 -62.60499999999999 89.25 -61.97999999999999 L62.5 -35.22999999999999 L89.25 -8.47999999999999 Q89.75 -7.97999999999999 89.8125 -7.29249999999999 Q89.875 -6.60499999999999 89.25 -5.97999999999999 Q88.625 -5.35499999999999 88.0 -5.35499999999999 Q87.375 -5.35499999999999 86.75 -5.97999999999999 L60.0 -32.72999999999999 Z"/></g><g id="Bold-S" transform="matrix(1 0 0 1 2294.23 696)"><path d="M47.34 -26.255124999999985  29.883375 -8.798499999999986 Q28.009500000000003 -6.924624999999988 25.44525 -6.9739374999999875 Q22.881 -7.023249999999987 21.007125000000002 -8.897124999999988 Q19.13325 -10.770999999999987 19.13325 -13.384562499999987 Q19.13325 -15.998124999999987 21.007125000000002 -17.87199999999999 L38.365125 -35.22999999999999 L20.9085 -52.68662499999999 Q19.034625000000002 -54.56049999999999 19.0839375 -57.17406249999999 Q19.13325 -59.78762499999999 21.007125000000002 -61.66149999999999 Q22.881 -63.53537499999999 25.4945625 -63.53537499999999 Q28.108125 -63.53537499999999 29.982000000000003 -61.66149999999999 L47.34 -44.20487499999999 L64.796625 -61.66149999999999 Q66.6705 -63.53537499999999 69.2840625 -63.53537499999999 Q71.897625 -63.53537499999999 73.7715 -61.66149999999999 Q75.645375 -59.78762499999999 75.645375 -57.17406249999999 Q75.645375 -54.56049999999999 73.7715 -52.68662499999999 L56.314875 -35.22999999999999 L73.7715 -17.773374999999987 Q75.645375 -15.899499999999989 75.645375 -13.335249999999988 Q75.645375 -10.770999999999987 73.7715 -8.897124999999988 Q71.897625 -7.023249999999987 69.2840625 -7.023249999999987 Q66.6705 -7.023249999999987 64.796625 -8.897124999999988 L47.34 -26.255124999999985 Z"/></g><g id="Semibold-S" transform="matrix(1 0 0 1 1998.1 696)"><path d="M47.34 -27.627195999999984  29.1973395 -9.484535499999986 Q27.623580375 -7.910776374999987 25.44525 -7.960088874999986 Q23.266919625000003 -8.009401374999985 21.6931605 -9.583160499999988 Q20.119401375 -11.15691962499999 20.119401375 -13.384562499999987 Q20.119401375 -15.612205374999988 21.6931605 -17.185964499999987 L39.737196 -35.22999999999999 L21.5945355 -53.372660499999995 Q20.020776375 -54.94641962499999 20.070088875 -57.17406249999999 Q20.119401375 -59.40170537499999 21.6931605 -60.97546449999999 Q23.266919625000003 -62.54922362499998 25.4945625 -62.54922362499998 Q27.722205375 -62.54922362499998 29.2959645 -60.97546449999999 L47.34 -42.83280399999999 L65.48266050000001 -60.97546449999999 Q67.056419625 -62.54922362499998 69.2840625 -62.54922362499998 Q71.511705375 -62.54922362499998 73.0854645 -60.97546449999999 Q74.659223625 -59.40170537499999 74.659223625 -57.17406249999999 Q74.659223625 -54.94641962499999 73.0854645 -53.372660499999995 L54.942804 -35.22999999999999 L73.0854645 -17.087339499999985 Q74.659223625 -15.513580374999986 74.659223625 -13.335249999999988 Q74.659223625 -11.15691962499999 73.0854645 -9.583160499999988 Q71.511705375 -8.009401374999985 69.2840625 -8.009401374999985 Q67.056419625 -8.009401374999985 65.48266050000001 -9.583160499999988 L47.34 -27.627195999999984 Z"/></g><g id="Medium-S" transform="matrix(1 0 0 1 1701.85 696)"><path d="M47.34 -28.656446499999987  28.682714250000004 -9.999160749999987 Q27.334116 -8.650562499999989 25.44525 -8.699874999999988 Q23.556384 -8.749187499999987 22.207785750000003 -10.09778574999999 Q20.8591875 -11.446383999999988 20.8591875 -13.384562499999987 Q20.8591875 -15.322740999999986 22.207785750000003 -16.67133924999999 L40.7664465 -35.22999999999999 L22.10916075 -53.88728574999999 Q20.760562500000002 -55.235883999999984 20.809875 -57.17406249999999 Q20.8591875 -59.112241 22.207785750000003 -60.46083924999999 Q23.556384 -61.80943749999999 25.4945625 -61.80943749999999 Q27.432741 -61.80943749999999 28.781339250000002 -60.46083924999999 L47.34 -41.80355349999999 L65.99728575 -60.46083924999999 Q67.345884 -61.80943749999999 69.2840625 -61.80943749999999 Q71.22224100000001 -61.80943749999999 72.57083925 -60.46083924999999 Q73.9194375 -59.112241 73.9194375 -57.17406249999999 Q73.9194375 -55.235883999999984 72.57083925 -53.88728574999999 L53.913553500000006 -35.22999999999999 L72.57083925 -16.57271424999999 Q73.9194375 -15.224115999999988 73.9194375 -13.335249999999988 Q73.9194375 -11.446383999999988 72.57083925 -10.09778574999999 Q71.22224100000001 -8.749187499999987 69.2840625 -8.749187499999987 Q67.345884 -8.749187499999987 65.99728575 -10.09778574999999 L47.34 -28.656446499999987 Z"/></g><g id="Regular-S" transform="matrix(1 0 0 1 1405.73 696)"><path d="M47.34 -29.41112499999999  28.305375 -10.376499999999986 Q27.121875000000003 -9.192999999999987 25.44525 -9.242312499999986 Q23.768625 -9.291624999999986 22.585125 -10.475124999999988 Q21.401625 -11.658624999999986 21.401625 -13.384562499999987 Q21.401625 -15.110499999999988 22.585125 -16.293999999999986 L41.521125000000005 -35.22999999999999 L22.4865 -54.264624999999995 Q21.303 -55.44812499999999 21.3523125 -57.17406249999999 Q21.401625 -58.89999999999999 22.585125 -60.08349999999999 Q23.768625 -61.266999999999996 25.4945625 -61.266999999999996 Q27.2205 -61.266999999999996 28.404 -60.08349999999999 L47.34 -41.04887499999999 L66.37462500000001 -60.08349999999999 Q67.558125 -61.266999999999996 69.2840625 -61.266999999999996 Q71.01 -61.266999999999996 72.1935 -60.08349999999999 Q73.37700000000001 -58.89999999999999 73.37700000000001 -57.17406249999999 Q73.37700000000001 -55.44812499999999 72.1935 -54.264624999999995 L53.158875 -35.22999999999999 L72.1935 -16.195374999999988 Q73.37700000000001 -15.01187499999999 73.37700000000001 -13.335249999999988 Q73.37700000000001 -11.658624999999986 72.1935 -10.475124999999988 Q71.01 -9.291624999999986 69.2840625 -9.291624999999986 Q67.558125 -9.291624999999986 66.37462500000001 -10.475124999999988 L47.34 -29.41112499999999 Z"/></g><g id="Light-S" transform="matrix(1 0 0 1 1109.75 696)"><path d="M47.34 -30.77678537499999  27.622495500000003 -11.059379499999988 Q26.704592625 -10.141377999999989 25.464186 -10.171754499999988 Q24.223878000000003 -10.202032374999987 23.2680045 -11.158004499999986 Q22.312032375 -12.113877999999989 22.312032375 -13.384562499999987 Q22.312032375 -14.655246999999989 23.2680045 -15.611120499999991 L42.886785375 -35.22999999999999 L23.1693795 -54.947504499999994 Q22.251378000000003 -55.86540737499999 22.2817545 -57.155126499999994 Q22.312032375 -58.44474699999999 23.2680045 -59.40062049999999 Q24.223878000000003 -60.35659262499999 25.4945625 -60.35659262499999 Q26.765247000000002 -60.35659262499999 27.721120500000005 -59.40062049999999 L47.34 -39.68321462499999 L67.05750450000001 -59.40062049999999 Q67.975407375 -60.31862199999999 69.26512650000001 -60.33755799999999 Q70.554747 -60.35659262499999 71.5106205 -59.40062049999999 Q72.466592625 -58.44474699999999 72.466592625 -57.17406249999999 Q72.466592625 -55.90337799999999 71.5106205 -54.947504499999994 L51.793214625000005 -35.22999999999999 L71.5106205 -15.51249549999999 Q72.428622 -14.594592624999986 72.447558 -13.354185999999988 Q72.466592625 -12.113877999999989 71.5106205 -11.158004499999986 Q70.554747 -10.202032374999987 69.2840625 -10.202032374999987 Q68.013378 -10.202032374999987 67.05750450000001 -11.158004499999986 L47.34 -30.77678537499999 Z"/></g><g id="Thin-S" transform="matrix(1 0 0 1 814.015 696)"><path d="M47.34 -32.14224849999999  26.93981325 -11.742061749999987 Q26.287408875 -11.089657374999987 25.483220625 -11.100999249999987 Q24.679032375000002 -11.11234112499999 23.950686750000003 -11.840686749999989 Q23.222341125000003 -12.569032374999988 23.222341125000003 -13.384562499999987 Q23.222341125000003 -14.20009262499999 23.950686750000003 -14.928438249999989 L44.2522485 -35.22999999999999 L23.85206175 -55.63018674999999 Q23.199657375 -56.282591124999996 23.21099925 -57.13609187499999 Q23.222341125000003 -57.989592624999986 23.950686750000003 -58.71793824999999 Q24.679032375000002 -59.44628387499999 25.4945625 -59.44628387499999 Q26.310092625000003 -59.44628387499999 27.038438250000002 -58.71793824999999 L47.34 -38.317751499999986 L67.74018675 -58.71793824999999 Q68.39259112500001 -59.37034262499999 69.246091875 -59.40831324999999 Q70.099592625 -59.44628387499999 70.82793825 -58.71793824999999 Q71.556283875 -57.989592624999986 71.556283875 -57.17406249999999 Q71.556283875 -56.358532374999996 70.82793825 -55.63018674999999 L50.4277515 -35.22999999999999 L70.82793825 -14.829813249999987 Q71.480342625 -14.177408874999987 71.51831325 -13.373220624999988 Q71.556283875 -12.569032374999988 70.82793825 -11.840686749999989 Q70.099592625 -11.11234112499999 69.2840625 -11.11234112499999 Q68.46853237500001 -11.11234112499999 67.74018675 -11.840686749999989 L47.34 -32.14224849999999 Z"/></g><g id="Ultralight-S" transform="matrix(1 0 0 1 517.792 696)"><path d="M47.34 -32.96162499999999  26.530125 -12.15174999999999 Q26.037000000000003 -11.658624999999986 25.4945625 -11.658624999999986 Q24.952125000000002 -11.658624999999986 24.360375 -12.250374999999988 Q23.768625 -12.842124999999989 23.768625 -13.384562499999987 Q23.768625 -13.926999999999989 24.360375 -14.518749999999986 L45.071625000000004 -35.22999999999999 L24.261750000000003 -56.039874999999995 Q23.768625 -56.53299999999999 23.768625 -57.12474999999999 Q23.768625 -57.716499999999996 24.360375 -58.30824999999999 Q24.952125000000002 -58.89999999999999 25.4945625 -58.89999999999999 Q26.037000000000003 -58.89999999999999 26.62875 -58.30824999999999 L47.34 -37.49837499999999 L68.14987500000001 -58.30824999999999 Q68.643 -58.80137499999999 69.23475 -58.85068749999999 Q69.82650000000001 -58.89999999999999 70.41825 -58.30824999999999 Q71.01 -57.716499999999996 71.01 -57.17406249999999 Q71.01 -56.631624999999985 70.41825 -56.039874999999995 L49.608375 -35.22999999999999 L70.41825 -14.420124999999988 Q70.911375 -13.926999999999989 70.9606875 -13.384562499999987 Q71.01 -12.842124999999989 70.41825 -12.250374999999988 Q69.82650000000001 -11.658624999999986 69.2840625 -11.658624999999986 Q68.741625 -11.658624999999986 68.14987500000001 -12.250374999999988 L47.34 -32.96162499999999 Z"/></g></g></svg>