<svg xmlns="http://www.w3.org/2000/svg" version="1.1" width="3300" height="2000"><g id="Notes"><style>
    text {
      font-family: monospace;
      text-anchor: middle;
    }
    text.emphasis {
      font-weight:bold;
    }
    text.lanchor {
      text-anchor: start;
    }
  </style><rect height="2200" id="artboard" fill="white" width="3300" x="0" y="0"/><line id="" style="fill:none;stroke:black;stroke-width:0.5;" x1="263" x2="3036" y1="292" y2="292"/><text class="lanchor emphasis" transform="matrix(1 0 0 1 263 322)">Weight/Scale Variations</text><text transform="matrix(1 0 0 1 559.711 322)">Ultralight</text><text transform="matrix(1 0 0 1 856.422 322)">Thin</text><text transform="matrix(1 0 0 1 1153.13 322)">Light</text><text transform="matrix(1 0 0 1 1449.84 322)">Regular</text><text transform="matrix(1 0 0 1 1746.56 322)">Medium</text><text transform="matrix(1 0 0 1 2043.27 322)">Semibold</text><text transform="matrix(1 0 0 1 2339.98 322)">Bold</text><text transform="matrix(1 0 0 1 2636.69 322)">Heavy</text><text transform="matrix(1 0 0 1 2933.4 322)">Black</text><text id="template-version" style="text-anchor: end;" transform="matrix(1 0 0 1 3036 1933)">Template v.1.0</text><text class="lanchor" transform="matrix(1 0 0 1 263 726)">Small</text><text class="lanchor" transform="matrix(1 0 0 1 263 1156)">Medium</text><text class="lanchor" transform="matrix(1 0 0 1 263 1586)">Large</text></g><g id="Guides"><g id="H-reference" style="fill:#27AAE1;stroke:none;" transform="matrix(1 0 0 1 339 696)"><path d="M 54.9316 0 L 57.666 0 L 30.5664 -70.459 L 28.0762 -70.459 L 0.976562 0 L 3.66211 0 L 12.9395 -24.4629 L 45.7031 -24.4629 Z M 29.1992 -67.0898 L 29.4434 -67.0898 L 44.8242 -26.709 L 13.8184 -26.709 Z"/></g><line id="Baseline-S" style="fill:none;stroke:#27AAE1;opacity:1;stroke-width:0.577;" x1="263" x2="3036" y1="696" y2="696"/><line id="Capline-S" style="fill:none;stroke:#27AAE1;opacity:1;stroke-width:0.577;" x1="263" x2="3036" y1="625.541" y2="625.541"/><g id="H-reference" style="fill:#27AAE1;stroke:none;" transform="matrix(1 0 0 1 339 1126)"><path d="M 54.9316 0 L 57.666 0 L 30.5664 -70.459 L 28.0762 -70.459 L 0.976562 0 L 3.66211 0 L 12.9395 -24.4629 L 45.7031 -24.4629 Z M 29.1992 -67.0898 L 29.4434 -67.0898 L 44.8242 -26.709 L 13.8184 -26.709 Z"/></g><line id="Baseline-M" style="fill:none;stroke:#27AAE1;opacity:1;stroke-width:0.577;" x1="263" x2="3036" y1="1126" y2="1126"/><line id="Capline-M" style="fill:none;stroke:#27AAE1;opacity:1;stroke-width:0.577;" x1="263" x2="3036" y1="1055.54" y2="1055.54"/><g id="H-reference" style="fill:#27AAE1;stroke:none;" transform="matrix(1 0 0 1 339 1556)"><path d="M 54.9316 0 L 57.666 0 L 30.5664 -70.459 L 28.0762 -70.459 L 0.976562 0 L 3.66211 0 L 12.9395 -24.4629 L 45.7031 -24.4629 Z M 29.1992 -67.0898 L 29.4434 -67.0898 L 44.8242 -26.709 L 13.8184 -26.709 Z"/></g><line id="Baseline-L" style="fill:none;stroke:#27AAE1;opacity:1;stroke-width:0.577;" x1="263" x2="3036" y1="1556" y2="1556"/><line id="Capline-L" style="fill:none;stroke:#27AAE1;opacity:1;stroke-width:0.577;" x1="263" x2="3036" y1="1485.54" y2="1485.54"/><rect height="119.336" id="left-margin" style="fill:darkred;stroke:none;opacity:0.4;" width="12.4512" x="1394.06" y="1030.79"/><rect height="119.336" id="right-margin" style="fill:darkgreen;stroke:none;opacity:0.4;" width="12.4512" x="1502.5112" y="1030.79"/><rect x="1406.5112" y="1045" width="96" height="96" fill="none" stroke="blue" stroke-dasharray="5"/><rect x="1394.06" y="1030.79" width="120.9024" height="119.336" fill="none" stroke="blue"/></g><g id="Symbols"><g id="Bold-L" transform="matrix(1 0 0 1 2266 1556)"><path d="M40.79625 26.851250000000014 Q34.4330025 26.851250000000014 29.955251250000003 22.420906250000016 Q25.4775 17.990562500000017 25.4775 11.693750000000016 V-77.47749999999999 H23.70375 Q20.5190625 -77.47749999999999 18.322031250000002 -79.68259374999998 Q16.125 -81.88784874999999 16.125 -85.08446874999998 Q16.125 -88.28125 18.322031250000002 -90.458125 Q20.5190625 -92.63499999999999 23.70375 -92.63499999999999 H53.535000000000004 Q53.535000000000004 -95.85999999999999 55.73203125 -98.11749999999998 Q57.9290625 -100.375 61.11375 -100.375 H93.68625 Q96.85078125 -100.375 99.138435 -98.08718499999998 Q101.42625 -95.79953125 101.42625 -92.63499999999999 H131.09625 Q134.2809375 -92.63499999999999 136.47796875 -90.42990624999999 Q138.675 -88.22465125 138.675 -85.02803125 Q138.675 -81.83124999999998 136.47796875 -79.65437499999999 Q134.2809375 -77.47749999999999 131.09625 -77.47749999999999 H129.3225 V11.693750000000016 Q129.3225 17.990562500000017 124.84474875000001 22.420906250000016 Q120.36715875 26.851250000000014 114.00375 26.851250000000014 H40.79625 Z M40.79625 -77.47749999999999 V11.693750000000016 Q40.79625 11.693750000000016 40.79625 11.693750000000016 Q40.79625 11.693750000000016 40.79625 11.693750000000016 H114.00375 Q114.00375 11.693750000000016 114.00375 11.693750000000016 Q114.00375 11.693750000000016 114.00375 11.693750000000016 V-77.47749999999999 H40.79625 Z M57.0825 -7.011249999999983 Q57.0825 -4.515906249999979 58.91559 -2.6999087499999845 Q60.748841250000005 -0.8837499999999849 63.26934 -0.8837499999999849 Q65.79 -0.8837499999999849 67.644375 -2.6999087499999845 Q69.49875 -4.515906249999979 69.49875 -7.011249999999983 V-58.93374999999999 Q69.49875 -61.42909374999999 67.585035 -63.325716249999985 Q65.67115875 -65.22249999999998 63.15066 -65.22249999999998 Q60.63 -65.22249999999998 58.85625 -63.325716249999985 Q57.0825 -61.42909374999999 57.0825 -58.93374999999999 V-7.011249999999983 Z M85.30125 -7.011249999999983 Q85.30125 -4.515906249999979 87.214965 -2.6999087499999845 Q89.12884125 -0.8837499999999849 91.64934000000001 -0.8837499999999849 Q94.17 -0.8837499999999849 96.024375 -2.6999087499999845 Q97.87875 -4.515906249999979 97.87875 -7.011249999999983 V-58.93374999999999 Q97.87875 -61.42909374999999 96.0130875 -63.325716249999985 Q94.147425 -65.22249999999998 91.5787125 -65.22249999999998 Q89.01 -65.22249999999998 87.155625 -63.325716249999985 Q85.30125 -61.42909374999999 85.30125 -58.93374999999999 V-7.011249999999983 Z"/></g><g id="Semibold-L" transform="matrix(1 0 0 1 1970.27 1556)"><path d="M41.3570775 25.098623750000016 Q36.0777525 25.098623750000016 32.28483 21.332468750000015 Q28.4919075 17.566475000000015 28.4919075 12.324721250000017 V-78.03832749999998 H26.7181575 Q24.024315 -78.03832749999998 22.177680000000002 -79.893025 Q20.33120625 -81.74756124999999 20.33120625 -84.45365874999999 Q20.33120625 -87.159595 22.177680000000002 -88.98591249999998 Q24.024315 -90.81223 26.7181575 -90.81223 H54.65665500000001 Q54.65665500000001 -93.54654624999998 56.50312875 -95.41849749999997 Q58.34976375 -97.29044875 61.04360625 -97.29044875 H93.75639375 Q96.43894875000001 -97.29044875 98.33670000000001 -95.3926975 Q100.23445125 -93.49478499999998 100.23445125 -90.81223 H128.08184250000002 Q130.77568499999998 -90.81223 132.62232 -88.95769375 Q134.46879375 -87.10299624999999 134.46879375 -84.39706 Q134.46879375 -81.69096249999998 132.62232 -79.86464499999998 Q130.77568499999998 -78.03832749999998 128.08184250000002 -78.03832749999998 H126.30809250000001 V12.324721250000017 Q126.30809250000001 17.566475000000015 122.51517 21.332468750000015 Q118.7222475 25.098623750000016 113.44292250000001 25.098623750000016 H41.3570775 Z M41.3570775 -78.03832749999998 V12.324721250000017 Q41.3570775 12.324721250000017 41.3570775 12.324721250000017 Q41.3570775 12.324721250000017 41.3570775 12.324721250000017 H113.44292250000001 Q113.44292250000001 12.324721250000017 113.44292250000001 12.324721250000017 Q113.44292250000001 12.324721250000017 113.44292250000001 12.324721250000017 V-78.03832749999998 H41.3570775 Z M57.993885 -6.380278749999981 Q57.993885 -4.076016249999988 59.63815125 -2.4448112499999795 Q61.282578750000006 -0.8136062499999852 63.60635250000001 -0.8136062499999852 Q65.9302875 -0.8136062499999852 67.57423125 -2.4448112499999795 Q69.21833625000001 -4.076016249999988 69.21833625000001 -6.380278749999981 V-59.49457749999998 Q69.21833625000001 -61.79884 67.52843625 -63.475678749999986 Q65.838375 -65.15235625 63.514601250000005 -65.15235625 Q61.190827500000005 -65.15235625 59.59235625 -63.475678749999986 Q57.993885 -61.79884 57.993885 -59.49457749999998 V-6.380278749999981 Z M85.58166375 -6.380278749999981 Q85.58166375 -4.076016249999988 87.27156375000001 -2.4448112499999795 Q88.96162500000001 -0.8136062499999852 91.28539875 -0.8136062499999852 Q93.60917250000001 -0.8136062499999852 95.2532775 -2.4448112499999795 Q96.89722125 -4.076016249999988 96.89722125 -6.380278749999981 V-59.49457749999998 Q96.89722125 -61.79884 95.2345725 -63.475678749999986 Q93.57176249999999 -65.15235625 91.22073750000001 -65.15235625 Q88.8697125 -65.15235625 87.22576875 -63.475678749999986 Q85.58166375 -61.79884 85.58166375 -59.49457749999998 V-6.380278749999981 Z"/></g><g id="Medium-L" transform="matrix(1 0 0 1 1674.31 1556)"><path d="M41.777778749999996 23.783952500000016 Q37.311476250000005 23.783952500000016 34.03229625 20.516221250000015 Q30.75311625 17.248328750000017 30.75311625 12.797990000000016 V-78.45902874999999 H28.97936625 Q26.653496250000003 -78.45902874999999 25.070021250000003 -80.05072749999998 Q23.486385 -81.64242624999999 23.486385 -83.98038999999999 Q23.486385 -86.31819249999998 25.070021250000003 -87.88167250000001 Q26.653496250000003 -89.44515249999998 28.97936625 -89.44515249999998 H55.498057499999994 Q55.498057499999994 -91.81117375 57.08169375 -93.39400375 Q58.66516875 -94.9766725 60.99103875 -94.9766725 H93.80896125 Q96.12999375 -94.9766725 97.73523750000001 -93.37142874999998 Q99.34048125000001 -91.76618499999998 99.34048125000001 -89.44515249999998 H125.82063375 Q128.14650375 -89.44515249999998 129.72997875000001 -87.85329249999998 Q131.313615 -86.26159375 131.313615 -83.92379124999998 Q131.313615 -81.58582749999998 129.72997875000001 -80.02250874999999 Q128.14650375 -78.45902874999999 125.82063375 -78.45902874999999 H124.04688375 V12.797990000000016 Q124.04688375 17.248328750000017 120.76770375000001 20.516221250000015 Q117.48852375 23.783952500000016 113.02222125 23.783952500000016 H41.777778749999996 Z M41.777778749999996 -78.45902874999999 V12.797990000000016 Q41.777778749999996 12.797990000000016 41.777778749999996 12.797990000000016 Q41.777778749999996 12.797990000000016 41.777778749999996 12.797990000000016 H113.02222125 Q113.02222125 12.797990000000016 113.02222125 12.797990000000016 Q113.02222125 12.797990000000016 113.02222125 12.797990000000016 V-78.45902874999999 H41.777778749999996 Z M58.67742375 -5.907009999999985 Q58.67742375 -3.7460987499999803 60.180273750000005 -2.2535687499999852 Q61.682962499999995 -0.7610387499999831 63.859192500000006 -0.7610387499999831 Q66.0354225 -0.7610387499999831 67.52166375 -2.2535687499999852 Q69.00806625 -3.7460987499999803 69.00806625 -5.907009999999985 V-59.915278749999985 Q69.00806625 -62.07635124999999 67.48602749999999 -63.58806999999999 Q65.96398875 -65.09978874999999 63.78775875000001 -65.09978874999999 Q61.61152875 -65.09978874999999 60.14447625 -63.58806999999999 Q58.67742375 -62.07635124999999 58.67742375 -59.915278749999985 V-5.907009999999985 Z M85.79193375 -5.907009999999985 Q85.79193375 -3.7460987499999803 87.31397249999999 -2.2535687499999852 Q88.83601125000001 -0.7610387499999831 91.01224125 -0.7610387499999831 Q93.18847125 -0.7610387499999831 94.6747125 -2.2535687499999852 Q96.161115 -3.7460987499999803 96.161115 -5.907009999999985 V-59.915278749999985 Q96.161115 -62.07635124999999 94.650525 -63.58806999999999 Q93.14009625000001 -65.09978874999999 90.95225624999999 -65.09978874999999 Q88.7645775 -65.09978874999999 87.27833625 -63.58806999999999 Q85.79193375 -62.07635124999999 85.79193375 -59.915278749999985 V-5.907009999999985 Z"/></g><g id="Regular-L" transform="matrix(1 0 0 1 1378.56 1556)"><path d="M42.08625 22.820000000000014 Q38.21625 22.820000000000014 35.31375 19.917500000000015 Q32.41125 17.015000000000015 32.41125 13.145000000000014 V-78.76749999999998 H30.6375 Q28.5815625 -78.76749999999998 27.19078125 -80.16634374999998 Q25.8 -81.56534874999998 25.8 -83.63321874999998 Q25.8 -85.70124999999999 27.19078125 -87.07187499999998 Q28.5815625 -88.4425 30.6375 -88.4425 H56.115 Q56.115 -90.53875 57.50578125 -91.90937499999998 Q58.8965625 -93.28 60.9525 -93.28 H93.8475 Q95.90343750000001 -93.28 97.29421875 -91.88921875 Q98.685 -90.4984375 98.685 -88.4425 H124.16250000000001 Q126.21843750000001 -88.4425 127.60921875 -87.04365625 Q129.0 -85.64465124999998 129.0 -83.57678125 Q129.0 -81.50874999999999 127.60921875 -80.13812499999999 Q126.21843750000001 -78.76749999999998 124.16250000000001 -78.76749999999998 H122.38875 V13.145000000000014 Q122.38875 17.015000000000015 119.48625 19.917500000000015 Q116.58375000000001 22.820000000000014 112.71375 22.820000000000014 H42.08625 Z M42.08625 -78.76749999999998 V13.145000000000014 Q42.08625 13.145000000000014 42.08625 13.145000000000014 Q42.08625 13.145000000000014 42.08625 13.145000000000014 H112.71375 Q112.71375 13.145000000000014 112.71375 13.145000000000014 Q112.71375 13.145000000000014 112.71375 13.145000000000014 V-78.76749999999998 H42.08625 Z M59.17875 -5.559999999999988 Q59.17875 -3.504062499999982 60.577593750000005 -2.113281249999986 Q61.97659875 -0.7224999999999824 64.04446875000001 -0.7224999999999824 Q66.1125 -0.7224999999999824 67.483125 -2.113281249999986 Q68.85375 -3.504062499999982 68.85375 -5.559999999999988 V-60.22374999999998 Q68.85375 -62.27968749999998 67.45490625 -63.67046874999998 Q66.05590125 -65.06124999999999 63.98803125 -65.06124999999999 Q61.92 -65.06124999999999 60.549375000000005 -63.67046874999998 Q59.17875 -62.27968749999998 59.17875 -60.22374999999998 V-5.559999999999988 Z M85.94625 -5.559999999999988 Q85.94625 -3.504062499999982 87.34509374999999 -2.113281249999986 Q88.74409875 -0.7224999999999824 90.81196874999999 -0.7224999999999824 Q92.88 -0.7224999999999824 94.250625 -2.113281249999986 Q95.62125 -3.504062499999982 95.62125 -5.559999999999988 V-60.22374999999998 Q95.62125 -62.27968749999998 94.22240625 -63.67046874999998 Q92.82340125 -65.06124999999999 90.75553125 -65.06124999999999 Q88.6875 -65.06124999999999 87.316875 -63.67046874999998 Q85.94625 -62.27968749999998 85.94625 -60.22374999999998 V-5.559999999999988 Z"/></g><g id="Light-L" transform="matrix(1 0 0 1 1082.77 1556)"><path d="M44.87732625 19.594838750000015 Q41.083275 19.594838750000015 38.3288025 16.840366250000017 Q35.57449125 14.085893750000018 35.57449125 10.291842500000016 V-77.46492249999999 H32.68424625 Q31.1260875 -77.46492249999999 30.075705 -78.52385124999999 Q29.02516125 -79.58278 29.02516125 -81.15335499999999 Q29.02516125 -82.72409124999999 30.075705 -83.7536725 Q31.1260875 -84.7830925 32.68424625 -84.7830925 H56.611166250000004 Q56.611166250000004 -86.75534124999999 57.971793749999996 -88.032925 Q59.33226 -89.31050875 61.262583750000005 -89.31050875 H93.53741625 Q95.46774 -89.31050875 96.82820625000001 -88.01196249999998 Q98.18883375 -86.71341625 98.18883375 -84.7830925 H122.11575375000001 Q123.67391250000001 -84.7830925 124.72429500000001 -83.72416374999999 Q125.77483875 -82.66539624999999 125.77483875 -81.09465999999999 Q125.77483875 -79.52392375 124.72429500000001 -78.49450374999999 Q123.67391250000001 -77.46492249999999 122.11575375000001 -77.46492249999999 H119.22550875 V10.291842500000016 Q119.22550875 14.085893750000018 116.4711975 16.840366250000017 Q113.71672500000001 19.594838750000015 109.92267375 19.594838750000015 H44.87732625 Z M42.8925 -77.46492249999999 V10.291842500000016 Q42.8925 11.160173750000016 43.4817075 11.718421250000013 Q44.071076250000004 12.276668750000017 44.87732625 12.276668750000017 H109.92267375 Q110.72892375 12.276668750000017 111.3182925 11.718421250000013 Q111.9075 11.160173750000016 111.9075 10.291842500000016 V-77.46492249999999 H42.8925 Z M61.47366000000001 -5.001752499999988 Q61.47366000000001 -3.443593749999984 62.532427500000004 -2.393211249999986 Q63.591356250000004 -1.3426674999999832 65.1620925 -1.3426674999999832 Q66.7326675 -1.3426674999999832 67.76224875 -2.393211249999986 Q68.79166875 -3.443593749999984 68.79166875 -5.001752499999988 V-60.34775124999999 Q68.79166875 -61.84544124999999 67.73290125 -62.92613874999999 Q66.6739725 -64.00683624999999 65.10323625 -64.00683624999999 Q63.53266125 -64.00683624999999 62.50308 -62.92613874999999 Q61.47366000000001 -61.84544124999999 61.47366000000001 -60.34775124999999 V-5.001752499999988 Z M86.00833125 -5.001752499999988 Q86.00833125 -3.443593749999984 87.06709875 -2.393211249999986 Q88.1260275 -1.3426674999999832 89.69676375 -1.3426674999999832 Q91.26733875000001 -1.3426674999999832 92.29692 -2.393211249999986 Q93.32634 -3.443593749999984 93.32634 -5.001752499999988 V-60.34775124999999 Q93.32634 -61.84544124999999 92.2675725 -62.92613874999999 Q91.20864375000001 -64.00683624999999 89.6379075 -64.00683624999999 Q88.0673325 -64.00683624999999 87.03775125 -62.92613874999999 Q86.00833125 -61.84544124999999 86.00833125 -60.34775124999999 V-5.001752499999988 Z M42.8925 -77.46492249999999 V10.291842500000016 Q42.8925 11.160173750000016 43.4817075 11.718421250000013 Q44.071076250000004 12.276668750000017 44.87732625 12.276668750000017 H42.8925 Q42.8925 12.276668750000017 42.8925 11.718421250000013 Q42.8925 11.160173750000016 42.8925 10.291842500000016 V-77.46492249999999 Z"/></g><g id="Thin-L" transform="matrix(1 0 0 1 787.282 1556)"><path d="M47.667918750000005 16.370000000000015 Q43.949816250000005 16.370000000000015 41.3435325 13.763716250000012 Q38.73724875 11.157271250000015 38.73724875 7.4393300000000195 V-76.16266749999998 H34.730669999999996 Q33.670128749999996 -76.16266749999998 32.960145 -76.88151999999998 Q32.25 -77.60053375 32.25 -78.67397499999998 Q32.25 -79.74741624999999 32.960145 -80.43579249999999 Q33.670128749999996 -81.12432999999999 34.730669999999996 -81.12432999999999 H57.1073325 Q57.1073325 -82.97241624999998 58.437645 -84.15695874999999 Q59.7679575 -85.34166249999998 61.5726675 -85.34166249999998 H93.2273325 Q95.0320425 -85.34166249999998 96.36235500000001 -84.13535124999999 Q97.6926675 -82.92903999999999 97.6926675 -81.12432999999999 H120.06933000000001 Q121.12987125 -81.12432999999999 121.839855 -80.40531625 Q122.55 -79.68646374999999 122.55 -78.61302249999999 Q122.55 -77.53958124999998 121.839855 -76.85104374999999 Q121.12987125 -76.16266749999998 120.06933000000001 -76.16266749999998 H116.06275125 V7.4393300000000195 Q116.06275125 11.157271250000015 113.4564675 13.763716250000012 Q110.85018375 16.370000000000015 107.13208125 16.370000000000015 H47.667918750000005 Z M43.698750000000004 -76.16266749999998 V7.4393300000000195 Q43.698750000000004 9.175831250000016 44.877165 10.292165000000015 Q46.05541875 11.408498750000014 47.667918750000005 11.408498750000014 H107.13208125 Q108.74458125 11.408498750000014 109.922835 10.292165000000015 Q111.10125000000001 9.175831250000016 111.10125000000001 7.4393300000000195 V-76.16266749999998 H43.698750000000004 Z M63.76808625 -4.4436662499999855 Q63.76808625 -3.3831249999999855 64.4871 -2.6729799999999884 Q65.2059525 -1.9628349999999841 66.27939375000001 -1.9628349999999841 Q67.352835 -1.9628349999999841 68.0413725 -2.6729799999999884 Q68.72974875 -3.3831249999999855 68.72974875 -4.4436662499999855 V-60.471752499999994 Q68.72974875 -61.41135624999998 68.01089625 -62.18196999999999 Q67.2918825 -62.95258374999999 66.21844125 -62.95258374999999 Q65.145 -62.95258374999999 64.45662375 -62.18196999999999 Q63.76808625 -61.41135624999998 63.76808625 -60.471752499999994 V-4.4436662499999855 Z M86.07025125 -4.4436662499999855 Q86.07025125 -3.3831249999999855 86.78910375 -2.6729799999999884 Q87.50811750000001 -1.9628349999999841 88.58155875 -1.9628349999999841 Q89.655 -1.9628349999999841 90.34337625 -2.6729799999999884 Q91.03191375 -3.3831249999999855 91.03191375 -4.4436662499999855 V-60.471752499999994 Q91.03191375 -61.41135624999998 90.31290000000001 -62.18196999999999 Q89.5940475 -62.95258374999999 88.52060625000001 -62.95258374999999 Q87.447165 -62.95258374999999 86.7586275 -62.18196999999999 Q86.07025125 -61.41135624999998 86.07025125 -60.471752499999994 V-4.4436662499999855 Z M43.698750000000004 -76.16266749999998 V7.4393300000000195 Q43.698750000000004 9.175831250000016 44.877165 10.292165000000015 Q46.05541875 11.408498750000014 47.667918750000005 11.408498750000014 H43.698750000000004 Q43.698750000000004 11.408498750000014 43.698750000000004 10.292165000000015 Q43.698750000000004 9.175831250000016 43.698750000000004 7.4393300000000195 V-76.16266749999998 Z"/></g><g id="Ultralight-L" transform="matrix(1 0 0 1 491.205 1556)"><path d="M49.3425 14.435000000000016 Q45.67003125000001 14.435000000000016 43.152435000000004 11.917403750000016 Q40.635 9.399968750000014 40.635 5.727500000000013 V-75.38125 H35.95875 Q35.19684375 -75.38125 34.69084125 -75.89612124999998 Q34.185 -76.41099249999998 34.185 -77.18612124999999 Q34.185 -77.96124999999999 34.69084125 -78.445 Q35.19684375 -78.92875 35.95875 -78.92875 H57.405 Q57.405 -80.70249999999999 58.7172525 -81.83124999999998 Q60.029343749999995 -82.96 61.75875 -82.96 H93.04125 Q94.77065625 -82.96 96.0827475 -81.80899749999998 Q97.395 -80.65815624999999 97.395 -78.92875 H118.84125 Q119.60315625000001 -78.92875 120.1089975 -78.41387875 Q120.61500000000001 -77.8990075 120.61500000000001 -77.12387874999999 Q120.61500000000001 -76.34874999999998 120.1089975 -75.86499999999998 Q119.60315625000001 -75.38125 118.84125 -75.38125 H114.165 V5.727500000000013 Q114.165 9.399968750000014 111.64756500000001 11.917403750000016 Q109.12996875 14.435000000000016 105.4575 14.435000000000016 H49.3425 Z M44.182500000000005 -75.38125 V5.727500000000013 Q44.182500000000005 7.985000000000014 45.714375000000004 9.436250000000015 Q47.24625 10.887500000000014 49.3425 10.887500000000014 H105.4575 Q107.55375000000001 10.887500000000014 109.08562500000001 9.436250000000015 Q110.6175 7.985000000000014 110.6175 5.727500000000013 V-75.38125 H44.182500000000005 Z M65.145 -4.108749999999986 Q65.145 -3.3468437499999837 65.65987125 -2.8410024999999806 Q66.17474250000001 -2.3349999999999866 66.94987125 -2.3349999999999866 Q67.72500000000001 -2.3349999999999866 68.20875 -2.8410024999999806 Q68.6925 -3.3468437499999837 68.6925 -4.108749999999986 V-60.546249999999986 Q68.6925 -61.15093749999998 68.17762875000001 -61.73546874999998 Q67.6627575 -62.31999999999999 66.88762875 -62.31999999999999 Q66.1125 -62.31999999999999 65.62875 -61.73546874999998 Q65.145 -61.15093749999998 65.145 -60.546249999999986 V-4.108749999999986 Z M86.1075 -4.108749999999986 Q86.1075 -3.3468437499999837 86.62237125 -2.8410024999999806 Q87.1372425 -2.3349999999999866 87.91237125 -2.3349999999999866 Q88.6875 -2.3349999999999866 89.17125 -2.8410024999999806 Q89.655 -3.3468437499999837 89.655 -4.108749999999986 V-60.546249999999986 Q89.655 -61.15093749999998 89.14012875 -61.73546874999998 Q88.6252575 -62.31999999999999 87.85012875000001 -62.31999999999999 Q87.075 -62.31999999999999 86.59125 -61.73546874999998 Q86.1075 -61.15093749999998 86.1075 -60.546249999999986 V-4.108749999999986 Z M44.182500000000005 -75.38125 V5.727500000000013 Q44.182500000000005 7.985000000000014 45.714375000000004 9.436250000000015 Q47.24625 10.887500000000014 49.3425 10.887500000000014 H44.182500000000005 Q44.182500000000005 10.887500000000014 44.182500000000005 9.436250000000015 Q44.182500000000005 7.985000000000014 44.182500000000005 5.727500000000013 V-75.38125 Z"/></g><g id="Bold-M" transform="matrix(1 0 0 1 2281.8 1126)"><path d="M33.625 14.02000000000001 Q27.0 14.02000000000001 22.4375 9.45750000000001 Q17.875 4.89500000000001 17.875 -1.7299999999999898 V-63.85499999999999 Q14.625 -63.85499999999999 12.3125 -66.16749999999999 Q10.0 -68.47999999999999 10.0 -71.72999999999999 Q10.0 -74.97999999999999 12.3125 -77.29249999999999 Q14.625 -79.60499999999999 17.875 -79.60499999999999 H42.25 Q42.25 -82.85499999999999 44.5625 -85.16749999999999 Q46.875 -87.47999999999999 50.125 -87.47999999999999 H69.875 Q73.125 -87.47999999999999 75.4375 -85.16749999999999 Q77.75 -82.85499999999999 77.75 -79.60499999999999 H102.125 Q105.375 -79.60499999999999 107.6875 -77.29249999999999 Q110.0 -74.97999999999999 110.0 -71.72999999999999 Q110.0 -68.47999999999999 107.6875 -66.16749999999999 Q105.375 -63.85499999999999 102.125 -63.85499999999999 V-1.7299999999999898 Q102.125 4.89500000000001 97.5625 9.45750000000001 Q93.0 14.02000000000001 86.375 14.02000000000001 H33.625 Z M33.625 -63.85499999999999 V-1.7299999999999898 Q33.625 -1.7299999999999898 33.625 -1.7299999999999898 Q33.625 -1.7299999999999898 33.625 -1.7299999999999898 H86.375 Q86.375 -1.7299999999999898 86.375 -1.7299999999999898 Q86.375 -1.7299999999999898 86.375 -1.7299999999999898 V-63.85499999999999 H33.625 Z M42.75 -16.72999999999999 Q42.75 -14.10499999999999 44.625 -12.22999999999999 Q46.5 -10.35499999999999 49.125 -10.35499999999999 Q51.75 -10.35499999999999 53.6875 -12.22999999999999 Q55.625 -14.10499999999999 55.625 -16.72999999999999 V-48.85499999999999 Q55.625 -51.47999999999999 53.6875 -53.41749999999999 Q51.75 -55.35499999999999 49.125 -55.35499999999999 Q46.5 -55.35499999999999 44.625 -53.41749999999999 Q42.75 -51.47999999999999 42.75 -48.85499999999999 V-16.72999999999999 Z M64.375 -16.72999999999999 Q64.375 -14.10499999999999 66.3125 -12.22999999999999 Q68.25 -10.35499999999999 70.875 -10.35499999999999 Q73.5 -10.35499999999999 75.375 -12.22999999999999 Q77.25 -14.10499999999999 77.25 -16.72999999999999 V-48.85499999999999 Q77.25 -51.47999999999999 75.375 -53.41749999999999 Q73.5 -55.35499999999999 70.875 -55.35499999999999 Q68.25 -55.35499999999999 66.3125 -53.41749999999999 Q64.375 -51.47999999999999 64.375 -48.85499999999999 V-16.72999999999999 Z"/></g><g id="Semibold-M" transform="matrix(1 0 0 1 1985.97 1126)"><path d="M34.22275 12.17225000000001 Q28.684625 12.17225000000001 24.828625 8.31625000000001 Q20.972625 4.460250000000009 20.972625 -1.0778749999999881 V-64.45275 Q18.21175 -64.45275 16.279625 -66.384875 Q14.3475 -68.317 14.3475 -71.07787499999999 Q14.3475 -73.83874999999999 16.279625 -75.77087499999999 Q18.21175 -77.70299999999999 20.972625 -77.70299999999999 H43.445625 Q43.445625 -80.46387499999999 45.377625 -82.39599999999999 Q47.30975 -84.32799999999999 50.070625 -84.32799999999999 H69.929375 Q72.69025 -84.32799999999999 74.622375 -82.39599999999999 Q76.554375 -80.46387499999999 76.554375 -77.70299999999999 H99.027375 Q101.78825 -77.70299999999999 103.720375 -75.77087499999999 Q105.6525 -73.83874999999999 105.6525 -71.07787499999999 Q105.6525 -68.317 103.720375 -66.384875 Q101.78825 -64.45275 99.027375 -64.45275 V-1.0778749999999881 Q99.027375 4.460250000000009 95.171375 8.31625000000001 Q91.315375 12.17225000000001 85.77725 12.17225000000001 H34.22275 Z M34.22275 -64.45275 V-1.0778749999999881 Q34.22275 -1.0778749999999881 34.22275 -1.0778749999999881 Q34.22275 -1.0778749999999881 34.22275 -1.0778749999999881 H85.77725 Q85.77725 -1.0778749999999881 85.77725 -1.0778749999999881 Q85.77725 -1.0778749999999881 85.77725 -1.0778749999999881 V-64.45275 H34.22275 Z M43.72825 -16.07787499999999 Q43.72825 -13.670249999999989 45.413 -11.985499999999988 Q47.09775 -10.30062499999999 49.505375 -10.30062499999999 Q51.913 -10.30062499999999 53.633125 -11.985499999999988 Q55.35325 -13.670249999999989 55.35325 -16.07787499999999 V-49.452749999999995 Q55.35325 -51.86037499999999 53.633125 -53.58049999999999 Q51.913 -55.300625 49.505375 -55.300625 Q47.09775 -55.300625 45.413 -53.58049999999999 Q43.72825 -51.86037499999999 43.72825 -49.452749999999995 V-16.07787499999999 Z M64.64675 -16.07787499999999 Q64.64675 -13.670249999999989 66.366875 -11.985499999999988 Q68.087 -10.30062499999999 70.494625 -10.30062499999999 Q72.90225 -10.30062499999999 74.587 -11.985499999999988 Q76.27175 -13.670249999999989 76.27175 -16.07787499999999 V-49.452749999999995 Q76.27175 -51.86037499999999 74.587 -53.58049999999999 Q72.90225 -55.300625 70.494625 -55.300625 Q68.087 -55.300625 66.366875 -53.58049999999999 Q64.64675 -51.86037499999999 64.64675 -49.452749999999995 V-16.07787499999999 Z"/></g><g id="Medium-M" transform="matrix(1 0 0 1 1689.91 1126)"><path d="M34.67125 10.78637500000001 Q29.948375 10.78637500000001 26.62225 7.460250000000009 Q23.296125 4.134125000000012 23.296125 -0.5887499999999903 V-64.90124999999999 Q20.902125 -64.90124999999999 19.255375 -66.54787499999999 Q17.608625 -68.19462499999999 17.608625 -70.58874999999999 Q17.608625 -72.98275 19.255375 -74.6295 Q20.902125 -76.27624999999999 23.296125 -76.27624999999999 H44.342375 Q44.342375 -78.67025 45.989125 -80.317 Q47.635875 -81.96374999999999 50.029875 -81.96374999999999 H69.970125 Q72.364125 -81.96374999999999 74.010875 -80.317 Q75.657625 -78.67025 75.657625 -76.27624999999999 H96.703875 Q99.097875 -76.27624999999999 100.744625 -74.6295 Q102.391375 -72.98275 102.391375 -70.58874999999999 Q102.391375 -68.19462499999999 100.744625 -66.54787499999999 Q99.097875 -64.90124999999999 96.703875 -64.90124999999999 V-0.5887499999999903 Q96.703875 4.134125000000012 93.37775 7.460250000000009 Q90.051625 10.78637500000001 85.32875 10.78637500000001 H34.67125 Z M34.67125 -64.90124999999999 V-0.5887499999999903 Q34.67125 -0.5887499999999903 34.67125 -0.5887499999999903 Q34.67125 -0.5887499999999903 34.67125 -0.5887499999999903 H85.32875 Q85.32875 -0.5887499999999903 85.32875 -0.5887499999999903 Q85.32875 -0.5887499999999903 85.32875 -0.5887499999999903 V-64.90124999999999 H34.67125 Z M44.462 -15.58874999999999 Q44.462 -13.344124999999991 46.004125 -11.801999999999992 Q47.54625 -10.259874999999987 49.79075 -10.259874999999987 Q52.035375 -10.259874999999987 53.592375 -11.801999999999992 Q55.1495 -13.344124999999991 55.1495 -15.58874999999999 V-49.90124999999999 Q55.1495 -52.14574999999999 53.592375 -53.70287499999999 Q52.035375 -55.259874999999994 49.79075 -55.259874999999994 Q47.54625 -55.259874999999994 46.004125 -53.70287499999999 Q44.462 -52.14574999999999 44.462 -49.90124999999999 V-15.58874999999999 Z M64.8505 -15.58874999999999 Q64.8505 -13.344124999999991 66.407625 -11.801999999999992 Q67.964625 -10.259874999999987 70.20925 -10.259874999999987 Q72.45375 -10.259874999999987 73.995875 -11.801999999999992 Q75.538 -13.344124999999991 75.538 -15.58874999999999 V-49.90124999999999 Q75.538 -52.14574999999999 73.995875 -53.70287499999999 Q72.45375 -55.259874999999994 70.20925 -55.259874999999994 Q67.964625 -55.259874999999994 66.407625 -53.70287499999999 Q64.8505 -52.14574999999999 64.8505 -49.90124999999999 V-15.58874999999999 Z"/></g><g id="Regular-M" transform="matrix(1 0 0 1 1394.06 1126)"><path d="M35.0 9.77000000000001 Q30.875 9.77000000000001 27.9375 6.83250000000001 Q25.0 3.8950000000000102 25.0 -0.22999999999998977 V-65.22999999999999 Q22.875 -65.22999999999999 21.4375 -66.66749999999999 Q20.0 -68.10499999999999 20.0 -70.22999999999999 Q20.0 -72.35499999999999 21.4375 -73.79249999999999 Q22.875 -75.22999999999999 25.0 -75.22999999999999 H45.0 Q45.0 -77.35499999999999 46.4375 -78.79249999999999 Q47.875 -80.22999999999999 50.0 -80.22999999999999 H70.0 Q72.125 -80.22999999999999 73.5625 -78.79249999999999 Q75.0 -77.35499999999999 75.0 -75.22999999999999 H95.0 Q97.125 -75.22999999999999 98.5625 -73.79249999999999 Q100.0 -72.35499999999999 100.0 -70.22999999999999 Q100.0 -68.10499999999999 98.5625 -66.66749999999999 Q97.125 -65.22999999999999 95.0 -65.22999999999999 V-0.22999999999998977 Q95.0 3.8950000000000102 92.0625 6.83250000000001 Q89.125 9.77000000000001 85.0 9.77000000000001 H35.0 Z M35.0 -65.22999999999999 V-0.22999999999998977 Q35.0 -0.22999999999998977 35.0 -0.22999999999998977 Q35.0 -0.22999999999998977 35.0 -0.22999999999998977 H85.0 Q85.0 -0.22999999999998977 85.0 -0.22999999999998977 Q85.0 -0.22999999999998977 85.0 -0.22999999999998977 V-65.22999999999999 H35.0 Z M45.0 -15.22999999999999 Q45.0 -13.10499999999999 46.4375 -11.66749999999999 Q47.875 -10.22999999999999 50.0 -10.22999999999999 Q52.125 -10.22999999999999 53.5625 -11.66749999999999 Q55.0 -13.10499999999999 55.0 -15.22999999999999 V-50.22999999999999 Q55.0 -52.35499999999999 53.5625 -53.79249999999999 Q52.125 -55.22999999999999 50.0 -55.22999999999999 Q47.875 -55.22999999999999 46.4375 -53.79249999999999 Q45.0 -52.35499999999999 45.0 -50.22999999999999 V-15.22999999999999 Z M65.0 -15.22999999999999 Q65.0 -13.10499999999999 66.4375 -11.66749999999999 Q67.875 -10.22999999999999 70.0 -10.22999999999999 Q72.125 -10.22999999999999 73.5625 -11.66749999999999 Q75.0 -13.10499999999999 75.0 -15.22999999999999 V-50.22999999999999 Q75.0 -52.35499999999999 73.5625 -53.79249999999999 Q72.125 -55.22999999999999 70.0 -55.22999999999999 Q67.875 -55.22999999999999 66.4375 -53.79249999999999 Q65.0 -52.35499999999999 65.0 -50.22999999999999 V-15.22999999999999 Z"/></g><g id="Light-M" transform="matrix(1 0 0 1 1098.18 1126)"><path d="M36.538625 7.26987500000001 Q32.750125 7.26987500000001 30.125125 4.64487500000001 Q27.500125 2.0198750000000096 27.500125 -1.7686249999999895 V-65.22999999999999 H26.250125 Q24.654 -65.22999999999999 23.577125 -66.30687499999999 Q22.500125 -67.38374999999999 22.500125 -68.97987499999999 Q22.500125 -70.576 23.577125 -71.652875 Q24.654 -72.72987499999999 26.250125 -72.72987499999999 H45.0 Q45.0 -74.614375 46.31725 -75.883625 Q47.634625 -77.152875 49.51925 -77.152875 H70.48075 Q72.365375 -77.152875 73.68275 -75.883625 Q75.0 -74.614375 75.0 -72.72987499999999 H93.749875 Q95.346 -72.72987499999999 96.422875 -71.652875 Q97.499875 -70.576 97.499875 -68.97987499999999 Q97.499875 -67.38374999999999 96.422875 -66.30687499999999 Q95.346 -65.22999999999999 93.749875 -65.22999999999999 H92.499875 V-1.7686249999999895 Q92.499875 2.0198750000000096 89.874875 4.64487500000001 Q87.249875 7.26987500000001 83.461375 7.26987500000001 H36.538625 Z M35.0 -65.22999999999999 V-1.7686249999999895 Q35.0 -1.0954999999999906 35.43275 -0.6627499999999884 Q35.8655 -0.22999999999998977 36.538625 -0.22999999999998977 H83.461375 Q84.1345 -0.22999999999998977 84.56725 -0.6627499999999884 Q85.0 -1.0954999999999906 85.0 -1.7686249999999895 V-65.22999999999999 H35.0 Z M47.019375 -13.979874999999993 Q47.019375 -12.383749999999992 48.09625 -11.306874999999991 Q49.173125 -10.22999999999999 50.76925 -10.22999999999999 Q52.365375 -10.22999999999999 53.44225 -11.306874999999991 Q54.51925 -12.383749999999992 54.51925 -13.979874999999993 V-51.48012499999999 Q54.51925 -53.07624999999999 53.44225 -54.15312499999999 Q52.365375 -55.22999999999999 50.76925 -55.22999999999999 Q49.173125 -55.22999999999999 48.09625 -54.15312499999999 Q47.019375 -53.07624999999999 47.019375 -51.48012499999999 V-13.979874999999993 Z M65.48075 -13.979874999999993 Q65.48075 -12.383749999999992 66.55775 -11.306874999999991 Q67.634625 -10.22999999999999 69.23075 -10.22999999999999 Q70.826875 -10.22999999999999 71.90375 -11.306874999999991 Q72.980625 -12.383749999999992 72.980625 -13.979874999999993 V-51.48012499999999 Q72.980625 -53.07624999999999 71.90375 -54.15312499999999 Q70.826875 -55.22999999999999 69.23075 -55.22999999999999 Q67.634625 -55.22999999999999 66.55775 -54.15312499999999 Q65.48075 -53.07624999999999 65.48075 -51.48012499999999 V-13.979874999999993 Z M35.0 -65.22999999999999 V-1.7686249999999895 Q35.0 -1.0954999999999906 35.43275 -0.6627499999999884 Q35.8655 -0.22999999999998977 36.538625 -0.22999999999998977 H35.0 Q35.0 -0.22999999999998977 35.0 -0.6627499999999884 Q35.0 -1.0954999999999906 35.0 -1.7686249999999895 V-65.22999999999999 Z"/></g><g id="Thin-M" transform="matrix(1 0 0 1 802.565 1126)"><path d="M38.076875 4.77000000000001 Q34.625 4.77000000000001 32.3125 2.4575000000000102 Q30.0 0.14500000000001023 30.0 -3.306874999999991 V-65.22999999999999 H27.5 Q26.432625 -65.22999999999999 25.716375 -65.94637499999999 Q25.0 -66.66274999999999 25.0 -67.72999999999999 Q25.0 -68.79737499999999 25.716375 -69.51362499999999 Q26.432625 -70.22999999999999 27.5 -70.22999999999999 H45.0 Q45.0 -71.87424999999999 46.197125 -72.97524999999999 Q47.39425 -74.07624999999999 49.0385 -74.07624999999999 H70.9615 Q72.60575 -74.07624999999999 73.802875 -72.97524999999999 Q75.0 -71.87424999999999 75.0 -70.22999999999999 H92.5 Q93.567375 -70.22999999999999 94.283625 -69.51362499999999 Q95.0 -68.79737499999999 95.0 -67.72999999999999 Q95.0 -66.66274999999999 94.283625 -65.94637499999999 Q93.567375 -65.22999999999999 92.5 -65.22999999999999 H90.0 V-3.306874999999991 Q90.0 0.14500000000001023 87.6875 2.4575000000000102 Q85.375 4.77000000000001 81.923125 4.77000000000001 H38.076875 Z M35.0 -65.22999999999999 V-3.306874999999991 Q35.0 -1.9607499999999902 35.865375 -1.09537499999999 Q36.73075 -0.22999999999998977 38.076875 -0.22999999999998977 H81.923125 Q83.26925 -0.22999999999998977 84.134625 -1.09537499999999 Q85.0 -1.9607499999999902 85.0 -3.306874999999991 V-65.22999999999999 H35.0 Z M49.038375 -12.72999999999999 Q49.038375 -11.662749999999988 49.75475 -10.946374999999989 Q50.471125 -10.22999999999999 51.5385 -10.22999999999999 Q52.60575 -10.22999999999999 53.322125 -10.946374999999989 Q54.0385 -11.662749999999988 54.0385 -12.72999999999999 V-52.72999999999999 Q54.0385 -53.79724999999999 53.322125 -54.51362499999999 Q52.60575 -55.22999999999999 51.5385 -55.22999999999999 Q50.471125 -55.22999999999999 49.75475 -54.51362499999999 Q49.038375 -53.79724999999999 49.038375 -52.72999999999999 V-12.72999999999999 Z M65.9615 -12.72999999999999 Q65.9615 -11.662749999999988 66.677875 -10.946374999999989 Q67.39425 -10.22999999999999 68.4615 -10.22999999999999 Q69.528875 -10.22999999999999 70.24525 -10.946374999999989 Q70.961625 -11.662749999999988 70.961625 -12.72999999999999 V-52.72999999999999 Q70.961625 -53.79724999999999 70.24525 -54.51362499999999 Q69.528875 -55.22999999999999 68.4615 -55.22999999999999 Q67.39425 -55.22999999999999 66.677875 -54.51362499999999 Q65.9615 -53.79724999999999 65.9615 -52.72999999999999 V-12.72999999999999 Z M35.0 -65.22999999999999 V-3.306874999999991 Q35.0 -1.9607499999999902 35.865375 -1.09537499999999 Q36.73075 -0.22999999999998977 38.076875 -0.22999999999998977 H35.0 Q35.0 -0.22999999999998977 35.0 -1.09537499999999 Q35.0 -1.9607499999999902 35.0 -3.306874999999991 V-65.22999999999999 Z"/></g><g id="Ultralight-M" transform="matrix(1 0 0 1 506.415 1126)"><path d="M39.0 3.2700000000000102 Q35.75 3.2700000000000102 33.625 1.1450000000000102 Q31.5 -0.9799999999999898 31.5 -4.22999999999999 V-65.22999999999999 H28.25 Q27.5 -65.22999999999999 27.0 -65.72999999999999 Q26.5 -66.22999999999999 26.5 -66.97999999999999 Q26.5 -67.72999999999999 27.0 -68.22999999999999 Q27.5 -68.72999999999999 28.25 -68.72999999999999 H45.0 Q45.0 -70.22999999999999 46.125 -71.22999999999999 Q47.25 -72.22999999999999 48.75 -72.22999999999999 H71.25 Q72.75 -72.22999999999999 73.875 -71.22999999999999 Q75.0 -70.22999999999999 75.0 -68.72999999999999 H91.75 Q92.5 -68.72999999999999 93.0 -68.22999999999999 Q93.5 -67.72999999999999 93.5 -66.97999999999999 Q93.5 -66.22999999999999 93.0 -65.72999999999999 Q92.5 -65.22999999999999 91.75 -65.22999999999999 H88.5 V-4.22999999999999 Q88.5 -0.9799999999999898 86.375 1.1450000000000102 Q84.25 3.2700000000000102 81.0 3.2700000000000102 H39.0 Z M35.0 -65.22999999999999 V-4.22999999999999 Q35.0 -2.4799999999999898 36.125 -1.3549999999999898 Q37.25 -0.22999999999998977 39.0 -0.22999999999998977 H81.0 Q82.75 -0.22999999999998977 83.875 -1.3549999999999898 Q85.0 -2.4799999999999898 85.0 -4.22999999999999 V-65.22999999999999 H35.0 Z M50.25 -11.97999999999999 Q50.25 -11.22999999999999 50.75 -10.72999999999999 Q51.25 -10.22999999999999 52.0 -10.22999999999999 Q52.75 -10.22999999999999 53.25 -10.72999999999999 Q53.75 -11.22999999999999 53.75 -11.97999999999999 V-53.47999999999999 Q53.75 -54.22999999999999 53.25 -54.72999999999999 Q52.75 -55.22999999999999 52.0 -55.22999999999999 Q51.25 -55.22999999999999 50.75 -54.72999999999999 Q50.25 -54.22999999999999 50.25 -53.47999999999999 V-11.97999999999999 Z M66.25 -11.97999999999999 Q66.25 -11.22999999999999 66.75 -10.72999999999999 Q67.25 -10.22999999999999 68.0 -10.22999999999999 Q68.75 -10.22999999999999 69.25 -10.72999999999999 Q69.75 -11.22999999999999 69.75 -11.97999999999999 V-53.47999999999999 Q69.75 -54.22999999999999 69.25 -54.72999999999999 Q68.75 -55.22999999999999 68.0 -55.22999999999999 Q67.25 -55.22999999999999 66.75 -54.72999999999999 Q66.25 -54.22999999999999 66.25 -53.47999999999999 V-11.97999999999999 Z M35.0 -65.22999999999999 V-4.22999999999999 Q35.0 -2.4799999999999898 36.125 -1.3549999999999898 Q37.25 -0.22999999999998977 39.0 -0.22999999999998977 H35.0 Q35.0 -0.22999999999998977 35.0 -1.3549999999999898 Q35.0 -2.4799999999999898 35.0 -4.22999999999999 V-65.22999999999999 Z"/></g><g id="Bold-S" transform="matrix(1 0 0 1 2294.23 696)"><path d="M26.826 3.6282500000000137 Q21.43614375 3.6282500000000137 17.720446875 -0.08744687499998705 Q14.004750000000001 -3.803143749999986 14.004750000000001 -9.192999999999987 V-57.22337499999999 Q11.4405 -57.22337499999999 9.517312500000001 -59.14656249999999 Q7.594125 -61.069749999999985 7.594125 -63.633999999999986 Q7.594125 -66.19824999999999 9.517312500000001 -68.12143749999998 Q11.4405 -70.044625 14.023686000000001 -70.044625 H33.433875 Q33.433875 -72.60887499999998 35.357062500000005 -74.5320625 Q37.28025 -76.45524999999999 39.844500000000004 -76.45524999999999 H54.736875000000005 Q57.301125 -76.45524999999999 59.2243125 -74.5320625 Q61.1475 -72.60887499999998 61.1475 -70.044625 H80.557689 Q83.14087500000001 -70.044625 85.0640625 -68.12143749999998 Q86.98725 -66.19824999999999 86.98725 -63.633999999999986 Q86.98725 -61.069749999999985 85.0640625 -59.14656249999999 Q83.14087500000001 -57.22337499999999 80.576625 -57.22337499999999 V-9.192999999999987 Q80.576625 -3.803143749999986 76.860928125 -0.08744687499998705 Q73.14523125 3.6282500000000137 67.755375 3.6282500000000137 H26.826 Z M26.826 -57.22337499999999 V-9.192999999999987 Q26.826 -9.192999999999987 26.826 -9.192999999999987 Q26.826 -9.192999999999987 26.826 -9.192999999999987 H67.755375 Q67.755375 -9.192999999999987 67.755375 -9.192999999999987 Q67.755375 -9.192999999999987 67.755375 -9.192999999999987 V-57.22337499999999 H26.826 Z M33.5325 -21.61974999999999 Q33.5325 -19.548624999999987 35.1105 -17.970624999999988 Q36.688500000000005 -16.39262499999999 38.759625 -16.39262499999999 Q40.83075 -16.39262499999999 42.458062500000004 -17.970624999999988 Q44.085375 -19.548624999999987 44.085375 -21.61974999999999 V-44.79662499999999 Q44.085375 -46.86774999999999 42.458062500000004 -48.49506249999999 Q40.83075 -50.12237499999999 38.759625 -50.12237499999999 Q36.688500000000005 -50.12237499999999 35.1105 -48.49506249999999 Q33.5325 -46.86774999999999 33.5325 -44.79662499999999 V-21.61974999999999 Z M50.496 -21.61974999999999 Q50.496 -19.548624999999987 52.123312500000004 -17.970624999999988 Q53.750625 -16.39262499999999 55.82175 -16.39262499999999 Q57.892875000000004 -16.39262499999999 59.470875 -17.970624999999988 Q61.048875 -19.548624999999987 61.048875 -21.61974999999999 V-44.79662499999999 Q61.048875 -46.86774999999999 59.470875 -48.49506249999999 Q57.892875000000004 -50.12237499999999 55.82175 -50.12237499999999 Q53.750625 -50.12237499999999 52.123312500000004 -48.49506249999999 Q50.496 -46.86774999999999 50.496 -44.79662499999999 V-21.61974999999999 Z"/></g><g id="Semibold-S" transform="matrix(1 0 0 1 1998.1 696)"><path d="M27.29762475 2.1703752500000135 Q22.765312875 2.1703752500000135 19.6070445 -0.9878931249999869 Q16.448776125000002 -4.146161499999987 16.448776125000002 -8.678473374999985 V-57.694999749999994 Q14.270445749999999 -57.694999749999994 12.647374125 -59.31807137499999 Q11.024302500000001 -60.941143 11.024302500000001 -63.119473374999984 Q11.024302500000001 -65.29780374999999 12.647374125 -66.920875375 Q14.270445749999999 -68.54394699999999 16.467712125000002 -68.54394699999999 H34.377223125 Q34.377223125 -70.72227737499999 36.000196125 -72.34534899999998 Q37.623267750000004 -73.96832199999999 39.801598125 -73.96832199999999 H54.779776874999996 Q56.958107250000005 -73.96832199999999 58.581178875000006 -72.34534899999998 Q60.204151874999994 -70.72227737499999 60.204151874999994 -68.54394699999999 H78.113662875 Q80.31092925 -68.54394699999999 81.93400087500001 -66.920875375 Q83.5570725 -65.29780374999999 83.5570725 -63.119473374999984 Q83.5570725 -60.941143 81.93400087500001 -59.31807137499999 Q80.31092925 -57.694999749999994 78.13259887500001 -57.694999749999994 V-8.678473374999985 Q78.13259887500001 -4.146161499999987 74.97433050000001 -0.9878931249999869 Q71.816062125 2.1703752500000135 67.28375025 2.1703752500000135 H27.29762475 Z M27.29762475 -57.694999749999994 V-8.678473374999985 Q27.29762475 -8.678473374999985 27.29762475 -8.678473374999985 Q27.29762475 -8.678473374999985 27.29762475 -8.678473374999985 H67.28375025 Q67.28375025 -8.678473374999985 67.28375025 -8.678473374999985 Q67.28375025 -8.678473374999985 67.28375025 -8.678473374999985 V-57.694999749999994 H27.29762475 Z M34.304339250000005 -21.105223374999987 Q34.304339250000005 -19.205607249999986 35.732231999999996 -17.777714499999988 Q37.16012475 -16.349723124999986 39.059740875 -16.349723124999986 Q40.959357 -16.349723124999986 42.415160625 -17.777714499999988 Q43.87096425000001 -19.205607249999986 43.87096425000001 -21.105223374999987 V-45.268249749999995 Q43.87096425000001 -47.16786587499999 42.415160625 -48.623669499999984 Q40.959357 -50.07947312499999 39.059740875 -50.07947312499999 Q37.16012475 -50.07947312499999 35.732231999999996 -48.623669499999984 Q34.304339250000005 -47.16786587499999 34.304339250000005 -45.268249749999995 V-21.105223374999987 Z M50.71041075 -21.105223374999987 Q50.71041075 -19.205607249999986 52.166214374999996 -17.777714499999988 Q53.622018000000004 -16.349723124999986 55.521634125 -16.349723124999986 Q57.42125025 -16.349723124999986 58.849143000000005 -17.777714499999988 Q60.27703575 -19.205607249999986 60.27703575 -21.105223374999987 V-45.268249749999995 Q60.27703575 -47.16786587499999 58.849143000000005 -48.623669499999984 Q57.42125025 -50.07947312499999 55.521634125 -50.07947312499999 Q53.622018000000004 -50.07947312499999 52.166214374999996 -48.623669499999984 Q50.71041075 -47.16786587499999 50.71041075 -45.268249749999995 V-21.105223374999987 Z"/></g><g id="Medium-S" transform="matrix(1 0 0 1 1701.85 696)"><path d="M27.651491250000003 1.076919875000014 Q23.762411625000002 1.076919875000014 21.022214625 -1.6632771249999863 Q18.282017625 -4.403474124999988 18.282017625 -8.292553749999989 V-58.04886624999999 Q16.393151625 -58.04886624999999 14.995240875000002 -59.44667837499999 Q13.597330125000001 -60.844589124999985 13.597330125000001 -62.733553749999984 Q13.597330125000001 -64.62241974999999 14.995240875000002 -66.02033049999999 Q16.393151625 -67.41824125 18.300953625000002 -67.41824125 H35.084758875 Q35.084758875 -69.30710725 36.482669625 -70.705018 Q37.880580375 -72.10292874999999 39.769446375 -72.10292874999999 H54.811928625 Q56.700794625 -72.10292874999999 58.098705375 -70.705018 Q59.496616125 -69.30710725 59.496616125 -67.41824125 H76.280421375 Q78.188223375 -67.41824125 79.586134125 -66.02033049999999 Q80.984044875 -64.62241974999999 80.984044875 -62.733553749999984 Q80.984044875 -60.844589124999985 79.586134125 -59.44667837499999 Q78.188223375 -58.04886624999999 76.299357375 -58.04886624999999 V-8.292553749999989 Q76.299357375 -4.403474124999988 73.559160375 -1.6632771249999863 Q70.818963375 1.076919875000014 66.92988375 1.076919875000014 H27.651491250000003 Z M27.651491250000003 -58.04886624999999 V-8.292553749999989 Q27.651491250000003 -8.292553749999989 27.651491250000003 -8.292553749999989 Q27.651491250000003 -8.292553749999989 27.651491250000003 -8.292553749999989 H66.92988375 Q66.92988375 -8.292553749999989 66.92988375 -8.292553749999989 Q66.92988375 -8.292553749999989 66.92988375 -8.292553749999989 V-58.04886624999999 H27.651491250000003 Z M34.883268 -20.719303749999987 Q34.883268 -18.94829462499999 36.198629625 -17.63293299999999 Q37.513991250000004 -16.317571374999986 39.28490175 -16.317571374999986 Q41.055910875 -16.317571374999986 42.383008875 -17.63293299999999 Q43.71020550000001 -18.94829462499999 43.71020550000001 -20.719303749999987 V-45.62211624999999 Q43.71020550000001 -47.39302674999999 42.383008875 -48.72022337499999 Q41.055910875 -50.047321374999996 39.28490175 -50.047321374999996 Q37.513991250000004 -50.047321374999996 36.198629625 -48.72022337499999 Q34.883268 -47.39302674999999 34.883268 -45.62211624999999 V-20.719303749999987 Z M50.8711695 -20.719303749999987 Q50.8711695 -18.94829462499999 52.198366125 -17.63293299999999 Q53.525464125 -16.317571374999986 55.29647325 -16.317571374999986 Q57.067383750000005 -16.317571374999986 58.382745375 -17.63293299999999 Q59.698107 -18.94829462499999 59.698107 -20.719303749999987 V-45.62211624999999 Q59.698107 -47.39302674999999 58.382745375 -48.72022337499999 Q57.067383750000005 -50.047321374999996 55.29647325 -50.047321374999996 Q53.525464125 -50.047321374999996 52.198366125 -48.72022337499999 Q50.8711695 -47.39302674999999 50.8711695 -45.62211624999999 V-20.719303749999987 Z"/></g><g id="Regular-S" transform="matrix(1 0 0 1 1405.73 696)"><path d="M27.910875 0.2750000000000128 Q24.49351875 0.2750000000000128 22.059946875 -2.1585718749999874 Q19.626375 -4.5921437499999875 19.626375 -8.009499999999989 V-58.30824999999999 Q17.94975 -58.30824999999999 16.7169375 -59.541062499999995 Q15.484125 -60.77387499999999 15.484125 -62.45049999999999 Q15.484125 -64.12712499999999 16.7169375 -65.35993749999999 Q17.94975 -66.59275 19.645311000000003 -66.59275 H35.603625 Q35.603625 -68.269375 36.8364375 -69.50218749999999 Q38.069250000000004 -70.73499999999999 39.745875000000005 -70.73499999999999 H54.8355 Q56.512125000000005 -70.73499999999999 57.744937500000006 -69.50218749999999 Q58.97775 -68.269375 58.97775 -66.59275 H74.936064 Q76.631625 -66.59275 77.86443750000001 -65.35993749999999 Q79.09725 -64.12712499999999 79.09725 -62.45049999999999 Q79.09725 -60.77387499999999 77.86443750000001 -59.541062499999995 Q76.631625 -58.30824999999999 74.955 -58.30824999999999 V-8.009499999999989 Q74.955 -4.5921437499999875 72.52142812500001 -2.1585718749999874 Q70.08785625 0.2750000000000128 66.6705 0.2750000000000128 H27.910875 Z M27.910875 -58.30824999999999 V-8.009499999999989 Q27.910875 -8.009499999999989 27.910875 -8.009499999999989 Q27.910875 -8.009499999999989 27.910875 -8.009499999999989 H66.6705 Q66.6705 -8.009499999999989 66.6705 -8.009499999999989 Q66.6705 -8.009499999999989 66.6705 -8.009499999999989 V-58.30824999999999 H27.910875 Z M35.30775 -20.436249999999987 Q35.30775 -18.75962499999999 36.5405625 -17.526812499999988 Q37.773375 -16.293999999999986 39.45 -16.293999999999986 Q41.126625000000004 -16.293999999999986 42.3594375 -17.526812499999988 Q43.59225 -18.75962499999999 43.59225 -20.436249999999987 V-45.88149999999999 Q43.59225 -47.55812499999999 42.3594375 -48.79093749999999 Q41.126625000000004 -50.02374999999999 39.45 -50.02374999999999 Q37.773375 -50.02374999999999 36.5405625 -48.79093749999999 Q35.30775 -47.55812499999999 35.30775 -45.88149999999999 V-20.436249999999987 Z M50.989125 -20.436249999999987 Q50.989125 -18.75962499999999 52.2219375 -17.526812499999988 Q53.454750000000004 -16.293999999999986 55.131375000000006 -16.293999999999986 Q56.808 -16.293999999999986 58.0408125 -17.526812499999988 Q59.273625 -18.75962499999999 59.273625 -20.436249999999987 V-45.88149999999999 Q59.273625 -47.55812499999999 58.0408125 -48.79093749999999 Q56.808 -50.02374999999999 55.131375000000006 -50.02374999999999 Q53.454750000000004 -50.02374999999999 52.2219375 -48.79093749999999 Q50.989125 -47.55812499999999 50.989125 -45.88149999999999 V-20.436249999999987 Z"/></g><g id="Light-S" transform="matrix(1 0 0 1 1109.75 696)"><path d="M29.124850125000005 -1.697598624999987 Q25.972992375 -1.697598624999987 23.785982999999998 -3.884607999999986 Q21.598973625000003 -6.071617374999988 21.598973625000003 -9.223475124999986 V-58.30824999999999 H20.612723625 Q19.353381000000002 -58.30824999999999 18.405101625 -59.256529374999985 Q17.456723625000002 -60.20480875 17.456723625000002 -61.464151374999986 Q17.456723625000002 -62.72349399999999 18.405101625 -63.67177337499999 Q19.353381000000002 -64.62015137499999 20.631659625 -64.62015137499999 H35.603625 Q35.603625 -66.107021875 36.74156025 -67.20708512499999 Q37.879594125000004 -68.307148375 39.36656325 -68.307148375 H55.21481175 Q56.701780875000004 -68.307148375 57.83981475 -67.20708512499999 Q58.97775 -66.107021875 58.97775 -64.62015137499999 H73.94971537500001 Q75.22799400000001 -64.62015137499999 76.17627337500001 -63.67177337499999 Q77.124651375 -62.72349399999999 77.124651375 -61.464151374999986 Q77.124651375 -60.20480875 76.17627337500001 -59.256529374999985 Q75.22799400000001 -58.30824999999999 73.96865137500001 -58.30824999999999 H72.98240137500001 V-9.223475124999986 Q72.98240137500001 -6.071617374999988 70.79539199999999 -3.884607999999986 Q68.608382625 -1.697598624999987 65.456524875 -1.697598624999987 H29.124850125000005 Z M27.910875 -58.30824999999999 V-9.223475124999986 Q27.910875 -8.692379499999987 28.25231475 -8.350939749999988 Q28.5937545 -8.009499999999989 29.124850125000005 -8.009499999999989 H65.456524875 Q65.9876205 -8.009499999999989 66.32906025 -8.350939749999988 Q66.6705 -8.692379499999987 66.6705 -9.223475124999986 V-58.30824999999999 H27.910875 Z M36.901036874999996 -19.44990137499999 Q36.901036874999996 -18.19055874999999 37.84931625 -17.24227937499999 Q38.797595625 -16.293999999999986 40.05693825 -16.293999999999986 Q41.316280875000004 -16.293999999999986 42.26456025 -17.24227937499999 Q43.21293825 -18.19055874999999 43.21293825 -19.44990137499999 V-46.867848624999986 Q43.21293825 -48.12719124999999 42.26456025 -49.07547062499999 Q41.316280875000004 -50.02374999999999 40.05693825 -50.02374999999999 Q38.797595625 -50.02374999999999 37.84931625 -49.07547062499999 Q36.901036874999996 -48.12719124999999 36.901036874999996 -46.867848624999986 V-19.44990137499999 Z M51.36843675 -19.44990137499999 Q51.36843675 -18.19055874999999 52.31681475 -17.24227937499999 Q53.265094125000005 -16.293999999999986 54.52443675 -16.293999999999986 Q55.783779375 -16.293999999999986 56.73205875000001 -17.24227937499999 Q57.680338125000006 -18.19055874999999 57.680338125000006 -19.44990137499999 V-46.867848624999986 Q57.680338125000006 -48.12719124999999 56.73205875000001 -49.07547062499999 Q55.783779375 -50.02374999999999 54.52443675 -50.02374999999999 Q53.265094125000005 -50.02374999999999 52.31681475 -49.07547062499999 Q51.36843675 -48.12719124999999 51.36843675 -46.867848624999986 V-19.44990137499999 Z M27.910875 -58.30824999999999 V-9.223475124999986 Q27.910875 -8.692379499999987 28.25231475 -8.350939749999988 Q28.5937545 -8.009499999999989 29.124850125000005 -8.009499999999989 H27.910875 Q27.910875 -8.009499999999989 27.910875 -8.350939749999988 Q27.910875 -8.692379499999987 27.910875 -9.223475124999986 V-58.30824999999999 Z"/></g><g id="Thin-S" transform="matrix(1 0 0 1 814.015 696)"><path d="M30.338529375000004 -3.6699999999999875 Q27.45226875 -3.6699999999999875 25.511821875000003 -5.610446874999987 Q23.571375 -7.550893749999986 23.571375 -10.437154374999988 V-58.30824999999999 H21.598875 Q20.756716125 -58.30824999999999 20.092969875 -58.97209487499998 Q19.429125 -59.63593974999999 19.429125 -60.477999999999994 Q19.429125 -61.32015887499999 20.092969875 -61.98390512499999 Q20.756716125 -62.64774999999999 21.617811000000003 -62.64774999999999 H35.603625 Q35.603625 -63.94506324999999 36.646781625 -64.91237724999999 Q37.689938250000004 -65.87969125 38.9872515 -65.87969125 H55.5941235 Q56.891436750000004 -65.87969125 57.934593375000006 -64.91237724999999 Q58.97775 -63.94506324999999 58.97775 -62.64774999999999 H72.963564 Q73.824658875 -62.64774999999999 74.488405125 -61.98390512499999 Q75.15225000000001 -61.32015887499999 75.15225000000001 -60.477999999999994 Q75.15225000000001 -59.63593974999999 74.488405125 -58.97209487499998 Q73.824658875 -58.30824999999999 72.9825 -58.30824999999999 H71.01 V-10.437154374999988 Q71.01 -7.550893749999986 69.06955312500001 -5.610446874999987 Q67.12910625 -3.6699999999999875 64.242845625 -3.6699999999999875 H30.338529375000004 Z M27.910875 -58.30824999999999 V-10.437154374999988 Q27.910875 -9.375061749999986 28.593655875000003 -8.692280874999987 Q29.276436750000002 -8.009499999999989 30.338529375000004 -8.009499999999989 H64.242845625 Q65.30493825 -8.009499999999989 65.987719125 -8.692280874999987 Q66.6705 -9.375061749999986 66.6705 -10.437154374999988 V-58.30824999999999 H27.910875 Z M38.494027875 -18.463749999999987 Q38.494027875 -17.621689749999987 39.15787275 -16.95784487499999 Q39.821717625000005 -16.293999999999986 40.6638765 -16.293999999999986 Q41.505936750000004 -16.293999999999986 42.169781625 -16.95784487499999 Q42.8336265 -17.621689749999987 42.8336265 -18.463749999999987 V-47.85399999999999 Q42.8336265 -48.69606024999999 42.169781625 -49.35990512499999 Q41.505936750000004 -50.02374999999999 40.6638765 -50.02374999999999 Q39.821717625000005 -50.02374999999999 39.15787275 -49.35990512499999 Q38.494027875 -48.69606024999999 38.494027875 -47.85399999999999 V-18.463749999999987 Z M51.7477485 -18.463749999999987 Q51.7477485 -17.621689749999987 52.411593375 -16.95784487499999 Q53.075438250000005 -16.293999999999986 53.9174985 -16.293999999999986 Q54.759657375 -16.293999999999986 55.42350225 -16.95784487499999 Q56.087347125 -17.621689749999987 56.087347125 -18.463749999999987 V-47.85399999999999 Q56.087347125 -48.69606024999999 55.42350225 -49.35990512499999 Q54.759657375 -50.02374999999999 53.9174985 -50.02374999999999 Q53.075438250000005 -50.02374999999999 52.411593375 -49.35990512499999 Q51.7477485 -48.69606024999999 51.7477485 -47.85399999999999 V-18.463749999999987 Z M27.910875 -58.30824999999999 V-10.437154374999988 Q27.910875 -9.375061749999986 28.593655875000003 -8.692280874999987 Q29.276436750000002 -8.009499999999989 30.338529375000004 -8.009499999999989 H27.910875 Q27.910875 -8.009499999999989 27.910875 -8.692280874999987 Q27.910875 -9.375061749999986 27.910875 -10.437154374999988 V-58.30824999999999 Z"/></g><g id="Ultralight-S" transform="matrix(1 0 0 1 517.792 696)"><path d="M31.066875000000003 -4.853499999999986 Q28.339893750000005 -4.853499999999986 26.547384375000004 -6.646009374999988 Q24.754875000000002 -8.438518749999986 24.754875000000002 -11.165499999999987 V-58.30824999999999 H22.190625 Q21.598875 -58.30824999999999 21.10575 -58.80137499999999 Q20.612625 -59.294499999999985 20.612625 -59.88624999999999 Q20.612625 -60.477999999999994 21.10575 -60.97112499999999 Q21.598875 -61.46424999999999 22.209561 -61.46424999999999 H35.603625 Q35.603625 -62.64774999999999 36.589875 -63.53537499999999 Q37.576125000000005 -64.42299999999999 38.759625 -64.42299999999999 H55.82175 Q57.005250000000004 -64.42299999999999 57.9915 -63.53537499999999 Q58.97775 -62.64774999999999 58.97775 -61.46424999999999 H72.371814 Q72.9825 -61.46424999999999 73.47562500000001 -60.97112499999999 Q73.96875 -60.477999999999994 73.96875 -59.88624999999999 Q73.96875 -59.294499999999985 73.47562500000001 -58.80137499999999 Q72.9825 -58.30824999999999 72.39075 -58.30824999999999 H69.82650000000001 V-11.165499999999987 Q69.82650000000001 -8.438518749999986 68.033990625 -6.646009374999988 Q66.24148125 -4.853499999999986 63.514500000000005 -4.853499999999986 H31.066875000000003 Z M27.910875 -58.30824999999999 V-11.165499999999987 Q27.910875 -9.784749999999988 28.7985 -8.897124999999988 Q29.686125 -8.009499999999989 31.066875000000003 -8.009499999999989 H63.514500000000005 Q64.89525 -8.009499999999989 65.782875 -8.897124999999988 Q66.6705 -9.784749999999988 66.6705 -11.165499999999987 V-58.30824999999999 H27.910875 Z M39.45 -17.87199999999999 Q39.45 -17.280249999999988 39.943125 -16.78712499999999 Q40.43625 -16.293999999999986 41.028 -16.293999999999986 Q41.61975 -16.293999999999986 42.112875 -16.78712499999999 Q42.606 -17.280249999999988 42.606 -17.87199999999999 V-48.44574999999999 Q42.606 -49.03749999999999 42.112875 -49.530624999999986 Q41.61975 -50.02374999999999 41.028 -50.02374999999999 Q40.43625 -50.02374999999999 39.943125 -49.530624999999986 Q39.45 -49.03749999999999 39.45 -48.44574999999999 V-17.87199999999999 Z M51.975375 -17.87199999999999 Q51.975375 -17.280249999999988 52.4685 -16.78712499999999 Q52.961625000000005 -16.293999999999986 53.553375 -16.293999999999986 Q54.145125 -16.293999999999986 54.63825 -16.78712499999999 Q55.131375000000006 -17.280249999999988 55.131375000000006 -17.87199999999999 V-48.44574999999999 Q55.131375000000006 -49.03749999999999 54.63825 -49.530624999999986 Q54.145125 -50.02374999999999 53.553375 -50.02374999999999 Q52.961625000000005 -50.02374999999999 52.4685 -49.530624999999986 Q51.975375 -49.03749999999999 51.975375 -48.44574999999999 V-17.87199999999999 Z M27.910875 -58.30824999999999 V-11.165499999999987 Q27.910875 -9.784749999999988 28.7985 -8.897124999999988 Q29.686125 -8.009499999999989 31.066875000000003 -8.009499999999989 H27.910875 Q27.910875 -8.009499999999989 27.910875 -8.897124999999988 Q27.910875 -9.784749999999988 27.910875 -11.165499999999987 V-58.30824999999999 Z"/></g></g></svg>