<svg xmlns="http://www.w3.org/2000/svg" version="1.1" width="3300" height="2000"><g id="Notes"><style>
    text {
      font-family: monospace;
      text-anchor: middle;
    }
    text.emphasis {
      font-weight:bold;
    }
    text.lanchor {
      text-anchor: start;
    }
  </style><rect height="2200" id="artboard" fill="white" width="3300" x="0" y="0"/><line id="" style="fill:none;stroke:black;stroke-width:0.5;" x1="263" x2="3036" y1="292" y2="292"/><text class="lanchor emphasis" transform="matrix(1 0 0 1 263 322)">Weight/Scale Variations</text><text transform="matrix(1 0 0 1 559.711 322)">Ultralight</text><text transform="matrix(1 0 0 1 856.422 322)">Thin</text><text transform="matrix(1 0 0 1 1153.13 322)">Light</text><text transform="matrix(1 0 0 1 1449.84 322)">Regular</text><text transform="matrix(1 0 0 1 1746.56 322)">Medium</text><text transform="matrix(1 0 0 1 2043.27 322)">Semibold</text><text transform="matrix(1 0 0 1 2339.98 322)">Bold</text><text transform="matrix(1 0 0 1 2636.69 322)">Heavy</text><text transform="matrix(1 0 0 1 2933.4 322)">Black</text><text id="template-version" style="text-anchor: end;" transform="matrix(1 0 0 1 3036 1933)">Template v.1.0</text><text class="lanchor" transform="matrix(1 0 0 1 263 726)">Small</text><text class="lanchor" transform="matrix(1 0 0 1 263 1156)">Medium</text><text class="lanchor" transform="matrix(1 0 0 1 263 1586)">Large</text></g><g id="Guides"><g id="H-reference" style="fill:#27AAE1;stroke:none;" transform="matrix(1 0 0 1 339 696)"><path d="M 54.9316 0 L 57.666 0 L 30.5664 -70.459 L 28.0762 -70.459 L 0.976562 0 L 3.66211 0 L 12.9395 -24.4629 L 45.7031 -24.4629 Z M 29.1992 -67.0898 L 29.4434 -67.0898 L 44.8242 -26.709 L 13.8184 -26.709 Z"/></g><line id="Baseline-S" style="fill:none;stroke:#27AAE1;opacity:1;stroke-width:0.577;" x1="263" x2="3036" y1="696" y2="696"/><line id="Capline-S" style="fill:none;stroke:#27AAE1;opacity:1;stroke-width:0.577;" x1="263" x2="3036" y1="625.541" y2="625.541"/><g id="H-reference" style="fill:#27AAE1;stroke:none;" transform="matrix(1 0 0 1 339 1126)"><path d="M 54.9316 0 L 57.666 0 L 30.5664 -70.459 L 28.0762 -70.459 L 0.976562 0 L 3.66211 0 L 12.9395 -24.4629 L 45.7031 -24.4629 Z M 29.1992 -67.0898 L 29.4434 -67.0898 L 44.8242 -26.709 L 13.8184 -26.709 Z"/></g><line id="Baseline-M" style="fill:none;stroke:#27AAE1;opacity:1;stroke-width:0.577;" x1="263" x2="3036" y1="1126" y2="1126"/><line id="Capline-M" style="fill:none;stroke:#27AAE1;opacity:1;stroke-width:0.577;" x1="263" x2="3036" y1="1055.54" y2="1055.54"/><g id="H-reference" style="fill:#27AAE1;stroke:none;" transform="matrix(1 0 0 1 339 1556)"><path d="M 54.9316 0 L 57.666 0 L 30.5664 -70.459 L 28.0762 -70.459 L 0.976562 0 L 3.66211 0 L 12.9395 -24.4629 L 45.7031 -24.4629 Z M 29.1992 -67.0898 L 29.4434 -67.0898 L 44.8242 -26.709 L 13.8184 -26.709 Z"/></g><line id="Baseline-L" style="fill:none;stroke:#27AAE1;opacity:1;stroke-width:0.577;" x1="263" x2="3036" y1="1556" y2="1556"/><line id="Capline-L" style="fill:none;stroke:#27AAE1;opacity:1;stroke-width:0.577;" x1="263" x2="3036" y1="1485.54" y2="1485.54"/><rect height="119.336" id="left-margin" style="fill:darkred;stroke:none;opacity:0.4;" width="12.4512" x="1394.06" y="1030.79"/><rect height="119.336" id="right-margin" style="fill:darkgreen;stroke:none;opacity:0.4;" width="12.4512" x="1502.5112" y="1030.79"/><rect x="1406.5112" y="1045" width="96" height="96" fill="none" stroke="blue" stroke-dasharray="5"/><rect x="1394.06" y="1030.79" width="120.9024" height="119.336" fill="none" stroke="blue"/></g><g id="Symbols"><g id="Bold-L" transform="matrix(1 0 0 1 2266 1556)"><path d="M60.9525 3.3087500000000176 Q59.50125 3.3087500000000176 58.130625 2.744375000000012 Q56.760000000000005 2.180000000000014 55.63125 1.0512500000000173 L26.445 -28.13499999999999 Q24.1875 -30.392499999999984 24.1875 -33.61749999999999 Q24.1875 -36.84249999999999 26.445 -39.09999999999998 Q28.7025 -41.35749999999999 31.846875 -41.35749999999999 Q34.99125 -41.35749999999999 37.410000000000004 -39.09999999999998 L60.9525 -15.557499999999983 L117.39 -71.83374999999998 Q119.64750000000001 -74.09124999999999 122.791875 -74.17187499999999 Q125.93625 -74.25249999999998 128.19375 -71.83374999999998 Q130.45125000000002 -69.57624999999999 130.45125000000002 -66.35125 Q130.45125000000002 -63.126249999999985 128.19375 -60.86874999999999 L66.27375 1.0512500000000173 Q65.145 2.180000000000014 63.774375 2.744375000000012 Q62.40375 3.3087500000000176 60.9525 3.3087500000000176 Z"/></g><g id="Semibold-L" transform="matrix(1 0 0 1 1970.27 1556)"><path d="M60.9525 2.116951250000014 Q59.71152 2.116951250000014 58.58631750000001 1.6577112500000126 Q57.46111500000001 1.1984712500000185 56.47249125 0.2100087500000143 L27.286241250000003 -28.976241249999987 Q25.37929875 -30.883183749999986 25.37929875 -33.61749999999999 Q25.37929875 -36.351816249999985 27.286241250000003 -38.258758749999984 Q29.193183750000003 -40.165701249999984 31.81188375 -40.165701249999984 Q34.4304225 -40.165701249999984 36.42847125 -38.258758749999984 L60.9525 -13.734729999999992 L118.30138500000001 -70.99250874999998 Q120.2083275 -72.89945125 122.86201874999999 -72.94508499999999 Q125.51554875 -72.99055749999998 127.4226525 -70.99250874999998 Q129.329595 -69.08556624999999 129.329595 -66.38624124999998 Q129.329595 -63.68707749999997 127.4226525 -61.78013499999999 L65.43250875000001 0.2100087500000143 Q64.443885 1.1984712500000185 63.3186825 1.6577112500000126 Q62.19348000000001 2.116951250000014 60.9525 2.116951250000014 Z"/></g><g id="Medium-L" transform="matrix(1 0 0 1 1674.31 1556)"><path d="M60.9525 1.222981250000018 Q59.869383750000004 1.222981250000018 58.92816750000001 0.8427537500000142 Q57.98695125 0.4623650000000197 57.1034625 -0.42096249999998747 L27.9172125 -29.60721249999999 Q26.27326875 -31.251317499999985 26.27326875 -33.61749999999999 Q26.27326875 -35.983682499999986 27.9172125 -37.62778749999998 Q29.5613175 -39.27173124999999 31.785600000000002 -39.27173124999999 Q34.009721250000005 -39.27173124999999 35.692365 -37.62778749999998 L60.9525 -12.367652499999991 L118.98492375 -70.36153749999998 Q120.62902875 -72.00548125 122.91458625 -72.02483124999998 Q125.20014375 -72.04401999999999 126.8440875 -70.36153749999998 Q128.4881925 -68.71743249999999 128.4881925 -66.41252499999999 Q128.4881925 -64.10777874999998 126.8440875 -62.463673749999984 L64.80153750000001 -0.42096249999998747 Q63.918048750000004 0.4623650000000197 62.9768325 0.8427537500000142 Q62.03561625 1.222981250000018 60.9525 1.222981250000018 Z"/></g><g id="Regular-L" transform="matrix(1 0 0 1 1378.56 1556)"><path d="M60.9525 0.5675000000000168 Q59.985 0.5675000000000168 59.17875 0.24500000000001165 Q58.3725 -0.07749999999998636 57.566250000000004 -0.8837499999999849 L28.380000000000003 -30.069999999999993 Q26.92875 -31.52124999999998 26.92875 -33.61749999999999 Q26.92875 -35.71374999999999 28.380000000000003 -37.16499999999999 Q29.83125 -38.61624999999998 31.76625 -38.61624999999998 Q33.70125 -38.61624999999998 35.1525 -37.16499999999999 L60.9525 -11.364999999999988 L119.48625 -69.89874999999999 Q120.9375 -71.35 122.953125 -71.35 Q124.96875 -71.35 126.42 -69.89874999999999 Q127.87125 -68.44749999999999 127.87125 -66.43187499999999 Q127.87125 -64.41624999999999 126.42 -62.96499999999999 L64.33875 -0.8837499999999849 Q63.5325 -0.07749999999998636 62.72625 0.24500000000001165 Q61.92 0.5675000000000168 60.9525 0.5675000000000168 Z"/></g><g id="Light-L" transform="matrix(1 0 0 1 1082.77 1556)"><path d="M61.1385825 -1.2931637499999837 Q60.171082500000004 -1.2931637499999837 59.3957925 -1.646784999999987 Q58.62066375 -2.0002449999999783 57.87633375 -2.7444137499999854 L29.86849875 -30.690167499999987 Q28.72749375 -31.831333749999985 28.72749375 -33.40045749999999 Q28.72749375 -34.969419999999985 29.86849875 -36.11058624999998 Q31.009665 -37.18967124999999 32.44849875 -37.18967124999999 Q33.8873325 -37.18967124999999 35.02849875 -36.11058624999998 L61.1385825 -9.93842124999999 L119.6723325 -68.5342525 Q120.81349875000001 -69.61333749999999 122.30183625000001 -69.61333749999999 Q123.790335 -69.61333749999999 124.93150125000001 -68.5342525 Q126.07250625 -67.39308625 126.07250625 -65.90474874999998 Q126.07250625 -64.41624999999999 124.93150125000001 -63.27508374999999 L64.40083125 -2.7444137499999854 Q63.656501250000005 -2.0002449999999783 62.85025125 -1.646784999999987 Q62.04400125 -1.2931637499999837 61.1385825 -1.2931637499999837 Z"/></g><g id="Thin-L" transform="matrix(1 0 0 1 787.282 1556)"><path d="M61.324665 -3.1536662499999863 Q60.357165 -3.1536662499999863 59.612835000000004 -3.538086249999985 Q58.868666250000004 -3.9226674999999886 58.186417500000005 -4.604916249999988 L31.356836250000004 -31.31033499999998 Q30.525915 -32.14141749999999 30.525915 -33.18341499999998 Q30.525915 -34.225251249999985 31.356836250000004 -35.05633374999999 Q32.18791875 -35.76341499999998 33.13058625 -35.76341499999998 Q34.073415 -35.76341499999998 34.9044975 -35.05633374999999 L61.324665 -8.512164999999982 L119.85841500000001 -67.16991624999999 Q120.6894975 -67.87699749999999 121.65070875 -67.87699749999999 Q122.61208125 -67.87699749999999 123.44316375 -67.16991624999999 Q124.274085 -66.33883374999999 124.274085 -65.37762249999999 Q124.274085 -64.41624999999999 123.44316375 -63.58516749999998 L64.46275125 -4.604916249999988 Q63.780502500000004 -3.9226674999999886 62.974252500000006 -3.538086249999985 Q62.1680025 -3.1536662499999863 61.324665 -3.1536662499999863 Z"/></g><g id="Ultralight-L" transform="matrix(1 0 0 1 491.205 1556)"><path d="M61.43625 -4.269999999999982 Q60.46875 -4.269999999999982 59.743125 -4.673124999999985 Q59.0175 -5.0762499999999875 58.3725 -5.7212499999999835 L32.25 -31.68249999999999 Q31.605 -32.327499999999986 31.605 -33.05312499999998 Q31.605 -33.77874999999999 32.25 -34.423749999999984 Q32.895 -34.907499999999985 33.54 -34.907499999999985 Q34.185 -34.907499999999985 34.83 -34.423749999999984 L61.43625 -7.656249999999986 L119.97 -66.35125 Q120.61500000000001 -66.835 121.26 -66.835 Q121.905 -66.835 122.55 -66.35125 Q123.19500000000001 -65.70624999999998 123.19500000000001 -65.06124999999999 Q123.19500000000001 -64.41624999999999 122.55 -63.77124999999998 L64.5 -5.7212499999999835 Q63.855000000000004 -5.0762499999999875 63.04875 -4.673124999999985 Q62.2425 -4.269999999999982 61.43625 -4.269999999999982 Z"/></g><g id="Bold-M" transform="matrix(1 0 0 1 2281.8 1126)"><path d="M47.75 -4.47999999999999 Q46.25 -4.47999999999999 44.8125 -5.04249999999999 Q43.375 -5.60499999999999 42.25 -6.72999999999999 L20.75 -28.22999999999999 Q18.5 -30.47999999999999 18.5625 -33.79249999999999 Q18.625 -37.10499999999999 20.875 -39.35499999999999 Q23.125 -41.60499999999999 26.5 -41.60499999999999 Q29.875 -41.60499999999999 32.125 -39.35499999999999 L47.75 -23.72999999999999 L87.875 -63.85499999999999 Q90.125 -66.10499999999999 93.4375 -66.16749999999999 Q96.75 -66.22999999999999 99.125 -63.85499999999999 Q101.375 -61.60499999999999 101.375 -58.22999999999999 Q101.375 -54.85499999999999 99.125 -52.60499999999999 L53.25 -6.72999999999999 Q52.125 -5.60499999999999 50.6875 -5.04249999999999 Q49.25 -4.47999999999999 47.75 -4.47999999999999 Z"/></g><g id="Semibold-M" transform="matrix(1 0 0 1 1985.97 1126)"><path d="M47.75 -5.729874999999989 Q46.467375 -5.729874999999989 45.274375 -6.183749999999989 Q44.0815 -6.637499999999989 43.1195 -7.599499999999992 L21.6195 -29.099499999999992 Q19.749875 -30.96912499999999 19.812375 -33.79249999999999 Q19.874875 -36.61587499999999 21.7445 -38.48549999999999 Q23.614125 -40.35512499999999 26.445625 -40.35512499999999 Q29.27725 -40.35512499999999 31.14675 -38.48549999999999 L47.75 -21.882249999999992 L88.85325 -62.98549999999999 Q90.72275 -64.85512499999999 93.54625 -64.89037499999999 Q96.369625 -64.92575 98.309875 -62.98549999999999 Q100.179375 -61.11587499999999 100.179375 -58.25712499999999 Q100.179375 -55.398499999999984 98.309875 -53.528874999999985 L52.3805 -7.599499999999992 Q51.4185 -6.637499999999989 50.225625 -6.183749999999989 Q49.032625 -5.729874999999989 47.75 -5.729874999999989 Z"/></g><g id="Medium-M" transform="matrix(1 0 0 1 1689.91 1126)"><path d="M47.75 -6.66749999999999 Q46.630375 -6.66749999999999 45.620875 -7.039749999999991 Q44.611375 -7.411999999999992 43.77175 -8.251749999999987 L22.27175 -29.751749999999987 Q20.6875 -31.33599999999999 20.75 -33.79249999999999 Q20.8125 -36.24899999999999 22.39675 -37.83324999999999 Q23.981 -39.41749999999999 26.404875 -39.41749999999999 Q28.82875 -39.41749999999999 30.413 -37.83324999999999 L47.75 -20.496374999999986 L89.587 -62.33324999999999 Q91.17125 -63.91749999999999 93.62775 -63.93249999999999 Q96.08425 -63.947374999999994 97.698375 -62.33324999999999 Q99.282625 -60.748999999999995 99.282625 -58.27749999999999 Q99.282625 -55.806124999999994 97.698375 -54.22187499999998 L51.72825 -8.251749999999987 Q50.888625 -7.411999999999992 49.879125 -7.039749999999991 Q48.869625 -6.66749999999999 47.75 -6.66749999999999 Z"/></g><g id="Regular-M" transform="matrix(1 0 0 1 1394.06 1126)"><path d="M47.75 -7.35499999999999 Q46.75 -7.35499999999999 45.875 -7.66749999999999 Q45.0 -7.97999999999999 44.25 -8.72999999999999 L22.75 -30.22999999999999 Q21.375 -31.60499999999999 21.4375 -33.79249999999999 Q21.5 -35.97999999999999 22.875 -37.35499999999999 Q24.25 -38.72999999999999 26.375 -38.72999999999999 Q28.5 -38.72999999999999 29.875 -37.35499999999999 L47.75 -19.47999999999999 L90.125 -61.85499999999999 Q91.5 -63.22999999999999 93.6875 -63.22999999999999 Q95.875 -63.22999999999999 97.25 -61.85499999999999 Q98.625 -60.47999999999999 98.625 -58.29249999999999 Q98.625 -56.10499999999999 97.25 -54.72999999999999 L51.25 -8.72999999999999 Q50.5 -7.97999999999999 49.625 -7.66749999999999 Q48.75 -7.35499999999999 47.75 -7.35499999999999 Z"/></g><g id="Light-M" transform="matrix(1 0 0 1 1098.18 1126)"><path d="M47.75 -8.845499999999987 Q46.846125 -8.845499999999987 46.067375 -9.133999999999993 Q45.2885 -9.422374999999988 44.586625 -10.124374999999986 L23.711625 -30.99924999999999 Q22.625125 -32.08574999999999 22.6635 -33.67224999999999 Q22.702 -35.25874999999999 23.7885 -36.34524999999999 Q24.875 -37.43187499999999 26.423125 -37.43187499999999 Q27.971125 -37.43187499999999 29.057625 -36.34524999999999 L47.75 -17.65299999999999 L90.942375 -60.84524999999999 Q92.028875 -61.93187499999999 93.615375 -61.93187499999999 Q95.201875 -61.93187499999999 96.288375 -60.84524999999999 Q97.374875 -59.75874999999999 97.374875 -58.17224999999999 Q97.374875 -56.58574999999999 96.288375 -55.49924999999999 L50.913375 -10.124374999999986 Q50.2115 -9.422374999999988 49.432625 -9.133999999999993 Q48.653875 -8.845499999999987 47.75 -8.845499999999987 Z"/></g><g id="Thin-M" transform="matrix(1 0 0 1 802.565 1126)"><path d="M47.75 -10.33574999999999 Q46.94225 -10.33574999999999 46.259625 -10.600124999999991 Q45.576875 -10.86462499999999 44.923125 -11.518499999999989 L24.673125 -31.76849999999999 Q23.875 -32.56649999999999 23.889375 -33.55212499999999 Q23.903875 -34.53774999999999 24.701875 -35.33574999999999 Q25.5 -36.13387499999999 26.471125 -36.13387499999999 Q27.442375 -36.13387499999999 28.240375 -35.33574999999999 L47.75 -15.82612499999999 L91.759625 -59.83574999999999 Q92.557625 -60.63387499999999 93.54325 -60.63387499999999 Q94.528875 -60.63387499999999 95.326875 -59.83574999999999 Q96.125 -59.03774999999999 96.125 -58.05212499999999 Q96.125 -57.06649999999999 95.326875 -56.26849999999999 L50.576875 -11.518499999999989 Q49.923125 -10.86462499999999 49.240375 -10.600124999999991 Q48.55775 -10.33574999999999 47.75 -10.33574999999999 Z"/></g><g id="Ultralight-M" transform="matrix(1 0 0 1 506.415 1126)"><path d="M47.75 -11.22999999999999 Q47.0 -11.22999999999999 46.375 -11.47999999999999 Q45.75 -11.72999999999999 45.125 -12.35499999999999 L25.25 -32.22999999999999 Q24.625 -32.85499999999999 24.625 -33.47999999999999 Q24.625 -34.10499999999999 25.25 -34.72999999999999 Q25.875 -35.35499999999999 26.5 -35.35499999999999 Q27.125 -35.35499999999999 27.75 -34.72999999999999 L47.75 -14.72999999999999 L92.25 -59.22999999999999 Q92.875 -59.85499999999999 93.5 -59.85499999999999 Q94.125 -59.85499999999999 94.75 -59.22999999999999 Q95.375 -58.60499999999999 95.375 -57.97999999999999 Q95.375 -57.35499999999999 94.75 -56.72999999999999 L50.375 -12.35499999999999 Q49.75 -11.72999999999999 49.125 -11.47999999999999 Q48.5 -11.22999999999999 47.75 -11.22999999999999 Z"/></g><g id="Bold-S" transform="matrix(1 0 0 1 2294.23 696)"><path d="M37.773375 -10.968249999999987 Q36.589875 -10.968249999999987 35.406375000000004 -11.461374999999986 Q34.222875 -11.954499999999989 33.236625000000004 -12.940749999999987 L16.569 -29.608374999999988 Q14.695125 -31.482249999999986 14.7444375 -34.194437499999985 Q14.793750000000001 -36.90662499999999 16.667625 -38.78049999999999 Q18.5415 -40.65437499999999 21.303 -40.65437499999999 Q24.064500000000002 -40.65437499999999 25.938375 -38.78049999999999 L37.970625 -26.748249999999985 L68.84025 -57.617874999999984 Q70.71412500000001 -59.491749999999996 73.3276875 -59.541062499999995 Q75.94125 -59.590374999999995 77.91375000000001 -57.617874999999984 Q79.787625 -55.743999999999986 79.787625 -53.081124999999986 Q79.787625 -50.418249999999986 77.91375000000001 -48.54437499999999 L42.310125 -12.940749999999987 Q41.323875 -11.954499999999989 40.140375 -11.461374999999986 Q38.956875000000004 -10.968249999999987 37.773375 -10.968249999999987 Z"/></g><g id="Semibold-S" transform="matrix(1 0 0 1 1998.1 696)"><path d="M37.773375 -11.954401374999986 Q36.761383875 -11.954401374999986 35.770794375 -12.361821249999988 Q34.7803035 -12.769142499999987 33.922660500000006 -13.62678549999999 L17.255035499999998 -30.29441049999999 Q15.681276375 -31.868169624999986 15.730588875 -34.194437499999985 Q15.779901375 -36.520705374999984 17.3536605 -38.09446449999999 Q18.927419625000002 -39.66822362499999 21.260098125 -39.66822362499999 Q23.59287525 -39.66822362499999 25.16653575 -38.09446449999999 L37.970625 -25.29037524999999 L69.61208925000001 -56.93183949999998 Q71.18574975000001 -58.50559862499999 73.41349125 -58.53341087499999 Q75.64113412500001 -58.56132174999999 77.270616375 -56.93183949999998 Q78.84427687499999 -55.358080374999986 78.84427687499999 -53.10252662499998 Q78.84427687499999 -50.847071499999984 77.270616375 -49.27331237499998 L41.6240895 -13.62678549999999 Q40.7664465 -12.769142499999987 39.775955625 -12.361821249999988 Q38.785366125 -11.954401374999986 37.773375 -11.954401374999986 Z"/></g><g id="Medium-S" transform="matrix(1 0 0 1 1701.85 696)"><path d="M37.773375 -12.694187499999988 Q36.889990875 -12.694187499999988 36.044182875 -13.037205249999989 Q35.198374875000006 -13.38022299999999 34.43728575 -14.141410749999984 L17.76966075 -30.809035749999985 Q16.4210625 -32.15763399999999 16.470375 -34.194437499999985 Q16.5196875 -36.23124099999999 17.868285750000002 -37.57983924999999 Q19.216884000000004 -38.92843749999999 21.227946375000002 -38.92843749999999 Q23.23900875 -38.92843749999999 24.587607000000002 -37.57983924999999 L37.970625 -24.196919874999985 L70.191018 -56.41721424999999 Q71.53961625000001 -57.765812499999996 73.47779475 -57.777647499999986 Q75.41597325000001 -57.789383875 76.788142875 -56.41721424999999 Q78.136741125 -55.06861599999999 78.136741125 -53.118602499999994 Q78.136741125 -51.16868762499999 76.788142875 -49.82008937499998 L41.10946425 -14.141410749999984 Q40.348375125 -13.38022299999999 39.502567125000006 -13.037205249999989 Q38.656759125 -12.694187499999988 37.773375 -12.694187499999988 Z"/></g><g id="Regular-S" transform="matrix(1 0 0 1 1405.73 696)"><path d="M37.773375 -13.236624999999986 Q36.984375 -13.236624999999986 36.244687500000005 -13.532499999999988 Q35.505 -13.828374999999987 34.814625 -14.518749999999986 L18.147000000000002 -31.18637499999999 Q16.9635 -32.369874999999986 17.0128125 -34.194437499999985 Q17.062125 -36.01899999999999 18.245625 -37.202499999999986 Q19.429125 -38.38599999999999 21.204375000000002 -38.38599999999999 Q22.979625000000002 -38.38599999999999 24.163125 -37.202499999999986 L37.970625 -23.39499999999999 L70.6155 -56.039874999999995 Q71.799 -57.22337499999999 73.52493750000001 -57.22337499999999 Q75.25087500000001 -57.22337499999999 76.434375 -56.039874999999995 Q77.617875 -54.856374999999986 77.617875 -53.130437499999985 Q77.617875 -51.40449999999999 76.434375 -50.22099999999999 L40.732125 -14.518749999999986 Q40.04175 -13.828374999999987 39.302062500000005 -13.532499999999988 Q38.562375 -13.236624999999986 37.773375 -13.236624999999986 Z"/></g><g id="Light-S" transform="matrix(1 0 0 1 1109.75 696)"><path d="M37.773375 -14.412629499999987 Q37.060217625 -14.412629499999987 36.396471375 -14.68956849999999 Q35.7326265 -14.966408874999985 35.080222125 -15.618911874999984 L18.905722125 -31.79331324999999 Q17.949848625 -32.749186749999986 17.9801265 -34.09956024999999 Q18.010503000000003 -35.44993374999999 18.9663765 -36.40580724999999 Q19.922250000000002 -37.36177937499999 21.242345625 -37.36177937499999 Q22.562342625000003 -37.36177937499999 23.518216125000002 -36.40580724999999 L37.970625 -21.95349699999999 L71.260408875 -55.24318224999999 Q72.216282375 -56.19915437499999 73.468030875 -56.19915437499999 Q74.719779375 -56.19915437499999 75.67565287500001 -55.24318224999999 Q76.631526375 -54.287308749999994 76.631526375 -53.03556024999999 Q76.631526375 -51.78381174999999 75.67565287500001 -50.82793824999999 L40.466527875000004 -15.618911874999984 Q39.8141235 -14.966408874999985 39.150278625000006 -14.68956849999999 Q38.486532375 -14.412629499999987 37.773375 -14.412629499999987 Z"/></g><g id="Thin-S" transform="matrix(1 0 0 1 814.015 696)"><path d="M37.773375 -15.588436749999989 Q37.13606025 -15.588436749999989 36.548156625000004 -15.846341124999988 Q35.960154375 -16.104344124999987 35.345720625 -16.718876499999986 L19.664345625 -32.40025149999999 Q18.936 -33.12849849999999 18.947341875000003 -34.004781624999985 Q18.958782375000002 -34.881064749999986 19.687029375 -35.60931174999999 Q20.415375 -36.337657374999985 21.280217625000002 -36.337657374999985 Q22.145158875 -36.337657374999985 22.873405875 -35.60931174999999 L37.970625 -20.512092624999987 L71.905219125 -54.446686749999984 Q72.633466125 -55.17503237499999 73.41112425 -55.17503237499999 Q74.188782375 -55.17503237499999 74.917029375 -54.446686749999984 Q75.645375 -53.71843974999999 75.645375 -52.940781624999985 Q75.645375 -52.16312349999998 74.917029375 -51.43487649999999 L40.201029375000005 -16.718876499999986 Q39.586595625 -16.104344124999987 38.998593375 -15.846341124999988 Q38.41068975 -15.588436749999989 37.773375 -15.588436749999989 Z"/></g><g id="Ultralight-S" transform="matrix(1 0 0 1 517.792 696)"><path d="M37.773375 -16.293999999999986 Q37.181625000000004 -16.293999999999986 36.6391875 -16.540562499999986 Q36.09675 -16.78712499999999 35.505 -17.378874999999987 L20.119500000000002 -32.76437499999999 Q19.52775 -33.35612499999999 19.52775 -33.94787499999999 Q19.52775 -34.53962499999999 20.119500000000002 -35.13137499999999 Q20.71125 -35.72312499999999 21.303 -35.72312499999999 Q21.894750000000002 -35.72312499999999 22.4865 -35.13137499999999 L37.970625 -19.64724999999999 L72.292125 -53.968749999999986 Q72.883875 -54.56049999999999 73.37700000000001 -54.56049999999999 Q73.870125 -54.56049999999999 74.461875 -53.968749999999986 Q75.053625 -53.376999999999995 75.053625 -52.88387499999999 Q75.053625 -52.39074999999998 74.461875 -51.79899999999999 L40.04175 -17.378874999999987 Q39.45 -16.78712499999999 38.907562500000004 -16.540562499999986 Q38.365125 -16.293999999999986 37.773375 -16.293999999999986 Z"/></g></g></svg>