<svg xmlns="http://www.w3.org/2000/svg" version="1.1" width="3300" height="2000"><g id="Notes"><style>
    text {
      font-family: monospace;
      text-anchor: middle;
    }
    text.emphasis {
      font-weight:bold;
    }
    text.lanchor {
      text-anchor: start;
    }
  </style><rect height="2200" id="artboard" fill="white" width="3300" x="0" y="0"/><line id="" style="fill:none;stroke:black;stroke-width:0.5;" x1="263" x2="3036" y1="292" y2="292"/><text class="lanchor emphasis" transform="matrix(1 0 0 1 263 322)">Weight/Scale Variations</text><text transform="matrix(1 0 0 1 559.711 322)">Ultralight</text><text transform="matrix(1 0 0 1 856.422 322)">Thin</text><text transform="matrix(1 0 0 1 1153.13 322)">Light</text><text transform="matrix(1 0 0 1 1449.84 322)">Regular</text><text transform="matrix(1 0 0 1 1746.56 322)">Medium</text><text transform="matrix(1 0 0 1 2043.27 322)">Semibold</text><text transform="matrix(1 0 0 1 2339.98 322)">Bold</text><text transform="matrix(1 0 0 1 2636.69 322)">Heavy</text><text transform="matrix(1 0 0 1 2933.4 322)">Black</text><text id="template-version" style="text-anchor: end;" transform="matrix(1 0 0 1 3036 1933)">Template v.1.0</text><text class="lanchor" transform="matrix(1 0 0 1 263 726)">Small</text><text class="lanchor" transform="matrix(1 0 0 1 263 1156)">Medium</text><text class="lanchor" transform="matrix(1 0 0 1 263 1586)">Large</text></g><g id="Guides"><g id="H-reference" style="fill:#27AAE1;stroke:none;" transform="matrix(1 0 0 1 339 696)"><path d="M 54.9316 0 L 57.666 0 L 30.5664 -70.459 L 28.0762 -70.459 L 0.976562 0 L 3.66211 0 L 12.9395 -24.4629 L 45.7031 -24.4629 Z M 29.1992 -67.0898 L 29.4434 -67.0898 L 44.8242 -26.709 L 13.8184 -26.709 Z"/></g><line id="Baseline-S" style="fill:none;stroke:#27AAE1;opacity:1;stroke-width:0.577;" x1="263" x2="3036" y1="696" y2="696"/><line id="Capline-S" style="fill:none;stroke:#27AAE1;opacity:1;stroke-width:0.577;" x1="263" x2="3036" y1="625.541" y2="625.541"/><g id="H-reference" style="fill:#27AAE1;stroke:none;" transform="matrix(1 0 0 1 339 1126)"><path d="M 54.9316 0 L 57.666 0 L 30.5664 -70.459 L 28.0762 -70.459 L 0.976562 0 L 3.66211 0 L 12.9395 -24.4629 L 45.7031 -24.4629 Z M 29.1992 -67.0898 L 29.4434 -67.0898 L 44.8242 -26.709 L 13.8184 -26.709 Z"/></g><line id="Baseline-M" style="fill:none;stroke:#27AAE1;opacity:1;stroke-width:0.577;" x1="263" x2="3036" y1="1126" y2="1126"/><line id="Capline-M" style="fill:none;stroke:#27AAE1;opacity:1;stroke-width:0.577;" x1="263" x2="3036" y1="1055.54" y2="1055.54"/><g id="H-reference" style="fill:#27AAE1;stroke:none;" transform="matrix(1 0 0 1 339 1556)"><path d="M 54.9316 0 L 57.666 0 L 30.5664 -70.459 L 28.0762 -70.459 L 0.976562 0 L 3.66211 0 L 12.9395 -24.4629 L 45.7031 -24.4629 Z M 29.1992 -67.0898 L 29.4434 -67.0898 L 44.8242 -26.709 L 13.8184 -26.709 Z"/></g><line id="Baseline-L" style="fill:none;stroke:#27AAE1;opacity:1;stroke-width:0.577;" x1="263" x2="3036" y1="1556" y2="1556"/><line id="Capline-L" style="fill:none;stroke:#27AAE1;opacity:1;stroke-width:0.577;" x1="263" x2="3036" y1="1485.54" y2="1485.54"/><rect height="119.336" id="left-margin" style="fill:darkred;stroke:none;opacity:0.4;" width="12.4512" x="1394.06" y="1030.79"/><rect height="119.336" id="right-margin" style="fill:darkgreen;stroke:none;opacity:0.4;" width="12.4512" x="1502.5112" y="1030.79"/><rect x="1406.5112" y="1045" width="96" height="96" fill="none" stroke="blue" stroke-dasharray="5"/><rect x="1394.06" y="1030.79" width="120.9024" height="119.336" fill="none" stroke="blue"/></g><g id="Symbols"><g id="Bold-L" transform="matrix(1 0 0 1 2266 1556)"><path d="M77.38210125 -12.816249999999982 Q75.94875 -12.816249999999982 74.58618750000001 -13.387881249999985 Q73.22362500000001 -13.959673749999986 72.07875 -15.073749999999983 L40.151250000000005 -47.001249999999985 Q38.055 -49.13781249999998 38.135625000000005 -52.34265624999999 Q38.21625 -55.547499999999985 40.3125 -57.72437499999998 Q42.73125 -60.22374999999998 45.714375000000004 -59.98187499999999 Q48.6975 -59.73999999999998 50.955 -57.64374999999998 L77.4 -31.19874999999999 L103.845 -57.64374999999998 Q106.02187500000001 -59.73999999999998 109.2871875 -59.90124999999999 Q112.55250000000001 -60.062499999999986 114.64875 -57.574573749999985 Q117.06750000000001 -55.409308749999994 116.825625 -52.25332374999999 Q116.58375000000001 -49.09749999999998 114.4875 -46.83999999999999 L82.72125 -15.073749999999983 Q81.56557125 -13.959673749999986 80.1905925 -13.387881249999985 Q78.8154525 -12.816249999999982 77.38210125 -12.816249999999982 Z"/></g><g id="Semibold-L" transform="matrix(1 0 0 1 1970.27 1556)"><path d="M77.38984125 -13.937904999999986 Q76.15902 -13.937904999999986 75.0383325 -14.401337499999983 Q73.91764500000001 -14.86460874999998 72.91999125 -15.844847499999986 L40.99249125 -47.772347499999995 Q39.246798749999996 -49.540937499999984 39.32742375 -52.29879624999998 Q39.40804875 -55.05681624999998 41.15374125 -56.848142499999994 Q43.221933750000005 -58.96180749999998 45.714375000000004 -58.719932499999985 Q48.20681625 -58.47805749999998 50.11375875 -56.73236499999997 L77.4 -29.446123749999984 L104.68624125 -56.73236499999997 Q106.4775675 -58.47805749999998 109.26961125 -58.63930749999999 Q112.06181625 -58.80055749999998 113.80750875000001 -56.693342499999986 Q115.87570125 -54.90846624999999 115.63382625000001 -52.21333374999999 Q115.39195125 -49.51820124999999 113.64625875 -47.6110975 L81.88000875 -15.844847499999986 Q80.8762275 -14.86460874999998 79.748445 -14.401337499999983 Q78.6206625 -13.937904999999986 77.38984125 -13.937904999999986 Z"/></g><g id="Medium-L" transform="matrix(1 0 0 1 1674.31 1556)"><path d="M77.39564625 -14.77930749999998 Q76.31688375 -14.77930749999998 75.37760250000001 -15.16130874999999 Q74.43832125 -15.543471249999989 73.5509625 -16.423412499999984 L41.6234625 -48.35091249999999 Q40.14076875 -49.84328124999999 40.221393750000004 -52.265901249999985 Q40.30201875 -54.688682499999985 41.7847125 -56.19072625 Q43.5900675 -58.01526999999999 45.714375000000004 -57.77339499999998 Q47.8386825 -57.531519999999986 49.4827875 -56.04882624999999 L77.4 -28.13145249999998 L105.3172125 -56.04882624999999 Q106.8194175 -57.531519999999986 109.25654999999999 -57.69276999999998 Q111.6936825 -57.85401999999998 113.17653750000001 -56.03221749999999 Q114.98173125000001 -54.53291499999999 114.73985625000002 -52.183341249999984 Q114.49798125000001 -49.83360624999999 113.0152875 -48.18966249999998 L81.2490375 -16.423412499999984 Q80.35925999999999 -15.543471249999989 79.416915 -15.16130874999999 Q78.47457 -14.77930749999998 77.39564625 -14.77930749999998 Z"/></g><g id="Regular-L" transform="matrix(1 0 0 1 1378.56 1556)"><path d="M77.4 -15.396249999999988 Q76.4325 -15.396249999999988 75.62625 -15.718749999999986 Q74.82000000000001 -16.041249999999984 74.01375 -16.847499999999982 L42.08625 -48.77499999999999 Q40.79625 -50.06499999999998 40.876875 -52.24187499999999 Q40.9575 -54.41874999999999 42.2475 -55.70874999999998 Q43.86 -57.32124999999999 45.714375000000004 -57.079374999999985 Q47.56875 -56.83749999999999 49.02 -55.547499999999985 L77.4 -27.16749999999999 L105.78 -55.547499999999985 Q107.07000000000001 -56.83749999999999 109.246875 -56.99874999999999 Q111.42375 -57.15999999999998 112.71375 -55.547499999999985 Q114.32625 -54.25749999999999 114.08437500000001 -52.16124999999998 Q113.8425 -50.06499999999998 112.55250000000001 -48.61374999999998 L80.78625 -16.847499999999982 Q79.98 -16.041249999999984 79.17375 -15.718749999999986 Q78.3675 -15.396249999999988 77.4 -15.396249999999988 Z"/></g><g id="Light-L" transform="matrix(1 0 0 1 1082.77 1556)"><path d="M77.4 -17.505077499999985 Q76.49458125 -17.505077499999985 75.68833125 -17.827577499999983 Q74.88208125 -18.15007749999998 74.13775125000001 -18.89424624999998 L43.51282875 -49.51932999999998 Q42.532912499999995 -50.499246249999985 42.5825775 -52.14883374999998 Q42.63208125 -53.79858249999998 43.6119975 -54.77833749999999 Q44.8523325 -56.018672499999994 46.24150125 -55.869838749999985 Q47.63083125 -55.72100499999999 48.77183625000001 -54.67916874999999 L77.4 -26.05100499999999 L106.02816375 -54.67916874999999 Q107.00791875 -55.65908499999999 108.62670750000001 -55.78921374999999 Q110.245335 -55.91950374999999 111.28717125 -54.67916874999999 Q112.52750625 -53.637332499999985 112.3477125 -52.09916874999999 Q112.16791875 -50.561166249999985 111.18800250000001 -49.41999999999999 L80.66224875 -18.89424624999998 Q79.91791875 -18.15007749999998 79.14279 -17.827577499999983 Q78.3675 -17.505077499999985 77.4 -17.505077499999985 Z"/></g><g id="Thin-L" transform="matrix(1 0 0 1 787.282 1556)"><path d="M77.4 -19.613582499999985 Q76.55650125 -19.613582499999985 75.75025125 -19.936082499999983 Q74.94400125 -20.25858249999999 74.2617525 -20.94066999999999 L44.939085000000006 -50.26349874999998 Q44.2692525 -50.93333124999998 44.2879575 -52.05579249999998 Q44.306501250000004 -53.17841499999999 44.97633375 -53.848247499999985 Q45.844665 -54.71641749999999 46.7686275 -54.66062499999998 Q47.69275125 -54.604832499999986 48.52383375 -53.81099874999998 L77.4 -24.934832499999985 L106.27616625 -53.81099874999998 Q106.94599875 -54.48083124999998 108.00654 -54.579999999999984 Q109.06708125 -54.67916874999999 109.860915 -53.81099874999998 Q110.729085 -53.01716499999999 110.6113725 -52.03724874999999 Q110.49349875 -51.05733249999999 109.82366625 -50.22624999999999 L80.5382475 -20.94066999999999 Q79.85599875 -20.25858249999999 79.11166875 -19.936082499999983 Q78.3675 -19.613582499999985 77.4 -19.613582499999985 Z"/></g><g id="Ultralight-L" transform="matrix(1 0 0 1 491.205 1556)"><path d="M77.4 -20.878749999999982 Q76.59375 -20.878749999999982 75.78750000000001 -21.201249999999987 Q74.98125 -21.523749999999986 74.33625 -22.16874999999999 L45.795 -50.70999999999998 Q45.31125 -51.19374999999998 45.31125 -51.999999999999986 Q45.31125 -52.80624999999999 45.795 -53.28999999999999 Q46.44 -53.93499999999999 47.085 -53.93499999999999 Q47.730000000000004 -53.93499999999999 48.375 -53.28999999999999 L77.4 -24.264999999999986 L106.425 -53.28999999999999 Q106.90875 -53.77374999999999 107.634375 -53.85437499999999 Q108.36 -53.93499999999999 109.00500000000001 -53.28999999999999 Q109.65 -52.64499999999998 109.56937500000001 -51.999999999999986 Q109.48875 -51.35499999999999 109.00500000000001 -50.70999999999998 L80.46375 -22.16874999999999 Q79.81875000000001 -21.523749999999986 79.093125 -21.201249999999987 Q78.3675 -20.878749999999982 77.4 -20.878749999999982 Z"/></g><g id="Bold-M" transform="matrix(1 0 0 1 2281.8 1126)"><path d="M60.0 -17.72999999999999 Q58.5 -17.72999999999999 57.0625 -18.29249999999999 Q55.625 -18.85499999999999 54.5 -19.97999999999999 L31.375 -43.10499999999999 Q29.125 -45.35499999999999 29.1875 -48.54249999999999 Q29.25 -51.72999999999999 31.5 -53.97999999999999 Q33.75 -56.22999999999999 37.0 -56.22999999999999 Q40.25 -56.22999999999999 42.5 -53.97999999999999 L60.0 -36.47999999999999 L77.625 -54.10499999999999 Q79.875 -56.35499999999999 83.0625 -56.29249999999999 Q86.25 -56.22999999999999 88.5 -53.97999999999999 Q90.75 -51.72999999999999 90.75 -48.47999999999999 Q90.75 -45.22999999999999 88.5 -42.97999999999999 L65.5 -19.97999999999999 Q64.375 -18.85499999999999 62.9375 -18.29249999999999 Q61.5 -17.72999999999999 60.0 -17.72999999999999 Z"/></g><g id="Semibold-M" transform="matrix(1 0 0 1 1985.97 1126)"><path d="M60.0 -18.92562499999999 Q58.717375 -18.92562499999999 57.524375 -19.37937499999999 Q56.3315 -19.833249999999992 55.3695 -20.79512499999999 L32.2445 -43.920124999999985 Q30.374875 -45.789749999999984 30.437375 -48.488125 Q30.499875 -51.186499999999995 32.3695 -53.056124999999994 Q34.239125 -54.925749999999994 37.0 -54.925749999999994 Q39.760875 -54.925749999999994 41.6305 -53.056124999999994 L60.0 -34.68662499999999 L78.4945 -53.181124999999994 Q80.364125 -55.050749999999994 83.0625 -54.988249999999994 Q85.760875 -54.925749999999994 87.6305 -53.056124999999994 Q89.500125 -51.186499999999995 89.500125 -48.425625 Q89.500125 -45.664749999999984 87.6305 -43.795124999999985 L64.6305 -20.79512499999999 Q63.6685 -19.833249999999992 62.475625 -19.37937499999999 Q61.282625 -18.92562499999999 60.0 -18.92562499999999 Z"/></g><g id="Medium-M" transform="matrix(1 0 0 1 1689.91 1126)"><path d="M60.0 -19.822374999999987 Q58.880375 -19.822374999999987 57.870875 -20.194624999999988 Q56.861375 -20.566999999999993 56.02175 -21.40662499999999 L32.89675 -44.53162499999999 Q31.3125 -46.11587499999999 31.375 -48.447374999999994 Q31.4375 -50.778874999999985 33.02175 -52.363125 Q34.606 -53.947374999999994 37.0 -53.947374999999994 Q39.394 -53.947374999999994 40.97825 -52.363125 L60.0 -33.34137499999999 L79.14675 -52.488125 Q80.731 -54.072374999999994 83.0625 -54.009874999999994 Q85.394 -53.947374999999994 86.97825 -52.363125 Q88.5625 -50.778874999999985 88.5625 -48.384874999999994 Q88.5625 -45.99087499999999 86.97825 -44.40662499999999 L63.97825 -21.40662499999999 Q63.138625 -20.566999999999993 62.129125 -20.194624999999988 Q61.119625 -19.822374999999987 60.0 -19.822374999999987 Z"/></g><g id="Regular-M" transform="matrix(1 0 0 1 1394.06 1126)"><path d="M60.0 -20.47999999999999 Q59.0 -20.47999999999999 58.125 -20.79249999999999 Q57.25 -21.10499999999999 56.5 -21.85499999999999 L33.375 -44.97999999999999 Q32.0 -46.35499999999999 32.0625 -48.41749999999999 Q32.125 -50.47999999999999 33.5 -51.85499999999999 Q34.875 -53.22999999999999 37.0 -53.22999999999999 Q39.125 -53.22999999999999 40.5 -51.85499999999999 L60.0 -32.35499999999999 L79.625 -51.97999999999999 Q81.0 -53.35499999999999 83.0625 -53.29249999999999 Q85.125 -53.22999999999999 86.5 -51.85499999999999 Q87.875 -50.47999999999999 87.875 -48.35499999999999 Q87.875 -46.22999999999999 86.5 -44.85499999999999 L63.5 -21.85499999999999 Q62.75 -21.10499999999999 61.875 -20.79249999999999 Q61.0 -20.47999999999999 60.0 -20.47999999999999 Z"/></g><g id="Light-M" transform="matrix(1 0 0 1 1098.18 1126)"><path d="M60.0 -21.922374999999988 Q59.14425 -21.922374999999988 58.341375 -22.210874999999987 Q57.5385 -22.499374999999986 56.836625 -23.201249999999987 L34.2885 -45.74924999999999 Q33.202 -46.83574999999999 33.2405 -48.34537499999999 Q33.278875 -49.85499999999999 34.3655 -50.94149999999999 Q35.452 -52.02799999999999 37.0 -52.02799999999999 Q38.548 -52.02799999999999 39.6345 -50.94149999999999 L60.0 -30.575999999999986 L80.442375 -51.01837499999999 Q81.528875 -52.10487499999999 83.0385 -52.06649999999999 Q84.548 -52.02799999999999 85.6345 -50.94149999999999 Q86.721125 -49.85499999999999 86.721125 -48.30687499999999 Q86.721125 -46.75887499999999 85.6345 -45.67237499999999 L63.163375 -23.201249999999987 Q62.4615 -22.499374999999986 61.682625 -22.210874999999987 Q60.903875 -21.922374999999988 60.0 -21.922374999999988 Z"/></g><g id="Thin-M" transform="matrix(1 0 0 1 802.565 1126)"><path d="M60.0 -23.36462499999999 Q59.2885 -23.36462499999999 58.55775 -23.62899999999999 Q57.826875 -23.89349999999999 57.173125 -24.54724999999999 L35.201875 -46.51849999999999 Q34.403875 -47.31649999999999 34.41825 -48.27324999999999 Q34.432625 -49.22999999999999 35.23075 -50.02812499999999 Q36.028875 -50.82612499999999 37.0 -50.82612499999999 Q37.971125 -50.82612499999999 38.76925 -50.02812499999999 L60.0 -28.797374999999988 L81.259625 -50.05687499999999 Q82.057625 -50.85499999999999 83.014375 -50.84062499999999 Q83.971125 -50.82612499999999 84.76925 -50.02812499999999 Q85.567375 -49.22999999999999 85.567375 -48.25887499999999 Q85.567375 -47.28762499999999 84.76925 -46.48962499999999 L62.826875 -24.54724999999999 Q62.173125 -23.89349999999999 61.490375 -23.62899999999999 Q60.80775 -23.36462499999999 60.0 -23.36462499999999 Z"/></g><g id="Ultralight-M" transform="matrix(1 0 0 1 506.415 1126)"><path d="M60.0 -24.22999999999999 Q59.375 -24.22999999999999 58.6875 -24.47999999999999 Q58.0 -24.72999999999999 57.375 -25.35499999999999 L35.75 -46.97999999999999 Q35.125 -47.60499999999999 35.125 -48.22999999999999 Q35.125 -48.85499999999999 35.75 -49.47999999999999 Q36.375 -50.10499999999999 37.0 -50.10499999999999 Q37.625 -50.10499999999999 38.25 -49.47999999999999 L60.0 -27.72999999999999 L81.75 -49.47999999999999 Q82.375 -50.10499999999999 83.0 -50.10499999999999 Q83.625 -50.10499999999999 84.25 -49.47999999999999 Q84.875 -48.85499999999999 84.875 -48.22999999999999 Q84.875 -47.60499999999999 84.25 -46.97999999999999 L62.625 -25.35499999999999 Q62.0 -24.72999999999999 61.375 -24.47999999999999 Q60.75 -24.22999999999999 60.0 -24.22999999999999 Z"/></g><g id="Bold-S" transform="matrix(1 0 0 1 2294.23 696)"><path d="M47.34 -21.422499999999985 Q46.1565 -21.422499999999985 44.973 -21.915624999999984 Q43.789500000000004 -22.40874999999999 42.80325 -23.39499999999999 L24.952125000000002 -41.24612499999999 Q23.07825 -43.11999999999999 23.176875000000003 -45.78287499999999 Q23.2755 -48.44574999999999 25.05075 -50.22099999999999 Q27.02325 -52.193499999999986 29.587500000000002 -52.14418749999999 Q32.15175 -52.09487499999999 34.025625 -50.22099999999999 L47.34 -36.807999999999986 L60.753 -50.22099999999999 Q62.626875000000005 -52.09487499999999 65.1418125 -52.09487499999999 Q67.65675 -52.09487499999999 69.62925 -50.12237499999999 Q71.503125 -48.248499999999986 71.503125 -45.63493749999999 Q71.503125 -43.02137499999999 69.62925 -41.14749999999999 L51.87675 -23.39499999999999 Q50.8905 -22.40874999999999 49.707 -21.915624999999984 Q48.523500000000006 -21.422499999999985 47.34 -21.422499999999985 Z"/></g><g id="Semibold-S" transform="matrix(1 0 0 1 1998.1 696)"><path d="M47.34 -22.365848124999985 Q46.328008875 -22.365848124999985 45.337419375 -22.773169374999988 Q44.346928500000004 -23.18058924999999 43.4892855 -24.038133624999986 L25.6381605 -41.88925862499998 Q24.064401375 -43.463017749999985 24.163026375 -45.73997312499999 Q24.261651375 -48.01692849999999 25.736785500000003 -49.492062624999996 Q27.409169625 -51.16444674999999 29.587500000000002 -51.11513424999999 Q31.765830375 -51.06582174999999 33.3395895 -49.492062624999996 L47.34 -35.39302712499999 L61.4390355 -49.492062624999996 Q63.012794625000005 -51.06582174999999 65.1418125 -51.06582174999999 Q67.270830375 -51.06582174999999 68.9432145 -49.39343762499999 Q70.516973625 -47.819678499999995 70.516973625 -45.592035624999994 Q70.516973625 -43.364392749999986 68.9432145 -41.790633624999984 L51.1907145 -24.038133624999986 Q50.3330715 -23.18058924999999 49.342580625000004 -22.773169374999988 Q48.351991125000005 -22.365848124999985 47.34 -22.365848124999985 Z"/></g><g id="Medium-S" transform="matrix(1 0 0 1 1701.85 696)"><path d="M47.34 -23.073383874999983 Q46.456615875000004 -23.073383874999983 45.610807875 -23.416401624999985 Q44.764999875 -23.759517999999993 44.00391075 -24.52060712499999 L26.15278575 -42.37173212499999 Q24.8041875 -43.72033037499999 24.9028125 -45.707821374999995 Q25.0014375 -47.695312374999986 26.251410749999998 -48.945285625 Q27.698634000000002 -50.39250887499999 29.587500000000002 -50.34319637499999 Q31.476366 -50.29388387499999 32.82496425 -48.945285625 L47.34 -34.33162487499999 L61.95366075 -48.945285625 Q63.302259 -50.29388387499999 65.1418125 -50.29388387499999 Q66.98136600000001 -50.29388387499999 68.42858925 -48.84666062499999 Q69.7771875 -47.49806237499998 69.7771875 -45.55988387499999 Q69.7771875 -43.62170537499999 68.42858925 -42.27310712499999 L50.676089250000004 -24.52060712499999 Q49.915000125 -23.759517999999993 49.069192125 -23.416401624999985 Q48.223384125 -23.073383874999983 47.34 -23.073383874999983 Z"/></g><g id="Regular-S" transform="matrix(1 0 0 1 1405.73 696)"><path d="M47.34 -23.592249999999986 Q46.551 -23.592249999999986 45.8113125 -23.888124999999988 Q45.071625000000004 -24.18399999999999 44.38125 -24.874374999999986 L26.530125 -42.72549999999999 Q25.346625 -43.90899999999999 25.44525 -45.68424999999999 Q25.543875 -47.45949999999999 26.62875 -48.54437499999999 Q27.910875 -49.82649999999999 29.587500000000002 -49.77718749999999 Q31.264125 -49.72787499999999 32.447625 -48.54437499999999 L47.34 -33.55337499999999 L62.331 -48.54437499999999 Q63.514500000000005 -49.72787499999999 65.1418125 -49.72787499999999 Q66.769125 -49.72787499999999 68.05125 -48.44574999999999 Q69.23475 -47.26224999999999 69.23475 -45.53631249999999 Q69.23475 -43.810374999999986 68.05125 -42.62687499999999 L50.298750000000005 -24.874374999999986 Q49.608375 -24.18399999999999 48.8686875 -23.888124999999988 Q48.129000000000005 -23.592249999999986 47.34 -23.592249999999986 Z"/></g><g id="Light-S" transform="matrix(1 0 0 1 1109.75 696)"><path d="M47.34 -24.730283874999984 Q46.66481325 -24.730283874999984 45.982032375 -25.00722287499999 Q45.299251500000004 -25.284161874999988 44.646847125 -25.936566249999984 L27.2508765 -43.33243824999999 Q26.295003 -44.28831174999999 26.374692 -45.62734337499999 Q26.454282375000002 -46.96637499999999 27.3116295 -47.82362349999999 Q28.366128 -48.87812199999999 29.587500000000002 -48.82880949999999 Q30.808872000000004 -48.77949699999999 31.764745500000004 -47.82362349999999 L47.34 -32.149743999999984 L62.975908875 -47.78565287499999 Q63.931782375000004 -48.74152637499999 65.1228765 -48.76056099999999 Q66.313872 -48.77949699999999 67.36837050000001 -47.72499849999999 Q68.324342625 -46.76912499999999 68.324342625 -45.49834187499999 Q68.324342625 -44.227657374999986 67.36837050000001 -43.27178387499999 L50.033152875000006 -25.936566249999984 Q49.3807485 -25.284161874999988 48.716903625 -25.00722287499999 Q48.053157375000005 -24.730283874999984 47.34 -24.730283874999984 Z"/></g><g id="Thin-S" transform="matrix(1 0 0 1 814.015 696)"><path d="M47.34 -25.86821912499999 Q46.7786265 -25.86821912499999 46.15275225 -26.12612349999999 Q45.526779375000004 -26.384126499999986 44.912345625 -26.99856024999999 L27.971529375000003 -43.93937649999999 Q27.243282375 -44.66762349999999 27.303936750000002 -45.57043674999999 Q27.364591125000004 -46.473249999999986 27.99431175 -47.10297062499999 Q28.821282375 -47.92984262499999 29.587500000000002 -47.88053012499999 Q30.353717625 -47.83121762499999 31.08206325 -47.10297062499999 L47.34 -30.746408874999986 L63.620719125 -47.02702937499999 Q64.348966125 -47.75537499999999 65.103841875 -47.793345624999986 Q65.858717625 -47.83121762499999 66.68568825 -47.004345624999985 Q67.414033875 -46.27599999999999 67.414033875 -45.46046987499999 Q67.414033875 -44.64484112499999 66.68568825 -43.91659412499999 L49.767654375000006 -26.99856024999999 Q49.153220625 -26.384126499999986 48.565218375 -26.12612349999999 Q47.97731475 -25.86821912499999 47.34 -25.86821912499999 Z"/></g><g id="Ultralight-S" transform="matrix(1 0 0 1 517.792 696)"><path d="M47.34 -26.550999999999988 Q46.846875000000004 -26.550999999999988 46.255125 -26.79756249999999 Q45.663375 -27.044124999999987 45.071625000000004 -27.63587499999999 L28.404 -44.303499999999985 Q27.812250000000002 -44.89524999999999 27.8615625 -45.53631249999999 Q27.910875 -46.17737499999999 28.404 -46.67049999999999 Q29.094375000000003 -47.360874999999986 29.587500000000002 -47.31156249999999 Q30.080625 -47.26224999999999 30.672375000000002 -46.67049999999999 L47.34 -29.90424999999999 L64.007625 -46.57187499999999 Q64.59937500000001 -47.16362499999999 65.0925 -47.21293749999999 Q65.58562500000001 -47.26224999999999 66.276 -46.57187499999999 Q66.86775 -45.98012499999999 66.86775 -45.43768749999999 Q66.86775 -44.89524999999999 66.276 -44.303499999999985 L49.608375 -27.63587499999999 Q49.016625000000005 -27.044124999999987 48.4741875 -26.79756249999999 Q47.93175 -26.550999999999988 47.34 -26.550999999999988 Z"/></g></g></svg>