<svg xmlns="http://www.w3.org/2000/svg" version="1.1" width="3300" height="2000"><g id="Notes"><style>
    text {
      font-family: monospace;
      text-anchor: middle;
    }
    text.emphasis {
      font-weight:bold;
    }
    text.lanchor {
      text-anchor: start;
    }
  </style><rect height="2200" id="artboard" fill="white" width="3300" x="0" y="0"/><line id="" style="fill:none;stroke:black;stroke-width:0.5;" x1="263" x2="3036" y1="292" y2="292"/><text class="lanchor emphasis" transform="matrix(1 0 0 1 263 322)">Weight/Scale Variations</text><text transform="matrix(1 0 0 1 559.711 322)">Ultralight</text><text transform="matrix(1 0 0 1 856.422 322)">Thin</text><text transform="matrix(1 0 0 1 1153.13 322)">Light</text><text transform="matrix(1 0 0 1 1449.84 322)">Regular</text><text transform="matrix(1 0 0 1 1746.56 322)">Medium</text><text transform="matrix(1 0 0 1 2043.27 322)">Semibold</text><text transform="matrix(1 0 0 1 2339.98 322)">Bold</text><text transform="matrix(1 0 0 1 2636.69 322)">Heavy</text><text transform="matrix(1 0 0 1 2933.4 322)">Black</text><text id="template-version" style="text-anchor: end;" transform="matrix(1 0 0 1 3036 1933)">Template v.1.0</text><text class="lanchor" transform="matrix(1 0 0 1 263 726)">Small</text><text class="lanchor" transform="matrix(1 0 0 1 263 1156)">Medium</text><text class="lanchor" transform="matrix(1 0 0 1 263 1586)">Large</text></g><g id="Guides"><g id="H-reference" style="fill:#27AAE1;stroke:none;" transform="matrix(1 0 0 1 339 696)"><path d="M 54.9316 0 L 57.666 0 L 30.5664 -70.459 L 28.0762 -70.459 L 0.976562 0 L 3.66211 0 L 12.9395 -24.4629 L 45.7031 -24.4629 Z M 29.1992 -67.0898 L 29.4434 -67.0898 L 44.8242 -26.709 L 13.8184 -26.709 Z"/></g><line id="Baseline-S" style="fill:none;stroke:#27AAE1;opacity:1;stroke-width:0.577;" x1="263" x2="3036" y1="696" y2="696"/><line id="Capline-S" style="fill:none;stroke:#27AAE1;opacity:1;stroke-width:0.577;" x1="263" x2="3036" y1="625.541" y2="625.541"/><g id="H-reference" style="fill:#27AAE1;stroke:none;" transform="matrix(1 0 0 1 339 1126)"><path d="M 54.9316 0 L 57.666 0 L 30.5664 -70.459 L 28.0762 -70.459 L 0.976562 0 L 3.66211 0 L 12.9395 -24.4629 L 45.7031 -24.4629 Z M 29.1992 -67.0898 L 29.4434 -67.0898 L 44.8242 -26.709 L 13.8184 -26.709 Z"/></g><line id="Baseline-M" style="fill:none;stroke:#27AAE1;opacity:1;stroke-width:0.577;" x1="263" x2="3036" y1="1126" y2="1126"/><line id="Capline-M" style="fill:none;stroke:#27AAE1;opacity:1;stroke-width:0.577;" x1="263" x2="3036" y1="1055.54" y2="1055.54"/><g id="H-reference" style="fill:#27AAE1;stroke:none;" transform="matrix(1 0 0 1 339 1556)"><path d="M 54.9316 0 L 57.666 0 L 30.5664 -70.459 L 28.0762 -70.459 L 0.976562 0 L 3.66211 0 L 12.9395 -24.4629 L 45.7031 -24.4629 Z M 29.1992 -67.0898 L 29.4434 -67.0898 L 44.8242 -26.709 L 13.8184 -26.709 Z"/></g><line id="Baseline-L" style="fill:none;stroke:#27AAE1;opacity:1;stroke-width:0.577;" x1="263" x2="3036" y1="1556" y2="1556"/><line id="Capline-L" style="fill:none;stroke:#27AAE1;opacity:1;stroke-width:0.577;" x1="263" x2="3036" y1="1485.54" y2="1485.54"/><rect height="119.336" id="left-margin" style="fill:darkred;stroke:none;opacity:0.4;" width="12.4512" x="1394.06" y="1030.79"/><rect height="119.336" id="right-margin" style="fill:darkgreen;stroke:none;opacity:0.4;" width="12.4512" x="1502.5112" y="1030.79"/><rect x="1406.5112" y="1045" width="96" height="96" fill="none" stroke="blue" stroke-dasharray="5"/><rect x="1394.06" y="1030.79" width="120.9024" height="119.336" fill="none" stroke="blue"/></g><g id="Symbols"><g id="Bold-L" transform="matrix(1 0 0 1 2266 1556)"><path d="M77.24439375 23.142500000000016 Q74.38478625 23.142500000000016 71.7111 22.196123750000016 Q69.0372525 21.249747500000016 66.875535 19.070937500000014 L58.21125 10.887500000000014 Q38.3775 -7.172499999999985 23.623125 -24.50687499999998 Q8.86875 -41.84124999999999 8.86875 -61.51374999999999 Q8.86875 -77.84257 19.660083750000002 -88.78628499999999 Q30.45125625 -99.72999999999999 46.60125 -99.72999999999999 Q54.66375 -99.72999999999999 62.565000000000005 -96.26312499999997 Q70.46625 -92.79624999999999 77.23875 -84.41124999999998 Q84.8175 -92.79624999999999 92.235 -96.26312499999997 Q99.6525 -99.72999999999999 107.87625 -99.72999999999999 Q124.2240975 -99.72999999999999 135.15829875 -88.78628499999999 Q146.0925 -77.84257 146.0925 -61.51374999999999 Q146.0925 -41.84124999999999 131.09625 -24.50687499999998 Q116.10000000000001 -7.172499999999985 96.42750000000001 11.048750000000016 L87.72 19.111250000000016 Q85.5834375 21.268936250000014 82.8679875 22.205637500000016 Q80.15253750000001 23.142500000000016 77.24439375 23.142500000000016 Z M72.24000000000001 -67.31874999999998 Q68.53125 -74.57499999999999 61.275 -79.57374999999999 Q54.018750000000004 -84.57249999999999 46.64430375 -84.57249999999999 Q36.6743775 -84.57249999999999 30.35031375 -78.14555874999999 Q24.02625 -71.71861749999998 24.02625 -61.44457374999999 Q24.02625 -52.41086499999999 30.08715375 -42.427554999999984 Q36.148218750000005 -32.44424499999998 44.584335 -23.058204999999987 Q53.02045125000001 -13.672164999999985 62.17719375000001 -5.49243624999999 Q71.33393625 2.6871312500000144 77.26971 8.146250000000016 Q77.26971 8.146250000000016 77.26971 8.146250000000016 Q77.26971 8.146250000000016 77.26971 8.146250000000016 Q83.26692 2.6637500000000145 92.37899625 -5.581929999999993 Q101.49091125 -13.827609999999986 110.00475000000002 -23.238804999999985 Q118.51875 -32.64999999999999 124.726875 -42.560263749999976 Q130.935 -52.47036625 130.935 -61.54825749999999 Q130.935 -71.67249999999999 124.42678875 -78.12249999999999 Q117.91857750000001 -84.57249999999999 107.95477875 -84.57249999999999 Q100.2975 -84.57249999999999 93.121875 -79.65437499999999 Q85.94625 -74.73624999999998 82.07625 -67.31874999999998 Q81.22227000000001 -65.70624999999998 79.87550999999999 -64.98062499999999 Q78.52875 -64.25499999999998 76.996875 -64.25499999999998 Q75.465 -64.25499999999998 74.23772625000001 -64.98062499999999 Q73.0104525 -65.70624999999998 72.24000000000001 -67.31874999999998 Z"/></g><g id="Semibold-L" transform="matrix(1 0 0 1 1970.27 1556)"><path d="M77.31211875 21.600143750000015 Q74.94561375 21.600143750000015 72.65747625 20.794055000000018 Q70.36933875 19.987805000000016 68.5580175 18.159552500000018 L59.963876250000006 10.116402500000014 Q40.059982500000004 -8.15402874999998 25.34059875 -25.27797249999999 Q10.62137625 -42.402077499999976 10.62137625 -61.51374999999999 Q10.62137625 -77.06373249999999 20.96233875 -87.48548124999999 Q31.3034625 -97.90723 46.67139375 -97.90723 Q54.8040375 -97.90723 62.77527 -94.230085 Q70.74666375 -90.55293999999998 77.30889375 -81.88752625 Q84.6772125 -90.55293999999998 92.16485625000001 -94.230085 Q99.6525 -97.90723 107.94639375 -97.90723 Q123.4262325 -97.90723 133.84798125 -87.48548124999999 Q144.26973 -77.06373249999999 144.26973 -61.51374999999999 Q144.26973 -42.402077499999976 129.4137675 -25.27797249999999 Q114.55764375 -8.15402874999998 94.7450175 10.207508750000013 L86.10766124999999 18.199865000000017 Q84.321495 20.006993750000017 82.0243275 20.803568750000014 Q79.72699874999999 21.600143750000015 77.31211875 21.600143750000015 Z M72.66070125 -67.59916374999999 Q68.6715375 -75.13582749999998 61.48527 -80.13457749999998 Q54.29916375 -85.13332749999998 46.6957425 -85.13332749999998 Q36.43347 -85.13332749999998 29.91429375 -78.52110999999998 Q23.39527875 -71.9088925 23.39527875 -61.44457374999999 Q23.39527875 -52.30234374999999 29.54696625 -42.196967499999985 Q35.69865375 -32.09142999999999 44.26102875000001 -22.59057999999999 Q52.823565 -13.089729999999989 62.0654475 -4.855821249999984 Q71.30733000000001 3.3780875000000137 77.32630875000001 8.91734750000002 Q77.32630875000001 8.91734750000002 77.32630875000001 8.91734750000002 Q77.32630875000001 8.91734750000002 77.32630875000001 8.91734750000002 Q83.38027875 3.434847500000018 92.596845 -4.871301249999981 Q101.81325 -13.177611249999984 110.4114225 -22.738607499999986 Q119.00943375 -32.299442499999984 125.25271125 -42.366279999999975 Q131.4958275 -52.433117499999994 131.4958275 -61.53326124999998 Q131.4958275 -71.88276999999998 124.83765375 -78.50804874999999 Q118.17948 -85.13332749999998 107.99073750000001 -85.13332749999998 Q100.1572125 -85.13332749999998 93.05173125000002 -80.21520249999998 Q85.94625 -75.29707749999999 81.72569250000001 -67.59916374999999 Q80.89251375 -66.12695124999999 79.71055125000001 -65.47130874999999 Q78.52875 -64.81582749999998 77.10201 -64.81582749999998 Q75.67527 -64.81582749999998 74.52588 -65.47130874999999 Q73.37649 -66.12695124999999 72.66070125 -67.59916374999999 Z"/></g><g id="Medium-L" transform="matrix(1 0 0 1 1674.31 1556)"><path d="M77.36275125 20.443336250000016 Q75.366315 20.443336250000016 73.36729875 19.742382500000012 Q71.36844375000001 19.041267500000014 69.81996000000001 17.476013750000018 L61.2785475 9.537837500000016 Q41.322086250000005 -8.890134999999987 26.62898625 -25.856537499999988 Q11.9360475 -42.82277874999998 11.9360475 -61.51374999999999 Q11.9360475 -76.47952375 21.9393525 -86.50975749999998 Q31.942496249999998 -96.54015249999998 46.72396125 -96.54015249999998 Q54.9091725 -96.54015249999998 62.93313375 -92.70514374999999 Q70.95693375 -88.870135 77.36146125 -79.99445125 Q84.57207749999999 -88.870135 92.11228875 -92.70514374999999 Q99.6525 -96.54015249999998 107.99896125 -96.54015249999998 Q122.8276725 -96.54015249999998 132.8651625 -86.50975749999998 Q142.9026525 -76.47952375 142.9026525 -61.51374999999999 Q142.9026525 -42.82277874999998 128.15166375 -25.856537499999988 Q113.40083625 -8.890134999999987 93.48291375000001 9.576537500000015 L84.89812500000001 17.516326250000017 Q83.3749575 19.060456250000016 81.39142125 19.751896250000016 Q79.40788500000001 20.443336250000016 77.36275125 20.443336250000016 Z M72.97610625 -67.80943374999998 Q68.7766725 -75.55652874999998 61.643133750000004 -80.55527874999999 Q54.50943375 -85.55402874999999 46.73428125 -85.55402874999999 Q36.2525475 -85.55402874999999 29.58727875 -78.80281375 Q22.92201 -72.05159874999998 22.92201 -61.44457374999999 Q22.92201 -52.22091249999998 29.141745 -42.023946249999995 Q35.36148 -31.826818749999987 44.01867 -22.239861249999976 Q52.67586000000001 -12.652903749999986 61.981436249999994 -4.3783599999999865 Q71.28717375000001 3.896183750000013 77.36887875000001 9.495912500000017 Q77.36887875000001 9.495912500000017 77.36887875000001 9.495912500000017 Q77.36887875000001 9.495912500000017 77.36887875000001 9.495912500000017 Q83.4652575 4.013412500000015 92.76019124999999 -4.338369999999983 Q102.055125 -12.689991249999984 110.71634625000002 -22.36321749999999 Q119.37756750000001 -32.036604999999994 125.6469675 -42.2208325 Q131.91652875 -52.40505999999998 131.91652875 -61.52197375 Q131.91652875 -72.04063374999998 125.1458025 -78.79733124999998 Q118.37523750000001 -85.55402874999999 108.01766624999999 -85.55402874999999 Q100.0520775 -85.55402874999999 92.99916375000001 -80.63590374999998 Q85.94625 -75.71777874999998 81.462855 -67.80943374999998 Q80.64515625 -66.44235624999999 79.5868725 -65.83944249999999 Q78.52875 -65.23652874999999 77.18086125 -65.23652874999999 Q75.83313375 -65.23652874999999 74.74211625 -65.83944249999999 Q73.65109875 -66.44235624999999 72.97610625 -67.80943374999998 Z"/></g><g id="Regular-L" transform="matrix(1 0 0 1 1378.56 1556)"><path d="M77.4 19.595000000000017 Q75.67478625 19.595000000000017 73.88797500000001 18.971123750000014 Q72.10100249999999 18.347247500000016 70.745535 16.974687500000016 L62.2425 9.113750000000017 Q42.2475 -9.429999999999986 27.57375 -26.280624999999986 Q12.9 -43.13124999999998 12.9 -61.51374999999999 Q12.9 -76.05124374999998 22.655625 -85.79429124999999 Q32.41125 -95.5375 46.7625 -95.5375 Q54.98625 -95.5375 63.04875 -91.58687499999999 Q71.11125 -87.63624999999999 77.4 -78.60624999999999 Q84.495 -87.63624999999999 92.07375 -91.58687499999999 Q99.6525 -95.5375 108.03750000000001 -95.5375 Q122.38875 -95.5375 132.144375 -85.79429124999999 Q141.9 -76.05124374999998 141.9 -61.51374999999999 Q141.9 -43.13124999999998 127.22625000000001 -26.280624999999986 Q112.55250000000001 -9.429999999999986 92.5575 9.113750000000017 L84.01125 17.015000000000015 Q82.6809375 18.366436250000014 80.92734375 18.980637500000014 Q79.17375 19.595000000000017 77.4 19.595000000000017 Z M73.2075 -67.96374999999999 Q68.85375 -75.86499999999998 61.75875 -80.86374999999998 Q54.66375 -85.86249999999998 46.7625 -85.86249999999998 Q36.120000000000005 -85.86249999999998 29.3475 -79.00937499999999 Q22.575 -72.15624999999999 22.575 -61.44457374999999 Q22.575 -52.16124999999998 28.84456125 -41.89704249999998 Q35.11428375 -31.632834999999986 43.840811249999994 -21.98266749999999 Q52.5675 -12.332499999999989 61.92 -4.028124999999989 Q71.27250000000001 4.276250000000012 77.4 9.920000000000016 Q77.4 9.920000000000016 77.4 9.920000000000016 Q77.4 9.920000000000016 77.4 9.920000000000016 Q83.5275 4.437500000000014 92.88 -3.947499999999984 Q102.2325 -12.332499999999989 110.94 -22.08812499999999 Q119.64750000000001 -31.843749999999986 125.93625 -42.11408499999999 Q132.225 -52.38458124999998 132.225 -61.51374999999999 Q132.225 -72.15624999999999 125.371875 -79.00937499999999 Q118.51875 -85.86249999999998 108.03750000000001 -85.86249999999998 Q99.97500000000001 -85.86249999999998 92.96062500000001 -80.944375 Q85.94625 -76.02624999999999 81.27 -67.96374999999999 Q80.46375 -66.67374999999998 79.49625 -66.10937499999999 Q78.52875 -65.54499999999999 77.23875 -65.54499999999999 Q75.94875 -65.54499999999999 74.900625 -66.10937499999999 Q73.8525 -66.67374999999998 73.2075 -67.96374999999999 Z"/></g><g id="Light-L" transform="matrix(1 0 0 1 1082.77 1556)"><path d="M77.33791875 15.315425000000015 Q75.6575325 15.315425000000015 73.97263125 14.705577500000015 Q72.28756875 14.095730000000014 71.00724375 12.803633750000017 L63.66907875 6.074510000000011 Q44.3563275 -11.662828749999981 30.240825 -27.831204999999983 Q16.12516125 -43.99958124999999 16.12516125 -61.14158499999999 Q16.12516125 -74.41149249999998 25.07453625 -83.36183499999999 Q34.023911250000005 -92.31233874999998 47.19674625 -92.31233874999998 Q54.73808625 -92.31233874999998 62.707545 -88.485715 Q70.67700375000001 -84.65909124999999 77.4 -74.57467749999999 Q84.6810825 -84.65909124999999 92.29079250000001 -88.485715 Q99.90066375 -92.31233874999998 107.60325375000001 -92.31233874999998 Q120.77608875000001 -92.31233874999998 129.72546375000002 -83.36183499999999 Q138.67483875000002 -74.41149249999998 138.67483875000002 -61.14158499999999 Q138.67483875000002 -43.81349874999998 124.24909125 -27.552081249999986 Q109.82350500000001 -11.290663749999986 91.13092125 6.012590000000017 L83.691975 12.841527500000016 Q82.4358375 14.113628750000014 80.75190375 14.714446250000016 Q79.06797 15.315425000000015 77.33791875 15.315425000000015 Z M74.1998325 -66.41317 Q69.16383375000001 -75.36883375 62.06883375 -80.18150124999998 Q54.973833750000004 -84.99416874999999 47.19674625 -84.99416874999999 Q36.80224875 -84.99416874999999 30.12279 -78.26504499999999 Q23.44333125 -71.53608249999999 23.44333125 -61.09014624999999 Q23.44333125 -52.65741624999998 28.65847875 -43.571623749999986 Q33.8737875 -34.48583124999999 41.763104999999996 -25.549033749999992 Q49.65242250000001 -16.61207499999999 58.88076 -8.18369874999999 Q68.10925875 0.24467750000001587 76.09742250000001 7.501088750000015 Q76.65567 8.059336250000015 77.4 8.059336250000015 Q78.14433 8.059336250000015 78.7025775 7.501088750000015 Q86.69074125 0.3440075000000107 95.91924 -8.134033749999986 Q105.1475775 -16.61207499999999 113.0178675 -25.623531249999985 Q120.88799625 -34.63482624999999 126.1223325 -43.72206999999999 Q131.35666875 -52.809152499999996 131.35666875 -61.12110625 Q131.35666875 -71.53608249999999 124.62286875000001 -78.26504499999999 Q117.88923 -84.99416874999999 107.58712875 -84.99416874999999 Q99.66491625 -84.99416874999999 92.65054125 -80.23116624999999 Q85.63616625 -75.46800249999998 80.40166875 -66.41317 Q79.78150125 -65.43325374999999 79.00008375 -64.96191999999999 Q78.21866625 -64.49058624999999 77.26971 -64.49058624999999 Q76.320915 -64.49058624999999 75.4898325 -64.96191999999999 Q74.65875 -65.43325374999999 74.1998325 -66.41317 Z"/></g><g id="Thin-L" transform="matrix(1 0 0 1 787.282 1556)"><path d="M77.27599875 11.036333750000015 Q75.64044000000001 11.036333750000015 74.0572875 10.440515000000016 Q72.474135 9.844696250000013 71.26879124999999 8.633225000000017 L65.095335 3.035915000000017 Q46.4648325 -13.895334999999989 32.90741625 -29.38162374999999 Q19.35 -44.86775124999998 19.35 -60.76958124999999 Q19.35 -72.77206374999999 27.493125 -80.92986249999998 Q35.636250000000004 -89.08749999999998 47.63083125 -89.08749999999998 Q54.490083750000004 -89.08749999999998 62.366501250000006 -85.38503874999999 Q70.24291875 -81.68241624999999 77.4 -70.54374999999999 Q84.867165 -81.68241624999999 92.507835 -85.38503874999999 Q100.14866625 -89.08749999999998 107.16916875000001 -89.08749999999998 Q119.16375000000001 -89.08749999999998 127.306875 -80.92986249999998 Q135.45000000000002 -72.77206374999999 135.45000000000002 -60.76958124999999 Q135.45000000000002 -44.49558624999999 121.27241625 -28.82337624999998 Q107.0948325 -13.151166249999989 89.704665 2.9119137500000107 L83.3727 8.668538750000018 Q82.19089875 9.861627500000019 80.576625 10.449061250000018 Q78.96235125000001 11.036333750000015 77.27599875 11.036333750000015 Z M75.192165 -64.86275124999999 Q69.4739175 -74.87266749999999 62.3789175 -79.49941374999999 Q55.2839175 -84.12599875 47.63083125 -84.12599875 Q37.484336250000005 -84.12599875 30.897918750000002 -77.52087624999999 Q24.311501250000003 -70.91591499999998 24.311501250000003 -60.735879999999995 Q24.311501250000003 -53.153582499999985 28.472557500000004 -45.246043749999984 Q32.6334525 -37.338504999999984 39.68556 -29.114754999999988 Q46.7376675 -20.891166249999984 55.842165 -12.338627499999987 Q64.94650125 -3.7862499999999883 74.7951675 5.082500000000017 Q75.91150125 6.198833750000013 77.4 6.198833750000013 Q78.88849875 6.198833750000013 80.0048325 5.082500000000017 Q89.85349875 -3.749001249999985 98.957835 -12.320083749999988 Q108.0623325 -20.891166249999984 115.09525125 -29.158292499999988 Q122.12833125 -37.42541874999999 126.308415 -45.32957124999999 Q130.48849875 -53.233885 130.48849875 -60.72830124999999 Q130.48849875 -70.91591499999998 123.874185 -77.52087624999999 Q117.25987125 -84.12599875 107.1367575 -84.12599875 Q99.3548325 -84.12599875 92.3404575 -79.51795749999998 Q85.3260825 -74.90991624999998 79.53349875 -64.86275124999999 Q79.09941375 -64.19291874999999 78.5039175 -63.81462624999999 Q77.90858250000001 -63.43633374999999 77.30083125 -63.43633374999999 Q76.69291875 -63.43633374999999 76.07904 -63.81462624999999 Q75.465 -64.19291874999999 75.192165 -64.86275124999999 Z"/></g><g id="Ultralight-L" transform="matrix(1 0 0 1 491.205 1556)"><path d="M77.23875 8.468750000000014 Q75.63012 8.468750000000014 74.10808125 7.881316250000012 Q72.5860425 7.2938825000000165 71.42584875 6.130625000000016 L65.95125 1.2125000000000128 Q47.730000000000004 -15.234999999999985 34.5075 -30.311874999999986 Q21.285 -45.38874999999999 21.285 -60.546249999999986 Q21.285 -71.78827749999998 28.944375 -79.47038875 Q36.60375 -87.15249999999997 47.89125 -87.15249999999997 Q54.34125 -87.15249999999997 62.161875 -83.52437499999999 Q69.9825 -79.89624999999998 77.4 -68.12499999999999 Q84.97875 -79.89624999999998 92.638125 -83.52437499999999 Q100.2975 -87.15249999999997 106.90875 -87.15249999999997 Q118.19625 -87.15249999999997 125.855625 -79.47038875 Q133.51500000000001 -71.78827749999998 133.51500000000001 -60.546249999999986 Q133.51500000000001 -44.90499999999999 119.48625 -29.586249999999993 Q105.4575 -14.267499999999984 88.84875 1.0512500000000173 L83.181135 6.164648750000019 Q82.04383874999999 7.310168750000017 80.47132875000001 7.88937875000002 Q78.89881875 8.468750000000014 77.23875 8.468750000000014 Z M75.78750000000001 -63.93249999999999 Q69.66 -74.57499999999999 62.565000000000005 -79.08999999999999 Q55.47 -83.60499999999999 47.89125 -83.60499999999999 Q37.893750000000004 -83.60499999999999 31.363125 -77.07437499999999 Q24.8325 -70.54374999999999 24.8325 -60.52319124999998 Q24.8325 -53.45124999999999 28.36081125 -46.25079249999999 Q31.88928375 -39.05033499999999 38.43893625 -31.254542499999985 Q44.98875 -23.45874999999998 54.018750000000004 -14.831874999999982 Q63.04875 -6.204999999999984 74.01375 3.6312500000000156 Q75.465 5.082500000000017 77.4 5.082500000000017 Q79.33500000000001 5.082500000000017 80.78625 3.6312500000000156 Q91.75125 -6.204999999999984 100.78125 -14.831874999999982 Q109.81125 -23.45874999999998 116.341875 -31.279374999999987 Q122.8725 -39.09999999999998 126.42 -46.29432999999999 Q129.9675 -53.48865999999998 129.9675 -60.49271499999999 Q129.9675 -70.54374999999999 123.42478125 -77.07437499999999 Q116.8820625 -83.60499999999999 106.86650250000001 -83.60499999999999 Q99.16875 -83.60499999999999 92.154375 -79.08999999999999 Q85.14 -74.57499999999999 79.0125 -63.93249999999999 Q78.69 -63.44874999999999 78.20625 -63.126249999999985 Q77.7225 -62.803749999999994 77.31937500000001 -62.803749999999994 Q76.91625 -62.803749999999994 76.4325 -63.126249999999985 Q75.94875 -63.44874999999999 75.78750000000001 -63.93249999999999 Z"/></g><g id="Bold-M" transform="matrix(1 0 0 1 2281.8 1126)"><path d="M59.875 10.14500000000001 Q57.0 10.14500000000001 54.25 9.08250000000001 Q51.5 8.02000000000001 49.25 5.89500000000001 L40.375 -2.2299999999999898 Q27.375 -13.97999999999999 16.5625 -26.35499999999999 Q5.75 -38.72999999999999 5.75 -54.47999999999999 Q5.75 -68.099375 14.75 -77.22712499999999 Q23.75 -86.35499999999999 37.375 -86.35499999999999 Q43.75 -86.35499999999999 49.5 -84.10499999999999 Q55.25 -81.85499999999999 59.875 -77.47999999999999 Q64.5 -81.85499999999999 70.25 -84.10499999999999 Q76.0 -86.35499999999999 82.375 -86.35499999999999 Q96.04775 -86.35499999999999 105.211375 -77.22712499999999 Q114.375 -68.099375 114.375 -54.47999999999999 Q114.375 -38.72999999999999 103.4375 -26.29249999999999 Q92.5 -13.85499999999999 79.25 -1.9799999999999898 L70.625 6.02000000000001 Q68.375 8.14500000000001 65.5625 9.14500000000001 Q62.75 10.14500000000001 59.875 10.14500000000001 Z M54.25 -60.85499999999999 Q51.375 -65.22999999999999 47.0625 -67.91749999999999 Q42.75 -70.60499999999999 37.409125 -70.60499999999999 Q30.590875 -70.60499999999999 26.0455 -66.04249999999999 Q21.5 -61.47999999999999 21.5 -54.47999999999999 Q21.5 -48.220124999999996 25.937125 -41.177874999999986 Q30.37425 -34.13549999999999 36.55025 -27.51449999999999 Q42.726125 -20.89349999999999 49.261875 -15.115124999999992 Q55.797625 -9.336874999999992 59.875 -5.60499999999999 Q59.875 -5.60499999999999 59.875 -5.60499999999999 Q59.875 -5.60499999999999 59.875 -5.60499999999999 Q64.0 -9.47999999999999 70.5875 -15.246999999999993 Q77.175125 -21.01399999999999 83.4 -27.621999999999993 Q89.625 -34.22999999999999 94.125 -41.16749999999999 Q98.625 -48.10499999999999 98.625 -54.47999999999999 Q98.625 -61.47999999999999 93.999375 -66.04249999999999 Q89.373625 -70.60499999999999 82.435125 -70.60499999999999 Q77.0 -70.60499999999999 72.75 -67.91749999999999 Q68.5 -65.22999999999999 65.625 -60.85499999999999 Q64.588 -59.22999999999999 63.1065 -58.41749999999999 Q61.625 -57.60499999999999 59.875 -57.60499999999999 Q58.125 -57.60499999999999 56.689875 -58.41749999999999 Q55.254625 -59.22999999999999 54.25 -60.85499999999999 Z"/></g><g id="Semibold-M" transform="matrix(1 0 0 1 1985.97 1126)"><path d="M59.929375 8.51462500000001 Q57.5435 8.51462500000001 55.201 7.642375000000012 Q52.858625 6.770125000000011 50.989 4.971125000000011 L42.22275 -3.045124999999988 Q29.114 -14.958249999999992 18.355875 -27.142999999999986 Q7.59775 -39.327749999999995 7.59775 -54.47999999999999 Q7.59775 -67.28662499999999 16.108625 -75.86975 Q24.6195 -84.45299999999999 37.429375 -84.45299999999999 Q43.913 -84.45299999999999 49.717375 -81.95837499999999 Q55.52175 -79.46387499999999 59.929375 -74.87149999999998 Q64.337 -79.46387499999999 70.14125 -81.95837499999999 Q75.945625 -84.45299999999999 82.429375 -84.45299999999999 Q95.266125 -84.45299999999999 103.8695 -75.86975 Q112.473 -67.28662499999999 112.473 -54.47999999999999 Q112.473 -39.327749999999995 101.67125 -27.080499999999986 Q90.869625 -14.833249999999992 77.511 -2.8494999999999884 L68.940375 5.041750000000011 Q67.07075 6.8407500000000105 64.693 7.67775000000001 Q62.31525 8.51462500000001 59.929375 8.51462500000001 Z M54.68475 -61.12674999999999 Q51.48375 -65.82775 47.25275 -68.51525 Q43.02175 -71.20275 37.448625 -71.20275 Q30.334 -71.20275 25.591 -66.45012499999999 Q20.847875 -61.697374999999994 20.847875 -54.47999999999999 Q20.847875 -48.11574999999999 25.366625 -40.95599999999999 Q29.8855 -33.79612499999999 36.175125 -27.06474999999999 Q42.46475 -20.33337499999999 49.120875 -14.45862499999999 Q55.777 -8.583874999999992 59.929375 -4.7898749999999914 Q59.929375 -4.7898749999999914 59.929375 -4.7898749999999914 Q59.929375 -4.7898749999999914 59.929375 -4.7898749999999914 Q64.10875 -8.664874999999988 70.794 -14.533124999999991 Q77.479375 -20.401374999999987 83.79675 -27.125499999999988 Q90.114125 -33.84962499999999 94.6685 -40.950124999999986 Q99.22275 -48.050625 99.22275 -54.47999999999999 Q99.22275 -61.697374999999994 94.434375 -66.45012499999999 Q89.646 -71.20275 82.463375 -71.20275 Q76.837 -71.20275 72.64125 -68.51525 Q68.445625 -65.82775 65.244625 -61.12674999999999 Q64.278 -59.664749999999984 62.897125 -58.93374999999999 Q61.51625 -58.202749999999995 59.929375 -58.202749999999995 Q58.342375 -58.202749999999995 56.98775 -58.93374999999999 Q55.633 -59.664749999999984 54.68475 -61.12674999999999 Z"/></g><g id="Medium-M" transform="matrix(1 0 0 1 1689.91 1126)"><path d="M59.970125 7.291750000000011 Q57.951125 7.291750000000011 55.914375 6.562125000000009 Q53.87775 5.83250000000001 52.2935 4.27812500000001 L43.608625 -3.656624999999991 Q30.4185 -15.691999999999993 19.701125 -27.73412499999999 Q8.983625 -39.77624999999999 8.983625 -54.47999999999999 Q8.983625 -66.67699999999999 17.12775 -74.85162499999998 Q25.27175 -83.02624999999999 37.470125 -83.02624999999999 Q44.035375 -83.02624999999999 49.880375 -80.34825 Q55.7255 -77.67025 59.970125 -72.914875 Q64.214625 -77.67025 70.05975 -80.34825 Q75.904875 -83.02624999999999 82.470125 -83.02624999999999 Q94.679875 -83.02624999999999 102.863 -74.85162499999998 Q111.04625 -66.67699999999999 111.04625 -54.47999999999999 Q111.04625 -39.77624999999999 100.3465 -27.67162499999999 Q89.64675 -15.566999999999993 76.2065 -3.5017499999999906 L67.676625 4.3080000000000105 Q66.092375 5.862375000000011 64.04075 6.577125000000009 Q61.989125 7.291750000000011 59.970125 7.291750000000011 Z M55.010875 -61.33049999999999 Q51.56525 -66.27624999999999 47.395375 -68.96374999999999 Q43.2255 -71.65124999999999 37.47825 -71.65124999999999 Q30.14125 -71.65124999999999 25.25 -66.75574999999999 Q20.35875 -61.86037499999999 20.35875 -54.47999999999999 Q20.35875 -48.03737499999998 24.93875 -40.78949999999999 Q29.518875 -33.54162499999999 35.89375 -26.727374999999988 Q42.26875 -19.913124999999987 49.015125 -13.966124999999991 Q55.761375 -8.019124999999988 59.970125 -4.178374999999988 Q59.970125 -4.178374999999988 59.970125 -4.178374999999988 Q59.970125 -4.178374999999988 59.970125 -4.178374999999988 Q64.19025 -8.053374999999988 70.948875 -13.997624999999992 Q77.707625 -19.94187499999999 84.09425 -26.75312499999999 Q90.481 -33.56424999999999 95.076125 -40.78712499999999 Q99.67125 -48.009874999999994 99.67125 -54.47999999999999 Q99.67125 -61.86037499999999 94.76075 -66.75574999999999 Q89.85025 -71.65124999999999 82.4845 -71.65124999999999 Q76.714625 -71.65124999999999 72.55975 -68.96374999999999 Q68.404875 -66.27624999999999 64.95925 -61.33049999999999 Q64.0455 -59.99087499999999 62.740125 -59.320999999999984 Q61.43475 -58.65124999999999 59.970125 -58.65124999999999 Q58.505375 -58.65124999999999 57.211125 -59.320999999999984 Q55.916875 -59.99087499999999 55.010875 -61.33049999999999 Z"/></g><g id="Regular-M" transform="matrix(1 0 0 1 1394.06 1126)"><path d="M60.0 6.39500000000001 Q58.25 6.39500000000001 56.4375 5.77000000000001 Q54.625 5.14500000000001 53.25 3.7700000000000102 L44.625 -4.10499999999999 Q31.375 -16.22999999999999 20.6875 -28.16749999999999 Q10.0 -40.10499999999999 10.0 -54.47999999999999 Q10.0 -66.22999999999999 17.875 -74.10499999999999 Q25.75 -81.97999999999999 37.5 -81.97999999999999 Q44.125 -81.97999999999999 50.0 -79.16749999999999 Q55.875 -76.35499999999999 60.0 -71.47999999999999 Q64.125 -76.35499999999999 70.0 -79.16749999999999 Q75.875 -81.97999999999999 82.5 -81.97999999999999 Q94.25 -81.97999999999999 102.125 -74.10499999999999 Q110.0 -66.22999999999999 110.0 -54.47999999999999 Q110.0 -40.10499999999999 99.375 -28.10499999999999 Q88.75 -16.10499999999999 75.25 -3.9799999999999898 L66.75 3.7700000000000102 Q65.375 5.14500000000001 63.5625 5.77000000000001 Q61.75 6.39500000000001 60.0 6.39500000000001 Z M55.25 -61.47999999999999 Q51.625 -66.60499999999999 47.5 -69.29249999999999 Q43.375 -71.97999999999999 37.5 -71.97999999999999 Q30.0 -71.97999999999999 25.0 -66.97999999999999 Q20.0 -61.97999999999999 20.0 -54.47999999999999 Q20.0 -47.97999999999999 24.625 -40.66749999999999 Q29.25 -33.35499999999999 35.6875 -26.47999999999999 Q42.125 -19.60499999999999 48.9375 -13.60499999999999 Q55.75 -7.60499999999999 60.0 -3.7299999999999898 Q60.0 -3.7299999999999898 60.0 -3.7299999999999898 Q60.0 -3.7299999999999898 60.0 -3.7299999999999898 Q64.25 -7.60499999999999 71.0625 -13.60499999999999 Q77.875 -19.60499999999999 84.3125 -26.47999999999999 Q90.75 -33.35499999999999 95.375 -40.66749999999999 Q100.0 -47.97999999999999 100.0 -54.47999999999999 Q100.0 -61.97999999999999 95.0 -66.97999999999999 Q90.0 -71.97999999999999 82.5 -71.97999999999999 Q76.625 -71.97999999999999 72.5 -69.29249999999999 Q68.375 -66.60499999999999 64.75 -61.47999999999999 Q63.875 -60.22999999999999 62.625 -59.60499999999999 Q61.375 -58.97999999999999 60.0 -58.97999999999999 Q58.625 -58.97999999999999 57.375 -59.60499999999999 Q56.125 -60.22999999999999 55.25 -61.47999999999999 Z"/></g><g id="Light-M" transform="matrix(1 0 0 1 1098.18 1126)"><path d="M59.951875 3.3178750000000115 Q58.346125 3.3178750000000115 56.726 2.7408750000000097 Q55.10575 2.1640000000000086 53.875 0.9332500000000117 L46.6925 -5.595499999999991 Q33.394375 -17.720499999999987 22.94725 -29.417624999999987 Q12.500125 -41.11474999999999 12.500125 -54.47999999999999 Q12.500125 -65.12412499999999 19.678 -72.30199999999999 Q26.855875 -79.47987499999999 37.5 -79.47987499999999 Q43.548 -79.47987499999999 49.447125 -76.691375 Q55.346125 -73.902875 60.0 -67.633625 Q64.653875 -73.902875 70.552875 -76.691375 Q76.452 -79.47987499999999 82.5 -79.47987499999999 Q93.144125 -79.47987499999999 100.322 -72.30199999999999 Q107.499875 -65.12412499999999 107.499875 -54.47999999999999 Q107.499875 -40.97049999999999 96.874875 -29.138749999999987 Q86.249875 -17.306999999999988 73.1825 -5.5186249999999895 L66.076875 0.9332500000000117 Q64.846125 2.1640000000000086 63.201875 2.7408750000000097 Q61.557625 3.3178750000000115 59.951875 3.3178750000000115 Z M56.403875 -60.03762499999999 Q52.34625 -66.22037499999999 47.860625 -69.10012499999999 Q43.375 -71.97999999999999 37.5 -71.97999999999999 Q30.0 -71.97999999999999 25.0 -66.97999999999999 Q20.0 -61.97999999999999 20.0 -54.47999999999999 Q20.0 -48.46074999999999 23.87975 -41.89349999999999 Q27.7595 -35.32624999999999 33.62 -28.83599999999999 Q39.480625 -22.34562499999999 46.317125 -16.153249999999993 Q53.153625 -9.960999999999991 58.99025 -4.643499999999989 Q59.423 -4.258874999999989 60.0 -4.258874999999989 Q60.577 -4.258874999999989 61.00975 -4.643499999999989 Q66.846375 -9.960999999999991 73.682875 -16.153249999999993 Q80.519375 -22.34562499999999 86.38 -28.83599999999999 Q92.2405 -35.32624999999999 96.12025 -41.89349999999999 Q100.0 -48.46074999999999 100.0 -54.47999999999999 Q100.0 -61.97999999999999 95.0 -66.97999999999999 Q90.0 -71.97999999999999 82.5 -71.97999999999999 Q76.625 -71.97999999999999 72.139375 -69.10012499999999 Q67.65375 -66.22037499999999 63.596125 -60.03762499999999 Q62.9615 -59.07612499999999 62.0 -58.59524999999999 Q61.038375 -58.11449999999999 60.0 -58.11449999999999 Q58.961625 -58.11449999999999 58.0 -58.59524999999999 Q57.0385 -59.07612499999999 56.403875 -60.03762499999999 Z"/></g><g id="Thin-M" transform="matrix(1 0 0 1 802.565 1126)"><path d="M59.903875 0.2412500000000115 Q58.44225 0.2412500000000115 57.014375 -0.28762499999999136 Q55.5865 -0.8164999999999907 54.5 -1.902999999999988 L48.759625 -7.08574999999999 Q35.413375 -19.21074999999999 25.20675 -30.66749999999999 Q15.0 -42.12424999999999 15.0 -54.47999999999999 Q15.0 -64.01849999999999 21.48075 -70.49924999999999 Q27.9615 -76.97999999999999 37.5 -76.97999999999999 Q42.971125 -76.97999999999999 48.89425 -74.21562499999999 Q54.817375 -71.45112499999999 60.0 -63.78774999999999 Q65.182625 -71.45112499999999 71.10575 -74.21562499999999 Q77.028875 -76.97999999999999 82.5 -76.97999999999999 Q92.0385 -76.97999999999999 98.51925 -70.49924999999999 Q105.0 -64.01849999999999 105.0 -54.47999999999999 Q105.0 -41.83574999999999 94.375 -30.17224999999999 Q83.75 -18.50887499999999 71.115375 -7.056874999999991 L65.403875 -1.902999999999988 Q64.317375 -0.8164999999999907 62.841375 -0.28762499999999136 Q61.365375 0.2412500000000115 59.903875 0.2412500000000115 Z M57.557625 -58.59537499999999 Q53.06725 -65.83574999999999 48.221125 -68.90787499999999 Q43.375 -71.97999999999999 37.5 -71.97999999999999 Q30.0 -71.97999999999999 25.0 -66.97999999999999 Q20.0 -61.97999999999999 20.0 -54.47999999999999 Q20.0 -48.94149999999999 23.134625 -43.11937499999999 Q26.26925 -37.29724999999999 31.552875 -31.19149999999999 Q36.836625 -25.08574999999999 43.697125 -18.70112499999999 Q50.55775 -12.31649999999999 57.98075 -5.556874999999991 Q58.846125 -4.787624999999991 60.0 -4.787624999999991 Q61.153875 -4.787624999999991 62.01925 -5.556874999999991 Q69.44225 -12.31649999999999 76.302875 -18.70112499999999 Q83.163375 -25.08574999999999 88.447125 -31.19149999999999 Q93.73075 -37.29724999999999 96.865375 -43.11937499999999 Q100.0 -48.94149999999999 100.0 -54.47999999999999 Q100.0 -61.97999999999999 95.0 -66.97999999999999 Q90.0 -71.97999999999999 82.5 -71.97999999999999 Q76.625 -71.97999999999999 71.778875 -68.90787499999999 Q66.93275 -65.83574999999999 62.442375 -58.59537499999999 Q62.048125 -57.92237499999999 61.375 -57.58574999999999 Q60.701875 -57.24924999999999 60.0 -57.24924999999999 Q59.298125 -57.24924999999999 58.625 -57.58574999999999 Q57.951875 -57.92237499999999 57.557625 -58.59537499999999 Z"/></g><g id="Ultralight-M" transform="matrix(1 0 0 1 506.415 1126)"><path d="M59.875 -1.6049999999999898 Q58.5 -1.6049999999999898 57.1875 -2.1049999999999898 Q55.875 -2.6049999999999898 54.875 -3.6049999999999898 L50.0 -7.97999999999999 Q36.625 -20.10499999999999 26.5625 -31.41749999999999 Q16.5 -42.72999999999999 16.5 -54.47999999999999 Q16.5 -63.35499999999999 22.5625 -69.41749999999999 Q28.625 -75.47999999999999 37.5 -75.47999999999999 Q42.625 -75.47999999999999 48.5625 -72.72999999999999 Q54.5 -69.97999999999999 60.0 -61.47999999999999 Q65.5 -69.97999999999999 71.4375 -72.72999999999999 Q77.375 -75.47999999999999 82.5 -75.47999999999999 Q91.375 -75.47999999999999 97.4375 -69.41749999999999 Q103.5 -63.35499999999999 103.5 -54.47999999999999 Q103.5 -42.35499999999999 92.875 -30.79249999999999 Q82.25 -19.22999999999999 69.875 -7.97999999999999 L65.0 -3.6049999999999898 Q64.0 -2.6049999999999898 62.625 -2.1049999999999898 Q61.25 -1.6049999999999898 59.875 -1.6049999999999898 Z M58.25 -57.72999999999999 Q53.5 -65.60499999999999 48.4375 -68.79249999999999 Q43.375 -71.97999999999999 37.5 -71.97999999999999 Q30.0 -71.97999999999999 25.0 -66.97999999999999 Q20.0 -61.97999999999999 20.0 -54.47999999999999 Q20.0 -49.22999999999999 22.6875 -43.85499999999999 Q25.375 -38.47999999999999 30.3125 -32.60499999999999 Q35.25 -26.72999999999999 42.125 -20.22999999999999 Q49.0 -13.72999999999999 57.375 -6.10499999999999 Q58.5 -5.10499999999999 60.0 -5.10499999999999 Q61.5 -5.10499999999999 62.625 -6.10499999999999 Q71.0 -13.72999999999999 77.875 -20.22999999999999 Q84.75 -26.72999999999999 89.6875 -32.60499999999999 Q94.625 -38.47999999999999 97.3125 -43.85499999999999 Q100.0 -49.22999999999999 100.0 -54.47999999999999 Q100.0 -61.97999999999999 95.0 -66.97999999999999 Q90.0 -71.97999999999999 82.5 -71.97999999999999 Q76.625 -71.97999999999999 71.5625 -68.79249999999999 Q66.5 -65.60499999999999 61.75 -57.72999999999999 Q61.5 -57.22999999999999 61.0 -56.97999999999999 Q60.5 -56.72999999999999 60.0 -56.72999999999999 Q59.5 -56.72999999999999 59.0 -56.97999999999999 Q58.5 -57.22999999999999 58.25 -57.72999999999999 Z"/></g><g id="Bold-S" transform="matrix(1 0 0 1 2294.23 696)"><path d="M47.241375000000005 -1.6974999999999874 Q45.071625000000004 -1.6974999999999874 43.099125 -2.486499999999987 Q41.126625000000004 -3.2754999999999868 39.351375000000004 -4.853499999999986 L33.33525 -10.376499999999986 Q22.782375000000002 -19.64724999999999 14.448562500000001 -29.11524999999999 Q6.11475 -38.583249999999985 6.11475 -50.418249999999986 Q6.11475 -60.57396212499998 12.90508125 -67.38036924999999 Q19.6954125 -74.18687499999999 29.982000000000003 -74.18687499999999 Q34.834054125 -74.18687499999999 39.213201375000004 -72.51024999999998 Q43.59225 -70.83362499999998 47.241375000000005 -67.28312499999998 Q51.08775 -70.83362499999998 55.3937175 -72.51024999999998 Q59.69968500000001 -74.18687499999999 64.46919 -74.18687499999999 Q74.79542475 -74.18687499999999 81.729649875 -67.38036924999999 Q88.663875 -60.57396212499998 88.663875 -50.418249999999986 Q88.663875 -38.583249999999985 80.182125 -29.11524999999999 Q71.70037500000001 -19.64724999999999 61.1475 -10.277874999999987 L55.230000000000004 -4.754874999999988 Q53.454750000000004 -3.1768749999999866 51.4329375 -2.437187499999988 Q49.411125000000006 -1.6974999999999874 47.241375000000005 -1.6974999999999874 Z M43.19775 -54.65912499999999 Q41.4225 -58.11099999999999 37.7240625 -60.33006249999998 Q34.025625 -62.54912499999999 30.008924625000002 -62.54912499999999 Q24.756157125 -62.54912499999999 21.254377875000003 -59.14656249999999 Q17.7525 -55.743999999999986 17.7525 -50.37949037499999 Q17.7525 -45.577833625 21.154766625 -40.26806087499999 Q24.55703325 -34.95818949999999 29.28195975 -29.88215799999999 Q34.006787625 -24.80612649999999 39.015556875 -20.44423862499999 Q44.024326125 -16.08244937499999 47.241375000000005 -13.236624999999986 Q47.241375000000005 -13.236624999999986 47.241375000000005 -13.236624999999986 Q47.241375000000005 -13.236624999999986 47.241375000000005 -13.236624999999986 Q50.496 -16.195374999999988 55.54560000000001 -20.548287999999992 Q60.595298625 -24.901200999999986 65.3587875 -29.96697549999999 Q70.122375 -35.032749999999986 73.57425 -40.25987499999999 Q77.02612500000001 -45.48699999999999 77.02612500000001 -50.37949037499999 Q77.02612500000001 -55.743999999999986 73.4610285 -59.14656249999999 Q69.895932 -62.54912499999999 64.54818862500001 -62.54912499999999 Q60.457125000000005 -62.54912499999999 56.7586875 -60.33006249999998 Q53.06025 -58.11099999999999 51.285000000000004 -54.65912499999999 Q50.664057 -53.376999999999995 49.5890445 -52.78524999999999 Q48.514130625 -52.193499999999986 47.236641 -52.193499999999986 Q45.959250000000004 -52.193499999999986 44.876248875 -52.78524999999999 Q43.793149125 -53.376999999999995 43.19775 -54.65912499999999 Z"/></g><g id="Semibold-S" transform="matrix(1 0 0 1 1998.1 696)"><path d="M47.284276875 -2.983865874999987 Q45.5004465 -2.983865874999987 43.849464000000005 -3.6227586249999852 Q42.19858012500001 -4.261651374999985 40.723446 -5.582437374999987 L34.79312475 -11.019633624999987 Q24.154446 -20.419089249999992 15.863535375000001 -29.736981999999983 Q7.57262475 -39.05487474999999 7.57262475 -50.418249999999986 Q7.57262475 -59.93270237499999 13.977036375 -66.30940037499998 Q20.381448000000002 -72.68619699999999 30.024901875 -72.68619699999999 Q34.962759750000004 -72.68619699999999 39.384710250000005 -70.81656287499999 Q43.80666075 -68.94702737499999 47.284276875 -65.22501849999999 Q50.959143000000005 -68.94702737499999 55.30791375 -70.81656287499999 Q59.656783125000004 -72.68619699999999 64.51209187500001 -72.68619699999999 Q74.178722625 -72.68619699999999 80.6709105 -66.30940037499998 Q87.163197 -59.93270237499999 87.163197 -50.418249999999986 Q87.163197 -39.05487474999999 78.78855375 -29.736981999999983 Q70.414009125 -20.419089249999992 59.775429 -10.963910499999987 L53.900830875000004 -5.526714249999987 Q52.42569675000001 -4.205928249999985 50.746902 -3.594847749999987 Q49.068107250000004 -2.983865874999987 47.284276875 -2.983865874999987 Z M43.54076775 -54.87353574999999 Q41.50830375 -58.582624749999994 37.87416975 -60.80168725 Q34.24003575 -63.02074974999999 30.040090125000003 -63.02074974999999 Q24.55348275 -63.02074974999999 20.895678750000002 -59.46817862499999 Q17.237973375 -55.915508874999986 17.237973375 -50.37949037499999 Q17.237973375 -45.49548174999999 20.704642125 -40.093001499999986 Q24.171409500000003 -34.69042262499999 28.985986125000004 -29.52730524999999 Q33.800562750000005 -24.364187874999985 38.904307875 -19.92626012499999 Q44.008053000000004 -15.488332374999988 47.284276875 -12.593491374999989 Q47.284276875 -12.593491374999989 47.284276875 -12.593491374999989 Q47.284276875 -12.593491374999989 47.284276875 -12.593491374999989 Q50.581803750000006 -15.552241374999987 55.7085285 -19.98504062499999 Q60.83535187500001 -24.417839874999984 65.67182325 -29.575236999999987 Q70.508294625 -34.73263412499999 74.0030715 -40.088366124999986 Q77.49774975000001 -45.444098125 77.49774975000001 -50.37949037499999 Q77.49774975000001 -55.915508874999986 73.8042435 -59.46817862499999 Q70.11073725 -63.02074974999999 64.57047787500001 -63.02074974999999 Q60.328518 -63.02074974999999 56.672883750000004 -60.80168725 Q53.017348125000005 -58.582624749999994 50.984884125 -54.87353574999999 Q50.419467000000004 -53.72001774999998 49.42394625 -53.192571249999986 Q48.428326875 -52.66512474999999 47.279542875000004 -52.66512474999999 Q46.130758875 -52.66512474999999 45.11127225 -53.192571249999986 Q44.09168700000001 -53.72001774999998 43.54076775 -54.87353574999999 Z"/></g><g id="Medium-S" transform="matrix(1 0 0 1 1701.85 696)"><path d="M47.31642862500001 -3.9487142499999877 Q45.822062625 -3.9487142499999877 44.412316875 -4.4750758749999875 Q43.00266975 -5.001437499999987 41.752696500000006 -6.129214374999986 L35.886580125 -11.502107124999988 Q25.183696500000003 -20.998017999999988 16.924937625000002 -30.20337962499999 Q8.666080125 -39.40874124999999 8.666080125 -50.418249999999986 Q8.666080125 -59.451708249999996 14.781126000000002 -65.50609974999999 Q20.89607325 -71.56049124999998 30.057053625000005 -71.56049124999998 Q35.059215 -71.56049124999998 39.51331725 -69.54617424999999 Q43.9674195 -67.53185725 47.31642862500001 -63.681241375 Q50.862589125 -67.53185725 55.24361025 -69.54617424999999 Q59.624631375 -71.56049124999998 64.54424362500001 -71.56049124999998 Q73.716171375 -71.56049124999998 79.876782 -65.50609974999999 Q86.03749125 -59.451708249999996 86.03749125 -50.418249999999986 Q86.03749125 -39.40874124999999 77.74332600000001 -30.20337962499999 Q69.44916075 -20.998017999999988 58.746178500000006 -11.478535749999988 L52.903732125000005 -6.105642999999986 Q51.65375887500001 -4.977866124999988 50.232276750000004 -4.463240874999986 Q48.810794625 -3.9487142499999877 47.31642862500001 -3.9487142499999877 Z M43.798080375 -55.03429449999999 Q41.572607250000004 -58.93649124999999 37.986700875000004 -61.155553749999996 Q34.400794499999996 -63.37461624999999 30.063464250000003 -63.37461624999999 Q24.401403000000002 -63.37461624999999 20.626728375000003 -59.709316749999985 Q16.85205375 -56.04411587499999 16.85205375 -50.37949037499999 Q16.85205375 -45.43364387499999 20.36704875 -39.96163299999999 Q23.882142375 -34.48962212499999 28.76398125 -29.261116374999986 Q33.64591875 -24.032610624999982 38.820871125 -19.53767762499999 Q43.995724875 -15.042744624999987 47.31642862500001 -12.111017874999987 Q47.31642862500001 -12.111017874999987 47.31642862500001 -12.111017874999987 Q47.31642862500001 -12.111017874999987 47.31642862500001 -12.111017874999987 Q50.64610725000001 -15.069767874999986 55.830724875 -19.56253112499999 Q61.015441124999995 -24.05529437499999 65.90655075000001 -29.281433124999985 Q70.797759 -34.50747324999999 74.32468762500001 -39.95975912499999 Q77.85161625 -45.41194637499999 77.85161625 -50.37949037499999 Q77.85161625 -56.04411587499999 74.061753375 -59.709316749999985 Q70.2718905 -63.37461624999999 64.5871455 -63.37461624999999 Q60.231964125000005 -63.37461624999999 56.608580249999996 -61.155553749999996 Q52.98519637500001 -58.93649124999999 50.75972325 -55.03429449999999 Q50.2360245 -53.977330374999994 49.299974625000004 -53.49811149999998 Q48.364023375 -53.018991249999985 47.311694625 -53.018991249999985 Q46.259365875 -53.018991249999985 45.287515125000006 -53.49811149999998 Q44.315664375 -53.977330374999994 43.798080375 -55.03429449999999 Z"/></g><g id="Regular-S" transform="matrix(1 0 0 1 1405.73 696)"><path d="M47.34 -4.656249999999986 Q46.057875 -4.656249999999986 44.8250625 -5.100062499999986 Q43.59225 -5.543874999999986 42.507375 -6.5301249999999875 L36.688500000000005 -11.855874999999987 Q25.938375 -21.422499999999985 17.703187500000002 -30.545312499999987 Q9.468 -39.66812499999999 9.468 -50.418249999999986 Q9.468 -59.09902525 15.37070625 -64.917012625 Q21.2734125 -70.73499999999999 30.080625 -70.73499999999999 Q35.129929125000004 -70.73499999999999 39.607701375 -68.61456249999999 Q44.085375 -66.494125 47.34 -62.54912499999999 Q50.791875000000005 -66.494125 55.1964675 -68.61456249999999 Q59.60106000000001 -70.73499999999999 64.567815 -70.73499999999999 Q73.37700000000001 -70.73499999999999 79.2945 -64.917012625 Q85.212 -59.09902525 85.212 -50.418249999999986 Q85.212 -39.66812499999999 76.97681250000001 -30.545312499999987 Q68.741625 -21.422499999999985 57.9915 -11.855874999999987 L52.172625000000004 -6.5301249999999875 Q51.08775 -5.543874999999986 49.854937500000005 -5.100062499999986 Q48.622125000000004 -4.656249999999986 47.34 -4.656249999999986 Z M43.98675 -55.152249999999995 Q41.61975 -59.19587499999999 38.069250000000004 -61.41493749999999 Q34.518750000000004 -63.633999999999986 30.080625 -63.633999999999986 Q24.28995675 -63.633999999999986 20.429478375000002 -59.88624999999999 Q16.569 -56.13849999999999 16.569 -50.37949037499999 Q16.569 -45.38837499999999 20.119500000000002 -39.865374999999986 Q23.67 -34.34237499999999 28.60125 -29.06593749999999 Q33.5325 -23.78949999999999 38.759625 -19.25274999999999 Q43.98675 -14.715999999999987 47.34 -11.757249999999988 Q47.34 -11.757249999999988 47.34 -11.757249999999988 Q47.34 -11.757249999999988 47.34 -11.757249999999988 Q50.69325 -14.715999999999987 55.920375 -19.25274999999999 Q61.1475 -23.78949999999999 66.07875 -29.06593749999999 Q71.01 -34.34237499999999 74.5605 -39.865374999999986 Q78.111 -45.38837499999999 78.111 -50.37949037499999 Q78.111 -56.13849999999999 74.250521625 -59.88624999999999 Q70.39004325 -63.633999999999986 64.59937500000001 -63.633999999999986 Q60.16125 -63.633999999999986 56.561437500000004 -61.41493749999999 Q52.961625000000005 -59.19587499999999 50.594625 -55.152249999999995 Q50.1015 -54.16599999999998 49.209141 -53.72218749999999 Q48.316880624999996 -53.27837499999998 47.335266000000004 -53.27837499999998 Q46.353750000000005 -53.27837499999998 45.4168125 -53.72218749999999 Q44.479875 -54.16599999999998 43.98675 -55.152249999999995 Z"/></g><g id="Light-S" transform="matrix(1 0 0 1 1109.75 696)"><path d="M47.302029375000004 -7.084101624999985 Q46.133717625 -7.084101624999985 45.052689 -7.490042124999988 Q43.97156175 -7.895883999999988 43.0005 -8.768320749999987 L38.3197575 -13.031879499999988 Q27.531661874999998 -22.598504499999983 19.486130250000002 -31.531661124999985 Q11.440598625000002 -40.46481774999999 11.440598625000002 -50.418249999999986 Q11.440598625000002 -58.226489875 16.793273250000002 -63.494445625 Q22.145947875 -68.762401375 30.080625 -68.762401375 Q34.67477475 -68.762401375 39.171384375 -66.660899875 Q43.668092625 -64.55939837499999 47.34 -59.51433512499999 Q51.209157375000004 -64.55939837499999 55.632685875 -66.660899875 Q60.056214374999996 -68.762401375 64.567815 -68.762401375 Q72.50446462500001 -68.762401375 77.871933 -63.494445625 Q83.239401375 -58.226489875 83.239401375 -50.418249999999986 Q83.239401375 -40.35100449999999 75.004213875 -31.36094124999999 Q66.76902637500001 -22.370877999999983 56.360242500000005 -13.069850124999988 L51.641529375000005 -8.768320749999987 Q50.670467625 -7.895883999999988 49.570404375 -7.490042124999988 Q48.470341125000004 -7.084101624999985 47.302029375000004 -7.084101624999985 Z M44.897157375 -54.01421612499999 Q42.18881625 -58.892405874999994 38.353783125 -61.26315362499999 Q34.518750000000004 -63.633999999999986 30.080625 -63.633999999999986 Q24.28995675 -63.633999999999986 20.429478375000002 -59.88624999999999 Q16.569 -56.13849999999999 16.569 -50.37949037499999 Q16.569 -45.76768674999999 19.531497750000003 -40.83268899999999 Q22.4939955 -35.89769124999999 26.9699925 -30.924821499999993 Q31.446088125000003 -25.951853124999992 36.692149125 -21.263319249999988 Q41.938210125 -16.57488399999999 46.543307250000005 -12.478001499999987 Q46.884747000000004 -12.174532374999988 47.34 -12.174532374999988 Q47.795253 -12.174532374999988 48.13669275 -12.478001499999987 Q52.741789874999995 -16.57488399999999 57.987850875 -21.263319249999988 Q63.233911875 -25.951853124999992 67.7100075 -30.924821499999993 Q72.1860045 -35.89769124999999 75.14850225 -40.83268899999999 Q78.111 -45.76768674999999 78.111 -50.37949037499999 Q78.111 -56.13849999999999 74.250521625 -59.88624999999999 Q70.39004325 -63.633999999999986 64.59937500000001 -63.633999999999986 Q60.16125 -63.633999999999986 56.276904375 -61.26315362499999 Q52.392558750000006 -58.892405874999994 49.684217625 -54.01421612499999 Q49.3807485 -53.25559262499999 48.716016 -52.92549475 Q48.051283500000004 -52.5954955 47.335266000000004 -52.5954955 Q46.619347125 -52.5954955 45.909937500000005 -52.92549475 Q45.2006265 -53.25559262499999 44.897157375 -54.01421612499999 Z"/></g><g id="Thin-S" transform="matrix(1 0 0 1 814.015 696)"><path d="M47.264157375 -9.511558749999985 Q46.20956025 -9.511558749999985 45.280216875 -9.879528624999988 Q44.350873500000006 -10.247498499999988 43.493625 -11.006121999999987 L39.950719125 -14.207686749999986 Q29.124652875000002 -23.77431174999999 21.26887575 -32.51781249999999 Q13.413 -41.261313249999986 13.413 -50.418249999999986 Q13.413 -57.354151749999986 18.215643 -62.072075874999996 Q23.018286 -66.78999999999999 30.080625 -66.78999999999999 Q34.219620375 -66.78999999999999 38.735264625 -64.70753312499998 Q43.250908875 -62.624967625 47.34 -56.479939749999986 Q51.626341125 -62.624967625 56.06890425 -64.70753312499998 Q60.511368749999995 -66.78999999999999 64.567815 -66.78999999999999 Q71.6321265 -66.78999999999999 76.44956325 -62.072075874999996 Q81.26700000000001 -57.354151749999986 81.26700000000001 -50.418249999999986 Q81.26700000000001 -41.03368674999999 73.0318125 -32.17637274999999 Q64.796625 -23.31915737499999 54.729280875 -14.28352937499999 L51.110532375 -11.006121999999987 Q50.253283875 -10.247498499999988 49.285969875 -9.879528624999988 Q48.318655875000005 -9.511558749999985 47.264157375 -9.511558749999985 Z M45.807466125000005 -52.87628087499999 Q42.75768525 -58.58893674999999 38.638217625 -61.11146837499999 Q34.518750000000004 -63.633999999999986 30.080625 -63.633999999999986 Q24.28995675 -63.633999999999986 20.429478375000002 -59.88624999999999 Q16.569 -56.13849999999999 16.569 -50.37949037499999 Q16.569 -46.14699849999999 18.943594125 -41.79990437499999 Q21.318188250000002 -37.45281024999999 25.339030875000002 -32.78331099999999 Q29.359972125 -28.11381174999999 34.624969125 -23.273592624999985 Q39.89006475 -18.433373499999988 45.74681175 -13.19865437499999 Q46.429592625000005 -12.591716124999987 47.34 -12.591716124999987 Q48.250407375 -12.591716124999987 48.93318825 -13.19865437499999 Q54.789935250000006 -18.433373499999988 60.055030875 -23.273592624999985 Q65.32002787500001 -28.11381174999999 69.340969125 -32.78331099999999 Q73.36181175 -37.45281024999999 75.736405875 -41.79990437499999 Q78.111 -46.14699849999999 78.111 -50.37949037499999 Q78.111 -56.13849999999999 74.250521625 -59.88624999999999 Q70.39004325 -63.633999999999986 64.59937500000001 -63.633999999999986 Q60.16125 -63.633999999999986 55.992469875000005 -61.11146837499999 Q51.82368975 -58.58893674999999 48.773908875000004 -52.87628087499999 Q48.660095625000004 -52.34528387499999 48.222891000000004 -52.12899924999999 Q47.785785 -51.912813249999985 47.335266000000004 -51.912813249999985 Q46.884845625000004 -51.912813249999985 46.403062500000004 -52.12899924999999 Q45.921279375000005 -52.34528387499999 45.807466125000005 -52.87628087499999 Z"/></g><g id="Ultralight-S" transform="matrix(1 0 0 1 517.792 696)"><path d="M47.241375000000005 -10.968249999999987 Q46.255125 -10.968249999999987 45.4168125 -11.313437499999988 Q44.578500000000005 -11.658624999999986 43.789500000000004 -12.348999999999986 L40.929375 -14.913249999999987 Q30.080625 -24.479874999999986 22.338562500000002 -33.10956249999999 Q14.5965 -41.73924999999999 14.5965 -50.418249999999986 Q14.5965 -56.83065024999999 19.06914375 -61.21857512499999 Q23.5417875 -65.60649999999998 30.080625 -65.60649999999998 Q33.946429125 -65.60649999999998 38.473513875 -63.53537499999999 Q43.0005 -61.46424999999999 47.34 -54.65912499999999 Q51.87675 -61.46424999999999 56.330655 -63.53537499999999 Q60.784560000000006 -65.60649999999998 64.567815 -65.60649999999998 Q71.108625 -65.60649999999998 75.5960625 -61.21857512499999 Q80.0835 -56.83065024999999 80.0835 -50.418249999999986 Q80.0835 -41.44337499999999 71.8483125 -32.66574999999999 Q63.613125000000004 -23.888124999999988 53.750625 -15.01187499999999 L50.791875000000005 -12.348999999999986 Q50.002875 -11.658624999999986 49.11525 -11.313437499999988 Q48.227625 -10.968249999999987 47.241375000000005 -10.968249999999987 Z M46.353750000000005 -52.193499999999986 Q43.099125 -58.406874999999985 38.8089375 -61.020437499999986 Q34.518750000000004 -63.633999999999986 30.080625 -63.633999999999986 Q24.28995675 -63.633999999999986 20.429478375000002 -59.88624999999999 Q16.569 -56.13849999999999 16.569 -50.37949037499999 Q16.569 -46.37462499999999 18.590812500000002 -42.38031249999999 Q20.612625 -38.38599999999999 24.360375 -33.89856249999999 Q28.108125 -29.41112499999999 33.3845625 -24.479874999999986 Q38.661 -19.548624999999987 45.268875 -13.631124999999987 Q46.1565 -12.842124999999989 47.34 -12.842124999999989 Q48.523500000000006 -12.842124999999989 49.411125000000006 -13.631124999999987 Q56.019000000000005 -19.548624999999987 61.295437500000006 -24.479874999999986 Q66.571875 -29.41112499999999 70.319625 -33.89856249999999 Q74.067375 -38.38599999999999 76.08918750000001 -42.38031249999999 Q78.111 -46.37462499999999 78.111 -50.37949037499999 Q78.111 -56.13849999999999 74.250521625 -59.88624999999999 Q70.39004325 -63.633999999999986 64.59937500000001 -63.633999999999986 Q60.16125 -63.633999999999986 55.82175 -61.020437499999986 Q51.48225 -58.406874999999985 48.227625 -52.193499999999986 Q48.227625 -51.79899999999999 47.927016 -51.65106249999999 Q47.626505625 -51.50312499999999 47.335266000000004 -51.50312499999999 Q47.044125 -51.50312499999999 46.6989375 -51.65106249999999 Q46.353750000000005 -51.79899999999999 46.353750000000005 -52.193499999999986 Z"/></g></g></svg>