<svg xmlns="http://www.w3.org/2000/svg" version="1.1" width="3300" height="2000"><g id="Notes"><style>
    text {
      font-family: monospace;
      text-anchor: middle;
    }
    text.emphasis {
      font-weight:bold;
    }
    text.lanchor {
      text-anchor: start;
    }
  </style><rect height="2200" id="artboard" fill="white" width="3300" x="0" y="0"/><line id="" style="fill:none;stroke:black;stroke-width:0.5;" x1="263" x2="3036" y1="292" y2="292"/><text class="lanchor emphasis" transform="matrix(1 0 0 1 263 322)">Weight/Scale Variations</text><text transform="matrix(1 0 0 1 559.711 322)">Ultralight</text><text transform="matrix(1 0 0 1 856.422 322)">Thin</text><text transform="matrix(1 0 0 1 1153.13 322)">Light</text><text transform="matrix(1 0 0 1 1449.84 322)">Regular</text><text transform="matrix(1 0 0 1 1746.56 322)">Medium</text><text transform="matrix(1 0 0 1 2043.27 322)">Semibold</text><text transform="matrix(1 0 0 1 2339.98 322)">Bold</text><text transform="matrix(1 0 0 1 2636.69 322)">Heavy</text><text transform="matrix(1 0 0 1 2933.4 322)">Black</text><text id="template-version" style="text-anchor: end;" transform="matrix(1 0 0 1 3036 1933)">Template v.1.0</text><text class="lanchor" transform="matrix(1 0 0 1 263 726)">Small</text><text class="lanchor" transform="matrix(1 0 0 1 263 1156)">Medium</text><text class="lanchor" transform="matrix(1 0 0 1 263 1586)">Large</text></g><g id="Guides"><g id="H-reference" style="fill:#27AAE1;stroke:none;" transform="matrix(1 0 0 1 339 696)"><path d="M 54.9316 0 L 57.666 0 L 30.5664 -70.459 L 28.0762 -70.459 L 0.976562 0 L 3.66211 0 L 12.9395 -24.4629 L 45.7031 -24.4629 Z M 29.1992 -67.0898 L 29.4434 -67.0898 L 44.8242 -26.709 L 13.8184 -26.709 Z"/></g><line id="Baseline-S" style="fill:none;stroke:#27AAE1;opacity:1;stroke-width:0.577;" x1="263" x2="3036" y1="696" y2="696"/><line id="Capline-S" style="fill:none;stroke:#27AAE1;opacity:1;stroke-width:0.577;" x1="263" x2="3036" y1="625.541" y2="625.541"/><g id="H-reference" style="fill:#27AAE1;stroke:none;" transform="matrix(1 0 0 1 339 1126)"><path d="M 54.9316 0 L 57.666 0 L 30.5664 -70.459 L 28.0762 -70.459 L 0.976562 0 L 3.66211 0 L 12.9395 -24.4629 L 45.7031 -24.4629 Z M 29.1992 -67.0898 L 29.4434 -67.0898 L 44.8242 -26.709 L 13.8184 -26.709 Z"/></g><line id="Baseline-M" style="fill:none;stroke:#27AAE1;opacity:1;stroke-width:0.577;" x1="263" x2="3036" y1="1126" y2="1126"/><line id="Capline-M" style="fill:none;stroke:#27AAE1;opacity:1;stroke-width:0.577;" x1="263" x2="3036" y1="1055.54" y2="1055.54"/><g id="H-reference" style="fill:#27AAE1;stroke:none;" transform="matrix(1 0 0 1 339 1556)"><path d="M 54.9316 0 L 57.666 0 L 30.5664 -70.459 L 28.0762 -70.459 L 0.976562 0 L 3.66211 0 L 12.9395 -24.4629 L 45.7031 -24.4629 Z M 29.1992 -67.0898 L 29.4434 -67.0898 L 44.8242 -26.709 L 13.8184 -26.709 Z"/></g><line id="Baseline-L" style="fill:none;stroke:#27AAE1;opacity:1;stroke-width:0.577;" x1="263" x2="3036" y1="1556" y2="1556"/><line id="Capline-L" style="fill:none;stroke:#27AAE1;opacity:1;stroke-width:0.577;" x1="263" x2="3036" y1="1485.54" y2="1485.54"/><rect height="119.336" id="left-margin" style="fill:darkred;stroke:none;opacity:0.4;" width="12.4512" x="1394.06" y="1030.79"/><rect height="119.336" id="right-margin" style="fill:darkgreen;stroke:none;opacity:0.4;" width="12.4512" x="1502.5112" y="1030.79"/><rect x="1406.5112" y="1045" width="96" height="96" fill="none" stroke="blue" stroke-dasharray="5"/><rect x="1394.06" y="1030.79" width="120.9024" height="119.336" fill="none" stroke="blue"/></g><g id="Symbols"><g id="Bold-L" transform="matrix(1 0 0 1 2266 1556)"><path d="M102.07125 -6.688749999999985 Q99.81375 -8.946249999999985 99.81375 -12.030156249999983 Q99.81375 -15.114062499999989 102.07125 -17.331249999999983 L112.39125 -27.65124999999999 H65.95125 Q62.7665625 -27.65124999999999 60.569531250000004 -29.856343749999994 Q58.3725 -32.06159874999999 58.3725 -35.25821874999998 Q58.3725 -38.454999999999984 60.569531250000004 -40.63187499999998 Q62.7665625 -42.80874999999999 65.95125 -42.80874999999999 H112.06875000000001 L101.42625 -53.45124999999999 Q99.33 -55.40769624999999 99.410625 -58.45225749999999 Q99.49125000000001 -61.49681874999999 101.7832575 -63.762703749999986 Q103.95158624999999 -66.02874999999999 107.2038375 -65.94812499999999 Q110.45625 -65.86749999999999 112.71375 -63.609999999999985 L135.93375 -40.389999999999986 Q137.04782625 -39.234321249999994 137.61961875 -37.837734999999995 Q138.19125 -36.441148749999996 138.19125 -35.02940499999998 Q138.19125 -33.61749999999999 137.61961875 -32.25493749999998 Q137.04782625 -30.892374999999987 135.93375 -29.747499999999988 L112.71375 -6.527499999999982 Q110.6175 -4.431249999999984 107.55375000000001 -4.431249999999984 Q104.49000000000001 -4.431249999999984 102.07125 -6.688749999999985 Z M28.86375 26.851250000000014 Q22.500502500000003 26.851250000000014 18.022751250000002 22.420906250000016 Q13.545 17.990562500000017 13.545 11.693750000000016 V-82.15374999999999 Q13.545 -88.51715875 18.022751250000002 -92.99474874999999 Q22.500502500000003 -97.4725 28.86375 -97.4725 H69.3375 Q72.5221875 -97.4725 74.71921875 -95.17259124999998 Q76.91625 -92.8726825 76.91625 -89.69009125 Q76.91625 -86.5075 74.71921875 -84.33062499999998 Q72.5221875 -82.15374999999999 69.3375 -82.15374999999999 H28.86375 Q28.86375 -82.15374999999999 28.86375 -82.15374999999999 Q28.86375 -82.15374999999999 28.86375 -82.15374999999999 V11.693750000000016 Q28.86375 11.693750000000016 28.86375 11.693750000000016 Q28.86375 11.693750000000016 28.86375 11.693750000000016 H69.3375 Q72.5221875 11.693750000000016 74.71921875 13.898843750000015 Q76.91625 16.104098750000016 76.91625 19.300718750000016 Q76.91625 22.497500000000016 74.71921875 24.674375000000015 Q72.5221875 26.851250000000014 69.3375 26.851250000000014 H28.86375 Z"/></g><g id="Semibold-L" transform="matrix(1 0 0 1 1970.27 1556)"><path d="M102.91249125 -8.37123249999999 Q101.00554875 -10.278174999999983 101.00554875 -12.915257499999981 Q101.00554875 -15.552178749999982 102.91249125 -17.401393749999983 L114.35414625 -28.843048749999994 H65.67083625000001 Q62.9768325 -28.843048749999994 61.130358750000006 -30.69758499999999 Q59.283885 -32.55228249999999 59.283885 -35.25821874999998 Q59.283885 -37.96431624999998 61.130358750000006 -39.790633749999984 Q62.9768325 -41.616951249999985 65.67083625000001 -41.616951249999985 H114.03164625000001 L102.337635 -53.31096249999999 Q100.5919425 -54.97780374999998 100.63741499999999 -57.57134875 Q100.68304875 -60.164732499999985 102.62449875000001 -62.080221249999994 Q104.44227 -63.99571 107.16884625000002 -63.950076249999995 Q109.89542250000001 -63.90460374999999 111.802365 -61.99766124999998 L134.2512675 -39.54875874999999 Q135.23150625 -38.54497749999999 135.69493875 -37.39574874999998 Q136.15821000000003 -36.246358749999985 136.15821000000003 -35.03714499999998 Q136.15821000000003 -33.82776999999999 135.69493875 -32.707082499999984 Q135.23150625 -31.586394999999982 134.2512675 -30.588741249999984 L111.87250875000001 -8.209982499999988 Q110.12681625 -6.464289999999984 107.51875875 -6.464289999999984 Q104.91070125 -6.464289999999984 102.91249125 -8.37123249999999 Z M28.933893750000003 25.098623750000016 Q23.65456875 25.098623750000016 19.86164625 21.332468750000015 Q16.06872375 17.566475000000015 16.06872375 12.324721250000017 V-82.78472124999999 Q16.06872375 -88.06404624999999 19.86164625 -91.85696875 Q23.65456875 -95.64973 28.933893750000003 -95.64973 H70.1085975 Q72.80260125 -95.64973 74.649075 -93.74165875 Q76.49554875000001 -91.83342624999997 76.49554875000001 -89.13539125 Q76.49554875000001 -86.43735625 74.649075 -84.61103874999999 Q72.80260125 -82.78472124999999 70.1085975 -82.78472124999999 H28.933893750000003 Q28.933893750000003 -82.78472124999999 28.933893750000003 -82.78472124999999 Q28.933893750000003 -82.78472124999999 28.933893750000003 -82.78472124999999 V12.324721250000017 Q28.933893750000003 12.324721250000017 28.933893750000003 12.324721250000017 Q28.933893750000003 12.324721250000017 28.933893750000003 12.324721250000017 H70.1085975 Q72.80260125 12.324721250000017 74.649075 14.179257500000013 Q76.49554875000001 16.033955000000013 76.49554875000001 18.739891250000017 Q76.49554875000001 21.44598875000002 74.649075 23.272306250000018 Q72.80260125 25.098623750000016 70.1085975 25.098623750000016 H28.933893750000003 Z"/></g><g id="Medium-L" transform="matrix(1 0 0 1 1674.31 1556)"><path d="M103.5434625 -9.633336249999992 Q101.89951875 -11.27727999999999 101.89951875 -13.579123749999987 Q101.89951875 -15.880806249999985 103.5434625 -17.453961249999992 L115.82652 -29.73701874999999 H65.46056625 Q63.134696250000005 -29.73701874999999 61.55106 -31.328717499999982 Q59.96742375 -32.92041624999999 59.96742375 -35.25821874999998 Q59.96742375 -37.59618249999998 61.55106 -39.15966249999998 Q63.134696250000005 -40.72298124999999 65.46056625 -40.72298124999999 H115.50402 L103.02117375 -53.205827499999984 Q101.53848 -54.65530374999999 101.55766875 -56.91054624999998 Q101.57701875 -59.165627499999985 103.25563125000001 -60.81827874999999 Q104.81040374999999 -62.470768749999976 107.14256250000001 -62.45141875 Q109.47472125 -62.43222999999999 111.11882625000001 -60.788124999999994 L132.98916375000002 -38.91778749999999 Q133.86910500000002 -38.02800999999998 134.25110625000002 -37.06421874999998 Q134.63326874999998 -36.100427499999995 134.63326874999998 -35.042949999999976 Q134.63326874999998 -33.98563374999999 134.25110625000002 -33.0463525 Q133.86910500000002 -32.10707124999999 132.98916375000002 -31.219712499999986 L111.2415375 -9.47208624999999 Q109.7586825 -7.989231249999982 107.492475 -7.989231249999982 Q105.22610625000002 -7.989231249999982 103.5434625 -9.633336249999992 Z M28.98646125 23.783952500000016 Q24.52015875 23.783952500000016 21.24097875 20.516221250000015 Q17.96179875 17.248328750000017 17.96179875 12.797990000000016 V-83.25798999999998 Q17.96179875 -87.72413124999997 21.24097875 -91.00331125 Q24.52015875 -94.28265249999998 28.98646125 -94.28265249999998 H70.6871625 Q73.01287125 -94.28265249999998 74.5965075 -92.6682175 Q76.18014375 -91.05378249999998 76.18014375 -88.71936624999998 Q76.18014375 -86.38478874999998 74.5965075 -84.82130874999999 Q73.01287125 -83.25798999999998 70.6871625 -83.25798999999998 H28.98646125 Q28.98646125 -83.25798999999998 28.98646125 -83.25798999999998 Q28.98646125 -83.25798999999998 28.98646125 -83.25798999999998 V12.797990000000016 Q28.98646125 12.797990000000016 28.98646125 12.797990000000016 Q28.98646125 12.797990000000016 28.98646125 12.797990000000016 H70.6871625 Q73.01287125 12.797990000000016 74.5965075 14.389688750000015 Q76.18014375 15.981387500000015 76.18014375 18.319351250000015 Q76.18014375 20.657153750000013 74.5965075 22.220633750000015 Q73.01287125 23.783952500000016 70.6871625 23.783952500000016 H28.98646125 Z"/></g><g id="Regular-L" transform="matrix(1 0 0 1 1378.56 1556)"><path d="M104.00625000000001 -10.558749999999982 Q102.555 -12.009999999999984 102.555 -14.065937499999983 Q102.555 -16.12187499999999 104.00625000000001 -17.492499999999986 L116.90625 -30.392499999999984 H65.30625 Q63.2503125 -30.392499999999984 61.85953125 -31.79134374999998 Q60.46875 -33.190348749999984 60.46875 -35.25821874999998 Q60.46875 -37.32624999999999 61.85953125 -38.69687499999999 Q63.2503125 -40.06749999999998 65.30625 -40.06749999999998 H116.58375000000001 L103.52250000000001 -53.12874999999998 Q102.2325 -54.41874999999999 102.2325 -56.425828749999994 Q102.2325 -58.43306874999999 103.7182575 -59.89270374999998 Q105.08033624999999 -61.35249999999999 107.12321250000001 -61.35249999999999 Q109.16625 -61.35249999999999 110.6175 -59.90124999999999 L132.06375 -38.454999999999984 Q132.87 -37.64874999999999 133.1925 -36.82105374999999 Q133.51500000000001 -35.99319624999998 133.51500000000001 -35.04730374999998 Q133.51500000000001 -34.10124999999999 133.1925 -33.29499999999999 Q132.87 -32.48874999999998 132.06375 -31.68249999999999 L110.77875 -10.397499999999987 Q109.48875 -9.107499999999987 107.473125 -9.107499999999987 Q105.4575 -9.107499999999987 104.00625000000001 -10.558749999999982 Z M29.025000000000002 22.820000000000014 Q25.155 22.820000000000014 22.2525 19.917500000000015 Q19.35 17.015000000000015 19.35 13.145000000000014 V-83.60499999999999 Q19.35 -87.475 22.2525 -90.3775 Q25.155 -93.28 29.025000000000002 -93.28 H71.11125 Q73.1671875 -93.28 74.55796875 -91.88115625 Q75.94875 -90.48215124999999 75.94875 -88.41428124999999 Q75.94875 -86.34625 74.55796875 -84.975625 Q73.1671875 -83.60499999999999 71.11125 -83.60499999999999 H29.025000000000002 Q29.025000000000002 -83.60499999999999 29.025000000000002 -83.60499999999999 Q29.025000000000002 -83.60499999999999 29.025000000000002 -83.60499999999999 V13.145000000000014 Q29.025000000000002 13.145000000000014 29.025000000000002 13.145000000000014 Q29.025000000000002 13.145000000000014 29.025000000000002 13.145000000000014 H71.11125 Q73.1671875 13.145000000000014 74.55796875 14.543843750000018 Q75.94875 15.942848750000014 75.94875 18.010718750000017 Q75.94875 20.078750000000014 74.55796875 21.449375000000014 Q73.1671875 22.820000000000014 71.11125 22.820000000000014 H29.025000000000002 Z"/></g><g id="Light-L" transform="matrix(1 0 0 1 1082.77 1556)"><path d="M104.5644975 -11.675244999999983 Q103.42333125 -12.788031249999982 103.42333125 -14.33087124999998 Q103.42333125 -15.873711249999985 104.5644975 -16.934252499999985 L117.52641750000001 -29.958253749999983 H64.25183625000001 Q62.6936775 -29.958253749999983 61.643295 -31.01718249999999 Q60.59275125 -32.07611124999998 60.59275125 -33.64668624999999 Q60.59275125 -35.217422499999984 61.643295 -36.24700374999999 Q62.6936775 -37.27642374999998 64.25183625000001 -37.27642374999998 H117.32808 L104.1426675 -50.461674999999985 Q103.1629125 -51.44159124999999 103.1629125 -52.91735124999998 Q103.1629125 -54.39327249999998 104.33858625 -55.551047499999996 Q105.39041999999999 -56.63867875 106.93713000000001 -56.63867875 Q108.48400125 -56.63867875 109.56308625000001 -55.4975125 L128.3224275 -36.797672499999976 Q129.08659125 -36.03608874999999 129.44005125 -35.20839249999999 Q129.79351125000002 -34.380696249999986 129.79351125000002 -33.46560249999999 Q129.79351125000002 -32.55066999999998 129.44005125 -31.775379999999984 Q129.08659125 -31.00025124999999 128.3224275 -30.23366874999998 L109.662255 -11.51399499999998 Q108.6825 -10.595998749999985 107.19400125 -10.595998749999985 Q105.70566375 -10.595998749999985 104.5644975 -11.675244999999983 Z M32.498325 22.820000000000014 Q28.70427375 22.820000000000014 25.9499625 20.065527500000016 Q23.195490000000003 17.31121625000001 23.195490000000003 13.517165000000013 V-80.7518425 Q23.195490000000003 -84.54589374999999 25.9499625 -87.30036625 Q28.70427375 -90.05483874999999 32.498325 -90.05483874999999 H73.40616 Q74.96431875 -90.05483874999999 76.01470125 -88.99590999999998 Q77.065245 -87.93698125 77.065245 -86.36640624999998 Q77.065245 -84.79566999999999 76.01470125 -83.76608875 Q74.96431875 -82.73666874999999 73.40616 -82.73666874999999 H32.498325 Q31.753995000000003 -82.73666874999999 31.133827500000002 -82.11650124999998 Q30.51349875 -81.49617249999999 30.51349875 -80.7518425 V13.517165000000013 Q30.51349875 14.261495000000018 31.133827500000002 14.881662500000015 Q31.753995000000003 15.501830000000016 32.498325 15.501830000000016 H73.40616 Q74.96431875 15.501830000000016 76.01470125 16.560758750000016 Q77.065245 17.619687500000015 77.065245 19.190262500000017 Q77.065245 20.760998750000013 76.01470125 21.790580000000016 Q74.96431875 22.820000000000014 73.40616 22.820000000000014 H32.498325 Z"/></g><g id="Thin-L" transform="matrix(1 0 0 1 787.282 1556)"><path d="M105.12258375 -12.791417499999987 Q104.29150125000001 -13.565901249999989 104.29150125000001 -14.595804999999984 Q104.29150125000001 -15.625708749999987 105.12258375 -16.376166249999983 L118.146585 -29.524168749999987 H63.19758375 Q62.1370425 -29.524168749999987 61.4268975 -30.24318249999999 Q60.716752500000005 -30.962034999999986 60.716752500000005 -32.03547624999999 Q60.716752500000005 -33.10891749999999 61.4268975 -33.797454999999985 Q62.1370425 -34.48583124999999 63.19758375 -34.48583124999999 H118.07224875 L104.76283500000001 -47.79508374999999 Q104.09300250000001 -48.46491624999999 104.09300250000001 -49.409518749999975 Q104.09300250000001 -50.35395999999999 104.95875375000001 -51.21019749999998 Q105.70050375 -51.925663749999984 106.75120875 -51.925663749999984 Q107.80191375 -51.925663749999984 108.50883375000001 -51.09458124999999 L124.58175000000001 -35.14066749999999 Q125.30366625 -34.423749999999984 125.6882475 -33.596053749999996 Q126.07266750000001 -32.76819624999999 126.07266750000001 -31.884223749999975 Q126.07266750000001 -31.00025124999999 125.6882475 -30.25608249999999 Q125.30366625 -29.51191374999999 124.58175000000001 -28.784998749999986 L108.5460825 -12.630167499999985 Q107.87625 -12.084336249999986 106.9148775 -12.084336249999986 Q105.95366625 -12.084336249999986 105.12258375 -12.791417499999987 Z M35.97116625 22.820000000000014 Q32.25306375 22.820000000000014 29.64661875 20.213716250000015 Q27.040335000000002 17.607271250000014 27.040335000000002 13.889168750000017 V-77.89932999999999 Q27.040335000000002 -81.61727124999999 29.64661875 -84.22371624999998 Q32.25306375 -86.82999999999998 35.97116625 -86.82999999999998 H75.70058625 Q76.7611275 -86.82999999999998 77.4712725 -86.11114749999999 Q78.18141750000001 -85.39229499999998 78.18141750000001 -84.31885374999999 Q78.18141750000001 -83.24525125 77.4712725 -82.55687499999999 Q76.7611275 -81.86849874999999 75.70058625 -81.86849874999999 H35.97116625 Q34.4826675 -81.86849874999999 33.2423325 -80.62816374999998 Q32.001836250000004 -79.38766749999999 32.001836250000004 -77.89932999999999 V13.889168750000017 Q32.001836250000004 15.377667500000015 33.2423325 16.618002500000017 Q34.4826675 17.858498750000013 35.97116625 17.858498750000013 H75.70058625 Q76.7611275 17.858498750000013 77.4712725 18.577351250000014 Q78.18141750000001 19.296203750000014 78.18141750000001 20.369645000000016 Q78.18141750000001 21.443086250000018 77.4712725 22.131623750000013 Q76.7611275 22.820000000000014 75.70058625 22.820000000000014 H35.97116625 Z"/></g><g id="Ultralight-L" transform="matrix(1 0 0 1 491.205 1556)"><path d="M105.4575 -13.461249999999986 Q104.8125 -14.032558749999986 104.8125 -14.754797499999981 Q104.8125 -15.476874999999986 105.4575 -16.041249999999984 L118.51875 -29.263749999999987 H62.565000000000005 Q61.803093749999995 -29.263749999999987 61.2972525 -29.778621249999986 Q60.791250000000005 -30.293492499999985 60.791250000000005 -31.06862124999998 Q60.791250000000005 -31.843749999999986 61.2972525 -32.327499999999986 Q61.803093749999995 -32.81124999999999 62.565000000000005 -32.81124999999999 H118.51875 L105.135 -46.19499999999999 Q104.65125 -46.67874999999998 104.65125 -47.30456124999998 Q104.65125 -47.930211249999985 105.33075750000002 -48.60520374999999 Q105.88658625 -49.09749999999998 106.63946250000001 -49.09749999999998 Q107.3925 -49.09749999999998 107.87625 -48.452499999999986 L122.33715 -34.146399999999986 Q123.03375 -33.45624999999998 123.436875 -32.628553749999995 Q123.84 -31.800696249999987 123.84 -30.935428749999986 Q123.84 -30.069999999999993 123.436875 -29.344374999999985 Q123.03375 -28.61874999999999 122.33715 -27.915699999999987 L107.87625 -13.299999999999983 Q107.3925 -12.977499999999985 106.7475 -12.977499999999985 Q106.1025 -12.977499999999985 105.4575 -13.461249999999986 Z M38.055 22.820000000000014 Q34.38253125 22.820000000000014 31.86509625 20.302403750000014 Q29.3475 17.784968750000015 29.3475 14.112500000000015 V-76.18749999999999 Q29.3475 -79.85996874999998 31.86509625 -82.37756499999999 Q34.38253125 -84.89499999999998 38.055 -84.89499999999998 H77.0775 Q77.83940625000001 -84.89499999999998 78.3452475 -84.38012875 Q78.85125000000001 -83.8652575 78.85125000000001 -83.09012874999999 Q78.85125000000001 -82.31499999999998 78.3452475 -81.83124999999998 Q77.83940625000001 -81.34749999999998 77.0775 -81.34749999999998 H38.055 Q36.120000000000005 -81.34749999999998 34.5075 -79.73499999999999 Q32.895 -78.12249999999999 32.895 -76.18749999999999 V14.112500000000015 Q32.895 16.047500000000014 34.5075 17.660000000000014 Q36.120000000000005 19.272500000000015 38.055 19.272500000000015 H77.0775 Q77.83940625000001 19.272500000000015 78.3452475 19.787371250000017 Q78.85125000000001 20.302242500000016 78.85125000000001 21.077371250000017 Q78.85125000000001 21.852500000000017 78.3452475 22.336250000000014 Q77.83940625000001 22.820000000000014 77.0775 22.820000000000014 H38.055 Z"/></g><g id="Bold-M" transform="matrix(1 0 0 1 2281.8 1126)"><path d="M74.625 -9.85499999999999 Q72.375 -12.22999999999999 72.375 -15.41749999999999 Q72.375 -18.60499999999999 74.625 -20.85499999999999 L81.125 -27.35499999999999 H50.625 Q47.375 -27.35499999999999 45.0625 -29.66749999999999 Q42.75 -31.97999999999999 42.75 -35.22999999999999 Q42.75 -38.47999999999999 45.0625 -40.79249999999999 Q47.375 -43.10499999999999 50.625 -43.10499999999999 H81.125 L74.5 -49.72999999999999 Q72.25 -51.97999999999999 72.3125 -55.16749999999999 Q72.375 -58.35499999999999 74.625 -60.60499999999999 Q76.875 -62.85499999999999 80.125 -62.85499999999999 Q83.375 -62.85499999999999 85.625 -60.60499999999999 L105.5 -40.72999999999999 Q106.625 -39.60499999999999 107.1875 -38.16749999999999 Q107.75 -36.72999999999999 107.75 -35.22999999999999 Q107.75 -33.72999999999999 107.1875 -32.29249999999999 Q106.625 -30.85499999999999 105.5 -29.72999999999999 L85.5 -9.72999999999999 Q83.125 -7.35499999999999 80.0 -7.47999999999999 Q76.875 -7.60499999999999 74.625 -9.85499999999999 Z M24.75 14.02000000000001 Q18.125 14.02000000000001 13.5625 9.45750000000001 Q9.0 4.89500000000001 9.0 -1.7299999999999898 V-68.72999999999999 Q9.0 -75.35499999999999 13.5625 -79.91749999999999 Q18.125 -84.47999999999999 24.75 -84.47999999999999 H53.125 Q56.375 -84.47999999999999 58.6875 -82.16749999999999 Q61.0 -79.85499999999999 61.0 -76.60499999999999 Q61.0 -73.35499999999999 58.6875 -71.04249999999999 Q56.375 -68.72999999999999 53.125 -68.72999999999999 H24.75 Q24.75 -68.72999999999999 24.75 -68.72999999999999 Q24.75 -68.72999999999999 24.75 -68.72999999999999 V-1.7299999999999898 Q24.75 -1.7299999999999898 24.75 -1.7299999999999898 Q24.75 -1.7299999999999898 24.75 -1.7299999999999898 H53.125 Q56.375 -1.7299999999999898 58.6875 0.5825000000000102 Q61.0 2.8950000000000102 61.0 6.14500000000001 Q61.0 9.39500000000001 58.6875 11.70750000000001 Q56.375 14.02000000000001 53.125 14.02000000000001 H24.75 Z"/></g><g id="Semibold-M" transform="matrix(1 0 0 1 1985.97 1126)"><path d="M75.4945 -11.593999999999987 Q73.624875 -13.642999999999986 73.624875 -16.341374999999992 Q73.624875 -19.03974999999999 75.4945 -20.90937499999999 L83.190125 -28.604874999999993 H50.35325 Q47.592375 -28.604874999999993 45.66025 -30.536999999999992 Q43.72825 -32.46912499999999 43.72825 -35.22999999999999 Q43.72825 -37.99087499999999 45.66025 -39.92299999999999 Q47.592375 -41.85512499999999 50.35325 -41.85512499999999 H83.190125 L75.423875 -49.62124999999999 Q73.499875 -51.545249999999996 73.53525 -54.243624999999994 Q73.570625 -56.94199999999999 75.4945 -58.865999999999985 Q77.364125 -60.789874999999995 80.097875 -60.789874999999995 Q82.8315 -60.789874999999995 84.701125 -58.92037499999999 L103.761 -39.86049999999999 Q104.723 -38.89849999999999 105.17675 -37.70562499999999 Q105.630625 -36.51262499999999 105.630625 -35.22999999999999 Q105.630625 -33.94737499999999 105.17675 -32.75437499999999 Q104.723 -31.561499999999988 103.761 -30.599499999999992 L84.6305 -11.468999999999987 Q82.5815 -9.420124999999992 79.972875 -9.57224999999999 Q77.364125 -9.724374999999988 75.4945 -11.593999999999987 Z M24.85875 12.17225000000001 Q19.320625 12.17225000000001 15.4645 8.31625000000001 Q11.6085 4.460250000000009 11.6085 -1.0778749999999881 V-69.38212499999999 Q11.6085 -74.92025 15.4645 -78.77624999999999 Q19.320625 -82.63224999999998 24.85875 -82.63224999999998 H53.940125 Q56.701125 -82.63224999999998 58.633125 -80.70024999999998 Q60.56525 -78.76812499999998 60.56525 -76.00724999999998 Q60.56525 -73.24624999999999 58.633125 -71.31424999999999 Q56.701125 -69.38212499999999 53.940125 -69.38212499999999 H24.85875 Q24.85875 -69.38212499999999 24.85875 -69.38212499999999 Q24.85875 -69.38212499999999 24.85875 -69.38212499999999 V-1.0778749999999881 Q24.85875 -1.0778749999999881 24.85875 -1.0778749999999881 Q24.85875 -1.0778749999999881 24.85875 -1.0778749999999881 H53.940125 Q56.701125 -1.0778749999999881 58.633125 0.8542500000000111 Q60.56525 2.7862500000000097 60.56525 5.547250000000009 Q60.56525 8.308125000000011 58.633125 10.24025000000001 Q56.701125 12.17225000000001 53.940125 12.17225000000001 H24.85875 Z"/></g><g id="Medium-M" transform="matrix(1 0 0 1 1689.91 1126)"><path d="M76.14675 -12.898499999999991 Q74.5625 -14.702749999999988 74.5625 -17.03437499999999 Q74.5625 -19.36587499999999 76.14675 -20.950124999999993 L84.739125 -29.54249999999999 H50.1495 Q47.755375 -29.54249999999999 46.10875 -31.189249999999987 Q44.462 -32.83599999999999 44.462 -35.22999999999999 Q44.462 -37.62399999999999 46.10875 -39.27074999999999 Q47.755375 -40.91749999999999 50.1495 -40.91749999999999 H84.739125 L76.116875 -49.539749999999984 Q74.4375 -51.21912499999999 74.452375 -53.550625 Q74.467375 -55.882249999999985 76.14675 -57.561499999999995 Q77.731 -59.24087499999999 80.0775 -59.24087499999999 Q82.423875 -59.24087499999999 84.008125 -57.65662499999999 L102.4565 -39.20824999999999 Q103.29625 -38.36862499999999 103.6685 -37.35912499999999 Q104.04075 -36.34962499999999 104.04075 -35.22999999999999 Q104.04075 -34.11037499999999 103.6685 -33.10087499999999 Q103.29625 -32.09137499999999 102.4565 -31.251749999999987 L83.97825 -12.773499999999991 Q82.173875 -10.969124999999991 79.9525 -11.14162499999999 Q77.731 -11.314249999999987 76.14675 -12.898499999999991 Z M24.94025 10.78637500000001 Q20.217375 10.78637500000001 16.89125 7.460250000000009 Q13.565125 4.134125000000012 13.565125 -0.5887499999999903 V-69.87124999999999 Q13.565125 -74.59412499999999 16.89125 -77.92025 Q20.217375 -81.24637499999999 24.94025 -81.24637499999999 H54.551625 Q56.945625 -81.24637499999999 58.592375 -79.59962499999999 Q60.239125 -77.95287499999999 60.239125 -75.55874999999999 Q60.239125 -73.16474999999998 58.592375 -71.51799999999999 Q56.945625 -69.87124999999999 54.551625 -69.87124999999999 H24.94025 Q24.94025 -69.87124999999999 24.94025 -69.87124999999999 Q24.94025 -69.87124999999999 24.94025 -69.87124999999999 V-0.5887499999999903 Q24.94025 -0.5887499999999903 24.94025 -0.5887499999999903 Q24.94025 -0.5887499999999903 24.94025 -0.5887499999999903 H54.551625 Q56.945625 -0.5887499999999903 58.592375 1.0580000000000105 Q60.239125 2.7047500000000113 60.239125 5.09875000000001 Q60.239125 7.492875000000009 58.592375 9.13962500000001 Q56.945625 10.78637500000001 54.551625 10.78637500000001 H24.94025 Z"/></g><g id="Regular-M" transform="matrix(1 0 0 1 1394.06 1126)"><path d="M76.625 -13.85499999999999 Q75.25 -15.47999999999999 75.25 -17.54249999999999 Q75.25 -19.60499999999999 76.625 -20.97999999999999 L85.875 -30.22999999999999 H50.0 Q47.875 -30.22999999999999 46.4375 -31.66749999999999 Q45.0 -33.10499999999999 45.0 -35.22999999999999 Q45.0 -37.35499999999999 46.4375 -38.79249999999999 Q47.875 -40.22999999999999 50.0 -40.22999999999999 H85.875 L76.625 -49.47999999999999 Q75.125 -50.97999999999999 75.125 -53.04249999999999 Q75.125 -55.10499999999999 76.625 -56.60499999999999 Q78.0 -58.10499999999999 80.0625 -58.10499999999999 Q82.125 -58.10499999999999 83.5 -56.72999999999999 L101.5 -38.72999999999999 Q102.25 -37.97999999999999 102.5625 -37.10499999999999 Q102.875 -36.22999999999999 102.875 -35.22999999999999 Q102.875 -34.22999999999999 102.5625 -33.35499999999999 Q102.25 -32.47999999999999 101.5 -31.72999999999999 L83.5 -13.72999999999999 Q81.875 -12.10499999999999 79.9375 -12.29249999999999 Q78.0 -12.47999999999999 76.625 -13.85499999999999 Z M25.0 9.77000000000001 Q20.875 9.77000000000001 17.9375 6.83250000000001 Q15.0 3.8950000000000102 15.0 -0.22999999999998977 V-70.22999999999999 Q15.0 -74.35499999999999 17.9375 -77.29249999999999 Q20.875 -80.22999999999999 25.0 -80.22999999999999 H55.0 Q57.125 -80.22999999999999 58.5625 -78.79249999999999 Q60.0 -77.35499999999999 60.0 -75.22999999999999 Q60.0 -73.10499999999999 58.5625 -71.66749999999999 Q57.125 -70.22999999999999 55.0 -70.22999999999999 H25.0 Q25.0 -70.22999999999999 25.0 -70.22999999999999 Q25.0 -70.22999999999999 25.0 -70.22999999999999 V-0.22999999999998977 Q25.0 -0.22999999999998977 25.0 -0.22999999999998977 Q25.0 -0.22999999999998977 25.0 -0.22999999999998977 H55.0 Q57.125 -0.22999999999998977 58.5625 1.2075000000000102 Q60.0 2.6450000000000102 60.0 4.77000000000001 Q60.0 6.89500000000001 58.5625 8.33250000000001 Q57.125 9.77000000000001 55.0 9.77000000000001 H25.0 Z"/></g><g id="Light-M" transform="matrix(1 0 0 1 1098.18 1126)"><path d="M78.1155 -15.345499999999987 Q77.029 -16.585874999999987 77.029 -18.09537499999999 Q77.029 -19.60499999999999 78.1155 -20.69149999999999 L87.654 -30.22999999999999 H49.326875 Q47.73075 -30.22999999999999 46.653875 -31.30687499999999 Q45.577 -32.38374999999999 45.577 -33.97987499999999 Q45.577 -35.575999999999986 46.653875 -36.65287499999999 Q47.73075 -37.72987499999999 49.326875 -37.72987499999999 H87.654 L78.067375 -47.316374999999994 Q76.952 -48.431749999999994 76.952 -49.94125 Q76.952 -51.450874999999996 78.1155 -52.614374999999995 Q79.202 -53.77774999999998 80.711625 -53.77774999999998 Q82.221125 -53.77774999999998 83.307625 -52.69125 L98.855625 -37.14337499999999 Q99.5575 -36.44137499999999 99.846 -35.66262499999999 Q100.134375 -34.88374999999999 100.134375 -33.97987499999999 Q100.134375 -33.07612499999999 99.846 -32.29724999999999 Q99.5575 -31.518374999999992 98.855625 -30.81649999999999 L83.259625 -15.220499999999987 Q82.067375 -14.028249999999993 80.634625 -14.143624999999993 Q79.202 -14.258999999999993 78.1155 -15.345499999999987 Z M27.019375 9.77000000000001 Q23.231 9.77000000000001 20.606 7.14500000000001 Q17.981 4.52000000000001 17.981 0.7316250000000117 V-68.691375 Q17.981 -72.47987499999999 20.606 -75.10487499999999 Q23.231 -77.72987499999999 27.019375 -77.72987499999999 H56.827 Q58.423125 -77.72987499999999 59.500125 -76.652875 Q60.577 -75.576 60.577 -73.97987499999999 Q60.577 -72.38374999999999 59.500125 -71.30687499999999 Q58.423125 -70.22999999999999 56.827 -70.22999999999999 H27.019375 Q26.442375 -70.22999999999999 25.961625 -69.74924999999999 Q25.48075 -69.26837499999999 25.48075 -68.691375 V0.7316250000000117 Q25.48075 1.30862500000001 25.961625 1.7893750000000104 Q26.442375 2.270125000000011 27.019375 2.270125000000011 H56.827 Q58.423125 2.270125000000011 59.500125 3.347125000000009 Q60.577 4.42400000000001 60.577 6.020125000000011 Q60.577 7.6162500000000115 59.500125 8.693125000000009 Q58.423125 9.77000000000001 56.827 9.77000000000001 H27.019375 Z"/></g><g id="Thin-M" transform="matrix(1 0 0 1 802.565 1126)"><path d="M79.60575 -16.83574999999999 Q78.807625 -17.69149999999999 78.807625 -18.64824999999999 Q78.807625 -19.60499999999999 79.60575 -20.40312499999999 L89.432625 -30.22999999999999 H48.653875 Q47.5865 -30.22999999999999 46.87025 -30.94637499999999 Q46.153875 -31.66274999999999 46.153875 -32.72999999999999 Q46.153875 -33.79737499999999 46.87025 -34.51362499999999 Q47.5865 -35.22999999999999 48.653875 -35.22999999999999 H89.432625 L79.509625 -45.15312499999999 Q78.778875 -45.88387499999999 78.778875 -46.84062499999999 Q78.778875 -47.79737499999999 79.60575 -48.62424999999999 Q80.403875 -49.45124999999999 81.360625 -49.45124999999999 Q82.31725 -49.45124999999999 83.115375 -48.65312499999999 L96.211625 -35.55699999999999 Q96.865375 -34.90312499999999 97.129875 -34.22037499999999 Q97.39425 -33.53774999999999 97.39425 -32.72999999999999 Q97.39425 -31.922374999999988 97.129875 -31.23962499999999 Q96.865375 -30.55687499999999 96.211625 -29.90312499999999 L83.01925 -16.71074999999999 Q82.259625 -15.95112499999999 81.33175 -15.994374999999991 Q80.403875 -16.03762499999999 79.60575 -16.83574999999999 Z M29.038375 9.77000000000001 Q25.5865 9.77000000000001 23.274 7.45750000000001 Q20.9615 5.14500000000001 20.9615 1.693125000000009 V-67.15312499999999 Q20.9615 -70.60499999999999 23.274 -72.91749999999999 Q25.5865 -75.22999999999999 29.038375 -75.22999999999999 H58.653875 Q59.721125 -75.22999999999999 60.4375 -74.51362499999999 Q61.153875 -73.79737499999999 61.153875 -72.72999999999999 Q61.153875 -71.66274999999999 60.4375 -70.94637499999999 Q59.721125 -70.22999999999999 58.653875 -70.22999999999999 H29.038375 Q27.884625 -70.22999999999999 26.923125 -69.26849999999999 Q25.9615 -68.30687499999999 25.9615 -67.15312499999999 V1.693125000000009 Q25.9615 2.8468750000000114 26.923125 3.8083750000000087 Q27.884625 4.77000000000001 29.038375 4.77000000000001 H58.653875 Q59.721125 4.77000000000001 60.4375 5.4863750000000095 Q61.153875 6.202625000000012 61.153875 7.27000000000001 Q61.153875 8.337250000000012 60.4375 9.053625000000011 Q59.721125 9.77000000000001 58.653875 9.77000000000001 H29.038375 Z"/></g><g id="Ultralight-M" transform="matrix(1 0 0 1 506.415 1126)"><path d="M80.5 -17.72999999999999 Q79.875 -18.35499999999999 79.875 -18.97999999999999 Q79.875 -19.60499999999999 80.5 -20.22999999999999 L90.5 -30.22999999999999 H48.25 Q47.5 -30.22999999999999 47.0 -30.72999999999999 Q46.5 -31.22999999999999 46.5 -31.97999999999999 Q46.5 -32.72999999999999 47.0 -33.22999999999999 Q47.5 -33.72999999999999 48.25 -33.72999999999999 H90.5 L80.375 -43.85499999999999 Q79.875 -44.35499999999999 79.875 -44.97999999999999 Q79.875 -45.60499999999999 80.5 -46.22999999999999 Q81.125 -46.85499999999999 81.75 -46.85499999999999 Q82.375 -46.85499999999999 83.0 -46.22999999999999 L94.625 -34.60499999999999 Q95.25 -33.97999999999999 95.5 -33.35499999999999 Q95.75 -32.72999999999999 95.75 -31.97999999999999 Q95.75 -31.22999999999999 95.5 -30.60499999999999 Q95.25 -29.97999999999999 94.625 -29.35499999999999 L82.875 -17.60499999999999 Q82.375 -17.10499999999999 81.75 -17.10499999999999 Q81.125 -17.10499999999999 80.5 -17.72999999999999 Z M30.25 9.77000000000001 Q27.0 9.77000000000001 24.875 7.64500000000001 Q22.75 5.52000000000001 22.75 2.2700000000000102 V-66.22999999999999 Q22.75 -69.47999999999999 24.875 -71.60499999999999 Q27.0 -73.72999999999999 30.25 -73.72999999999999 H59.75 Q60.5 -73.72999999999999 61.0 -73.22999999999999 Q61.5 -72.72999999999999 61.5 -71.97999999999999 Q61.5 -71.22999999999999 61.0 -70.72999999999999 Q60.5 -70.22999999999999 59.75 -70.22999999999999 H30.25 Q28.75 -70.22999999999999 27.5 -68.97999999999999 Q26.25 -67.72999999999999 26.25 -66.22999999999999 V2.2700000000000102 Q26.25 3.7700000000000102 27.5 5.02000000000001 Q28.75 6.27000000000001 30.25 6.27000000000001 H59.75 Q60.5 6.27000000000001 61.0 6.77000000000001 Q61.5 7.27000000000001 61.5 8.02000000000001 Q61.5 8.77000000000001 61.0 9.27000000000001 Q60.5 9.77000000000001 59.75 9.77000000000001 H30.25 Z"/></g><g id="Bold-S" transform="matrix(1 0 0 1 2294.23 696)"><path d="M58.188750000000006 -14.715999999999987 Q56.314875 -16.491249999999987 56.314875 -19.117140624999987 Q56.314875 -21.743031249999987 58.188750000000006 -23.592249999999986 L63.415875 -28.819374999999987 H40.239000000000004 Q37.67475 -28.819374999999987 35.7515625 -30.74256249999999 Q33.828375 -32.66574999999999 33.828375 -35.22999999999999 Q33.828375 -37.79424999999999 35.7515625 -39.71743749999999 Q37.67475 -41.640624999999986 40.239000000000004 -41.640624999999986 H63.120000000000005 L57.9915 -46.86774999999999 Q56.314875 -48.669332874999995 56.3641875 -51.220367124999996 Q56.4135 -53.77149999999999 58.188750000000006 -55.54674999999999 Q60.037968750000005 -57.32199999999999 62.713171875 -57.32199999999999 Q65.388375 -57.32199999999999 67.26225000000001 -55.44812499999999 L83.04225000000001 -39.66812499999999 Q84.037474875 -38.721324999999986 84.526063125 -37.51809999999999 Q85.01475 -36.31487499999999 85.01475 -35.13137499999999 Q85.01475 -33.94787499999999 84.526063125 -32.74464999999999 Q84.037474875 -31.54142499999999 83.04225000000001 -30.594624999999986 L67.065 -14.617374999999988 Q65.28975 -12.842124999999989 62.725500000000004 -12.792812499999986 Q60.16125 -12.743499999999987 58.188750000000006 -14.715999999999987 Z M19.922250000000002 3.6282500000000137 Q14.53239375 3.6282500000000137 10.816696875 -0.08744687499998705 Q7.101 -3.803143749999986 7.101 -9.192999999999987 V-61.266999999999996 Q7.101 -66.65685624999999 10.816696875 -70.372553125 Q14.53239375 -74.08824999999999 19.922250000000002 -74.08824999999999 H41.66541337500001 Q44.184000000000005 -74.08824999999999 46.1071875 -72.16506249999999 Q48.030375 -70.241875 48.030375 -67.67762499999999 Q48.030375 -65.11337499999999 46.1071875 -63.19018749999999 Q44.184000000000005 -61.266999999999996 41.66541337500001 -61.266999999999996 H19.922250000000002 Q19.922250000000002 -61.266999999999996 19.922250000000002 -61.266999999999996 Q19.922250000000002 -61.266999999999996 19.922250000000002 -61.266999999999996 V-9.192999999999987 Q19.922250000000002 -9.192999999999987 19.922250000000002 -9.192999999999987 Q19.922250000000002 -9.192999999999987 19.922250000000002 -9.192999999999987 H41.66541337500001 Q44.184000000000005 -9.192999999999987 46.1071875 -7.269812499999986 Q48.030375 -5.346624999999989 48.030375 -2.7823749999999876 Q48.030375 -0.21812499999998636 46.1071875 1.7050625000000128 Q44.184000000000005 3.6282500000000137 41.66541337500001 3.6282500000000137 H19.922250000000002 Z"/></g><g id="Semibold-S" transform="matrix(1 0 0 1 1998.1 696)"><path d="M58.8747855 -16.088070999999985 Q57.301026375000006 -17.606106999999984 57.301026375000006 -19.84607799999999 Q57.301026375000006 -22.08604899999999 58.8747855 -23.63515187499999 L65.045258625 -29.805526374999992 H40.024589250000005 Q37.846258875 -29.805526374999992 36.22318725 -31.428597999999987 Q34.60021425 -33.05166962499999 34.60021425 -35.22999999999999 Q34.60021425 -37.408330374999984 36.22318725 -39.031401999999986 Q37.846258875 -40.65447362499999 40.024589250000005 -40.65447362499999 H64.749383625 L58.720437374999996 -46.78194624999999 Q57.301026375000006 -48.32631512499999 57.32893725000001 -50.491528374999994 Q57.356848125000006 -52.65664299999999 58.8747855 -54.17467899999998 Q60.423888375000004 -55.692616375 62.691770250000005 -55.692616375 Q64.95955350000001 -55.692616375 66.53331262500001 -54.118955875 L81.670179 -38.98208949999999 Q82.53679687500001 -38.163896499999986 82.93968000000001 -37.153680624999986 Q83.342563125 -36.14336612499999 83.342563125 -35.13137499999999 Q83.342563125 -34.11938387499998 82.93968000000001 -33.10906937499999 Q82.53679687500001 -32.09885349999999 81.670179 -31.28066049999999 L66.3789645 -15.989445999999987 Q64.86092850000001 -14.471508624999988 62.704098375 -14.443597749999988 Q60.547169625 -14.415686874999984 58.8747855 -16.088070999999985 Z M20.008053750000002 2.1703752500000135 Q15.475741875 2.1703752500000135 12.317374875 -0.9878931249999869 Q9.1591065 -4.146161499999987 9.1591065 -8.678473374999985 V-61.781526624999984 Q9.1591065 -66.31383849999999 12.317374875 -69.472106875 Q15.475741875 -72.63037524999999 20.008053750000002 -72.63037524999999 H42.308547 Q44.441312625 -72.63037524999999 46.064285625000004 -71.00740224999998 Q47.68735725 -69.38433062499999 47.68735725 -67.20600024999999 Q47.68735725 -65.02757125 46.064285625000004 -63.40459824999999 Q44.441312625 -61.781526624999984 42.308547 -61.781526624999984 H20.008053750000002 Q20.008053750000002 -61.781526624999984 20.008053750000002 -61.781526624999984 Q20.008053750000002 -61.781526624999984 20.008053750000002 -61.781526624999984 V-8.678473374999985 Q20.008053750000002 -8.678473374999985 20.008053750000002 -8.678473374999985 Q20.008053750000002 -8.678473374999985 20.008053750000002 -8.678473374999985 H42.308547 Q44.441312625 -8.678473374999985 46.064285625000004 -7.055401749999987 Q47.68735725 -5.432428749999989 47.68735725 -3.2539997499999878 Q47.68735725 -1.0756693749999862 46.064285625000004 0.5474022500000135 Q44.441312625 2.1703752500000135 42.308547 2.1703752500000135 H20.008053750000002 Z"/></g><g id="Medium-S" transform="matrix(1 0 0 1 1701.85 696)"><path d="M59.38941075 -17.11732149999999 Q58.0408125 -18.442249749999984 58.0408125 -20.39285499999999 Q58.0408125 -22.343361624999986 59.38941075 -23.667303624999988 L66.267419625 -30.545312499999987 H39.863830500000006 Q37.974865875 -30.545312499999987 36.577053750000005 -31.94322324999999 Q35.179143 -33.34113399999999 35.179143 -35.22999999999999 Q35.179143 -37.11886599999999 36.577053750000005 -38.51677674999999 Q37.974865875 -39.914687499999985 39.863830500000006 -39.914687499999985 H65.971544625 L59.267214374999995 -46.71764274999998 Q58.0408125 -48.06900249999998 58.05254887500001 -49.94475137499998 Q58.064383875000004 -51.82050024999999 59.38941075 -53.145428499999994 Q60.71335275 -54.470455374999986 62.675694375000006 -54.470455374999986 Q64.63793737499999 -54.470455374999986 65.986535625 -53.12185712499999 L80.6409285 -38.46746424999999 Q81.411091125 -37.74582512499999 81.749572125 -36.88029212499999 Q82.08815175000001 -36.01475912499999 82.08815175000001 -35.13137499999999 Q82.08815175000001 -34.24799087499999 81.749572125 -33.382457874999986 Q81.411091125 -32.51692487499999 80.6409285 -31.795285749999984 L65.86433925 -17.01869649999999 Q64.539312375 -15.693669624999988 62.6880225 -15.68183462499999 Q60.836634 -15.670098249999985 59.38941075 -17.11732149999999 Z M20.07235725 1.076919875000014 Q16.183277625000002 1.076919875000014 13.443080625000002 -1.6632771249999863 Q10.702883625 -4.403474124999988 10.702883625 -8.292553749999989 V-62.16744624999998 Q10.702883625 -66.05652587499999 13.443080625000002 -68.79672287499999 Q16.183277625000002 -71.53691987499998 20.07235725 -71.53691987499998 H42.7910205 Q44.634223125 -71.53691987499998 46.032133875 -70.13900912499999 Q47.430044625 -68.74109837499999 47.430044625 -66.85213375 Q47.430044625 -64.96326774999999 46.032133875 -63.56535699999999 Q44.634223125 -62.16744624999998 42.7910205 -62.16744624999998 H20.07235725 Q20.07235725 -62.16744624999998 20.07235725 -62.16744624999998 Q20.07235725 -62.16744624999998 20.07235725 -62.16744624999998 V-8.292553749999989 Q20.07235725 -8.292553749999989 20.07235725 -8.292553749999989 Q20.07235725 -8.292553749999989 20.07235725 -8.292553749999989 H42.7910205 Q44.634223125 -8.292553749999989 46.032133875 -6.894642999999988 Q47.430044625 -5.496732249999987 47.430044625 -3.6078662499999883 Q47.430044625 -1.7189016249999884 46.032133875 -0.32099087499998724 Q44.634223125 1.076919875000014 42.7910205 1.076919875000014 H20.07235725 Z"/></g><g id="Regular-S" transform="matrix(1 0 0 1 1405.73 696)"><path d="M59.76675 -17.87199999999999 Q58.58325 -19.055499999999988 58.58325 -20.793765624999985 Q58.58325 -22.53203124999999 59.76675 -23.69087499999999 L67.163625 -31.087749999999986 H39.745875000000005 Q38.069250000000004 -31.087749999999986 36.8364375 -32.32056249999999 Q35.603625 -33.55337499999999 35.603625 -35.22999999999999 Q35.603625 -36.90662499999999 36.8364375 -38.139437499999985 Q38.069250000000004 -39.37224999999999 39.745875000000005 -39.37224999999999 H66.86775 L59.668125 -46.67049999999999 Q58.58325 -47.88033287499999 58.58325 -49.543742124999994 Q58.58325 -51.20724999999999 59.76675 -52.39074999999998 Q60.925593750000004 -53.57424999999999 62.663859375 -53.57424999999999 Q64.402125 -53.57424999999999 65.58562500000001 -52.39074999999998 L79.88625 -38.090124999999986 Q80.585599875 -37.439199999999985 80.876938125 -36.67978749999999 Q81.168375 -35.920374999999986 81.168375 -35.13137499999999 Q81.168375 -34.34237499999999 80.876938125 -33.58296249999999 Q80.585599875 -32.82354999999999 79.88625 -32.17262499999999 L65.48700000000001 -17.773374999999987 Q64.3035 -16.58987499999999 62.676187500000005 -16.58987499999999 Q61.048875 -16.58987499999999 59.76675 -17.87199999999999 Z M20.119500000000002 0.2750000000000128 Q16.70214375 0.2750000000000128 14.268571875000001 -2.1585718749999874 Q11.835 -4.5921437499999875 11.835 -8.009499999999989 V-62.45049999999999 Q11.835 -65.86785624999999 14.268571875000001 -68.301428125 Q16.70214375 -70.73499999999999 20.119500000000002 -70.73499999999999 H43.144788375000005 Q44.77575 -70.73499999999999 46.008562500000004 -69.50218749999999 Q47.241375000000005 -68.269375 47.241375000000005 -66.59275 Q47.241375000000005 -64.916125 46.008562500000004 -63.683312499999985 Q44.77575 -62.45049999999999 43.144788375000005 -62.45049999999999 H20.119500000000002 Q20.119500000000002 -62.45049999999999 20.119500000000002 -62.45049999999999 Q20.119500000000002 -62.45049999999999 20.119500000000002 -62.45049999999999 V-8.009499999999989 Q20.119500000000002 -8.009499999999989 20.119500000000002 -8.009499999999989 Q20.119500000000002 -8.009499999999989 20.119500000000002 -8.009499999999989 H43.144788375000005 Q44.77575 -8.009499999999989 46.008562500000004 -6.776687499999987 Q47.241375000000005 -5.543874999999986 47.241375000000005 -3.867249999999988 Q47.241375000000005 -2.1906249999999865 46.008562500000004 -0.9578124999999869 Q44.77575 0.2750000000000128 43.144788375000005 0.2750000000000128 H20.119500000000002 Z"/></g><g id="Light-S" transform="matrix(1 0 0 1 1109.75 696)"><path d="M60.9427545 -19.048004499999987 Q59.986881 -19.928035374999986 59.986881 -21.229983999999988 Q59.986881 -22.53203124999999 60.9427545 -23.46324849999999 L68.567256 -31.087749999999986 H39.214779375 Q37.955436750000004 -31.087749999999986 37.007157375 -32.03602937499999 Q36.058878 -32.98430874999999 36.058878 -34.24365137499999 Q36.058878 -35.50299399999999 37.007157375 -36.451273374999985 Q37.955436750000004 -37.39965137499999 39.214779375 -37.39965137499999 H68.271381 L60.806158875 -44.96339987499999 Q60.024753000000004 -45.86976362499998 60.024753000000004 -47.09695449999998 Q60.024753000000004 -48.32414537499999 60.9427545 -49.242146874999996 Q61.87397175 -50.160049749999985 63.176019000000004 -50.160049749999985 Q64.477967625 -50.160049749999985 65.433841125 -49.204176249999996 L77.79983812500001 -36.83827787499999 Q78.461217375 -36.22522487499999 78.733619625 -35.54175362499999 Q79.006021875 -34.85818374999999 79.006021875 -34.14502637499999 Q79.006021875 -33.43196762499999 78.733619625 -32.74839774999999 Q78.461217375 -32.064827874999985 77.79983812500001 -31.45187349999999 L65.29734412500001 -18.949379499999985 Q64.455283875 -18.10731924999999 63.226219125 -18.05041262499999 Q61.997253 -17.99350599999999 60.9427545 -19.048004499999987 Z M21.712786875000003 0.2750000000000128 Q18.56102775 0.2750000000000128 16.374018375 -1.9120093749999878 Q14.187009000000002 -4.099018749999985 14.187009000000002 -7.2507778749999865 V-61.236524874999986 Q14.187009000000002 -64.38838262499999 16.374018375 -66.57539199999998 Q18.56102775 -68.762401375 21.712786875000003 -68.762401375 H44.586291375 Q45.799970625 -68.762401375 46.748348625 -67.81402337499999 Q47.696628000000004 -66.86574399999999 47.696628000000004 -65.60640137499999 Q47.696628000000004 -64.34705874999999 46.748348625 -63.39877937499999 Q45.799970625 -62.45049999999999 44.586291375 -62.45049999999999 H21.712786875000003 Q21.257533875 -62.45049999999999 20.878222125 -62.07118824999999 Q20.49881175 -61.691777874999985 20.49881175 -61.236524874999986 V-7.2507778749999865 Q20.49881175 -6.7955248749999875 20.878222125 -6.416213124999988 Q21.257533875 -6.036901374999985 21.712786875000003 -6.036901374999985 H44.586291375 Q45.799970625 -6.036901374999985 46.748348625 -5.088523374999987 Q47.696628000000004 -4.1402439999999885 47.696628000000004 -2.8809013749999863 Q47.696628000000004 -1.621558749999986 46.748348625 -0.6732793749999875 Q45.799970625 0.2750000000000128 44.586291375 0.2750000000000128 H21.712786875000003 Z"/></g><g id="Thin-S" transform="matrix(1 0 0 1 814.015 696)"><path d="M62.118561750000005 -20.22381174999999 Q61.390216125 -20.800373499999985 61.390216125 -21.66620237499999 Q61.390216125 -22.53203124999999 62.118561750000005 -23.235720624999985 L69.970591125 -31.087749999999986 H38.683782375 Q37.841623500000004 -31.087749999999986 37.17787725 -31.751594874999988 Q36.514032375 -32.41543974999999 36.514032375 -33.257499999999986 Q36.514032375 -34.09965887499999 37.17787725 -34.76340512499999 Q37.841623500000004 -35.42724999999999 38.683782375 -35.42724999999999 H69.674716125 L61.944094125 -43.25659562499999 Q61.466157375 -43.85949024999999 61.466157375 -44.65046274999999 Q61.466157375 -45.44153387499999 62.118561750000005 -46.09393824999999 Q62.822251125 -46.74644124999999 63.68808 -46.74644124999999 Q64.55381025 -46.74644124999999 65.282155875 -46.01809562499999 L75.713722125 -35.58662799999999 Q76.33713075 -35.01154562499999 76.590597 -34.403818374999986 Q76.84406325 -33.79618974999999 76.84406325 -33.15887499999999 Q76.84406325 -32.521658874999986 76.590597 -31.91393162499999 Q76.33713075 -31.306204374999986 75.713722125 -30.731220624999985 L65.10768825000001 -20.12518674999999 Q64.606969125 -19.624467624999987 63.77625075 -19.510654374999987 Q62.945532375 -19.396841124999987 62.118561750000005 -20.22381174999999 Z M23.305777875 0.2750000000000128 Q20.419517250000002 0.2750000000000128 18.479070375 -1.6654468749999882 Q16.5386235 -3.6058937499999857 16.5386235 -6.492154374999988 V-60.02284562499999 Q16.5386235 -62.909106249999994 18.479070375 -64.849553125 Q20.419517250000002 -66.78999999999999 23.305777875 -66.78999999999999 H46.02769575000001 Q46.824092625000006 -66.78999999999999 47.4879375 -66.126155125 Q48.151782375 -65.462408875 48.151782375 -64.62024999999998 Q48.151782375 -63.778189749999996 47.4879375 -63.114344874999986 Q46.824092625000006 -62.45049999999999 46.02769575000001 -62.45049999999999 H23.305777875 Q22.395469125 -62.45049999999999 21.636845625 -61.69187649999999 Q20.8781235 -60.93315437499999 20.8781235 -60.02284562499999 V-6.492154374999988 Q20.8781235 -5.5818456249999855 21.636845625 -4.823222124999987 Q22.395469125 -4.064499999999988 23.305777875 -4.064499999999988 H46.02769575000001 Q46.824092625000006 -4.064499999999988 47.4879375 -3.4006551249999877 Q48.151782375 -2.736908874999985 48.151782375 -1.8947499999999877 Q48.151782375 -1.0526897499999865 47.4879375 -0.388844874999986 Q46.824092625000006 0.2750000000000128 46.02769575000001 0.2750000000000128 H23.305777875 Z"/></g><g id="Ultralight-S" transform="matrix(1 0 0 1 517.792 696)"><path d="M62.824125 -20.929374999999986 Q62.232375000000005 -21.323874999999987 62.232375000000005 -21.927953124999988 Q62.232375000000005 -22.53203124999999 62.824125 -23.099124999999987 L70.81275000000001 -31.087749999999986 H38.365125 Q37.773375 -31.087749999999986 37.28025 -31.580874999999992 Q36.787125 -32.07399999999999 36.787125 -32.66574999999999 Q36.787125 -33.257499999999986 37.28025 -33.750624999999985 Q37.773375 -34.24374999999999 38.365125 -34.24374999999999 H70.516875 L62.626875000000005 -42.23237499999999 Q62.331 -42.65320787499999 62.331 -43.18242962499999 Q62.331 -43.71174999999999 62.824125 -44.20487499999999 Q63.39121875 -44.697999999999986 63.995296875 -44.697999999999986 Q64.59937500000001 -44.697999999999986 65.191125 -44.10624999999999 L74.461875 -34.83549999999999 Q75.062599875 -34.28319999999999 75.304625625 -33.72103749999999 Q75.54675 -33.15887499999999 75.54675 -32.56712499999999 Q75.54675 -31.975374999999985 75.304625625 -31.413212499999986 Q75.062599875 -30.851049999999994 74.461875 -30.29874999999999 L64.993875 -20.830749999999988 Q64.69800000000001 -20.534874999999985 64.10625 -20.386937499999988 Q63.514500000000005 -20.23899999999999 62.824125 -20.929374999999986 Z M24.261750000000003 0.2750000000000128 Q21.53476875 0.2750000000000128 19.742259375000003 -1.5175093749999888 Q17.94975 -3.310018749999987 17.94975 -6.036999999999988 V-59.294499999999985 Q17.94975 -62.021481249999994 19.742259375000003 -63.81399062499999 Q21.53476875 -65.60649999999998 24.261750000000003 -65.60649999999998 H46.892538375 Q47.438625 -65.60649999999998 47.93175 -65.11337499999999 Q48.424875 -64.62024999999998 48.424875 -64.0285 Q48.424875 -63.43674999999999 47.93175 -62.94362499999998 Q47.438625 -62.45049999999999 46.892538375 -62.45049999999999 H24.261750000000003 Q23.07825 -62.45049999999999 22.092000000000002 -61.46424999999999 Q21.10575 -60.477999999999994 21.10575 -59.294499999999985 V-6.036999999999988 Q21.10575 -4.853499999999986 22.092000000000002 -3.867249999999988 Q23.07825 -2.880999999999988 24.261750000000003 -2.880999999999988 H46.892538375 Q47.438625 -2.880999999999988 47.93175 -2.387874999999987 Q48.424875 -1.8947499999999877 48.424875 -1.3029999999999866 Q48.424875 -0.7112499999999873 47.93175 -0.21812499999998636 Q47.438625 0.2750000000000128 46.892538375 0.2750000000000128 H24.261750000000003 Z"/></g></g></svg>