<svg xmlns="http://www.w3.org/2000/svg" version="1.1" width="3300" height="2000"><g id="Notes"><style>
    text {
      font-family: monospace;
      text-anchor: middle;
    }
    text.emphasis {
      font-weight:bold;
    }
    text.lanchor {
      text-anchor: start;
    }
  </style><rect height="2200" id="artboard" fill="white" width="3300" x="0" y="0"/><line id="" style="fill:none;stroke:black;stroke-width:0.5;" x1="263" x2="3036" y1="292" y2="292"/><text class="lanchor emphasis" transform="matrix(1 0 0 1 263 322)">Weight/Scale Variations</text><text transform="matrix(1 0 0 1 559.711 322)">Ultralight</text><text transform="matrix(1 0 0 1 856.422 322)">Thin</text><text transform="matrix(1 0 0 1 1153.13 322)">Light</text><text transform="matrix(1 0 0 1 1449.84 322)">Regular</text><text transform="matrix(1 0 0 1 1746.56 322)">Medium</text><text transform="matrix(1 0 0 1 2043.27 322)">Semibold</text><text transform="matrix(1 0 0 1 2339.98 322)">Bold</text><text transform="matrix(1 0 0 1 2636.69 322)">Heavy</text><text transform="matrix(1 0 0 1 2933.4 322)">Black</text><text id="template-version" style="text-anchor: end;" transform="matrix(1 0 0 1 3036 1933)">Template v.1.0</text><text class="lanchor" transform="matrix(1 0 0 1 263 726)">Small</text><text class="lanchor" transform="matrix(1 0 0 1 263 1156)">Medium</text><text class="lanchor" transform="matrix(1 0 0 1 263 1586)">Large</text></g><g id="Guides"><g id="H-reference" style="fill:#27AAE1;stroke:none;" transform="matrix(1 0 0 1 339 696)"><path d="M 54.9316 0 L 57.666 0 L 30.5664 -70.459 L 28.0762 -70.459 L 0.976562 0 L 3.66211 0 L 12.9395 -24.4629 L 45.7031 -24.4629 Z M 29.1992 -67.0898 L 29.4434 -67.0898 L 44.8242 -26.709 L 13.8184 -26.709 Z"/></g><line id="Baseline-S" style="fill:none;stroke:#27AAE1;opacity:1;stroke-width:0.577;" x1="263" x2="3036" y1="696" y2="696"/><line id="Capline-S" style="fill:none;stroke:#27AAE1;opacity:1;stroke-width:0.577;" x1="263" x2="3036" y1="625.541" y2="625.541"/><g id="H-reference" style="fill:#27AAE1;stroke:none;" transform="matrix(1 0 0 1 339 1126)"><path d="M 54.9316 0 L 57.666 0 L 30.5664 -70.459 L 28.0762 -70.459 L 0.976562 0 L 3.66211 0 L 12.9395 -24.4629 L 45.7031 -24.4629 Z M 29.1992 -67.0898 L 29.4434 -67.0898 L 44.8242 -26.709 L 13.8184 -26.709 Z"/></g><line id="Baseline-M" style="fill:none;stroke:#27AAE1;opacity:1;stroke-width:0.577;" x1="263" x2="3036" y1="1126" y2="1126"/><line id="Capline-M" style="fill:none;stroke:#27AAE1;opacity:1;stroke-width:0.577;" x1="263" x2="3036" y1="1055.54" y2="1055.54"/><g id="H-reference" style="fill:#27AAE1;stroke:none;" transform="matrix(1 0 0 1 339 1556)"><path d="M 54.9316 0 L 57.666 0 L 30.5664 -70.459 L 28.0762 -70.459 L 0.976562 0 L 3.66211 0 L 12.9395 -24.4629 L 45.7031 -24.4629 Z M 29.1992 -67.0898 L 29.4434 -67.0898 L 44.8242 -26.709 L 13.8184 -26.709 Z"/></g><line id="Baseline-L" style="fill:none;stroke:#27AAE1;opacity:1;stroke-width:0.577;" x1="263" x2="3036" y1="1556" y2="1556"/><line id="Capline-L" style="fill:none;stroke:#27AAE1;opacity:1;stroke-width:0.577;" x1="263" x2="3036" y1="1485.54" y2="1485.54"/><rect height="119.336" id="left-margin" style="fill:darkred;stroke:none;opacity:0.4;" width="12.4512" x="1394.06" y="1030.79"/><rect height="119.336" id="right-margin" style="fill:darkgreen;stroke:none;opacity:0.4;" width="12.4512" x="1502.5112" y="1030.79"/><rect x="1406.5112" y="1045" width="96" height="96" fill="none" stroke="blue" stroke-dasharray="5"/><rect x="1394.06" y="1030.79" width="120.9024" height="119.336" fill="none" stroke="blue"/></g><g id="Symbols"><g id="Bold-L" transform="matrix(1 0 0 1 2266 1556)"><path d="M24.1875 7.985000000000014 Q21.0028125 7.985000000000014 18.80578125 5.7799062500000105 Q16.60875 3.5746512500000165 16.60875 0.3780312500000136 Q16.60875 -2.818749999999987 18.80578125 -4.995624999999983 Q21.0028125 -7.172499999999985 24.1875 -7.172499999999985 H130.6125 Q133.7971875 -7.172499999999985 135.99421875000002 -4.967406249999982 Q138.19125 -2.762151249999988 138.19125 0.43446875000001484 Q138.19125 3.6312500000000156 135.99421875000002 5.808125000000018 Q133.7971875 7.985000000000014 130.6125 7.985000000000014 H24.1875 Z M24.1875 -27.65124999999999 Q21.0028125 -27.65124999999999 18.80578125 -29.856343749999994 Q16.60875 -32.06159874999999 16.60875 -35.25821874999998 Q16.60875 -38.454999999999984 18.80578125 -40.63187499999998 Q21.0028125 -42.80874999999999 24.1875 -42.80874999999999 H130.6125 Q133.7971875 -42.80874999999999 135.99421875000002 -40.60365625 Q138.19125 -38.39840124999999 138.19125 -35.20178124999998 Q138.19125 -32.00499999999998 135.99421875000002 -29.828124999999986 Q133.7971875 -27.65124999999999 130.6125 -27.65124999999999 H24.1875 Z M24.1875 -63.28749999999998 Q21.0028125 -63.28749999999998 18.80578125 -65.49259374999998 Q16.60875 -67.69784874999999 16.60875 -70.89446874999997 Q16.60875 -74.09124999999999 18.80578125 -76.34874999999998 Q21.0028125 -78.60624999999999 24.1875 -78.60624999999999 H130.6125 Q133.7971875 -78.60624999999999 135.99421875000002 -76.32053124999999 Q138.19125 -74.03465124999998 138.19125 -70.83803125 Q138.19125 -67.64124999999999 135.99421875000002 -65.46437499999999 Q133.7971875 -63.28749999999998 130.6125 -63.28749999999998 H24.1875 Z"/></g><g id="Semibold-L" transform="matrix(1 0 0 1 1970.27 1556)"><path d="M24.1875 6.022103750000014 Q21.493496250000003 6.022103750000014 19.647022500000002 4.167406250000013 Q17.80054875 2.312870000000018 17.80054875 -0.39322749999998763 Q17.80054875 -3.099163749999981 19.647022500000002 -4.925481249999983 Q21.493496250000003 -6.751798749999992 24.1875 -6.751798749999992 H130.6125 Q133.30650375 -6.751798749999992 135.15297750000002 -4.897262499999982 Q136.99945125000002 -3.042564999999982 136.99945125000002 -0.3366287499999885 Q136.99945125000002 2.369307500000019 135.15297750000002 4.195786250000019 Q133.30650375 6.022103750000014 130.6125 6.022103750000014 H24.1875 Z M24.1875 -28.843048749999994 Q21.493496250000003 -28.843048749999994 19.647022500000002 -30.69758499999999 Q17.80054875 -32.55228249999999 17.80054875 -35.25821874999998 Q17.80054875 -37.96431624999998 19.647022500000002 -39.790633749999984 Q21.493496250000003 -41.616951249999985 24.1875 -41.616951249999985 H130.6125 Q133.30650375 -41.616951249999985 135.15297750000002 -39.76241499999999 Q136.99945125000002 -37.90771749999999 136.99945125000002 -35.20178124999998 Q136.99945125000002 -32.49568374999998 135.15297750000002 -30.66936624999998 Q133.30650375 -28.843048749999994 130.6125 -28.843048749999994 H24.1875 Z M24.1875 -63.70820124999999 Q21.493496250000003 -63.70820124999999 19.647022500000002 -65.56273749999998 Q17.80054875 -67.41743499999998 17.80054875 -70.12337124999999 Q17.80054875 -72.82930749999998 19.647022500000002 -74.70125875 Q21.493496250000003 -76.57320999999999 24.1875 -76.57320999999999 H130.6125 Q133.30650375 -76.57320999999999 135.15297750000002 -74.67303999999997 Q136.99945125000002 -72.77286999999998 136.99945125000002 -70.0667725 Q136.99945125000002 -67.36083624999998 135.15297750000002 -65.53451874999998 Q133.30650375 -63.70820124999999 130.6125 -63.70820124999999 H24.1875 Z"/></g><g id="Medium-L" transform="matrix(1 0 0 1 1674.31 1556)"><path d="M24.1875 4.549730000000018 Q21.861629999999998 4.549730000000018 20.27799375 2.958031250000012 Q18.69451875 1.3663325000000128 18.69451875 -0.9716312499999873 Q18.69451875 -3.3094337499999895 20.27799375 -4.872913749999981 Q21.861629999999998 -6.436393749999986 24.1875 -6.436393749999986 H130.6125 Q132.93837 -6.436393749999986 134.52200625 -4.844694999999987 Q136.10548125000003 -3.252996249999981 136.10548125000003 -0.9150324999999881 Q136.10548125000003 1.422770000000014 134.52200625 2.9862500000000125 Q132.93837 4.549730000000018 130.6125 4.549730000000018 H24.1875 Z M24.1875 -29.73701874999999 Q21.861629999999998 -29.73701874999999 20.27799375 -31.328717499999982 Q18.69451875 -32.92041624999999 18.69451875 -35.25821874999998 Q18.69451875 -37.59618249999998 20.27799375 -39.15966249999998 Q21.861629999999998 -40.72298124999999 24.1875 -40.72298124999999 H130.6125 Q132.93837 -40.72298124999999 134.52200625 -39.13128249999998 Q136.10548125000003 -37.53958374999998 136.10548125000003 -35.20178124999998 Q136.10548125000003 -32.863817499999996 134.52200625 -31.300337499999983 Q132.93837 -29.73701874999999 130.6125 -29.73701874999999 H24.1875 Z M24.1875 -64.02360625 Q21.861629999999998 -64.02360625 20.27799375 -65.61530499999999 Q18.69451875 -67.20700374999998 18.69451875 -69.5449675 Q18.69451875 -71.88276999999998 20.27799375 -73.4656 Q21.861629999999998 -75.04826874999998 24.1875 -75.04826874999998 H130.6125 Q132.93837 -75.04826874999998 134.52200625 -73.43721999999998 Q136.10548125000003 -71.82633249999998 136.10548125000003 -69.48836874999999 Q136.10548125000003 -67.15056624999998 134.52200625 -65.58708624999998 Q132.93837 -64.02360625 130.6125 -64.02360625 H24.1875 Z"/></g><g id="Regular-L" transform="matrix(1 0 0 1 1378.56 1556)"><path d="M24.1875 3.470000000000013 Q22.1315625 3.470000000000013 20.74078125 2.0711562500000156 Q19.35 0.6721512500000131 19.35 -1.3957187499999861 Q19.35 -3.4637499999999832 20.74078125 -4.834374999999987 Q22.1315625 -6.204999999999984 24.1875 -6.204999999999984 H130.6125 Q132.6684375 -6.204999999999984 134.05921875 -4.806156249999987 Q135.45000000000002 -3.407151249999984 135.45000000000002 -1.3392812499999849 Q135.45000000000002 0.7287500000000122 134.05921875 2.099375000000016 Q132.6684375 3.470000000000013 130.6125 3.470000000000013 H24.1875 Z M24.1875 -30.392499999999984 Q22.1315625 -30.392499999999984 20.74078125 -31.79134374999998 Q19.35 -33.190348749999984 19.35 -35.25821874999998 Q19.35 -37.32624999999999 20.74078125 -38.69687499999999 Q22.1315625 -40.06749999999998 24.1875 -40.06749999999998 H130.6125 Q132.6684375 -40.06749999999998 134.05921875 -38.668656249999984 Q135.45000000000002 -37.26965124999998 135.45000000000002 -35.20178124999998 Q135.45000000000002 -33.13374999999999 134.05921875 -31.763124999999988 Q132.6684375 -30.392499999999984 130.6125 -30.392499999999984 H24.1875 Z M24.1875 -64.25499999999998 Q22.1315625 -64.25499999999998 20.74078125 -65.65384374999998 Q19.35 -67.05284874999998 19.35 -69.12071874999998 Q19.35 -71.18874999999998 20.74078125 -72.55937499999999 Q22.1315625 -73.92999999999999 24.1875 -73.92999999999999 H130.6125 Q132.6684375 -73.92999999999999 134.05921875 -72.53115625 Q135.45000000000002 -71.13215124999999 135.45000000000002 -69.06428125 Q135.45000000000002 -66.99624999999999 134.05921875 -65.62562499999999 Q132.6684375 -64.25499999999998 130.6125 -64.25499999999998 H24.1875 Z"/></g><g id="Light-L" transform="matrix(1 0 0 1 1082.77 1556)"><path d="M24.62174625 1.1131700000000109 Q23.06649 1.1131700000000109 22.01465625 0.05198375000001221 Q20.96266125 -1.0090412499999815 20.96266125 -2.5775199999999856 Q20.96266125 -4.145998749999983 22.01465625 -5.175579999999982 Q23.06649 -6.204999999999984 24.62174625 -6.204999999999984 H130.17825375 Q131.73334875 -6.204999999999984 132.78534375 -5.14397499999999 Q133.83733875000001 -4.0829499999999825 133.83733875000001 -2.5144712499999855 Q133.83733875000001 -0.9458312499999835 132.78534375 0.08358875000001831 Q131.73334875 1.1131700000000109 130.17825375 1.1131700000000109 H24.62174625 Z M24.62174625 -31.570914999999985 Q23.06649 -31.570914999999985 22.01465625 -32.631939999999986 Q20.96266125 -33.69312624999999 20.96266125 -35.26160499999999 Q20.96266125 -36.830083749999986 22.01465625 -37.85950374999999 Q23.06649 -38.889084999999994 24.62174625 -38.889084999999994 H130.17825375 Q131.73334875 -38.889084999999994 132.78534375 -37.828059999999994 Q133.83733875000001 -36.76687374999999 133.83733875000001 -35.19839499999998 Q133.83733875000001 -33.62991624999998 132.78534375 -32.60049624999998 Q131.73334875 -31.570914999999985 130.17825375 -31.570914999999985 H24.62174625 Z M24.62174625 -64.25499999999998 Q23.06649 -64.25499999999998 22.01465625 -65.316025 Q20.96266125 -66.37704999999998 20.96266125 -67.94552874999998 Q20.96266125 -69.51416874999998 22.01465625 -70.54358875 Q23.06649 -71.57316999999999 24.62174625 -71.57316999999999 H130.17825375 Q131.73334875 -71.57316999999999 132.78534375 -70.51198374999998 Q133.83733875000001 -69.45095874999998 133.83733875000001 -67.88247999999999 Q133.83733875000001 -66.31400124999999 132.78534375 -65.28441999999998 Q131.73334875 -64.25499999999998 130.17825375 -64.25499999999998 H24.62174625 Z"/></g><g id="Thin-L" transform="matrix(1 0 0 1 787.282 1556)"><path d="M25.05583125 -1.2434987499999863 Q24.001417500000002 -1.2434987499999863 23.288208750000003 -1.9667049999999833 Q22.575 -2.6899112499999873 22.575 -3.7589987499999893 Q22.575 -4.828086249999984 23.288208750000003 -5.516623749999987 Q24.001417500000002 -6.204999999999984 25.05583125 -6.204999999999984 H129.74416875 Q130.7985825 -6.204999999999984 131.51179125000002 -5.48179374999998 Q132.225 -4.758587499999983 132.225 -3.6893387499999832 Q132.225 -2.6202512499999884 131.51179125000002 -1.9318749999999838 Q130.7985825 -1.2434987499999863 129.74416875 -1.2434987499999863 H25.05583125 Z M25.05583125 -32.74916874999998 Q24.001417500000002 -32.74916874999998 23.288208750000003 -33.472374999999985 Q22.575 -34.195742499999994 22.575 -35.26482999999999 Q22.575 -36.333917499999984 23.288208750000003 -37.02229374999999 Q24.001417500000002 -37.710831249999984 25.05583125 -37.710831249999984 H129.74416875 Q130.7985825 -37.710831249999984 131.51179125000002 -36.98762499999998 Q132.225 -36.264257499999985 132.225 -35.19516999999999 Q132.225 -34.12608249999998 131.51179125000002 -33.43770624999999 Q130.7985825 -32.74916874999998 129.74416875 -32.74916874999998 H25.05583125 Z M25.05583125 -64.25499999999998 Q24.001417500000002 -64.25499999999998 23.288208750000003 -64.97820624999999 Q22.575 -65.70141249999999 22.575 -66.77066124999999 Q22.575 -67.83974874999998 23.288208750000003 -68.52812499999999 Q24.001417500000002 -69.21650125 25.05583125 -69.21650125 H129.74416875 Q130.7985825 -69.21650125 131.51179125000002 -68.49329499999999 Q132.225 -67.77008874999999 132.225 -66.70100124999999 Q132.225 -65.63191374999998 131.51179125000002 -64.94337624999999 Q130.7985825 -64.25499999999998 129.74416875 -64.25499999999998 H25.05583125 Z"/></g><g id="Ultralight-L" transform="matrix(1 0 0 1 491.205 1556)"><path d="M25.31625 -2.6574999999999847 Q24.56240625 -2.6574999999999847 24.052533750000002 -3.178014999999988 Q23.5425 -3.698529999999991 23.5425 -4.468014999999987 Q23.5425 -5.237499999999983 24.052533750000002 -5.7212499999999835 Q24.56240625 -6.204999999999984 25.31625 -6.204999999999984 H129.48375000000001 Q130.23759375 -6.204999999999984 130.7476275 -5.684484999999981 Q131.2575 -5.163969999999985 131.2575 -4.394484999999982 Q131.2575 -3.624999999999986 130.7476275 -3.141249999999985 Q130.23759375 -2.6574999999999847 129.48375000000001 -2.6574999999999847 H25.31625 Z M25.31625 -33.45624999999998 Q24.56240625 -33.45624999999998 24.052533750000002 -33.976764999999986 Q23.5425 -34.49727999999999 23.5425 -35.26676499999999 Q23.5425 -36.03624999999998 24.052533750000002 -36.51999999999998 Q24.56240625 -37.00374999999998 25.31625 -37.00374999999998 H129.48375000000001 Q130.23759375 -37.00374999999998 130.7476275 -36.48323499999998 Q131.2575 -35.96271999999999 131.2575 -35.19323499999999 Q131.2575 -34.423749999999984 130.7476275 -33.93999999999998 Q130.23759375 -33.45624999999998 129.48375000000001 -33.45624999999998 H25.31625 Z M25.31625 -64.25499999999998 Q24.56240625 -64.25499999999998 24.052533750000002 -64.77551499999998 Q23.5425 -65.29602999999999 23.5425 -66.06551499999998 Q23.5425 -66.835 24.052533750000002 -67.31874999999998 Q24.56240625 -67.80249999999998 25.31625 -67.80249999999998 H129.48375000000001 Q130.23759375 -67.80249999999998 130.7476275 -67.28198499999999 Q131.2575 -66.76146999999999 131.2575 -65.991985 Q131.2575 -65.22249999999998 130.7476275 -64.73874999999998 Q130.23759375 -64.25499999999998 129.48375000000001 -64.25499999999998 H25.31625 Z"/></g><g id="Bold-M" transform="matrix(1 0 0 1 2281.8 1126)"><path d="M20.0 -0.47999999999998977 Q16.75 -0.47999999999998977 14.4375 -2.7924999999999898 Q12.125 -5.10499999999999 12.125 -8.35499999999999 Q12.125 -11.60499999999999 14.4375 -13.91749999999999 Q16.75 -16.22999999999999 20.0 -16.22999999999999 H100.0 Q103.25 -16.22999999999999 105.5625 -13.91749999999999 Q107.875 -11.60499999999999 107.875 -8.35499999999999 Q107.875 -5.10499999999999 105.5625 -2.7924999999999898 Q103.25 -0.47999999999998977 100.0 -0.47999999999998977 H20.0 Z M20.0 -27.35499999999999 Q16.75 -27.35499999999999 14.4375 -29.66749999999999 Q12.125 -31.97999999999999 12.125 -35.22999999999999 Q12.125 -38.47999999999999 14.4375 -40.79249999999999 Q16.75 -43.10499999999999 20.0 -43.10499999999999 H100.0 Q103.25 -43.10499999999999 105.5625 -40.79249999999999 Q107.875 -38.47999999999999 107.875 -35.22999999999999 Q107.875 -31.97999999999999 105.5625 -29.66749999999999 Q103.25 -27.35499999999999 100.0 -27.35499999999999 H20.0 Z M20.0 -54.22999999999999 Q16.75 -54.22999999999999 14.4375 -56.54249999999999 Q12.125 -58.85499999999999 12.125 -62.10499999999999 Q12.125 -65.35499999999999 14.4375 -67.66749999999999 Q16.75 -69.97999999999999 20.0 -69.97999999999999 H100.0 Q103.25 -69.97999999999999 105.5625 -67.66749999999999 Q107.875 -65.35499999999999 107.875 -62.10499999999999 Q107.875 -58.85499999999999 105.5625 -56.54249999999999 Q103.25 -54.22999999999999 100.0 -54.22999999999999 H20.0 Z"/></g><g id="Semibold-M" transform="matrix(1 0 0 1 1985.97 1126)"><path d="M20.0 -2.545124999999988 Q17.239125 -2.545124999999988 15.307 -4.47712499999999 Q13.374875 -6.4092499999999895 13.374875 -9.170124999999992 Q13.374875 -11.931124999999987 15.307 -13.86312499999999 Q17.239125 -15.795249999999989 20.0 -15.795249999999989 H100.0 Q102.760875 -15.795249999999989 104.693 -13.86312499999999 Q106.625125 -11.931124999999987 106.625125 -9.170124999999992 Q106.625125 -6.4092499999999895 104.693 -4.47712499999999 Q102.760875 -2.545124999999988 100.0 -2.545124999999988 H20.0 Z M20.0 -28.604874999999993 Q17.239125 -28.604874999999993 15.307 -30.536999999999992 Q13.374875 -32.46912499999999 13.374875 -35.22999999999999 Q13.374875 -37.99087499999999 15.307 -39.92299999999999 Q17.239125 -41.85512499999999 20.0 -41.85512499999999 H100.0 Q102.760875 -41.85512499999999 104.693 -39.92299999999999 Q106.625125 -37.99087499999999 106.625125 -35.22999999999999 Q106.625125 -32.46912499999999 104.693 -30.536999999999992 Q102.760875 -28.604874999999993 100.0 -28.604874999999993 H20.0 Z M20.0 -54.664749999999984 Q17.239125 -54.664749999999984 15.307 -56.59687499999998 Q13.374875 -58.528874999999985 13.374875 -61.289874999999995 Q13.374875 -64.05075 15.307 -65.98287499999999 Q17.239125 -67.914875 20.0 -67.914875 H100.0 Q102.760875 -67.914875 104.693 -65.98287499999999 Q106.625125 -64.05075 106.625125 -61.289874999999995 Q106.625125 -58.528874999999985 104.693 -56.59687499999998 Q102.760875 -54.664749999999984 100.0 -54.664749999999984 H20.0 Z"/></g><g id="Medium-M" transform="matrix(1 0 0 1 1689.91 1126)"><path d="M20.0 -4.094124999999991 Q17.606 -4.094124999999991 15.95925 -5.740874999999988 Q14.3125 -7.387624999999993 14.3125 -9.781624999999991 Q14.3125 -12.17562499999999 15.95925 -13.822374999999987 Q17.606 -15.469124999999991 20.0 -15.469124999999991 H100.0 Q102.394 -15.469124999999991 104.04075 -13.822374999999987 Q105.6875 -12.17562499999999 105.6875 -9.781624999999991 Q105.6875 -7.387624999999993 104.04075 -5.740874999999988 Q102.394 -4.094124999999991 100.0 -4.094124999999991 H20.0 Z M20.0 -29.54249999999999 Q17.606 -29.54249999999999 15.95925 -31.189249999999987 Q14.3125 -32.83599999999999 14.3125 -35.22999999999999 Q14.3125 -37.62399999999999 15.95925 -39.27074999999999 Q17.606 -40.91749999999999 20.0 -40.91749999999999 H100.0 Q102.394 -40.91749999999999 104.04075 -39.27074999999999 Q105.6875 -37.62399999999999 105.6875 -35.22999999999999 Q105.6875 -32.83599999999999 104.04075 -31.189249999999987 Q102.394 -29.54249999999999 100.0 -29.54249999999999 H20.0 Z M20.0 -54.99087499999999 Q17.606 -54.99087499999999 15.95925 -56.637624999999986 Q14.3125 -58.28437499999998 14.3125 -60.67837499999999 Q14.3125 -63.072374999999994 15.95925 -64.71912499999999 Q17.606 -66.36587499999999 20.0 -66.36587499999999 H100.0 Q102.394 -66.36587499999999 104.04075 -64.71912499999999 Q105.6875 -63.072374999999994 105.6875 -60.67837499999999 Q105.6875 -58.28437499999998 104.04075 -56.637624999999986 Q102.394 -54.99087499999999 100.0 -54.99087499999999 H20.0 Z"/></g><g id="Regular-M" transform="matrix(1 0 0 1 1394.06 1126)"><path d="M20.0 -5.22999999999999 Q17.875 -5.22999999999999 16.4375 -6.66749999999999 Q15.0 -8.10499999999999 15.0 -10.22999999999999 Q15.0 -12.35499999999999 16.4375 -13.79249999999999 Q17.875 -15.22999999999999 20.0 -15.22999999999999 H100.0 Q102.125 -15.22999999999999 103.5625 -13.79249999999999 Q105.0 -12.35499999999999 105.0 -10.22999999999999 Q105.0 -8.10499999999999 103.5625 -6.66749999999999 Q102.125 -5.22999999999999 100.0 -5.22999999999999 H20.0 Z M20.0 -30.22999999999999 Q17.875 -30.22999999999999 16.4375 -31.66749999999999 Q15.0 -33.10499999999999 15.0 -35.22999999999999 Q15.0 -37.35499999999999 16.4375 -38.79249999999999 Q17.875 -40.22999999999999 20.0 -40.22999999999999 H100.0 Q102.125 -40.22999999999999 103.5625 -38.79249999999999 Q105.0 -37.35499999999999 105.0 -35.22999999999999 Q105.0 -33.10499999999999 103.5625 -31.66749999999999 Q102.125 -30.22999999999999 100.0 -30.22999999999999 H20.0 Z M20.0 -55.22999999999999 Q17.875 -55.22999999999999 16.4375 -56.66749999999999 Q15.0 -58.10499999999999 15.0 -60.22999999999999 Q15.0 -62.35499999999999 16.4375 -63.79249999999999 Q17.875 -65.22999999999999 20.0 -65.22999999999999 H100.0 Q102.125 -65.22999999999999 103.5625 -63.79249999999999 Q105.0 -62.35499999999999 105.0 -60.22999999999999 Q105.0 -58.10499999999999 103.5625 -56.66749999999999 Q102.125 -55.22999999999999 100.0 -55.22999999999999 H20.0 Z"/></g><g id="Light-M" transform="matrix(1 0 0 1 1098.18 1126)"><path d="M20.0 -7.0569999999999915 Q18.40625 -7.0569999999999915 17.32825 -8.13562499999999 Q16.250125 -9.214249999999993 16.250125 -10.808624999999992 Q16.250125 -12.403124999999989 17.32825 -13.47999999999999 Q18.40625 -14.556874999999991 20.0 -14.556874999999991 H100.0 Q101.59375 -14.556874999999991 102.671875 -13.478249999999989 Q103.749875 -12.39974999999999 103.749875 -10.805249999999987 Q103.749875 -9.210874999999987 102.671875 -8.133999999999993 Q101.59375 -7.0569999999999915 100.0 -7.0569999999999915 H20.0 Z M20.0 -31.480124999999987 Q18.40625 -31.480124999999987 17.32825 -32.55862499999999 Q16.250125 -33.63724999999999 16.250125 -35.23162499999999 Q16.250125 -36.82612499999999 17.32825 -37.90299999999999 Q18.40625 -38.97987499999999 20.0 -38.97987499999999 H100.0 Q101.59375 -38.97987499999999 102.671875 -37.90137499999999 Q103.749875 -36.82274999999999 103.749875 -35.22837499999999 Q103.749875 -33.63387499999999 102.671875 -32.55699999999999 Q101.59375 -31.480124999999987 100.0 -31.480124999999987 H20.0 Z M20.0 -55.90312499999999 Q18.40625 -55.90312499999999 17.32825 -56.98174999999999 Q16.250125 -58.060249999999996 16.250125 -59.65474999999999 Q16.250125 -61.24912499999999 17.32825 -62.32599999999999 Q18.40625 -63.40299999999999 20.0 -63.40299999999999 H100.0 Q101.59375 -63.40299999999999 102.671875 -62.32437499999999 Q103.749875 -61.24574999999999 103.749875 -59.65137499999999 Q103.749875 -58.05687499999999 102.671875 -56.97999999999999 Q101.59375 -55.90312499999999 100.0 -55.90312499999999 H20.0 Z"/></g><g id="Thin-M" transform="matrix(1 0 0 1 802.565 1126)"><path d="M20.0 -8.883874999999989 Q18.9375 -8.883874999999989 18.21875 -9.60349999999999 Q17.5 -10.323249999999987 17.5 -11.387249999999987 Q17.5 -12.45112499999999 18.21875 -13.16749999999999 Q18.9375 -13.883874999999989 20.0 -13.883874999999989 H100.0 Q101.0625 -13.883874999999989 101.78125 -13.164124999999991 Q102.5 -12.444374999999987 102.5 -11.38049999999999 Q102.5 -10.31649999999999 101.78125 -9.600124999999991 Q101.0625 -8.883874999999989 100.0 -8.883874999999989 H20.0 Z M20.0 -32.72999999999999 Q18.9375 -32.72999999999999 18.21875 -33.44974999999999 Q17.5 -34.16937499999999 17.5 -35.23337499999999 Q17.5 -36.29737499999999 18.21875 -37.01362499999999 Q18.9375 -37.72999999999999 20.0 -37.72999999999999 H100.0 Q101.0625 -37.72999999999999 101.78125 -37.01024999999999 Q102.5 -36.29062499999999 102.5 -35.22662499999999 Q102.5 -34.16262499999999 101.78125 -33.44637499999999 Q101.0625 -32.72999999999999 100.0 -32.72999999999999 H20.0 Z M20.0 -56.57612499999999 Q18.9375 -56.57612499999999 18.21875 -57.295874999999995 Q17.5 -58.015624999999986 17.5 -59.079499999999996 Q17.5 -60.14349999999999 18.21875 -60.85987499999999 Q18.9375 -61.57612499999999 20.0 -61.57612499999999 H100.0 Q101.0625 -61.57612499999999 101.78125 -60.85649999999998 Q102.5 -60.13674999999999 102.5 -59.072749999999985 Q102.5 -58.00887499999999 101.78125 -57.29249999999999 Q101.0625 -56.57612499999999 100.0 -56.57612499999999 H20.0 Z"/></g><g id="Ultralight-M" transform="matrix(1 0 0 1 506.415 1126)"><path d="M20.0 -9.97999999999999 Q19.25625 -9.97999999999999 18.753125 -10.484374999999993 Q18.25 -10.988749999999989 18.25 -11.734374999999993 Q18.25 -12.47999999999999 18.753125 -12.97999999999999 Q19.25625 -13.47999999999999 20.0 -13.47999999999999 H100.0 Q100.74375 -13.47999999999999 101.246875 -12.975624999999987 Q101.75 -12.47124999999999 101.75 -11.725624999999987 Q101.75 -10.97999999999999 101.246875 -10.47999999999999 Q100.74375 -9.97999999999999 100.0 -9.97999999999999 H20.0 Z M20.0 -33.47999999999999 Q19.25625 -33.47999999999999 18.753125 -33.98437499999999 Q18.25 -34.48874999999999 18.25 -35.23437499999999 Q18.25 -35.97999999999999 18.753125 -36.47999999999999 Q19.25625 -36.97999999999999 20.0 -36.97999999999999 H100.0 Q100.74375 -36.97999999999999 101.246875 -36.47562499999999 Q101.75 -35.97124999999999 101.75 -35.22562499999999 Q101.75 -34.47999999999999 101.246875 -33.97999999999999 Q100.74375 -33.47999999999999 100.0 -33.47999999999999 H20.0 Z M20.0 -56.97999999999999 Q19.25625 -56.97999999999999 18.753125 -57.484374999999986 Q18.25 -57.988749999999996 18.25 -58.734374999999986 Q18.25 -59.47999999999999 18.753125 -59.97999999999999 Q19.25625 -60.47999999999999 20.0 -60.47999999999999 H100.0 Q100.74375 -60.47999999999999 101.246875 -59.975624999999994 Q101.75 -59.47124999999998 101.75 -58.725624999999994 Q101.75 -57.97999999999999 101.246875 -57.47999999999999 Q100.74375 -56.97999999999999 100.0 -56.97999999999999 H20.0 Z"/></g><g id="Bold-S" transform="matrix(1 0 0 1 2294.23 696)"><path d="M15.967288875000001 -7.812249999999988 Q13.413 -7.812249999999988 11.489812500000001 -9.735437499999989 Q9.566625 -11.658624999999986 9.566625 -14.222874999999988 Q9.566625 -16.78712499999999 11.489812500000001 -18.710312499999986 Q13.413 -20.63349999999999 15.967288875000001 -20.63349999999999 H78.712711125 Q81.26700000000001 -20.63349999999999 83.19018750000001 -18.710312499999986 Q85.113375 -16.78712499999999 85.113375 -14.222874999999988 Q85.113375 -11.658624999999986 83.19018750000001 -9.735437499999989 Q81.26700000000001 -7.812249999999988 78.712711125 -7.812249999999988 H15.967288875000001 Z M15.967288875000001 -28.819374999999987 Q13.413 -28.819374999999987 11.489812500000001 -30.74256249999999 Q9.566625 -32.66574999999999 9.566625 -35.22999999999999 Q9.566625 -37.79424999999999 11.489812500000001 -39.71743749999999 Q13.413 -41.640624999999986 15.967288875000001 -41.640624999999986 H78.712711125 Q81.26700000000001 -41.640624999999986 83.19018750000001 -39.71743749999999 Q85.113375 -37.79424999999999 85.113375 -35.22999999999999 Q85.113375 -32.66574999999999 83.19018750000001 -30.74256249999999 Q81.26700000000001 -28.819374999999987 78.712711125 -28.819374999999987 H15.967288875000001 Z M15.967288875000001 -49.82649999999999 Q13.413 -49.82649999999999 11.489812500000001 -51.749687499999986 Q9.566625 -53.67287499999999 9.566625 -56.23712499999999 Q9.566625 -58.80137499999999 11.489812500000001 -60.72456249999999 Q13.413 -62.64774999999999 15.967288875000001 -62.64774999999999 H78.712711125 Q81.26700000000001 -62.64774999999999 83.19018750000001 -60.72456249999999 Q85.113375 -58.80137499999999 85.113375 -56.23712499999999 Q85.113375 -53.67287499999999 83.19018750000001 -51.749687499999986 Q81.26700000000001 -49.82649999999999 78.712711125 -49.82649999999999 H15.967288875000001 Z"/></g><g id="Semibold-S" transform="matrix(1 0 0 1 1998.1 696)"><path d="M15.967288875000001 -9.441633624999987 Q13.798919625000002 -9.441633624999987 12.175848 -11.064606624999989 Q10.552776375 -12.687678249999987 10.552776375 -14.866008624999989 Q10.552776375 -17.044437624999986 12.175848 -18.667410624999988 Q13.798919625000002 -20.29048224999999 15.967288875000001 -20.29048224999999 H78.712711125 Q80.881080375 -20.29048224999999 82.504152 -18.667410624999988 Q84.127223625 -17.044437624999986 84.127223625 -14.866008624999989 Q84.127223625 -12.687678249999987 82.504152 -11.064606624999989 Q80.881080375 -9.441633624999987 78.712711125 -9.441633624999987 H15.967288875000001 Z M15.967288875000001 -29.805526374999992 Q13.798919625000002 -29.805526374999992 12.175848 -31.428597999999987 Q10.552776375 -33.05166962499999 10.552776375 -35.22999999999999 Q10.552776375 -37.408330374999984 12.175848 -39.031401999999986 Q13.798919625000002 -40.65447362499999 15.967288875000001 -40.65447362499999 H78.712711125 Q80.881080375 -40.65447362499999 82.504152 -39.031401999999986 Q84.127223625 -37.408330374999984 84.127223625 -35.22999999999999 Q84.127223625 -33.05166962499999 82.504152 -31.428597999999987 Q80.881080375 -29.805526374999992 78.712711125 -29.805526374999992 H15.967288875000001 Z M15.967288875000001 -50.16951774999998 Q13.798919625000002 -50.16951774999998 12.175848 -51.792589374999984 Q10.552776375 -53.41556237499998 10.552776375 -55.59399137499999 Q10.552776375 -57.77232174999999 12.175848 -59.395393375 Q13.798919625000002 -61.018366375 15.967288875000001 -61.018366375 H78.712711125 Q80.881080375 -61.018366375 82.504152 -59.395393375 Q84.127223625 -57.77232174999999 84.127223625 -55.59399137499999 Q84.127223625 -53.41556237499998 82.504152 -51.792589374999984 Q80.881080375 -50.16951774999998 78.712711125 -50.16951774999998 H15.967288875000001 Z"/></g><g id="Medium-S" transform="matrix(1 0 0 1 1701.85 696)"><path d="M15.967288875000001 -10.663794624999987 Q14.088384000000001 -10.663794624999987 12.690473250000002 -12.061705374999985 Q11.2925625 -13.45961612499999 11.2925625 -15.34848212499999 Q11.2925625 -17.237348124999986 12.690473250000002 -18.635258874999984 Q14.088384000000001 -20.033169624999992 15.967288875000001 -20.033169624999992 H78.712711125 Q80.591616 -20.033169624999992 81.98952675000001 -18.635258874999984 Q83.3874375 -17.237348124999986 83.3874375 -15.34848212499999 Q83.3874375 -13.45961612499999 81.98952675000001 -12.061705374999985 Q80.591616 -10.663794624999987 78.712711125 -10.663794624999987 H15.967288875000001 Z M15.967288875000001 -30.545312499999987 Q14.088384000000001 -30.545312499999987 12.690473250000002 -31.94322324999999 Q11.2925625 -33.34113399999999 11.2925625 -35.22999999999999 Q11.2925625 -37.11886599999999 12.690473250000002 -38.51677674999999 Q14.088384000000001 -39.914687499999985 15.967288875000001 -39.914687499999985 H78.712711125 Q80.591616 -39.914687499999985 81.98952675000001 -38.51677674999999 Q83.3874375 -37.11886599999999 83.3874375 -35.22999999999999 Q83.3874375 -33.34113399999999 81.98952675000001 -31.94322324999999 Q80.591616 -30.545312499999987 78.712711125 -30.545312499999987 H15.967288875000001 Z M15.967288875000001 -50.42683037499999 Q14.088384000000001 -50.42683037499999 12.690473250000002 -51.82474112499999 Q11.2925625 -53.22265187499998 11.2925625 -55.11151787499999 Q11.2925625 -57.000383875 12.690473250000002 -58.39829462499999 Q14.088384000000001 -59.796205374999985 15.967288875000001 -59.796205374999985 H78.712711125 Q80.591616 -59.796205374999985 81.98952675000001 -58.39829462499999 Q83.3874375 -57.000383875 83.3874375 -55.11151787499999 Q83.3874375 -53.22265187499998 81.98952675000001 -51.82474112499999 Q80.591616 -50.42683037499999 78.712711125 -50.42683037499999 H15.967288875000001 Z"/></g><g id="Regular-S" transform="matrix(1 0 0 1 1405.73 696)"><path d="M15.967288875000001 -11.559999999999988 Q14.300625 -11.559999999999988 13.0678125 -12.792812499999986 Q11.835 -14.025624999999987 11.835 -15.702249999999989 Q11.835 -17.378874999999987 13.0678125 -18.611687499999988 Q14.300625 -19.84449999999999 15.967288875000001 -19.84449999999999 H78.712711125 Q80.37937500000001 -19.84449999999999 81.6121875 -18.611687499999988 Q82.845 -17.378874999999987 82.845 -15.702249999999989 Q82.845 -14.025624999999987 81.6121875 -12.792812499999986 Q80.37937500000001 -11.559999999999988 78.712711125 -11.559999999999988 H15.967288875000001 Z M15.967288875000001 -31.087749999999986 Q14.300625 -31.087749999999986 13.0678125 -32.32056249999999 Q11.835 -33.55337499999999 11.835 -35.22999999999999 Q11.835 -36.90662499999999 13.0678125 -38.139437499999985 Q14.300625 -39.37224999999999 15.967288875000001 -39.37224999999999 H78.712711125 Q80.37937500000001 -39.37224999999999 81.6121875 -38.139437499999985 Q82.845 -36.90662499999999 82.845 -35.22999999999999 Q82.845 -33.55337499999999 81.6121875 -32.32056249999999 Q80.37937500000001 -31.087749999999986 78.712711125 -31.087749999999986 H15.967288875000001 Z M15.967288875000001 -50.61549999999999 Q14.300625 -50.61549999999999 13.0678125 -51.84831249999999 Q11.835 -53.081124999999986 11.835 -54.75774999999999 Q11.835 -56.43437499999999 13.0678125 -57.66718749999998 Q14.300625 -58.89999999999999 15.967288875000001 -58.89999999999999 H78.712711125 Q80.37937500000001 -58.89999999999999 81.6121875 -57.66718749999998 Q82.845 -56.43437499999999 82.845 -54.75774999999999 Q82.845 -53.081124999999986 81.6121875 -51.84831249999999 Q80.37937500000001 -50.61549999999999 78.712711125 -50.61549999999999 H15.967288875000001 Z"/></g><g id="Light-S" transform="matrix(1 0 0 1 1109.75 696)"><path d="M15.967288875000001 -13.001502999999989 Q14.71978125 -13.001502999999989 13.770614250000001 -13.951163124999987 Q12.821348625 -14.900823249999991 12.821348625 -16.15878512499999 Q12.821348625 -17.416845624999986 13.770614250000001 -18.36512499999999 Q14.71978125 -19.31340437499999 15.967288875000001 -19.31340437499999 H78.712711125 Q79.96021875000001 -19.31340437499999 80.909484375 -18.363744249999986 Q81.85865137500001 -17.414182749999988 81.85865137500001 -16.156122249999985 Q81.85865137500001 -14.898160374999986 80.909484375 -13.94988099999999 Q79.96021875000001 -13.001502999999989 78.712711125 -13.001502999999989 H15.967288875000001 Z M15.967288875000001 -32.07409862499998 Q14.71978125 -32.07409862499998 13.770614250000001 -33.02366012499999 Q12.821348625 -33.973320249999986 12.821348625 -35.231282124999986 Q12.821348625 -36.48934262499999 13.770614250000001 -37.43762199999999 Q14.71978125 -38.38590137499999 15.967288875000001 -38.38590137499999 H78.712711125 Q79.96021875000001 -38.38590137499999 80.909484375 -37.43633987499999 Q81.85865137500001 -36.48667974999999 81.85865137500001 -35.228717874999994 Q81.85865137500001 -33.97065737499999 80.909484375 -33.02237799999999 Q79.96021875000001 -32.07409862499998 78.712711125 -32.07409862499998 H15.967288875000001 Z M15.967288875000001 -51.14659562499999 Q14.71978125 -51.14659562499999 13.770614250000001 -52.09625574999998 Q12.821348625 -53.04581725 12.821348625 -54.30387775 Q12.821348625 -55.56183962499999 13.770614250000001 -56.51011899999999 Q14.71978125 -57.458496999999994 15.967288875000001 -57.458496999999994 H78.712711125 Q79.96021875000001 -57.458496999999994 80.909484375 -56.508836874999986 Q81.85865137500001 -55.55917674999999 81.85865137500001 -54.301214874999985 Q81.85865137500001 -53.043154374999986 80.909484375 -52.09487499999999 Q79.96021875000001 -51.14659562499999 78.712711125 -51.14659562499999 H15.967288875000001 Z"/></g><g id="Thin-S" transform="matrix(1 0 0 1 814.015 696)"><path d="M15.967288875000001 -14.442907374999987 Q15.1389375 -14.442907374999987 14.473218750000001 -15.109316499999988 Q13.807500000000001 -15.775824249999985 13.807500000000001 -16.615320249999986 Q13.807500000000001 -17.454717624999986 14.473218750000001 -18.11856249999999 Q15.1389375 -18.782407374999988 15.967288875000001 -18.782407374999988 H78.712711125 Q79.54106250000001 -18.782407374999988 80.20678125 -18.11589962499999 Q80.8725 -17.449391874999986 80.8725 -16.60999449999999 Q80.8725 -15.770498499999988 80.20678125 -15.10665362499999 Q79.54106250000001 -14.442907374999987 78.712711125 -14.442907374999987 H15.967288875000001 Z M15.967288875000001 -33.06024999999999 Q15.1389375 -33.06024999999999 14.473218750000001 -33.72675774999998 Q13.807500000000001 -34.393166874999984 13.807500000000001 -35.23266287499999 Q13.807500000000001 -36.072158874999985 14.473218750000001 -36.73590512499999 Q15.1389375 -37.39974999999999 15.967288875000001 -37.39974999999999 H78.712711125 Q79.54106250000001 -37.39974999999999 80.20678125 -36.73324224999999 Q80.8725 -36.06683312499999 80.8725 -35.22733712499999 Q80.8725 -34.38784112499999 80.20678125 -33.724094874999984 Q79.54106250000001 -33.06024999999999 78.712711125 -33.06024999999999 H15.967288875000001 Z M15.967288875000001 -51.67759262499999 Q15.1389375 -51.67759262499999 14.473218750000001 -52.344100375 Q13.807500000000001 -53.01060812499999 13.807500000000001 -53.850005499999995 Q13.807500000000001 -54.68950149999999 14.473218750000001 -55.35334637499999 Q15.1389375 -56.01709262499999 15.967288875000001 -56.01709262499999 H78.712711125 Q79.54106250000001 -56.01709262499999 80.20678125 -55.35068349999999 Q80.8725 -54.684175749999994 80.8725 -53.84467974999998 Q80.8725 -53.00528237499999 80.20678125 -52.341437499999984 Q79.54106250000001 -51.67759262499999 78.712711125 -51.67759262499999 H15.967288875000001 Z"/></g><g id="Ultralight-S" transform="matrix(1 0 0 1 517.792 696)"><path d="M15.967288875000001 -15.307749999999988 Q15.390431250000002 -15.307749999999988 14.894840625 -15.80432687499999 Q14.39925 -16.300903749999986 14.39925 -16.88920187499999 Q14.39925 -17.47749999999999 14.894840625 -17.970624999999988 Q15.390431250000002 -18.463749999999987 15.967288875000001 -18.463749999999987 H78.712711125 Q79.28956875000002 -18.463749999999987 79.785159375 -17.967173124999984 Q80.28075 -17.47059624999999 80.28075 -16.882298124999984 Q80.28075 -16.293999999999986 79.785159375 -15.800874999999987 Q79.28956875000002 -15.307749999999988 78.712711125 -15.307749999999988 H15.967288875000001 Z M15.967288875000001 -33.65199999999999 Q15.390431250000002 -33.65199999999999 14.894840625 -34.14857687499999 Q14.39925 -34.645153749999984 14.39925 -35.23345187499999 Q14.39925 -35.82174999999999 14.894840625 -36.31487499999999 Q15.390431250000002 -36.807999999999986 15.967288875000001 -36.807999999999986 H78.712711125 Q79.28956875000002 -36.807999999999986 79.785159375 -36.31142312499998 Q80.28075 -35.81484624999999 80.28075 -35.22654812499999 Q80.28075 -34.638249999999985 79.785159375 -34.145124999999986 Q79.28956875000002 -33.65199999999999 78.712711125 -33.65199999999999 H15.967288875000001 Z M15.967288875000001 -51.99624999999999 Q15.390431250000002 -51.99624999999999 14.894840625 -52.49282687499999 Q14.39925 -52.989403749999994 14.39925 -53.57770187499999 Q14.39925 -54.16599999999998 14.894840625 -54.65912499999999 Q15.390431250000002 -55.152249999999995 15.967288875000001 -55.152249999999995 H78.712711125 Q79.28956875000002 -55.152249999999995 79.785159375 -54.65567312499999 Q80.28075 -54.15909624999999 80.28075 -53.570798124999996 Q80.28075 -52.98249999999999 79.785159375 -52.489374999999995 Q79.28956875000002 -51.99624999999999 78.712711125 -51.99624999999999 H15.967288875000001 Z"/></g></g></svg>