<svg xmlns="http://www.w3.org/2000/svg" version="1.1" width="3300" height="2000"><g id="Notes"><style>
    text {
      font-family: monospace;
      text-anchor: middle;
    }
    text.emphasis {
      font-weight:bold;
    }
    text.lanchor {
      text-anchor: start;
    }
  </style><rect height="2200" id="artboard" fill="white" width="3300" x="0" y="0"/><line id="" style="fill:none;stroke:black;stroke-width:0.5;" x1="263" x2="3036" y1="292" y2="292"/><text class="lanchor emphasis" transform="matrix(1 0 0 1 263 322)">Weight/Scale Variations</text><text transform="matrix(1 0 0 1 559.711 322)">Ultralight</text><text transform="matrix(1 0 0 1 856.422 322)">Thin</text><text transform="matrix(1 0 0 1 1153.13 322)">Light</text><text transform="matrix(1 0 0 1 1449.84 322)">Regular</text><text transform="matrix(1 0 0 1 1746.56 322)">Medium</text><text transform="matrix(1 0 0 1 2043.27 322)">Semibold</text><text transform="matrix(1 0 0 1 2339.98 322)">Bold</text><text transform="matrix(1 0 0 1 2636.69 322)">Heavy</text><text transform="matrix(1 0 0 1 2933.4 322)">Black</text><text id="template-version" style="text-anchor: end;" transform="matrix(1 0 0 1 3036 1933)">Template v.1.0</text><text class="lanchor" transform="matrix(1 0 0 1 263 726)">Small</text><text class="lanchor" transform="matrix(1 0 0 1 263 1156)">Medium</text><text class="lanchor" transform="matrix(1 0 0 1 263 1586)">Large</text></g><g id="Guides"><g id="H-reference" style="fill:#27AAE1;stroke:none;" transform="matrix(1 0 0 1 339 696)"><path d="M 54.9316 0 L 57.666 0 L 30.5664 -70.459 L 28.0762 -70.459 L 0.976562 0 L 3.66211 0 L 12.9395 -24.4629 L 45.7031 -24.4629 Z M 29.1992 -67.0898 L 29.4434 -67.0898 L 44.8242 -26.709 L 13.8184 -26.709 Z"/></g><line id="Baseline-S" style="fill:none;stroke:#27AAE1;opacity:1;stroke-width:0.577;" x1="263" x2="3036" y1="696" y2="696"/><line id="Capline-S" style="fill:none;stroke:#27AAE1;opacity:1;stroke-width:0.577;" x1="263" x2="3036" y1="625.541" y2="625.541"/><g id="H-reference" style="fill:#27AAE1;stroke:none;" transform="matrix(1 0 0 1 339 1126)"><path d="M 54.9316 0 L 57.666 0 L 30.5664 -70.459 L 28.0762 -70.459 L 0.976562 0 L 3.66211 0 L 12.9395 -24.4629 L 45.7031 -24.4629 Z M 29.1992 -67.0898 L 29.4434 -67.0898 L 44.8242 -26.709 L 13.8184 -26.709 Z"/></g><line id="Baseline-M" style="fill:none;stroke:#27AAE1;opacity:1;stroke-width:0.577;" x1="263" x2="3036" y1="1126" y2="1126"/><line id="Capline-M" style="fill:none;stroke:#27AAE1;opacity:1;stroke-width:0.577;" x1="263" x2="3036" y1="1055.54" y2="1055.54"/><g id="H-reference" style="fill:#27AAE1;stroke:none;" transform="matrix(1 0 0 1 339 1556)"><path d="M 54.9316 0 L 57.666 0 L 30.5664 -70.459 L 28.0762 -70.459 L 0.976562 0 L 3.66211 0 L 12.9395 -24.4629 L 45.7031 -24.4629 Z M 29.1992 -67.0898 L 29.4434 -67.0898 L 44.8242 -26.709 L 13.8184 -26.709 Z"/></g><line id="Baseline-L" style="fill:none;stroke:#27AAE1;opacity:1;stroke-width:0.577;" x1="263" x2="3036" y1="1556" y2="1556"/><line id="Capline-L" style="fill:none;stroke:#27AAE1;opacity:1;stroke-width:0.577;" x1="263" x2="3036" y1="1485.54" y2="1485.54"/><rect height="119.336" id="left-margin" style="fill:darkred;stroke:none;opacity:0.4;" width="12.4512" x="1394.06" y="1030.79"/><rect height="119.336" id="right-margin" style="fill:darkgreen;stroke:none;opacity:0.4;" width="12.4512" x="1502.5112" y="1030.79"/><rect x="1406.5112" y="1045" width="96" height="96" fill="none" stroke="blue" stroke-dasharray="5"/><rect x="1394.06" y="1030.79" width="120.9024" height="119.336" fill="none" stroke="blue"/></g><g id="Symbols"><g id="Bold-L" transform="matrix(1 0 0 1 2266 1556)"><path d="M54.34125 5.888750000000016  77.4 -7.817499999999988  100.45875000000001 6.050000000000011  94.17 -19.91124999999999  114.4875 -37.64874999999999  87.72 -39.906249999999986  77.4 -64.41624999999999  67.08 -39.906249999999986  40.3125 -37.80999999999999  60.63 -20.233749999999986  54.34125 5.888750000000016 Z M77.4 9.758750000000013  47.085 28.141250000000014 Q44.8275 29.431250000000016 42.57 29.270000000000017 Q40.3125 29.108750000000015 38.53875 27.818750000000016 Q36.765 26.528750000000016 35.95875 24.513125000000016 Q35.1525 22.497500000000016 35.636250000000004 19.917500000000015 L43.698750000000004 -14.58999999999999 L16.931250000000002 -37.97124999999998 Q14.99625 -39.58374999999998 14.431875 -41.76062499999999 Q13.8675 -43.937499999999986 14.512500000000001 -46.03374999999998 Q14.99625 -48.12999999999998 16.850625 -49.58124999999998 Q18.705000000000002 -51.032499999999985 21.285 -51.19374999999998 L56.59875 -54.25749999999999 L70.305 -86.99124999999998 Q71.27250000000001 -89.41 73.28812500000001 -90.53875 Q75.30375000000001 -91.66749999999999 77.4 -91.66749999999999 Q79.49625 -91.66749999999999 81.511875 -90.53875 Q83.5275 -89.41 84.495 -86.99124999999998 L98.20125 -54.25749999999999 L133.67625 -51.19374999999998 Q136.095 -51.032499999999985 137.949375 -49.58124999999998 Q139.80375 -48.12999999999998 140.2875 -46.03374999999998 Q140.9325 -43.937499999999986 140.368125 -41.76062499999999 Q139.80375 -39.58374999999998 137.86875 -37.97124999999998 L111.10125000000001 -14.58999999999999 L119.16375000000001 19.917500000000015 Q119.64750000000001 22.497500000000016 118.84125 24.513125000000016 Q118.035 26.528750000000016 116.26125 27.818750000000016 Q114.4875 29.108750000000015 112.23 29.270000000000017 Q109.9725 29.431250000000016 107.715 28.141250000000014 L77.4 9.758750000000013 Z"/></g><g id="Semibold-L" transform="matrix(1 0 0 1 1970.27 1556)"><path d="M53.35972125 7.290818750000014  77.4 -7.046402499999985  101.44027875 7.4520687500000165  94.94109750000001 -19.700979999999987  116.09983875 -38.13943374999998  88.21068375 -40.53722124999999  77.4 -66.16887625  66.58931625 -40.60736499999997  38.70016125 -38.30068374999999  59.858902500000006 -19.953336249999992  53.35972125 7.290818750000014 Z M77.4 7.795853750000013  47.2252875 26.038066250000014 Q45.3883275 27.117796250000016 43.481384999999996 26.991698750000015 Q41.5744425 26.865440000000014 40.08110625 25.785710000000016 Q38.58777 24.705980000000014 37.886655 23.005921250000018 Q37.18554 21.305701250000016 37.599146250000004 19.146402500000015 L45.591502500000004 -15.220971249999991 L18.964290000000002 -38.461933749999986 Q17.30970375 -39.86416374999999 16.885455 -41.69048124999999 Q16.4613675 -43.51679874999998 16.966079999999998 -45.26265249999997 Q17.3798475 -47.00834499999998 18.91865625 -48.21417249999999 Q20.45762625 -49.42016124999998 22.616925 -49.58141124999999 L57.790548750000006 -52.64516124999999 L71.42665500000001 -85.16847999999999 Q72.25402875 -87.16668999999999 73.9540875 -88.12016125 Q75.6543075 -89.07363249999997 77.4 -89.07363249999997 Q79.14569250000001 -89.07363249999997 80.8459125 -88.12016125 Q82.54597125000001 -87.16668999999999 83.373345 -85.16847999999999 L97.00945125000001 -52.64516124999999 L132.27418125 -49.58141124999999 Q134.34237375 -49.42016124999998 135.88134374999998 -48.21417249999999 Q137.4201525 -47.00834499999998 137.83392 -45.26265249999997 Q138.3386325 -43.51679874999998 137.914545 -41.69048124999999 Q137.49029625 -39.86416374999999 135.83571 -38.461933749999986 L109.2084975 -15.220971249999991 L117.20085375000001 19.146402500000015 Q117.61446000000001 21.305701250000016 116.913345 23.005921250000018 Q116.21223 24.705980000000014 114.71889374999999 25.785710000000016 Q113.2255575 26.865440000000014 111.318615 26.991698750000015 Q109.41167250000001 27.117796250000016 107.5747125 26.038066250000014 L77.4 7.795853750000013 Z"/></g><g id="Medium-L" transform="matrix(1 0 0 1 1674.31 1556)"><path d="M52.623615 8.342491250000016  77.4 -6.4678374999999875  102.17638500000001 8.503741250000019  95.51966250000001 -19.543116249999983  117.309375 -38.50756749999999  88.5788175 -41.010489999999976  77.4 -67.4835475  66.2211825 -41.13320125  37.490625 -38.66881749999999  59.2803375 -19.743066249999984  52.623615 8.342491250000016 Z M77.4 6.323480000000018  47.3304225 24.460557500000018 Q45.809028749999996 25.382423750000015 44.16492375000001 25.282610000000016 Q42.52098000000001 25.182635000000015 41.237913750000004 24.260768750000015 Q39.9548475 23.338902500000017 39.332745 21.875236250000015 Q38.71048125 20.411731250000013 39.07152 18.567837500000014 L47.011308750000005 -15.694239999999986 L20.48923125 -38.830067499999984 Q19.04507625 -40.07443374999998 18.7259625 -41.637913749999996 Q18.40701 -43.20139374999998 18.8065875 -44.68408749999999 Q19.16762625 -46.16694249999999 20.46988125 -47.188783749999985 Q21.7722975 -48.21062499999999 23.61603 -48.37187499999999 L58.68451875 -51.43562499999999 L72.2680575 -83.80140249999998 Q72.990135 -85.483885 74.45364000000001 -86.3059375 Q75.91714499999999 -87.12798999999998 77.4 -87.12798999999998 Q78.882855 -87.12798999999998 80.34636 -86.3059375 Q81.809865 -85.483885 82.5319425 -83.80140249999998 L96.11548125000002 -51.43562499999999 L131.22250875 -48.37187499999999 Q133.0277025 -48.21062499999999 134.33011875 -47.188783749999985 Q135.63237375 -46.16694249999999 135.9934125 -44.68408749999999 Q136.39299 -43.20139374999998 136.0740375 -41.637913749999996 Q135.75492375 -40.07443374999998 134.31076875 -38.830067499999984 L107.78869125 -15.694239999999986 L115.72848 18.567837500000014 Q116.08951875 20.411731250000013 115.46725500000001 21.875236250000015 Q114.8451525 23.338902500000017 113.56208625 24.260768750000015 Q112.27902 25.182635000000015 110.63507625000001 25.282610000000016 Q108.99097125 25.382423750000015 107.4695775 24.460557500000018 L77.4 6.323480000000018 Z"/></g><g id="Regular-L" transform="matrix(1 0 0 1 1378.56 1556)"><path d="M52.08375 9.113750000000017  77.4 -6.043749999999989  102.71625 9.275000000000013  95.94375000000001 -19.427499999999988  118.19625 -38.77749999999999  88.84875 -41.35749999999999  77.4 -68.44749999999999  65.95125 -41.51874999999998  36.60375 -38.938749999999985  58.85625 -19.588749999999983  52.08375 9.113750000000017 Z M77.4 5.243750000000013  47.4075 23.303750000000015 Q46.1175 24.110000000000014 44.66625 24.029375000000016 Q43.215 23.948750000000015 42.08625 23.142500000000016 Q40.9575 22.336250000000014 40.393125 21.046250000000015 Q39.82875 19.756250000000016 40.151250000000005 18.143750000000015 L48.0525 -16.041249999999984 L21.6075 -39.09999999999998 Q20.3175 -40.22874999999999 20.075625000000002 -41.59937499999998 Q19.833750000000002 -42.969999999999985 20.15625 -44.25999999999999 Q20.47875 -45.54999999999998 21.6075 -46.436874999999986 Q22.736250000000002 -47.32374999999999 24.34875 -47.484999999999985 L59.34 -50.548749999999984 L72.885 -82.79874999999998 Q73.53 -84.24999999999999 74.82000000000001 -84.975625 Q76.11 -85.70124999999999 77.4 -85.70124999999999 Q78.69 -85.70124999999999 79.98 -84.975625 Q81.27 -84.24999999999999 81.915 -82.79874999999998 L95.46000000000001 -50.548749999999984 L130.45125000000002 -47.484999999999985 Q132.06375 -47.32374999999999 133.1925 -46.436874999999986 Q134.32125 -45.54999999999998 134.64375 -44.25999999999999 Q134.96625 -42.969999999999985 134.724375 -41.59937499999998 Q134.48250000000002 -40.22874999999999 133.1925 -39.09999999999998 L106.7475 -16.041249999999984 L114.64875 18.143750000000015 Q114.97125 19.756250000000016 114.406875 21.046250000000015 Q113.8425 22.336250000000014 112.71375 23.142500000000016 Q111.58500000000001 23.948750000000015 110.13375 24.029375000000016 Q108.6825 24.110000000000014 107.3925 23.303750000000015 L77.4 5.243750000000013 Z"/></g><g id="Light-L" transform="matrix(1 0 0 1 1082.77 1556)"><path d="M53.4482475 7.3150062500000175  77.4 -7.0981637499999835  101.3517525 7.476256250000013  95.0133375 -19.799664999999983  116.0874225 -38.09525124999999  88.2905025 -40.55124999999998  77.4 -66.21467125  66.5094975 -40.71249999999999  38.7125775 -38.256501249999985  59.7866625 -19.898833749999987  53.4482475 7.3150062500000175 Z M77.4 1.4603412500000132  49.9504125 18.031681250000016 Q48.90857625 18.589928750000016 47.829491250000004 18.540263750000015 Q46.750406250000005 18.490598750000018 45.869658750000006 17.870431250000017 Q44.989072500000006 17.250263750000016 44.54869875000001 16.239387500000014 Q44.10832500000001 15.228511250000015 44.430825000000006 13.988176250000016 L51.649826250000004 -17.219664999999985 L27.49973625 -38.29374999999999 Q26.51982 -39.11225499999999 26.277945 -40.17279624999999 Q26.036070000000002 -41.23333749999999 26.35857 -42.27517374999999 Q26.61915 -43.255089999999996 27.468776249999998 -43.924922499999994 Q28.3184025 -44.59475499999999 29.5587375 -44.693923749999996 L61.510908750000006 -47.50950999999999 L73.93941375 -77.03051499999998 Q74.4604125 -78.10959999999999 75.40920750000001 -78.68026374999998 Q76.35816375 -79.25076624999998 77.4 -79.25076624999998 Q78.44183625000001 -79.25076624999998 79.3907925 -78.68026374999998 Q80.33958750000001 -78.10959999999999 80.86058625 -77.03051499999998 L93.28909125000001 -47.50950999999999 L125.24126250000002 -44.693923749999996 Q126.48159749999999 -44.59475499999999 127.33122374999999 -43.924922499999994 Q128.18085 -43.255089999999996 128.50334999999998 -42.27517374999999 Q128.76393 -41.23333749999999 128.522055 -40.17279624999999 Q128.28018 -39.11225499999999 127.30026375 -38.29374999999999 L103.15017375000001 -17.219664999999985 L110.43109500000001 13.988176250000016 Q110.691675 15.228511250000015 110.25130125000001 16.239387500000014 Q109.8109275 17.250263750000016 108.93034125000001 17.870431250000017 Q108.04959375000001 18.490598750000018 106.97050875000001 18.540263750000015 Q105.89142375 18.589928750000016 104.84958750000001 18.031681250000016 L77.4 1.4603412500000132 Z"/></g><g id="Thin-L" transform="matrix(1 0 0 1 787.282 1556)"><path d="M54.81258375 5.516585000000013  77.4 -8.152416249999987  99.98741625 5.677835000000016  94.0832475 -20.171668749999988  113.97891750000001 -37.41316374999998  87.73241625 -39.74499999999999  77.4 -63.98216499999998  67.06758375 -39.906249999999986  40.8210825 -37.57441374999999  60.716752500000005 -20.208917499999984  54.81258375 5.516585000000013 Z M77.4 -2.3225837499999855  52.4930025 12.760580000000019 Q51.699168750000005 13.070663750000012 50.99224875 13.051958750000015 Q50.2851675 13.033415000000012 49.652583750000005 12.599330000000016 Q49.02 12.165083750000015 48.7036275 11.433331250000013 Q48.38741625 10.701417500000016 48.70991625 9.833247500000013 L55.246668750000005 -18.397918749999988 L33.391005 -37.48749999999998 Q32.72133375 -37.996082499999986 32.47945875 -38.74653999999998 Q32.23758375 -39.49699749999998 32.560083750000004 -40.29083124999998 Q32.75842125 -40.96066374999998 33.329085 -41.41329249999998 Q33.8995875 -41.86608249999999 34.76791875 -41.90333124999998 L63.68133375 -44.47091499999999 L74.99366625 -71.26324749999999 Q75.39050250000001 -71.97032874999998 75.998415 -72.38586999999998 Q76.60616625 -72.80124999999998 77.4 -72.80124999999998 Q78.19383375 -72.80124999999998 78.801585 -72.38586999999998 Q79.4094975 -71.97032874999998 79.80633375000001 -71.26324749999999 L91.11866625 -44.47091499999999 L120.03208125 -41.90333124999998 Q120.9004125 -41.86608249999999 121.470915 -41.41329249999998 Q122.04157875 -40.96066374999998 122.36407875 -40.29083124999998 Q122.56241625 -39.49699749999998 122.32054125 -38.74653999999998 Q122.07866625 -37.996082499999986 121.408995 -37.48749999999998 L99.55333125 -18.397918749999988 L106.21424625 9.833247500000013 Q106.41258375000001 10.701417500000016 106.0963725 11.433331250000013 Q105.78 12.165083750000015 105.14741625 12.599330000000016 Q104.5148325 13.033415000000012 103.80775125000001 13.051958750000015 Q103.10083125 13.070663750000012 102.3069975 12.760580000000019 L77.4 -2.3225837499999855 Z"/></g><g id="Ultralight-L" transform="matrix(1 0 0 1 491.205 1556)"><path d="M55.63125 4.437500000000014  77.4 -8.784999999999982  99.16875 4.598750000000017  93.525 -20.39499999999999  112.71375 -37.00374999999998  87.39750000000001 -39.26124999999999  77.4 -62.642499999999984  67.4025 -39.422499999999985  42.08625 -37.16499999999999  61.275 -20.39499999999999  55.63125 4.437500000000014 Z M77.4 -4.592499999999987  54.018750000000004 9.597500000000018 Q53.37375 9.758750000000013 52.89 9.758750000000013 Q52.40625 9.758750000000013 51.9225 9.436250000000015 Q51.43875 9.113750000000017 51.196875 8.549375000000012 Q50.955 7.985000000000014 51.2775 7.340000000000018 L57.405 -19.104999999999983 L36.92625 -37.00374999999998 Q36.4425 -37.32624999999999 36.200625 -37.890624999999986 Q35.95875 -38.454999999999984 36.28125 -39.09999999999998 Q36.4425 -39.58374999999998 36.845625 -39.906249999999986 Q37.24875 -40.22874999999999 37.893750000000004 -40.22874999999999 L64.98375 -42.64749999999998 L75.62625 -67.80249999999998 Q75.94875 -68.28624999999998 76.351875 -68.60874999999999 Q76.755 -68.93124999999999 77.4 -68.93124999999999 Q78.045 -68.93124999999999 78.448125 -68.60874999999999 Q78.85125000000001 -68.28624999999998 79.17375 -67.80249999999998 L89.81625 -42.64749999999998 L116.90625 -40.22874999999999 Q117.55125000000001 -40.22874999999999 117.954375 -39.906249999999986 Q118.3575 -39.58374999999998 118.68 -39.09999999999998 Q118.84125 -38.454999999999984 118.59937500000001 -37.890624999999986 Q118.3575 -37.32624999999999 117.87375 -37.00374999999998 L97.395 -19.104999999999983 L103.68375 7.340000000000018 Q103.845 7.985000000000014 103.603125 8.549375000000012 Q103.36125 9.113750000000017 102.8775 9.436250000000015 Q102.39375 9.758750000000013 101.91 9.758750000000013 Q101.42625 9.758750000000013 100.78125 9.597500000000018 L77.4 -4.592499999999987 Z"/></g><g id="Bold-M" transform="matrix(1 0 0 1 2281.8 1126)"><path d="M46.625 -9.47999999999999  60.0 -17.47999999999999  73.375 -9.35499999999999  69.75 -24.47999999999999  81.625 -34.72999999999999  66.125 -36.10499999999999  60.0 -50.47999999999999  53.875 -36.10499999999999  38.375 -34.85499999999999  50.25 -24.60499999999999  46.625 -9.47999999999999 Z M60.0 0.8950000000000102  38.875 13.64500000000001 Q36.625 15.02000000000001 34.25 14.83250000000001 Q31.875 14.64500000000001 30.125 13.27000000000001 Q28.375 11.89500000000001 27.4375 9.77000000000001 Q26.5 7.64500000000001 27.125 5.14500000000001 L32.75 -18.85499999999999 L14.0 -35.10499999999999 Q12.0 -36.85499999999999 11.5 -39.10499999999999 Q11.0 -41.35499999999999 11.625 -43.47999999999999 Q12.25 -45.60499999999999 14.0625 -47.10499999999999 Q15.875 -48.60499999999999 18.5 -48.85499999999999 L43.125 -50.97999999999999 L52.75 -73.72999999999999 Q53.75 -76.22999999999999 55.75 -77.35499999999999 Q57.75 -78.47999999999999 60.0 -78.47999999999999 Q62.25 -78.47999999999999 64.25 -77.35499999999999 Q66.25 -76.22999999999999 67.25 -73.72999999999999 L76.875 -50.97999999999999 L101.5 -48.85499999999999 Q104.125 -48.60499999999999 105.9375 -47.10499999999999 Q107.75 -45.60499999999999 108.375 -43.47999999999999 Q109.0 -41.35499999999999 108.5 -39.10499999999999 Q108.0 -36.85499999999999 106.0 -35.10499999999999 L87.25 -18.85499999999999 L92.875 5.14500000000001 Q93.5 7.64500000000001 92.5625 9.77000000000001 Q91.625 11.89500000000001 89.875 13.27000000000001 Q88.125 14.64500000000001 85.75 14.83250000000001 Q83.375 15.02000000000001 81.125 13.64500000000001 L60.0 0.8950000000000102 Z"/></g><g id="Semibold-M" transform="matrix(1 0 0 1 1985.97 1126)"><path d="M45.5925 -8.01274999999999  60.0 -16.664874999999988  74.4075 -7.88774999999999  70.565125 -24.262624999999993  83.309625 -35.27349999999999  66.614125 -36.75712499999999  60.0 -52.27337499999999  53.385875 -36.81149999999999  36.690375 -35.39849999999999  49.434875 -24.333249999999992  45.5925 -8.01274999999999 Z M60.0 -1.170124999999988  39.038 11.47125000000001 Q37.1685 12.62887500000001 35.173875 12.46850000000001 Q33.17925 12.30825000000001 31.701 11.15062500000001 Q30.22275 9.993000000000011 29.421 8.221250000000012 Q28.619375 6.4493750000000105 29.13575 4.329875000000012 L34.706375 -19.507124999999988 L16.119375 -35.59412499999999 Q14.4455 -37.07237499999999 14.027 -38.96912499999999 Q13.6085 -40.86587499999999 14.179125 -42.664874999999995 Q14.749875 -44.46374999999999 16.209125 -45.69199999999999 Q17.668375 -46.92037499999999 19.913 -47.17037499999999 L44.374875 -49.29537499999999 L53.89125 -71.82799999999999 Q54.72825 -73.89325 56.42925 -74.85512499999999 Q58.130375 -75.81712499999999 60.0 -75.81712499999999 Q61.869625 -75.81712499999999 63.57075 -74.85512499999999 Q65.27175 -73.89325 66.10875 -71.82799999999999 L75.625125 -49.29537499999999 L100.087 -47.17037499999999 Q102.331625 -46.92037499999999 103.790875 -45.69199999999999 Q105.250125 -44.46374999999999 105.820875 -42.664874999999995 Q106.3915 -40.86587499999999 105.973 -38.96912499999999 Q105.5545 -37.07237499999999 103.880625 -35.59412499999999 L85.293625 -19.507124999999988 L90.86425 4.329875000000012 Q91.380625 6.4493750000000105 90.578875 8.221250000000012 Q89.77725 9.993000000000011 88.299 11.15062500000001 Q86.82075 12.30825000000001 84.826125 12.46850000000001 Q82.8315 12.62887500000001 80.962 11.47125000000001 L60.0 -1.170124999999988 Z"/></g><g id="Medium-M" transform="matrix(1 0 0 1 1689.91 1126)"><path d="M44.818 -6.912124999999989  60.0 -16.05337499999999  75.182 -6.787124999999989  71.176625 -24.09962499999999  84.573375 -35.68112499999999  66.981 -37.24624999999999  60.0 -53.618624999999994  53.019 -37.34137499999999  35.426625 -35.80612499999999  48.823375 -24.129499999999993  44.818 -6.912124999999989 Z M60.0 -2.719124999999991  39.160375 9.84062500000001 Q37.576125 10.835250000000011 35.866875 10.69525000000001 Q34.157625 10.55537500000001 32.883125 9.56075000000001 Q31.608625 8.56625000000001 30.909 7.05937500000001 Q30.20925 5.55262500000001 30.644 3.718375000000009 L36.173875 -19.99624999999999 L17.70925 -35.96099999999999 Q16.279875 -37.23537499999999 15.9225 -38.86724999999999 Q15.565125 -40.498999999999995 16.095125 -42.05337499999999 Q16.625 -43.607749999999996 17.81925 -44.632249999999985 Q19.013625 -45.65662499999999 20.97275 -45.90662499999999 L45.3125 -48.03162499999999 L54.74725 -70.40124999999999 Q55.462 -72.14037499999999 56.938875 -72.97999999999999 Q58.41575 -73.81974999999998 60.0 -73.81974999999998 Q61.58425 -73.81974999999998 63.061125 -72.97999999999999 Q64.538 -72.14037499999999 65.25275 -70.40124999999999 L74.6875 -48.03162499999999 L99.02725 -45.90662499999999 Q100.986375 -45.65662499999999 102.18075 -44.632249999999985 Q103.375 -43.607749999999996 103.904875 -42.05337499999999 Q104.434875 -40.498999999999995 104.0775 -38.86724999999999 Q103.720125 -37.23537499999999 102.29075 -35.96099999999999 L83.826125 -19.99624999999999 L89.356 3.718375000000009 Q89.79075 5.55262500000001 89.091 7.05937500000001 Q88.391375 8.56625000000001 87.116875 9.56075000000001 Q85.842375 10.55537500000001 84.133125 10.69525000000001 Q82.423875 10.835250000000011 80.839625 9.84062500000001 L60.0 -2.719124999999991 Z"/></g><g id="Regular-M" transform="matrix(1 0 0 1 1394.06 1126)"><path d="M44.25 -6.10499999999999  60.0 -15.60499999999999  75.75 -5.97999999999999  71.625 -23.97999999999999  85.5 -35.97999999999999  67.25 -37.60499999999999  60.0 -54.60499999999999  52.75 -37.72999999999999  34.5 -36.10499999999999  48.375 -23.97999999999999  44.25 -6.10499999999999 Z M60.0 -3.8549999999999898  39.25 8.64500000000001 Q37.875 9.52000000000001 36.375 9.39500000000001 Q34.875 9.27000000000001 33.75 8.39500000000001 Q32.625 7.52000000000001 32.0 6.20750000000001 Q31.375 4.89500000000001 31.75 3.2700000000000102 L37.25 -20.35499999999999 L18.875 -36.22999999999999 Q17.625 -37.35499999999999 17.3125 -38.79249999999999 Q17.0 -40.22999999999999 17.5 -41.60499999999999 Q18.0 -42.97999999999999 19.0 -43.85499999999999 Q20.0 -44.72999999999999 21.75 -44.97999999999999 L46.0 -47.10499999999999 L55.375 -69.35499999999999 Q56.0 -70.85499999999999 57.3125 -71.60499999999999 Q58.625 -72.35499999999999 60.0 -72.35499999999999 Q61.375 -72.35499999999999 62.6875 -71.60499999999999 Q64.0 -70.85499999999999 64.625 -69.35499999999999 L74.0 -47.10499999999999 L98.25 -44.97999999999999 Q100.0 -44.72999999999999 101.0 -43.85499999999999 Q102.0 -42.97999999999999 102.5 -41.60499999999999 Q103.0 -40.22999999999999 102.6875 -38.79249999999999 Q102.375 -37.35499999999999 101.125 -36.22999999999999 L82.75 -20.35499999999999 L88.25 3.2700000000000102 Q88.625 4.89500000000001 88.0 6.20750000000001 Q87.375 7.52000000000001 86.25 8.39500000000001 Q85.125 9.27000000000001 83.625 9.39500000000001 Q82.125 9.52000000000001 80.75 8.64500000000001 L60.0 -3.8549999999999898 Z"/></g><g id="Light-M" transform="matrix(1 0 0 1 1098.18 1126)"><path d="M44.25 -6.10499999999999  60.0 -15.60499999999999  75.75 -5.97999999999999  71.625 -23.97999999999999  85.5 -35.97999999999999  67.25 -37.60499999999999  60.0 -54.60499999999999  52.75 -37.72999999999999  34.5 -36.10499999999999  48.375 -23.97999999999999  44.25 -6.10499999999999 Z M60.0 -6.787874999999989  40.548125 4.942750000000011 Q39.461625 5.577375000000011 38.370375 5.476500000000009 Q37.279 5.3755000000000095 36.394375 4.74087500000001 Q35.509875 4.10625000000001 35.029125 3.082250000000009 Q34.54825 2.0582500000000117 34.87525 0.8178750000000115 L40.038625 -21.26849999999999 L22.865625 -36.13387499999999 Q21.904125 -36.97037499999999 21.63975 -38.07124999999999 Q21.375375 -39.17224999999999 21.779125 -40.21062499999999 Q22.183 -41.24912499999999 22.942625 -41.90774999999999 Q23.70225 -42.566374999999994 25.0195 -42.768249999999995 L47.682875 -44.748999999999995 L56.480875 -65.60475 Q56.961625 -66.76812499999998 57.9375 -67.325875 Q58.9135 -67.88349999999998 60.0 -67.88349999999998 Q61.0865 -67.88349999999998 62.0625 -67.325875 Q63.038375 -66.76812499999998 63.519125 -65.60475 L72.317125 -44.748999999999995 L94.9805 -42.768249999999995 Q96.29775 -42.566374999999994 97.057375 -41.90774999999999 Q97.817 -41.24912499999999 98.220875 -40.21062499999999 Q98.624625 -39.17224999999999 98.36025 -38.07124999999999 Q98.095875 -36.97037499999999 97.134375 -36.13387499999999 L79.961375 -21.26849999999999 L85.12475 0.8178750000000115 Q85.45175 2.0582500000000117 84.970875 3.082250000000009 Q84.490125 4.10625000000001 83.605625 4.74087500000001 Q82.721 5.3755000000000095 81.629625 5.476500000000009 Q80.538375 5.577375000000011 79.451875 4.942750000000011 L60.0 -6.787874999999989 Z"/></g><g id="Thin-M" transform="matrix(1 0 0 1 802.565 1126)"><path d="M44.25 -6.10499999999999  60.0 -15.60499999999999  75.75 -5.97999999999999  71.625 -23.97999999999999  85.5 -35.97999999999999  67.25 -37.60499999999999  60.0 -54.60499999999999  52.75 -37.72999999999999  34.5 -36.10499999999999  48.375 -23.97999999999999  44.25 -6.10499999999999 Z M60.0 -9.72037499999999  41.846125 1.2412500000000115 Q41.048 1.6353750000000105 40.365375 1.5585000000000093 Q39.682625 1.4816250000000117 39.038375 1.0873750000000086 Q38.39425 0.6931250000000091 38.057625 -0.04249999999998977 Q37.721125 -0.777999999999988 38.0 -1.633874999999989 L42.826875 -22.18187499999999 L26.85575 -36.03774999999999 Q26.182625 -36.58574999999999 25.96625 -37.35024999999999 Q25.75 -38.11462499999999 26.057625 -38.81649999999999 Q26.365375 -39.51849999999999 26.884625 -39.96074999999999 Q27.40375 -40.40312499999999 28.288375 -40.55699999999999 L49.365375 -42.39349999999999 L57.5865 -61.85499999999999 Q57.923125 -62.68199999999999 58.5625 -63.04737499999999 Q59.201875 -63.41274999999999 60.0 -63.41274999999999 Q60.798125 -63.41274999999999 61.4375 -63.04737499999999 Q62.076875 -62.68199999999999 62.4135 -61.85499999999999 L70.634625 -42.39349999999999 L91.711625 -40.55699999999999 Q92.59625 -40.40312499999999 93.115375 -39.96074999999999 Q93.634625 -39.51849999999999 93.942375 -38.81649999999999 Q94.25 -38.11462499999999 94.03375 -37.35024999999999 Q93.817375 -36.58574999999999 93.14425 -36.03774999999999 L77.173125 -22.18187499999999 L82.0 -1.633874999999989 Q82.278875 -0.777999999999988 81.942375 -0.04249999999998977 Q81.60575 0.6931250000000091 80.961625 1.0873750000000086 Q80.317375 1.4816250000000117 79.634625 1.5585000000000093 Q78.952 1.6353750000000105 78.153875 1.2412500000000115 L60.0 -9.72037499999999 Z"/></g><g id="Ultralight-M" transform="matrix(1 0 0 1 506.415 1126)"><path d="M44.25 -6.10499999999999  60.0 -15.60499999999999  75.75 -5.97999999999999  71.625 -23.97999999999999  85.5 -35.97999999999999  67.25 -37.60499999999999  60.0 -54.60499999999999  52.75 -37.72999999999999  34.5 -36.10499999999999  48.375 -23.97999999999999  44.25 -6.10499999999999 Z M60.0 -11.47999999999999  42.625 -0.9799999999999898 Q42.0 -0.7299999999999898 41.5625 -0.7924999999999898 Q41.125 -0.8549999999999898 40.625 -1.1049999999999898 Q40.125 -1.3549999999999898 39.875 -1.9174999999999898 Q39.625 -2.4799999999999898 39.875 -3.1049999999999898 L44.5 -22.72999999999999 L29.25 -35.97999999999999 Q28.75 -36.35499999999999 28.5625 -36.91749999999999 Q28.375 -37.47999999999999 28.625 -37.97999999999999 Q28.875 -38.47999999999999 29.25 -38.79249999999999 Q29.625 -39.10499999999999 30.25 -39.22999999999999 L50.375 -40.97999999999999 L58.25 -59.60499999999999 Q58.5 -60.22999999999999 58.9375 -60.47999999999999 Q59.375 -60.72999999999999 60.0 -60.72999999999999 Q60.625 -60.72999999999999 61.0625 -60.47999999999999 Q61.5 -60.22999999999999 61.75 -59.60499999999999 L69.625 -40.97999999999999 L89.75 -39.22999999999999 Q90.375 -39.10499999999999 90.75 -38.79249999999999 Q91.125 -38.47999999999999 91.375 -37.97999999999999 Q91.625 -37.47999999999999 91.4375 -36.91749999999999 Q91.25 -36.35499999999999 90.75 -35.97999999999999 L75.5 -22.72999999999999 L80.125 -3.1049999999999898 Q80.375 -2.4799999999999898 80.125 -1.9174999999999898 Q79.875 -1.3549999999999898 79.375 -1.1049999999999898 Q78.875 -0.8549999999999898 78.4375 -0.7924999999999898 Q78.0 -0.7299999999999898 77.375 -0.9799999999999898 L60.0 -11.47999999999999 Z"/></g><g id="Bold-S" transform="matrix(1 0 0 1 2294.23 696)"><path d="M36.589875 -14.715999999999987  47.34 -21.027999999999984  58.188750000000006 -14.715999999999987  55.230000000000004 -26.649624999999986  64.59937500000001 -34.638249999999985  52.27125 -35.72312499999999  47.34 -47.16362499999999  42.408750000000005 -35.62449999999999  30.080625 -34.638249999999985  39.548625 -26.748249999999985  36.589875 -14.715999999999987 Z M47.34 -7.516374999999986  30.869625000000003 2.346125000000013 Q29.094375000000003 3.332375000000013 27.368437500000002 3.184437500000014 Q25.642500000000002 3.0365000000000126 24.360375 2.0502500000000126 Q23.07825 1.0640000000000125 22.4371875 -0.6126249999999871 Q21.796125 -2.2892499999999867 22.289250000000003 -4.064499999999988 L26.62875 -22.40874999999999 L12.032250000000001 -34.83549999999999 Q10.552875 -36.11762499999999 10.2076875 -37.79424999999999 Q9.8625 -39.470874999999985 10.257 -41.04887499999999 Q10.6515 -42.62687499999999 12.0815625 -43.76106249999999 Q13.511625 -44.89524999999999 15.3855 -44.99387499999999 L34.420125 -46.67049999999999 L42.014250000000004 -64.22574999999999 Q42.80325 -66.09962499999999 44.233312500000004 -66.93793749999999 Q45.663375 -67.77624999999999 47.34 -67.77624999999999 Q49.016625000000005 -67.77624999999999 50.4466875 -66.93793749999999 Q51.87675 -66.09962499999999 52.66575 -64.22574999999999 L60.259875 -46.57187499999999 L79.2945 -44.99387499999999 Q81.168375 -44.89524999999999 82.5984375 -43.71174999999999 Q84.02850000000001 -42.528249999999986 84.423 -40.95024999999999 Q84.81750000000001 -39.37224999999999 84.423 -37.74493749999999 Q84.02850000000001 -36.11762499999999 82.549125 -34.83549999999999 L68.05125 -22.40874999999999 L72.39075 -4.064499999999988 Q72.883875 -2.2892499999999867 72.2428125 -0.6126249999999871 Q71.60175000000001 1.0640000000000125 70.319625 2.0502500000000126 Q69.03750000000001 3.0365000000000126 67.31156250000001 3.184437500000014 Q65.58562500000001 3.332375000000013 63.810375 2.346125000000013 L47.34 -7.516374999999986 Z"/></g><g id="Semibold-S" transform="matrix(1 0 0 1 1998.1 696)"><path d="M35.7752325 -13.558339749999988  47.34 -20.384866374999987  59.003392500000004 -13.558339749999988  55.873133625 -26.478116124999993  65.928544125 -35.06707149999999  52.657169625 -36.237651624999984  47.34 -48.578597874999986  42.022830375 -36.181928499999984  28.751455875000005 -35.06707149999999  38.905491375 -26.533839249999993  35.7752325 -13.558339749999988 Z M47.34 -9.145758624999985  30.998231999999998 0.6310362500000135 Q29.5231965 1.445777375000013 28.097374875000003 1.3192415000000128 Q26.671553250000002 1.1928042500000124 25.603839 0.37806312500001304 Q24.536124750000003 -0.43667799999998635 24.002169000000002 -1.8345887499999858 Q23.468311875 -3.2325981249999867 23.875731750000003 -4.7076336249999855 L28.172329875000003 -22.923276624999986 L13.704436875000003 -35.22141962499999 Q12.4823745 -36.28913387499998 12.2014905 -37.68704462499999 Q11.9206065 -39.084955374999986 12.272204625 -40.40574137499999 Q12.623901375 -41.72642874999999 13.775249625 -42.64620549999999 Q14.926597875000002 -43.56608087499999 16.500357 -43.66470587499999 L35.406276375000004 -45.34133087499999 L42.91469625 -62.72507199999998 Q43.575089250000005 -64.25592925 44.76924075 -64.96553612499999 Q45.963490875000005 -65.67524162499998 47.34 -65.67524162499998 Q48.716509125 -65.67524162499998 49.91075925 -64.96553612499999 Q51.10491075 -64.25592925 51.76530375 -62.72507199999998 L59.273723625 -45.24270587499999 L78.17964300000001 -43.66470587499999 Q79.75340212500001 -43.56608087499999 80.904750375 -42.596892999999994 Q82.056098625 -41.62780374999999 82.407795375 -40.30711637499999 Q82.7593935 -38.98633037499999 82.429197 -37.63773212499999 Q82.0990005 -36.28913387499998 80.876938125 -35.22141962499999 L66.507670125 -22.923276624999986 L70.80426825 -4.7076336249999855 Q71.211688125 -3.2325981249999867 70.677732375 -1.8345887499999858 Q70.14387525 -0.43667799999998635 69.07616100000001 0.37806312500001304 Q68.00844675 1.1928042500000124 66.582625125 1.3192415000000128 Q65.15680350000001 1.445777375000013 63.681768000000005 0.6310362500000135 L47.34 -9.145758624999985 Z"/></g><g id="Medium-S" transform="matrix(1 0 0 1 1701.85 696)"><path d="M35.164152 -12.689946624999987  47.34 -19.90239287499999  59.614473000000004 -12.689946624999987  56.355607125000006 -26.34950912499999  66.92564287500001 -35.38868762499999  52.946633999999996 -36.62357124999999  47.34 -49.64000012499999  41.733366000000004 -36.59999987499999  27.754357125000002 -35.38868762499999  38.423017875 -26.373080499999993  35.164152 -12.689946624999987 Z M47.34 -10.367919624999988  31.094785875000003 -0.6555268749999872 Q29.844812625 0.03060725000001341 28.644151875000002 -0.07985274999998637 Q27.443491125000005 -0.19021412499998647 26.536535625000003 -0.8763482499999871 Q25.629580125000004 -1.5623837499999862 25.176201 -2.751308124999987 Q24.72272325 -3.9401338749999866 25.065741 -5.190107124999987 L29.330187375000005 -23.309196249999985 L14.95884825 -35.51088399999999 Q13.929696375 -36.417740874999986 13.69704 -37.60666524999999 Q13.464383625 -38.79549099999999 13.783928625 -39.923267874999986 Q14.103375 -41.051044749999996 15.045638250000001 -41.810062749999986 Q15.988000125000001 -42.56898212499999 17.33649975 -42.66760712499999 L36.1460625 -44.34423212499999 L43.59008025 -61.59936624999999 Q44.15401800000001 -62.87291087499999 45.17133487500001 -63.48606249999999 Q46.188651750000005 -64.09931274999998 47.34 -64.09931274999998 Q48.49134825 -64.09931274999998 49.508665125 -63.48606249999999 Q50.525982 -62.87291087499999 51.08991975000001 -61.59936624999999 L58.5339375 -44.24560712499999 L77.34350025 -42.66760712499999 Q78.691999875 -42.56898212499999 79.63436175000001 -41.76075024999999 Q80.576625 -40.95241974999999 80.896071375 -39.82464287499999 Q81.21561637500001 -38.69686599999999 80.9336475 -37.55735274999999 Q80.651678625 -36.417740874999986 79.62252675 -35.51088399999999 L65.34981262500001 -23.309196249999985 L69.614259 -5.190107124999987 Q69.95727675 -3.9401338749999866 69.503799 -2.751308124999987 Q69.050419875 -1.5623837499999862 68.143464375 -0.8763482499999871 Q67.23650887500001 -0.19021412499998647 66.03584812500002 -0.07985274999998637 Q64.835187375 0.03060725000001341 63.585214125 -0.6555268749999872 L47.34 -10.367919624999988 Z"/></g><g id="Regular-S" transform="matrix(1 0 0 1 1405.73 696)"><path d="M34.716 -12.053124999999987  47.34 -19.548624999999987  60.062625000000004 -12.053124999999987  56.709375 -26.255124999999985  67.65675 -35.62449999999999  53.158875 -36.90662499999999  47.34 -50.418249999999986  41.521125000000005 -36.90662499999999  27.02325 -35.62449999999999  38.069250000000004 -26.255124999999985  34.716 -12.053124999999987 Z M47.34 -11.264124999999986  31.1655 -1.5988749999999872 Q30.080625 -1.007124999999986 29.0450625 -1.1057499999999862 Q28.009500000000003 -1.2043749999999864 27.2205 -1.7961249999999875 Q26.4315 -2.387874999999987 26.037000000000003 -3.423437499999988 Q25.642500000000002 -4.458999999999985 25.938375 -5.543874999999986 L30.17925 -23.592249999999986 L15.878625000000001 -35.72312499999999 Q14.991000000000001 -36.51212499999999 14.793750000000001 -37.54768749999999 Q14.5965 -38.583249999999985 14.892375000000001 -39.56949999999999 Q15.18825 -40.55574999999999 15.977250000000002 -41.196812499999986 Q16.76625 -41.83787499999999 17.94975 -41.93649999999999 L36.688500000000005 -43.61312499999999 L44.085375 -60.77387499999999 Q44.578500000000005 -61.858749999999986 45.466125000000005 -62.40118749999999 Q46.353750000000005 -62.94362499999998 47.34 -62.94362499999998 Q48.32625 -62.94362499999998 49.213875 -62.40118749999999 Q50.1015 -61.858749999999986 50.594625 -60.77387499999999 L57.9915 -43.51449999999999 L76.73025 -41.93649999999999 Q77.91375000000001 -41.83787499999999 78.70275000000001 -41.14749999999999 Q79.49175000000001 -40.45712499999999 79.787625 -39.470874999999985 Q80.0835 -38.48462499999999 79.8369375 -37.49837499999999 Q79.59037500000001 -36.51212499999999 78.70275000000001 -35.72312499999999 L64.50075 -23.592249999999986 L68.741625 -5.543874999999986 Q69.03750000000001 -4.458999999999985 68.643 -3.423437499999988 Q68.2485 -2.387874999999987 67.4595 -1.7961249999999875 Q66.6705 -1.2043749999999864 65.6349375 -1.1057499999999862 Q64.59937500000001 -1.007124999999986 63.514500000000005 -1.5988749999999872 L47.34 -11.264124999999986 Z"/></g><g id="Light-S" transform="matrix(1 0 0 1 1109.75 696)"><path d="M34.716 -12.053124999999987  47.34 -19.548624999999987  60.062625000000004 -12.053124999999987  56.709375 -26.255124999999985  67.65675 -35.62449999999999  53.158875 -36.90662499999999  47.34 -50.418249999999986  41.521125000000005 -36.90662499999999  27.02325 -35.62449999999999  38.069250000000004 -26.255124999999985  34.716 -12.053124999999987 Z M47.34 -13.578163374999988  32.189720625 -4.519950249999987 Q31.332472125 -4.117856124999985 30.619413375000004 -4.197446499999987 Q29.906256000000003 -4.277135499999989 29.306911874999997 -4.679229624999987 Q28.707666375000002 -5.081323749999989 28.426979625 -5.889259749999987 Q28.146194250000004 -6.697195749999985 28.404197250000003 -7.478601624999985 L32.379475125000006 -24.313001499999984 L19.027228125 -35.64728237499999 Q18.367229625 -36.20865587499999 18.20795025 -36.97862124999999 Q18.048670875 -37.74868524999999 18.268604625000002 -38.46933812499999 Q18.488637 -39.19008962499999 19.087981125 -39.66043224999999 Q19.68732525 -40.13077487499999 20.5293855 -40.19142924999999 L38.016288375 -41.75424099999999 L44.957910375 -57.814927749999995 Q45.337222125000004 -58.63420562499998 45.959250000000004 -59.024957875 Q46.581376500000005 -59.41561149999998 47.34 -59.41561149999998 Q48.0986235 -59.41561149999998 48.72075 -59.024957875 Q49.342777875 -58.63420562499998 49.722089625 -57.814927749999995 L56.663711625000005 -41.655615999999995 L74.1506145 -40.19142924999999 Q74.99267474999999 -40.13077487499999 75.592018875 -39.61111974999999 Q76.191363 -39.09146462499999 76.41139537500001 -38.370713124999995 Q76.631329125 -37.65006024999999 76.42273725 -36.92930874999999 Q76.21414537500002 -36.20865587499999 75.554146875 -35.64728237499999 L62.30052487500001 -24.313001499999984 L66.27580275000001 -7.478601624999985 Q66.53380575 -6.697195749999985 66.253020375 -5.889259749999987 Q65.972333625 -5.081323749999989 65.37308812500001 -4.679229624999987 Q64.77374400000001 -4.277135499999989 64.060586625 -4.197446499999987 Q63.347527875000004 -4.117856124999985 62.49027937500001 -4.519950249999987 L47.34 -13.578163374999988 Z"/></g><g id="Thin-S" transform="matrix(1 0 0 1 814.015 696)"><path d="M34.716 -12.053124999999987  47.34 -19.548624999999987  60.062625000000004 -12.053124999999987  56.709375 -26.255124999999985  67.65675 -35.62449999999999  53.158875 -36.90662499999999  47.34 -50.418249999999986  41.521125000000005 -36.90662499999999  27.02325 -35.62449999999999  38.069250000000004 -26.255124999999985  34.716 -12.053124999999987 Z M47.34 -15.891905874999988  33.213842625000005 -7.440433749999986 Q32.584122 -7.228094124999988 32.193468375 -7.288748499999986 Q31.802716125000003 -7.349402874999985 31.393027875 -7.56184112499999 Q30.983438250000003 -7.774279374999988 30.816466125 -8.354687499999986 Q30.649592625 -8.934996999999985 30.869625000000003 -9.413032374999986 L34.579404375 -25.03365437499999 L22.175436750000003 -35.57143974999999 Q21.742966125000002 -35.90518674999999 21.62155875 -36.40975224999999 Q21.50025 -36.91421912499999 21.644341125000004 -37.36937349999999 Q21.788530875000003 -37.82462649999999 22.198219125 -38.12424924999999 Q22.60780875 -38.42397062499999 23.108527875 -38.44675299999999 L39.343780875 -39.89575149999999 L45.8302485 -54.856374999999986 Q46.095845625 -55.41025299999998 46.452375 -55.64922137499998 Q46.808904375000004 -55.888189749999995 47.34 -55.888189749999995 Q47.871095625 -55.888189749999995 48.227625 -55.64922137499998 Q48.584154375000004 -55.41025299999998 48.8497515 -54.856374999999986 L55.336219125 -39.79712649999999 L71.571472125 -38.44675299999999 Q72.07219125 -38.42397062499999 72.481780875 -38.07493674999999 Q72.891469125 -37.72600149999999 73.035658875 -37.27074849999999 Q73.17975 -36.81559412499999 73.00912875 -36.36043974999999 Q72.838408875 -35.90518674999999 72.40593825 -35.57143974999999 L60.100595625000004 -25.03365437499999 L63.810375 -9.413032374999986 Q64.030407375 -8.934996999999985 63.863533875 -8.354687499999986 Q63.69656175 -7.774279374999988 63.286972125 -7.56184112499999 Q62.877283875 -7.349402874999985 62.486531625000005 -7.288748499999986 Q62.095878 -7.228094124999988 61.466157375 -7.440433749999986 L47.34 -15.891905874999988 Z"/></g><g id="Ultralight-S" transform="matrix(1 0 0 1 517.792 696)"><path d="M34.716 -12.053124999999987  47.34 -19.548624999999987  60.062625000000004 -12.053124999999987  56.709375 -26.255124999999985  67.65675 -35.62449999999999  53.158875 -36.90662499999999  47.34 -50.418249999999986  41.521125000000005 -36.90662499999999  27.02325 -35.62449999999999  38.069250000000004 -26.255124999999985  34.716 -12.053124999999987 Z M47.34 -17.280249999999988  33.828375 -9.192999999999987 Q33.33525 -9.094374999999989 33.138 -9.143687499999988 Q32.94075 -9.192999999999987 32.644875 -9.291624999999986 Q32.349000000000004 -9.390249999999988 32.250375 -9.834062499999987 Q32.15175 -10.277874999999987 32.349000000000004 -10.573749999999986 L35.8995 -25.46612499999999 L24.064500000000002 -35.525874999999985 Q23.768625 -35.72312499999999 23.67 -36.06831249999999 Q23.571375 -36.41349999999999 23.67 -36.70937499999999 Q23.768625 -37.00524999999999 24.064500000000002 -37.202499999999986 Q24.360375 -37.39974999999999 24.65625 -37.39974999999999 L40.140375 -38.78049999999999 L46.353750000000005 -53.081124999999986 Q46.551 -53.475624999999994 46.74825 -53.62356249999999 Q46.9455 -53.77149999999999 47.34 -53.77149999999999 Q47.734500000000004 -53.77149999999999 47.93175 -53.62356249999999 Q48.129000000000005 -53.475624999999994 48.32625 -53.081124999999986 L54.539625 -38.68187499999999 L70.02375 -37.39974999999999 Q70.319625 -37.39974999999999 70.6155 -37.15318749999999 Q70.911375 -36.90662499999999 71.01 -36.61074999999999 Q71.108625 -36.31487499999999 70.9606875 -36.01899999999999 Q70.81275000000001 -35.72312499999999 70.516875 -35.525874999999985 L58.7805 -25.46612499999999 L62.331 -10.573749999999986 Q62.52825 -10.277874999999987 62.429625 -9.834062499999987 Q62.331 -9.390249999999988 62.035125 -9.291624999999986 Q61.739250000000006 -9.192999999999987 61.542 -9.143687499999988 Q61.344750000000005 -9.094374999999989 60.851625000000006 -9.192999999999987 L47.34 -17.280249999999988 Z"/></g></g></svg>