<svg xmlns="http://www.w3.org/2000/svg" width="512" height="512" id="female-scientist"><path fill="#304757" d="M199.985 78.104a154.34 154.34 0 0 1-11.553 6.943c-13.146 7.145-48.47 32.728-51.324 102.376l-2.811 145.444s2.811 34.429 44.266 44.968c41.455 10.54 99.071 4.919 99.071 4.919s42.157 5.621 43.563-70.966l34.429-70.965s29.018-33.782 20.407-88.764c-6.222-39.722-31.548-74.32-68.789-89.472-27.169-11.054-63.851-13.255-107.259 15.517z"></path><path fill="#FF8A8A" d="M206.617 277.379s7.488 37.438 3.109 62.242c-.984 5.574-3.315 10.803-6.958 15.135-7.523 8.947-24.342 22.354-56.729 20.381 0 0-14.204 81.885 96.505 81.885 0 0 65.172-1.254 75.199-33.423 0 0 1.192-19.9-46.146-44.938-2.744-1.451-5.076-3.602-6.688-6.253-4.525-7.452-11.941-24.367-7.745-50.744l-50.547-44.285z"></path><path fill="#E24D4D" d="m257.167 321.662-50.55-44.283s4.093 20.488 4.454 41.193l46.048 32.302c-1.4-7.923-1.79-17.659.048-29.212z"></path><path fill="#FFE3D1" d="M317.744 423.599s1.115-19.122-43.42-43.46l-10.579 24.582-13.392 9.846-14.967-4.727-14.967-.395-25.489-47.188c-9.455 7.355-24.89 14.34-48.89 12.879 0 0-14.204 81.885 96.505 81.885 0 0 65.172-1.253 75.199-33.422z"></path><path fill="#304757" d="M242.545 457.021s14.584-.285 31.014-3.984l-14.621-20.605 4.021-22.982-13.391-.788-8.666-.395-12.427 2.926 12.298 21.799-12.114 23.563c4.398.299 9.015.466 13.886.466z"></path><path fill="#FEFEFE" d="M189.572 365.934c5.903 29.525 18.285 58.857 22.171 67.648.57 1.289 2.25 1.59 3.247.594l25.911-25.91-42.144-49.293a54.278 54.278 0 0 1-9.185 6.961zm85.328 62.699c1.844-7.73 5.858-26.508 6.201-44.629a211.302 211.302 0 0 0-9.504-5.345 17.753 17.753 0 0 1-3.312-2.304l-18.721 32.303s13.944 12.358 21.933 20.875c1.095 1.166 3.032.654 3.403-.9z"></path><path fill="#E0BEA8" d="M176.997 371.648c-8.232 2.697-18.416 4.252-30.957 3.487 0 0-9.895 57.14 51.392 75.949-1.159-38.639-15.169-69.234-20.435-79.436z"></path><path fill="#FF8A8A" d="M241.441 139.195c-.094 17.924-3.923 58.006-33.95 83.41-2.169 1.835-5.433 1.533-7.258-.645-2.341-2.794-6.317-5.854-12.313-5.367-4.458.362-8.504 2.79-11.217 6.347-4.148 5.439-8.928 16.046-4.062 33.387 1.332 4.745 3.421 9.289 6.586 13.067 4.671 5.574 12.906 11.594 25.526 8.371 0 0 26.238 68.129 101.732 46.032 0 0 50.635-14.729 51.557-71.811 0 0 .331-20.563.994-38.042.383-10.099-.068-20.226-1.598-30.216-.814-5.316-1.954-10.855-3.544-15.617-1.782-5.342-6.096-9.442-11.446-11.199-7.679-2.522-20.3-6.232-32.402-7.854-3.039-.407-6.086-.606-9.148-.744-9.269-.417-38.979-2.494-53.583-12.275-2.499-1.67-5.858.15-5.874 3.156z"></path><path fill="#E24D4D" d="M190.437 234.015c3.647 3.517 9.437 10.816 10.07 22.126.238 4.251-5.176 6.074-7.568 2.548-1.691-2.491-2.743-6.153-1.738-11.479.4-2.12.355-4.318-.125-6.421-.365-1.595-.963-3.566-1.944-5.84-.353-.817.664-1.552 1.305-.934z"></path><ellipse cx="304.656" cy="217.851" fill="#283D49" rx="4.171" ry="7.224"></ellipse><ellipse cx="339.153" cy="217.851" fill="#283D49" rx="4.171" ry="7.224"></ellipse><path fill="#B2CCDB" d="M279.288 257.916h26.074a5.63 5.63 0 0 0 5.63-5.63v-12.788a5.63 5.63 0 0 0-5.63-5.63h-26.074a5.631 5.631 0 0 0-5.63 5.63v12.788a5.63 5.63 0 0 0 5.63 5.63zm60.923 0h26.074a5.631 5.631 0 0 0 5.63-5.63v-12.788a5.63 5.63 0 0 0-5.63-5.63h-26.074a5.63 5.63 0 0 0-5.631 5.63v12.788a5.63 5.63 0 0 0 5.631 5.63z"></path><path fill="#304757" d="M369.909 228.973h-33.323a7.793 7.793 0 0 0-7.793 7.793v2.189h-12.014v-2.189a7.792 7.792 0 0 0-7.793-7.793h-33.322a7.792 7.792 0 0 0-7.793 7.793v2.189h-11.227a2.673 2.673 0 1 0 0 5.347h11.227v10.716a7.79 7.79 0 0 0 7.793 7.792h33.322a7.79 7.79 0 0 0 7.793-7.792v-10.716h12.014v10.716a7.791 7.791 0 0 0 7.793 7.792h33.323a7.791 7.791 0 0 0 7.793-7.792v-18.252a7.793 7.793 0 0 0-7.793-7.793zm-58.917 23.313a5.63 5.63 0 0 1-5.63 5.63h-26.074a5.631 5.631 0 0 1-5.63-5.63v-12.788a5.63 5.63 0 0 1 5.63-5.63h26.074a5.63 5.63 0 0 1 5.63 5.63v12.788zm60.923 0a5.63 5.63 0 0 1-5.63 5.63h-26.074a5.63 5.63 0 0 1-5.631-5.63v-12.788a5.63 5.63 0 0 1 5.631-5.63h26.074a5.631 5.631 0 0 1 5.63 5.63v12.788z"></path><path fill="#E0BEA8" d="M285.449 386.688c4.303 9.549 11.039 29.082 11.512 58.355 9.732-4.891 17.764-11.759 20.783-21.444 0 0 .912-15.779-32.295-36.911z"></path><path fill="#FEFEFE" d="M279.359 233.868h-.071a5.631 5.631 0 0 0-5.63 5.63v5.713l18.27 12.705h13.436c2.013 0 3.767-1.064 4.762-2.653l-30.767-21.395zm6.045 0 25.588 17.795v-5.144l-18.191-12.651zm53.628.128a5.629 5.629 0 0 0-4.452 5.502v6.709l16.838 11.709h14.867c1.718 0 3.236-.786 4.27-1.999l-31.523-21.921zm13.259-.128h-7.397l26.986 18.767c.007-.118.035-.229.035-.348v-4.771l-19.624-13.648z"></path></svg>