<svg xmlns="http://www.w3.org/2000/svg" width="512" height="512" id="meteorite"><g fill="#DAEFF7"><path d="M437.96 174.283c11.043-13.377 14.133-30.811 1.418-42.622-13.226-12.286-33.923-11.636-46.347 1.456l-80.363 85.792c-8.484 9.057-22.43 10.347-32.441 3.001l-3.903-2.864c-11.572-8.492-13.361-25.039-3.869-35.792 10.976-12.949 13.294-28.27.043-38.896-12.522-10.043-33.13-9.6-43.888 2.303L97.567 285.709a97.687 97.687 0 0 0-1.836 2.02l-.303.332.008.008c-15.136 17.25-24.327 39.812-24.327 64.527 0 54.18 44.077 98.103 98.448 98.103 29.742 0 56.382-13.161 74.434-33.937l.002-.003a99.389 99.389 0 0 0 3.178-3.85L437.96 174.283z"></path><ellipse cx="311.912" cy="93.846" rx="33.994" ry="33.875"></ellipse></g><path fill="#BC3F4B" d="M341.546 237.447c-5.711-5.083-6.22-13.832-1.138-19.543l13.897-15.617c5.083-5.711 13.832-6.22 19.543-1.138 5.711 5.083 6.222 13.832 1.14 19.543l-13.899 15.617c-5.083 5.711-13.832 6.22-19.543 1.138zm-248.435 56.69 15.231-16.324a100.124 100.124 0 0 1 35.686-24.524 52.935 52.935 0 0 0 19.133-13.252l35.885-39.029c6.118-6.654 16.346-7.427 23.395-1.77 7.417 5.953 8.584 16.799 2.604 24.194l-23.807 29.442c-3.406 4.212-1.91 10.509 3.027 12.738l.12.055c2.302 1.027 4.867 1.295 7.377 1.059 4.773-.447 15.408-.32 24.121 7.881 9.679 9.109 12.48 17.998 13.145 20.711.34 1.388.872 2.733 1.675 3.912 1.749 2.566 5.176 5.146 11.021.662l43.677-46.609c5.843-6.234 15.551-6.78 22.057-1.241 6.773 5.77 7.543 15.954 1.713 22.675l-38.989 44.944c-10.873 12.533-19.692 26.688-26.367 41.878-8.009 18.229-22.169 44.702-42.909 63.121L93.111 294.137z"></path><path fill="#FE5B67" d="m245.374 367.826-.047-.266c-1.187-6.593-6.042-11.908-12.52-13.611l-.419-.111c-10.473-2.431-10.342-8.527-9.32-11.967.408-1.373 1.204-2.59 2.138-3.676 1.933-2.242 3.156-4.287 3.899-6.1 1.5-3.66.143-8.736-3.087-11.021-7.751-5.484-9.712-13.607-9.798-20.174-.08-6.131-3.318-11.767-8.354-15.265a91.63 91.63 0 0 0-4.924-3.192c-7.428-4.482-16.309-6.004-24.679-3.719-3 .819-5.531 1.844-7.435 2.737-3.438 1.617-7.183 2.532-10.979 2.386-2.995-.115-6.326-.582-8.675-1.875-1.84-1.012-3.962-3.033-5.955-5.252-3.462-3.854-8.778-5.523-13.773-4.15-39.782 10.934-68.713 48.066-67.033 91.697 1.783 46.295 38.773 84.448 84.999 87.551 47.018 3.153 87.046-29.287 95.853-73.031.725-3.605.751-7.34.109-10.961zM156.767 262.52l-.03.107c-.702 2.574.662 5.238 3.182 6.114 3.12 1.085 8.7 1.54 18.028-1.874a4.528 4.528 0 0 0 2.939-4.639l-.013-.152c-.517-5.612-5.974-9.407-11.476-8.185a35.999 35.999 0 0 0-7.345 2.481c-2.564 1.191-4.522 3.426-5.285 6.148zm76.767 27.935c-1.13.945-2.412 2.184-3.354 3.576-.973 1.436-1.237 3.238-.816 4.922l.256 1.025c.49 1.957 2.447 3.022 4.363 2.391 1.605-.529 3.423-1.493 4.721-3.246a3.08 3.08 0 0 0 .561-1.432c.161-1.23.208-3.68-1.243-6.424-.863-1.633-3.07-1.997-4.488-.812zm17.654 35.371c-2.18 2.719-4.871 6.279-6.935 9.678-1.761 2.898-.734 6.768 2.325 8.23 1.934.926 4.486 1.672 7.7 1.695 2.274.016 4.356-1.334 5.205-3.445.695-1.728 1.492-4.031 2.021-6.571a10.468 10.468 0 0 0-.938-6.94 33.946 33.946 0 0 0-1.213-2.158c-1.805-2.952-6-3.187-8.165-.489zm-13.951-81.918c-1.123 1.688-2.82 4.292-4.257 6.725-1.267 2.145.177 4.962 2.666 5.028 2.426.064 5.626-.741 9.174-3.938 1.341-1.208 1.704-3.173 1.006-4.838l-.941-2.243a4.358 4.358 0 0 0-4.229-2.669 4.352 4.352 0 0 0-3.419 1.935z"></path><path fill="#FEFEFE" d="M196.929 366.791a6.714 6.714 0 0 0-9.004-4.17l-.191.08c-3.717 0-3.824-3.047-2.836-6.364.536-1.802.178-3.737-.894-5.28-7.283-10.488-17.628-18.683-29.742-23.301-3.154-1.201-6.668-.742-9.61.912-2.348 1.322-4.942 2.045-7.539 1.375-2.345-.605-3.933-1.631-5.002-2.797-2.005-2.186-4.773-3.583-7.721-3.256a63.437 63.437 0 0 0-24.582 8.021c-13.988 8.017-21.312 24.207-18.667 40.111.047.28.095.562.145.843 5.995 33.764 34.539 59.495 68.73 62.104a79.64 79.64 0 0 0 2.27.14c17 .798 32.843-9.106 38.917-25.005a63.665 63.665 0 0 0 4.182-22.77v-.14c0-1.662-1.095-3.127-2.679-3.638-3.883-1.247-3.767-2.84-3.157-4.565.244-.692 2.427-3.127 4.74-4.719 2.448-1.683 3.535-4.747 2.64-7.581z"></path></svg>