<svg xmlns="http://www.w3.org/2000/svg" width="512" height="512" id="rocket-launch"><path fill="#D94C53" d="m232.805 252.909-14.01 15.099a15.15 15.15 0 0 0-4.044 10.305v32.955a4.708 4.708 0 0 0 4.709 4.709h15.515V252.91l-2.17-.001zm58.093 0 14.01 15.099a15.15 15.15 0 0 1 4.045 10.305v32.955a4.709 4.709 0 0 1-4.71 4.709h-15.515V252.91l2.17-.001z"></path><path fill="#304757" d="M271.583 63.644a9.911 9.911 0 0 0-9.399-6.772h-.332a9.91 9.91 0 0 0-9.375 6.7l-13.208 38.57v111.282h45.167V102.142l-12.853-38.498z"></path><path fill="#FFE3D1" d="M281.973 102.143H241.73a7.032 7.032 0 0 0-7.032 7.032v40.241a7.032 7.032 0 0 0 7.032 7.032h40.243a7.03 7.03 0 0 0 7.03-7.032v-40.241a7.03 7.03 0 0 0-7.03-7.032zm6.756 213.834h-53.753a2.17 2.17 0 0 1-2.169-2.17v-98.354a7.938 7.938 0 0 1 7.938-7.938h42.219a7.937 7.937 0 0 1 7.938 7.938v98.354a2.174 2.174 0 0 1-2.173 2.17z"></path><path fill="#304757" d="M278.965 324.602h-34.227a8.625 8.625 0 0 1-8.626-8.625h51.479a8.626 8.626 0 0 1-8.626 8.625z"></path><path fill="#D94C53" d="M266.682 315.977h-9.66v-58.238a4.828 4.828 0 0 1 4.83-4.828 4.829 4.829 0 0 1 4.83 4.828v58.238z"></path><path fill="#FE5B67" d="M261.852 333.895s15.16-.992 18.604 13.469c.405 1.705.524 3.466.524 5.218v10.306c24.096-.753 17.859 20.331 17.859 20.331-.019.111-.034.222-.05.328-.58 4.004 4.131 6.379 7.215 3.761.414-.354.836-.685 1.266-.998 6.796-4.963 15.745-5.668 23.662-2.819 10.225 3.68 14.859 11.141 16.842 15.854 1.772 4.218 5.281 7.589 9.746 8.584 9.396 2.095 16.078-5.508 16.078-5.508 3.916-3.614 8.613-4.938 12.844-5.229 6.49-.442 12.859 1.776 18.115 5.61 8.986 6.556 14.472 14.364 17.78 21.925 6.278 14.347-4.407 30.403-20.066 30.403H112.209c-7.118 0-13.827-3.433-17.872-9.289-6.638-9.607-12.689-26.887-.854-52.833 14.052-30.809 38.579-33.102 51.304-31.941 6.33.576 12.365 3.371 16.359 8.316 5.635 6.973 5.277 14.563 3.982 19.708-.743 2.952-2.198 5.644-3.939 8.142-4.983 7.145-1.819 13.472-1.819 13.472 6.401 7.905 14.684 2.259 14.684 2.259-1.432-10.26 4.395-17.947 8.855-22.205 2.774-2.646 6.033-4.781 9.652-6.047 15.837-5.537 30.062 5.286 30.062 5.286-2.259-30.873 21.46-26.354 21.46-26.354v-11.977c0-9.817 7.956-17.772 17.769-17.772z"></path><circle cx="200.409" cy="354.979" r="6.4" fill="#FE5B67"></circle><circle cx="373.223" cy="374.934" r="5.836" fill="#FE5B67"></circle><path fill="#FE5B67" d="M421.791 364.393c3.94 8.025 5.773 17.232-1.506 20.807s-18.652-1.415-22.594-9.441c-3.939-8.025-3.476-16.023 3.805-19.598s16.356.204 20.295 8.232z"></path></svg>