<svg width="70" height="20" viewBox="0 0 48 19" version="1.1" xmlns="http://www.w3.org/2000/svg" xmlns:xlink="http://www.w3.org/1999/xlink" xml:space="preserve" xmlns:serif="http://www.serif.com/" style="fill-rule:evenodd;clip-rule:evenodd;stroke-linecap:round;stroke-linejoin:round;stroke-miterlimit:1.5;"><g id="Mesa-de-trabajo1" serif:id="Mesa de trabajo1" transform="matrix(1,0,0,1.00256,0,-15.8642)"><rect x="0" y="15.824" width="48" height="18.331" style="fill:none;"></rect><g transform="matrix(1.17696,0,0,1.17396,-4.24705,2.38427)"><g transform="matrix(0.585175,0,0,0.585175,14.7592,10.4192)"><path d="M10.823,13.978C12.314,13.211 14.005,12.802 15.791,12.802C17.578,12.802 19.269,13.211 20.76,13.978" style="fill:none;stroke:white;stroke-width:2.9px;"></path></g><g transform="matrix(0.585175,0,0,0.585175,5.20068,5.04632)"><circle cx="15.791" cy="24.282" r="11.48" style="fill:none;stroke:white;stroke-width:2.9px;"></circle></g><g transform="matrix(0.585175,0,0,0.585175,24.3178,5.04632)"><circle cx="15.791" cy="24.282" r="11.48" style="fill:none;stroke:white;stroke-width:2.9px;"></circle></g><g transform="matrix(1,0,0,1,0,0.343844)"><g transform="matrix(1,0,0,1,-0.113498,-0.343844)"><path d="M4.924,18.599L7.724,18.599" style="fill:none;stroke:white;stroke-width:1.7px;"></path></g><g transform="matrix(1,0,0,1,35.4658,-0.343844)"><path d="M4.924,18.599L7.724,18.599" style="fill:none;stroke:white;stroke-width:1.7px;"></path></g></g></g></g></svg>