<svg xmlns="http://www.w3.org/2000/svg" version="1.1" xmlns:xlink="http://www.w3.org/1999/xlink" xmlns:svgjs="http://svgjs.com/svgjs" width="100%" height="100%"><svg width="100%" height="100%" viewBox="0 0 113 96" version="1.1" xmlns="http://www.w3.org/2000/svg" xmlns:xlink="http://www.w3.org/1999/xlink" xml:space="preserve" xmlns:serif="http://www.serif.com/" style="fill-rule:evenodd;clip-rule:evenodd;stroke-linejoin:round;stroke-miterlimit:2;">
    <g id="SvgjsG1000">
        <rect x="-2.305" y="-1.815" width="116.699" height="99.597" style="fill:rgb(235,235,235);"></rect>
        <g transform="matrix(1,0,0,1,0,4.4)">
            <path d="M108.5,26.5C108.5,24.1 108.1,21.9 107.4,20.1C106.7,18.2 105.7,16.7 104.4,15.4C103.1,14.2 101.7,13.2 100,12.6C98.3,12 96.5,11.7 94.6,11.7C91.7,11.7 89.2,12.3 87,13.6C84.9,14.9 83.2,16.7 82,19C80.8,21.3 80.2,24 80.2,27C80.2,30.1 80.8,32.8 82,35.1C83.2,37.4 84.9,39.1 87,40.4C89.2,41.6 91.8,42.2 94.8,42.2C97.2,42.2 99.4,41.8 101.2,41.1C103.1,40.3 104.6,39.3 105.8,38C107,36.6 107.8,35.1 108.2,33.2L100.6,32.7C100.3,33.4 99.9,34.1 99.4,34.6C98.9,35.1 98.2,35.5 97.5,35.8C96.9,35.9 96,36 95.1,36C93.7,36 92.5,35.7 91.6,35.1C90.6,34.5 89.8,33.7 89.3,32.6C88.8,31.5 88.5,30.3 88.5,28.8L108.6,28.8L108.5,26.5ZM88.4,23.8C88.4,22.7 88.7,21.8 89.2,20.9C89.7,19.9 90.5,19.2 91.4,18.6C92.4,18 93.5,17.7 94.7,17.7C95.9,17.7 96.9,18 97.8,18.5C98.7,19 99.4,19.7 99.9,20.6C100.4,21.5 100.7,22.6 100.7,23.7L88.4,23.8Z" style="fill-rule:nonzero;"></path>
            <path d="M108.5,57.1C107.4,56.8 106.2,56.7 105,56.7C102.1,56.7 99.6,57.3 97.4,58.6C95.3,59.9 93.6,61.7 92.4,64C91.2,66.3 90.6,69 90.6,72C90.6,75.1 91.2,77.8 92.4,80.1C93.6,82.4 95.3,84.1 97.4,85.4C99.6,86.6 102.2,87.2 105.2,87.2C106.3,87.2 107.4,87.1 108.4,87L108.4,80.5C108.2,80.6 108,80.7 107.8,80.7C107,81 106.2,81.1 105.3,81.1C103.9,81.1 102.7,80.8 101.8,80.2C100.8,79.6 100,78.8 99.5,77.7C99,76.6 98.7,75.4 98.7,73.9L108.5,73.9L108.5,68.8L98.7,68.8C98.7,67.7 99,66.8 99.5,65.9C100,64.9 100.8,64.2 101.7,63.6C102.7,63 103.8,62.7 105,62.7C106.2,62.7 107.2,63 108.1,63.5C108.2,63.6 108.3,63.6 108.4,63.7L108.5,57.1Z" style="fill-rule:nonzero;"></path>
            <rect x="36.1" y="12.1" width="8.2" height="29.5" style="fill-rule:nonzero;"></rect>
            <path d="M37.1,7.1C38,7.9 39,8.3 40.2,8.3C41.4,8.3 42.5,7.9 43.3,7.1C44.2,6.3 44.6,5.3 44.6,4.2C44.6,3.1 44.2,2.1 43.3,1.3C42.5,0.4 41.5,0 40.2,0C39,0 38,0.4 37.1,1.2C36.3,2 35.8,3 35.8,4.1C35.8,5.3 36.3,6.2 37.1,7.1Z" style="fill-rule:nonzero;"></path>
            <path d="M4,2.2L4,41.5L29.1,41.5L29.1,34.6L12.3,34.6L12.3,2.2L4,2.2Z" style="fill-rule:nonzero;"></path>
            <path d="M78.3,12.1L68,41.6L58.8,41.6L48.5,12.1L57.1,12.1L63.2,33.2L63.5,33.2L69.6,12.1L78.3,12.1Z" style="fill-rule:nonzero;"></path>
            <path d="M17.9,86.6L4,86.6L4,47.3L18,47.3C22,47.3 25.4,48.1 28.2,49.7C31.1,51.3 33.2,53.5 34.8,56.4C36.3,59.3 37.1,62.8 37.1,66.9C37.1,71 36.3,74.5 34.8,77.5C33.3,80.4 31.1,82.7 28.2,84.3C25.3,85.8 21.9,86.6 17.9,86.6ZM12.3,79.4L17.6,79.4C20.1,79.4 22.1,79 23.8,78.1C25.5,77.2 26.8,75.9 27.6,74C28.5,72.1 28.9,69.8 28.9,66.8C28.9,63.9 28.5,61.5 27.6,59.7C26.8,57.9 25.5,56.5 23.8,55.6C22.1,54.7 20.1,54.3 17.6,54.3L12.3,54.3L12.3,79.4Z" style="fill-rule:nonzero;"></path>
            <rect x="44.6" y="57.1" width="8.2" height="29.5" style="fill-rule:nonzero;"></rect>
            <path d="M45.6,52.1C46.5,52.9 47.5,53.3 48.7,53.3C49.9,53.3 51,52.9 51.8,52.1C52.7,51.3 53.1,50.3 53.1,49.2C53.1,48.1 52.7,47.1 51.8,46.3C51,45.4 49.9,45 48.7,45C47.5,45 46.4,45.4 45.6,46.2C44.7,47 44.3,48 44.3,49.1C44.3,50.3 44.7,51.3 45.6,52.1Z" style="fill-rule:nonzero;"></path>
            <path d="M88.6,57.1L78.3,86.6L69.1,86.6L58.8,57.1L67.4,57.1L73.5,78.2L73.8,78.2L80,57.1L88.6,57.1Z" style="fill-rule:nonzero;"></path>
        </g>
    </g>
</svg><style>@media (prefers-color-scheme: light) { :root { filter: none; } }
</style></svg>