<svg xmlns="http://www.w3.org/2000/svg" width="512" height="512" id="space-dog"><path fill="#FEFEFE" d="M267.843 58.316c-91.925 0-166.444 74.52-166.444 166.444s74.52 166.444 166.444 166.444 166.443-74.521 166.443-166.444S359.768 58.316 267.843 58.316z"></path><path fill="#B2CCDB" d="M313.129 373.037c-90.5 0-163.864-73.364-163.864-163.864 0-16.608 2.491-32.63 7.085-47.736 6.516-21.425 17.304-40.979 31.369-57.692a164.319 164.319 0 0 1 58.002-43.92c-81.459 10.825-144.322 80.517-144.322 164.937 0 91.926 74.52 166.444 166.444 166.444 30.695 0 59.427-8.345 84.114-22.836a164.193 164.193 0 0 1-38.828 4.667z"></path><path fill="#FF8A8A" d="M112.787 325.625s18.609-9.887 33.451-23.299a43.284 43.284 0 0 0 12.545-20.102c5.012-17.324 14.924-53.459 19.141-81.999 0 0 4.564-50.588 23.56-66.835 3.62-3.096 8.889-3.632 12.915-1.085 5.687 3.597 12.4 13.019 13.152 37.346 0 0 15.509-7.976 31.018-5.761 0 0 15.035-24.514 39.772-26.1 11.056-.708 17.863 12.092 11.056 20.829-.104.131-.207.264-.313.396-10.635 13.293-11.07 26.053-11.07 26.053s21.263 18.63 20.375 42.814c-.582 15.883 12.215 34.904 21.068 46.092 3.542 4.476 7.519 8.578 11.701 12.461 6.086 5.65 16.969 19.025 6.667 35.644 0 0-15.26 25.041-38.793 35.782-2.208 1.008-4.73-.607-4.827-3.032l-.11-2.745c-.063-1.564-1.646-2.575-3.104-2.002-2.466.97-6.259 2.025-10.587 1.702-2.679-.199-3.983-3.368-2.373-5.517a30.95 30.95 0 0 0 1.776-2.621c1.124-1.867.156-4.295-1.935-4.912-6.982-2.059-22.087-6.666-29.11-10.01 0 0-4.431 60.262-8.862 78.43-.004.002-100.144-3.543-147.113-81.529z"></path><path fill="#E24D4D" d="M161.714 271.871a1014.931 1014.931 0 0 1-2.931 10.354 43.294 43.294 0 0 1-12.545 20.103c-14.842 13.411-33.451 23.299-33.451 23.299 46.969 77.985 147.109 81.53 147.109 81.53 2.012-8.243 4.021-25.153 5.617-41.17-47.061-14.272-85.152-49.135-103.799-94.116z"></path><path fill="#283D49" d="M353.324 301.922c1.106 2.469 1.748 5.6 1.031 9.348-1.241 6.486-8.813 9.736-14.406 6.229l-.245-.157c-5.058-3.289-5.957-10.415-2.175-15.116a20.31 20.31 0 0 1 3.309-3.267c4.101-3.211 10.355-1.788 12.486 2.963z"></path><path fill="#E24D4D" d="M194.386 194.167s10.499-12.618 22.235-18.761c0 0-.447-24.563-11.597-18.684-11.811 6.229-10.638 37.445-10.638 37.445zm75.493-26.707s11.598 3.221 17.824 10.093c0 0 8.661-12.125 8.35-19.808-.104-2.594-2.402-4.527-4.994-4.392-4.73.246-13.687 2.418-21.18 14.107z"></path><ellipse cx="283.896" cy="243.868" fill="#283D49" rx="3.42" ry="6.395"></ellipse><ellipse cx="306.288" cy="239.414" fill="#283D49" rx="3.421" ry="6.395"></ellipse><path fill="#4A6273" d="M120.942 315.796s-12.405 8.796-31.354 12.89c-9.006 1.945-14.258 11.399-10.805 19.94 13.958 34.524 57.427 106.739 176.489 105.027 6.302-.092 11.317-5.325 11.08-11.624l-1.756-46.225c0 .003-102.922-.726-143.654-80.008z"></path><path fill="#283D49" d="M170.011 390.938c-16.273 0-30.624 10.437-39.121 26.318 20.872 15.945 48.91 29.15 86.356 34.195.001-.198.012-.395.012-.592 0-33.093-21.154-59.921-47.247-59.921z"></path><path fill="#304757" d="M137.418 421.998c18.137 12.455 41.156 22.73 70.235 27.953-.073-27.618-17.245-49.979-38.421-49.979-13.233.001-24.903 8.735-31.814 22.026z"></path><path fill="#FE5B67" d="M267.843 58.316c-91.925 0-166.444 74.52-166.444 166.444s74.52 166.444 166.444 166.444 166.443-74.521 166.443-166.444S359.768 58.316 267.843 58.316zm0 324.877c-87.501 0-158.435-70.933-158.435-158.434S180.342 66.327 267.843 66.327s158.435 70.933 158.435 158.434c-.001 87.501-70.934 158.432-158.435 158.432z"></path><path fill="#B2CCDB" d="M249.514 86.806c.008.065.016.131.022.197.579 4.907 4.954 8.378 9.883 8.028 23.888-1.699 47.939 3.398 69.163 14.808 4.207 2.261 9.428 1.041 12.063-2.942l.106-.161c2.975-4.498 1.425-10.571-3.323-13.128-24.363-13.12-51.986-18.982-79.417-17.018-5.233.374-9.111 5.005-8.497 10.216zm103.255 39.957a129.617 129.617 0 0 1 3.76 3.487c3.376 3.261 8.649 3.471 12.176.374l.469-.412c3.938-3.458 4.053-9.537.285-13.179a145.713 145.713 0 0 0-4.483-4.153c-3.774-3.352-9.559-2.978-12.814.881l-.396.468c-3.163 3.745-2.659 9.275 1.003 12.534z"></path><path fill="#283D49" d="M272.322 394.527v-.008c0-4.209-3.442-7.558-7.65-7.527-.318.002-.639.004-.959.004-58.533 0-109.512-32.246-136.211-79.928-2.059-3.676-6.699-4.983-10.347-2.875-3.564 2.06-4.839 6.609-2.829 10.201 29.276 52.308 85.185 87.687 149.387 87.687.391 0 .78-.001 1.17-.005 4.126-.028 7.439-3.424 7.439-7.549z"></path></svg>