<?xml version="1.0" encoding="utf-8"?>
<!-- Generator: Adobe Illustrator 27.0.0, SVG Export Plug-In . SVG Version: 6.00 Build 0)  -->
<svg version="1.1" id="Capa_1" xmlns="http://www.w3.org/2000/svg" xmlns:xlink="http://www.w3.org/1999/xlink" x="0px" y="0px"
	 width="343.1210938px" height="83.4893036px" viewBox="0 0 343.1210938 83.4893036"
	 style="enable-background:new 0 0 343.1210938 83.4893036;" xml:space="preserve">
<style type="text/css">
	.st0{fill:#E0DCDA;}
</style>
<g>
	<path class="st0" d="M4.4907227,1.254932v81.0742188H0V1.254932H4.4907227z"/>
	<path class="st0" d="M17.5981445,1.254932h4.4907227V43.005909h0.121582
		c3.6411133-7.1611328,14.3212891-28.8857422,20.3896484-41.7509766h4.7333984l-16.2631836,32.890625l18.2050781,48.1835899
		h-4.8544922L28.2788086,38.8789558l-6.1899414,11.7734375v31.676754h-4.4907227V1.254932z"/>
	<path class="st0" d="M77.434082,40.7002449H58.8647461v37.5019493h20.7539062l-0.7280273,4.1269531H54.3740234V1.254932h24.1523438
		v4.1269531H58.8647461v31.1914062H77.434082V40.7002449z"/>
	<path class="st0" d="M94.5473633,51.9873543l-4.9760742,30.3417931h-4.4907227L98.6738281,1.254932h6.5537109
		l14.2001953,81.0742188h-4.7333984l-5.21875-30.3417931H94.5473633z M108.7475586,47.8604012
		c-3.8837891-22.2099609-6.1899414-36.7744141-6.796875-42.8427734h-0.2426758
		c-0.2426758,5.8251958-3.6411133,25.0019531-6.4326172,42.8427734H108.7475586z"/>
	<path class="st0" d="M126.7353516,1.254932h11.5898438v32.3837891h14.2636719V1.254932h11.590332v81.0742188h-11.590332V44.2969246
		h-14.2636719v38.0322227h-11.5898438V1.254932z"/>
	<path class="st0" d="M185.6020508,59.6543465l-3.0830078,22.6748009h-11.7792969L183.8598633,1.254932h16.3984375
		l13.6323242,81.0742188h-12.1171875l-3.4204102-22.6748009H185.6020508z M196.9624023,48.9961433
		c-2.0854492-14.7324219-3.9179688-27.9707031-4.8085938-36.7841797h-0.4321289
		c-0.3374023,6.5830078-2.8837891,24.1494141-4.6342773,36.7841797H196.9624023z"/>
	<path class="st0" d="M255.2470703,58.3203621v3.0634766c0,9.5146446-1.6171875,22.1054649-18.1757812,22.1054649
		c-14.7851562,0-17.7832031-9.5175781-17.7832031-21.7783165V20.7441902c0-12.6201172,5.6513672-20.6494141,17.9726562-20.6494141
		c14.828125,0,17.6220703,9.9814453,17.6220703,21.0693359v3.5224609h-11.6435547v-4.7939453
		c0-5.6318359-1.2011719-9.234375-6.0322266-9.234375c-4.6972656,0-6.1123047,3.3886719-6.1123047,9.3144531v42.6845703
		c0,5.9599571,1.2236328,10.3632774,6.2871094,10.3632774c4.9394531,0,6.1269531-4.0224609,6.1269531-10.4335899v-4.2666016
		H255.2470703z"/>
	<path class="st0" d="M262.7939453,1.254932h11.4003906v37.2070312h0.1220703
		C277.4833984,30.5439949,284.8505859,12.6055183,289.5,1.254932h12.8740234l-14.9384766,31.6601562l15.9335938,49.4140587
		h-12.6171875l-11.2197266-37.2968712l-5.3378906,11.015625v26.2812462h-11.4003906V1.254932z"/>
	<path class="st0" d="M317.8623047,58.7109871v4.9375c0,6.411129,2.0048828,9.9404259,6.9765625,9.9404259
		c5.0927734,0,6.5976562-4.5195312,6.5976562-10.6376915c0-8.8964844-1.9277344-11.8310547-10.5859375-18.6425781
		c-8.7119141-6.8642578-13.3115234-11.1943359-13.3115234-23.1835938c0-10.5878906,3.1962891-21.1513672,17.3798828-21.125
		c14.2822266,0.0263672,16.7988281,10.0732422,16.7988281,19.2226562v4.1962891h-11.4951172v-3.8857422
		c0-5.9013672-1.0361328-9.5380859-5.5205078-9.5380859c-4.4150391,0-5.5732422,3.8505859-5.5732422,9.4550781
		c0,6.1542969,1.1845703,8.9716797,8.3847656,14.2832031c11.9248047,8.8623047,15.6074219,13.9619141,15.6074219,27.5019531
		c0,11.4765587-3.8476562,22.2539024-18.6347656,22.2539024c-14.546875,0-18.2148438-9.3232422-18.2148438-20.0039024v-4.7744141
		H317.8623047z"/>
</g>
</svg>
