<svg xmlns="http://www.w3.org/2000/svg" xmlns:xlink="http://www.w3.org/1999/xlink" width="1080" zoomAndPan="magnify" viewBox="0 0 810 809.999993" height="1080" preserveAspectRatio="xMidYMid meet" version="1.0"><defs><g/><clipPath id="7d7ef39c12"><path d="M 252 178 L 668.882812 178 L 668.882812 648 L 252 648 Z M 252 178 " clip-rule="nonzero"/></clipPath><clipPath id="6872b26c8a"><path d="M 184.382812 200 L 306 200 L 306 646 L 184.382812 646 Z M 184.382812 200 " clip-rule="nonzero"/></clipPath></defs><g clip-path="url(#7d7ef39c12)"><path fill="#100f0d" d="M 668.628906 524.503906 C 641.183594 536.097656 613.601562 547.269531 585.992188 558.363281 L 544.515625 574.808594 C 537.59375 577.519531 530.746094 580.457031 523.640625 582.597656 C 516.550781 584.792969 509.425781 586.882812 502.390625 589.242188 L 333.007812 644.292969 L 321.59375 648 L 319.796875 636.125 L 254.59375 204.542969 L 252.9375 193.601562 L 263.96875 192.859375 L 439.871094 180.964844 L 461.855469 179.441406 C 469.179688 178.804688 476.488281 178.03125 483.863281 178.222656 L 528.042969 178.265625 C 557.5 178.332031 586.96875 178.660156 616.460938 179.234375 C 587.316406 183.769531 558.15625 188.0625 528.980469 192.097656 L 485.203125 198.085938 C 477.921875 199.265625 470.574219 199.484375 463.234375 199.839844 L 441.246094 201.285156 L 265.34375 213.179688 L 274.71875 201.496094 L 339.925781 633.082031 L 326.714844 624.917969 L 496.097656 569.863281 C 503.175781 567.636719 510.167969 565.136719 517.195312 562.746094 C 524.203125 560.296875 531.46875 558.652344 538.660156 556.773438 L 581.878906 545.691406 C 610.730469 538.433594 639.609375 531.257812 668.628906 524.503906 " fill-opacity="1" fill-rule="nonzero"/></g><path fill="#100f0d" d="M 358.035156 273.21875 L 345.523438 190.429688 C 341.769531 165.5625 347.984375 141.070312 363.03125 121.46875 C 378.085938 101.84375 400.164062 89.496094 425.183594 86.703125 C 476.425781 80.992188 524.40625 117.820312 532.117188 168.804688 L 544.625 251.597656 L 524.492188 254.644531 L 511.984375 171.851562 C 505.894531 131.542969 468.015625 102.410156 427.4375 106.945312 C 407.972656 109.121094 390.832031 118.683594 379.175781 133.875 C 367.535156 149.039062 362.730469 168.046875 365.652344 187.382812 L 378.164062 270.171875 L 358.035156 273.21875 " fill-opacity="1" fill-rule="nonzero"/><path fill="#100f0d" d="M 508.269531 256.054688 C 510.449219 270.496094 523.988281 280.890625 538.507812 279.273438 C 553.027344 277.652344 563.03125 264.628906 560.851562 250.183594 C 558.667969 235.742188 545.125 225.347656 530.605469 226.96875 C 516.085938 228.585938 506.085938 241.609375 508.269531 256.054688 " fill-opacity="1" fill-rule="nonzero"/><path fill="#100f0d" d="M 341.808594 274.628906 C 343.988281 289.074219 357.527344 299.46875 372.050781 297.847656 C 386.566406 296.226562 396.570312 283.207031 394.386719 268.761719 C 392.207031 254.316406 378.667969 243.925781 364.148438 245.546875 C 349.628906 247.167969 339.625 260.1875 341.808594 274.628906 " fill-opacity="1" fill-rule="nonzero"/><g clip-path="url(#6872b26c8a)"><path fill="#100f0d" d="M 235.945312 200.058594 C 236.84375 208.921875 237.554688 217.765625 238.132812 226.601562 C 238.8125 235.445312 239.203125 244.261719 239.660156 253.082031 C 239.8125 257.488281 240.269531 261.917969 240.175781 266.300781 C 240.089844 268.488281 239.636719 270.636719 239.375 272.8125 C 239.078125 274.976562 238.902344 277.152344 238.691406 279.328125 L 236.230469 305.433594 L 226.382812 409.855469 L 206.6875 618.695312 L 191.503906 608.894531 C 193.203125 607.957031 194.332031 607.417969 195.714844 606.773438 C 197.042969 606.152344 198.359375 605.578125 199.6875 605.039062 C 202.339844 603.941406 205.015625 602.976562 207.730469 602.113281 C 213.167969 600.4375 218.6875 598.996094 224.351562 597.980469 C 230.058594 597.171875 235.921875 597.675781 241.632812 598.34375 C 247.355469 599.105469 252.988281 600.429688 258.382812 602.296875 C 269.207031 606.023438 278.84375 612.289062 286.628906 619.863281 C 294.445312 627.445312 300.519531 636.289062 305.21875 645.570312 C 298.203125 637.867188 290.304688 631.203125 281.824219 626.105469 C 273.304688 621.042969 264.0625 617.933594 254.835938 616.742188 C 250.203125 616.183594 245.566406 616.105469 240.984375 616.480469 C 236.386719 616.765625 231.90625 617.902344 227.410156 618.609375 C 222.867188 619.105469 218.320312 620.0625 213.925781 621.515625 C 211.722656 622.214844 209.542969 623 207.425781 623.875 C 206.367188 624.308594 205.316406 624.765625 204.304688 625.242188 C 203.351562 625.675781 202.160156 626.273438 201.605469 626.582031 L 184.613281 635.953125 L 186.421875 616.78125 L 206.113281 407.941406 L 215.964844 303.519531 L 218.425781 277.417969 C 218.628906 275.238281 218.855469 273.066406 218.972656 270.882812 C 219.121094 268.703125 219.082031 266.503906 219.40625 264.34375 C 220.132812 260.019531 221.410156 255.75 222.382812 251.453125 C 224.480469 242.871094 226.511719 234.285156 228.832031 225.722656 C 231.050781 217.152344 233.40625 208.597656 235.945312 200.058594 " fill-opacity="1" fill-rule="nonzero"/></g><g fill="#000000" fill-opacity="1"><g transform="translate(148.275861, 705.216124)"><g><path d="M 13.40625 -0.765625 C 12.84375 0.972656 12.847656 2.722656 13.421875 4.484375 C 14.367188 7.265625 16.222656 9.644531 18.984375 11.625 C 21.742188 13.601562 24.601562 14.582031 27.5625 14.5625 C 30.488281 14.570312 32.929688 13.210938 34.890625 10.484375 C 37.671875 6.609375 38.535156 3.410156 37.484375 0.890625 C 36.441406 -1.628906 34.34375 -4.019531 31.1875 -6.28125 C 27.3125 -9.070312 24.75 -12.207031 23.5 -15.6875 C 22.25 -19.175781 22.753906 -22.675781 25.015625 -26.1875 C 27.554688 -30.132812 30.613281 -31.960938 34.1875 -31.671875 C 37.769531 -31.390625 41.8125 -29.632812 46.3125 -26.40625 C 50.8125 -23.175781 53.769531 -19.910156 55.1875 -16.609375 C 56.144531 -14.335938 56.09375 -11.984375 55.03125 -9.546875 L 50.78125 -12.59375 C 51.363281 -14.21875 51.476562 -15.828125 51.125 -17.421875 C 50.539062 -20.148438 48.617188 -22.707031 45.359375 -25.09375 C 42.054688 -27.414062 39.019531 -28.421875 36.25 -28.109375 C 33.488281 -27.796875 31.046875 -26.160156 28.921875 -23.203125 C 26.753906 -20.179688 26.265625 -17.175781 27.453125 -14.1875 C 28.640625 -11.195312 30.941406 -8.472656 34.359375 -6.015625 C 37.804688 -3.535156 39.976562 -0.722656 40.875 2.421875 C 41.769531 5.578125 40.769531 8.957031 37.875 12.5625 C 35.425781 15.632812 32.59375 17.242188 29.375 17.390625 C 26.15625 17.546875 22.375 16.066406 18.03125 12.953125 C 13.695312 9.835938 11.070312 6.734375 10.15625 3.640625 C 9.726562 2.035156 9.679688 0.40625 10.015625 -1.25 C 10.203125 -1.863281 10.613281 -2.109375 11.25 -1.984375 C 11.882812 -1.867188 12.601562 -1.460938 13.40625 -0.765625 Z M 13.40625 -0.765625 "/></g></g></g><g fill="#000000" fill-opacity="1"><g transform="translate(186.463753, 732.429397)"><g><path d="M 30.96875 17.328125 L 28.3125 15.84375 L 39.8125 -4.703125 L 20.875 -15.3125 L 9.375 5.234375 L 6.78125 3.796875 L 26.859375 -37.1875 C 27.253906 -37.894531 27.773438 -38.285156 28.421875 -38.359375 C 29.066406 -38.429688 29.832031 -38.332031 30.71875 -38.0625 C 31.613281 -37.800781 32.390625 -37.46875 33.046875 -37.0625 L 21.671875 -16.734375 L 40.609375 -6.125 L 50.5625 -23.921875 C 50.957031 -24.628906 51.492188 -25.019531 52.171875 -25.09375 C 52.847656 -25.175781 53.59375 -25.117188 54.40625 -24.921875 C 55.21875 -24.722656 56.050781 -24.3125 56.90625 -23.6875 Z M 30.96875 17.328125 "/></g></g></g><g fill="#000000" fill-opacity="1"><g transform="translate(226.220125, 754.462765)"><g><path d="M 42.78125 -9.4375 C 39.488281 -2.738281 35.738281 2.296875 31.53125 5.671875 C 27.332031 9.046875 23.097656 9.820312 18.828125 8 C 14.535156 6.175781 12.148438 2.570312 11.671875 -2.8125 C 11.179688 -8.15625 12.207031 -14.332031 14.75 -21.34375 C 17.863281 -30.039062 21.070312 -35.359375 24.375 -37.296875 C 27.6875 -39.234375 32.160156 -39.003906 37.796875 -36.609375 C 43.410156 -34.222656 46.671875 -31.160156 47.578125 -27.421875 C 48.472656 -23.710938 46.875 -17.71875 42.78125 -9.4375 Z M 29.1875 3.3125 C 32.863281 0.0390625 36.046875 -4.757812 38.734375 -11.09375 C 41.835938 -18.382812 43.191406 -23.847656 42.796875 -27.484375 C 42.410156 -31.128906 40.53125 -33.671875 37.15625 -35.109375 C 33.757812 -36.546875 30.613281 -36.140625 27.71875 -33.890625 C 24.832031 -31.648438 21.835938 -26.882812 18.734375 -19.59375 C 16.046875 -13.257812 14.796875 -7.625 14.984375 -2.6875 C 15.171875 2.238281 16.664062 5.296875 19.46875 6.484375 C 22.25 7.671875 25.488281 6.613281 29.1875 3.3125 Z M 29.1875 3.3125 "/></g></g></g><g fill="#000000" fill-opacity="1"><g transform="translate(266.095017, 771.370813)"><g><path d="M 7.375 2.21875 L 18.78125 -44.953125 L 35.109375 -40.046875 C 40.410156 -38.453125 44.265625 -36.328125 46.671875 -33.671875 C 49.078125 -31.003906 49.488281 -27.457031 47.90625 -23.03125 C 46.519531 -19.101562 44.0625 -16.570312 40.53125 -15.4375 C 37 -14.300781 32.953125 -14.421875 28.390625 -15.796875 L 16.9375 -19.234375 L 10.21875 3.078125 Z M 23.71875 -41.78125 L 17.40625 -20.796875 L 26.25 -18.140625 C 30.269531 -16.929688 33.832031 -16.769531 36.9375 -17.65625 C 40.03125 -18.539062 42.113281 -20.765625 43.1875 -24.328125 C 44.238281 -27.804688 44.046875 -30.734375 42.609375 -33.109375 C 41.171875 -35.492188 38.515625 -37.289062 34.640625 -38.5 Z M 23.71875 -41.78125 "/></g></g></g><g fill="#000000" fill-opacity="1"><g transform="translate(311.063346, 784.968704)"><g><path d="M 36.421875 -42.96875 L 46.1875 7.859375 L 43.234375 7.359375 L 39.515625 -7.984375 L 16.4375 -11.921875 L 7.84375 1.328125 L 4.890625 0.828125 L 30.90625 -43.90625 Z M 32.546875 -36.859375 L 17.359375 -13.421875 L 39.125 -9.703125 Z M 32.546875 -36.859375 "/></g></g></g><g fill="#000000" fill-opacity="1"><g transform="translate(364.811199, 793.629209)"><g><path d="M 35.875 1.75 L 7.6875 0.375 L 7.5 -45.265625 C 7.539062 -46.066406 7.878906 -46.648438 8.515625 -47.015625 C 9.148438 -47.390625 9.835938 -47.648438 10.578125 -47.796875 C 11.316406 -47.941406 12.148438 -47.972656 13.078125 -47.890625 L 10.796875 -1.125 L 36.25 0.125 Z M 35.875 1.75 "/></g></g></g><g fill="#000000" fill-opacity="1"><g transform="translate(408.268792, 795.599435)"><g><path d="M 33.84375 -20.5 C 33.332031 -16.0625 32.316406 -12.175781 30.796875 -8.84375 C 28.515625 -3.976562 25.054688 -1.414062 20.421875 -1.15625 C 15.773438 -0.894531 12.039062 -3.070312 9.21875 -7.6875 C 6.414062 -12.269531 4.597656 -18.265625 3.765625 -25.671875 C 2.722656 -34.847656 3.253906 -41.035156 5.359375 -44.234375 C 7.472656 -47.429688 11.582031 -49.203125 17.6875 -49.546875 C 23.78125 -49.890625 28.046875 -48.59375 30.484375 -45.65625 C 31.515625 -44.414062 32.34375 -42.617188 32.96875 -40.265625 L 27.828125 -39.96875 C 27.378906 -41.40625 26.84375 -42.613281 26.21875 -43.59375 C 24.257812 -46.6875 21.445312 -48.128906 17.78125 -47.921875 C 14.09375 -47.710938 11.453125 -45.960938 9.859375 -42.671875 C 8.265625 -39.378906 7.691406 -33.773438 8.140625 -25.859375 C 8.523438 -18.992188 9.890625 -13.390625 12.234375 -9.046875 C 14.585938 -4.703125 17.285156 -2.617188 20.328125 -2.796875 C 23.347656 -2.960938 25.785156 -5.328125 27.640625 -9.890625 C 28.628906 -12.296875 29.304688 -15.019531 29.671875 -18.0625 C 29.722656 -19.164062 30.175781 -19.875 31.03125 -20.1875 C 31.882812 -20.507812 32.820312 -20.613281 33.84375 -20.5 Z M 33.84375 -20.5 "/></g></g></g><g fill="#000000" fill-opacity="1"><g transform="translate(450.780502, 793.095604)"><g><path d="M 31.125 -30.8125 C 31.925781 -23.394531 31.445312 -17.132812 29.6875 -12.03125 C 27.9375 -6.9375 24.769531 -4.019531 20.1875 -3.28125 C 15.59375 -2.53125 11.65625 -4.304688 8.375 -8.609375 C 5.101562 -12.867188 2.671875 -18.644531 1.078125 -25.9375 C -0.929688 -34.9375 -1.050781 -41.140625 0.71875 -44.546875 C 2.488281 -47.953125 6.390625 -50.144531 12.421875 -51.125 C 18.441406 -52.101562 22.835938 -51.257812 25.609375 -48.59375 C 28.335938 -45.914062 30.175781 -39.988281 31.125 -30.8125 Z M 26.453125 -12.78125 C 27.816406 -17.507812 27.945312 -23.265625 26.84375 -30.046875 C 25.570312 -37.867188 23.796875 -43.210938 21.515625 -46.078125 C 19.242188 -48.953125 16.296875 -50.097656 12.671875 -49.515625 C 9.035156 -48.921875 6.597656 -46.90625 5.359375 -43.46875 C 4.109375 -40.019531 4.117188 -34.382812 5.390625 -26.5625 C 6.492188 -19.78125 8.441406 -14.351562 11.234375 -10.28125 C 14.023438 -6.207031 16.921875 -4.414062 19.921875 -4.90625 C 22.910156 -5.382812 25.085938 -8.007812 26.453125 -12.78125 Z M 26.453125 -12.78125 "/></g></g></g><g fill="#000000" fill-opacity="1"><g transform="translate(493.485443, 786.089324)"><g><path d="M 34.203125 -9.4375 L 31.28125 -8.625 L 25.015625 -31.328125 L 4.078125 -25.5625 L 10.34375 -2.859375 L 7.484375 -2.0625 L -7.03125 -45.328125 C -7.238281 -46.109375 -7.140625 -46.753906 -6.734375 -47.265625 C -6.335938 -47.773438 -5.726562 -48.242188 -4.90625 -48.671875 C -4.082031 -49.109375 -3.296875 -49.410156 -2.546875 -49.578125 L 3.65625 -27.125 L 24.59375 -32.890625 L 19.15625 -52.546875 C 18.945312 -53.328125 19.050781 -53.984375 19.46875 -54.515625 C 19.882812 -55.046875 20.453125 -55.53125 21.171875 -55.96875 C 21.898438 -56.40625 22.785156 -56.695312 23.828125 -56.84375 Z M 34.203125 -9.4375 "/></g></g></g><g fill="#000000" fill-opacity="1"><g transform="translate(537.251595, 773.818947)"><g><path d="M 23.78125 -36.765625 C 26.15625 -29.703125 27.03125 -23.492188 26.40625 -18.140625 C 25.789062 -12.785156 23.328125 -9.25 19.015625 -7.53125 C 14.679688 -5.820312 10.453125 -6.710938 6.328125 -10.203125 C 2.222656 -13.660156 -1.394531 -18.773438 -4.53125 -25.546875 C -8.414062 -33.921875 -9.859375 -39.957031 -8.859375 -43.65625 C -7.867188 -47.363281 -4.53125 -50.34375 1.15625 -52.59375 C 6.832031 -54.84375 11.304688 -54.960938 14.578125 -52.953125 C 17.816406 -50.929688 20.882812 -45.535156 23.78125 -36.765625 Z M 23.078125 -18.15625 C 23.398438 -23.070312 22.296875 -28.726562 19.765625 -35.125 C 16.835938 -42.488281 13.957031 -47.328125 11.125 -49.640625 C 8.289062 -51.953125 5.164062 -52.429688 1.75 -51.078125 C -1.675781 -49.722656 -3.628906 -47.234375 -4.109375 -43.609375 C -4.585938 -39.972656 -3.363281 -34.472656 -0.4375 -27.109375 C 2.09375 -20.710938 5.15625 -15.828125 8.75 -12.453125 C 12.351562 -9.078125 15.570312 -7.945312 18.40625 -9.0625 C 21.21875 -10.1875 22.773438 -13.21875 23.078125 -18.15625 Z M 23.078125 -18.15625 "/></g></g></g><g fill="#000000" fill-opacity="1"><g transform="translate(577.385574, 757.785689)"><g><path d="M 31.8125 -16.6875 L 6.828125 -3.578125 L -16.5 -42.796875 C -16.875 -43.515625 -16.875 -44.195312 -16.5 -44.84375 C -16.132812 -45.488281 -15.671875 -46.0625 -15.109375 -46.5625 C -14.546875 -47.0625 -13.847656 -47.507812 -13.015625 -47.90625 L 8.734375 -6.4375 L 31.3125 -18.28125 Z M 31.8125 -16.6875 "/></g></g></g><g fill="#000000" fill-opacity="1"><g transform="translate(615.015284, 737.445478)"><g><path d="M -16.625 -46.734375 L 7.828125 -4.875 L 5.25 -3.265625 L -19.84375 -41.3125 C -20.238281 -42.019531 -20.285156 -42.691406 -19.984375 -43.328125 C -19.691406 -43.960938 -19.265625 -44.582031 -18.703125 -45.1875 C -18.148438 -45.789062 -17.457031 -46.304688 -16.625 -46.734375 Z M -16.625 -46.734375 "/></g></g></g><g fill="#000000" fill-opacity="1"><g transform="translate(629.756973, 728.736256)"><g><path d="M 17.375 -35.5625 C 19.332031 -31.539062 20.578125 -27.71875 21.109375 -24.09375 C 21.828125 -18.769531 20.304688 -14.742188 16.546875 -12.015625 C 12.773438 -9.285156 8.457031 -9.101562 3.59375 -11.46875 C -1.238281 -13.789062 -6.007812 -17.84375 -10.71875 -23.625 C -16.5625 -30.769531 -19.460938 -36.257812 -19.421875 -40.09375 C -19.378906 -43.925781 -16.882812 -47.640625 -11.9375 -51.234375 C -7 -54.828125 -2.710938 -56.039062 0.921875 -54.875 C 2.460938 -54.40625 4.132812 -53.347656 5.9375 -51.703125 L 1.765625 -48.671875 C 0.609375 -49.640625 -0.492188 -50.363281 -1.546875 -50.84375 C -4.859375 -52.382812 -8.003906 -52.070312 -10.984375 -49.90625 C -13.960938 -47.738281 -15.238281 -44.84375 -14.8125 -41.21875 C -14.363281 -37.582031 -11.8125 -32.554688 -7.15625 -26.140625 C -3.113281 -20.578125 1.066406 -16.609375 5.390625 -14.234375 C 9.722656 -11.859375 13.117188 -11.5625 15.578125 -13.34375 C 18.023438 -15.125 18.796875 -18.429688 17.890625 -23.265625 C 17.421875 -25.828125 16.515625 -28.492188 15.171875 -31.265625 C 14.609375 -32.210938 14.601562 -33.046875 15.15625 -33.765625 C 15.707031 -34.492188 16.445312 -35.09375 17.375 -35.5625 Z M 17.375 -35.5625 "/></g></g></g></svg>