<svg xmlns="http://www.w3.org/2000/svg" xmlns:xlink="http://www.w3.org/1999/xlink" width="1080" zoomAndPan="magnify" viewBox="0 0 810 809.999993" height="1080" preserveAspectRatio="xMidYMid meet" version="1.0"><defs><g/><clipPath id="c445c84400"><path d="M 158 167.394531 L 717.433594 167.394531 L 717.433594 508 L 158 508 Z M 158 167.394531 " clip-rule="nonzero"/></clipPath><clipPath id="c8486d3c98"><path d="M 99 417 L 467 417 L 467 681.894531 L 99 681.894531 Z M 99 417 " clip-rule="nonzero"/></clipPath></defs><path fill="#000000" d="M 638.878906 528.867188 C 659.859375 517.441406 688.234375 524.648438 699.355469 528.222656 C 701.996094 529.054688 702.730469 528.082031 701.179688 525.773438 C 682.382812 497.929688 680.289062 464.191406 653.886719 446.28125 C 653.886719 446.28125 624.570312 474.6875 636.6875 527.914062 C 636.929688 529.019531 637.910156 529.417969 638.878906 528.867188 Z M 638.878906 528.867188 " fill-opacity="1" fill-rule="nonzero"/><g clip-path="url(#c445c84400)"><path fill="#000000" d="M 706.660156 239.101562 L 449.730469 169.070312 C 443.078125 167.257812 432.394531 167.257812 425.769531 169.070312 L 168.820312 239.101562 C 159.757812 241.570312 158.402344 247.058594 158.402344 250.105469 C 158.402344 253.160156 159.75 258.648438 168.820312 261.117188 L 253.210938 284.117188 L 253.210938 419.78125 C 253.210938 427.828125 259.554688 434.332031 267.65625 434.585938 C 347.628906 436.957031 410.238281 487.894531 427.539062 503.464844 C 430.457031 506.082031 434.089844 507.375 437.734375 507.375 C 441.386719 507.375 445.039062 506.074219 447.945312 503.453125 C 465.238281 487.894531 527.839844 436.972656 607.8125 434.585938 C 615.921875 434.332031 622.257812 427.828125 622.257812 419.78125 L 622.257812 284.125 L 706.636719 261.125 C 715.707031 258.652344 717.066406 253.164062 717.066406 250.113281 C 717.078125 247.058594 715.742188 241.570312 706.660156 239.101562 Z M 604.910156 417.324219 C 522.238281 420.726562 457.753906 471.609375 437.734375 489.3125 C 417.730469 471.609375 353.226562 420.714844 270.5625 417.324219 L 270.5625 288.851562 L 425.742188 331.144531 C 429.042969 332.046875 433.320312 332.542969 437.714844 332.542969 C 442.121094 332.542969 446.390625 332.046875 449.703125 331.144531 L 604.882812 288.851562 L 604.882812 417.324219 Z M 445.171875 314.40625 C 441.523438 315.394531 433.953125 315.398438 430.328125 314.40625 L 194.425781 250.113281 L 430.328125 185.8125 C 433.953125 184.828125 441.523438 184.839844 445.171875 185.8125 L 681.066406 250.113281 Z M 445.171875 314.40625 " fill-opacity="1" fill-rule="nonzero"/></g><path fill="#000000" d="M 673.871094 440.894531 C 673.871094 441.554688 673.839844 442.210938 673.773438 442.863281 C 673.710938 443.519531 673.613281 444.167969 673.484375 444.8125 C 673.355469 445.457031 673.195312 446.097656 673.003906 446.726562 C 672.8125 447.355469 672.59375 447.972656 672.339844 448.582031 C 672.089844 449.1875 671.808594 449.78125 671.496094 450.363281 C 671.1875 450.941406 670.847656 451.503906 670.484375 452.050781 C 670.117188 452.597656 669.726562 453.125 669.308594 453.632812 C 668.890625 454.144531 668.449219 454.628906 667.984375 455.09375 C 667.519531 455.558594 667.03125 456 666.523438 456.417969 C 666.015625 456.835938 665.488281 457.226562 664.941406 457.589844 C 664.390625 457.957031 663.828125 458.292969 663.25 458.605469 C 662.667969 458.914062 662.074219 459.195312 661.464844 459.445312 C 660.859375 459.699219 660.238281 459.921875 659.609375 460.109375 C 658.980469 460.300781 658.339844 460.460938 657.695312 460.589844 C 657.050781 460.71875 656.402344 460.816406 655.746094 460.878906 C 655.089844 460.945312 654.433594 460.976562 653.777344 460.976562 C 653.117188 460.976562 652.460938 460.945312 651.804688 460.878906 C 651.152344 460.816406 650.5 460.71875 649.855469 460.589844 C 649.210938 460.460938 648.574219 460.300781 647.941406 460.109375 C 647.3125 459.921875 646.695312 459.699219 646.085938 459.445312 C 645.476562 459.195312 644.882812 458.914062 644.304688 458.605469 C 643.722656 458.292969 643.160156 457.957031 642.613281 457.589844 C 642.066406 457.226562 641.535156 456.835938 641.027344 456.417969 C 640.519531 456 640.03125 455.558594 639.566406 455.09375 C 639.101562 454.628906 638.660156 454.144531 638.242188 453.632812 C 637.824219 453.125 637.433594 452.597656 637.066406 452.050781 C 636.703125 451.503906 636.363281 450.941406 636.054688 450.363281 C 635.742188 449.78125 635.464844 449.1875 635.210938 448.582031 C 634.960938 447.972656 634.738281 447.355469 634.546875 446.726562 C 634.355469 446.097656 634.195312 445.457031 634.066406 444.8125 C 633.9375 444.167969 633.84375 443.519531 633.777344 442.863281 C 633.714844 442.210938 633.679688 441.554688 633.679688 440.894531 C 633.679688 440.238281 633.714844 439.582031 633.777344 438.929688 C 633.84375 438.273438 633.9375 437.625 634.066406 436.980469 C 634.195312 436.335938 634.355469 435.695312 634.546875 435.066406 C 634.738281 434.4375 634.960938 433.820312 635.210938 433.210938 C 635.464844 432.605469 635.742188 432.011719 636.054688 431.429688 C 636.363281 430.851562 636.703125 430.289062 637.066406 429.742188 C 637.433594 429.195312 637.824219 428.667969 638.242188 428.160156 C 638.660156 427.648438 639.101562 427.164062 639.566406 426.699219 C 640.03125 426.234375 640.519531 425.792969 641.027344 425.375 C 641.535156 424.957031 642.066406 424.566406 642.613281 424.199219 C 643.160156 423.835938 643.722656 423.5 644.304688 423.1875 C 644.882812 422.878906 645.476562 422.597656 646.085938 422.34375 C 646.695312 422.09375 647.3125 421.871094 647.941406 421.683594 C 648.574219 421.492188 649.210938 421.332031 649.855469 421.203125 C 650.5 421.074219 651.152344 420.976562 651.804688 420.914062 C 652.460938 420.847656 653.117188 420.816406 653.777344 420.816406 C 654.433594 420.816406 655.089844 420.847656 655.746094 420.914062 C 656.402344 420.976562 657.050781 421.074219 657.695312 421.203125 C 658.339844 421.332031 658.980469 421.492188 659.609375 421.683594 C 660.238281 421.871094 660.859375 422.09375 661.464844 422.34375 C 662.074219 422.597656 662.667969 422.878906 663.25 423.1875 C 663.828125 423.5 664.390625 423.835938 664.941406 424.199219 C 665.488281 424.566406 666.015625 424.957031 666.523438 425.375 C 667.03125 425.792969 667.519531 426.234375 667.984375 426.699219 C 668.449219 427.164062 668.890625 427.648438 669.308594 428.160156 C 669.726562 428.667969 670.117188 429.195312 670.484375 429.742188 C 670.847656 430.289062 671.1875 430.851562 671.496094 431.429688 C 671.808594 432.011719 672.089844 432.605469 672.339844 433.210938 C 672.59375 433.820312 672.8125 434.4375 673.003906 435.066406 C 673.195312 435.695312 673.355469 436.335938 673.484375 436.980469 C 673.613281 437.625 673.710938 438.273438 673.773438 438.929688 C 673.839844 439.582031 673.871094 440.238281 673.871094 440.894531 Z M 673.871094 440.894531 " fill-opacity="1" fill-rule="nonzero"/><path fill="#000000" d="M 470.820312 250.121094 C 470.820312 250.808594 470.765625 251.496094 470.660156 252.179688 C 470.554688 252.867188 470.394531 253.546875 470.183594 254.222656 C 469.972656 254.898438 469.707031 255.5625 469.394531 256.222656 C 469.078125 256.882812 468.714844 257.53125 468.300781 258.167969 C 467.886719 258.800781 467.421875 259.425781 466.914062 260.03125 C 466.402344 260.636719 465.847656 261.230469 465.246094 261.800781 C 464.640625 262.375 463.996094 262.925781 463.3125 263.457031 C 462.625 263.992188 461.898438 264.5 461.128906 264.988281 C 460.363281 265.472656 459.5625 265.9375 458.726562 266.371094 C 457.886719 266.808594 457.019531 267.21875 456.117188 267.601562 C 455.21875 267.984375 454.289062 268.339844 453.335938 268.664062 C 452.378906 268.988281 451.402344 269.28125 450.398438 269.546875 C 449.398438 269.808594 448.378906 270.039062 447.34375 270.242188 C 446.308594 270.441406 445.257812 270.605469 444.195312 270.742188 C 443.132812 270.875 442.0625 270.976562 440.984375 271.042969 C 439.90625 271.113281 438.824219 271.144531 437.742188 271.144531 C 436.660156 271.144531 435.578125 271.113281 434.5 271.042969 C 433.421875 270.976562 432.351562 270.875 431.289062 270.742188 C 430.226562 270.605469 429.175781 270.441406 428.140625 270.242188 C 427.105469 270.039062 426.085938 269.808594 425.085938 269.546875 C 424.082031 269.28125 423.105469 268.988281 422.148438 268.664062 C 421.195312 268.339844 420.265625 267.984375 419.367188 267.601562 C 418.464844 267.21875 417.597656 266.808594 416.757812 266.371094 C 415.921875 265.9375 415.121094 265.472656 414.351562 264.988281 C 413.585938 264.5 412.859375 263.992188 412.171875 263.457031 C 411.488281 262.925781 410.84375 262.375 410.238281 261.800781 C 409.636719 261.230469 409.082031 260.636719 408.570312 260.03125 C 408.058594 259.425781 407.597656 258.800781 407.183594 258.167969 C 406.769531 257.53125 406.40625 256.882812 406.089844 256.222656 C 405.777344 255.5625 405.511719 254.898438 405.300781 254.222656 C 405.089844 253.546875 404.929688 252.867188 404.824219 252.179688 C 404.71875 251.496094 404.664062 250.808594 404.664062 250.121094 C 404.664062 249.429688 404.71875 248.746094 404.824219 248.058594 C 404.929688 247.375 405.089844 246.691406 405.300781 246.019531 C 405.511719 245.34375 405.777344 244.675781 406.089844 244.015625 C 406.40625 243.355469 406.769531 242.710938 407.183594 242.074219 C 407.597656 241.4375 408.0625 240.816406 408.570312 240.207031 C 409.082031 239.601562 409.636719 239.011719 410.238281 238.4375 C 410.84375 237.867188 411.488281 237.3125 412.171875 236.78125 C 412.859375 236.25 413.585938 235.738281 414.351562 235.253906 C 415.121094 234.765625 415.921875 234.304688 416.757812 233.867188 C 417.597656 233.429688 418.464844 233.019531 419.367188 232.636719 C 420.265625 232.253906 421.195312 231.902344 422.148438 231.578125 C 423.105469 231.253906 424.082031 230.957031 425.085938 230.695312 C 426.085938 230.429688 427.105469 230.199219 428.140625 230 C 429.175781 229.800781 430.226562 229.632812 431.289062 229.496094 C 432.351562 229.363281 433.421875 229.261719 434.5 229.195312 C 435.578125 229.128906 436.660156 229.09375 437.742188 229.09375 C 438.824219 229.09375 439.90625 229.128906 440.984375 229.195312 C 442.0625 229.261719 443.132812 229.363281 444.195312 229.496094 C 445.257812 229.632812 446.308594 229.800781 447.34375 230 C 448.378906 230.199219 449.398438 230.429688 450.398438 230.695312 C 451.402344 230.957031 452.378906 231.253906 453.335938 231.578125 C 454.289062 231.902344 455.21875 232.253906 456.117188 232.636719 C 457.019531 233.019531 457.886719 233.429688 458.726562 233.867188 C 459.5625 234.304688 460.363281 234.765625 461.128906 235.253906 C 461.898438 235.738281 462.625 236.25 463.3125 236.78125 C 463.996094 237.3125 464.640625 237.867188 465.246094 238.4375 C 465.847656 239.011719 466.402344 239.601562 466.914062 240.207031 C 467.421875 240.816406 467.886719 241.4375 468.300781 242.074219 C 468.714844 242.710938 469.078125 243.355469 469.394531 244.015625 C 469.707031 244.675781 469.972656 245.34375 470.183594 246.019531 C 470.394531 246.691406 470.554688 247.375 470.660156 248.058594 C 470.765625 248.746094 470.820312 249.429688 470.820312 250.121094 Z M 470.820312 250.121094 " fill-opacity="1" fill-rule="nonzero"/><path fill="#000000" d="M 662.472656 430.847656 L 645.105469 430.847656 L 645.105469 274.589844 L 437.082031 258.769531 L 438.402344 241.46875 L 662.472656 258.503906 Z M 662.472656 430.847656 " fill-opacity="1" fill-rule="nonzero"/><path fill="#000000" d="M 269.242188 607.402344 L 238.035156 586.917969 C 238.636719 586.0625 235.980469 581.285156 234.230469 581.898438 L 149.027344 612.300781 C 147.613281 612.792969 146.707031 614.1875 146.824219 615.6875 C 146.9375 617.191406 148.039062 618.425781 149.519531 618.714844 L 184.628906 625.476562 L 180.042969 644.390625 C 179.71875 645.722656 180.25 647.113281 181.367188 647.917969 C 181.945312 648.328125 182.617188 648.515625 183.285156 648.515625 C 183.929688 648.515625 184.574219 648.34375 185.136719 647.964844 L 235.71875 614.476562 L 224.160156 642.046875 C 223.609375 643.347656 223.953125 644.859375 225.003906 645.8125 C 226.039062 646.765625 227.597656 646.949219 228.835938 646.265625 L 252.132812 633.613281 L 268.109375 652.699219 C 268.753906 653.46875 269.695312 653.898438 270.671875 653.898438 C 271.035156 653.898438 271.390625 653.84375 271.75 653.726562 C 273.058594 653.28125 273.953125 652.082031 274.015625 650.703125 L 275.621094 608.910156 C 275.695312 607.074219 269.769531 606.234375 269.242188 607.402344 Z M 269.242188 607.402344 " fill-opacity="1" fill-rule="nonzero"/><g clip-path="url(#c8486d3c98)"><path fill="#000000" d="M 466.363281 610.296875 C 464.503906 593.976562 455.613281 580.441406 441.351562 572.230469 C 441.339844 572.230469 441.324219 572.21875 441.304688 572.203125 L 342.953125 515.464844 L 342.960938 515.464844 L 342.960938 515.457031 C 342.953125 515.457031 342.949219 515.457031 342.949219 515.445312 L 310.015625 496.457031 L 183.683594 423.566406 C 159.941406 409.863281 129.082031 421.960938 111.914062 451.699219 C 93.082031 484.285156 95.402344 515.972656 117.542969 528.757812 L 375.222656 677.4375 C 380.101562 680.242188 385.582031 681.578125 391.25 681.578125 C 407.109375 681.578125 424.449219 671.179688 434.433594 653.914062 C 447.75 630.871094 446.078125 611.546875 429.941406 602.25 C 416.597656 594.53125 402.296875 600.886719 395.101562 611.121094 C 386.972656 622.691406 388.710938 637.015625 399.324219 645.984375 C 402.710938 648.835938 407.761719 648.40625 410.625 645.015625 C 413.488281 641.632812 413.054688 636.585938 409.671875 633.722656 C 403.511719 628.539062 406.601562 622.617188 408.222656 620.328125 C 411.144531 616.183594 416.671875 613.070312 421.925781 616.113281 C 432.65625 622.296875 424.546875 639.007812 420.566406 645.90625 C 410.550781 663.230469 392.84375 669.109375 383.246094 663.578125 C 367.65625 654.566406 371.570312 628.976562 383.472656 608.363281 C 389.933594 597.175781 398.835938 588.894531 408.515625 585.03125 C 417.269531 581.546875 426.085938 581.929688 433.347656 586.121094 C 443.371094 591.90625 449.117188 600.644531 450.4375 612.140625 C 451.734375 623.585938 448.328125 637.058594 440.816406 650.058594 C 438.613281 653.898438 439.910156 658.777344 443.761719 661 C 447.59375 663.214844 452.488281 661.910156 454.707031 658.054688 C 464.0625 641.867188 468.078125 625.355469 466.363281 610.296875 Z M 258.871094 591.796875 L 242.6875 582.460938 C 227.109375 573.460938 231.015625 547.878906 242.921875 527.269531 C 252.078125 511.410156 266.203125 501.566406 279.761719 501.566406 C 284.433594 501.566406 288.816406 502.730469 292.796875 505.023438 L 306.027344 512.652344 C 292.433594 517.453125 280.042969 528.277344 271.199219 543.582031 C 261.257812 560.800781 257.222656 577.734375 258.871094 591.796875 Z M 125.792969 459.691406 C 138.390625 437.878906 159.847656 428.335938 175.671875 437.4375 L 263.964844 488.382812 C 250.34375 493.167969 237.894531 503.941406 229.039062 519.257812 C 219.078125 536.496094 215.097656 553.441406 216.773438 567.519531 L 125.5625 514.882812 C 109.976562 505.894531 113.882812 480.308594 125.792969 459.691406 Z M 402.578125 570.144531 C 389.5625 575.324219 377.84375 586.054688 369.589844 600.335938 C 359.628906 617.570312 355.640625 634.527344 357.324219 648.609375 L 284.847656 606.796875 L 284.855469 606.785156 C 269.277344 597.785156 273.183594 572.210938 285.082031 551.597656 C 294.246094 535.730469 308.367188 525.886719 321.933594 525.886719 C 326.59375 525.886719 330.96875 527.050781 334.9375 529.328125 L 404.535156 569.488281 C 403.882812 569.707031 403.222656 569.886719 402.578125 570.144531 Z M 402.578125 570.144531 " fill-opacity="1" fill-rule="nonzero"/></g><g fill="#000000" fill-opacity="1"><g transform="translate(277.905384, 774.624293)"><g><path d="M 17.34375 -45.53125 L 22.796875 -44.078125 L 34.28125 3.546875 L 44.625 -35.265625 C 44.832031 -36.046875 45.28125 -36.550781 45.96875 -36.78125 C 46.664062 -37.007812 47.441406 -37.125 48.296875 -37.125 C 49.148438 -37.132812 49.988281 -36.960938 50.8125 -36.609375 L 35.765625 9.53125 L 32.890625 8.765625 L 20.375 -35.015625 L 10.3125 2.75 L 7.390625 1.96875 Z M 17.34375 -45.53125 "/></g></g></g><g fill="#000000" fill-opacity="1"><g transform="translate(323.531776, 786.623012)"><g><path d="M 34.9375 5.140625 L 7.5625 1.109375 L 11.96875 -47.234375 L 45.875 -42.25 L 45.34375 -40.6875 L 17.3125 -44.796875 L 14.15625 -23.296875 L 40.703125 -19.40625 L 40.15625 -17.84375 L 13.921875 -21.6875 L 10.734375 -0.078125 L 35.46875 3.546875 Z M 34.9375 5.140625 "/></g></g></g><g fill="#000000" fill-opacity="1"><g transform="translate(370.058776, 793.58833)"><g><path d="M 44.1875 -44.703125 C 44.195312 -45.515625 44.457031 -46.113281 44.96875 -46.5 C 45.488281 -46.894531 46.144531 -47.195312 46.9375 -47.40625 C 47.738281 -47.613281 48.703125 -47.644531 49.828125 -47.5 L 46.28125 0.90625 L 43.296875 0.84375 L 27.59375 -33.078125 L 10.5625 0.203125 L 7.578125 0.140625 L 5.921875 -45.453125 C 5.929688 -46.265625 6.234375 -46.863281 6.828125 -47.25 C 7.429688 -47.644531 8.113281 -47.925781 8.875 -48.09375 C 9.644531 -48.257812 10.519531 -48.3125 11.5 -48.25 L 10.703125 -6.78125 L 25.140625 -38.296875 L 30.234375 -38.1875 L 43.4375 -6.140625 Z M 44.1875 -44.703125 "/></g></g></g><g fill="#000000" fill-opacity="1"><g transform="translate(426.709937, 794.210299)"><g><path d="M 7.59375 -0.8125 L -0.234375 -48.71875 L 16.71875 -50.53125 C 22.882812 -51.195312 27.445312 -50.773438 30.40625 -49.265625 C 33.363281 -47.753906 34.941406 -44.613281 35.140625 -39.84375 C 35.398438 -35.59375 34.242188 -32.523438 31.671875 -30.640625 C 29.109375 -28.753906 27.015625 -27.644531 25.390625 -27.3125 C 27.085938 -27.414062 29.289062 -26.664062 32 -25.0625 C 34.707031 -23.46875 36.1875 -20.40625 36.4375 -15.875 C 36.613281 -11.832031 35.269531 -8.6875 32.40625 -6.4375 C 29.539062 -4.195312 26.035156 -2.832031 21.890625 -2.34375 Z M 5.546875 -47.703125 L 7.859375 -26.15625 L 19.203125 -27.375 C 21.773438 -27.738281 24.359375 -28.875 26.953125 -30.78125 C 29.554688 -32.6875 30.660156 -35.488281 30.265625 -39.1875 C 29.804688 -43.457031 28.347656 -46.242188 25.890625 -47.546875 C 23.429688 -48.847656 20.429688 -49.304688 16.890625 -48.921875 Z M 8.03125 -24.53125 L 10.375 -2.75 L 21.71875 -3.96875 C 24.332031 -4.25 26.929688 -5.34375 29.515625 -7.25 C 32.097656 -9.15625 33.195312 -11.878906 32.8125 -15.421875 C 32.300781 -20.160156 30.757812 -23.15625 28.1875 -24.40625 C 25.613281 -25.65625 22.675781 -26.101562 19.375 -25.75 Z M 8.03125 -24.53125 "/></g></g></g><g fill="#000000" fill-opacity="1"><g transform="translate(472.269566, 788.698383)"><g><path d="M 1.53125 -49.59375 L 9.0625 -1.6875 L 6.078125 -1.125 L -3.4375 -45.703125 C -3.550781 -46.503906 -3.351562 -47.144531 -2.84375 -47.625 C -2.332031 -48.113281 -1.710938 -48.535156 -0.984375 -48.890625 C -0.253906 -49.253906 0.582031 -49.488281 1.53125 -49.59375 Z M 1.53125 -49.59375 "/></g></g></g><g fill="#000000" fill-opacity="1"><g transform="translate(489.303514, 786.023456)"><g><path d="M 34.109375 -9.109375 L 7.375 -1.96875 L -7.703125 -48.109375 L 25.421875 -56.953125 L 25.546875 -55.296875 L -1.84375 -47.984375 L 3.765625 -27 L 29.6875 -33.921875 L 29.8125 -32.265625 L 4.1875 -25.421875 L 9.828125 -4.3125 L 33.984375 -10.765625 Z M 34.109375 -9.109375 "/></g></g></g></svg>