<svg xmlns="http://www.w3.org/2000/svg" xmlns:xlink="http://www.w3.org/1999/xlink" width="40" zoomAndPan="magnify" viewBox="0 0 375 374.999991" height="40" preserveAspectRatio="xMidYMid meet" version="1.0"><defs><clipPath id="552e6bec4d"><path d="M 122 37.5 L 202 37.5 L 202 197 L 122 197 Z M 122 37.5 " clip-rule="nonzero"/></clipPath><clipPath id="ca451854a2"><path d="M 37.5 215 L 324 215 L 324 340 L 37.5 340 Z M 37.5 215 " clip-rule="nonzero"/></clipPath></defs><path fill="#241c1c" d="M 294.410156 274.769531 C 289.183594 269.539062 282.867188 259.011719 279.746094 252.761719 C 275.472656 244.273438 276.300781 232.980469 267.5 227.113281 C 264.824219 225.324219 195.191406 211.289062 191.75 212.4375 C 180.71875 216.140625 169.367188 220.414062 157.570312 223.410156 C 171.535156 219.902344 181.164062 243.890625 193.023438 252.761719 C 204.949219 261.753906 221.589844 267.5625 235.8125 271.070312 C 247.160156 273.941406 286.183594 287.914062 296.898438 277.195312 C 297.664062 276.367188 295.238281 275.601562 294.410156 274.769531 Z M 294.410156 274.769531 " fill-opacity="1" fill-rule="nonzero"/><g clip-path="url(#552e6bec4d)"><path fill="#784421" d="M 170.769531 48.21875 C 172.109375 44.328125 170.769531 41.074219 167.710938 38.074219 C 167.265625 37.628906 166.691406 37.5 166.117188 37.628906 L 124.859375 47.582031 C 124.222656 47.707031 123.777344 48.21875 123.585938 48.792969 C 122.4375 53.195312 120.84375 57.660156 128.6875 59 C 128.878906 59.0625 129.132812 59 129.324219 59 L 145.265625 55.875 C 146.09375 55.683594 146.988281 56.191406 147.242188 57.023438 L 192.832031 195.722656 C 193.152344 196.617188 194.046875 197.125 194.9375 196.808594 L 200.675781 195.148438 C 201.632812 194.894531 202.144531 193.871094 201.824219 192.980469 L 157.953125 54.597656 C 157.636719 53.707031 158.210938 52.683594 159.101562 52.429688 L 169.625 49.304688 C 170.195312 49.113281 170.578125 48.730469 170.769531 48.21875 Z M 170.769531 48.21875 " fill-opacity="1" fill-rule="nonzero"/></g><path fill="#b1b1ac" d="M 207.5625 197.699219 L 202.78125 185.195312 L 186.777344 188.195312 L 190.21875 200.316406 C 190.21875 200.316406 183.714844 200.761719 169.941406 206.824219 C 179.441406 237.066406 193.28125 250.910156 206.222656 256.078125 C 219.167969 261.246094 228.667969 243.957031 233.898438 236.171875 C 239.0625 228.386719 227.011719 196.425781 227.011719 196.425781 Z M 207.5625 197.699219 " fill-opacity="1" fill-rule="nonzero"/><g clip-path="url(#ca451854a2)"><path fill="#483737" d="M 294.410156 268.644531 C 287.96875 264.371094 278.851562 264.5 272.410156 261.308594 C 265.140625 257.671875 265.015625 245.996094 256.535156 241.722656 C 239.316406 233.109375 213.8125 241.148438 205.203125 236.808594 C 196.785156 232.597656 194.234375 221.5625 185.628906 217.222656 C 174.085938 211.417969 137.550781 223.21875 128.175781 229.472656 C 120.269531 234.703125 117.015625 250.71875 107.390625 253.910156 C 102.605469 255.503906 94.828125 253.207031 89.089844 255.121094 C 57.078125 265.773438 54.910156 290.910156 37.757812 316.242188 C 39.863281 317.835938 41.390625 320.324219 43.878906 321.152344 C 54.847656 324.789062 68.554688 320.003906 79.332031 323.578125 C 90.171875 327.214844 102.863281 333.53125 115.996094 330.914062 C 124.925781 329.128906 135.699219 324.789062 144.117188 324.789062 C 155.660156 324.789062 161.90625 334.421875 172.238281 337.039062 C 189.136719 341.25 219.105469 338.761719 235.746094 334.613281 C 244.035156 332.574219 249.964844 327.597656 257.746094 326.066406 C 264.121094 324.789062 323.742188 325.808594 323.742188 319.941406 C 323.742188 316.816406 296.195312 269.859375 294.410156 268.644531 Z M 294.410156 268.644531 " fill-opacity="1" fill-rule="nonzero"/></g><path fill="#6c5353" d="M 91 261.308594 C 73.082031 260.351562 67.664062 274.324219 60.457031 286.957031 C 59.566406 288.550781 54.78125 296.398438 56.1875 298.566406 C 59.628906 303.734375 68.8125 292.824219 71.488281 291.230469 C 76.78125 288.042969 78.25 297.929688 81.246094 294.867188 C 82.839844 293.273438 85.328125 288.933594 86.15625 286.894531 C 88.515625 281.023438 101.332031 263.925781 91 261.308594 Z M 91 261.308594 " fill-opacity="1" fill-rule="nonzero"/><path fill="#6c5353" d="M 135.574219 231.960938 C 124.542969 233.363281 126.964844 247.273438 120.90625 253.335938 C 110.195312 264.050781 101.523438 263.285156 96.484375 280.832031 C 95.71875 283.511719 88.832031 297.546875 97.121094 295.503906 C 106.175781 293.273438 109.046875 281.917969 117.273438 277.769531 C 125.308594 273.75 134.296875 283.191406 140.484375 272.855469 C 143.671875 267.5625 139.144531 263.03125 140.484375 257.542969 C 141.121094 254.992188 144.246094 252.886719 144.753906 250.207031 C 146.15625 243.191406 146.09375 226.730469 135.574219 231.960938 Z M 135.574219 231.960938 " fill-opacity="1" fill-rule="nonzero"/><path fill="#6c5353" d="M 162.480469 222.835938 C 158.019531 224.113281 151.324219 224.816406 147.816406 228.324219 C 144.5 231.640625 158.019531 238.53125 160.632812 238.085938 C 165.097656 237.320312 175.296875 232.023438 176.507812 227.113281 C 176.890625 225.582031 176 223.667969 176.507812 222.199219 C 179.378906 213.523438 167.007812 220.542969 162.480469 222.835938 Z M 162.480469 222.835938 " fill-opacity="1" fill-rule="nonzero"/><path fill="#6c5353" d="M 186.265625 225.835938 C 186.648438 246.316406 155.722656 241.660156 152.660156 247.847656 C 149.15625 254.867188 148.582031 279.171875 147.75 280.257812 C 142.652344 287.019531 130.472656 277.324219 125.753906 285.171875 C 114.148438 304.566406 131.300781 294.867188 142.84375 296.78125 C 147.625 297.546875 157.828125 311.136719 163.628906 305.332031 C 169.175781 299.78125 165.097656 282.171875 171.601562 273.558594 C 180.589844 261.5625 204.3125 251.164062 193.597656 235.023438 C 191.046875 231.195312 191.304688 227.558594 186.265625 225.835938 Z M 186.265625 225.835938 " fill-opacity="1" fill-rule="nonzero"/><path fill="#6c5353" d="M 246.140625 247.273438 C 240.65625 244.53125 215.214844 242.617188 211.324219 248.484375 C 202.78125 247.59375 183.652344 268.007812 185.054688 273.558594 C 186.265625 278.34375 203.226562 271.132812 205.839844 270.496094 C 213.046875 268.710938 220.507812 267.6875 227.839844 266.859375 C 232.304688 266.347656 237.53125 266.09375 241.867188 265.007812 C 250.414062 262.839844 255.769531 252.058594 246.140625 247.273438 Z M 246.140625 247.273438 " fill-opacity="1" fill-rule="nonzero"/><path fill="#6c5353" d="M 205.839844 280.257812 C 192.640625 280.832031 173.894531 286.511719 176.507812 302.269531 C 176.957031 304.820312 177.402344 308.839844 180.144531 310.242188 C 189.070312 314.710938 202.335938 301.757812 210.6875 299.84375 C 214.894531 298.886719 220.125 299.589844 223.503906 296.207031 C 224.269531 295.441406 224.523438 291.550781 224.140625 290.71875 C 222.613281 287.59375 207.117188 276.429688 205.839844 280.257812 Z M 205.839844 280.257812 " fill-opacity="1" fill-rule="nonzero"/><path fill="#6c5353" d="M 235.171875 272.921875 C 231.792969 272.855469 225.417969 274.644531 224.207031 278.40625 C 223.503906 280.511719 229.050781 283.066406 230.328125 283.894531 C 257.9375 302.394531 243.972656 269.984375 235.171875 272.921875 Z M 235.171875 272.921875 " fill-opacity="1" fill-rule="nonzero"/><path fill="#6c5353" d="M 262.273438 261.882812 C 261.507812 261.628906 260.804688 261.4375 260.234375 261.308594 Z M 262.273438 261.882812 " fill-opacity="1" fill-rule="nonzero"/><path fill="#6c5353" d="M 262.273438 261.882812 C 262.972656 262.074219 263.675781 262.328125 264.441406 262.519531 L 264.503906 262.519531 Z M 262.273438 261.882812 " fill-opacity="1" fill-rule="nonzero"/><path fill="#6c5353" d="M 294.410156 277.832031 C 290.074219 266.988281 278.085938 272.539062 271.835938 266.222656 C 270.308594 264.691406 267.246094 263.476562 264.441406 262.585938 C 246.777344 272.472656 256.34375 270.625 261.445312 280.894531 C 263.355469 284.789062 262.210938 294.867188 268.777344 296.207031 C 274.835938 297.417969 298.363281 292.316406 296.898438 283.382812 C 296.769531 282.746094 294.664062 278.40625 294.410156 277.832031 Z M 294.410156 277.832031 " fill-opacity="1" fill-rule="nonzero"/><path fill="#6c5353" d="M 297.472656 298.632812 C 293.199219 298.121094 289.5 299.84375 285.867188 301.695312 C 267.246094 311.007812 310.605469 322.109375 306.015625 308.394531 C 304.359375 303.351562 301.808594 301.503906 297.472656 298.632812 Z M 297.472656 298.632812 " fill-opacity="1" fill-rule="nonzero"/><path fill="#6c5353" d="M 249.839844 301.628906 C 240.148438 302.90625 229.945312 303.609375 220.507812 306.542969 C 215.851562 307.945312 212.152344 309.667969 207.691406 311.457031 C 203.480469 313.113281 201.058594 315.476562 197.296875 318.15625 C 186.902344 325.554688 186.457031 329.253906 199.71875 332.191406 C 202.269531 332.765625 205.585938 331.550781 208.265625 331.550781 C 220.761719 331.550781 231.21875 323.511719 243.078125 320.578125 C 247.289062 319.558594 251.75 320.003906 255.898438 318.730469 C 257.808594 318.15625 263.929688 317.390625 265.078125 315.09375 C 268.011719 309.222656 253.601562 302.90625 249.839844 301.628906 Z M 249.839844 301.628906 " fill-opacity="1" fill-rule="nonzero"/><path fill="#6c5353" d="M 131.300781 303.480469 C 129.453125 302.84375 127.410156 302.203125 125.816406 301.628906 L 126.453125 304.054688 C 122.054688 304.820312 121.160156 304.566406 116.699219 307.691406 C 95.976562 322.367188 141.121094 321.726562 138.058594 309.542969 C 137.292969 306.605469 134.042969 304.4375 131.300781 303.480469 Z M 131.300781 303.480469 " fill-opacity="1" fill-rule="nonzero"/><path fill="#6c5353" d="M 101.394531 302.269531 C 89.855469 308.394531 77.101562 298.25 65.367188 304.117188 C 64.730469 304.4375 55.039062 309.03125 58.035156 312.09375 C 62.179688 316.242188 75.761719 313.179688 81.246094 313.945312 C 85.515625 314.582031 87.75 317.453125 91.640625 318.21875 C 94.699219 318.855469 99.289062 318.539062 101.394531 316.367188 C 103.882812 313.816406 106.242188 302.269531 101.394531 302.269531 Z M 101.394531 302.269531 " fill-opacity="1" fill-rule="nonzero"/><path fill="#916f6f" d="M 171.027344 246.636719 C 164.839844 248.933594 167.710938 247.71875 162.480469 250.273438 C 148.773438 257.160156 160.632812 264.050781 170.453125 261.246094 C 179.890625 258.566406 179.699219 248.804688 171.027344 246.636719 Z M 171.027344 246.636719 " fill-opacity="1" fill-rule="nonzero"/><path fill="#916f6f" d="M 225.351562 249.125 C 219.421875 249.125 220.253906 248.484375 215.597656 250.335938 C 190.089844 260.542969 230.261719 264.5625 230.261719 253.398438 C 230.261719 250.78125 227.519531 249.824219 225.351562 249.125 Z M 225.351562 249.125 " fill-opacity="1" fill-rule="nonzero"/><path fill="#916f6f" d="M 161.84375 226.472656 C 142.714844 237.128906 171.855469 235.980469 167.328125 224.625 C 165.796875 225.898438 163.5 225.515625 161.84375 226.472656 Z M 161.84375 226.472656 " fill-opacity="1" fill-rule="nonzero"/><path fill="#916f6f" d="M 134.933594 238.722656 C 133.914062 240.382812 132.765625 241.914062 131.875 243.636719 C 128.175781 251.101562 135.507812 253.527344 138.570312 247.273438 C 140.226562 244.019531 140.355469 235.085938 134.933594 238.722656 Z M 134.933594 238.722656 " fill-opacity="1" fill-rule="nonzero"/><path fill="#916f6f" d="M 76.910156 269.285156 C 52.613281 283.894531 93.742188 284.023438 85.453125 267.433594 C 80.226562 267.433594 81.179688 266.667969 76.910156 269.285156 Z M 76.910156 269.285156 " fill-opacity="1" fill-rule="nonzero"/><path fill="#916f6f" d="M 268.777344 269.285156 C 267.121094 268.710938 263.292969 268.070312 262.082031 269.921875 C 260.933594 271.644531 261.570312 275.601562 262.71875 277.257812 C 271.964844 291.230469 283.699219 272.984375 268.777344 269.285156 Z M 268.777344 269.285156 " fill-opacity="1" fill-rule="nonzero"/><path fill="#a25c2c" d="M 127.984375 49.304688 L 131.875 51.917969 L 166.816406 43.242188 L 165.988281 39.351562 Z M 127.984375 49.304688 " fill-opacity="1" fill-rule="nonzero"/><path fill="#a25c2c" d="M 152.152344 55.808594 L 192.324219 183.730469 L 196.214844 183.28125 L 155.59375 54.089844 Z M 152.152344 55.808594 " fill-opacity="1" fill-rule="nonzero"/><path fill="#cdcdca" d="M 189.773438 190.617188 C 189.773438 190.617188 189.328125 196.679688 192.386719 199.679688 C 195.382812 202.675781 202.335938 206.570312 202.335938 206.570312 L 197.167969 188.386719 Z M 189.773438 190.617188 " fill-opacity="1" fill-rule="nonzero"/><path fill="#cdcdca" d="M 209.601562 201.019531 C 209.601562 201.019531 207.433594 213.523438 202.71875 211.800781 C 197.933594 210.078125 189.773438 202.292969 189.773438 202.292969 L 175.105469 207.078125 C 175.105469 207.078125 176.828125 210.972656 176.828125 212.695312 C 176.828125 214.417969 184.609375 212.246094 188.496094 213.140625 C 192.386719 214.035156 198 222.199219 200.613281 228.261719 C 203.226562 234.320312 208.839844 234.320312 208.839844 234.320312 L 207.5625 214.417969 L 220.0625 236.425781 L 229.5625 236.425781 C 229.5625 236.425781 231.285156 231.257812 231.285156 220.414062 C 231.285156 209.632812 225.671875 198.785156 225.671875 198.785156 Z M 209.601562 201.019531 " fill-opacity="1" fill-rule="nonzero"/></svg>