<svg xmlns="http://www.w3.org/2000/svg" xmlns:xlink="http://www.w3.org/1999/xlink" width="400" zoomAndPan="magnify" viewBox="0 0 300 299.999988" height="400" preserveAspectRatio="xMidYMid meet" version="1.0"><defs><filter x="0%" y="0%" width="100%" height="100%" id="9aed861624"><feColorMatrix values="0 0 0 0 1 0 0 0 0 1 0 0 0 0 1 0 0 0 1 0" color-interpolation-filters="sRGB"/></filter><g/><clipPath id="5146f5e260"><path d="M 50 34 L 281 34 L 281 265 L 50 265 Z M 50 34 " clip-rule="nonzero"/></clipPath><clipPath id="a35fd2f8ca"><path d="M 132.339844 -9.589844 L 324.761719 116.855469 L 198.3125 309.277344 L 5.894531 182.828125 Z M 132.339844 -9.589844 " clip-rule="nonzero"/></clipPath><clipPath id="8a2aee04cd"><path d="M 132.339844 -9.589844 L 324.761719 116.855469 L 198.3125 309.277344 L 5.894531 182.828125 Z M 132.339844 -9.589844 " clip-rule="nonzero"/></clipPath><clipPath id="c61ada28e2"><path d="M 261.449219 212.632812 C 244.085938 239.058594 219.792969 255.574219 188.570312 262.179688 C 157.460938 268.617188 128.695312 263.148438 102.277344 245.789062 C 75.683594 228.3125 59.167969 204.019531 52.726562 172.914062 C 46.40625 141.628906 51.925781 112.78125 69.289062 86.359375 C 86.765625 59.761719 111 43.335938 141.996094 37.070312 C 173.105469 30.636719 201.957031 36.15625 228.550781 53.632812 C 254.96875 70.992188 271.402344 95.230469 277.835938 126.339844 C 284.386719 157.277344 278.925781 186.039062 261.449219 212.632812 Z M 261.449219 212.632812 " clip-rule="evenodd"/></clipPath><radialGradient gradientTransform="matrix(0.180116, 0.983645, 0.983645, -0.180116, 131.187913, -10.91312)" gradientUnits="userSpaceOnUse" r="192.642464" cx="82.30344" id="9e92136aa0" cy="-0.343191" fx="82.30344" fy="-0.343191"><stop stop-opacity="1" stop-color="rgb(100%, 74.099731%, 34.899902%)" offset="0"/><stop stop-opacity="1" stop-color="rgb(100%, 74.099731%, 34.899902%)" offset="0.25"/><stop stop-opacity="1" stop-color="rgb(100%, 74.069214%, 34.890747%)" offset="0.296875"/><stop stop-opacity="1" stop-color="rgb(100%, 73.94104%, 34.855652%)" offset="0.316406"/><stop stop-opacity="1" stop-color="rgb(100%, 73.744202%, 34.802246%)" offset="0.324219"/><stop stop-opacity="1" stop-color="rgb(100%, 73.548889%, 34.74884%)" offset="0.332031"/><stop stop-opacity="1" stop-color="rgb(100%, 73.353577%, 34.695435%)" offset="0.339844"/><stop stop-opacity="1" stop-color="rgb(100%, 73.156738%, 34.640503%)" offset="0.347656"/><stop stop-opacity="1" stop-color="rgb(100%, 72.961426%, 34.587097%)" offset="0.355469"/><stop stop-opacity="1" stop-color="rgb(100%, 72.766113%, 34.533691%)" offset="0.363281"/><stop stop-opacity="1" stop-color="rgb(100%, 72.569275%, 34.480286%)" offset="0.371094"/><stop stop-opacity="1" stop-color="rgb(100%, 72.373962%, 34.42688%)" offset="0.378906"/><stop stop-opacity="1" stop-color="rgb(100%, 72.177124%, 34.373474%)" offset="0.386719"/><stop stop-opacity="1" stop-color="rgb(100%, 71.884155%, 34.294128%)" offset="0.394531"/><stop stop-opacity="1" stop-color="rgb(100%, 71.589661%, 34.213257%)" offset="0.410156"/><stop stop-opacity="1" stop-color="rgb(100%, 71.296692%, 34.133911%)" offset="0.417969"/><stop stop-opacity="1" stop-color="rgb(100%, 71.002197%, 34.05304%)" offset="0.433594"/><stop stop-opacity="1" stop-color="rgb(100%, 70.806885%, 33.999634%)" offset="0.441406"/><stop stop-opacity="1" stop-color="rgb(100%, 70.610046%, 33.944702%)" offset="0.449219"/><stop stop-opacity="1" stop-color="rgb(100%, 70.317078%, 33.865356%)" offset="0.457031"/><stop stop-opacity="1" stop-color="rgb(100%, 70.022583%, 33.784485%)" offset="0.472656"/><stop stop-opacity="1" stop-color="rgb(100%, 69.729614%, 33.705139%)" offset="0.480469"/><stop stop-opacity="1" stop-color="rgb(100%, 69.43512%, 33.624268%)" offset="0.496094"/><stop stop-opacity="1" stop-color="rgb(100%, 69.190979%, 33.557129%)" offset="0.503906"/><stop stop-opacity="1" stop-color="rgb(100%, 68.896484%, 33.477783%)" offset="0.515625"/><stop stop-opacity="1" stop-color="rgb(100%, 68.603516%, 33.396912%)" offset="0.527344"/><stop stop-opacity="1" stop-color="rgb(100%, 68.309021%, 33.31604%)" offset="0.539062"/><stop stop-opacity="1" stop-color="rgb(100%, 68.014526%, 33.236694%)" offset="0.550781"/><stop stop-opacity="1" stop-color="rgb(100%, 67.721558%, 33.155823%)" offset="0.5625"/><stop stop-opacity="1" stop-color="rgb(100%, 67.427063%, 33.076477%)" offset="0.574219"/><stop stop-opacity="1" stop-color="rgb(100%, 67.134094%, 32.995605%)" offset="0.585938"/><stop stop-opacity="1" stop-color="rgb(100%, 66.8396%, 32.914734%)" offset="0.597656"/><stop stop-opacity="1" stop-color="rgb(100%, 66.546631%, 32.835388%)" offset="0.609375"/><stop stop-opacity="1" stop-color="rgb(100%, 66.252136%, 32.754517%)" offset="0.621094"/><stop stop-opacity="1" stop-color="rgb(100%, 66.007996%, 32.687378%)" offset="0.632812"/><stop stop-opacity="1" stop-color="rgb(100%, 65.811157%, 32.633972%)" offset="0.640625"/><stop stop-opacity="1" stop-color="rgb(100%, 65.615845%, 32.580566%)" offset="0.648438"/><stop stop-opacity="1" stop-color="rgb(100%, 65.420532%, 32.527161%)" offset="0.65625"/><stop stop-opacity="1" stop-color="rgb(100%, 65.223694%, 32.473755%)" offset="0.664062"/><stop stop-opacity="1" stop-color="rgb(100%, 65.028381%, 32.420349%)" offset="0.671875"/><stop stop-opacity="1" stop-color="rgb(100%, 64.831543%, 32.366943%)" offset="0.679688"/><stop stop-opacity="1" stop-color="rgb(100%, 64.63623%, 32.313538%)" offset="0.6875"/><stop stop-opacity="1" stop-color="rgb(100%, 64.440918%, 32.258606%)" offset="0.695312"/><stop stop-opacity="1" stop-color="rgb(100%, 64.24408%, 32.2052%)" offset="0.703125"/><stop stop-opacity="1" stop-color="rgb(100%, 63.951111%, 32.125854%)" offset="0.710938"/><stop stop-opacity="1" stop-color="rgb(100%, 63.656616%, 32.044983%)" offset="0.726562"/><stop stop-opacity="1" stop-color="rgb(100%, 63.461304%, 31.991577%)" offset="0.734375"/><stop stop-opacity="1" stop-color="rgb(100%, 63.264465%, 31.938171%)" offset="0.742188"/><stop stop-opacity="1" stop-color="rgb(100%, 62.971497%, 31.858826%)" offset="0.75"/><stop stop-opacity="1" stop-color="rgb(100%, 62.628174%, 31.764221%)" offset="0.765625"/><stop stop-opacity="1" stop-color="rgb(100%, 62.335205%, 31.68335%)" offset="0.777344"/><stop stop-opacity="1" stop-color="rgb(100%, 62.04071%, 31.604004%)" offset="0.789062"/><stop stop-opacity="1" stop-color="rgb(100%, 61.746216%, 31.523132%)" offset="0.800781"/><stop stop-opacity="1" stop-color="rgb(100%, 61.453247%, 31.443787%)" offset="0.8125"/><stop stop-opacity="1" stop-color="rgb(100%, 61.209106%, 31.376648%)" offset="0.824219"/><stop stop-opacity="1" stop-color="rgb(100%, 61.012268%, 31.323242%)" offset="0.832031"/><stop stop-opacity="1" stop-color="rgb(100%, 60.816956%, 31.268311%)" offset="0.839844"/><stop stop-opacity="1" stop-color="rgb(100%, 60.620117%, 31.214905%)" offset="0.847656"/><stop stop-opacity="1" stop-color="rgb(100%, 60.327148%, 31.135559%)" offset="0.855469"/><stop stop-opacity="1" stop-color="rgb(100%, 60.032654%, 31.054688%)" offset="0.871094"/><stop stop-opacity="1" stop-color="rgb(100%, 59.788513%, 30.987549%)" offset="0.878906"/><stop stop-opacity="1" stop-color="rgb(100%, 59.494019%, 30.908203%)" offset="0.890625"/><stop stop-opacity="1" stop-color="rgb(100%, 59.20105%, 30.827332%)" offset="0.902344"/><stop stop-opacity="1" stop-color="rgb(100%, 58.955383%, 30.760193%)" offset="0.914062"/><stop stop-opacity="1" stop-color="rgb(100%, 58.760071%, 30.706787%)" offset="0.921875"/><stop stop-opacity="1" stop-color="rgb(100%, 58.563232%, 30.653381%)" offset="0.929688"/><stop stop-opacity="1" stop-color="rgb(100%, 58.270264%, 30.574036%)" offset="0.9375"/><stop stop-opacity="1" stop-color="rgb(100%, 57.926941%, 30.479431%)" offset="0.953125"/><stop stop-opacity="1" stop-color="rgb(100%, 57.6828%, 30.412292%)" offset="0.964844"/><stop stop-opacity="1" stop-color="rgb(100%, 57.437134%, 30.34668%)" offset="0.972656"/><stop stop-opacity="1" stop-color="rgb(100%, 57.192993%, 30.279541%)" offset="0.984375"/><stop stop-opacity="1" stop-color="rgb(100%, 56.996155%, 30.224609%)" offset="0.992188"/><stop stop-opacity="1" stop-color="rgb(100%, 56.898499%, 30.198669%)" offset="1"/></radialGradient><clipPath id="e1b2ce6256"><path d="M 118 52 L 164 52 L 164 82 L 118 82 Z M 118 52 " clip-rule="nonzero"/></clipPath><clipPath id="0acb0d6046"><path d="M 132.339844 -9.589844 L 324.761719 116.855469 L 198.3125 309.277344 L 5.894531 182.828125 Z M 132.339844 -9.589844 " clip-rule="nonzero"/></clipPath><clipPath id="829f38ccb4"><path d="M 132.339844 -9.589844 L 324.761719 116.855469 L 198.3125 309.277344 L 5.894531 182.828125 Z M 132.339844 -9.589844 " clip-rule="nonzero"/></clipPath><clipPath id="0546c3e5f7"><path d="M 97 80 L 110 80 L 110 95 L 97 95 Z M 97 80 " clip-rule="nonzero"/></clipPath><clipPath id="4e00d33818"><path d="M 132.339844 -9.589844 L 324.761719 116.855469 L 198.3125 309.277344 L 5.894531 182.828125 Z M 132.339844 -9.589844 " clip-rule="nonzero"/></clipPath><clipPath id="e1fd7e60a1"><path d="M 132.339844 -9.589844 L 324.761719 116.855469 L 198.3125 309.277344 L 5.894531 182.828125 Z M 132.339844 -9.589844 " clip-rule="nonzero"/></clipPath><clipPath id="dc6f6e38f4"><path d="M 15 29 L 300 29 L 300 300 L 15 300 Z M 15 29 " clip-rule="nonzero"/></clipPath><clipPath id="0c11f803b7"><path d="M 132.339844 -9.589844 L 324.761719 116.855469 L 198.3125 309.277344 L 5.894531 182.828125 Z M 132.339844 -9.589844 " clip-rule="nonzero"/></clipPath><clipPath id="178ca3c911"><path d="M 132.339844 -9.589844 L 324.761719 116.855469 L 198.3125 309.277344 L 5.894531 182.828125 Z M 132.339844 -9.589844 " clip-rule="nonzero"/></clipPath><mask id="9a0cbb9a07"><g filter="url(#9aed861624)"><rect x="-30" width="360" fill="#000000" y="-29.999999" height="359.999986" fill-opacity="0.2157"/></g></mask><clipPath id="57bfac8589"><path d="M 35 103 L 266 103 L 266 236 L 35 236 Z M 35 103 " clip-rule="nonzero"/></clipPath><clipPath id="a507d7c080"><path d="M 117.339844 -38.589844 L 309.761719 87.855469 L 183.3125 280.277344 L -9.105469 153.828125 Z M 117.339844 -38.589844 " clip-rule="nonzero"/></clipPath><clipPath id="90aa9044a9"><path d="M 117.339844 -38.589844 L 309.761719 87.855469 L 183.3125 280.277344 L -9.105469 153.828125 Z M 117.339844 -38.589844 " clip-rule="nonzero"/></clipPath><clipPath id="be3b6d1015"><path d="M 2.015625 160.765625 L 183.226562 279.84375 L 288.425781 119.753906 L 107.214844 0.675781 Z M 2.015625 160.765625 " clip-rule="nonzero"/></clipPath><clipPath id="aedee778d0"><rect x="0" width="285" y="0" height="271"/></clipPath><clipPath id="5d436c3fcb"><path d="M 5.769531 34.035156 L 296.019531 34.035156 L 296.019531 265.785156 L 5.769531 265.785156 Z M 5.769531 34.035156 " clip-rule="nonzero"/></clipPath></defs><g clip-path="url(#5146f5e260)"><g clip-path="url(#a35fd2f8ca)"><g clip-path="url(#8a2aee04cd)"><g clip-path="url(#c61ada28e2)"><path fill="url(#9e92136aa0)" d="M 4.246094 38.355469 L 276.667969 -11.527344 L 326.550781 260.898438 L 54.128906 310.78125 Z M 4.246094 38.355469 " fill-rule="nonzero"/></g></g></g></g><g clip-path="url(#e1b2ce6256)"><g clip-path="url(#0acb0d6046)"><g clip-path="url(#829f38ccb4)"><path fill="#fad4ad" d="M 155.875 55.152344 C 168.21875 64.011719 165.816406 71.265625 148.664062 76.917969 C 130.066406 82.867188 120.226562 82.5 119.148438 75.816406 C 118.066406 69.882812 122.328125 63.96875 131.921875 58.078125 C 141.921875 51.957031 149.902344 50.980469 155.875 55.152344 Z M 155.875 55.152344 " fill-opacity="1" fill-rule="evenodd"/></g></g></g><g clip-path="url(#0546c3e5f7)"><g clip-path="url(#4e00d33818)"><g clip-path="url(#e1fd7e60a1)"><path fill="#fad4ad" d="M 108.023438 81.949219 C 110.871094 84.8125 110.253906 88.019531 106.183594 91.566406 C 102.117188 95.109375 99.433594 95.214844 98.140625 91.878906 C 96.96875 89.117188 97.8125 86.308594 100.679688 83.46875 C 103.71875 80.738281 106.167969 80.226562 108.023438 81.949219 Z M 108.023438 81.949219 " fill-opacity="1" fill-rule="evenodd"/></g></g></g><g clip-path="url(#dc6f6e38f4)"><g clip-path="url(#0c11f803b7)"><g clip-path="url(#178ca3c911)"><g mask="url(#9a0cbb9a07)"><g transform="matrix(1, 0, 0, 1, 15, 29)"><g clip-path="url(#aedee778d0)"><g clip-path="url(#57bfac8589)"><g clip-path="url(#a507d7c080)"><g clip-path="url(#90aa9044a9)"><g clip-path="url(#be3b6d1015)"><path fill="#ffbd59" d="M 264.179688 103.820312 C 268.464844 132.523438 262.554688 159.125 246.449219 183.632812 C 229.085938 210.058594 204.792969 226.574219 173.570312 233.179688 C 142.460938 239.617188 113.691406 234.152344 87.273438 216.792969 C 69.023438 204.800781 55.308594 188.9375 46.117188 169.210938 C 37.332031 150 34.003906 129.894531 36.109375 108.878906 C 38.351562 124.785156 43.753906 139.660156 52.328125 153.507812 C 61.132812 167.753906 72.578125 179.507812 86.65625 188.761719 C 113.25 206.238281 142.101562 211.757812 173.210938 205.320312 C 204.144531 198.765625 228.300781 182.28125 245.660156 155.863281 C 256.28125 139.699219 262.457031 122.347656 264.179688 103.820312 Z M 264.179688 103.820312 " fill-opacity="1" fill-rule="evenodd"/></g></g></g></g></g></g></g></g></g></g><path fill="#004aad" d="M 291.179688 260.957031 L 10.609375 260.957031 L 10.609375 231.988281 L 291.179688 231.988281 L 291.179688 260.957031 " fill-opacity="1" fill-rule="nonzero"/><path fill="#04387d" d="M 68.65625 231.988281 L 29.957031 231.988281 L 29.957031 212.675781 L 68.65625 212.675781 L 68.65625 231.988281 " fill-opacity="1" fill-rule="nonzero"/><path fill="#004aad" d="M 63.820312 212.675781 L 34.796875 212.675781 L 39.632812 87.144531 L 58.984375 87.144531 L 63.820312 212.675781 " fill-opacity="1" fill-rule="nonzero"/><path fill="#04387d" d="M 58.984375 87.144531 L 39.632812 87.144531 C 34.285156 87.144531 29.957031 82.824219 29.957031 77.488281 L 29.957031 67.832031 L 68.65625 67.832031 L 68.65625 77.488281 C 68.65625 82.824219 64.332031 87.144531 58.984375 87.144531 " fill-opacity="1" fill-rule="nonzero"/><path fill="#04387d" d="M 136.382812 231.988281 L 97.683594 231.988281 L 97.683594 212.675781 L 136.382812 212.675781 L 136.382812 231.988281 " fill-opacity="1" fill-rule="nonzero"/><path fill="#004aad" d="M 131.542969 212.675781 L 102.519531 212.675781 L 107.355469 87.144531 L 126.707031 87.144531 L 131.542969 212.675781 " fill-opacity="1" fill-rule="nonzero"/><path fill="#04387d" d="M 126.707031 87.144531 L 107.355469 87.144531 C 102.007812 87.144531 97.683594 82.824219 97.683594 77.488281 L 97.683594 67.832031 L 136.382812 67.832031 L 136.382812 77.488281 C 136.382812 82.824219 132.054688 87.144531 126.707031 87.144531 " fill-opacity="1" fill-rule="nonzero"/><path fill="#04387d" d="M 204.105469 231.988281 L 165.40625 231.988281 L 165.40625 212.675781 L 204.105469 212.675781 L 204.105469 231.988281 " fill-opacity="1" fill-rule="nonzero"/><path fill="#04387d" d="M 271.832031 231.988281 L 233.132812 231.988281 L 233.132812 212.675781 L 271.832031 212.675781 L 271.832031 231.988281 " fill-opacity="1" fill-rule="nonzero"/><path fill="#004aad" d="M 175.082031 130.597656 L 170.242188 212.675781 L 199.269531 212.675781 L 194.429688 145.082031 L 184.757812 140.253906 L 175.082031 130.597656 " fill-opacity="1" fill-rule="nonzero"/><path fill="#004aad" d="M 252.480469 159.566406 L 242.804688 169.222656 L 237.96875 212.675781 L 266.992188 212.675781 L 265.121094 164.394531 L 252.480469 159.566406 " fill-opacity="1" fill-rule="nonzero"/><path fill="#004aad" d="M 10.609375 67.832031 L 160.570312 67.832031 L 146.058594 53.347656 L 146.058594 38.863281 L 126.707031 38.863281 L 117.03125 48.519531 L 102.519531 38.863281 L 10.609375 38.863281 L 10.609375 67.832031 " fill-opacity="1" fill-rule="nonzero"/><g clip-path="url(#5d436c3fcb)"><path fill="#04387d" d="M 286.34375 256.128906 L 15.445312 256.128906 L 15.445312 236.816406 L 286.34375 236.816406 Z M 58.984375 82.316406 L 39.632812 82.316406 C 36.96875 82.316406 34.796875 80.148438 34.796875 77.488281 L 34.796875 72.660156 L 63.820312 72.660156 L 63.820312 77.488281 C 63.820312 80.148438 61.648438 82.316406 58.984375 82.316406 Z M 39.820312 207.847656 L 44.28125 91.972656 L 54.335938 91.972656 L 58.792969 207.847656 Z M 63.820312 217.503906 L 63.820312 227.160156 L 34.796875 227.160156 L 34.796875 217.503906 Z M 68.65625 207.847656 L 68.46875 207.847656 L 63.972656 91.03125 C 69.507812 88.992188 73.496094 83.710938 73.496094 77.488281 L 73.496094 72.660156 L 92.84375 72.660156 L 92.84375 77.488281 C 92.84375 83.710938 96.832031 88.992188 102.367188 91.03125 L 97.871094 207.847656 L 97.683594 207.847656 C 95.019531 207.847656 92.84375 210.015625 92.84375 212.675781 L 92.84375 227.160156 L 73.496094 227.160156 L 73.496094 212.675781 C 73.496094 210.015625 71.320312 207.847656 68.65625 207.847656 Z M 126.707031 82.316406 L 107.355469 82.316406 C 104.691406 82.316406 102.519531 80.148438 102.519531 77.488281 L 102.519531 72.660156 L 131.542969 72.660156 L 131.542969 77.488281 C 131.542969 80.148438 129.371094 82.316406 126.707031 82.316406 Z M 131.542969 217.503906 L 131.542969 227.160156 L 102.519531 227.160156 L 102.519531 217.503906 Z M 109.265625 163.074219 L 112.003906 91.972656 L 122.058594 91.972656 L 125.835938 190.175781 L 115.5 193.609375 L 118.5625 202.773438 L 126.234375 200.210938 L 126.519531 207.847656 L 107.546875 207.847656 L 108.832031 174.410156 L 114.347656 178.066406 L 119.714844 170.035156 Z M 15.445312 63.003906 L 15.445312 43.691406 L 36.15625 43.691406 L 39.878906 54.875 L 49.0625 51.820312 L 46.339844 43.691406 L 101.066406 43.691406 L 114.347656 52.535156 C 116.257812 53.820312 118.808594 53.554688 120.453125 51.933594 L 128.710938 43.691406 L 141.21875 43.691406 L 141.21875 53.347656 C 141.21875 54.628906 141.730469 55.855469 142.636719 56.761719 L 148.890625 63.003906 L 87.363281 63.003906 L 92.03125 56.027344 L 83.984375 50.667969 L 75.742188 63.003906 Z M 170.242188 217.503906 L 199.269531 217.503906 L 199.269531 227.160156 L 170.242188 227.160156 Z M 176.046875 196.53125 L 186.285156 193.117188 L 183.226562 183.953125 L 176.648438 186.140625 L 179.277344 141.613281 L 181.335938 143.667969 C 181.695312 144.027344 182.128906 144.347656 182.582031 144.574219 L 189.800781 148.175781 L 194.070312 207.847656 L 175.363281 207.847656 Z M 237.96875 217.503906 L 266.992188 217.503906 L 266.992188 227.160156 L 237.96875 227.160156 Z M 247.433594 171.449219 L 253.691406 165.1875 L 260.417969 167.769531 L 260.945312 181.445312 L 254.011719 179.125 L 250.949219 188.289062 L 261.34375 191.742188 L 261.964844 207.847656 L 243.371094 207.847656 Z M 291.179688 227.160156 L 276.667969 227.160156 L 276.667969 212.675781 C 276.667969 210.015625 274.496094 207.847656 271.832031 207.847656 L 271.640625 207.847656 L 269.960938 164.207031 C 269.882812 162.28125 268.675781 160.585938 266.859375 159.886719 L 254.199219 155.058594 C 252.425781 154.359375 250.421875 154.8125 249.058594 156.152344 L 239.386719 165.808594 C 238.609375 166.582031 238.121094 167.601562 238.007812 168.695312 L 233.640625 207.847656 L 233.132812 207.847656 C 230.464844 207.847656 228.292969 210.015625 228.292969 212.675781 L 228.292969 227.160156 L 208.945312 227.160156 L 208.945312 212.675781 C 208.945312 210.015625 206.769531 207.847656 204.105469 207.847656 L 203.765625 207.847656 L 199.25 144.742188 C 199.136719 143.042969 198.117188 141.535156 196.605469 140.761719 L 187.628906 136.273438 L 178.5 127.183594 C 177.140625 125.84375 175.136719 125.410156 173.363281 126.089844 C 171.585938 126.769531 170.355469 128.410156 170.261719 130.3125 L 165.691406 207.847656 L 165.40625 207.847656 C 162.742188 207.847656 160.570312 210.015625 160.570312 212.675781 L 160.570312 227.160156 L 141.21875 227.160156 L 141.21875 212.675781 C 141.21875 210.015625 139.046875 207.847656 136.382812 207.847656 L 136.191406 207.847656 L 131.695312 91.03125 C 137.230469 88.992188 141.21875 83.710938 141.21875 77.488281 L 141.21875 72.660156 L 160.570312 72.660156 C 162.535156 72.660156 164.292969 71.492188 165.027344 69.679688 C 165.785156 67.871094 165.367188 65.792969 163.988281 64.417969 L 150.894531 51.347656 L 150.894531 38.863281 C 150.894531 36.203125 148.722656 34.035156 146.058594 34.035156 L 126.707031 34.035156 C 125.421875 34.035156 124.195312 34.542969 123.285156 35.449219 L 116.410156 42.3125 L 105.203125 34.847656 C 104.410156 34.316406 103.484375 34.035156 102.519531 34.035156 L 10.609375 34.035156 C 7.945312 34.035156 5.769531 36.203125 5.769531 38.863281 L 5.769531 67.832031 C 5.769531 70.492188 7.945312 72.660156 10.609375 72.660156 L 25.121094 72.660156 L 25.121094 77.488281 C 25.121094 83.710938 29.109375 88.992188 34.644531 91.03125 L 30.148438 207.847656 L 29.957031 207.847656 C 27.292969 207.847656 25.121094 210.015625 25.121094 212.675781 L 25.121094 227.160156 L 10.609375 227.160156 C 7.945312 227.160156 5.769531 229.328125 5.769531 231.988281 L 5.769531 260.957031 C 5.769531 263.617188 7.945312 265.785156 10.609375 265.785156 L 291.179688 265.785156 C 293.84375 265.785156 296.019531 263.617188 296.019531 260.957031 L 296.019531 231.988281 C 296.019531 229.328125 293.84375 227.160156 291.179688 227.160156 " fill-opacity="1" fill-rule="nonzero"/></g><g fill="#ff914d" fill-opacity="1"><g transform="translate(63.78506, 254.229414)"><g><path d="M 11.890625 -2.546875 C 12.910156 -2.546875 13.65625 -2.722656 14.125 -3.078125 C 14.59375 -3.429688 14.828125 -4.015625 14.828125 -4.828125 C 14.828125 -5.609375 14.5625 -6.15625 14.03125 -6.46875 C 13.5 -6.789062 12.753906 -6.953125 11.796875 -6.953125 L 5.3125 -6.953125 L 5.3125 -2.546875 Z M 12.421875 -9.5 C 12.984375 -9.5 13.441406 -9.660156 13.796875 -9.984375 C 14.148438 -10.316406 14.328125 -10.765625 14.328125 -11.328125 C 14.328125 -12.015625 14.164062 -12.488281 13.84375 -12.75 C 13.53125 -13.019531 12.976562 -13.15625 12.1875 -13.15625 L 5.3125 -13.15625 L 5.3125 -9.5 Z M 12.125 -15.703125 C 12.8125 -15.703125 13.46875 -15.640625 14.09375 -15.515625 C 14.726562 -15.390625 15.28125 -15.164062 15.75 -14.84375 C 16.226562 -14.53125 16.609375 -14.101562 16.890625 -13.5625 C 17.171875 -13.019531 17.3125 -12.332031 17.3125 -11.5 C 17.3125 -10.78125 17.132812 -10.144531 16.78125 -9.59375 C 16.425781 -9.039062 15.878906 -8.582031 15.140625 -8.21875 C 16.097656 -7.789062 16.796875 -7.257812 17.234375 -6.625 C 17.671875 -5.988281 17.890625 -5.238281 17.890625 -4.375 C 17.890625 -3.613281 17.75 -2.957031 17.46875 -2.40625 C 17.1875 -1.863281 16.804688 -1.410156 16.328125 -1.046875 C 15.859375 -0.691406 15.304688 -0.425781 14.671875 -0.25 C 14.035156 -0.0820312 13.367188 0 12.671875 0 L 1.640625 0 L 1.640625 -0.296875 C 1.878906 -0.296875 2.039062 -0.34375 2.125 -0.4375 C 2.207031 -0.53125 2.25 -0.6875 2.25 -0.90625 L 2.25 -14.78125 C 2.25 -15.007812 2.210938 -15.171875 2.140625 -15.265625 C 2.066406 -15.359375 1.898438 -15.40625 1.640625 -15.40625 L 1.640625 -15.703125 Z M 12.125 -15.703125 "/></g></g></g><g fill="#ff914d" fill-opacity="1"><g transform="translate(82.964578, 254.229414)"><g><path d="M 6.671875 -6.609375 L 11.796875 -6.609375 L 9.21875 -12.25 Z M 11.765625 -15.703125 L 11.765625 -15.40625 C 11.460938 -15.363281 11.3125 -15.253906 11.3125 -15.078125 C 11.3125 -14.960938 11.34375 -14.835938 11.40625 -14.703125 C 11.476562 -14.566406 11.550781 -14.410156 11.625 -14.234375 L 17.765625 -1.125 C 17.898438 -0.820312 18.007812 -0.609375 18.09375 -0.484375 C 18.1875 -0.359375 18.351562 -0.296875 18.59375 -0.296875 L 18.59375 0 L 14.3125 0 L 14.3125 -0.296875 C 14.5625 -0.296875 14.6875 -0.367188 14.6875 -0.515625 C 14.6875 -0.585938 14.65625 -0.695312 14.59375 -0.84375 C 14.539062 -0.988281 14.46875 -1.160156 14.375 -1.359375 L 13.0625 -4.140625 L 5.65625 -4.140625 C 5.332031 -3.429688 5.070312 -2.863281 4.875 -2.4375 C 4.675781 -2.007812 4.519531 -1.679688 4.40625 -1.453125 C 4.300781 -1.242188 4.21875 -1.070312 4.15625 -0.9375 C 4.101562 -0.800781 4.078125 -0.695312 4.078125 -0.625 C 4.078125 -0.4375 4.1875 -0.328125 4.40625 -0.296875 L 4.40625 0 L 0.5625 0 L 0.5625 -0.296875 C 0.789062 -0.316406 0.953125 -0.382812 1.046875 -0.5 C 1.140625 -0.625 1.25 -0.832031 1.375 -1.125 L 7.265625 -14.375 C 7.328125 -14.488281 7.382812 -14.601562 7.4375 -14.71875 C 7.488281 -14.832031 7.515625 -14.929688 7.515625 -15.015625 C 7.515625 -15.234375 7.363281 -15.363281 7.0625 -15.40625 L 7.0625 -15.703125 Z M 11.765625 -15.703125 "/></g></g></g><g fill="#ff914d" fill-opacity="1"><g transform="translate(102.144096, 254.229414)"><g><path d="M 6 -15.703125 L 6 -15.40625 C 5.707031 -15.40625 5.523438 -15.351562 5.453125 -15.25 C 5.378906 -15.15625 5.34375 -14.992188 5.34375 -14.765625 L 5.34375 -2.546875 L 15.328125 -2.546875 C 15.804688 -2.546875 16.046875 -2.71875 16.046875 -3.0625 L 16.359375 -3.0625 L 16.359375 0.46875 L 16.046875 0.46875 C 16.046875 0.15625 15.804688 0 15.328125 0 L 1.71875 0 L 1.71875 -0.296875 C 1.96875 -0.296875 2.125 -0.34375 2.1875 -0.4375 C 2.25 -0.53125 2.28125 -0.703125 2.28125 -0.953125 L 2.28125 -14.765625 C 2.28125 -14.992188 2.25 -15.15625 2.1875 -15.25 C 2.125 -15.351562 1.96875 -15.40625 1.71875 -15.40625 L 1.71875 -15.703125 Z M 6 -15.703125 "/></g></g></g><g fill="#ff914d" fill-opacity="1"><g transform="translate(118.92887, 254.229414)"><g><path d="M 6 -15.703125 L 6 -15.40625 C 5.707031 -15.40625 5.523438 -15.351562 5.453125 -15.25 C 5.378906 -15.15625 5.34375 -14.992188 5.34375 -14.765625 L 5.34375 -2.546875 L 15.328125 -2.546875 C 15.804688 -2.546875 16.046875 -2.71875 16.046875 -3.0625 L 16.359375 -3.0625 L 16.359375 0.46875 L 16.046875 0.46875 C 16.046875 0.15625 15.804688 0 15.328125 0 L 1.71875 0 L 1.71875 -0.296875 C 1.96875 -0.296875 2.125 -0.34375 2.1875 -0.4375 C 2.25 -0.53125 2.28125 -0.703125 2.28125 -0.953125 L 2.28125 -14.765625 C 2.28125 -14.992188 2.25 -15.15625 2.1875 -15.25 C 2.125 -15.351562 1.96875 -15.40625 1.71875 -15.40625 L 1.71875 -15.703125 Z M 6 -15.703125 "/></g></g></g><g fill="#ff914d" fill-opacity="1"><g transform="translate(135.713644, 254.229414)"><g><path d="M 4.25 -7.859375 C 4.25 -6.960938 4.398438 -6.171875 4.703125 -5.484375 C 5.003906 -4.804688 5.421875 -4.234375 5.953125 -3.765625 C 6.484375 -3.296875 7.113281 -2.9375 7.84375 -2.6875 C 8.570312 -2.445312 9.351562 -2.328125 10.1875 -2.328125 C 11.0625 -2.328125 11.863281 -2.457031 12.59375 -2.71875 C 13.332031 -2.976562 13.957031 -3.34375 14.46875 -3.8125 C 14.988281 -4.289062 15.394531 -4.867188 15.6875 -5.546875 C 15.976562 -6.234375 16.125 -7.003906 16.125 -7.859375 C 16.125 -8.722656 15.972656 -9.492188 15.671875 -10.171875 C 15.378906 -10.859375 14.96875 -11.4375 14.4375 -11.90625 C 13.914062 -12.382812 13.285156 -12.75 12.546875 -13 C 11.816406 -13.25 11.019531 -13.375 10.15625 -13.375 C 9.34375 -13.375 8.578125 -13.25 7.859375 -13 C 7.140625 -12.757812 6.507812 -12.40625 5.96875 -11.9375 C 5.4375 -11.46875 5.015625 -10.890625 4.703125 -10.203125 C 4.398438 -9.515625 4.25 -8.734375 4.25 -7.859375 Z M 10.1875 -15.921875 C 11.4375 -15.921875 12.609375 -15.742188 13.703125 -15.390625 C 14.796875 -15.046875 15.75 -14.53125 16.5625 -13.84375 C 17.375 -13.15625 18.015625 -12.316406 18.484375 -11.328125 C 18.953125 -10.335938 19.1875 -9.203125 19.1875 -7.921875 C 19.1875 -6.535156 18.9375 -5.332031 18.4375 -4.3125 C 17.9375 -3.289062 17.273438 -2.445312 16.453125 -1.78125 C 15.640625 -1.113281 14.691406 -0.613281 13.609375 -0.28125 C 12.535156 0.0507812 11.414062 0.21875 10.25 0.21875 C 8.925781 0.21875 7.707031 0.0351562 6.59375 -0.328125 C 5.488281 -0.703125 4.535156 -1.234375 3.734375 -1.921875 C 2.929688 -2.609375 2.304688 -3.445312 1.859375 -4.4375 C 1.410156 -5.4375 1.1875 -6.554688 1.1875 -7.796875 C 1.1875 -9.140625 1.425781 -10.316406 1.90625 -11.328125 C 2.382812 -12.347656 3.035156 -13.195312 3.859375 -13.875 C 4.679688 -14.5625 5.632812 -15.070312 6.71875 -15.40625 C 7.800781 -15.75 8.957031 -15.921875 10.1875 -15.921875 Z M 10.1875 -15.921875 "/></g></g></g><g fill="#ff914d" fill-opacity="1"><g transform="translate(156.079742, 254.229414)"><g><path d="M 12 -9.328125 C 12.789062 -9.328125 13.34375 -9.457031 13.65625 -9.71875 C 13.976562 -9.988281 14.140625 -10.492188 14.140625 -11.234375 C 14.140625 -11.984375 13.976562 -12.488281 13.65625 -12.75 C 13.34375 -13.019531 12.796875 -13.15625 12.015625 -13.15625 L 5.390625 -13.15625 L 5.390625 -9.328125 Z M 12.109375 -15.703125 C 12.859375 -15.703125 13.546875 -15.613281 14.171875 -15.4375 C 14.796875 -15.257812 15.332031 -14.984375 15.78125 -14.609375 C 16.238281 -14.234375 16.585938 -13.765625 16.828125 -13.203125 C 17.078125 -12.640625 17.203125 -11.984375 17.203125 -11.234375 C 17.203125 -9.679688 16.769531 -8.550781 15.90625 -7.84375 C 15.039062 -7.132812 13.765625 -6.78125 12.078125 -6.78125 L 5.390625 -6.78125 L 5.390625 -0.921875 C 5.390625 -0.691406 5.425781 -0.53125 5.5 -0.4375 C 5.570312 -0.34375 5.738281 -0.296875 6 -0.296875 L 6 0 L 1.71875 0 L 1.71875 -0.296875 C 1.96875 -0.296875 2.128906 -0.34375 2.203125 -0.4375 C 2.285156 -0.53125 2.328125 -0.691406 2.328125 -0.921875 L 2.328125 -14.78125 C 2.328125 -15.007812 2.289062 -15.171875 2.21875 -15.265625 C 2.144531 -15.359375 1.976562 -15.40625 1.71875 -15.40625 L 1.71875 -15.703125 Z M 12.109375 -15.703125 "/></g></g></g><g fill="#ff914d" fill-opacity="1"><g transform="translate(174.051096, 254.229414)"><g><path d="M 4.25 -7.859375 C 4.25 -6.960938 4.398438 -6.171875 4.703125 -5.484375 C 5.003906 -4.804688 5.421875 -4.234375 5.953125 -3.765625 C 6.484375 -3.296875 7.113281 -2.9375 7.84375 -2.6875 C 8.570312 -2.445312 9.351562 -2.328125 10.1875 -2.328125 C 11.0625 -2.328125 11.863281 -2.457031 12.59375 -2.71875 C 13.332031 -2.976562 13.957031 -3.34375 14.46875 -3.8125 C 14.988281 -4.289062 15.394531 -4.867188 15.6875 -5.546875 C 15.976562 -6.234375 16.125 -7.003906 16.125 -7.859375 C 16.125 -8.722656 15.972656 -9.492188 15.671875 -10.171875 C 15.378906 -10.859375 14.96875 -11.4375 14.4375 -11.90625 C 13.914062 -12.382812 13.285156 -12.75 12.546875 -13 C 11.816406 -13.25 11.019531 -13.375 10.15625 -13.375 C 9.34375 -13.375 8.578125 -13.25 7.859375 -13 C 7.140625 -12.757812 6.507812 -12.40625 5.96875 -11.9375 C 5.4375 -11.46875 5.015625 -10.890625 4.703125 -10.203125 C 4.398438 -9.515625 4.25 -8.734375 4.25 -7.859375 Z M 10.1875 -15.921875 C 11.4375 -15.921875 12.609375 -15.742188 13.703125 -15.390625 C 14.796875 -15.046875 15.75 -14.53125 16.5625 -13.84375 C 17.375 -13.15625 18.015625 -12.316406 18.484375 -11.328125 C 18.953125 -10.335938 19.1875 -9.203125 19.1875 -7.921875 C 19.1875 -6.535156 18.9375 -5.332031 18.4375 -4.3125 C 17.9375 -3.289062 17.273438 -2.445312 16.453125 -1.78125 C 15.640625 -1.113281 14.691406 -0.613281 13.609375 -0.28125 C 12.535156 0.0507812 11.414062 0.21875 10.25 0.21875 C 8.925781 0.21875 7.707031 0.0351562 6.59375 -0.328125 C 5.488281 -0.703125 4.535156 -1.234375 3.734375 -1.921875 C 2.929688 -2.609375 2.304688 -3.445312 1.859375 -4.4375 C 1.410156 -5.4375 1.1875 -6.554688 1.1875 -7.796875 C 1.1875 -9.140625 1.425781 -10.316406 1.90625 -11.328125 C 2.382812 -12.347656 3.035156 -13.195312 3.859375 -13.875 C 4.679688 -14.5625 5.632812 -15.070312 6.71875 -15.40625 C 7.800781 -15.75 8.957031 -15.921875 10.1875 -15.921875 Z M 10.1875 -15.921875 "/></g></g></g><g fill="#ff914d" fill-opacity="1"><g transform="translate(194.417194, 254.229414)"><g><path d="M 6 -15.703125 L 6 -15.40625 C 5.707031 -15.40625 5.523438 -15.351562 5.453125 -15.25 C 5.378906 -15.15625 5.34375 -14.992188 5.34375 -14.765625 L 5.34375 -2.546875 L 15.328125 -2.546875 C 15.804688 -2.546875 16.046875 -2.71875 16.046875 -3.0625 L 16.359375 -3.0625 L 16.359375 0.46875 L 16.046875 0.46875 C 16.046875 0.15625 15.804688 0 15.328125 0 L 1.71875 0 L 1.71875 -0.296875 C 1.96875 -0.296875 2.125 -0.34375 2.1875 -0.4375 C 2.25 -0.53125 2.28125 -0.703125 2.28125 -0.953125 L 2.28125 -14.765625 C 2.28125 -14.992188 2.25 -15.15625 2.1875 -15.25 C 2.125 -15.351562 1.96875 -15.40625 1.71875 -15.40625 L 1.71875 -15.703125 Z M 6 -15.703125 "/></g></g></g><g fill="#ff914d" fill-opacity="1"><g transform="translate(211.201968, 254.229414)"><g><path d="M 6.515625 -15.703125 L 6.515625 -15.40625 C 6.179688 -15.40625 5.960938 -15.359375 5.859375 -15.265625 C 5.765625 -15.179688 5.71875 -15.015625 5.71875 -14.765625 L 5.71875 -0.90625 C 5.71875 -0.664062 5.773438 -0.503906 5.890625 -0.421875 C 6.015625 -0.335938 6.222656 -0.296875 6.515625 -0.296875 L 6.515625 0 L 1.875 0 L 1.875 -0.296875 C 2.164062 -0.296875 2.367188 -0.335938 2.484375 -0.421875 C 2.597656 -0.503906 2.65625 -0.664062 2.65625 -0.90625 L 2.65625 -14.765625 C 2.65625 -15.015625 2.609375 -15.179688 2.515625 -15.265625 C 2.421875 -15.359375 2.207031 -15.40625 1.875 -15.40625 L 1.875 -15.703125 Z M 6.515625 -15.703125 "/></g></g></g><g fill="#ff914d" fill-opacity="1"><g transform="translate(219.594355, 254.229414)"><g><path d="M 9.296875 -15.921875 C 10.265625 -15.921875 11.203125 -15.820312 12.109375 -15.625 C 13.015625 -15.425781 13.863281 -15.160156 14.65625 -14.828125 C 14.894531 -14.722656 15.144531 -14.601562 15.40625 -14.46875 C 15.675781 -14.34375 15.867188 -14.28125 15.984375 -14.28125 C 16.128906 -14.28125 16.238281 -14.332031 16.3125 -14.4375 L 16.65625 -14.328125 L 15 -11.09375 L 14.65625 -11.28125 C 14.675781 -11.394531 14.6875 -11.5 14.6875 -11.59375 C 14.6875 -11.644531 14.566406 -11.769531 14.328125 -11.96875 C 14.085938 -12.175781 13.734375 -12.378906 13.265625 -12.578125 C 12.796875 -12.773438 12.210938 -12.957031 11.515625 -13.125 C 10.828125 -13.289062 10.03125 -13.375 9.125 -13.375 C 7.570312 -13.375 6.382812 -13.160156 5.5625 -12.734375 C 4.75 -12.316406 4.34375 -11.738281 4.34375 -11 C 4.34375 -10.644531 4.457031 -10.367188 4.6875 -10.171875 C 4.925781 -9.972656 5.273438 -9.828125 5.734375 -9.734375 C 6.203125 -9.648438 6.757812 -9.59375 7.40625 -9.5625 C 8.0625 -9.539062 8.816406 -9.53125 9.671875 -9.53125 C 10.742188 -9.53125 11.734375 -9.46875 12.640625 -9.34375 C 13.546875 -9.21875 14.320312 -8.976562 14.96875 -8.625 C 15.625 -8.28125 16.132812 -7.804688 16.5 -7.203125 C 16.863281 -6.597656 17.046875 -5.816406 17.046875 -4.859375 C 17.046875 -4.097656 16.859375 -3.398438 16.484375 -2.765625 C 16.109375 -2.140625 15.5625 -1.601562 14.84375 -1.15625 C 14.132812 -0.71875 13.265625 -0.378906 12.234375 -0.140625 C 11.210938 0.0976562 10.046875 0.21875 8.734375 0.21875 C 5.960938 0.21875 3.75 -0.253906 2.09375 -1.203125 C 1.757812 -1.378906 1.566406 -1.46875 1.515625 -1.46875 C 1.421875 -1.46875 1.351562 -1.445312 1.3125 -1.40625 C 1.269531 -1.363281 1.226562 -1.328125 1.1875 -1.296875 L 0.90625 -1.359375 L 2.703125 -5.03125 L 3.046875 -4.859375 C 3.046875 -4.816406 3.035156 -4.769531 3.015625 -4.71875 C 3.003906 -4.664062 3 -4.585938 3 -4.484375 C 3.007812 -4.171875 3.175781 -3.878906 3.5 -3.609375 C 3.820312 -3.347656 4.242188 -3.125 4.765625 -2.9375 C 5.285156 -2.75 5.875 -2.597656 6.53125 -2.484375 C 7.195312 -2.378906 7.875 -2.328125 8.5625 -2.328125 C 10.257812 -2.328125 11.554688 -2.53125 12.453125 -2.9375 C 13.359375 -3.351562 13.8125 -3.921875 13.8125 -4.640625 C 13.8125 -5.109375 13.660156 -5.472656 13.359375 -5.734375 C 13.066406 -5.992188 12.660156 -6.1875 12.140625 -6.3125 C 11.628906 -6.4375 11.007812 -6.507812 10.28125 -6.53125 C 9.550781 -6.5625 8.753906 -6.585938 7.890625 -6.609375 C 6.859375 -6.617188 5.929688 -6.691406 5.109375 -6.828125 C 4.296875 -6.960938 3.601562 -7.1875 3.03125 -7.5 C 2.457031 -7.820312 2.019531 -8.25 1.71875 -8.78125 C 1.414062 -9.3125 1.265625 -9.976562 1.265625 -10.78125 C 1.265625 -11.632812 1.46875 -12.378906 1.875 -13.015625 C 2.28125 -13.660156 2.835938 -14.195312 3.546875 -14.625 C 4.265625 -15.0625 5.113281 -15.382812 6.09375 -15.59375 C 7.082031 -15.8125 8.148438 -15.921875 9.296875 -15.921875 Z M 9.296875 -15.921875 "/></g></g></g><g fill="#ff914d" fill-opacity="1"><g transform="translate(150.667865, 281.979411)"><g/></g></g></svg>