<svg xmlns="http://www.w3.org/2000/svg" xmlns:xlink="http://www.w3.org/1999/xlink" width="1920" zoomAndPan="magnify" viewBox="0 0 1440 809.999993" height="1080" preserveAspectRatio="xMidYMid meet" version="1.0"><defs><filter x="0%" y="0%" width="100%" height="100%" id="d01d46ad16"><feColorMatrix values="0 0 0 0 1 0 0 0 0 1 0 0 0 0 1 0 0 0 1 0" color-interpolation-filters="sRGB"/></filter><g/><clipPath id="96691ad2e7"><path d="M 161 49 L 872 49 L 872 760 L 161 760 Z M 161 49 " clip-rule="nonzero"/></clipPath><clipPath id="4162602687"><path d="M 414.464844 -86.761719 L 1008.027344 303.289062 L 617.976562 896.851562 L 24.414062 506.796875 Z M 414.464844 -86.761719 " clip-rule="nonzero"/></clipPath><clipPath id="e3bcaff728"><path d="M 414.464844 -86.761719 L 1008.027344 303.289062 L 617.976562 896.851562 L 24.414062 506.796875 Z M 414.464844 -86.761719 " clip-rule="nonzero"/></clipPath><clipPath id="42a5b87f86"><path d="M 812.726562 598.738281 C 759.164062 680.242188 684.230469 731.1875 587.917969 751.574219 C 491.957031 771.429688 403.222656 754.554688 321.734375 701.003906 C 239.699219 647.09375 188.75 572.160156 168.886719 476.210938 C 149.390625 379.703125 166.410156 290.71875 219.96875 209.214844 C 273.878906 127.175781 348.636719 76.503906 444.25 57.179688 C 540.210938 37.328125 629.210938 54.355469 711.246094 108.265625 C 792.738281 161.8125 843.425781 236.582031 863.28125 332.542969 C 883.484375 427.972656 866.636719 516.699219 812.726562 598.738281 Z M 812.726562 598.738281 " clip-rule="evenodd"/></clipPath><radialGradient gradientTransform="matrix(0.180116, 0.983645, 0.983645, -0.180116, 410.911903, -90.838239)" gradientUnits="userSpaceOnUse" r="594.242414" cx="253.880655" id="a1213a84a4" cy="-1.058638" fx="253.880655" fy="-1.058638"><stop stop-opacity="1" stop-color="rgb(100%, 74.099731%, 34.899902%)" offset="0"/><stop stop-opacity="1" stop-color="rgb(100%, 74.099731%, 34.899902%)" offset="0.25"/><stop stop-opacity="1" stop-color="rgb(100%, 74.069214%, 34.890747%)" offset="0.296875"/><stop stop-opacity="1" stop-color="rgb(100%, 73.94104%, 34.855652%)" offset="0.316406"/><stop stop-opacity="1" stop-color="rgb(100%, 73.744202%, 34.802246%)" offset="0.324219"/><stop stop-opacity="1" stop-color="rgb(100%, 73.548889%, 34.74884%)" offset="0.332031"/><stop stop-opacity="1" stop-color="rgb(100%, 73.353577%, 34.695435%)" offset="0.339844"/><stop stop-opacity="1" stop-color="rgb(100%, 73.156738%, 34.640503%)" offset="0.347656"/><stop stop-opacity="1" stop-color="rgb(100%, 72.961426%, 34.587097%)" offset="0.355469"/><stop stop-opacity="1" stop-color="rgb(100%, 72.766113%, 34.533691%)" offset="0.363281"/><stop stop-opacity="1" stop-color="rgb(100%, 72.569275%, 34.480286%)" offset="0.371094"/><stop stop-opacity="1" stop-color="rgb(100%, 72.373962%, 34.42688%)" offset="0.378906"/><stop stop-opacity="1" stop-color="rgb(100%, 72.177124%, 34.373474%)" offset="0.386719"/><stop stop-opacity="1" stop-color="rgb(100%, 71.884155%, 34.294128%)" offset="0.394531"/><stop stop-opacity="1" stop-color="rgb(100%, 71.589661%, 34.213257%)" offset="0.410156"/><stop stop-opacity="1" stop-color="rgb(100%, 71.296692%, 34.133911%)" offset="0.417969"/><stop stop-opacity="1" stop-color="rgb(100%, 71.002197%, 34.05304%)" offset="0.433594"/><stop stop-opacity="1" stop-color="rgb(100%, 70.806885%, 33.999634%)" offset="0.441406"/><stop stop-opacity="1" stop-color="rgb(100%, 70.610046%, 33.944702%)" offset="0.449219"/><stop stop-opacity="1" stop-color="rgb(100%, 70.317078%, 33.865356%)" offset="0.457031"/><stop stop-opacity="1" stop-color="rgb(100%, 70.022583%, 33.784485%)" offset="0.472656"/><stop stop-opacity="1" stop-color="rgb(100%, 69.729614%, 33.705139%)" offset="0.480469"/><stop stop-opacity="1" stop-color="rgb(100%, 69.43512%, 33.624268%)" offset="0.496094"/><stop stop-opacity="1" stop-color="rgb(100%, 69.190979%, 33.557129%)" offset="0.503906"/><stop stop-opacity="1" stop-color="rgb(100%, 68.896484%, 33.477783%)" offset="0.515625"/><stop stop-opacity="1" stop-color="rgb(100%, 68.603516%, 33.396912%)" offset="0.527344"/><stop stop-opacity="1" stop-color="rgb(100%, 68.309021%, 33.31604%)" offset="0.539062"/><stop stop-opacity="1" stop-color="rgb(100%, 68.014526%, 33.236694%)" offset="0.550781"/><stop stop-opacity="1" stop-color="rgb(100%, 67.721558%, 33.155823%)" offset="0.5625"/><stop stop-opacity="1" stop-color="rgb(100%, 67.427063%, 33.076477%)" offset="0.574219"/><stop stop-opacity="1" stop-color="rgb(100%, 67.134094%, 32.995605%)" offset="0.585938"/><stop stop-opacity="1" stop-color="rgb(100%, 66.8396%, 32.914734%)" offset="0.597656"/><stop stop-opacity="1" stop-color="rgb(100%, 66.546631%, 32.835388%)" offset="0.609375"/><stop stop-opacity="1" stop-color="rgb(100%, 66.252136%, 32.754517%)" offset="0.621094"/><stop stop-opacity="1" stop-color="rgb(100%, 66.007996%, 32.687378%)" offset="0.632812"/><stop stop-opacity="1" stop-color="rgb(100%, 65.811157%, 32.633972%)" offset="0.640625"/><stop stop-opacity="1" stop-color="rgb(100%, 65.615845%, 32.580566%)" offset="0.648438"/><stop stop-opacity="1" stop-color="rgb(100%, 65.420532%, 32.527161%)" offset="0.65625"/><stop stop-opacity="1" stop-color="rgb(100%, 65.223694%, 32.473755%)" offset="0.664062"/><stop stop-opacity="1" stop-color="rgb(100%, 65.028381%, 32.420349%)" offset="0.671875"/><stop stop-opacity="1" stop-color="rgb(100%, 64.831543%, 32.366943%)" offset="0.679688"/><stop stop-opacity="1" stop-color="rgb(100%, 64.63623%, 32.313538%)" offset="0.6875"/><stop stop-opacity="1" stop-color="rgb(100%, 64.440918%, 32.258606%)" offset="0.695312"/><stop stop-opacity="1" stop-color="rgb(100%, 64.24408%, 32.2052%)" offset="0.703125"/><stop stop-opacity="1" stop-color="rgb(100%, 63.951111%, 32.125854%)" offset="0.710938"/><stop stop-opacity="1" stop-color="rgb(100%, 63.656616%, 32.044983%)" offset="0.726562"/><stop stop-opacity="1" stop-color="rgb(100%, 63.461304%, 31.991577%)" offset="0.734375"/><stop stop-opacity="1" stop-color="rgb(100%, 63.264465%, 31.938171%)" offset="0.742188"/><stop stop-opacity="1" stop-color="rgb(100%, 62.971497%, 31.858826%)" offset="0.75"/><stop stop-opacity="1" stop-color="rgb(100%, 62.628174%, 31.764221%)" offset="0.765625"/><stop stop-opacity="1" stop-color="rgb(100%, 62.335205%, 31.68335%)" offset="0.777344"/><stop stop-opacity="1" stop-color="rgb(100%, 62.04071%, 31.604004%)" offset="0.789062"/><stop stop-opacity="1" stop-color="rgb(100%, 61.746216%, 31.523132%)" offset="0.800781"/><stop stop-opacity="1" stop-color="rgb(100%, 61.453247%, 31.443787%)" offset="0.8125"/><stop stop-opacity="1" stop-color="rgb(100%, 61.209106%, 31.376648%)" offset="0.824219"/><stop stop-opacity="1" stop-color="rgb(100%, 61.012268%, 31.323242%)" offset="0.832031"/><stop stop-opacity="1" stop-color="rgb(100%, 60.816956%, 31.268311%)" offset="0.839844"/><stop stop-opacity="1" stop-color="rgb(100%, 60.620117%, 31.214905%)" offset="0.847656"/><stop stop-opacity="1" stop-color="rgb(100%, 60.327148%, 31.135559%)" offset="0.855469"/><stop stop-opacity="1" stop-color="rgb(100%, 60.032654%, 31.054688%)" offset="0.871094"/><stop stop-opacity="1" stop-color="rgb(100%, 59.788513%, 30.987549%)" offset="0.878906"/><stop stop-opacity="1" stop-color="rgb(100%, 59.494019%, 30.908203%)" offset="0.890625"/><stop stop-opacity="1" stop-color="rgb(100%, 59.20105%, 30.827332%)" offset="0.902344"/><stop stop-opacity="1" stop-color="rgb(100%, 58.955383%, 30.760193%)" offset="0.914062"/><stop stop-opacity="1" stop-color="rgb(100%, 58.760071%, 30.706787%)" offset="0.921875"/><stop stop-opacity="1" stop-color="rgb(100%, 58.563232%, 30.653381%)" offset="0.929688"/><stop stop-opacity="1" stop-color="rgb(100%, 58.270264%, 30.574036%)" offset="0.9375"/><stop stop-opacity="1" stop-color="rgb(100%, 57.926941%, 30.479431%)" offset="0.953125"/><stop stop-opacity="1" stop-color="rgb(100%, 57.6828%, 30.412292%)" offset="0.964844"/><stop stop-opacity="1" stop-color="rgb(100%, 57.437134%, 30.34668%)" offset="0.972656"/><stop stop-opacity="1" stop-color="rgb(100%, 57.192993%, 30.279541%)" offset="0.984375"/><stop stop-opacity="1" stop-color="rgb(100%, 56.996155%, 30.224609%)" offset="0.992188"/><stop stop-opacity="1" stop-color="rgb(100%, 56.898499%, 30.198669%)" offset="1"/></radialGradient><clipPath id="eb5342b6b2"><path d="M 373 105 L 511 105 L 511 194 L 373 194 Z M 373 105 " clip-rule="nonzero"/></clipPath><clipPath id="ce836849e3"><path d="M 414.464844 -86.761719 L 1008.027344 303.289062 L 617.976562 896.851562 L 24.414062 506.796875 Z M 414.464844 -86.761719 " clip-rule="nonzero"/></clipPath><clipPath id="6b6c6f14d4"><path d="M 414.464844 -86.761719 L 1008.027344 303.289062 L 617.976562 896.851562 L 24.414062 506.796875 Z M 414.464844 -86.761719 " clip-rule="nonzero"/></clipPath><clipPath id="2de863d0fd"><path d="M 307 192 L 345 192 L 345 234 L 307 234 Z M 307 192 " clip-rule="nonzero"/></clipPath><clipPath id="68269c0fcf"><path d="M 414.464844 -86.761719 L 1008.027344 303.289062 L 617.976562 896.851562 L 24.414062 506.796875 Z M 414.464844 -86.761719 " clip-rule="nonzero"/></clipPath><clipPath id="120480e5f6"><path d="M 414.464844 -86.761719 L 1008.027344 303.289062 L 617.976562 896.851562 L 24.414062 506.796875 Z M 414.464844 -86.761719 " clip-rule="nonzero"/></clipPath><clipPath id="aba5196b0c"><path d="M 55 34 L 947 34 L 947 810 L 55 810 Z M 55 34 " clip-rule="nonzero"/></clipPath><clipPath id="a0d3028d5f"><path d="M 414.464844 -86.761719 L 1008.027344 303.289062 L 617.976562 896.851562 L 24.414062 506.796875 Z M 414.464844 -86.761719 " clip-rule="nonzero"/></clipPath><clipPath id="f32bf7fce0"><path d="M 414.464844 -86.761719 L 1008.027344 303.289062 L 617.976562 896.851562 L 24.414062 506.796875 Z M 414.464844 -86.761719 " clip-rule="nonzero"/></clipPath><mask id="9e5bc2bec5"><g filter="url(#d01d46ad16)"><rect x="-144" width="1728" fill="#000000" y="-80.999999" height="971.999992" fill-opacity="0.2157"/></g></mask><clipPath id="96f748167c"><path d="M 107 318 L 817 318 L 817 726 L 107 726 Z M 107 318 " clip-rule="nonzero"/></clipPath><clipPath id="6837b34c01"><path d="M 359.464844 -120.761719 L 953.027344 269.289062 L 562.976562 862.851562 L -30.585938 472.796875 Z M 359.464844 -120.761719 " clip-rule="nonzero"/></clipPath><clipPath id="ed676acf4b"><path d="M 359.464844 -120.761719 L 953.027344 269.289062 L 562.976562 862.851562 L -30.585938 472.796875 Z M 359.464844 -120.761719 " clip-rule="nonzero"/></clipPath><clipPath id="545a534b99"><path d="M 3.722656 494.191406 L 562.699219 861.519531 L 887.214844 367.6875 L 328.238281 0.363281 Z M 3.722656 494.191406 " clip-rule="nonzero"/></clipPath><clipPath id="4901fc618b"><rect x="0" width="892" y="0" height="776"/></clipPath><clipPath id="ba482a3585"><path d="M 24.453125 47.667969 L 917.703125 47.667969 L 917.703125 762.417969 L 24.453125 762.417969 Z M 24.453125 47.667969 " clip-rule="nonzero"/></clipPath></defs><g clip-path="url(#96691ad2e7)"><g clip-path="url(#4162602687)"><g clip-path="url(#e3bcaff728)"><g clip-path="url(#42a5b87f86)"><path fill="url(#a1213a84a4)" d="M 19.332031 61.140625 L 859.667969 -92.734375 L 1013.542969 747.613281 L 173.207031 901.488281 Z M 19.332031 61.140625 " fill-rule="nonzero"/></g></g></g></g><g clip-path="url(#eb5342b6b2)"><g clip-path="url(#ce836849e3)"><g clip-path="url(#6b6c6f14d4)"><path fill="#fad4ad" d="M 487.058594 112.953125 C 525.140625 140.277344 517.734375 162.660156 464.816406 180.097656 C 407.457031 198.441406 377.105469 197.3125 373.769531 176.699219 C 370.441406 158.386719 383.582031 140.144531 413.179688 121.984375 C 444.019531 103.09375 468.636719 100.085938 487.058594 112.953125 Z M 487.058594 112.953125 " fill-opacity="1" fill-rule="evenodd"/></g></g></g><g clip-path="url(#2de863d0fd)"><g clip-path="url(#68269c0fcf)"><g clip-path="url(#120480e5f6)"><path fill="#fad4ad" d="M 339.460938 195.609375 C 348.238281 204.441406 346.339844 214.339844 333.785156 225.277344 C 321.234375 236.210938 312.960938 236.535156 308.96875 226.242188 C 305.355469 217.71875 307.957031 209.0625 316.804688 200.296875 C 326.183594 191.878906 333.738281 190.304688 339.460938 195.609375 Z M 339.460938 195.609375 " fill-opacity="1" fill-rule="evenodd"/></g></g></g><g clip-path="url(#aba5196b0c)"><g clip-path="url(#a0d3028d5f)"><g clip-path="url(#f32bf7fce0)"><g mask="url(#9e5bc2bec5)"><g transform="matrix(1, 0, 0, 1, 55, 34)"><g clip-path="url(#4901fc618b)"><g clip-path="url(#96f748167c)"><g clip-path="url(#6837b34c01)"><g clip-path="url(#ed676acf4b)"><g clip-path="url(#545a534b99)"><path fill="#ffbd59" d="M 812.417969 318.535156 C 825.632812 407.074219 807.40625 489.136719 757.726562 564.738281 C 704.164062 646.242188 629.230469 697.1875 532.917969 717.574219 C 436.957031 737.429688 348.214844 720.570312 266.722656 667.019531 C 210.425781 630.023438 168.113281 581.097656 139.761719 520.25 C 112.671875 460.992188 102.394531 398.960938 108.898438 334.140625 C 115.8125 383.203125 132.480469 429.09375 158.925781 471.808594 C 186.085938 515.753906 221.386719 552.007812 264.816406 580.546875 C 346.851562 634.457031 435.851562 651.484375 531.816406 631.632812 C 627.230469 611.417969 701.738281 560.558594 755.289062 479.070312 C 788.058594 429.203125 807.105469 375.6875 812.417969 318.535156 Z M 812.417969 318.535156 " fill-opacity="1" fill-rule="evenodd"/></g></g></g></g></g></g></g></g></g></g><path fill="#004aad" d="M 902.8125 747.527344 L 39.339844 747.527344 L 39.339844 658.183594 L 902.8125 658.183594 L 902.8125 747.527344 " fill-opacity="1" fill-rule="nonzero"/><path fill="#04387d" d="M 217.988281 658.183594 L 98.890625 658.183594 L 98.890625 598.621094 L 217.988281 598.621094 L 217.988281 658.183594 " fill-opacity="1" fill-rule="nonzero"/><path fill="#004aad" d="M 203.101562 598.621094 L 113.777344 598.621094 L 128.664062 211.464844 L 188.214844 211.464844 L 203.101562 598.621094 " fill-opacity="1" fill-rule="nonzero"/><path fill="#04387d" d="M 188.214844 211.464844 L 128.664062 211.464844 C 112.207031 211.464844 98.890625 198.144531 98.890625 181.683594 L 98.890625 151.902344 L 217.988281 151.902344 L 217.988281 181.683594 C 217.988281 198.144531 204.671875 211.464844 188.214844 211.464844 " fill-opacity="1" fill-rule="nonzero"/><path fill="#04387d" d="M 426.414062 658.183594 L 307.3125 658.183594 L 307.3125 598.621094 L 426.414062 598.621094 L 426.414062 658.183594 " fill-opacity="1" fill-rule="nonzero"/><path fill="#004aad" d="M 411.527344 598.621094 L 322.203125 598.621094 L 337.089844 211.464844 L 396.640625 211.464844 L 411.527344 598.621094 " fill-opacity="1" fill-rule="nonzero"/><path fill="#04387d" d="M 396.640625 211.464844 L 337.089844 211.464844 C 320.632812 211.464844 307.3125 198.144531 307.3125 181.683594 L 307.3125 151.902344 L 426.414062 151.902344 L 426.414062 181.683594 C 426.414062 198.144531 413.097656 211.464844 396.640625 211.464844 " fill-opacity="1" fill-rule="nonzero"/><path fill="#04387d" d="M 634.839844 658.183594 L 515.738281 658.183594 L 515.738281 598.621094 L 634.839844 598.621094 L 634.839844 658.183594 " fill-opacity="1" fill-rule="nonzero"/><path fill="#04387d" d="M 843.265625 658.183594 L 724.164062 658.183594 L 724.164062 598.621094 L 843.265625 598.621094 L 843.265625 658.183594 " fill-opacity="1" fill-rule="nonzero"/><path fill="#004aad" d="M 545.515625 345.480469 L 530.625 598.621094 L 619.953125 598.621094 L 605.0625 390.152344 L 575.289062 375.261719 L 545.515625 345.480469 " fill-opacity="1" fill-rule="nonzero"/><path fill="#004aad" d="M 783.714844 434.824219 L 753.9375 464.605469 L 739.050781 598.621094 L 828.375 598.621094 L 822.621094 449.714844 L 783.714844 434.824219 " fill-opacity="1" fill-rule="nonzero"/><path fill="#004aad" d="M 39.339844 151.902344 L 500.851562 151.902344 L 456.1875 107.230469 L 456.1875 62.558594 L 396.640625 62.558594 L 366.863281 92.339844 L 322.203125 62.558594 L 39.339844 62.558594 L 39.339844 151.902344 " fill-opacity="1" fill-rule="nonzero"/><g clip-path="url(#ba482a3585)"><path fill="#04387d" d="M 887.925781 732.636719 L 54.226562 732.636719 L 54.226562 673.074219 L 887.925781 673.074219 Z M 188.214844 196.574219 L 128.664062 196.574219 C 120.464844 196.574219 113.777344 189.886719 113.777344 181.683594 L 113.777344 166.792969 L 203.101562 166.792969 L 203.101562 181.683594 C 203.101562 189.886719 196.414062 196.574219 188.214844 196.574219 Z M 129.246094 583.730469 L 142.96875 226.355469 L 173.90625 226.355469 L 187.632812 583.730469 Z M 203.101562 613.511719 L 203.101562 643.292969 L 113.777344 643.292969 L 113.777344 613.511719 Z M 217.988281 583.730469 L 217.40625 583.730469 L 203.566406 223.449219 C 220.605469 217.167969 232.875 200.878906 232.875 181.683594 L 232.875 166.792969 L 292.425781 166.792969 L 292.425781 181.683594 C 292.425781 200.878906 304.695312 217.167969 321.738281 223.449219 L 307.894531 583.730469 L 307.3125 583.730469 C 299.113281 583.730469 292.425781 590.421875 292.425781 598.621094 L 292.425781 643.292969 L 232.875 643.292969 L 232.875 598.621094 C 232.875 590.421875 226.1875 583.730469 217.988281 583.730469 Z M 396.640625 196.574219 L 337.089844 196.574219 C 328.890625 196.574219 322.203125 189.886719 322.203125 181.683594 L 322.203125 166.792969 L 411.527344 166.792969 L 411.527344 181.683594 C 411.527344 189.886719 404.839844 196.574219 396.640625 196.574219 Z M 411.527344 613.511719 L 411.527344 643.292969 L 322.203125 643.292969 L 322.203125 613.511719 Z M 342.960938 445.644531 L 351.394531 226.355469 L 382.332031 226.355469 L 393.964844 529.230469 L 362.152344 539.816406 L 371.574219 568.085938 L 395.183594 560.175781 L 396.058594 583.730469 L 337.671875 583.730469 L 341.625 480.601562 L 358.605469 491.886719 L 375.121094 467.109375 Z M 54.226562 137.011719 L 54.226562 77.449219 L 117.964844 77.449219 L 129.421875 111.941406 L 157.683594 102.519531 L 149.308594 77.449219 L 317.722656 77.449219 L 358.605469 104.730469 C 364.480469 108.6875 372.332031 107.871094 377.390625 102.867188 L 402.804688 77.449219 L 441.300781 77.449219 L 441.300781 107.230469 C 441.300781 111.1875 442.871094 114.96875 445.664062 117.757812 L 464.914062 137.011719 L 275.5625 137.011719 L 289.925781 115.492188 L 265.152344 98.972656 L 239.796875 137.011719 Z M 530.625 613.511719 L 619.953125 613.511719 L 619.953125 643.292969 L 530.625 643.292969 Z M 548.480469 548.832031 L 580 538.304688 L 570.578125 510.035156 L 550.339844 516.78125 L 558.425781 379.449219 L 564.761719 385.789062 C 565.867188 386.894531 567.207031 387.886719 568.601562 388.582031 L 590.816406 399.691406 L 603.960938 583.730469 L 546.386719 583.730469 Z M 739.050781 613.511719 L 828.375 613.511719 L 828.375 643.292969 L 739.050781 643.292969 Z M 768.1875 471.46875 L 787.4375 452.160156 L 808.140625 460.128906 L 809.765625 502.296875 L 788.425781 495.144531 L 779.003906 523.414062 L 810.988281 534.058594 L 812.90625 583.730469 L 755.683594 583.730469 Z M 902.8125 643.292969 L 858.152344 643.292969 L 858.152344 598.621094 C 858.152344 590.421875 851.464844 583.730469 843.265625 583.730469 L 842.683594 583.730469 L 837.507812 449.132812 C 837.273438 443.203125 833.550781 437.964844 827.96875 435.8125 L 789.007812 420.921875 C 783.539062 418.769531 777.375 420.167969 773.1875 424.296875 L 743.414062 454.078125 C 741.027344 456.464844 739.515625 459.605469 739.167969 462.976562 L 725.734375 583.730469 L 724.164062 583.730469 C 715.964844 583.730469 709.277344 590.421875 709.277344 598.621094 L 709.277344 643.292969 L 649.726562 643.292969 L 649.726562 598.621094 C 649.726562 590.421875 643.039062 583.730469 634.839844 583.730469 L 633.792969 583.730469 L 619.894531 389.105469 C 619.542969 383.871094 616.402344 379.21875 611.75 376.832031 L 584.128906 362.988281 L 556.039062 334.953125 C 551.851562 330.824219 545.6875 329.484375 540.222656 331.578125 C 534.753906 333.671875 530.976562 338.734375 530.683594 344.609375 L 516.613281 583.730469 L 515.738281 583.730469 C 507.539062 583.730469 500.851562 590.421875 500.851562 598.621094 L 500.851562 643.292969 L 441.300781 643.292969 L 441.300781 598.621094 C 441.300781 590.421875 434.613281 583.730469 426.414062 583.730469 L 425.832031 583.730469 L 411.992188 223.449219 C 429.03125 217.167969 441.300781 200.878906 441.300781 181.683594 L 441.300781 166.792969 L 500.851562 166.792969 C 506.898438 166.792969 512.308594 163.1875 514.574219 157.605469 C 516.902344 152.019531 515.621094 145.621094 511.378906 141.375 L 471.078125 101.066406 L 471.078125 62.558594 C 471.078125 54.359375 464.390625 47.667969 456.1875 47.667969 L 396.640625 47.667969 C 392.683594 47.667969 388.90625 49.238281 386.113281 52.03125 L 364.945312 73.203125 L 330.460938 50.171875 C 328.015625 48.542969 325.167969 47.667969 322.203125 47.667969 L 39.339844 47.667969 C 31.140625 47.667969 24.453125 54.359375 24.453125 62.558594 L 24.453125 151.902344 C 24.453125 160.105469 31.140625 166.792969 39.339844 166.792969 L 84 166.792969 L 84 181.683594 C 84 200.878906 96.273438 217.167969 113.3125 223.449219 L 99.46875 583.730469 L 98.890625 583.730469 C 90.6875 583.730469 84 590.421875 84 598.621094 L 84 643.292969 L 39.339844 643.292969 C 31.140625 643.292969 24.453125 649.984375 24.453125 658.183594 L 24.453125 747.527344 C 24.453125 755.730469 31.140625 762.417969 39.339844 762.417969 L 902.8125 762.417969 C 911.015625 762.417969 917.703125 755.730469 917.703125 747.527344 L 917.703125 658.183594 C 917.703125 649.984375 911.015625 643.292969 902.8125 643.292969 " fill-opacity="1" fill-rule="nonzero"/></g><g fill="#ff914d" fill-opacity="1"><g transform="translate(823.40053, 215.695336)"><g><path d="M 36.640625 -7.84375 C 39.785156 -7.84375 42.078125 -8.382812 43.515625 -9.46875 C 44.960938 -10.5625 45.6875 -12.367188 45.6875 -14.890625 C 45.6875 -17.285156 44.863281 -18.96875 43.21875 -19.9375 C 41.582031 -20.914062 39.300781 -21.40625 36.375 -21.40625 L 16.359375 -21.40625 L 16.359375 -7.84375 Z M 38.296875 -29.265625 C 40.023438 -29.265625 41.429688 -29.769531 42.515625 -30.78125 C 43.609375 -31.800781 44.15625 -33.175781 44.15625 -34.90625 C 44.15625 -37.039062 43.664062 -38.515625 42.6875 -39.328125 C 41.71875 -40.148438 40.015625 -40.5625 37.578125 -40.5625 L 16.359375 -40.5625 L 16.359375 -29.265625 Z M 37.375 -48.40625 C 39.5 -48.40625 41.523438 -48.207031 43.453125 -47.8125 C 45.378906 -47.414062 47.070312 -46.726562 48.53125 -45.75 C 50 -44.769531 51.164062 -43.445312 52.03125 -41.78125 C 52.894531 -40.125 53.328125 -38.007812 53.328125 -35.4375 C 53.328125 -33.226562 52.785156 -31.269531 51.703125 -29.5625 C 50.617188 -27.851562 48.945312 -26.445312 46.6875 -25.34375 C 49.613281 -24.007812 51.75 -22.363281 53.09375 -20.40625 C 54.445312 -18.457031 55.125 -16.15625 55.125 -13.5 C 55.125 -11.144531 54.691406 -9.125 53.828125 -7.4375 C 52.960938 -5.757812 51.796875 -4.363281 50.328125 -3.25 C 48.867188 -2.144531 47.164062 -1.328125 45.21875 -0.796875 C 43.269531 -0.265625 41.207031 0 39.03125 0 L 5.046875 0 L 5.046875 -0.9375 C 5.804688 -0.9375 6.304688 -1.078125 6.546875 -1.359375 C 6.796875 -1.648438 6.921875 -2.128906 6.921875 -2.796875 L 6.921875 -45.546875 C 6.921875 -46.253906 6.804688 -46.753906 6.578125 -47.046875 C 6.359375 -47.335938 5.847656 -47.484375 5.046875 -47.484375 L 5.046875 -48.40625 Z M 37.375 -48.40625 "/></g></g></g><g fill="#ff914d" fill-opacity="1"><g transform="translate(882.512042, 215.695336)"><g><path d="M 20.546875 -20.34375 L 36.375 -20.34375 L 28.390625 -37.765625 Z M 36.25 -48.40625 L 36.25 -47.484375 C 35.3125 -47.347656 34.84375 -47.015625 34.84375 -46.484375 C 34.84375 -46.128906 34.953125 -45.738281 35.171875 -45.3125 C 35.398438 -44.894531 35.625 -44.421875 35.84375 -43.890625 L 54.734375 -3.453125 C 55.171875 -2.523438 55.519531 -1.875 55.78125 -1.5 C 56.050781 -1.125 56.566406 -0.9375 57.328125 -0.9375 L 57.328125 0 L 44.09375 0 L 44.09375 -0.9375 C 44.882812 -0.9375 45.28125 -1.15625 45.28125 -1.59375 C 45.28125 -1.8125 45.191406 -2.144531 45.015625 -2.59375 C 44.835938 -3.039062 44.59375 -3.570312 44.28125 -4.1875 L 40.234375 -12.765625 L 17.421875 -12.765625 C 16.441406 -10.597656 15.640625 -8.847656 15.015625 -7.515625 C 14.398438 -6.179688 13.914062 -5.160156 13.5625 -4.453125 C 13.25 -3.835938 13.003906 -3.316406 12.828125 -2.890625 C 12.648438 -2.472656 12.5625 -2.148438 12.5625 -1.921875 C 12.5625 -1.347656 12.894531 -1.019531 13.5625 -0.9375 L 13.5625 0 L 1.734375 0 L 1.734375 -0.9375 C 2.441406 -0.976562 2.9375 -1.1875 3.21875 -1.5625 C 3.507812 -1.9375 3.851562 -2.566406 4.25 -3.453125 L 22.40625 -44.28125 C 22.582031 -44.644531 22.75 -45.003906 22.90625 -45.359375 C 23.0625 -45.710938 23.140625 -46.019531 23.140625 -46.28125 C 23.140625 -46.945312 22.675781 -47.347656 21.75 -47.484375 L 21.75 -48.40625 Z M 36.25 -48.40625 "/></g></g></g><g fill="#ff914d" fill-opacity="1"><g transform="translate(941.623553, 215.695336)"><g><path d="M 18.484375 -48.40625 L 18.484375 -47.484375 C 17.597656 -47.484375 17.039062 -47.328125 16.8125 -47.015625 C 16.59375 -46.703125 16.484375 -46.191406 16.484375 -45.484375 L 16.484375 -7.84375 L 47.21875 -7.84375 C 48.71875 -7.84375 49.46875 -8.375 49.46875 -9.4375 L 50.40625 -9.4375 L 50.40625 1.46875 L 49.46875 1.46875 C 49.46875 0.488281 48.71875 0 47.21875 0 L 5.3125 0 L 5.3125 -0.9375 C 6.070312 -0.9375 6.550781 -1.078125 6.75 -1.359375 C 6.945312 -1.648438 7.046875 -2.171875 7.046875 -2.921875 L 7.046875 -45.484375 C 7.046875 -46.191406 6.945312 -46.703125 6.75 -47.015625 C 6.550781 -47.328125 6.070312 -47.484375 5.3125 -47.484375 L 5.3125 -48.40625 Z M 18.484375 -48.40625 "/></g></g></g><g fill="#ff914d" fill-opacity="1"><g transform="translate(993.354439, 215.695336)"><g><path d="M 18.484375 -48.40625 L 18.484375 -47.484375 C 17.597656 -47.484375 17.039062 -47.328125 16.8125 -47.015625 C 16.59375 -46.703125 16.484375 -46.191406 16.484375 -45.484375 L 16.484375 -7.84375 L 47.21875 -7.84375 C 48.71875 -7.84375 49.46875 -8.375 49.46875 -9.4375 L 50.40625 -9.4375 L 50.40625 1.46875 L 49.46875 1.46875 C 49.46875 0.488281 48.71875 0 47.21875 0 L 5.3125 0 L 5.3125 -0.9375 C 6.070312 -0.9375 6.550781 -1.078125 6.75 -1.359375 C 6.945312 -1.648438 7.046875 -2.171875 7.046875 -2.921875 L 7.046875 -45.484375 C 7.046875 -46.191406 6.945312 -46.703125 6.75 -47.015625 C 6.550781 -47.328125 6.070312 -47.484375 5.3125 -47.484375 L 5.3125 -48.40625 Z M 18.484375 -48.40625 "/></g></g></g><g fill="#ff914d" fill-opacity="1"><g transform="translate(1045.085325, 215.695336)"><g><path d="M 13.09375 -24.203125 C 13.09375 -21.453125 13.554688 -19.023438 14.484375 -16.921875 C 15.421875 -14.816406 16.707031 -13.039062 18.34375 -11.59375 C 19.988281 -10.15625 21.929688 -9.0625 24.171875 -8.3125 C 26.410156 -7.5625 28.816406 -7.1875 31.390625 -7.1875 C 34.085938 -7.1875 36.566406 -7.582031 38.828125 -8.375 C 41.097656 -9.175781 43.03125 -10.304688 44.625 -11.765625 C 46.21875 -13.234375 47.457031 -15.019531 48.34375 -17.125 C 49.226562 -19.226562 49.671875 -21.585938 49.671875 -24.203125 C 49.671875 -26.867188 49.21875 -29.253906 48.3125 -31.359375 C 47.40625 -33.460938 46.140625 -35.242188 44.515625 -36.703125 C 42.898438 -38.171875 40.960938 -39.289062 38.703125 -40.0625 C 36.441406 -40.84375 33.984375 -41.234375 31.328125 -41.234375 C 28.796875 -41.234375 26.421875 -40.851562 24.203125 -40.09375 C 21.984375 -39.34375 20.050781 -38.242188 18.40625 -36.796875 C 16.769531 -35.359375 15.472656 -33.578125 14.515625 -31.453125 C 13.566406 -29.328125 13.09375 -26.910156 13.09375 -24.203125 Z M 31.390625 -49.078125 C 35.242188 -49.078125 38.851562 -48.53125 42.21875 -47.4375 C 45.59375 -46.351562 48.53125 -44.757812 51.03125 -42.65625 C 53.539062 -40.550781 55.515625 -37.96875 56.953125 -34.90625 C 58.398438 -31.851562 59.125 -28.351562 59.125 -24.40625 C 59.125 -20.144531 58.359375 -16.441406 56.828125 -13.296875 C 55.296875 -10.148438 53.265625 -7.546875 50.734375 -5.484375 C 48.210938 -3.421875 45.285156 -1.878906 41.953125 -0.859375 C 38.628906 0.160156 35.175781 0.671875 31.59375 0.671875 C 27.507812 0.671875 23.757812 0.109375 20.34375 -1.015625 C 16.9375 -2.148438 13.988281 -3.78125 11.5 -5.90625 C 9.019531 -8.039062 7.09375 -10.632812 5.71875 -13.6875 C 4.34375 -16.75 3.65625 -20.1875 3.65625 -24 C 3.65625 -28.164062 4.394531 -31.8125 5.875 -34.9375 C 7.363281 -38.070312 9.367188 -40.691406 11.890625 -42.796875 C 14.421875 -44.898438 17.359375 -46.472656 20.703125 -47.515625 C 24.054688 -48.554688 27.617188 -49.078125 31.390625 -49.078125 Z M 31.390625 -49.078125 "/></g></g></g><g fill="#ff914d" fill-opacity="1"><g transform="translate(1107.8539, 215.695336)"><g><path d="M 36.96875 -28.734375 C 39.40625 -28.734375 41.113281 -29.140625 42.09375 -29.953125 C 43.070312 -30.773438 43.5625 -32.335938 43.5625 -34.640625 C 43.5625 -36.953125 43.070312 -38.515625 42.09375 -39.328125 C 41.113281 -40.148438 39.429688 -40.5625 37.046875 -40.5625 L 16.625 -40.5625 L 16.625 -28.734375 Z M 37.3125 -48.40625 C 39.613281 -48.40625 41.726562 -48.128906 43.65625 -47.578125 C 45.582031 -47.023438 47.242188 -46.171875 48.640625 -45.015625 C 50.035156 -43.867188 51.109375 -42.429688 51.859375 -40.703125 C 52.617188 -38.972656 53 -36.953125 53 -34.640625 C 53 -29.859375 51.664062 -26.367188 49 -24.171875 C 46.34375 -21.972656 42.421875 -20.875 37.234375 -20.875 L 16.625 -20.875 L 16.625 -2.859375 C 16.625 -2.148438 16.734375 -1.648438 16.953125 -1.359375 C 17.179688 -1.078125 17.691406 -0.9375 18.484375 -0.9375 L 18.484375 0 L 5.3125 0 L 5.3125 -0.9375 C 6.070312 -0.9375 6.570312 -1.078125 6.8125 -1.359375 C 7.0625 -1.648438 7.1875 -2.148438 7.1875 -2.859375 L 7.1875 -45.546875 C 7.1875 -46.253906 7.070312 -46.753906 6.84375 -47.046875 C 6.625 -47.335938 6.113281 -47.484375 5.3125 -47.484375 L 5.3125 -48.40625 Z M 37.3125 -48.40625 "/></g></g></g><g fill="#ff914d" fill-opacity="1"><g transform="translate(1163.241836, 215.695336)"><g><path d="M 13.09375 -24.203125 C 13.09375 -21.453125 13.554688 -19.023438 14.484375 -16.921875 C 15.421875 -14.816406 16.707031 -13.039062 18.34375 -11.59375 C 19.988281 -10.15625 21.929688 -9.0625 24.171875 -8.3125 C 26.410156 -7.5625 28.816406 -7.1875 31.390625 -7.1875 C 34.085938 -7.1875 36.566406 -7.582031 38.828125 -8.375 C 41.097656 -9.175781 43.03125 -10.304688 44.625 -11.765625 C 46.21875 -13.234375 47.457031 -15.019531 48.34375 -17.125 C 49.226562 -19.226562 49.671875 -21.585938 49.671875 -24.203125 C 49.671875 -26.867188 49.21875 -29.253906 48.3125 -31.359375 C 47.40625 -33.460938 46.140625 -35.242188 44.515625 -36.703125 C 42.898438 -38.171875 40.960938 -39.289062 38.703125 -40.0625 C 36.441406 -40.84375 33.984375 -41.234375 31.328125 -41.234375 C 28.796875 -41.234375 26.421875 -40.851562 24.203125 -40.09375 C 21.984375 -39.34375 20.050781 -38.242188 18.40625 -36.796875 C 16.769531 -35.359375 15.472656 -33.578125 14.515625 -31.453125 C 13.566406 -29.328125 13.09375 -26.910156 13.09375 -24.203125 Z M 31.390625 -49.078125 C 35.242188 -49.078125 38.851562 -48.53125 42.21875 -47.4375 C 45.59375 -46.351562 48.53125 -44.757812 51.03125 -42.65625 C 53.539062 -40.550781 55.515625 -37.96875 56.953125 -34.90625 C 58.398438 -31.851562 59.125 -28.351562 59.125 -24.40625 C 59.125 -20.144531 58.359375 -16.441406 56.828125 -13.296875 C 55.296875 -10.148438 53.265625 -7.546875 50.734375 -5.484375 C 48.210938 -3.421875 45.285156 -1.878906 41.953125 -0.859375 C 38.628906 0.160156 35.175781 0.671875 31.59375 0.671875 C 27.507812 0.671875 23.757812 0.109375 20.34375 -1.015625 C 16.9375 -2.148438 13.988281 -3.78125 11.5 -5.90625 C 9.019531 -8.039062 7.09375 -10.632812 5.71875 -13.6875 C 4.34375 -16.75 3.65625 -20.1875 3.65625 -24 C 3.65625 -28.164062 4.394531 -31.8125 5.875 -34.9375 C 7.363281 -38.070312 9.367188 -40.691406 11.890625 -42.796875 C 14.421875 -44.898438 17.359375 -46.472656 20.703125 -47.515625 C 24.054688 -48.554688 27.617188 -49.078125 31.390625 -49.078125 Z M 31.390625 -49.078125 "/></g></g></g><g fill="#ff914d" fill-opacity="1"><g transform="translate(1226.010434, 215.695336)"><g><path d="M 18.484375 -48.40625 L 18.484375 -47.484375 C 17.597656 -47.484375 17.039062 -47.328125 16.8125 -47.015625 C 16.59375 -46.703125 16.484375 -46.191406 16.484375 -45.484375 L 16.484375 -7.84375 L 47.21875 -7.84375 C 48.71875 -7.84375 49.46875 -8.375 49.46875 -9.4375 L 50.40625 -9.4375 L 50.40625 1.46875 L 49.46875 1.46875 C 49.46875 0.488281 48.71875 0 47.21875 0 L 5.3125 0 L 5.3125 -0.9375 C 6.070312 -0.9375 6.550781 -1.078125 6.75 -1.359375 C 6.945312 -1.648438 7.046875 -2.171875 7.046875 -2.921875 L 7.046875 -45.484375 C 7.046875 -46.191406 6.945312 -46.703125 6.75 -47.015625 C 6.550781 -47.328125 6.070312 -47.484375 5.3125 -47.484375 L 5.3125 -48.40625 Z M 18.484375 -48.40625 "/></g></g></g><g fill="#ff914d" fill-opacity="1"><g transform="translate(1277.741296, 215.695336)"><g><path d="M 20.078125 -48.40625 L 20.078125 -47.484375 C 19.054688 -47.484375 18.390625 -47.347656 18.078125 -47.078125 C 17.773438 -46.816406 17.625 -46.285156 17.625 -45.484375 L 17.625 -2.796875 C 17.625 -2.035156 17.8125 -1.535156 18.1875 -1.296875 C 18.5625 -1.054688 19.191406 -0.9375 20.078125 -0.9375 L 20.078125 0 L 5.78125 0 L 5.78125 -0.9375 C 6.664062 -0.9375 7.285156 -1.054688 7.640625 -1.296875 C 7.992188 -1.535156 8.171875 -2.035156 8.171875 -2.796875 L 8.171875 -45.484375 C 8.171875 -46.285156 8.023438 -46.816406 7.734375 -47.078125 C 7.453125 -47.347656 6.800781 -47.484375 5.78125 -47.484375 L 5.78125 -48.40625 Z M 20.078125 -48.40625 "/></g></g></g><g fill="#ff914d" fill-opacity="1"><g transform="translate(1303.606728, 215.695336)"><g><path d="M 28.65625 -49.078125 C 31.625 -49.078125 34.503906 -48.765625 37.296875 -48.140625 C 40.097656 -47.523438 42.71875 -46.707031 45.15625 -45.6875 C 45.90625 -45.375 46.691406 -45.015625 47.515625 -44.609375 C 48.335938 -44.210938 48.925781 -44.015625 49.28125 -44.015625 C 49.71875 -44.015625 50.050781 -44.171875 50.28125 -44.484375 L 51.34375 -44.15625 L 46.21875 -34.1875 L 45.15625 -34.78125 C 45.238281 -35.132812 45.28125 -35.441406 45.28125 -35.703125 C 45.28125 -35.878906 44.90625 -36.28125 44.15625 -36.90625 C 43.40625 -37.53125 42.304688 -38.148438 40.859375 -38.765625 C 39.421875 -39.390625 37.632812 -39.957031 35.5 -40.46875 C 33.375 -40.976562 30.914062 -41.234375 28.125 -41.234375 C 23.34375 -41.234375 19.6875 -40.578125 17.15625 -39.265625 C 14.625 -37.960938 13.359375 -36.179688 13.359375 -33.921875 C 13.359375 -32.804688 13.722656 -31.945312 14.453125 -31.34375 C 15.191406 -30.75 16.269531 -30.304688 17.6875 -30.015625 C 19.101562 -29.734375 20.820312 -29.554688 22.84375 -29.484375 C 24.863281 -29.421875 27.179688 -29.390625 29.796875 -29.390625 C 33.117188 -29.390625 36.175781 -29.191406 38.96875 -28.796875 C 41.757812 -28.398438 44.148438 -27.664062 46.140625 -26.59375 C 48.140625 -25.53125 49.703125 -24.066406 50.828125 -22.203125 C 51.960938 -20.347656 52.53125 -17.9375 52.53125 -14.96875 C 52.53125 -12.613281 51.953125 -10.472656 50.796875 -8.546875 C 49.648438 -6.617188 47.976562 -4.96875 45.78125 -3.59375 C 43.59375 -2.21875 40.910156 -1.160156 37.734375 -0.421875 C 34.566406 0.304688 30.96875 0.671875 26.9375 0.671875 C 18.375 0.671875 11.546875 -0.789062 6.453125 -3.71875 C 5.429688 -4.25 4.832031 -4.515625 4.65625 -4.515625 C 4.382812 -4.515625 4.179688 -4.445312 4.046875 -4.3125 C 3.921875 -4.1875 3.789062 -4.078125 3.65625 -3.984375 L 2.796875 -4.1875 L 8.3125 -15.5 L 9.375 -14.96875 C 9.375 -14.832031 9.351562 -14.6875 9.3125 -14.53125 C 9.269531 -14.375 9.25 -14.140625 9.25 -13.828125 C 9.289062 -12.859375 9.804688 -11.960938 10.796875 -11.140625 C 11.796875 -10.316406 13.09375 -9.613281 14.6875 -9.03125 C 16.289062 -8.457031 18.109375 -8.003906 20.140625 -7.671875 C 22.179688 -7.347656 24.269531 -7.1875 26.40625 -7.1875 C 31.632812 -7.1875 35.632812 -7.816406 38.40625 -9.078125 C 41.175781 -10.335938 42.5625 -12.078125 42.5625 -14.296875 C 42.5625 -15.753906 42.101562 -16.882812 41.1875 -17.6875 C 40.28125 -18.488281 39.03125 -19.078125 37.4375 -19.453125 C 35.84375 -19.828125 33.925781 -20.054688 31.6875 -20.140625 C 29.445312 -20.234375 27 -20.300781 24.34375 -20.34375 C 21.144531 -20.394531 18.28125 -20.628906 15.75 -21.046875 C 13.226562 -21.460938 11.09375 -22.160156 9.34375 -23.140625 C 7.59375 -24.117188 6.25 -25.425781 5.3125 -27.0625 C 4.382812 -28.707031 3.921875 -30.769531 3.921875 -33.25 C 3.921875 -35.863281 4.539062 -38.15625 5.78125 -40.125 C 7.019531 -42.101562 8.738281 -43.753906 10.9375 -45.078125 C 13.132812 -46.410156 15.75 -47.410156 18.78125 -48.078125 C 21.820312 -48.742188 25.113281 -49.078125 28.65625 -49.078125 Z M 28.65625 -49.078125 "/></g></g></g><g fill="#ff914d" fill-opacity="1"><g transform="translate(1358.994253, 303.445332)"><g/></g></g><path stroke-linecap="butt" transform="matrix(0.75, 0, 0, 0.75, 561.315746, 237.77683)" fill="none" stroke-linejoin="miter" d="M 163.922764 36.20902 L 176.235264 36.20902 L 170.412347 142.000692 L 163.922764 142.000692 L 163.922764 54.349645 L 133.339429 99.365273 L 124.599845 99.365273 L 94.01651 54.349645 L 94.01651 142.000692 L 87.526926 142.000692 L 81.698801 36.20902 L 94.01651 36.20902 L 128.969637 92.214231 Z M 249.719643 36.20902 L 289.308187 142.000692 L 282.818603 142.000692 L 269.183186 110.354857 L 218.073808 110.354857 L 204.438391 142.000692 L 197.948807 142.000692 L 237.537351 36.20902 Z M 243.625893 50.776729 L 219.532141 106.78194 L 267.724852 106.78194 Z M 311.016521 36.20902 L 386.089441 36.20902 L 329.026939 138.422566 L 380.266524 138.422566 L 379.605066 142.000692 L 320.417563 142.000692 L 371.922774 39.787145 L 311.677979 39.787145 Z M 474.006113 142.000692 L 413.631109 142.000692 L 407.802984 36.20902 L 482.61028 36.20902 L 481.948821 39.787145 L 420.115485 39.787145 L 420.115485 87.18298 L 478.636321 87.18298 L 477.974863 90.761106 L 420.115485 90.761106 L 420.115485 138.422566 L 474.667571 138.422566 Z M 567.214451 142.000692 L 561.386325 36.20902 L 598.59466 36.20902 C 610.683203 36.20902 620.084245 38.24027 626.792579 42.30277 C 633.500912 46.360062 636.594662 53.511104 636.063412 63.750688 C 635.620704 72.844438 632.089454 79.68298 625.469662 84.271522 C 623.089453 85.948605 620.438412 87.318397 617.526953 88.375689 L 628.38112 142.000692 L 621.896745 142.000692 L 608.521744 90.495481 C 605.787369 90.938189 602.875911 91.156939 599.782161 91.156939 L 573.698826 91.156939 L 573.698826 142.000692 Z M 573.698826 39.787145 L 573.698826 87.584022 L 593.823827 87.584022 C 603.006119 87.584022 610.552994 85.68298 616.469661 81.891314 C 622.38112 78.094438 625.339453 72.136105 625.339453 64.016313 C 625.339453 56.068396 623.089453 50.068395 618.584245 46.005895 C 614.084245 41.948603 607.417578 39.875686 598.59466 39.787145 Z M 669.954039 36.20902 L 667.042581 142.000692 L 660.422789 142.000692 L 657.776955 42.568395 C 657.865497 40.80277 658.547788 39.500686 659.829039 38.662145 C 661.10508 37.823603 662.610289 37.156936 664.329039 36.672561 C 666.052997 36.188186 667.927997 36.031936 669.954039 36.20902 Z M 752.573835 86.656939 C 752.573835 64.235063 748.93321 50.818395 741.651959 46.406937 C 734.370709 41.99027 726.579042 39.787145 718.282166 39.787145 L 703.985291 39.787145 L 703.985291 138.422566 L 714.573833 138.422566 C 727.375917 138.339233 736.907167 134.985066 743.172793 128.360066 C 749.443626 121.740274 752.573835 107.839232 752.573835 86.656939 Z M 762.110294 86.521522 C 760.87071 109.209023 756.766543 124.125691 749.792585 131.276733 C 742.823834 138.422566 733.068626 142.000692 720.532167 142.000692 L 697.365499 142.000692 L 691.802998 36.20902 L 720.532167 36.20902 C 733.860292 36.20902 744.412376 39.542353 752.178002 46.20902 C 759.943627 52.870479 763.256127 66.307979 762.110294 86.521522 Z M 850.683215 142.000692 L 790.308212 142.000692 L 784.480086 36.20902 L 859.287382 36.20902 L 858.625924 39.787145 L 796.797795 39.787145 L 796.797795 87.18298 L 855.318632 87.18298 L 854.657173 90.761106 L 796.797795 90.761106 L 796.797795 138.422566 L 851.344673 138.422566 Z M 886.959258 142.000692 L 881.136341 36.20902 L 918.339468 36.20902 C 930.433219 36.20902 939.834261 38.24027 946.542595 42.30277 C 953.250928 46.360062 956.33947 53.511104 955.80822 63.750688 C 955.37072 72.844438 951.83947 79.68298 945.219678 84.271522 C 942.834261 85.948605 940.188428 87.318397 937.271761 88.375689 L 948.131136 142.000692 L 941.641553 142.000692 L 928.27176 90.495481 C 925.532177 90.938189 922.620718 91.156939 919.532177 91.156939 L 893.448842 91.156939 L 893.448842 142.000692 Z M 893.448842 39.787145 L 893.448842 87.584022 L 913.573843 87.584022 C 922.750927 87.584022 930.30301 85.68298 936.214469 81.891314 C 942.125928 78.094438 945.084261 72.136105 945.084261 64.016313 C 945.084261 56.068396 942.834261 50.068395 938.334261 46.005895 C 933.829052 41.948603 927.167594 39.875686 918.339468 39.787145 Z M 989.43843 123.594441 C 990.672805 127.391316 992.922805 130.479858 996.193639 132.865274 C 1001.396764 136.573608 1007.709264 138.422566 1015.125931 138.422566 C 1022.53739 138.422566 1028.84989 136.526733 1034.058224 132.729858 C 1039.266558 129.026733 1041.870724 123.505899 1041.870724 116.182982 C 1041.870724 105.766315 1039.334266 98.990273 1034.256141 95.860064 C 1029.183224 92.724647 1022.407182 91.156939 1013.933223 91.156939 C 1003.516556 91.156939 994.980097 88.860064 988.31343 84.271522 C 981.646763 79.68298 978.09468 72.844438 977.65718 63.750688 C 977.12593 53.511104 980.214471 46.360062 986.922805 42.30277 C 993.631139 38.24027 1003.032181 36.20902 1015.125931 36.20902 C 1027.219682 36.20902 1036.620724 38.24027 1043.329058 42.30277 C 1047.9176 45.125687 1050.829058 49.360062 1052.063433 55.011104 L 1040.678016 55.011104 C 1039.620724 51.391312 1037.766558 48.391312 1035.115516 46.005895 C 1030.615516 41.948603 1023.954057 39.875686 1015.125931 39.787145 C 1006.297806 39.875686 999.636347 41.948603 995.131139 46.005895 C 990.631139 50.068395 988.381138 56.068396 988.381138 64.016313 C 988.381138 72.136105 991.334264 78.094438 997.250931 81.891314 C 1003.162389 85.68298 1010.709265 87.584022 1019.891557 87.584022 C 1029.157182 87.584022 1036.594683 89.813189 1042.198849 94.271522 C 1047.808225 98.724648 1050.344683 105.985065 1049.813433 116.047565 C 1049.370725 124.610066 1046.391558 131.078816 1040.875933 135.448608 C 1035.360307 139.813191 1026.776974 142.000692 1015.125931 142.000692 C 1003.474889 142.000692 994.865514 139.839233 989.308222 135.511108 C 986.480097 133.219441 984.318638 130.391316 982.818638 127.037149 C 982.37593 125.714232 982.797805 124.745482 984.079055 124.125691 C 985.355097 123.505899 987.141555 123.328816 989.43843 123.594441 Z M 989.43843 123.594441 " stroke="#002557" stroke-width="10.1685" stroke-opacity="1" stroke-miterlimit="4"/><g fill="#04387d" fill-opacity="1"><g transform="translate(614.448556, 344.276825)"><g><path d="M 69.8125 -79.34375 L 79.046875 -79.34375 L 74.671875 0 L 69.8125 0 L 69.8125 -65.734375 L 46.875 -31.96875 L 40.3125 -31.96875 L 17.375 -65.734375 L 17.375 0 L 12.515625 0 L 8.140625 -79.34375 L 17.375 -79.34375 L 43.59375 -37.34375 Z M 69.8125 -79.34375 "/></g></g></g><g fill="#04387d" fill-opacity="1"><g transform="translate(701.634289, 344.276825)"><g><path d="M 46.96875 -79.34375 L 76.65625 0 L 71.796875 0 L 61.5625 -23.734375 L 23.234375 -23.734375 L 13.015625 0 L 8.140625 0 L 37.828125 -79.34375 Z M 42.40625 -68.421875 L 24.328125 -26.421875 L 60.46875 -26.421875 Z M 42.40625 -68.421875 "/></g></g></g><g fill="#04387d" fill-opacity="1"><g transform="translate(786.436813, 344.276825)"><g><path d="M 8.140625 -79.34375 L 64.453125 -79.34375 L 21.640625 -2.6875 L 60.078125 -2.6875 L 59.578125 0 L 15.1875 0 L 53.828125 -76.65625 L 8.640625 -76.65625 Z M 8.140625 -79.34375 "/></g></g></g><g fill="#04387d" fill-opacity="1"><g transform="translate(859.025402, 344.276825)"><g><path d="M 57.796875 0 L 12.515625 0 L 8.140625 -79.34375 L 64.25 -79.34375 L 63.75 -76.65625 L 17.375 -76.65625 L 17.375 -41.109375 L 61.265625 -41.109375 L 60.78125 -38.4375 L 17.375 -38.4375 L 17.375 -2.6875 L 58.296875 -2.6875 Z M 57.796875 0 "/></g></g></g><g fill="#04387d" fill-opacity="1"><g transform="translate(931.415367, 344.276825)"><g/></g></g><g fill="#04387d" fill-opacity="1"><g transform="translate(974.11453, 344.276825)"><g><path d="M 12.609375 0 L 8.25 -79.34375 L 36.140625 -79.34375 C 45.210938 -79.34375 52.265625 -77.820312 57.296875 -74.78125 C 62.328125 -71.726562 64.644531 -66.363281 64.25 -58.6875 C 63.914062 -51.863281 61.269531 -46.734375 56.3125 -43.296875 C 54.519531 -42.035156 52.53125 -41.007812 50.34375 -40.21875 L 58.484375 0 L 53.625 0 L 43.59375 -38.625 C 41.539062 -38.300781 39.359375 -38.140625 37.046875 -38.140625 L 17.484375 -38.140625 L 17.484375 0 Z M 17.484375 -76.65625 L 17.484375 -40.8125 L 32.578125 -40.8125 C 39.460938 -40.8125 45.117188 -42.234375 49.546875 -45.078125 C 53.984375 -47.929688 56.203125 -52.398438 56.203125 -58.484375 C 56.203125 -64.441406 54.515625 -68.941406 51.140625 -71.984375 C 47.765625 -75.035156 42.765625 -76.59375 36.140625 -76.65625 Z M 17.484375 -76.65625 "/></g></g></g><g fill="#04387d" fill-opacity="1"><g transform="translate(1046.504518, 344.276825)"><g><path d="M 17.28125 -79.34375 L 15.09375 0 L 10.125 0 L 8.140625 -74.578125 C 8.210938 -75.898438 8.726562 -76.875 9.6875 -77.5 C 10.644531 -78.132812 11.769531 -78.632812 13.0625 -79 C 14.351562 -79.363281 15.757812 -79.476562 17.28125 -79.34375 Z M 17.28125 -79.34375 "/></g></g></g><g fill="#04387d" fill-opacity="1"><g transform="translate(1071.925415, 344.276825)"><g><path d="M 53.828125 -41.515625 C 53.828125 -58.328125 51.09375 -68.382812 45.625 -71.6875 C 40.164062 -75 34.328125 -76.65625 28.109375 -76.65625 L 17.375 -76.65625 L 17.375 -2.6875 L 25.328125 -2.6875 C 34.921875 -2.75 42.066406 -5.257812 46.765625 -10.21875 C 51.472656 -15.1875 53.828125 -25.617188 53.828125 -41.515625 Z M 60.96875 -41.609375 C 60.039062 -24.597656 56.960938 -13.410156 51.734375 -8.046875 C 46.503906 -2.679688 39.191406 0 29.796875 0 L 12.40625 0 L 8.25 -79.34375 L 29.796875 -79.34375 C 39.785156 -79.34375 47.691406 -76.84375 53.515625 -71.84375 C 59.347656 -66.84375 61.832031 -56.765625 60.96875 -41.609375 Z M 60.96875 -41.609375 "/></g></g></g><g fill="#04387d" fill-opacity="1"><g transform="translate(1141.534969, 344.276825)"><g><path d="M 57.796875 0 L 12.515625 0 L 8.140625 -79.34375 L 64.25 -79.34375 L 63.75 -76.65625 L 17.375 -76.65625 L 17.375 -41.109375 L 61.265625 -41.109375 L 60.78125 -38.4375 L 17.375 -38.4375 L 17.375 -2.6875 L 58.296875 -2.6875 Z M 57.796875 0 "/></g></g></g><g fill="#04387d" fill-opacity="1"><g transform="translate(1213.924934, 344.276825)"><g><path d="M 12.609375 0 L 8.25 -79.34375 L 36.140625 -79.34375 C 45.210938 -79.34375 52.265625 -77.820312 57.296875 -74.78125 C 62.328125 -71.726562 64.644531 -66.363281 64.25 -58.6875 C 63.914062 -51.863281 61.269531 -46.734375 56.3125 -43.296875 C 54.519531 -42.035156 52.53125 -41.007812 50.34375 -40.21875 L 58.484375 0 L 53.625 0 L 43.59375 -38.625 C 41.539062 -38.300781 39.359375 -38.140625 37.046875 -38.140625 L 17.484375 -38.140625 L 17.484375 0 Z M 17.484375 -76.65625 L 17.484375 -40.8125 L 32.578125 -40.8125 C 39.460938 -40.8125 45.117188 -42.234375 49.546875 -45.078125 C 53.984375 -47.929688 56.203125 -52.398438 56.203125 -58.484375 C 56.203125 -64.441406 54.515625 -68.941406 51.140625 -71.984375 C 47.765625 -75.035156 42.765625 -76.59375 36.140625 -76.65625 Z M 17.484375 -76.65625 "/></g></g></g><g fill="#04387d" fill-opacity="1"><g transform="translate(1286.314899, 344.276825)"><g><path d="M 17.078125 -13.796875 C 18.003906 -10.953125 19.691406 -8.640625 22.140625 -6.859375 C 26.046875 -4.078125 30.78125 -2.6875 36.34375 -2.6875 C 41.90625 -2.6875 46.640625 -4.109375 50.546875 -6.953125 C 54.453125 -9.734375 56.40625 -13.867188 56.40625 -19.359375 C 56.40625 -27.171875 54.5 -32.253906 50.6875 -34.609375 C 46.882812 -36.960938 41.804688 -38.140625 35.453125 -38.140625 C 27.640625 -38.140625 21.234375 -39.859375 16.234375 -43.296875 C 11.234375 -46.734375 8.570312 -51.863281 8.25 -58.6875 C 7.84375 -66.363281 10.15625 -71.722656 15.1875 -74.765625 C 20.21875 -77.816406 27.269531 -79.34375 36.34375 -79.34375 C 45.414062 -79.34375 52.46875 -77.820312 57.5 -74.78125 C 60.9375 -72.65625 63.117188 -69.476562 64.046875 -65.25 L 55.515625 -65.25 C 54.710938 -67.957031 53.320312 -70.207031 51.34375 -72 C 47.96875 -75.039062 42.96875 -76.59375 36.34375 -76.65625 C 29.726562 -76.59375 24.726562 -75.039062 21.34375 -72 C 17.96875 -68.945312 16.28125 -64.441406 16.28125 -58.484375 C 16.28125 -52.398438 18.5 -47.929688 22.9375 -45.078125 C 27.375 -42.234375 33.035156 -40.8125 39.921875 -40.8125 C 46.867188 -40.8125 52.441406 -39.140625 56.640625 -35.796875 C 60.847656 -32.453125 62.753906 -27.007812 62.359375 -19.46875 C 62.023438 -13.039062 59.789062 -8.1875 55.65625 -4.90625 C 51.519531 -1.632812 45.082031 0 36.34375 0 C 27.601562 0 21.148438 -1.617188 16.984375 -4.859375 C 14.859375 -6.585938 13.234375 -8.707031 12.109375 -11.21875 C 11.785156 -12.21875 12.101562 -12.945312 13.0625 -13.40625 C 14.019531 -13.863281 15.359375 -13.992188 17.078125 -13.796875 Z M 17.078125 -13.796875 "/></g></g></g></svg>