<svg xmlns="http://www.w3.org/2000/svg" xmlns:xlink="http://www.w3.org/1999/xlink" width="1080" zoomAndPan="magnify" viewBox="0 0 810 809.999993" height="1080" preserveAspectRatio="xMidYMid meet" version="1.0"><defs><clipPath id="0bdf81e409"><path d="M 98 184 L 712 184 L 712 797 L 98 797 Z M 98 184 " clip-rule="nonzero"/></clipPath><clipPath id="010b055d54"><path d="M 451.871094 59.664062 L 835.722656 537.28125 L 358.101562 921.132812 L -25.75 443.515625 Z M 451.871094 59.664062 " clip-rule="nonzero"/></clipPath><clipPath id="846073af65"><path d="M 451.871094 59.664062 L 835.722656 537.28125 L 358.101562 921.132812 L -25.75 443.515625 Z M 451.871094 59.664062 " clip-rule="nonzero"/></clipPath><clipPath id="fa3a58d200"><path d="M 451.917969 59.234375 L 837.679688 539.230469 L 357.683594 924.992188 L -28.078125 444.996094 Z M 451.917969 59.234375 " clip-rule="nonzero"/></clipPath><clipPath id="13c1451cd2"><path d="M 451.917969 59.234375 L 837.679688 539.230469 L 357.683594 924.992188 L -28.078125 444.996094 Z M 451.917969 59.234375 " clip-rule="nonzero"/></clipPath><clipPath id="a7e8951e43"><path d="M 451.917969 59.234375 L 837.679688 539.230469 L 357.683594 924.992188 L -28.078125 444.996094 Z M 451.917969 59.234375 " clip-rule="nonzero"/></clipPath><clipPath id="ce704a8b41"><path d="M 596.894531 729.183594 C 465.011719 835.171875 272.1875 814.183594 166.199219 682.304688 C 60.210938 550.425781 81.199219 357.601562 213.078125 251.613281 C 344.960938 145.621094 537.78125 166.609375 643.773438 298.492188 C 749.761719 430.371094 728.773438 623.195312 596.894531 729.183594 Z M 596.894531 729.183594 " clip-rule="nonzero"/></clipPath><clipPath id="31d6b0cd33"><path d="M 172 308 L 706 308 L 706 771 L 172 771 Z M 172 308 " clip-rule="nonzero"/></clipPath><clipPath id="8d6f79b6fd"><path d="M 451.871094 59.664062 L 835.722656 537.28125 L 358.101562 921.132812 L -25.75 443.515625 Z M 451.871094 59.664062 " clip-rule="nonzero"/></clipPath><clipPath id="1405d740ea"><path d="M 451.871094 59.664062 L 835.722656 537.28125 L 358.101562 921.132812 L -25.75 443.515625 Z M 451.871094 59.664062 " clip-rule="nonzero"/></clipPath><clipPath id="695bf6fbb8"><path d="M 652.4375 308.734375 L 742.191406 420.417969 L 262.195312 806.179688 L 172.441406 694.496094 Z M 652.4375 308.734375 " clip-rule="nonzero"/></clipPath><clipPath id="bba9b0ab57"><path d="M 652.4375 308.734375 L 742.191406 420.417969 L 262.195312 806.179688 L 172.441406 694.496094 Z M 652.4375 308.734375 " clip-rule="nonzero"/></clipPath><clipPath id="35084311a5"><path d="M 451.917969 59.234375 L 837.679688 539.230469 L 357.683594 924.992188 L -28.078125 444.996094 Z M 451.917969 59.234375 " clip-rule="nonzero"/></clipPath><clipPath id="d5d8169515"><path d="M 596.894531 729.183594 C 465.011719 835.171875 272.1875 814.183594 166.199219 682.304688 C 60.210938 550.425781 81.199219 357.601562 213.078125 251.613281 C 344.960938 145.621094 537.78125 166.609375 643.773438 298.492188 C 749.761719 430.371094 728.773438 623.195312 596.894531 729.183594 Z M 596.894531 729.183594 " clip-rule="nonzero"/></clipPath><clipPath id="91e9e6c142"><path d="M 204 197 L 688 197 L 688 706 L 204 706 Z M 204 197 " clip-rule="nonzero"/></clipPath><clipPath id="618b0e41ea"><path d="M 451.871094 59.664062 L 835.722656 537.28125 L 358.101562 921.132812 L -25.75 443.515625 Z M 451.871094 59.664062 " clip-rule="nonzero"/></clipPath><clipPath id="e426045769"><path d="M 451.871094 59.664062 L 835.722656 537.28125 L 358.101562 921.132812 L -25.75 443.515625 Z M 451.871094 59.664062 " clip-rule="nonzero"/></clipPath><clipPath id="87eed8fc20"><path d="M 311.71875 171.90625 L 697.480469 651.902344 L 590.550781 737.839844 L 204.789062 257.84375 Z M 311.71875 171.90625 " clip-rule="nonzero"/></clipPath><clipPath id="79f918eed6"><path d="M 311.71875 171.90625 L 697.480469 651.902344 L 590.550781 737.839844 L 204.789062 257.84375 Z M 311.71875 171.90625 " clip-rule="nonzero"/></clipPath><clipPath id="e8d1a41778"><path d="M 451.917969 59.234375 L 837.679688 539.230469 L 357.683594 924.992188 L -28.078125 444.996094 Z M 451.917969 59.234375 " clip-rule="nonzero"/></clipPath><clipPath id="7d0d2a51e1"><path d="M 596.894531 729.183594 C 465.011719 835.171875 272.1875 814.183594 166.199219 682.304688 C 60.210938 550.425781 81.199219 357.601562 213.078125 251.613281 C 344.960938 145.621094 537.78125 166.609375 643.773438 298.492188 C 749.761719 430.371094 728.773438 623.195312 596.894531 729.183594 Z M 596.894531 729.183594 " clip-rule="nonzero"/></clipPath><clipPath id="148279a68e"><path d="M 489 458 L 712 458 L 712 797 L 489 797 Z M 489 458 " clip-rule="nonzero"/></clipPath><clipPath id="e4c75ed429"><path d="M 451.871094 59.664062 L 835.722656 537.28125 L 358.101562 921.132812 L -25.75 443.515625 Z M 451.871094 59.664062 " clip-rule="nonzero"/></clipPath><clipPath id="5a5659df12"><path d="M 451.871094 59.664062 L 835.722656 537.28125 L 358.101562 921.132812 L -25.75 443.515625 Z M 451.871094 59.664062 " clip-rule="nonzero"/></clipPath><clipPath id="cf1a1b1d60"><path d="M 751.316406 456.105469 L 825.796875 548.777344 L 495.503906 814.226562 L 421.023438 721.554688 Z M 751.316406 456.105469 " clip-rule="nonzero"/></clipPath><clipPath id="dbab5d1231"><path d="M 751.316406 456.105469 L 825.796875 548.777344 L 495.503906 814.226562 L 421.023438 721.554688 Z M 751.316406 456.105469 " clip-rule="nonzero"/></clipPath><clipPath id="79d99d4ca0"><path d="M 451.917969 59.234375 L 837.679688 539.230469 L 357.683594 924.992188 L -28.078125 444.996094 Z M 451.917969 59.234375 " clip-rule="nonzero"/></clipPath><clipPath id="56443ae616"><path d="M 596.894531 729.183594 C 465.011719 835.171875 272.1875 814.183594 166.199219 682.304688 C 60.210938 550.425781 81.199219 357.601562 213.078125 251.613281 C 344.960938 145.621094 537.78125 166.609375 643.773438 298.492188 C 749.761719 430.371094 728.773438 623.195312 596.894531 729.183594 Z M 596.894531 729.183594 " clip-rule="nonzero"/></clipPath><clipPath id="e812004ae5"><path d="M 98 184 L 564 184 L 564 527 L 98 527 Z M 98 184 " clip-rule="nonzero"/></clipPath><clipPath id="76b0104aac"><path d="M 451.871094 59.664062 L 835.722656 537.28125 L 358.101562 921.132812 L -25.75 443.515625 Z M 451.871094 59.664062 " clip-rule="nonzero"/></clipPath><clipPath id="9b4740e1de"><path d="M 451.871094 59.664062 L 835.722656 537.28125 L 358.101562 921.132812 L -25.75 443.515625 Z M 451.871094 59.664062 " clip-rule="nonzero"/></clipPath><clipPath id="5ce0146fde"><path d="M 452.894531 70.179688 L 674.417969 345.824219 L 206.304688 722.035156 L -15.222656 446.394531 Z M 452.894531 70.179688 " clip-rule="nonzero"/></clipPath><clipPath id="1ee0060756"><path d="M 452.894531 70.179688 L 674.417969 345.824219 L 206.304688 722.035156 L -15.222656 446.394531 Z M 452.894531 70.179688 " clip-rule="nonzero"/></clipPath><clipPath id="951884606b"><path d="M 451.917969 59.234375 L 837.679688 539.230469 L 357.683594 924.992188 L -28.078125 444.996094 Z M 451.917969 59.234375 " clip-rule="nonzero"/></clipPath><clipPath id="4b84d20614"><path d="M 596.894531 729.183594 C 465.011719 835.171875 272.1875 814.183594 166.199219 682.304688 C 60.210938 550.425781 81.199219 357.601562 213.078125 251.613281 C 344.960938 145.621094 537.78125 166.609375 643.773438 298.492188 C 749.761719 430.371094 728.773438 623.195312 596.894531 729.183594 Z M 596.894531 729.183594 " clip-rule="nonzero"/></clipPath><clipPath id="7be69eaed3"><path d="M 262 447 L 366 447 L 366 622 L 262 622 Z M 262 447 " clip-rule="nonzero"/></clipPath><clipPath id="6f0e7f2ca7"><path d="M 230.835938 466.957031 L 349.207031 436.414062 L 389.683594 593.273438 L 271.3125 623.820312 Z M 230.835938 466.957031 " clip-rule="nonzero"/></clipPath><clipPath id="021f999e9f"><path d="M 230.835938 466.957031 L 349.207031 436.414062 L 389.683594 593.273438 L 271.3125 623.820312 Z M 230.835938 466.957031 " clip-rule="nonzero"/></clipPath><clipPath id="ddfc2943be"><path d="M 493 429 L 623 429 L 623 589 L 493 589 Z M 493 429 " clip-rule="nonzero"/></clipPath><clipPath id="2af92461d0"><path d="M 615.050781 590.910156 L 492.953125 584.835938 L 501.003906 423.035156 L 623.101562 429.109375 Z M 615.050781 590.910156 " clip-rule="nonzero"/></clipPath><clipPath id="2830ea1c20"><path d="M 615.050781 590.910156 L 492.953125 584.835938 L 501.003906 423.035156 L 623.101562 429.109375 Z M 615.050781 590.910156 " clip-rule="nonzero"/></clipPath><clipPath id="e86edf566f"><path d="M 21 8 L 136 8 L 136 161 L 21 161 Z M 21 8 " clip-rule="nonzero"/></clipPath><clipPath id="0e7c7b7f54"><path d="M 39.667969 0 L 150.214844 24.597656 L 117.308594 172.480469 L 6.761719 147.882812 Z M 39.667969 0 " clip-rule="nonzero"/></clipPath><clipPath id="89795db71b"><path d="M 149.988281 24.546875 L 39.441406 -0.0507812 L 6.535156 147.832031 L 117.082031 172.429688 Z M 149.988281 24.546875 " clip-rule="nonzero"/></clipPath><clipPath id="17b31b9377"><path d="M 280.414062 682 L 326 682 L 326 742 L 280.414062 742 Z M 280.414062 682 " clip-rule="nonzero"/></clipPath><clipPath id="f344ec9c92"><path d="M 95 82 L 679 82 L 679 465 L 95 465 Z M 95 82 " clip-rule="nonzero"/></clipPath><clipPath id="b66c0de69e"><path d="M 23.398438 123.609375 L 648.800781 21.089844 L 718.804688 448.140625 L 93.402344 550.660156 Z M 23.398438 123.609375 " clip-rule="nonzero"/></clipPath><clipPath id="51b60e86e9"><path d="M 23.398438 123.609375 L 648.800781 21.089844 L 718.804688 448.140625 L 93.402344 550.660156 Z M 23.398438 123.609375 " clip-rule="nonzero"/></clipPath><clipPath id="e183a9b940"><path d="M 23.398438 123.609375 L 648.800781 21.089844 L 718.804688 448.140625 L 93.402344 550.660156 Z M 23.398438 123.609375 " clip-rule="nonzero"/></clipPath><clipPath id="d859ad05b1"><path d="M 192 126 L 302 126 L 302 339 L 192 339 Z M 192 126 " clip-rule="nonzero"/></clipPath><clipPath id="3db9f3fd5e"><path d="M 23.398438 123.609375 L 648.800781 21.089844 L 718.804688 448.140625 L 93.402344 550.660156 Z M 23.398438 123.609375 " clip-rule="nonzero"/></clipPath><clipPath id="5e3880bdc9"><path d="M 23.398438 123.609375 L 648.800781 21.089844 L 718.804688 448.140625 L 93.402344 550.660156 Z M 23.398438 123.609375 " clip-rule="nonzero"/></clipPath><clipPath id="56b5e447c8"><path d="M 23.398438 123.609375 L 648.800781 21.089844 L 718.804688 448.140625 L 93.402344 550.660156 Z M 23.398438 123.609375 " clip-rule="nonzero"/></clipPath><clipPath id="385736a8cd"><path d="M 453 90 L 499 90 L 499 314 L 453 314 Z M 453 90 " clip-rule="nonzero"/></clipPath><clipPath id="20b08ac044"><path d="M 23.398438 123.609375 L 648.800781 21.089844 L 718.804688 448.140625 L 93.402344 550.660156 Z M 23.398438 123.609375 " clip-rule="nonzero"/></clipPath><clipPath id="41289b5af4"><path d="M 23.398438 123.609375 L 648.800781 21.089844 L 718.804688 448.140625 L 93.402344 550.660156 Z M 23.398438 123.609375 " clip-rule="nonzero"/></clipPath><clipPath id="13ac850b36"><path d="M 23.398438 123.609375 L 648.800781 21.089844 L 718.804688 448.140625 L 93.402344 550.660156 Z M 23.398438 123.609375 " clip-rule="nonzero"/></clipPath><clipPath id="1be2875baf"><path d="M 214 68 L 467 68 L 467 339 L 214 339 Z M 214 68 " clip-rule="nonzero"/></clipPath><clipPath id="d5086c2194"><path d="M 23.398438 123.609375 L 648.800781 21.089844 L 718.804688 448.140625 L 93.402344 550.660156 Z M 23.398438 123.609375 " clip-rule="nonzero"/></clipPath><clipPath id="3385c870ec"><path d="M 23.398438 123.609375 L 648.800781 21.089844 L 718.804688 448.140625 L 93.402344 550.660156 Z M 23.398438 123.609375 " clip-rule="nonzero"/></clipPath><clipPath id="07b9178760"><path d="M 23.398438 123.609375 L 648.800781 21.089844 L 718.804688 448.140625 L 93.402344 550.660156 Z M 23.398438 123.609375 " clip-rule="nonzero"/></clipPath><clipPath id="8e7a9b906c"><path d="M 111 339 L 670 339 L 670 472 L 111 472 Z M 111 339 " clip-rule="nonzero"/></clipPath><clipPath id="32112dfcb5"><path d="M 23.398438 123.609375 L 648.800781 21.089844 L 718.804688 448.140625 L 93.402344 550.660156 Z M 23.398438 123.609375 " clip-rule="nonzero"/></clipPath><clipPath id="110976ad1a"><path d="M 23.398438 123.609375 L 648.800781 21.089844 L 718.804688 448.140625 L 93.402344 550.660156 Z M 23.398438 123.609375 " clip-rule="nonzero"/></clipPath><clipPath id="c35442587c"><path d="M 23.398438 123.609375 L 648.800781 21.089844 L 718.804688 448.140625 L 93.402344 550.660156 Z M 23.398438 123.609375 " clip-rule="nonzero"/></clipPath><clipPath id="a2e6396fbf"><path d="M 133 383 L 655 383 L 655 494 L 133 494 Z M 133 383 " clip-rule="nonzero"/></clipPath><clipPath id="2d22dc5b40"><path d="M 23.398438 123.609375 L 648.800781 21.089844 L 718.804688 448.140625 L 93.402344 550.660156 Z M 23.398438 123.609375 " clip-rule="nonzero"/></clipPath><clipPath id="e959d09789"><path d="M 23.398438 123.609375 L 648.800781 21.089844 L 718.804688 448.140625 L 93.402344 550.660156 Z M 23.398438 123.609375 " clip-rule="nonzero"/></clipPath><clipPath id="73960be252"><path d="M 23.398438 123.609375 L 648.800781 21.089844 L 718.804688 448.140625 L 93.402344 550.660156 Z M 23.398438 123.609375 " clip-rule="nonzero"/></clipPath><clipPath id="1ab2d966d6"><path d="M 251 160 L 490 160 L 490 400 L 251 400 Z M 251 160 " clip-rule="nonzero"/></clipPath><clipPath id="2b3f8b4f41"><path d="M 23.398438 123.609375 L 648.800781 21.089844 L 718.804688 448.140625 L 93.402344 550.660156 Z M 23.398438 123.609375 " clip-rule="nonzero"/></clipPath><clipPath id="0bb12e10ed"><path d="M 23.398438 123.609375 L 648.800781 21.089844 L 718.804688 448.140625 L 93.402344 550.660156 Z M 23.398438 123.609375 " clip-rule="nonzero"/></clipPath><clipPath id="2ea047d3c6"><path d="M 23.398438 123.609375 L 648.800781 21.089844 L 718.804688 448.140625 L 93.402344 550.660156 Z M 23.398438 123.609375 " clip-rule="nonzero"/></clipPath><clipPath id="c60026731b"><path d="M 280 189 L 461 189 L 461 371 L 280 371 Z M 280 189 " clip-rule="nonzero"/></clipPath><clipPath id="694be4b634"><path d="M 23.398438 123.609375 L 648.800781 21.089844 L 718.804688 448.140625 L 93.402344 550.660156 Z M 23.398438 123.609375 " clip-rule="nonzero"/></clipPath><clipPath id="3302d1e4ec"><path d="M 23.398438 123.609375 L 648.800781 21.089844 L 718.804688 448.140625 L 93.402344 550.660156 Z M 23.398438 123.609375 " clip-rule="nonzero"/></clipPath><clipPath id="56d42bd449"><path d="M 23.398438 123.609375 L 648.800781 21.089844 L 718.804688 448.140625 L 93.402344 550.660156 Z M 23.398438 123.609375 " clip-rule="nonzero"/></clipPath><clipPath id="bc03a7c6c5"><path d="M 638 275 L 707 275 L 707 384 L 638 384 Z M 638 275 " clip-rule="nonzero"/></clipPath><clipPath id="83b7055a1e"><path d="M 23.398438 123.609375 L 648.800781 21.089844 L 718.804688 448.140625 L 93.402344 550.660156 Z M 23.398438 123.609375 " clip-rule="nonzero"/></clipPath><clipPath id="7023a3840c"><path d="M 23.398438 123.609375 L 648.800781 21.089844 L 718.804688 448.140625 L 93.402344 550.660156 Z M 23.398438 123.609375 " clip-rule="nonzero"/></clipPath><clipPath id="8b1fc34249"><path d="M 23.398438 123.609375 L 648.800781 21.089844 L 718.804688 448.140625 L 93.402344 550.660156 Z M 23.398438 123.609375 " clip-rule="nonzero"/></clipPath><clipPath id="afe28f7afd"><path d="M 638.429688 284.003906 L 690.300781 275.5 L 706.542969 374.597656 L 654.671875 383.101562 Z M 638.429688 284.003906 " clip-rule="nonzero"/></clipPath><clipPath id="84c390825d"><path d="M 638.429688 284.003906 L 690.195312 275.519531 L 706.441406 374.613281 L 654.671875 383.101562 Z M 638.429688 284.003906 " clip-rule="nonzero"/></clipPath><clipPath id="0782680fda"><path d="M 65 369 L 134 369 L 134 477 L 65 477 Z M 65 369 " clip-rule="nonzero"/></clipPath><clipPath id="ea975b374a"><path d="M 23.398438 123.609375 L 648.800781 21.089844 L 718.804688 448.140625 L 93.402344 550.660156 Z M 23.398438 123.609375 " clip-rule="nonzero"/></clipPath><clipPath id="f41146eccc"><path d="M 23.398438 123.609375 L 648.800781 21.089844 L 718.804688 448.140625 L 93.402344 550.660156 Z M 23.398438 123.609375 " clip-rule="nonzero"/></clipPath><clipPath id="8531b5d10c"><path d="M 23.398438 123.609375 L 648.800781 21.089844 L 718.804688 448.140625 L 93.402344 550.660156 Z M 23.398438 123.609375 " clip-rule="nonzero"/></clipPath></defs><g clip-path="url(#0bdf81e409)"><g clip-path="url(#010b055d54)"><g clip-path="url(#846073af65)"><g clip-path="url(#fa3a58d200)"><g clip-path="url(#13c1451cd2)"><g clip-path="url(#a7e8951e43)"><g clip-path="url(#ce704a8b41)"><path fill="#e66406" d="M 596.894531 729.183594 C 465.011719 835.171875 272.1875 814.183594 166.199219 682.304688 C 60.210938 550.425781 81.199219 357.601562 213.078125 251.613281 C 344.960938 145.621094 537.78125 166.609375 643.773438 298.492188 C 749.761719 430.371094 728.773438 623.195312 596.894531 729.183594 " fill-opacity="1" fill-rule="nonzero"/></g></g></g></g></g></g></g><g clip-path="url(#31d6b0cd33)"><g clip-path="url(#8d6f79b6fd)"><g clip-path="url(#1405d740ea)"><g clip-path="url(#695bf6fbb8)"><g clip-path="url(#bba9b0ab57)"><g clip-path="url(#35084311a5)"><g clip-path="url(#d5d8169515)"><path fill="#924b1f" d="M 128.148438 770.730469 L 124.128906 753.855469 C 422.371094 682.496094 559.835938 557.277344 622.628906 464.84375 C 690.027344 365.582031 687.882812 282.789062 687.851562 281.953125 L 705.1875 281.359375 C 705.3125 284.9375 707.535156 370.675781 636.96875 474.558594 C 595.78125 535.191406 538.167969 589.394531 465.714844 635.695312 C 375.554688 693.253906 261.976562 738.699219 128.148438 770.730469 " fill-opacity="1" fill-rule="nonzero"/></g></g></g></g></g></g></g><g clip-path="url(#91e9e6c142)"><g clip-path="url(#618b0e41ea)"><g clip-path="url(#e426045769)"><g clip-path="url(#87eed8fc20)"><g clip-path="url(#79f918eed6)"><g clip-path="url(#e8d1a41778)"><g clip-path="url(#7d0d2a51e1)"><path fill="#924b1f" d="M 172.535156 213.472656 L 179.574219 197.613281 C 272.492188 238.867188 357.03125 290.914062 430.792969 352.328125 C 489.835938 401.515625 542.175781 456.757812 586.300781 516.53125 C 661.605469 618.550781 686.652344 697.40625 687.660156 700.703125 L 671.117188 705.863281 C 670.796875 704.832031 645.550781 625.78125 571.847656 526.1875 C 503.804688 434.171875 379.261719 305.195312 172.539062 213.480469 " fill-opacity="1" fill-rule="nonzero"/></g></g></g></g></g></g></g><g clip-path="url(#148279a68e)"><g clip-path="url(#e4c75ed429)"><g clip-path="url(#5a5659df12)"><g clip-path="url(#cf1a1b1d60)"><g clip-path="url(#dbab5d1231)"><g clip-path="url(#79d99d4ca0)"><g clip-path="url(#56443ae616)"><path fill="#924b1f" d="M 489.28125 806.242188 C 523.367188 708.453125 593.007812 619.042969 645.417969 561.277344 C 702.066406 498.816406 751.46875 458.722656 751.964844 458.324219 L 762.855469 471.824219 C 760.929688 473.371094 569.128906 629.863281 505.640625 811.949219 L 489.28125 806.242188 " fill-opacity="1" fill-rule="nonzero"/></g></g></g></g></g></g></g><g clip-path="url(#e812004ae5)"><g clip-path="url(#76b0104aac)"><g clip-path="url(#9b4740e1de)"><g clip-path="url(#5ce0146fde)"><g clip-path="url(#1ee0060756)"><g clip-path="url(#951884606b)"><g clip-path="url(#4b84d20614)"><path fill="#924b1f" d="M 19.453125 486.617188 L 23.351562 469.71875 C 171.441406 503.855469 290.175781 516.0625 376.207031 505.976562 C 448.226562 497.53125 497.902344 473.449219 523.863281 434.363281 C 603.832031 314.003906 440.613281 84.976562 438.980469 82.652344 L 453.007812 72.515625 C 454.78125 74.960938 496.269531 132.863281 528.089844 207.449219 C 546.886719 251.515625 558.289062 292.179688 561.945312 328.3125 C 566.617188 374.421875 558.65625 413.320312 538.324219 443.9375 C 476.269531 537.339844 301.691406 551.707031 19.453125 486.617188 " fill-opacity="1" fill-rule="nonzero"/></g></g></g></g></g></g></g><g clip-path="url(#7be69eaed3)"><g clip-path="url(#6f0e7f2ca7)"><g clip-path="url(#021f999e9f)"><path fill="#000000" d="M 353.347656 452.464844 C 351.824219 454.613281 350.261719 456.609375 348.699219 458.605469 C 347.398438 460.375 346.246094 462.105469 345.136719 463.988281 C 343.984375 465.71875 342.722656 467.640625 341.609375 469.519531 C 340.828125 470.835938 340.238281 472.261719 339.460938 473.578125 C 339.015625 474.332031 338.609375 475.234375 338.164062 475.984375 C 336.449219 478.019531 335.832031 480.570312 334.832031 482.902344 C 334.425781 483.800781 333.871094 484.742188 333.3125 485.683594 C 331.753906 488.316406 330.199219 490.949219 328.679688 493.730469 C 326.679688 497.753906 324.832031 501.734375 322.871094 505.90625 C 321.945312 507.898438 321.058594 510.039062 320.136719 512.03125 C 320.0625 512.367188 319.800781 512.59375 319.539062 512.820312 C 318.644531 513.691406 318.425781 514.703125 318.058594 515.753906 C 317.769531 517.105469 316.988281 518.421875 316.511719 519.660156 C 316.140625 520.710938 315.625 521.800781 315.296875 523 C 315.261719 523.488281 315.566406 524.046875 315.832031 524.457031 C 317.421875 526.914062 318.90625 529.558594 320.609375 531.828125 C 322.695312 534.957031 324.929688 538.042969 327.316406 541.09375 C 328.527344 542.691406 329.851562 544.105469 331.0625 545.703125 C 332.6875 547.675781 334.167969 549.683594 335.945312 551.617188 C 338.023438 554.105469 340.40625 556.519531 342.488281 559.011719 C 343.621094 560.3125 344.605469 561.652344 345.589844 562.988281 C 346.539062 564.179688 347.59375 565.183594 348.652344 566.183594 C 350.617188 568.226562 352.734375 570.230469 354.699219 572.273438 C 355.113281 572.644531 355.679688 572.976562 356.246094 573.308594 C 357.675781 573.894531 359.214844 574.292969 360.644531 574.882812 C 360.984375 574.953125 361.25 575.363281 361.625 575.585938 C 362.042969 575.957031 362.457031 576.328125 362.832031 576.546875 C 363.777344 577.101562 364.269531 577.769531 364.835938 578.738281 C 366.398438 581.683594 365.25 584.050781 363.765625 586.347656 C 363.542969 586.722656 363.019531 587.175781 362.984375 587.664062 C 362.886719 589.761719 361.238281 590.1875 359.855469 591.019531 C 358.472656 591.855469 356.820312 591.644531 355.472656 591.992188 L 355.324219 592.03125 C 353.589844 590.886719 351.191406 591.503906 349.679688 589.980469 C 347.488281 587.679688 344.960938 585.941406 343.851562 582.878906 C 343.8125 582.730469 343.625 582.621094 343.585938 582.472656 C 343.230469 579.851562 341.34375 578.109375 339.714844 576.140625 C 337.859375 573.910156 335.746094 571.90625 334.042969 569.636719 C 331.507812 566.625 329.082031 563.425781 326.699219 560.375 C 325.257812 558.515625 323.519531 556.734375 322.082031 554.875 C 320.605469 552.863281 319.125 550.855469 317.609375 548.695312 C 317.117188 548.027344 316.515625 547.546875 316.210938 546.988281 C 314.960938 545.238281 313.710938 543.488281 312.308594 541.777344 C 311.324219 540.4375 310.378906 539.25 309.46875 538.207031 C 308.082031 538.40625 307.976562 539.230469 307.832031 539.90625 C 307.253906 543.242188 305.660156 546.363281 304.597656 549.664062 C 303.601562 552.628906 302.046875 555.261719 300.863281 558.117188 C 299.832031 560.933594 299.140625 563.820312 297.882812 566.378906 C 295.476562 571.300781 294.460938 576.660156 292.734375 581.730469 C 291.8125 584.355469 290.328125 586.652344 289.707031 589.203125 C 289.449219 590.066406 289.304688 590.742188 289.046875 591.605469 C 288.863281 592.128906 288.832031 592.617188 288.609375 592.992188 C 286.972656 595.328125 286.765625 598.246094 285.171875 600.730469 C 284.6875 601.335938 284.957031 602.378906 284.851562 603.203125 C 284.375 605.082031 284.386719 606.988281 283.386719 608.683594 C 283.054688 609.246094 283.171875 610.332031 283.214844 611.117188 C 283.195312 613.511719 282.984375 615.796875 281.574219 617.753906 C 281.351562 618.132812 281.167969 618.65625 280.984375 619.183594 C 280.503906 620.421875 278.710938 621.523438 277.285156 621.570312 C 276.457031 621.464844 275.667969 621.507812 274.730469 621.59375 C 273.15625 621.679688 271.160156 620.761719 270.625 619.304688 C 269.484375 616.730469 268.828125 614.191406 269.859375 611.375 C 271.371094 607.320312 272.691406 603.15625 274.203125 599.101562 C 275.96875 594.183594 277.886719 589.226562 279.652344 584.308594 C 280.539062 582.167969 281.425781 580.027344 282.3125 577.882812 C 282.976562 576.121094 283.449219 574.246094 284.113281 572.480469 C 285.882812 567.5625 287.835938 562.753906 289.644531 557.984375 C 291.375 553.554688 293.109375 549.125 294.84375 544.691406 C 294.953125 544.503906 295.027344 544.167969 295.136719 543.980469 C 296.511719 541.871094 297.210938 539.621094 297.867188 537.21875 C 298.566406 534.96875 299.601562 532.789062 300.636719 530.609375 C 300.933594 529.894531 301.226562 529.179688 301.335938 528.355469 C 301.554688 527.34375 301.472656 526.410156 300.941406 525.589844 C 299.691406 523.839844 298.589844 522.054688 297.339844 520.304688 C 295.558594 517.734375 293.886719 514.980469 292.257812 512.371094 C 288.992188 507.160156 285.730469 501.945312 282.503906 496.882812 C 281.40625 495.09375 280.152344 493.34375 279.054688 491.558594 C 277.421875 488.949219 275.753906 486.195312 273.96875 483.625 C 272.113281 480.757812 270.140625 478.082031 268.324219 475.363281 C 267.792969 474.542969 267.261719 473.726562 266.730469 472.90625 C 266.464844 472.496094 266.199219 472.085938 265.820312 471.867188 C 263.636719 470.835938 263.019531 468.445312 262.371094 466.542969 C 261.601562 464.1875 262.183594 461.488281 264.195312 459.375 C 264.941406 458.546875 265.917969 458.613281 266.746094 458.71875 C 268.390625 458.292969 270.234375 458.617188 271.925781 458.976562 C 273.953125 459.410156 275.609375 460.257812 276.339844 462.457031 C 276.492188 463.054688 276.984375 463.726562 277.441406 464.246094 C 278.234375 465.476562 279.253906 466.328125 279.492188 467.859375 L 279.53125 468.007812 C 281.871094 470.273438 282.832031 473.371094 284.460938 475.980469 C 285.714844 477.726562 286.664062 479.554688 287.765625 481.34375 C 290.152344 485.027344 292.28125 488.941406 294.820312 492.589844 C 296.867188 495.566406 298.617188 498.621094 300.511719 501.636719 C 301.082031 502.605469 301.800781 503.535156 302.558594 504.613281 C 303.886719 506.664062 305.175781 508.5625 306.503906 510.609375 C 307.261719 511.6875 307.5625 511.609375 308.496094 510.890625 C 309.578125 510.132812 310.09375 509.042969 310.386719 507.695312 C 310.644531 506.832031 310.5625 505.894531 311.761719 505.585938 C 311.910156 505.546875 312.132812 505.171875 312.207031 504.835938 C 313.015625 502.394531 313.785156 499.804688 314.78125 497.476562 C 315.445312 495.710938 316.445312 494.019531 317.410156 492.175781 C 317.59375 491.652344 317.777344 491.125 317.960938 490.601562 C 318.296875 490.035156 318.441406 489.363281 318.8125 488.945312 C 320.082031 487.664062 320.933594 486.007812 321.59375 484.246094 C 322.664062 481.578125 324.113281 479.132812 325.519531 476.539062 C 326.445312 474.546875 327.746094 472.777344 328.707031 470.9375 C 330.042969 468.679688 331.53125 466.382812 332.488281 463.90625 C 333.667969 461.050781 335 458.15625 337.085938 455.707031 C 338.3125 454.273438 339.277344 452.433594 340.089844 450.628906 C 341.53125 447.546875 345.839844 446.277344 348.585938 447.640625 C 349.867188 448.265625 350.925781 449.265625 351.984375 450.269531 C 352.324219 450.976562 352.628906 451.535156 353.347656 452.464844 Z M 353.347656 452.464844 " fill-opacity="1" fill-rule="nonzero"/></g></g></g><g clip-path="url(#ddfc2943be)"><g clip-path="url(#2af92461d0)"><g clip-path="url(#2830ea1c20)"><path fill="#000000" d="M 493.777344 568.277344 C 495.871094 566.683594 497.957031 565.242188 500.042969 563.800781 C 501.8125 562.496094 503.425781 561.1875 505.046875 559.722656 C 506.664062 558.414062 508.441406 556.957031 510.0625 555.492188 C 511.199219 554.46875 512.1875 553.28125 513.320312 552.257812 C 513.96875 551.671875 514.628906 550.929688 515.277344 550.34375 C 517.515625 548.910156 518.867188 546.660156 520.511719 544.734375 C 521.167969 543.996094 521.980469 543.261719 522.792969 542.53125 C 525.0625 540.480469 527.335938 538.429688 529.613281 536.226562 C 532.71875 532.984375 535.667969 529.730469 538.78125 526.332031 C 540.257812 524.707031 541.738281 522.925781 543.214844 521.300781 C 543.386719 521 543.703125 520.859375 544.019531 520.722656 C 545.132812 520.160156 545.640625 519.257812 546.304688 518.363281 C 546.984375 517.160156 548.121094 516.136719 548.945312 515.097656 C 549.609375 514.203125 550.429688 513.316406 551.101562 512.269531 C 551.277344 511.8125 551.15625 511.1875 551.023438 510.71875 C 550.234375 507.898438 549.605469 504.933594 548.65625 502.257812 C 547.59375 498.652344 546.382812 495.039062 545.011719 491.417969 C 544.332031 489.53125 543.488281 487.789062 542.808594 485.902344 C 541.839844 483.535156 541.027344 481.175781 539.90625 478.804688 C 538.660156 475.808594 537.105469 472.792969 535.859375 469.796875 C 535.164062 468.21875 534.625 466.644531 534.082031 465.074219 C 533.53125 463.65625 532.820312 462.382812 532.109375 461.113281 C 530.839844 458.578125 529.417969 456.035156 528.152344 453.5 C 527.863281 453.023438 527.421875 452.539062 526.984375 452.050781 C 525.792969 451.066406 524.441406 450.226562 523.25 449.238281 C 522.949219 449.070312 522.816406 448.601562 522.523438 448.277344 C 522.238281 447.800781 521.949219 447.320312 521.65625 446.996094 C 520.921875 446.1875 520.652344 445.402344 520.394531 444.308594 C 519.785156 441.035156 521.582031 439.113281 523.683594 437.367188 C 524.007812 437.074219 524.644531 436.796875 524.820312 436.339844 C 525.539062 434.367188 527.238281 434.453125 528.808594 434.066406 C 530.375 433.683594 531.890625 434.375 533.28125 434.445312 L 533.4375 434.453125 C 534.75 436.0625 537.222656 436.183594 538.214844 438.089844 C 539.621094 440.9375 541.515625 443.351562 541.664062 446.601562 C 541.65625 446.757812 541.800781 446.917969 541.792969 447.074219 C 541.355469 449.675781 542.640625 451.902344 543.605469 454.269531 C 544.710938 456.949219 546.136719 459.492188 547.085938 462.167969 C 548.609375 465.796875 549.972656 469.570312 551.339844 473.191406 C 552.160156 475.398438 553.289062 477.617188 554.109375 479.820312 C 554.921875 482.175781 555.734375 484.535156 556.539062 487.046875 C 556.808594 487.832031 557.242188 488.472656 557.367188 489.097656 C 558.039062 491.140625 558.714844 493.179688 559.542969 495.230469 C 560.082031 496.800781 560.632812 498.21875 561.1875 499.484375 C 562.570312 499.707031 562.917969 498.953125 563.257812 498.351562 C 564.804688 495.335938 567.253906 492.832031 569.253906 489.996094 C 571.082031 487.460938 573.355469 485.410156 575.332031 483.039062 C 577.15625 480.65625 578.675781 478.105469 580.636719 476.042969 C 584.398438 472.058594 586.964844 467.242188 590.121094 462.917969 C 591.78125 460.683594 593.882812 458.933594 595.234375 456.683594 C 595.738281 455.9375 596.078125 455.335938 596.578125 454.585938 C 596.910156 454.140625 597.089844 453.6875 597.414062 453.394531 C 599.667969 451.652344 600.734375 448.921875 602.996094 447.027344 C 603.640625 446.597656 603.691406 445.515625 604.039062 444.761719 C 605.050781 443.113281 605.605469 441.285156 607.066406 439.96875 C 607.554688 439.53125 607.761719 438.457031 607.957031 437.695312 C 608.6875 435.414062 609.570312 433.296875 611.5 431.847656 C 611.824219 431.554688 612.15625 431.105469 612.488281 430.660156 C 613.316406 429.621094 615.355469 429.101562 616.730469 429.480469 C 617.488281 429.828125 618.253906 430.019531 619.171875 430.21875 C 620.703125 430.605469 622.335938 432.078125 622.410156 433.625 C 622.738281 436.421875 622.605469 439.042969 620.785156 441.421875 C 618.136719 444.84375 615.632812 448.429688 612.984375 451.851562 C 609.832031 456.019531 606.527344 460.179688 603.375 464.347656 C 601.890625 466.128906 600.410156 467.910156 598.925781 469.691406 C 597.769531 471.175781 596.757812 472.828125 595.597656 474.3125 C 592.445312 478.484375 589.148438 482.488281 586.003906 486.503906 C 583.03125 490.21875 580.058594 493.933594 577.082031 497.648438 C 576.921875 497.792969 576.75 498.09375 576.589844 498.242188 C 574.652344 499.84375 573.3125 501.785156 571.96875 503.882812 C 570.632812 505.824219 568.996094 507.597656 567.359375 509.367188 C 566.863281 509.960938 566.371094 510.554688 566.023438 511.3125 C 565.511719 512.210938 565.3125 513.128906 565.574219 514.070312 C 566.25 516.113281 566.769531 518.144531 567.441406 520.1875 C 568.378906 523.167969 569.152344 526.296875 569.933594 529.273438 C 571.496094 535.21875 573.058594 541.167969 574.628906 546.964844 C 575.148438 548.996094 575.820312 551.039062 576.339844 553.074219 C 577.121094 556.046875 577.894531 559.175781 578.832031 562.160156 C 579.753906 565.449219 580.835938 568.59375 581.765625 571.726562 C 582.027344 572.667969 582.292969 573.609375 582.554688 574.546875 C 582.6875 575.019531 582.816406 575.488281 583.113281 575.8125 C 584.890625 577.445312 584.765625 579.910156 584.820312 581.921875 C 584.855469 584.394531 583.496094 586.800781 580.945312 588.21875 C 579.988281 588.789062 579.074219 588.433594 578.316406 588.085938 C 576.617188 588.003906 574.957031 587.148438 573.449219 586.300781 C 571.640625 585.285156 570.308594 583.980469 570.269531 581.660156 C 570.300781 581.046875 570.03125 580.257812 569.75 579.628906 C 569.355469 578.21875 568.636719 577.101562 568.871094 575.566406 L 568.878906 575.414062 C 567.316406 572.554688 567.320312 569.308594 566.539062 566.335938 C 565.867188 564.292969 565.503906 562.269531 564.984375 560.234375 C 563.800781 556.003906 562.933594 551.632812 561.59375 547.394531 C 560.527344 543.945312 559.769531 540.507812 558.855469 537.0625 C 558.597656 535.96875 558.1875 534.867188 557.785156 533.613281 C 557.128906 531.261719 556.464844 529.066406 555.804688 526.714844 C 555.402344 525.460938 555.09375 525.445312 553.988281 525.851562 C 552.730469 526.253906 551.910156 527.140625 551.230469 528.339844 C 550.730469 529.089844 550.527344 530.007812 549.292969 529.945312 C 549.136719 529.9375 548.8125 530.230469 548.644531 530.53125 C 547.144531 532.617188 545.640625 534.859375 543.996094 536.789062 C 542.835938 538.273438 541.375 539.59375 539.90625 541.066406 C 539.574219 541.511719 539.242188 541.957031 538.910156 542.40625 C 538.425781 542.84375 538.085938 543.445312 537.605469 543.730469 C 536.015625 544.578125 534.710938 545.90625 533.550781 547.390625 C 531.734375 549.617188 529.625 551.523438 527.511719 553.578125 C 526.035156 555.207031 524.265625 556.507812 522.796875 557.980469 C 520.851562 559.738281 518.75 561.488281 517.097656 563.566406 C 515.121094 565.941406 512.988281 568.308594 510.269531 570.023438 C 508.667969 571.027344 507.203125 572.5 505.886719 573.980469 C 503.59375 576.492188 499.105469 576.421875 496.886719 574.304688 C 495.851562 573.324219 495.136719 572.054688 494.425781 570.78125 C 494.3125 570.003906 494.1875 569.378906 493.777344 568.277344 Z M 493.777344 568.277344 " fill-opacity="1" fill-rule="nonzero"/></g></g></g><g clip-path="url(#e86edf566f)"><g clip-path="url(#0e7c7b7f54)"><g clip-path="url(#89795db71b)"><path fill="#5271ff" d="M 82.914062 9.957031 C 83.078125 10.128906 83.449219 10.28125 83.976562 10.332031 C 84.507812 10.378906 85.300781 10.757812 86.320312 11.320312 C 87.34375 11.886719 88.007812 12.234375 88.390625 12.320312 C 88.777344 12.40625 89.070312 12.605469 89.414062 12.882812 C 89.742188 13.226562 90.113281 13.375 90.5 13.460938 C 90.882812 13.546875 91.125 13.667969 91.226562 13.824219 C 91.328125 13.980469 91.734375 14.273438 92.332031 14.609375 C 92.996094 14.957031 93.355469 15.171875 93.441406 15.394531 C 93.539062 15.550781 93.703125 15.722656 94.011719 15.855469 C 94.320312 15.992188 94.484375 16.164062 94.453125 16.292969 C 94.492188 16.433594 94.605469 16.527344 94.863281 16.582031 C 94.992188 16.613281 95.117188 16.640625 95.246094 16.667969 C 95.246094 16.667969 95.234375 16.734375 95.234375 16.734375 C 95.21875 16.796875 95.496094 17.0625 96.003906 17.511719 C 96.511719 17.957031 96.917969 18.25 97.289062 18.402344 C 97.660156 18.550781 97.890625 18.734375 98.027344 19.035156 C 98.175781 19.269531 98.390625 19.519531 98.761719 19.667969 C 99.070312 19.804688 99.460938 20.160156 99.839844 20.582031 C 100.203125 21.066406 100.597656 21.421875 101.003906 21.714844 C 101.410156 22.007812 101.691406 22.269531 101.824219 22.570312 C 101.976562 22.804688 102.253906 23.066406 102.726562 23.375 C 103.195312 23.679688 103.425781 23.867188 103.511719 24.085938 C 103.597656 24.308594 103.761719 24.480469 103.988281 24.664062 C 104.21875 24.847656 104.320312 25.007812 104.40625 25.226562 C 104.425781 25.433594 104.539062 25.527344 104.605469 25.539062 C 104.667969 25.554688 104.882812 25.804688 105.132812 26.195312 C 105.382812 26.585938 105.535156 26.824219 105.597656 26.835938 C 105.660156 26.851562 105.660156 26.851562 105.726562 26.863281 C 105.726562 26.863281 105.710938 26.929688 105.710938 26.929688 C 105.699219 26.992188 105.699219 26.992188 105.683594 27.058594 C 105.746094 27.070312 105.8125 27.085938 105.875 27.101562 C 106.003906 27.128906 106.183594 27.234375 106.410156 27.421875 C 106.640625 27.605469 106.742188 27.761719 106.726562 27.828125 C 106.726562 27.828125 106.710938 27.890625 106.699219 27.957031 C 106.761719 27.96875 106.839844 27.917969 106.839844 27.917969 C 106.90625 27.933594 106.90625 27.933594 106.984375 27.882812 C 106.96875 27.949219 107.019531 28.027344 107.019531 28.027344 C 106.992188 28.15625 107.105469 28.246094 107.234375 28.277344 C 107.363281 28.304688 107.398438 28.445312 107.367188 28.574219 C 107.339844 28.703125 107.492188 28.9375 107.753906 29.265625 C 108.019531 29.59375 108.167969 29.828125 108.15625 29.894531 C 108.140625 29.957031 108.304688 30.128906 108.582031 30.390625 C 108.863281 30.65625 109.191406 30.996094 109.539062 31.546875 C 109.839844 32.015625 110.105469 32.34375 110.363281 32.398438 C 110.554688 32.441406 110.667969 32.535156 110.65625 32.601562 C 110.640625 32.664062 110.640625 32.664062 110.625 32.726562 C 110.691406 32.742188 110.691406 32.742188 110.769531 32.691406 C 110.832031 32.707031 110.960938 32.734375 111.0625 32.890625 C 111.226562 33.0625 111.246094 33.269531 111.269531 33.476562 C 111.277344 33.746094 111.476562 34.058594 111.855469 34.480469 C 112.234375 34.902344 112.449219 35.148438 112.578125 35.179688 C 112.707031 35.207031 112.90625 35.519531 113.242188 36.132812 C 113.578125 36.746094 113.828125 37.136719 114.070312 37.257812 C 114.25 37.367188 114.414062 37.535156 114.449219 37.679688 C 114.484375 37.820312 114.519531 37.964844 114.585938 37.976562 C 114.648438 37.992188 114.648438 37.992188 114.710938 38.007812 C 114.699219 38.070312 114.667969 38.199219 114.65625 38.261719 C 114.613281 38.453125 114.699219 38.675781 114.914062 38.925781 C 115.128906 39.175781 115.292969 39.34375 115.355469 39.359375 C 115.421875 39.375 115.785156 39.859375 116.320312 40.785156 C 116.855469 41.710938 117.386719 42.363281 117.828125 42.800781 C 118.335938 43.25 118.585938 43.640625 118.59375 43.910156 C 118.664062 44.195312 118.847656 44.574219 119.148438 45.042969 C 119.527344 45.464844 119.714844 45.839844 119.800781 46.0625 C 119.886719 46.28125 120.085938 46.597656 120.363281 46.859375 C 120.644531 47.125 120.84375 47.4375 120.964844 47.800781 C 121.085938 48.164062 121.257812 48.605469 121.59375 49.214844 C 121.929688 49.828125 122.113281 50.207031 122.085938 50.335938 C 122.042969 50.527344 122.144531 50.683594 122.242188 50.839844 C 122.34375 50.996094 122.457031 51.089844 122.636719 51.195312 C 122.816406 51.304688 122.914062 51.460938 123 51.679688 C 123.070312 51.964844 123.1875 52.058594 123.25 52.074219 C 123.316406 52.085938 123.480469 52.257812 123.679688 52.570312 C 123.878906 52.882812 123.949219 53.167969 123.972656 53.375 C 123.914062 53.632812 124.152344 54.089844 124.652344 54.871094 C 125.101562 55.578125 125.421875 56.253906 125.53125 56.679688 C 125.636719 57.105469 125.824219 57.484375 125.988281 57.65625 C 126.152344 57.828125 126.222656 58.113281 126.28125 58.460938 C 126.339844 58.808594 126.359375 59.015625 126.425781 59.03125 C 126.539062 59.121094 126.589844 59.199219 126.609375 59.40625 C 126.632812 59.613281 126.730469 59.769531 126.859375 59.800781 C 126.972656 59.890625 127.089844 59.984375 127.109375 60.191406 C 127.195312 60.410156 127.296875 60.566406 127.511719 60.816406 C 127.738281 61.003906 127.773438 61.144531 127.730469 61.335938 C 127.6875 61.53125 127.722656 61.671875 127.839844 61.765625 C 127.867188 61.636719 127.917969 61.714844 127.839844 61.765625 C 127.761719 61.8125 127.796875 61.957031 127.867188 62.242188 C 127.953125 62.460938 128.039062 62.683594 128.074219 62.824219 C 128.175781 62.980469 128.226562 63.058594 128.289062 63.074219 C 128.417969 63.101562 128.453125 63.246094 128.476562 63.453125 C 128.496094 63.660156 128.617188 64.023438 128.933594 64.429688 C 129.167969 64.882812 129.355469 65.261719 129.347656 65.59375 C 129.339844 65.929688 129.488281 66.164062 129.71875 66.351562 C 129.882812 66.519531 130.03125 66.757812 130.039062 67.027344 C 130.046875 67.296875 130.132812 67.519531 130.234375 67.675781 C 130.398438 67.847656 130.417969 68.050781 130.476562 68.402344 C 130.535156 68.75 130.554688 68.957031 130.605469 69.035156 C 130.65625 69.113281 130.769531 69.207031 130.832031 69.21875 C 130.898438 69.234375 130.910156 69.171875 130.976562 69.183594 C 131.046875 69.46875 131.054688 69.738281 131.078125 69.945312 C 131.15625 70.5 131.339844 70.878906 131.542969 71.191406 C 131.742188 71.503906 131.878906 71.804688 131.855469 72.203125 C 131.835938 72.601562 131.855469 72.808594 131.984375 72.835938 C 132.113281 72.867188 132.164062 72.945312 132.121094 73.136719 C 132.078125 73.328125 132.191406 73.421875 132.304688 73.511719 C 132.433594 73.542969 132.519531 73.761719 132.5625 74.175781 C 132.621094 74.523438 132.691406 74.808594 132.855469 74.980469 C 133.019531 75.152344 133.078125 75.5 133.15625 76.054688 C 133.234375 76.609375 133.292969 76.960938 133.394531 77.117188 C 133.492188 77.273438 133.542969 77.351562 133.464844 77.402344 C 133.449219 77.464844 133.535156 77.6875 133.722656 78.0625 C 133.972656 78.453125 134.042969 78.738281 134.050781 79.011719 C 134.058594 79.28125 134.09375 79.421875 134.15625 79.4375 C 134.222656 79.453125 134.324219 79.609375 134.457031 79.90625 C 134.59375 80.207031 134.636719 80.621094 134.601562 81.082031 C 134.617188 81.621094 134.738281 81.984375 134.9375 82.300781 C 135.203125 82.628906 135.273438 82.910156 135.230469 83.105469 C 135.171875 83.359375 135.257812 83.582031 135.332031 83.867188 C 135.464844 84.164062 135.550781 84.386719 135.507812 84.578125 C 135.46875 84.769531 135.550781 84.992188 135.703125 85.226562 C 135.851562 85.460938 135.910156 85.808594 135.953125 86.222656 C 135.996094 86.636719 135.9375 86.890625 135.859375 86.941406 C 135.78125 86.992188 135.726562 87.246094 135.640625 87.632812 C 135.617188 88.03125 135.484375 88.335938 135.375 88.515625 C 135.203125 88.675781 135.148438 88.933594 135.105469 89.125 C 135.078125 89.253906 135.046875 89.382812 135.097656 89.460938 C 135.097656 89.460938 135.035156 89.445312 134.96875 89.433594 C 134.90625 89.417969 134.734375 89.582031 134.46875 89.859375 C 134.207031 90.136719 133.890625 90.335938 133.671875 90.417969 C 133.371094 90.554688 132.96875 90.53125 132.507812 90.496094 C 132.042969 90.460938 131.691406 90.515625 131.421875 90.523438 C 131.199219 90.609375 130.878906 90.539062 130.570312 90.402344 C 130.277344 90.203125 130.023438 90.144531 129.894531 90.117188 C 129.828125 90.101562 129.75 90.152344 129.6875 90.136719 C 129.6875 90.136719 129.699219 90.074219 129.699219 90.074219 C 129.714844 90.011719 129.421875 89.808594 128.773438 89.398438 C 128.171875 89.0625 127.828125 88.785156 127.84375 88.71875 C 127.859375 88.65625 127.808594 88.578125 127.613281 88.535156 C 127.421875 88.492188 127.320312 88.335938 127.15625 88.164062 C 127.007812 87.929688 126.894531 87.835938 126.75 87.871094 C 126.609375 87.90625 126.507812 87.75 126.28125 87.566406 C 126.050781 87.378906 125.820312 87.195312 125.53125 86.996094 C 125.15625 86.84375 124.992188 86.675781 124.957031 86.53125 C 124.921875 86.390625 124.707031 86.140625 124.25 85.769531 C 123.792969 85.398438 123.53125 85.070312 123.316406 84.820312 C 123.179688 84.523438 123.066406 84.429688 122.9375 84.402344 C 122.792969 84.4375 122.742188 84.359375 122.695312 84.28125 C 122.644531 84.203125 122.53125 84.109375 122.402344 84.082031 C 122.273438 84.050781 121.964844 83.917969 121.621094 83.640625 C 121.28125 83.359375 120.902344 82.941406 120.523438 82.519531 C 120.15625 82.035156 119.828125 81.695312 119.457031 81.542969 C 119.101562 81.328125 118.695312 81.039062 118.136719 80.511719 C 117.628906 80.0625 117.042969 79.664062 116.496094 79.40625 C 115.945312 79.148438 115.652344 78.949219 115.515625 78.648438 C 115.429688 78.429688 115.316406 78.335938 115.25 78.324219 C 115.121094 78.292969 115.007812 78.203125 114.792969 77.953125 C 114.582031 77.703125 114.351562 77.515625 114.160156 77.472656 C 113.980469 77.367188 113.738281 77.246094 113.523438 76.996094 C 113.308594 76.746094 113.195312 76.65625 113.207031 76.589844 C 113.222656 76.527344 113.222656 76.527344 113.238281 76.460938 C 113.109375 76.433594 112.980469 76.40625 112.835938 76.441406 C 112.566406 76.449219 112.324219 76.328125 112.160156 76.15625 C 111.980469 76.046875 111.816406 75.878906 111.730469 75.65625 C 111.644531 75.4375 111.402344 75.316406 111.042969 75.101562 C 110.6875 74.886719 110.445312 74.765625 110.394531 74.6875 C 110.296875 74.53125 110.050781 74.410156 109.539062 74.296875 C 109.039062 74.117188 108.796875 73.996094 108.746094 73.917969 C 108.695312 73.839844 108.59375 73.683594 108.316406 73.417969 C 108.039062 73.15625 107.84375 73.113281 107.71875 73.082031 C 107.589844 73.054688 107.34375 72.933594 106.9375 72.640625 C 106.53125 72.347656 106.289062 72.226562 106.222656 72.214844 C 106.160156 72.199219 106.046875 72.105469 105.945312 71.949219 C 105.847656 71.792969 105.679688 71.621094 105.488281 71.578125 C 105.296875 71.535156 105.054688 71.414062 104.839844 71.164062 C 104.625 70.917969 104.1875 70.753906 103.753906 70.589844 C 103.316406 70.425781 102.960938 70.210938 102.761719 69.898438 C 102.558594 69.582031 102.316406 69.460938 101.996094 69.390625 C 101.675781 69.320312 101.433594 69.199219 101.28125 68.960938 C 101.066406 68.714844 100.710938 68.5 100.148438 68.308594 C 99.597656 68.050781 99.160156 67.886719 98.996094 67.714844 C 98.769531 67.53125 98.398438 67.378906 97.898438 67.203125 C 97.398438 67.023438 96.976562 66.792969 96.699219 66.53125 C 96.433594 66.203125 96.074219 65.988281 95.769531 65.855469 C 95.460938 65.71875 95.285156 65.613281 95.296875 65.546875 C 95.3125 65.484375 95.132812 65.375 94.761719 65.226562 C 94.390625 65.078125 94.148438 64.957031 94.113281 64.8125 C 94.011719 64.65625 93.882812 64.628906 93.742188 64.664062 C 93.535156 64.683594 93.339844 64.640625 93.113281 64.457031 C 92.882812 64.269531 92.707031 64.164062 92.625 64.214844 C 92.546875 64.261719 92.5 64.183594 92.382812 64.09375 C 92.285156 63.9375 92.105469 63.828125 91.796875 63.691406 C 91.492188 63.558594 91.132812 63.34375 90.855469 63.082031 C 90.511719 62.800781 90.140625 62.652344 89.691406 62.550781 C 89.242188 62.453125 88.933594 62.316406 88.628906 62.179688 C 88.320312 62.046875 88.21875 61.890625 88.183594 61.746094 C 88.148438 61.605469 88.035156 61.511719 87.90625 61.484375 C 87.777344 61.453125 87.648438 61.425781 87.597656 61.347656 C 87.613281 61.285156 87.304688 61.148438 86.792969 61.035156 C 86.277344 60.917969 85.921875 60.703125 85.707031 60.457031 C 85.492188 60.207031 85.199219 60.007812 84.878906 59.933594 C 84.570312 59.800781 84.328125 59.679688 84.226562 59.523438 C 84.128906 59.363281 84.015625 59.273438 83.9375 59.320312 C 83.871094 59.308594 83.679688 59.265625 83.515625 59.09375 C 83.351562 58.921875 83.171875 58.816406 83.042969 58.789062 C 82.914062 58.757812 82.734375 58.652344 82.636719 58.496094 C 82.535156 58.339844 82.355469 58.230469 82.050781 58.097656 C 81.730469 58.023438 81.566406 57.855469 81.398438 57.683594 C 81.234375 57.511719 80.992188 57.390625 80.734375 57.332031 C 80.480469 57.277344 80.300781 57.167969 80.152344 56.933594 C 80 56.699219 79.757812 56.578125 79.320312 56.414062 C 78.886719 56.25 78.644531 56.128906 78.671875 56 C 78.699219 55.871094 78.394531 55.738281 77.90625 55.492188 C 77.359375 55.238281 77.066406 55.039062 76.914062 54.800781 C 76.765625 54.566406 76.585938 54.460938 76.34375 54.339844 C 76.035156 54.203125 75.742188 54.003906 75.453125 53.804688 C 75.109375 53.527344 74.945312 53.355469 74.894531 53.277344 C 74.859375 53.136719 74.664062 53.09375 74.34375 53.019531 C 74.023438 52.949219 73.78125 52.828125 73.695312 52.605469 C 73.609375 52.386719 73.429688 52.28125 73.1875 52.15625 C 72.945312 52.035156 72.714844 51.851562 72.566406 51.617188 C 72.414062 51.382812 72.007812 51.089844 71.359375 50.675781 C 70.707031 50.261719 70.429688 50 70.445312 49.933594 C 70.457031 49.871094 70.457031 49.871094 70.472656 49.804688 C 70.410156 49.792969 70.34375 49.777344 70.34375 49.777344 C 70.28125 49.761719 70.066406 49.515625 69.75 49.109375 C 69.4375 48.703125 69.160156 48.4375 68.964844 48.394531 C 68.773438 48.351562 68.542969 48.167969 68.394531 47.933594 C 68.246094 47.699219 68.082031 47.527344 67.886719 47.484375 C 67.824219 47.46875 67.695312 47.441406 67.628906 47.425781 C 67.628906 47.425781 67.644531 47.363281 67.644531 47.363281 C 67.660156 47.296875 67.609375 47.21875 67.445312 47.050781 C 67.28125 46.878906 67.179688 46.722656 67.109375 46.4375 C 67.101562 46.164062 66.9375 45.996094 66.695312 45.875 C 66.453125 45.753906 66.351562 45.597656 66.25 45.4375 C 66.152344 45.28125 66.050781 45.125 65.792969 45.070312 C 65.617188 44.960938 65.5 44.867188 65.480469 44.664062 C 65.445312 44.519531 65.457031 44.457031 65.472656 44.390625 C 65.410156 44.378906 65.34375 44.363281 65.332031 44.425781 C 65.25 44.476562 65.085938 44.304688 64.792969 44.105469 C 64.5 43.90625 64.351562 43.671875 64.203125 43.4375 C 64.050781 43.203125 63.964844 42.980469 63.996094 42.851562 C 64.035156 42.660156 63.824219 42.410156 63.480469 42.132812 C 63.136719 41.855469 63 41.554688 62.929688 41.273438 C 62.859375 40.988281 62.835938 40.78125 62.738281 40.625 C 62.636719 40.46875 62.472656 40.296875 62.40625 40.28125 C 62.34375 40.269531 62.34375 40.269531 62.28125 40.253906 C 62.28125 40.253906 62.292969 40.1875 62.292969 40.1875 C 62.308594 40.125 62.09375 39.875 61.601562 39.363281 C 61.09375 38.914062 60.90625 38.535156 60.886719 38.332031 C 60.863281 38.125 60.777344 37.902344 60.613281 37.730469 C 60.449219 37.5625 60.363281 37.339844 60.34375 37.132812 C 60.320312 36.925781 60.285156 36.785156 60.15625 36.757812 C 60.027344 36.726562 59.894531 36.429688 59.671875 35.910156 C 59.4375 35.453125 59.300781 35.152344 59.328125 35.027344 C 59.34375 34.960938 59.355469 34.898438 59.355469 34.898438 C 59.355469 34.898438 59.292969 34.882812 59.292969 34.882812 C 59.292969 34.882812 59.230469 34.871094 59.230469 34.871094 C 59.242188 34.804688 59.269531 34.675781 59.351562 34.628906 C 59.363281 34.5625 59.457031 34.449219 59.472656 34.386719 C 59.40625 34.371094 59.40625 34.371094 59.40625 34.371094 C 59.34375 34.355469 59.257812 34.136719 59.199219 33.789062 C 59.179688 33.582031 59.140625 33.4375 59.121094 33.230469 C 59.054688 33.21875 59.054688 33.21875 58.976562 33.265625 C 58.898438 33.316406 58.785156 33.222656 58.699219 33.003906 C 58.613281 32.78125 58.511719 32.625 58.527344 32.5625 C 58.542969 32.5 58.542969 32.5 58.554688 32.433594 C 58.492188 32.417969 58.492188 32.417969 58.429688 32.40625 C 58.429688 32.40625 58.363281 32.390625 58.363281 32.390625 C 58.390625 32.261719 58.46875 32.214844 58.5 32.085938 C 58.527344 31.957031 58.605469 31.90625 58.632812 31.78125 C 58.632812 31.78125 58.570312 31.765625 58.570312 31.765625 C 58.507812 31.75 58.421875 31.53125 58.234375 31.152344 C 58.113281 30.789062 58.054688 30.441406 58.113281 30.183594 C 58.167969 29.929688 58.148438 29.722656 58.125 29.515625 C 58.105469 29.308594 58.054688 29.230469 57.925781 29.203125 C 57.875 29.125 57.777344 28.96875 57.863281 28.582031 C 57.871094 28.25 57.910156 28.054688 57.847656 28.042969 C 57.785156 28.027344 57.746094 27.886719 57.820312 27.566406 C 57.875 27.308594 57.855469 27.101562 57.789062 27.089844 C 57.726562 27.074219 57.726562 27.074219 57.660156 27.058594 C 57.691406 26.929688 57.703125 26.867188 57.734375 26.738281 C 57.777344 26.546875 57.769531 26.277344 57.648438 25.914062 C 57.523438 25.550781 57.53125 25.214844 57.589844 24.960938 C 57.644531 24.703125 57.753906 24.527344 57.832031 24.476562 C 57.894531 24.488281 57.953125 24.234375 58.054688 23.785156 C 58.152344 23.335938 58.144531 23.066406 58.175781 22.9375 C 58.136719 22.796875 58.179688 22.605469 58.289062 22.425781 C 58.394531 22.25 58.523438 21.671875 58.75 20.648438 C 58.964844 19.6875 59.371094 18.769531 59.941406 18.023438 C 60.511719 17.273438 60.847656 16.675781 61.027344 16.179688 C 61.203125 15.679688 61.328125 15.441406 61.453125 15.46875 C 61.519531 15.484375 61.582031 15.496094 61.597656 15.433594 C 61.597656 15.433594 61.546875 15.355469 61.546875 15.355469 C 61.496094 15.277344 61.65625 15.175781 61.890625 15.027344 C 62.125 14.878906 62.3125 14.652344 62.496094 14.421875 C 62.617188 14.179688 62.933594 13.980469 63.308594 13.796875 C 63.753906 13.625 64.066406 13.429688 64.265625 13.136719 C 64.464844 12.84375 64.558594 12.730469 64.625 12.746094 C 64.6875 12.757812 64.78125 12.644531 64.824219 12.453125 C 64.867188 12.261719 65.085938 12.175781 65.386719 12.042969 C 65.671875 11.96875 65.972656 11.835938 66.238281 11.558594 C 66.566406 11.296875 66.785156 11.210938 66.992188 11.1875 C 67.199219 11.167969 67.421875 11.082031 67.605469 10.855469 C 67.792969 10.628906 67.949219 10.527344 68.15625 10.507812 C 68.351562 10.550781 68.648438 10.414062 69.121094 10.117188 C 69.640625 9.894531 70.085938 9.726562 70.417969 9.734375 C 70.820312 9.753906 71.089844 9.746094 71.3125 9.664062 C 71.519531 9.640625 71.675781 9.542969 71.691406 9.476562 C 71.785156 9.363281 71.925781 9.328125 72.132812 9.308594 C 72.339844 9.285156 72.484375 9.25 72.496094 9.1875 C 72.511719 9.121094 72.71875 9.101562 73.054688 9.109375 C 73.453125 9.132812 73.660156 9.109375 73.753906 8.996094 C 73.832031 8.945312 73.988281 8.847656 74.183594 8.890625 C 74.375 8.933594 74.519531 8.898438 74.53125 8.832031 C 74.546875 8.769531 74.546875 8.769531 74.558594 8.703125 C 74.753906 8.746094 74.882812 8.777344 75.058594 8.882812 C 75.445312 8.96875 75.703125 9.027344 75.925781 8.941406 C 76.144531 8.855469 76.6875 8.84375 77.566406 8.835938 C 78.445312 8.828125 79.230469 8.9375 79.886719 9.015625 C 80.59375 9.171875 80.914062 9.246094 80.902344 9.308594 C 80.949219 9.386719 81 9.464844 81.195312 9.507812 C 81.386719 9.550781 81.449219 9.566406 81.480469 9.4375 C 81.558594 9.386719 81.699219 9.351562 82.085938 9.4375 C 82.472656 9.523438 82.75 9.789062 82.914062 9.957031 Z M 57.542969 64.875 C 57.59375 64.953125 57.707031 65.046875 58.027344 65.117188 C 58.347656 65.191406 58.527344 65.296875 58.707031 65.402344 C 58.871094 65.574219 59.691406 65.824219 61.140625 66.28125 C 62.589844 66.738281 63.414062 66.988281 63.527344 67.082031 C 63.707031 67.1875 63.753906 67.265625 63.804688 67.34375 C 63.839844 67.488281 64.210938 67.636719 64.855469 67.78125 C 65.546875 68 65.984375 68.167969 66.148438 68.335938 C 66.3125 68.507812 66.539062 68.691406 66.8125 68.6875 C 67.082031 68.679688 67.195312 68.773438 67.3125 68.863281 C 67.363281 68.941406 67.539062 69.050781 67.988281 69.148438 C 68.375 69.234375 68.683594 69.371094 69.003906 69.441406 C 69.3125 69.578125 69.488281 69.6875 69.476562 69.75 C 69.523438 69.828125 69.589844 69.84375 69.78125 69.886719 C 69.976562 69.929688 70.167969 69.972656 70.269531 70.128906 C 70.445312 70.234375 70.625 70.339844 70.882812 70.398438 C 71.140625 70.457031 71.367188 70.640625 71.660156 70.839844 C 71.875 71.089844 72.296875 71.320312 72.730469 71.484375 C 73.167969 71.648438 73.523438 71.859375 73.765625 71.980469 C 73.996094 72.167969 74.175781 72.273438 74.316406 72.238281 C 74.382812 72.253906 74.460938 72.203125 74.523438 72.21875 C 74.523438 72.21875 74.511719 72.28125 74.511719 72.28125 C 74.511719 72.28125 74.496094 72.34375 74.496094 72.34375 C 74.625 72.375 74.6875 72.386719 74.816406 72.417969 C 75.074219 72.472656 75.1875 72.566406 75.175781 72.632812 C 75.160156 72.695312 75.222656 72.710938 75.351562 72.738281 C 75.496094 72.703125 75.609375 72.796875 75.851562 72.917969 C 76.09375 73.039062 76.195312 73.195312 76.308594 73.285156 C 76.410156 73.445312 76.589844 73.550781 76.910156 73.621094 C 77.230469 73.695312 77.460938 73.878906 77.816406 74.09375 C 78.160156 74.371094 78.453125 74.570312 78.824219 74.71875 C 79.128906 74.855469 79.488281 75.070312 79.75 75.398438 C 80.03125 75.660156 80.5 75.96875 81.101562 76.300781 C 81.703125 76.636719 82.238281 76.957031 82.644531 77.25 C 83.050781 77.542969 83.34375 77.742188 83.601562 77.800781 C 83.859375 77.855469 84.136719 78.121094 84.578125 78.554688 C 85.023438 78.988281 85.480469 79.359375 86.15625 79.644531 C 86.835938 79.929688 87.195312 80.144531 87.277344 80.367188 C 87.363281 80.585938 87.65625 80.785156 88.207031 81.042969 C 88.757812 81.300781 89.035156 81.5625 89.25 81.8125 C 89.398438 82.046875 89.613281 82.296875 89.84375 82.484375 C 90.023438 82.589844 90.265625 82.710938 90.523438 82.769531 C 90.648438 82.796875 90.777344 82.824219 90.90625 82.855469 C 90.894531 82.917969 90.894531 82.917969 90.878906 82.980469 C 90.863281 83.046875 90.964844 83.203125 91.191406 83.386719 C 91.40625 83.636719 91.777344 83.785156 92.199219 84.015625 C 92.699219 84.195312 92.976562 84.457031 93.164062 84.835938 C 93.363281 85.148438 93.644531 85.410156 93.949219 85.546875 C 94.257812 85.683594 94.433594 85.789062 94.421875 85.855469 C 94.40625 85.917969 94.457031 85.996094 94.648438 86.039062 C 94.84375 86.082031 94.894531 86.160156 94.929688 86.300781 C 94.964844 86.445312 95.144531 86.550781 95.398438 86.609375 C 95.65625 86.667969 95.820312 86.835938 95.90625 87.058594 C 95.992188 87.277344 96.335938 87.558594 96.855469 87.941406 C 97.378906 88.328125 97.671875 88.527344 97.65625 88.589844 C 97.640625 88.652344 97.640625 88.652344 97.640625 88.652344 C 97.707031 88.667969 97.707031 88.667969 97.769531 88.683594 C 97.898438 88.710938 98.0625 88.882812 98.277344 89.132812 C 98.492188 89.382812 98.835938 89.660156 99.207031 89.808594 C 99.578125 89.957031 99.921875 90.238281 100.15625 90.691406 C 100.390625 91.148438 100.621094 91.332031 100.683594 91.347656 C 100.75 91.363281 100.828125 91.3125 100.828125 91.3125 C 100.8125 91.375 100.8125 91.375 100.8125 91.375 C 100.800781 91.441406 100.800781 91.441406 100.785156 91.503906 C 100.847656 91.519531 100.914062 91.53125 100.976562 91.546875 C 101.105469 91.574219 101.285156 91.683594 101.433594 91.917969 C 101.585938 92.152344 101.765625 92.261719 101.734375 92.386719 C 101.769531 92.53125 101.886719 92.625 102.191406 92.757812 C 102.5 92.894531 102.613281 92.988281 102.597656 93.050781 C 102.585938 93.113281 102.585938 93.113281 102.570312 93.179688 C 102.636719 93.191406 102.714844 93.144531 102.714844 93.144531 C 102.84375 93.171875 103.007812 93.34375 103.304688 93.8125 C 103.605469 94.285156 104 94.640625 104.535156 94.960938 C 105.007812 95.265625 105.363281 95.480469 105.449219 95.703125 C 105.535156 95.921875 105.761719 96.109375 105.992188 96.292969 C 106.234375 96.414062 106.386719 96.648438 106.378906 96.984375 C 106.433594 97.332031 106.472656 97.476562 106.585938 97.566406 C 106.699219 97.660156 106.785156 97.882812 106.972656 98.257812 C 107.09375 98.621094 107.191406 98.777344 107.257812 98.792969 C 107.320312 98.808594 107.335938 98.742188 107.398438 98.757812 C 107.386719 98.820312 107.320312 98.808594 107.308594 98.871094 C 107.277344 99 107.300781 99.207031 107.421875 99.570312 C 107.542969 99.933594 107.585938 100.34375 107.550781 100.808594 C 107.515625 101.269531 107.351562 101.703125 107.121094 102.125 C 106.894531 102.542969 106.550781 102.871094 106.222656 103.132812 C 105.894531 103.394531 105.722656 103.558594 105.773438 103.636719 C 105.824219 103.714844 105.601562 103.800781 105.160156 103.972656 C 104.78125 104.15625 104.511719 104.164062 104.460938 104.085938 C 104.394531 104.070312 104.269531 104.042969 104.175781 104.15625 C 104.019531 104.253906 103.8125 104.277344 103.488281 104.207031 C 103.359375 104.175781 103.167969 104.132812 103.039062 104.105469 C 103.027344 104.167969 103.027344 104.167969 103.027344 104.167969 C 103.027344 104.167969 103.011719 104.234375 102.996094 104.296875 C 102.933594 104.28125 102.882812 104.203125 102.820312 104.191406 C 102.691406 104.160156 102.496094 104.117188 102.277344 104.203125 C 102.070312 104.226562 101.847656 104.3125 101.832031 104.375 C 101.753906 104.425781 101.613281 104.460938 101.355469 104.402344 C 101.097656 104.34375 100.828125 104.351562 100.621094 104.375 C 100.398438 104.457031 100.0625 104.449219 99.742188 104.378906 C 99.421875 104.308594 99.226562 104.265625 99.175781 104.1875 C 99.191406 104.121094 99.191406 104.121094 99.140625 104.042969 C 99.128906 104.109375 99.128906 104.109375 99.113281 104.171875 C 99.097656 104.238281 98.957031 104.273438 98.632812 104.199219 C 98.363281 104.207031 98.121094 104.085938 98.007812 103.992188 C 97.890625 103.902344 97.648438 103.78125 97.328125 103.707031 C 97.007812 103.636719 96.734375 103.644531 96.515625 103.730469 C 96.292969 103.8125 95.972656 103.742188 95.601562 103.59375 C 95.230469 103.441406 94.792969 103.277344 94.34375 103.179688 C 93.894531 103.078125 93.558594 103.070312 93.429688 103.042969 C 93.285156 103.078125 93.15625 103.050781 93.109375 102.972656 C 93.058594 102.890625 92.929688 102.863281 92.851562 102.914062 C 92.773438 102.964844 92.644531 102.933594 92.542969 102.777344 C 92.445312 102.621094 92.25 102.578125 92.058594 102.535156 C 91.800781 102.476562 91.59375 102.5 91.453125 102.535156 C 91.308594 102.570312 91.039062 102.578125 90.84375 102.535156 C 90.585938 102.476562 90.472656 102.382812 90.421875 102.304688 C 90.375 102.226562 90.308594 102.214844 90.167969 102.25 C 90.085938 102.296875 89.832031 102.242188 89.445312 102.15625 C 89.058594 102.070312 88.800781 102.011719 88.582031 102.097656 C 88.375 102.117188 88.101562 102.125 87.667969 101.960938 C 87.230469 101.796875 86.832031 101.777344 86.480469 101.832031 C 86.132812 101.890625 85.539062 101.824219 84.703125 101.636719 C 83.867188 101.453125 83.289062 101.324219 83.003906 101.394531 C 82.734375 101.402344 82.511719 101.488281 82.433594 101.535156 C 82.355469 101.585938 82.082031 101.59375 81.710938 101.445312 C 81.261719 101.34375 80.863281 101.320312 80.355469 101.476562 C 79.925781 101.582031 79.449219 101.613281 79.140625 101.476562 C 78.769531 101.328125 78.5 101.332031 78.277344 101.417969 C 78.058594 101.503906 77.785156 101.511719 77.464844 101.4375 C 77.144531 101.367188 76.855469 101.4375 76.507812 101.496094 C 76.207031 101.628906 75.921875 101.699219 75.601562 101.628906 C 75.28125 101.558594 75.023438 101.5 74.878906 101.535156 C 74.738281 101.570312 74.609375 101.542969 74.59375 101.605469 C 74.578125 101.671875 74.578125 101.671875 74.566406 101.734375 C 74.4375 101.707031 74.386719 101.628906 74.324219 101.613281 C 74.144531 101.507812 73.808594 101.5 73.316406 101.589844 C 72.824219 101.683594 72.539062 101.753906 72.523438 101.820312 C 72.445312 101.867188 72.222656 101.953125 71.839844 101.867188 C 71.453125 101.78125 71.023438 101.886719 70.515625 102.042969 C 70.074219 102.214844 69.597656 102.242188 69.261719 102.234375 C 68.859375 102.214844 68.652344 102.234375 68.496094 102.335938 C 68.339844 102.433594 68.070312 102.441406 67.734375 102.433594 C 67.332031 102.410156 66.984375 102.46875 66.492188 102.558594 C 66.046875 102.730469 65.570312 102.757812 65.105469 102.722656 C 64.640625 102.6875 64.355469 102.757812 64.136719 102.84375 C 63.964844 103.007812 63.679688 103.078125 63.3125 103.199219 C 62.949219 103.316406 62.742188 103.339844 62.730469 103.402344 C 62.730469 103.402344 62.714844 103.46875 62.714844 103.46875 C 62.523438 103.425781 62.328125 103.382812 62.199219 103.351562 C 61.816406 103.265625 61.542969 103.273438 61.242188 103.410156 C 60.945312 103.542969 60.671875 103.550781 60.414062 103.492188 C 60.285156 103.464844 60.160156 103.4375 60.03125 103.40625 C 60.015625 103.472656 60.015625 103.472656 60.015625 103.472656 C 60 103.535156 60 103.535156 59.988281 103.601562 C 59.921875 103.585938 59.9375 103.519531 59.871094 103.507812 C 59.757812 103.414062 59.550781 103.4375 59.136719 103.476562 C 58.722656 103.519531 58.503906 103.605469 58.421875 103.65625 C 58.34375 103.703125 58.1875 103.804688 57.902344 103.875 C 57.617188 103.945312 57.265625 104.003906 56.816406 103.902344 C 56.351562 103.867188 56.066406 103.9375 55.847656 104.023438 C 55.675781 104.1875 55.46875 104.207031 55.210938 104.148438 C 54.953125 104.09375 54.746094 104.113281 54.667969 104.164062 C 54.511719 104.261719 54.445312 104.25 54.382812 104.234375 C 54.320312 104.21875 54.332031 104.15625 54.269531 104.140625 C 54.253906 104.207031 54.238281 104.269531 54.175781 104.257812 C 54.097656 104.304688 53.953125 104.339844 53.648438 104.207031 C 53.390625 104.148438 53.199219 104.105469 53.105469 104.21875 C 53.027344 104.269531 52.949219 104.320312 52.832031 104.226562 C 52.71875 104.132812 52.578125 104.167969 52.289062 104.238281 C 52.003906 104.3125 51.734375 104.316406 51.347656 104.230469 C 51.15625 104.1875 51.027344 104.160156 50.835938 104.117188 C 50.835938 104.117188 50.820312 104.179688 50.820312 104.179688 C 50.804688 104.246094 50.726562 104.296875 50.519531 104.316406 C 50.3125 104.335938 50.121094 104.292969 49.863281 104.238281 C 49.605469 104.179688 49.269531 104.171875 48.84375 104.277344 C 48.414062 104.386719 48.015625 104.363281 47.691406 104.292969 C 47.371094 104.222656 47.101562 104.226562 46.894531 104.25 C 46.6875 104.269531 46.609375 104.320312 46.578125 104.449219 C 46.5 104.496094 46.34375 104.597656 46.136719 104.617188 C 45.867188 104.625 45.414062 104.523438 44.644531 104.351562 C 43.875 104.183594 43.421875 104.082031 43.28125 104.117188 C 43.136719 104.152344 43.007812 104.125 42.753906 104.066406 C 42.496094 104.007812 42.429688 103.996094 42.417969 104.058594 C 42.339844 104.109375 41.679688 104.03125 40.332031 103.730469 C 38.980469 103.429688 38.226562 103.195312 38.109375 103.101562 C 37.933594 102.996094 37.816406 102.902344 37.609375 102.921875 C 37.402344 102.945312 37.019531 102.859375 36.503906 102.742188 C 35.988281 102.628906 35.683594 102.492188 35.648438 102.351562 C 35.597656 102.273438 35.417969 102.164062 35.097656 102.09375 C 34.96875 102.066406 34.839844 102.039062 34.648438 101.996094 C 34.660156 101.929688 34.660156 101.929688 34.675781 101.867188 C 34.675781 101.867188 34.691406 101.800781 34.691406 101.800781 C 34.625 101.789062 34.613281 101.851562 34.613281 101.851562 C 34.535156 101.902344 34.355469 101.792969 34.125 101.609375 C 33.898438 101.425781 33.589844 101.289062 33.269531 101.21875 C 32.949219 101.144531 32.640625 101.011719 32.425781 100.761719 C 32.210938 100.511719 31.96875 100.390625 31.648438 100.320312 C 31.40625 100.199219 31.097656 100.0625 30.949219 99.828125 C 30.734375 99.578125 30.503906 99.390625 30.132812 99.242188 C 29.761719 99.09375 29.585938 98.984375 29.484375 98.828125 C 29.449219 98.6875 29.269531 98.578125 29.042969 98.394531 C 28.796875 98.273438 28.570312 98.085938 28.535156 97.945312 C 28.5 97.804688 28.207031 97.601562 27.734375 97.296875 C 27.261719 96.992188 26.984375 96.726562 26.863281 96.363281 C 26.726562 96.066406 26.277344 95.359375 25.40625 94.425781 C 24.46875 93.476562 24.070312 92.851562 24.0625 92.582031 C 24.054688 92.3125 23.90625 92.074219 23.640625 91.746094 C 23.296875 91.46875 23.113281 91.09375 23.054688 90.742188 C 22.949219 90.316406 22.910156 90.175781 22.847656 90.160156 C 22.785156 90.144531 22.785156 90.144531 22.785156 90.144531 C 22.796875 90.082031 22.8125 90.015625 22.824219 89.953125 C 22.855469 89.824219 22.71875 89.527344 22.433594 88.992188 C 22.132812 88.523438 22.039062 88.03125 22.011719 87.554688 C 22.046875 87.089844 22.003906 86.679688 21.804688 86.363281 C 21.601562 86.050781 21.609375 85.71875 21.710938 85.269531 C 21.796875 84.882812 21.804688 84.550781 21.753906 84.472656 C 21.636719 84.378906 21.667969 84.25 21.679688 84.1875 C 21.773438 84.074219 21.703125 83.789062 21.660156 83.375 C 21.566406 82.882812 21.585938 82.484375 21.6875 82.039062 C 21.789062 81.589844 21.84375 81.332031 21.910156 81.347656 C 21.972656 81.363281 21.988281 81.296875 22.050781 81.3125 C 22.03125 81.105469 21.929688 80.949219 21.90625 80.742188 C 21.785156 80.378906 21.792969 80.042969 21.945312 79.675781 C 22.09375 79.304688 22.121094 79.175781 22.1875 79.191406 C 22.25 79.203125 22.34375 79.089844 22.386719 78.898438 C 22.492188 78.722656 22.484375 78.449219 22.507812 78.050781 C 22.464844 77.640625 22.507812 77.445312 22.570312 77.460938 C 22.648438 77.410156 22.664062 77.347656 22.707031 77.15625 C 22.75 76.964844 22.792969 76.769531 23.003906 76.414062 C 23.21875 76.058594 23.371094 75.691406 23.535156 75.253906 C 23.710938 74.757812 23.847656 74.453125 24.070312 74.367188 C 24.289062 74.28125 24.410156 74.039062 24.453125 73.847656 C 24.574219 73.605469 24.589844 73.542969 24.652344 73.554688 C 24.71875 73.570312 24.71875 73.570312 24.78125 73.585938 C 24.730469 73.507812 24.730469 73.507812 24.683594 73.425781 C 24.695312 73.363281 24.648438 73.285156 24.648438 73.285156 C 24.710938 73.300781 24.726562 73.234375 24.726562 73.234375 C 24.804688 73.1875 24.910156 73.007812 25.046875 72.703125 C 25.183594 72.394531 25.445312 72.117188 25.757812 71.917969 C 26.074219 71.722656 26.273438 71.429688 26.410156 71.125 C 26.542969 70.816406 26.585938 70.625 26.652344 70.640625 C 26.714844 70.652344 26.808594 70.539062 26.851562 70.347656 C 26.972656 70.105469 27.144531 69.941406 27.394531 69.730469 C 27.644531 69.515625 27.894531 69.300781 28 69.125 C 28.121094 68.882812 28.199219 68.832031 28.265625 68.847656 C 28.328125 68.863281 28.4375 68.683594 28.570312 68.378906 C 28.722656 68.007812 28.8125 67.894531 28.941406 67.921875 C 29.070312 67.953125 29.242188 67.789062 29.585938 67.460938 C 29.925781 67.132812 30.175781 66.921875 30.476562 66.785156 C 30.777344 66.652344 30.949219 66.488281 31.054688 66.308594 C 31.175781 66.066406 31.191406 66.003906 31.320312 66.03125 C 31.382812 66.046875 31.382812 66.046875 31.449219 66.058594 C 31.460938 65.996094 31.460938 65.996094 31.476562 65.933594 C 31.492188 65.867188 31.503906 65.804688 31.503906 65.804688 C 31.570312 65.820312 31.632812 65.832031 31.632812 65.832031 C 31.699219 65.847656 31.839844 65.8125 31.933594 65.699219 C 32.089844 65.597656 32.246094 65.5 32.582031 65.507812 C 32.726562 65.472656 32.867188 65.433594 33.0625 65.476562 C 33.074219 65.414062 33.074219 65.414062 33.011719 65.398438 C 32.960938 65.320312 33.132812 65.15625 33.382812 64.945312 C 33.695312 64.746094 33.929688 64.597656 34.152344 64.511719 C 34.375 64.425781 34.515625 64.390625 34.550781 64.53125 C 34.539062 64.597656 34.601562 64.613281 34.601562 64.613281 C 34.601562 64.613281 34.617188 64.546875 34.617188 64.546875 C 34.632812 64.484375 34.851562 64.398438 35.203125 64.339844 C 35.550781 64.285156 35.773438 64.199219 35.789062 64.136719 C 35.800781 64.070312 36.101562 63.9375 36.828125 63.695312 C 37.492188 63.441406 37.792969 63.304688 37.808594 63.242188 C 37.820312 63.175781 38.234375 63.132812 38.972656 63.164062 C 39.722656 63.128906 40.121094 63.152344 40.136719 63.085938 C 40.148438 63.023438 40.371094 62.9375 40.71875 62.878906 C 41.085938 62.761719 41.484375 62.78125 41.933594 62.882812 C 42.382812 62.980469 42.65625 62.976562 42.875 62.890625 C 43.097656 62.804688 43.304688 62.785156 43.703125 62.804688 C 44.105469 62.828125 44.3125 62.804688 44.519531 62.785156 C 44.726562 62.765625 44.933594 62.742188 45.238281 62.878906 C 45.5625 62.949219 45.753906 62.992188 45.769531 62.929688 C 45.78125 62.863281 45.988281 62.84375 46.375 62.929688 C 46.761719 63.015625 46.96875 62.992188 46.980469 62.929688 C 47.0625 62.878906 47.125 62.894531 47.304688 63 C 47.480469 63.109375 47.609375 63.136719 47.625 63.074219 C 47.640625 63.007812 47.832031 63.050781 48.089844 63.109375 C 48.332031 63.230469 48.601562 63.222656 48.808594 63.203125 C 49.09375 63.132812 49.417969 63.203125 49.929688 63.316406 C 50.445312 63.429688 50.753906 63.566406 50.929688 63.675781 C 51.109375 63.78125 51.238281 63.808594 51.378906 63.773438 C 51.523438 63.738281 52.179688 63.816406 53.402344 64.089844 C 54.558594 64.347656 55.25 64.566406 55.363281 64.660156 C 55.480469 64.753906 55.609375 64.78125 55.621094 64.71875 C 55.699219 64.667969 56.035156 64.675781 56.679688 64.820312 C 57.320312 64.960938 57.558594 64.8125 57.542969 64.875 Z M 110.164062 121.488281 C 110.152344 121.550781 110.152344 121.550781 110.136719 121.613281 C 110.394531 121.671875 110.652344 121.730469 110.84375 121.773438 C 111.359375 121.886719 111.601562 122.007812 111.714844 122.101562 C 111.816406 122.257812 111.945312 122.285156 112.074219 122.316406 C 112.214844 122.277344 112.394531 122.386719 112.570312 122.492188 C 112.816406 122.613281 113.1875 122.765625 113.699219 122.878906 C 114.214844 122.992188 114.523438 123.128906 114.507812 123.191406 C 114.542969 123.335938 114.785156 123.457031 115.285156 123.632812 C 115.785156 123.8125 116.09375 123.949219 116.0625 124.078125 C 116.101562 124.21875 116.226562 124.246094 116.421875 124.289062 C 116.628906 124.269531 116.742188 124.363281 116.792969 124.441406 C 116.84375 124.519531 116.941406 124.675781 117.183594 124.796875 C 117.429688 124.917969 117.578125 125.152344 117.636719 125.5 C 117.691406 125.851562 117.894531 126.164062 118.171875 126.425781 C 118.386719 126.675781 118.523438 126.976562 118.515625 127.3125 C 118.441406 127.632812 118.464844 127.835938 118.550781 128.058594 C 118.652344 128.214844 118.621094 128.34375 118.609375 128.40625 C 118.59375 128.472656 118.523438 128.792969 118.566406 129.203125 C 118.59375 129.679688 118.617188 129.886719 118.535156 129.9375 C 118.457031 129.988281 118.378906 130.035156 118.335938 130.230469 C 118.292969 130.421875 118.203125 130.535156 118.125 130.585938 C 118.042969 130.632812 117.875 130.796875 117.800781 131.117188 C 117.730469 131.4375 117.546875 131.664062 117.308594 131.816406 C 117.074219 131.964844 116.902344 132.128906 116.78125 132.371094 C 116.660156 132.613281 116.503906 132.710938 116.21875 132.78125 C 115.996094 132.867188 115.839844 132.964844 115.8125 133.09375 C 115.78125 133.222656 115.675781 133.402344 115.441406 133.550781 C 115.191406 133.761719 115.03125 133.863281 114.90625 133.835938 C 114.761719 133.871094 114.617188 133.90625 114.527344 134.019531 C 114.355469 134.183594 114.277344 134.230469 114.148438 134.203125 C 114.019531 134.175781 113.941406 134.226562 113.769531 134.386719 C 113.597656 134.550781 113.15625 134.722656 112.570312 134.929688 C 111.921875 135.121094 111.464844 135.355469 111.214844 135.566406 C 110.964844 135.78125 110.601562 135.902344 110.234375 136.023438 C 109.871094 136.140625 109.523438 136.199219 109.273438 136.414062 C 109.023438 136.625 108.800781 136.710938 108.53125 136.71875 C 108.257812 136.722656 108.101562 136.824219 108.023438 136.875 C 107.996094 137 107.835938 137.101562 107.710938 137.074219 C 107.503906 137.09375 107.34375 137.191406 107.175781 137.355469 C 107.003906 137.519531 106.859375 137.554688 106.730469 137.527344 C 106.601562 137.5 106.238281 137.621094 105.769531 137.917969 C 105.230469 138.203125 104.902344 138.464844 104.734375 138.628906 C 104.546875 138.855469 104.3125 139.003906 103.933594 139.191406 C 103.554688 139.375 103.164062 139.625 102.898438 139.902344 C 102.554688 140.226562 102.382812 140.390625 102.421875 140.535156 C 102.40625 140.597656 102.140625 140.875 101.542969 141.144531 C 100.941406 141.414062 100.679688 141.691406 100.648438 141.820312 C 100.621094 141.949219 100.449219 142.113281 100.070312 142.296875 C 99.695312 142.480469 99.507812 142.707031 99.386719 142.949219 C 99.265625 143.191406 99.082031 143.421875 98.6875 143.667969 C 98.296875 143.917969 98.125 144.082031 98.015625 144.257812 C 97.910156 144.4375 97.738281 144.601562 97.375 144.722656 C 97.011719 144.84375 96.746094 145.121094 96.625 145.359375 C 96.503906 145.601562 96.316406 145.832031 96.148438 145.992188 C 95.976562 146.15625 95.832031 146.191406 95.703125 146.164062 C 95.5625 146.199219 95.246094 146.398438 94.796875 146.902344 C 94.347656 147.410156 93.941406 147.722656 93.640625 147.855469 C 93.277344 147.976562 93.105469 148.140625 93.050781 148.398438 C 92.992188 148.652344 92.898438 148.765625 92.679688 148.851562 C 92.457031 148.9375 92.363281 149.050781 92.191406 149.214844 C 92.023438 149.378906 91.929688 149.492188 91.722656 149.511719 C 91.515625 149.535156 91.25 149.8125 90.816406 150.253906 C 90.378906 150.691406 90.128906 150.90625 89.921875 150.925781 C 89.714844 150.949219 89.558594 151.046875 89.359375 151.339844 C 89.160156 151.632812 88.988281 151.796875 88.84375 151.832031 C 88.703125 151.867188 88.46875 152.015625 88.21875 152.226562 C 87.96875 152.441406 87.71875 152.65625 87.433594 152.726562 C 87.210938 152.8125 86.976562 152.960938 86.710938 153.238281 C 86.449219 153.515625 86.210938 153.664062 85.992188 153.75 C 85.769531 153.835938 85.457031 154.035156 85.191406 154.3125 C 84.863281 154.574219 84.691406 154.738281 84.5625 154.710938 C 84.433594 154.679688 84.355469 154.730469 84.183594 154.894531 C 84.011719 155.058594 83.648438 155.179688 83 155.371094 C 82.351562 155.5625 81.957031 155.808594 81.644531 156.007812 C 81.394531 156.222656 81.15625 156.371094 80.949219 156.390625 C 80.742188 156.414062 80.652344 156.527344 80.464844 156.753906 C 80.359375 156.933594 80.058594 157.066406 79.710938 157.125 C 79.359375 157.179688 79.136719 157.265625 79.125 157.328125 C 79.109375 157.394531 78.953125 157.492188 78.746094 157.515625 C 78.539062 157.535156 78.332031 157.558594 78.203125 157.527344 C 78.074219 157.5 77.789062 157.570312 77.460938 157.832031 C 77.132812 158.097656 76.5625 158.238281 75.71875 158.386719 C 74.875 158.535156 74.304688 158.675781 74.054688 158.890625 C 73.742188 159.089844 73.457031 159.160156 73.054688 159.140625 C 72.65625 159.117188 72.449219 159.136719 72.421875 159.265625 C 72.390625 159.394531 72.234375 159.496094 72.011719 159.578125 C 71.792969 159.664062 71.363281 159.769531 70.769531 159.707031 C 70.242188 159.65625 69.621094 159.71875 69.050781 159.859375 C 68.480469 160.003906 67.792969 160.050781 66.996094 160.007812 C 66.195312 159.964844 65.714844 159.992188 65.558594 160.09375 C 65.402344 160.191406 65.132812 160.199219 64.667969 160.164062 C 64.203125 160.125 63.996094 160.148438 63.917969 160.199219 C 63.839844 160.246094 63.632812 160.269531 63.230469 160.246094 C 62.832031 160.226562 62.445312 160.140625 62.140625 160.003906 C 61.769531 159.855469 61.382812 159.769531 60.839844 159.78125 C 60.3125 159.730469 60.039062 159.738281 59.992188 159.660156 C 59.941406 159.582031 59.875 159.566406 59.683594 159.523438 C 59.492188 159.480469 59.234375 159.425781 59.003906 159.238281 C 58.761719 159.117188 58.453125 158.980469 58.121094 158.976562 C 57.785156 158.96875 57.539062 158.847656 57.3125 158.660156 C 57.148438 158.488281 56.710938 158.324219 56.148438 158.132812 C 55.570312 158.003906 55.132812 157.839844 55.019531 157.746094 C 54.839844 157.640625 54.742188 157.484375 54.589844 157.25 C 54.441406 157.011719 54.277344 156.84375 53.90625 156.691406 C 53.535156 156.542969 53.257812 156.28125 52.925781 155.9375 C 52.597656 155.59375 52.449219 155.359375 52.398438 155.28125 C 52.347656 155.203125 52.25 155.046875 52.007812 154.925781 C 51.761719 154.804688 51.675781 154.582031 51.640625 154.441406 C 51.605469 154.300781 51.46875 154 51.105469 153.515625 C 50.726562 153.09375 50.527344 152.78125 50.542969 152.71875 C 50.554688 152.652344 50.484375 152.367188 50.21875 152.042969 C 49.96875 151.648438 49.898438 151.363281 49.875 151.160156 C 49.871094 150.886719 49.734375 150.589844 49.535156 150.273438 C 49.332031 149.960938 49.140625 149.3125 49.039062 148.550781 C 48.953125 147.726562 48.796875 147.222656 48.660156 146.921875 C 48.460938 146.609375 48.453125 146.339844 48.5625 146.160156 C 48.605469 145.96875 48.660156 145.710938 48.589844 145.425781 C 48.582031 145.15625 48.589844 144.820312 48.710938 144.582031 C 48.832031 144.339844 48.839844 144.003906 48.78125 143.65625 C 48.671875 143.226562 48.773438 142.78125 48.914062 142.140625 C 49.058594 141.5 49.207031 141.128906 49.285156 141.078125 C 49.378906 140.964844 49.4375 140.707031 49.550781 140.195312 C 49.664062 139.683594 49.722656 139.429688 49.800781 139.378906 C 49.878906 139.328125 49.90625 139.199219 49.898438 138.929688 C 49.894531 138.660156 49.949219 138.402344 50.148438 138.113281 C 50.347656 137.820312 50.484375 137.515625 50.542969 137.257812 C 50.597656 137 50.71875 136.757812 50.957031 136.609375 C 51.191406 136.460938 51.25 136.203125 51.304688 135.949219 C 51.296875 135.679688 51.390625 135.566406 51.484375 135.449219 C 51.574219 135.335938 51.65625 135.289062 51.699219 135.09375 C 51.738281 134.902344 51.925781 134.675781 52.332031 134.363281 C 52.738281 134.050781 52.910156 133.886719 52.953125 133.695312 C 52.996094 133.5 53.074219 133.453125 53.140625 133.464844 C 53.21875 133.417969 53.480469 133.140625 53.867188 132.621094 C 54.203125 132.023438 54.542969 131.695312 54.859375 131.496094 C 55.09375 131.347656 55.265625 131.183594 55.359375 131.070312 C 55.449219 130.957031 55.609375 130.855469 55.894531 130.785156 C 56.179688 130.714844 56.335938 130.617188 56.363281 130.488281 C 56.394531 130.359375 56.484375 130.246094 56.722656 130.097656 C 56.957031 129.945312 57.035156 129.898438 57.0625 129.769531 C 57.09375 129.640625 57.390625 129.507812 57.929688 129.222656 C 58.527344 128.953125 58.777344 128.738281 58.871094 128.625 C 58.960938 128.511719 59.148438 128.285156 59.539062 128.035156 C 59.933594 127.785156 60.390625 127.550781 60.753906 127.429688 C 61.195312 127.261719 61.574219 127.074219 61.839844 126.796875 C 62.101562 126.519531 62.339844 126.371094 62.46875 126.402344 C 62.597656 126.429688 62.882812 126.359375 63.273438 126.109375 C 63.730469 125.875 63.953125 125.789062 64.082031 125.820312 C 64.210938 125.847656 64.367188 125.746094 64.550781 125.519531 C 64.738281 125.292969 64.972656 125.144531 65.246094 125.136719 C 65.515625 125.128906 65.75 124.980469 65.9375 124.753906 C 66.121094 124.523438 66.707031 124.320312 67.757812 124.148438 C 68.804688 123.980469 69.484375 123.660156 69.878906 123.410156 C 70.21875 123.085938 70.648438 122.976562 71.125 122.949219 C 71.589844 122.984375 71.953125 122.867188 72.253906 122.730469 C 72.554688 122.59375 72.917969 122.476562 73.410156 122.382812 C 73.902344 122.289062 74.265625 122.171875 74.46875 121.878906 C 74.71875 121.664062 74.9375 121.578125 75.273438 121.585938 C 75.546875 121.582031 75.738281 121.625 75.753906 121.558594 C 75.765625 121.496094 75.84375 121.445312 76.039062 121.488281 C 76.230469 121.53125 76.386719 121.433594 76.542969 121.332031 C 76.703125 121.234375 76.859375 121.132812 77.179688 121.203125 C 77.515625 121.210938 77.722656 121.191406 77.878906 121.09375 C 78.035156 120.992188 78.179688 120.957031 78.359375 121.0625 C 78.535156 121.171875 78.757812 121.085938 78.992188 120.9375 C 79.292969 120.800781 79.644531 120.746094 80.042969 120.765625 C 80.507812 120.800781 80.777344 120.796875 81 120.710938 C 81.222656 120.625 81.300781 120.574219 81.3125 120.511719 C 81.328125 120.449219 81.328125 120.449219 81.34375 120.382812 C 81.40625 120.398438 81.519531 120.492188 81.585938 120.503906 C 81.777344 120.546875 81.84375 120.5625 81.855469 120.496094 C 81.933594 120.449219 82.078125 120.414062 82.398438 120.484375 C 82.71875 120.554688 83.148438 120.449219 83.605469 120.214844 C 84.125 119.996094 84.554688 119.886719 84.875 119.960938 C 85.199219 120.03125 85.484375 119.960938 85.574219 119.847656 C 85.667969 119.734375 85.8125 119.699219 86.003906 119.742188 C 86.066406 119.753906 86.195312 119.785156 86.261719 119.796875 C 86.277344 119.734375 86.277344 119.734375 86.289062 119.667969 C 86.304688 119.605469 86.574219 119.597656 87.039062 119.632812 C 87.503906 119.671875 87.773438 119.664062 87.867188 119.550781 C 87.945312 119.5 88.21875 119.492188 88.667969 119.59375 C 89.117188 119.695312 89.386719 119.6875 89.546875 119.585938 C 89.703125 119.488281 89.84375 119.453125 90.101562 119.507812 C 90.359375 119.566406 90.503906 119.53125 90.710938 119.511719 C 90.929688 119.425781 91.25 119.496094 91.703125 119.597656 C 92.152344 119.695312 92.679688 119.746094 93.238281 119.667969 C 93.792969 119.589844 94.128906 119.597656 94.222656 119.484375 C 94.363281 119.449219 94.921875 119.371094 96.058594 119.421875 C 97.191406 119.472656 97.785156 119.539062 97.976562 119.582031 C 98.171875 119.625 98.296875 119.652344 98.519531 119.566406 C 98.664062 119.53125 98.804688 119.496094 98.984375 119.605469 C 99.164062 119.710938 99.226562 119.726562 99.304688 119.675781 C 99.320312 119.609375 99.589844 119.605469 100.003906 119.5625 C 100.417969 119.519531 100.804688 119.605469 101.175781 119.753906 C 101.546875 119.90625 101.804688 119.960938 102.039062 119.8125 C 102.261719 119.726562 102.855469 119.792969 103.789062 120.136719 C 104.738281 120.414062 105.316406 120.542969 105.410156 120.429688 C 105.566406 120.328125 106.210938 120.472656 107.496094 120.757812 C 108.765625 121.109375 109.550781 121.214844 109.757812 121.195312 C 109.902344 121.160156 110.03125 121.1875 110.09375 121.203125 C 110.179688 121.421875 110.179688 121.421875 110.164062 121.488281 Z M 110.164062 121.488281 " fill-opacity="1" fill-rule="nonzero"/></g></g></g><path fill="#000000" d="M 587.386719 693.058594 C 587.386719 698.582031 581.695312 702.300781 576.667969 700.027344 C 525.824219 677.046875 475.757812 667.527344 426.933594 671.703125 C 378.929688 675.804688 337.945312 692.820312 305.292969 712.699219 C 300.230469 715.78125 293.75 712.085938 293.75 706.160156 L 293.75 705.457031 C 293.75 702.761719 295.160156 700.25 297.484375 698.890625 C 337.582031 675.402344 380.847656 661.234375 424.636719 657.472656 C 432.910156 656.761719 441.191406 656.40625 449.511719 656.40625 C 493.476562 656.40625 538.023438 666.347656 582.871094 686.09375 C 585.625 687.304688 587.386719 690.050781 587.386719 693.058594 " fill-opacity="1" fill-rule="nonzero"/><path fill="#890000" d="M 550.511719 689.375 C 544.722656 703.589844 530.03125 731.546875 503.484375 733.367188 C 470.121094 735.652344 460.863281 678.472656 459.792969 670.953125 C 489.648438 672.117188 519.921875 678.28125 550.511719 689.375 " fill-opacity="1" fill-rule="nonzero"/><path fill="#000000" d="M 561 724.433594 C 558.867188 722.070312 559.046875 718.417969 561.414062 716.28125 C 574.257812 704.667969 584.226562 690.160156 592.796875 670.625 C 594.074219 667.703125 597.476562 666.375 600.394531 667.660156 C 601.75 668.25 602.761719 669.300781 603.328125 670.550781 C 603.984375 671.992188 604.046875 673.699219 603.363281 675.261719 C 594.117188 696.347656 583.246094 712.101562 569.148438 724.847656 C 566.785156 726.984375 563.136719 726.800781 561 724.433594 " fill-opacity="1" fill-rule="nonzero"/><g clip-path="url(#17b31b9377)"><path fill="#000000" d="M 323.832031 739.703125 C 325.964844 737.335938 325.78125 733.683594 323.417969 731.546875 C 310.574219 719.9375 300.605469 705.429688 292.035156 685.890625 C 290.757812 682.972656 287.355469 681.644531 284.4375 682.921875 C 283.082031 683.519531 282.074219 684.570312 281.503906 685.816406 C 280.847656 687.257812 280.785156 688.964844 281.46875 690.53125 C 290.714844 711.613281 301.585938 727.371094 315.679688 740.113281 C 318.042969 742.25 321.695312 742.066406 323.832031 739.703125 " fill-opacity="1" fill-rule="nonzero"/></g><g clip-path="url(#f344ec9c92)"><g clip-path="url(#b66c0de69e)"><g clip-path="url(#51b60e86e9)"><g clip-path="url(#e183a9b940)"><path fill="#fbc617" d="M 338.363281 86.175781 C 501.328125 62.046875 662.050781 165.800781 678.058594 370.5625 L 394.023438 425.707031 L 107.253906 464.132812 C 57.050781 264.976562 176.226562 115.339844 338.363281 86.175781 " fill-opacity="1" fill-rule="evenodd"/></g></g></g></g><g clip-path="url(#d859ad05b1)"><g clip-path="url(#3db9f3fd5e)"><g clip-path="url(#5e3880bdc9)"><g clip-path="url(#56b5e447c8)"><path fill="#e58e16" d="M 301.0625 338.222656 L 192.96875 154.832031 C 204.882812 144.484375 217.667969 135.117188 231.1875 126.789062 L 301.0625 338.222656 " fill-opacity="1" fill-rule="evenodd"/></g></g></g></g><g clip-path="url(#385736a8cd)"><g clip-path="url(#20b08ac044)"><g clip-path="url(#41289b5af4)"><g clip-path="url(#13ac850b36)"><path fill="#e58e16" d="M 454.453125 313.078125 L 498.339844 104.773438 C 483.746094 98.773438 468.636719 93.980469 453.164062 90.402344 L 454.453125 313.078125 " fill-opacity="1" fill-rule="evenodd"/></g></g></g></g><g clip-path="url(#1be2875baf)"><g clip-path="url(#d5086c2194)"><g clip-path="url(#3385c870ec)"><g clip-path="url(#07b9178760)"><path fill="#fbc617" d="M 336.097656 72.351562 C 296.890625 79.742188 246.613281 96.601562 214.1875 120.421875 L 301.0625 338.222656 L 454.195312 313.121094 L 466.976562 78.984375 C 428.644531 66.761719 375.617188 66.835938 336.097656 72.351562 " fill-opacity="1" fill-rule="evenodd"/></g></g></g></g><g clip-path="url(#8e7a9b906c)"><g clip-path="url(#32112dfcb5)"><g clip-path="url(#110976ad1a)"><g clip-path="url(#c35442587c)"><path fill="#e58e16" d="M 663.226562 339.246094 L 669.996094 380.546875 L 118.078125 471.019531 L 111.308594 429.71875 L 663.226562 339.246094 " fill-opacity="1" fill-rule="evenodd"/></g></g></g></g><g clip-path="url(#a2e6396fbf)"><g clip-path="url(#2d22dc5b40)"><g clip-path="url(#e959d09789)"><g clip-path="url(#73960be252)"><path fill="#fbc617" d="M 654.6875 383.054688 C 480.921875 411.539062 307.152344 440.027344 133.382812 468.511719 C 222.839844 529.433594 589.367188 469.351562 654.6875 383.054688 " fill-opacity="1" fill-rule="evenodd"/></g></g></g></g><g clip-path="url(#1ab2d966d6)"><g clip-path="url(#2b3f8b4f41)"><g clip-path="url(#0bb12e10ed)"><g clip-path="url(#2ea047d3c6)"><path fill="#28292a" d="M 389.683594 397.722656 C 454.414062 387.113281 498.550781 325.632812 487.933594 260.875 C 477.316406 196.113281 415.863281 151.941406 351.136719 162.550781 C 286.402344 173.164062 242.265625 234.644531 252.882812 299.40625 C 263.5 364.164062 324.953125 408.335938 389.683594 397.722656 " fill-opacity="1" fill-rule="evenodd"/></g></g></g></g><g clip-path="url(#c60026731b)"><g clip-path="url(#694be4b634)"><g clip-path="url(#3302d1e4ec)"><g clip-path="url(#56d42bd449)"><path fill="#ffffff" d="M 385.003906 369.164062 C 434.011719 361.128906 467.429688 314.585938 459.390625 265.550781 C 451.351562 216.515625 404.824219 183.074219 355.816406 191.109375 C 306.804688 199.140625 273.390625 245.691406 281.429688 294.726562 C 289.464844 343.757812 335.992188 377.195312 385.003906 369.164062 " fill-opacity="1" fill-rule="evenodd"/></g></g></g></g><g clip-path="url(#bc03a7c6c5)"><g clip-path="url(#83b7055a1e)"><g clip-path="url(#7023a3840c)"><g clip-path="url(#8b1fc34249)"><g clip-path="url(#afe28f7afd)"><g clip-path="url(#84c390825d)"><path fill="#e58e16" d="M 690.199219 275.527344 L 638.449219 284.011719 L 654.6875 383.054688 L 706.433594 374.574219 L 690.199219 275.527344 " fill-opacity="1" fill-rule="evenodd"/></g></g></g></g></g></g><g clip-path="url(#0782680fda)"><g clip-path="url(#ea975b374a)"><g clip-path="url(#f41146eccc)"><g clip-path="url(#8531b5d10c)"><path fill="#e58e16" d="M 65.398438 377.949219 L 117.148438 369.464844 L 133.382812 468.511719 L 81.636719 476.992188 L 65.398438 377.949219 " fill-opacity="1" fill-rule="evenodd"/></g></g></g></g></svg>