<svg xmlns="http://www.w3.org/2000/svg" xmlns:xlink="http://www.w3.org/1999/xlink" width="500" zoomAndPan="magnify" viewBox="0 0 375 374.999991" height="500" preserveAspectRatio="xMidYMid meet" version="1.0"><defs><clipPath id="1614a9cc92"><path d="M 32.28125 218.65625 L 212.929688 218.65625 L 212.929688 328.351562 L 32.28125 328.351562 Z M 32.28125 218.65625 " clip-rule="nonzero"/></clipPath><clipPath id="0ece1708df"><path d="M 192.296875 207.660156 L 287.207031 207.660156 L 287.207031 328.351562 L 192.296875 328.351562 Z M 192.296875 207.660156 " clip-rule="nonzero"/></clipPath><clipPath id="83dc996b52"><path d="M 32.1875 202 L 288 202 L 288 223 L 32.1875 223 Z M 32.1875 202 " clip-rule="nonzero"/></clipPath><clipPath id="628d7fd0a9"><path d="M 176.25 301.597656 L 197.339844 301.597656 L 197.339844 328.351562 L 176.25 328.351562 Z M 176.25 301.597656 " clip-rule="nonzero"/></clipPath><clipPath id="6425f0148d"><path d="M 192.296875 301.597656 L 210 301.597656 L 210 328.351562 L 192.296875 328.351562 Z M 192.296875 301.597656 " clip-rule="nonzero"/></clipPath><clipPath id="e2f059ed9b"><path d="M 225 61.480469 L 342.582031 61.480469 L 342.582031 199 L 225 199 Z M 225 61.480469 " clip-rule="nonzero"/></clipPath><clipPath id="7ca5861a03"><path d="M 212.472656 61.480469 L 342.582031 61.480469 L 342.582031 208 L 212.472656 208 Z M 212.472656 61.480469 " clip-rule="nonzero"/></clipPath><clipPath id="918b78eb77"><path d="M 114 46.359375 L 181 46.359375 L 181 94 L 114 94 Z M 114 46.359375 " clip-rule="nonzero"/></clipPath></defs><path fill="#632d28" d="M 287.164062 207.980469 L 102.0625 207.980469 L 54.21875 85.027344 L 123.28125 70.113281 C 123.28125 70.113281 205.144531 82.84375 209.9375 83.574219 C 214.730469 84.300781 285.707031 139.046875 285.707031 139.046875 L 287.164062 207.980469 " fill-opacity="1" fill-rule="nonzero"/><path fill="#4c1f1d" d="M 54.21875 85.027344 L 102.0625 207.980469 L 213.917969 207.980469 L 176.515625 133.773438 C 176.515625 133.773438 216.507812 110.972656 186.75 73.75 C 175.863281 60.136719 130.375 71.21875 130.375 71.21875 L 120.261719 70.765625 L 54.21875 85.027344 " fill-opacity="1" fill-rule="nonzero"/><path fill="#b26932" d="M 41.480469 89.121094 L 97.632812 202.777344 L 106.589844 190.765625 L 52.671875 77.933594 L 41.480469 89.121094 " fill-opacity="1" fill-rule="nonzero"/><path fill="#632d28" d="M 334.679688 90.261719 L 260.683594 62.929688 L 307.636719 92.121094 Z M 334.679688 90.261719 " fill-opacity="1" fill-rule="nonzero"/><g clip-path="url(#1614a9cc92)"><path fill="#cc8e3b" d="M 32.28125 218.894531 L 212.8125 222.894531 L 192.695312 328.351562 L 47.566406 324.023438 L 32.28125 218.894531 " fill-opacity="1" fill-rule="nonzero"/></g><g clip-path="url(#0ece1708df)"><path fill="#b26932" d="M 192.695312 328.351562 L 266.355469 303.289062 L 287.164062 207.980469 L 210.667969 222.894531 L 192.695312 328.351562 " fill-opacity="1" fill-rule="nonzero"/></g><g clip-path="url(#83dc996b52)"><path fill="#632d28" d="M 32.28125 218.894531 L 83.90625 202.777344 L 287.164062 207.980469 L 210.667969 222.894531 L 32.28125 218.894531 " fill-opacity="1" fill-rule="nonzero"/><path fill="#eaba44" d="M 210.433594 220.160156 L 48.976562 216.539062 L 84.285156 205.515625 L 262.1875 210.070312 Z M 83.90625 202.777344 L 32.28125 218.894531 L 210.667969 222.894531 L 287.164062 207.980469 L 83.90625 202.777344 " fill-opacity="1" fill-rule="nonzero"/></g><path fill="#e2aa52" d="M 66.632812 216.933594 C 66.632812 216.933594 71.234375 183.808594 114.363281 163.335938 C 157.496094 142.867188 212.367188 163.875 229.292969 180.246094 C 246.214844 196.613281 250.667969 212.316406 250.667969 212.316406 L 210.433594 220.160156 L 66.632812 216.933594 " fill-opacity="1" fill-rule="nonzero"/><path fill="#c98624" d="M 169.621094 153.46875 L 149.828125 153.4375 L 149.691406 157.550781 L 149.699219 157.550781 C 149.699219 158.453125 154.1875 159.183594 159.726562 159.183594 C 165.261719 159.183594 169.753906 158.453125 169.753906 157.550781 L 169.621094 153.46875 " fill-opacity="1" fill-rule="nonzero"/><path fill="#aa6f22" d="M 169.753906 157.550781 L 169.621094 153.46875 L 159.753906 153.453125 C 160.5 154.636719 161.785156 155.417969 161.246094 156.3125 C 160.839844 156.976562 160.519531 158.152344 160.484375 159.179688 C 165.667969 159.117188 169.753906 158.410156 169.753906 157.550781 " fill-opacity="1" fill-rule="nonzero"/><path fill="#f7c263" d="M 169.621094 153.4375 C 169.621094 154.339844 165.191406 155.070312 159.726562 155.070312 C 154.261719 155.070312 149.828125 154.339844 149.828125 153.4375 C 149.828125 152.535156 154.261719 151.804688 159.726562 151.804688 C 165.191406 151.804688 169.621094 152.535156 169.621094 153.4375 " fill-opacity="1" fill-rule="nonzero"/><path fill="#ffdba1" d="M 152.734375 153.785156 C 152.210938 153.667969 152.210938 152.921875 152.734375 152.808594 C 153.78125 152.574219 155.222656 152.320312 156.75 152.246094 C 159.742188 152.101562 160.636719 152.027344 160.664062 152.5 C 160.691406 152.976562 154.742188 153.484375 153.9375 153.816406 C 153.648438 153.933594 153.195312 153.890625 152.734375 153.785156 " fill-opacity="1" fill-rule="nonzero"/><path fill="#c98624" d="M 193.617188 158.648438 L 174.375 154.015625 L 173.285156 157.984375 L 173.292969 157.984375 C 173.082031 158.863281 177.277344 160.617188 182.660156 161.90625 C 188.046875 163.195312 192.582031 163.527344 192.792969 162.648438 L 193.617188 158.648438 " fill-opacity="1" fill-rule="nonzero"/><path fill="#aa6f22" d="M 192.792969 162.648438 L 193.617188 158.648438 L 184.023438 156.339844 C 184.472656 157.667969 185.542969 158.722656 184.808594 159.464844 C 184.257812 160.019531 183.675781 161.085938 183.402344 162.078125 C 188.457031 163.222656 192.59375 163.488281 192.792969 162.648438 " fill-opacity="1" fill-rule="nonzero"/><path fill="#f7c263" d="M 193.625 158.621094 C 193.414062 159.5 188.933594 159.179688 183.621094 157.90625 C 178.304688 156.636719 174.164062 154.890625 174.375 154.015625 C 174.585938 153.136719 179.066406 153.457031 184.382812 154.730469 C 189.695312 156.003906 193.835938 157.742188 193.625 158.621094 " fill-opacity="1" fill-rule="nonzero"/><path fill="#ffdba1" d="M 177.121094 155.03125 C 176.640625 154.792969 176.8125 154.070312 177.347656 154.078125 C 178.417969 154.097656 179.878906 154.183594 181.382812 154.464844 C 184.328125 155.019531 185.21875 155.160156 185.132812 155.625 C 185.046875 156.09375 179.140625 155.207031 178.285156 155.339844 C 177.976562 155.386719 177.546875 155.238281 177.121094 155.03125 " fill-opacity="1" fill-rule="nonzero"/><path fill="#c98624" d="M 177.191406 171.179688 L 157.960938 166.5 L 157.308594 169.429688 L 157.316406 169.429688 C 156.78125 171.652344 160.496094 174.300781 165.882812 175.589844 C 171.269531 176.878906 176.066406 176.121094 176.597656 173.898438 L 177.191406 171.179688 " fill-opacity="1" fill-rule="nonzero"/><path fill="#aa6f22" d="M 176.597656 173.898438 L 177.191406 171.179688 L 167.601562 168.84375 C 167.628906 171.941406 167.265625 173.234375 166.625 175.757812 C 171.703125 176.804688 176.089844 176.019531 176.597656 173.898438 " fill-opacity="1" fill-rule="nonzero"/><path fill="#f7c263" d="M 177.207031 171.105469 C 176.675781 173.328125 171.933594 174.097656 166.621094 172.828125 C 161.304688 171.554688 157.429688 168.722656 157.960938 166.5 C 158.492188 164.277344 163.234375 163.503906 168.546875 164.773438 C 173.863281 166.046875 177.738281 168.878906 177.207031 171.105469 " fill-opacity="1" fill-rule="nonzero"/><path fill="#ffdba1" d="M 160.582031 168.03125 C 160.140625 167.617188 160.578125 165.78125 161.15625 165.617188 C 162.308594 165.289062 163.863281 164.996094 165.394531 165.167969 C 168.390625 165.503906 169.304688 165.535156 169.050781 166.710938 C 168.796875 167.886719 162.707031 167.757812 161.734375 168.382812 C 161.382812 168.609375 160.964844 168.394531 160.582031 168.03125 " fill-opacity="1" fill-rule="nonzero"/><path fill="#c98624" d="M 219.476562 186.285156 L 204.902344 172.898438 L 202.914062 175.152344 L 202.917969 175.15625 C 201.375 176.847656 203.351562 180.957031 207.441406 184.6875 C 211.535156 188.417969 216.097656 190.070312 217.640625 188.378906 L 219.476562 186.285156 " fill-opacity="1" fill-rule="nonzero"/><path fill="#aa6f22" d="M 217.640625 188.378906 L 219.476562 186.285156 L 212.207031 179.613281 C 210.734375 182.335938 209.792969 183.289062 208.011719 185.191406 C 211.945312 188.5625 216.171875 189.992188 217.640625 188.378906 " fill-opacity="1" fill-rule="nonzero"/><path fill="#f7c263" d="M 219.523438 186.226562 C 217.984375 187.917969 213.460938 186.304688 209.421875 182.625 C 205.382812 178.941406 203.359375 174.589844 204.902344 172.898438 C 206.441406 171.210938 210.964844 172.828125 215.003906 176.507812 C 219.042969 180.1875 221.066406 184.539062 219.523438 186.226562 " fill-opacity="1" fill-rule="nonzero"/><path fill="#ffdba1" d="M 206.453125 175.507812 C 206.269531 174.933594 207.539062 173.539062 208.125 173.675781 C 209.292969 173.945312 210.796875 174.4375 212.050781 175.328125 C 214.511719 177.070312 215.296875 177.535156 214.507812 178.441406 C 213.714844 179.347656 208.449219 176.300781 207.292969 176.371094 C 206.875 176.398438 206.613281 176.011719 206.453125 175.507812 " fill-opacity="1" fill-rule="nonzero"/><path fill="#c98624" d="M 104.136719 173.234375 L 118.714844 159.847656 L 120.703125 162.101562 L 120.695312 162.105469 C 122.234375 163.796875 120.265625 167.90625 116.171875 171.636719 C 112.082031 175.363281 107.515625 177.019531 105.972656 175.328125 L 104.136719 173.234375 " fill-opacity="1" fill-rule="nonzero"/><path fill="#aa6f22" d="M 105.972656 175.328125 L 104.136719 173.234375 L 111.402344 166.5625 C 112.878906 169.285156 113.820312 170.238281 115.605469 172.140625 C 111.664062 175.511719 107.441406 176.941406 105.972656 175.328125 " fill-opacity="1" fill-rule="nonzero"/><path fill="#f7c263" d="M 104.085938 173.175781 C 105.628906 174.867188 110.152344 173.253906 114.191406 169.570312 C 118.230469 165.890625 120.253906 161.539062 118.714844 159.847656 C 117.171875 158.160156 112.648438 159.777344 108.609375 163.457031 C 104.570312 167.136719 102.546875 171.488281 104.085938 173.175781 " fill-opacity="1" fill-rule="nonzero"/><path fill="#ffdba1" d="M 117.160156 162.457031 C 117.34375 161.882812 116.074219 160.488281 115.488281 160.625 C 114.320312 160.890625 112.820312 161.386719 111.5625 162.277344 C 109.101562 164.019531 108.316406 164.484375 109.105469 165.390625 C 109.894531 166.296875 115.164062 163.246094 116.320312 163.320312 C 116.738281 163.347656 116.996094 162.960938 117.160156 162.457031 " fill-opacity="1" fill-rule="nonzero"/><path fill="#c98624" d="M 83.746094 200.089844 C 80.503906 200.199219 77.710938 201.800781 76.160156 204.128906 L 74.714844 204.175781 L 74.773438 205.859375 C 74.925781 210.382812 79.152344 213.90625 84.210938 213.734375 C 89.273438 213.5625 93.246094 209.753906 93.09375 205.234375 L 93.035156 203.550781 L 91.589844 203.601562 C 89.886719 201.386719 86.988281 199.980469 83.746094 200.089844 " fill-opacity="1" fill-rule="nonzero"/><path fill="#ffcc5a" d="M 83.59375 195.65625 C 88.65625 195.484375 92.878906 199.007812 93.035156 203.53125 C 93.1875 208.054688 89.214844 211.859375 84.152344 212.03125 C 79.09375 212.203125 74.867188 208.679688 74.714844 204.15625 C 74.5625 199.636719 78.535156 195.828125 83.59375 195.65625 " fill-opacity="1" fill-rule="nonzero"/><path fill="#faad50" d="M 76.3125 204.101562 C 76.433594 207.738281 79.929688 210.578125 84.101562 210.4375 C 88.269531 210.292969 91.5625 207.222656 91.4375 203.585938 C 91.3125 199.949219 87.820312 197.109375 83.648438 197.25 C 79.480469 197.394531 76.1875 200.464844 76.3125 204.101562 Z M 91.941406 203.566406 C 92.074219 207.480469 88.566406 210.785156 84.117188 210.9375 C 79.667969 211.089844 75.941406 208.03125 75.808594 204.117188 C 75.671875 200.207031 79.183594 196.898438 83.632812 196.746094 C 88.082031 196.597656 91.808594 199.65625 91.941406 203.566406 " fill-opacity="1" fill-rule="nonzero"/><path fill="#ffe888" d="M 76.898438 205.441406 C 76.898438 205.441406 77.628906 207.691406 79.578125 208.78125 C 81.527344 209.871094 84.171875 210.328125 85.757812 209.875 C 87.339844 209.421875 82.167969 208.902344 80.4375 207.535156 C 79.226562 206.570312 78.296875 203.839844 77.285156 203.875 C 76.441406 203.90625 76.703125 204.960938 76.898438 205.441406 " fill-opacity="1" fill-rule="nonzero"/><path fill="#ffbf52" d="M 89 203.828125 C 89 203.828125 88.425781 201.136719 87.546875 199.960938 C 86.664062 198.78125 87.226562 198.734375 88.179688 199.261719 C 89.136719 199.789062 90.167969 200.453125 90.683594 202.371094 C 91.199219 204.285156 89.953125 206.429688 89.453125 205.804688 C 88.957031 205.175781 89 203.828125 89 203.828125 " fill-opacity="1" fill-rule="nonzero"/><path fill="#c98624" d="M 141.828125 174.003906 C 138.585938 174.117188 135.792969 175.71875 134.242188 178.042969 L 132.796875 178.09375 L 132.851562 179.773438 C 133.007812 184.296875 137.234375 187.824219 142.292969 187.652344 C 147.351562 187.476562 151.328125 183.671875 151.175781 179.152344 L 151.117188 177.464844 L 149.671875 177.515625 C 147.964844 175.300781 145.066406 173.894531 141.828125 174.003906 " fill-opacity="1" fill-rule="nonzero"/><path fill="#ffcc5a" d="M 141.675781 169.570312 C 146.734375 169.398438 150.960938 172.925781 151.113281 177.445312 C 151.269531 181.96875 147.292969 185.773438 142.234375 185.945312 C 137.175781 186.117188 132.949219 182.59375 132.792969 178.070312 C 132.640625 173.550781 136.617188 169.742188 141.675781 169.570312 " fill-opacity="1" fill-rule="nonzero"/><path fill="#faad50" d="M 134.390625 178.015625 C 134.515625 181.652344 138.011719 184.492188 142.179688 184.351562 C 146.351562 184.210938 149.644531 181.136719 149.519531 177.5 C 149.394531 173.867188 145.902344 171.023438 141.730469 171.167969 C 137.558594 171.308594 134.269531 174.382812 134.390625 178.015625 Z M 150.023438 177.484375 C 150.15625 181.398438 146.644531 184.703125 142.195312 184.855469 C 137.75 185.007812 134.019531 181.945312 133.886719 178.035156 C 133.753906 174.121094 137.265625 170.816406 141.714844 170.664062 C 146.164062 170.511719 149.890625 173.570312 150.023438 177.484375 " fill-opacity="1" fill-rule="nonzero"/><path fill="#ffe888" d="M 134.980469 179.355469 C 134.980469 179.355469 135.707031 181.609375 137.660156 182.699219 C 139.609375 183.785156 142.253906 184.242188 143.835938 183.789062 C 145.421875 183.335938 140.25 182.816406 138.519531 181.449219 C 137.304688 180.484375 136.375 177.757812 135.367188 177.789062 C 134.519531 177.820312 134.785156 178.878906 134.980469 179.355469 " fill-opacity="1" fill-rule="nonzero"/><path fill="#ffbf52" d="M 147.078125 177.742188 C 147.078125 177.742188 146.507812 175.054688 145.625 173.875 C 144.742188 172.695312 145.308594 172.648438 146.261719 173.175781 C 147.21875 173.703125 148.25 174.371094 148.765625 176.285156 C 149.277344 178.203125 148.035156 180.347656 147.535156 179.71875 C 147.039062 179.089844 147.078125 177.742188 147.078125 177.742188 " fill-opacity="1" fill-rule="nonzero"/><path fill="#c98624" d="M 149.925781 198.167969 C 146.6875 198.28125 143.890625 199.882812 142.34375 202.210938 L 140.898438 202.257812 L 140.953125 203.941406 C 141.109375 208.464844 145.335938 211.988281 150.394531 211.816406 C 155.453125 211.644531 159.429688 207.839844 159.273438 203.316406 L 159.21875 201.632812 L 157.773438 201.683594 C 156.066406 199.46875 153.167969 198.058594 149.925781 198.167969 " fill-opacity="1" fill-rule="nonzero"/><path fill="#ffcc5a" d="M 149.777344 193.738281 C 154.835938 193.566406 159.0625 197.089844 159.214844 201.613281 C 159.371094 206.132812 155.394531 209.941406 150.335938 210.113281 C 145.277344 210.285156 141.050781 206.757812 140.894531 202.238281 C 140.742188 197.714844 144.71875 193.910156 149.777344 193.738281 " fill-opacity="1" fill-rule="nonzero"/><path fill="#faad50" d="M 142.492188 202.183594 C 142.617188 205.816406 146.109375 208.660156 150.28125 208.515625 C 154.453125 208.375 157.742188 205.300781 157.621094 201.667969 C 157.496094 198.03125 154 195.191406 149.832031 195.332031 C 145.660156 195.476562 142.367188 198.546875 142.492188 202.183594 Z M 158.121094 201.652344 C 158.257812 205.5625 154.746094 208.871094 150.296875 209.023438 C 145.847656 209.171875 142.121094 206.113281 141.988281 202.199219 C 141.855469 198.289062 145.367188 194.980469 149.8125 194.828125 C 154.261719 194.679688 157.992188 197.738281 158.121094 201.652344 " fill-opacity="1" fill-rule="nonzero"/><path fill="#ffe888" d="M 143.082031 203.523438 C 143.082031 203.523438 143.808594 205.773438 145.757812 206.863281 C 147.710938 207.953125 150.355469 208.410156 151.9375 207.957031 C 153.519531 207.503906 148.347656 206.984375 146.621094 205.617188 C 145.40625 204.652344 144.476562 201.921875 143.46875 201.957031 C 142.621094 201.984375 142.886719 203.046875 143.082031 203.523438 " fill-opacity="1" fill-rule="nonzero"/><path fill="#ffbf52" d="M 155.179688 201.910156 C 155.179688 201.910156 154.609375 199.21875 153.726562 198.039062 C 152.84375 196.863281 153.410156 196.8125 154.363281 197.34375 C 155.320312 197.871094 156.351562 198.535156 156.867188 200.453125 C 157.378906 202.367188 156.136719 204.511719 155.636719 203.882812 C 155.140625 203.257812 155.179688 201.910156 155.179688 201.910156 " fill-opacity="1" fill-rule="nonzero"/><path fill="#c98624" d="M 164.625 189.746094 C 162.320312 187.464844 159.238281 186.53125 156.480469 186.996094 L 155.453125 185.980469 L 154.269531 187.175781 C 151.082031 190.390625 151.410156 195.882812 155.007812 199.441406 C 158.601562 203.003906 164.101562 203.285156 167.289062 200.070312 L 168.472656 198.875 L 167.445312 197.859375 C 167.890625 195.097656 166.925781 192.027344 164.625 189.746094 " fill-opacity="1" fill-rule="nonzero"/><path fill="#ffcc5a" d="M 167.75 186.59375 C 171.34375 190.15625 171.675781 195.648438 168.488281 198.863281 C 165.300781 202.074219 159.804688 201.792969 156.207031 198.230469 C 152.613281 194.671875 152.28125 189.179688 155.46875 185.964844 C 158.65625 182.753906 164.152344 183.03125 167.75 186.59375 " fill-opacity="1" fill-rule="nonzero"/><path fill="#faad50" d="M 156.601562 187.089844 C 154.042969 189.671875 154.367188 194.164062 157.332031 197.097656 C 160.296875 200.035156 164.792969 200.320312 167.355469 197.738281 C 169.914062 195.15625 169.589844 190.664062 166.625 187.726562 C 163.660156 184.792969 159.164062 184.507812 156.601562 187.089844 Z M 167.710938 198.09375 C 164.957031 200.875 160.140625 200.585938 156.980469 197.457031 C 153.816406 194.324219 153.488281 189.515625 156.246094 186.734375 C 159.003906 183.953125 163.820312 184.238281 166.980469 187.371094 C 170.140625 190.5 170.46875 195.3125 167.710938 198.09375 " fill-opacity="1" fill-rule="nonzero"/><path fill="#ffe888" d="M 156.03125 188.433594 C 156.03125 188.433594 154.890625 190.511719 155.433594 192.675781 C 155.980469 194.839844 157.460938 197.078125 158.878906 197.917969 C 160.292969 198.761719 157.125 194.644531 156.9375 192.445312 C 156.804688 190.902344 158.152344 188.351562 157.4375 187.644531 C 156.835938 187.046875 156.246094 187.964844 156.03125 188.433594 " fill-opacity="1" fill-rule="nonzero"/><path fill="#ffbf52" d="M 165.503906 196.128906 C 165.503906 196.128906 167.070312 193.871094 167.324219 192.417969 C 167.578125 190.96875 168 191.347656 168.269531 192.402344 C 168.542969 193.460938 168.765625 194.667969 167.722656 196.355469 C 166.679688 198.042969 164.265625 198.609375 164.378906 197.816406 C 164.496094 197.023438 165.503906 196.128906 165.503906 196.128906 " fill-opacity="1" fill-rule="nonzero"/><path fill="#ffcc5a" d="M 168.320312 204.550781 C 165.089844 207.753906 164.792969 212.691406 167.65625 215.582031 C 170.519531 218.46875 175.464844 218.21875 178.695312 215.015625 C 181.929688 211.8125 182.226562 206.875 179.359375 203.988281 C 176.496094 201.097656 171.554688 201.351562 168.320312 204.550781 " fill-opacity="1" fill-rule="nonzero"/><path fill="#ffcc5a" d="M 128.472656 206.125 C 125.242188 209.328125 124.210938 213.527344 126.171875 215.503906 C 128.132812 217.480469 132.339844 216.488281 135.574219 213.285156 C 138.808594 210.085938 139.839844 205.886719 137.878906 203.90625 C 135.917969 201.933594 131.707031 202.925781 128.472656 206.125 " fill-opacity="1" fill-rule="nonzero"/><path fill="#ffcc5a" d="M 113.550781 186.660156 C 110.320312 189.863281 110.019531 194.800781 112.886719 197.691406 C 115.753906 200.582031 120.695312 200.328125 123.925781 197.125 C 127.160156 193.921875 127.457031 188.988281 124.59375 186.09375 C 121.726562 183.207031 116.785156 183.460938 113.550781 186.660156 " fill-opacity="1" fill-rule="nonzero"/><path fill="#ffcc5a" d="M 84.277344 182.402344 C 81.046875 185.601562 80.75 190.539062 83.613281 193.429688 C 86.480469 196.320312 91.421875 196.066406 94.65625 192.867188 C 97.890625 189.664062 98.1875 184.722656 95.320312 181.835938 C 92.453125 178.945312 87.511719 179.199219 84.277344 182.402344 " fill-opacity="1" fill-rule="nonzero"/><path fill="#ffcc5a" d="M 193.628906 167.503906 C 196.863281 170.707031 197.160156 175.644531 194.292969 178.53125 C 191.429688 181.421875 186.488281 181.167969 183.253906 177.96875 C 180.023438 174.765625 179.726562 169.828125 182.589844 166.9375 C 185.453125 164.046875 190.398438 164.300781 193.628906 167.503906 " fill-opacity="1" fill-rule="nonzero"/><path fill="#ffcc5a" d="M 234.515625 186.144531 C 237.75 189.347656 238.726562 193.605469 236.691406 195.65625 C 234.65625 197.707031 230.390625 196.769531 227.15625 193.570312 C 223.925781 190.367188 222.949219 186.109375 224.984375 184.058594 C 227.019531 182.011719 231.285156 182.945312 234.515625 186.144531 " fill-opacity="1" fill-rule="nonzero"/><path fill="#ffcc5a" d="M 216.871094 193.535156 C 220.101562 196.738281 221.074219 200.992188 219.042969 203.042969 C 217.011719 205.09375 212.742188 204.160156 209.507812 200.957031 C 206.277344 197.753906 205.304688 193.5 207.335938 191.449219 C 209.367188 189.398438 213.636719 190.332031 216.871094 193.535156 " fill-opacity="1" fill-rule="nonzero"/><path fill="#c98624" d="M 198.949219 200.910156 C 195.707031 201.019531 192.914062 202.621094 191.363281 204.949219 L 189.917969 204.996094 L 189.976562 206.679688 C 190.128906 211.203125 194.355469 214.726562 199.414062 214.554688 C 204.472656 214.382812 208.449219 210.578125 208.296875 206.054688 L 208.238281 204.375 L 206.792969 204.421875 C 205.085938 202.207031 202.191406 200.796875 198.949219 200.910156 " fill-opacity="1" fill-rule="nonzero"/><path fill="#ffcc5a" d="M 198.796875 196.476562 C 203.855469 196.304688 208.082031 199.832031 208.234375 204.351562 C 208.390625 208.875 204.414062 212.679688 199.355469 212.851562 C 194.296875 213.023438 190.070312 209.5 189.914062 204.976562 C 189.761719 200.453125 193.738281 196.648438 198.796875 196.476562 " fill-opacity="1" fill-rule="nonzero"/><path fill="#faad50" d="M 191.511719 204.921875 C 191.636719 208.554688 195.132812 211.398438 199.300781 211.253906 C 203.472656 211.113281 206.765625 208.039062 206.640625 204.40625 C 206.515625 200.773438 203.023438 197.929688 198.851562 198.074219 C 194.679688 198.214844 191.386719 201.289062 191.511719 204.921875 Z M 207.144531 204.390625 C 207.277344 208.300781 203.765625 211.609375 199.320312 211.761719 C 194.871094 211.910156 191.140625 208.851562 191.007812 204.9375 C 190.875 201.027344 194.386719 197.71875 198.832031 197.566406 C 203.28125 197.414062 207.011719 200.476562 207.144531 204.390625 " fill-opacity="1" fill-rule="nonzero"/><path fill="#ffe888" d="M 192.101562 206.261719 C 192.101562 206.261719 192.828125 208.511719 194.78125 209.605469 C 196.730469 210.691406 199.375 211.148438 200.960938 210.695312 C 202.539062 210.242188 197.371094 209.726562 195.640625 208.355469 C 194.425781 207.390625 193.496094 204.660156 192.488281 204.695312 C 191.640625 204.722656 191.90625 205.785156 192.101562 206.261719 " fill-opacity="1" fill-rule="nonzero"/><path fill="#ffbf52" d="M 204.199219 204.652344 C 204.199219 204.652344 203.628906 201.957031 202.746094 200.777344 C 201.867188 199.601562 202.425781 199.554688 203.382812 200.082031 C 204.339844 200.609375 205.371094 201.273438 205.886719 203.191406 C 206.398438 205.105469 205.15625 207.25 204.65625 206.625 C 204.160156 205.996094 204.199219 204.652344 204.199219 204.652344 " fill-opacity="1" fill-rule="nonzero"/><path fill="#ffffff" d="M 106.871094 182.546875 C 106.082031 184.640625 103.738281 185.699219 101.640625 184.90625 C 99.542969 184.113281 98.484375 181.773438 99.277344 179.675781 C 100.070312 177.582031 102.414062 176.523438 104.511719 177.316406 C 106.609375 178.109375 107.667969 180.449219 106.871094 182.546875 " fill-opacity="1" fill-rule="nonzero"/><path fill="#ffede1" d="M 107.0625 180.371094 C 106.070312 182.015625 104.019531 182.769531 102.15625 182.066406 C 100.78125 181.546875 99.855469 180.359375 99.601562 179.011719 C 99.476562 179.222656 99.367188 179.441406 99.277344 179.675781 C 98.484375 181.773438 99.542969 184.113281 101.640625 184.90625 C 103.738281 185.699219 106.082031 184.640625 106.871094 182.546875 C 107.148438 181.824219 107.195312 181.074219 107.0625 180.371094 " fill-opacity="1" fill-rule="nonzero"/><path fill="#ffffff" d="M 111.34375 179.042969 C 110.730469 180.65625 108.925781 181.472656 107.308594 180.863281 C 105.691406 180.25 104.875 178.445312 105.488281 176.828125 C 106.097656 175.210938 107.90625 174.394531 109.523438 175.007812 C 111.140625 175.617188 111.957031 177.425781 111.34375 179.042969 " fill-opacity="1" fill-rule="nonzero"/><path fill="#ffede1" d="M 111.488281 177.363281 C 110.726562 178.628906 109.140625 179.214844 107.707031 178.671875 C 106.644531 178.269531 105.933594 177.355469 105.738281 176.316406 C 105.640625 176.476562 105.554688 176.644531 105.488281 176.828125 C 104.875 178.445312 105.691406 180.25 107.308594 180.863281 C 108.925781 181.472656 110.730469 180.65625 111.34375 179.042969 C 111.554688 178.484375 111.59375 177.90625 111.488281 177.363281 " fill-opacity="1" fill-rule="nonzero"/><path fill="#ffffff" d="M 115.621094 176.738281 C 115.125 178.042969 113.667969 178.703125 112.359375 178.207031 C 111.054688 177.714844 110.394531 176.257812 110.886719 174.949219 C 111.382812 173.644531 112.839844 172.988281 114.148438 173.480469 C 115.457031 173.972656 116.113281 175.433594 115.621094 176.738281 " fill-opacity="1" fill-rule="nonzero"/><path fill="#ffede1" d="M 115.738281 175.382812 C 115.117188 176.40625 113.839844 176.878906 112.679688 176.4375 C 111.824219 176.117188 111.25 175.378906 111.089844 174.539062 C 111.011719 174.667969 110.945312 174.804688 110.886719 174.949219 C 110.394531 176.257812 111.054688 177.714844 112.359375 178.207031 C 113.667969 178.703125 115.125 178.042969 115.621094 176.738281 C 115.789062 176.289062 115.820312 175.824219 115.738281 175.382812 " fill-opacity="1" fill-rule="nonzero"/><path fill="#ffffff" d="M 119.542969 174.355469 C 119.050781 175.664062 117.589844 176.320312 116.28125 175.828125 C 114.976562 175.335938 114.316406 173.875 114.8125 172.570312 C 115.304688 171.265625 116.765625 170.605469 118.070312 171.097656 C 119.378906 171.59375 120.035156 173.050781 119.542969 174.355469 " fill-opacity="1" fill-rule="nonzero"/><path fill="#ffede1" d="M 119.660156 173 C 119.042969 174.027344 117.765625 174.496094 116.601562 174.058594 C 115.746094 173.734375 115.171875 172.996094 115.015625 172.15625 C 114.9375 172.285156 114.867188 172.421875 114.8125 172.570312 C 114.316406 173.875 114.976562 175.335938 116.28125 175.828125 C 117.589844 176.320312 119.050781 175.664062 119.542969 174.355469 C 119.710938 173.90625 119.742188 173.441406 119.660156 173 " fill-opacity="1" fill-rule="nonzero"/><path fill="#ffffff" d="M 123.078125 171.640625 C 122.660156 172.75 121.417969 173.308594 120.308594 172.890625 C 119.199219 172.46875 118.640625 171.230469 119.058594 170.121094 C 119.480469 169.011719 120.71875 168.453125 121.828125 168.871094 C 122.941406 169.292969 123.5 170.53125 123.078125 171.640625 " fill-opacity="1" fill-rule="nonzero"/><path fill="#ffede1" d="M 123.179688 170.488281 C 122.652344 171.359375 121.566406 171.757812 120.582031 171.386719 C 119.855469 171.109375 119.363281 170.480469 119.230469 169.769531 C 119.164062 169.878906 119.105469 169.996094 119.058594 170.121094 C 118.640625 171.230469 119.199219 172.46875 120.308594 172.890625 C 121.417969 173.308594 122.660156 172.75 123.078125 171.640625 C 123.222656 171.257812 123.25 170.859375 123.179688 170.488281 " fill-opacity="1" fill-rule="nonzero"/><path fill="#ffffff" d="M 126.792969 171.980469 C 126.371094 173.089844 125.132812 173.648438 124.023438 173.230469 C 122.910156 172.808594 122.351562 171.570312 122.773438 170.460938 C 123.191406 169.351562 124.433594 168.792969 125.542969 169.210938 C 126.652344 169.632812 127.210938 170.871094 126.792969 171.980469 " fill-opacity="1" fill-rule="nonzero"/><path fill="#ffede1" d="M 126.894531 170.828125 C 126.367188 171.699219 125.28125 172.101562 124.292969 171.726562 C 123.566406 171.453125 123.078125 170.824219 122.945312 170.109375 C 122.878906 170.222656 122.816406 170.339844 122.773438 170.460938 C 122.351562 171.570312 122.910156 172.808594 124.023438 173.230469 C 125.132812 173.648438 126.371094 173.089844 126.792969 171.980469 C 126.9375 171.601562 126.960938 171.203125 126.894531 170.828125 " fill-opacity="1" fill-rule="nonzero"/><path fill="#ffffff" d="M 130.519531 194.476562 C 129.90625 196.09375 128.101562 196.90625 126.484375 196.296875 C 124.867188 195.6875 124.050781 193.878906 124.660156 192.265625 C 125.273438 190.648438 127.078125 189.832031 128.695312 190.445312 C 130.3125 191.054688 131.128906 192.859375 130.519531 194.476562 " fill-opacity="1" fill-rule="nonzero"/><path fill="#ffede1" d="M 130.664062 192.796875 C 129.898438 194.066406 128.316406 194.648438 126.878906 194.105469 C 125.820312 193.703125 125.105469 192.789062 124.910156 191.753906 C 124.816406 191.914062 124.730469 192.082031 124.660156 192.265625 C 124.050781 193.878906 124.867188 195.6875 126.484375 196.296875 C 128.101562 196.90625 129.90625 196.09375 130.519531 194.476562 C 130.730469 193.917969 130.765625 193.34375 130.664062 192.796875 " fill-opacity="1" fill-rule="nonzero"/><path fill="#ffffff" d="M 131.597656 190.039062 C 131.097656 191.367188 129.613281 192.035156 128.285156 191.535156 C 126.957031 191.03125 126.289062 189.546875 126.789062 188.222656 C 127.292969 186.894531 128.773438 186.226562 130.101562 186.726562 C 131.429688 187.230469 132.097656 188.710938 131.597656 190.039062 " fill-opacity="1" fill-rule="nonzero"/><path fill="#ffede1" d="M 131.71875 188.660156 C 131.089844 189.699219 129.789062 190.179688 128.609375 189.734375 C 127.738281 189.40625 127.15625 188.652344 126.996094 187.800781 C 126.917969 187.933594 126.847656 188.074219 126.789062 188.222656 C 126.289062 189.546875 126.957031 191.03125 128.285156 191.535156 C 129.613281 192.035156 131.097656 191.367188 131.597656 190.039062 C 131.773438 189.582031 131.800781 189.109375 131.71875 188.660156 " fill-opacity="1" fill-rule="nonzero"/><path fill="#ffffff" d="M 131.675781 185.507812 C 131.171875 186.835938 129.691406 187.503906 128.363281 187.003906 C 127.035156 186.5 126.363281 185.019531 126.867188 183.691406 C 127.371094 182.363281 128.851562 181.695312 130.179688 182.195312 C 131.507812 182.699219 132.179688 184.179688 131.675781 185.507812 " fill-opacity="1" fill-rule="nonzero"/><path fill="#ffede1" d="M 131.792969 184.128906 C 131.167969 185.171875 129.867188 185.648438 128.6875 185.203125 C 127.816406 184.875 127.234375 184.125 127.070312 183.269531 C 126.992188 183.402344 126.921875 183.542969 126.867188 183.691406 C 126.363281 185.019531 127.035156 186.5 128.363281 187.003906 C 129.691406 187.503906 131.171875 186.835938 131.675781 185.507812 C 131.847656 185.050781 131.878906 184.574219 131.792969 184.128906 " fill-opacity="1" fill-rule="nonzero"/><path fill="#ffffff" d="M 131.21875 181.066406 C 130.800781 182.171875 129.558594 182.734375 128.449219 182.316406 C 127.335938 181.894531 126.777344 180.65625 127.199219 179.546875 C 127.617188 178.4375 128.859375 177.878906 129.96875 178.296875 C 131.078125 178.714844 131.636719 179.953125 131.21875 181.066406 " fill-opacity="1" fill-rule="nonzero"/><path fill="#ffede1" d="M 131.320312 179.910156 C 130.792969 180.78125 129.703125 181.183594 128.722656 180.808594 C 127.992188 180.535156 127.503906 179.90625 127.371094 179.195312 C 127.304688 179.304688 127.242188 179.421875 127.199219 179.546875 C 126.777344 180.65625 127.335938 181.894531 128.449219 182.316406 C 129.558594 182.734375 130.800781 182.171875 131.21875 181.066406 C 131.363281 180.683594 131.386719 180.289062 131.320312 179.910156 " fill-opacity="1" fill-rule="nonzero"/><path fill="#ffffff" d="M 130.238281 177.585938 C 129.816406 178.695312 128.578125 179.253906 127.464844 178.835938 C 126.355469 178.417969 125.796875 177.175781 126.214844 176.066406 C 126.636719 174.957031 127.875 174.398438 128.988281 174.816406 C 130.097656 175.238281 130.65625 176.476562 130.238281 177.585938 " fill-opacity="1" fill-rule="nonzero"/><path fill="#ffede1" d="M 130.335938 176.433594 C 129.8125 177.304688 128.726562 177.703125 127.738281 177.332031 C 127.011719 177.054688 126.523438 176.429688 126.386719 175.714844 C 126.320312 175.828125 126.261719 175.941406 126.214844 176.066406 C 125.796875 177.175781 126.355469 178.417969 127.464844 178.835938 C 128.578125 179.253906 129.816406 178.695312 130.238281 177.585938 C 130.382812 177.203125 130.40625 176.808594 130.335938 176.433594 " fill-opacity="1" fill-rule="nonzero"/><path fill="#ffffff" d="M 129.296875 173.988281 C 128.878906 175.101562 127.640625 175.660156 126.527344 175.238281 C 125.417969 174.820312 124.859375 173.578125 125.277344 172.472656 C 125.699219 171.359375 126.9375 170.800781 128.046875 171.222656 C 129.160156 171.640625 129.71875 172.878906 129.296875 173.988281 " fill-opacity="1" fill-rule="nonzero"/><path fill="#ffede1" d="M 129.398438 172.835938 C 128.875 173.707031 127.785156 174.109375 126.800781 173.734375 C 126.074219 173.460938 125.582031 172.832031 125.449219 172.121094 C 125.386719 172.230469 125.324219 172.347656 125.277344 172.472656 C 124.859375 173.578125 125.417969 174.820312 126.527344 175.238281 C 127.640625 175.660156 128.878906 175.101562 129.296875 173.988281 C 129.441406 173.609375 129.46875 173.210938 129.398438 172.835938 " fill-opacity="1" fill-rule="nonzero"/><path fill="#ffffff" d="M 101.429688 188.140625 C 100.636719 190.238281 98.296875 191.296875 96.199219 190.503906 C 94.101562 189.710938 93.042969 187.367188 93.835938 185.273438 C 94.628906 183.175781 96.972656 182.117188 99.070312 182.910156 C 101.167969 183.703125 102.226562 186.046875 101.429688 188.140625 " fill-opacity="1" fill-rule="nonzero"/><path fill="#ffede1" d="M 101.621094 185.964844 C 100.628906 187.609375 98.578125 188.367188 96.710938 187.660156 C 95.335938 187.144531 94.414062 185.953125 94.160156 184.609375 C 94.035156 184.816406 93.925781 185.035156 93.835938 185.273438 C 93.042969 187.367188 94.101562 189.710938 96.199219 190.503906 C 98.296875 191.296875 100.636719 190.238281 101.429688 188.140625 C 101.707031 187.421875 101.753906 186.671875 101.621094 185.964844 " fill-opacity="1" fill-rule="nonzero"/><path fill="#ffffff" d="M 123.019531 205.453125 C 122.226562 207.550781 119.882812 208.605469 117.785156 207.816406 C 115.6875 207.023438 114.628906 204.679688 115.421875 202.582031 C 116.214844 200.488281 118.558594 199.429688 120.65625 200.222656 C 122.753906 201.015625 123.8125 203.359375 123.019531 205.453125 " fill-opacity="1" fill-rule="nonzero"/><path fill="#ffede1" d="M 123.207031 203.277344 C 122.214844 204.921875 120.164062 205.679688 118.300781 204.976562 C 116.925781 204.453125 116 203.265625 115.75 201.921875 C 115.625 202.128906 115.511719 202.347656 115.421875 202.582031 C 114.628906 204.679688 115.6875 207.023438 117.785156 207.816406 C 119.882812 208.605469 122.226562 207.550781 123.019531 205.453125 C 123.292969 204.734375 123.339844 203.984375 123.207031 203.277344 " fill-opacity="1" fill-rule="nonzero"/><path fill="#ffffff" d="M 128.730469 200.390625 C 127.933594 202.488281 125.59375 203.542969 123.492188 202.75 C 121.394531 201.957031 120.339844 199.617188 121.132812 197.519531 C 121.925781 195.421875 124.269531 194.367188 126.367188 195.160156 C 128.464844 195.953125 129.523438 198.292969 128.730469 200.390625 " fill-opacity="1" fill-rule="nonzero"/><path fill="#ffede1" d="M 128.917969 198.210938 C 127.925781 199.855469 125.871094 200.613281 124.007812 199.910156 C 122.632812 199.390625 121.710938 198.203125 121.457031 196.855469 C 121.332031 197.066406 121.21875 197.285156 121.132812 197.519531 C 120.339844 199.617188 121.394531 201.957031 123.492188 202.75 C 125.59375 203.542969 127.933594 202.488281 128.730469 200.390625 C 129 199.667969 129.050781 198.917969 128.917969 198.210938 " fill-opacity="1" fill-rule="nonzero"/><path fill="#ffffff" d="M 101.800781 197.4375 C 100.707031 200.328125 97.476562 201.785156 94.582031 200.691406 C 91.6875 199.601562 90.230469 196.371094 91.324219 193.476562 C 92.417969 190.585938 95.648438 189.128906 98.542969 190.222656 C 101.4375 191.3125 102.894531 194.546875 101.800781 197.4375 " fill-opacity="1" fill-rule="nonzero"/><path fill="#ffede1" d="M 102.0625 194.433594 C 100.695312 196.703125 97.859375 197.746094 95.292969 196.773438 C 93.394531 196.058594 92.121094 194.421875 91.773438 192.5625 C 91.597656 192.847656 91.445312 193.152344 91.324219 193.476562 C 90.230469 196.371094 91.6875 199.601562 94.582031 200.691406 C 97.476562 201.785156 100.707031 200.328125 101.800781 197.4375 C 102.179688 196.441406 102.246094 195.40625 102.0625 194.433594 " fill-opacity="1" fill-rule="nonzero"/><path fill="#ffffff" d="M 106.230469 207.160156 C 105.136719 210.050781 101.902344 211.507812 99.011719 210.417969 C 96.117188 209.324219 94.65625 206.089844 95.753906 203.199219 C 96.847656 200.308594 100.078125 198.847656 102.972656 199.941406 C 105.863281 201.035156 107.324219 204.269531 106.230469 207.160156 " fill-opacity="1" fill-rule="nonzero"/><path fill="#ffede1" d="M 106.492188 204.15625 C 105.121094 206.421875 102.289062 207.464844 99.722656 206.496094 C 97.824219 205.78125 96.550781 204.140625 96.199219 202.285156 C 96.027344 202.570312 95.875 202.875 95.753906 203.199219 C 94.65625 206.089844 96.117188 209.324219 99.011719 210.417969 C 101.902344 211.507812 105.136719 210.050781 106.230469 207.160156 C 106.605469 206.164062 106.675781 205.128906 106.492188 204.15625 " fill-opacity="1" fill-rule="nonzero"/><path fill="#ffffff" d="M 116.710938 208.660156 C 116.414062 211.734375 113.675781 213.992188 110.597656 213.695312 C 107.515625 213.398438 105.261719 210.664062 105.558594 207.585938 C 105.855469 204.507812 108.589844 202.253906 111.667969 202.550781 C 114.75 202.847656 117.003906 205.582031 116.710938 208.660156 " fill-opacity="1" fill-rule="nonzero"/><path fill="#ffede1" d="M 116.171875 205.691406 C 115.445312 208.238281 112.988281 209.992188 110.253906 209.726562 C 108.234375 209.535156 106.574219 208.285156 105.75 206.585938 C 105.660156 206.90625 105.59375 207.242188 105.558594 207.585938 C 105.261719 210.664062 107.515625 213.398438 110.597656 213.695312 C 113.675781 213.992188 116.414062 211.734375 116.710938 208.660156 C 116.8125 207.597656 116.605469 206.582031 116.171875 205.691406 " fill-opacity="1" fill-rule="nonzero"/><path fill="#b0d1e2" d="M 179.976562 196.464844 L 173.507812 187.144531 L 176.539062 180.835938 Z M 179.976562 196.464844 " fill-opacity="1" fill-rule="nonzero"/><path fill="#d9f1ff" d="M 176.539062 180.835938 L 181.527344 175.714844 L 193.457031 177.398438 L 198.101562 185.078125 L 197.566406 193.902344 L 189.144531 198.574219 L 179.976562 196.464844 L 175.863281 187.144531 L 176.539062 180.835938 " fill-opacity="1" fill-rule="nonzero"/><path fill="#b0d1e2" d="M 186.75 182.058594 L 190.238281 182.621094 L 191.753906 186.609375 L 191.046875 190.402344 L 186.984375 191.261719 L 183.515625 188.128906 L 184.273438 184.339844 L 186.75 182.058594 " fill-opacity="1" fill-rule="nonzero"/><path fill="#f3fbff" d="M 186.75 182.058594 L 181.527344 175.714844 L 176.539062 180.835938 L 184.273438 184.339844 L 186.75 182.058594 " fill-opacity="1" fill-rule="nonzero"/><path fill="#ffffff" d="M 190.238281 182.621094 L 193.457031 177.398438 L 181.527344 175.714844 L 186.75 182.058594 L 190.238281 182.621094 " fill-opacity="1" fill-rule="nonzero"/><path fill="#f9dcff" d="M 183.515625 188.128906 L 175.863281 187.144531 L 176.285156 183.230469 L 183.898438 186.207031 L 183.515625 188.128906 " fill-opacity="1" fill-rule="nonzero"/><path fill="#bffff8" d="M 183.515625 188.128906 L 176.539062 187.875 L 179.882812 194.777344 Z M 183.515625 188.128906 " fill-opacity="1" fill-rule="nonzero"/><path fill="#ffffff" d="M 190.921875 182.621094 L 193.625 179.007812 L 195.496094 181.9375 Z M 190.921875 182.621094 " fill-opacity="1" fill-rule="nonzero"/><path fill="#d9f1ff" d="M 184.578125 187.875 L 187.15625 190.128906 L 190.289062 189.695312 Z M 184.578125 187.875 " fill-opacity="1" fill-rule="nonzero"/><path fill="#b5e4ff" d="M 189.144531 198.574219 L 186.984375 191.261719 L 191.046875 190.402344 L 197.566406 193.902344 L 189.144531 198.574219 " fill-opacity="1" fill-rule="nonzero"/><path fill="#a0c6ef" d="M 191.753906 186.609375 L 198.101562 185.078125 L 197.566406 193.902344 L 191.046875 190.402344 L 191.753906 186.609375 " fill-opacity="1" fill-rule="nonzero"/><path fill="#ffffff" d="M 181.191406 176.9375 L 180.027344 178.453125 L 184.375 180.816406 Z M 181.191406 176.9375 " fill-opacity="1" fill-rule="nonzero"/><path fill="#a0c6ef" d="M 173.507812 187.144531 L 175.863281 187.144531 L 179.976562 196.464844 Z M 173.507812 187.144531 " fill-opacity="1" fill-rule="nonzero"/><path fill="#e66b96" d="M 140.355469 166.972656 L 144.429688 161.105469 L 142.519531 157.132812 Z M 140.355469 166.972656 " fill-opacity="1" fill-rule="nonzero"/><path fill="#f597b5" d="M 142.519531 157.132812 L 139.378906 153.910156 L 131.867188 154.96875 L 128.945312 159.804688 L 129.28125 165.363281 L 134.582031 168.300781 L 140.355469 166.972656 L 142.945312 161.105469 L 142.519531 157.132812 " fill-opacity="1" fill-rule="nonzero"/><path fill="#e66b96" d="M 136.089844 157.902344 L 133.894531 158.257812 L 132.9375 160.769531 L 133.386719 163.15625 L 135.945312 163.699219 L 138.128906 161.726562 L 137.648438 159.339844 L 136.089844 157.902344 " fill-opacity="1" fill-rule="nonzero"/><path fill="#e0c2cd" d="M 136.089844 157.902344 L 139.378906 153.910156 L 142.519531 157.132812 L 137.648438 159.339844 L 136.089844 157.902344 " fill-opacity="1" fill-rule="nonzero"/><path fill="#d6d6d6" d="M 133.894531 158.257812 L 131.867188 154.96875 L 139.378906 153.910156 L 136.089844 157.902344 L 133.894531 158.257812 " fill-opacity="1" fill-rule="nonzero"/><path fill="#e6f39c" d="M 138.128906 161.726562 L 142.945312 161.105469 L 142.679688 158.640625 L 137.886719 160.515625 L 138.128906 161.726562 " fill-opacity="1" fill-rule="nonzero"/><path fill="#ff78e3" d="M 138.128906 161.726562 L 142.519531 161.566406 L 140.414062 165.914062 Z M 138.128906 161.726562 " fill-opacity="1" fill-rule="nonzero"/><path fill="#d6d6d6" d="M 133.464844 158.257812 L 131.761719 155.984375 L 130.585938 157.828125 Z M 133.464844 158.257812 " fill-opacity="1" fill-rule="nonzero"/><path fill="#d6d6d6" d="M 137.457031 161.566406 L 135.835938 162.988281 L 133.863281 162.710938 Z M 137.457031 161.566406 " fill-opacity="1" fill-rule="nonzero"/><path fill="#ff6f9d" d="M 134.582031 168.300781 L 135.945312 163.699219 L 133.386719 163.15625 L 129.28125 165.363281 L 134.582031 168.300781 " fill-opacity="1" fill-rule="nonzero"/><path fill="#ff506d" d="M 132.9375 160.769531 L 128.945312 159.804688 L 129.28125 165.363281 L 133.386719 163.15625 L 132.9375 160.769531 " fill-opacity="1" fill-rule="nonzero"/><path fill="#d6d6d6" d="M 139.589844 154.679688 L 140.324219 155.632812 L 137.585938 157.121094 Z M 139.589844 154.679688 " fill-opacity="1" fill-rule="nonzero"/><path fill="#ff506d" d="M 144.429688 161.105469 L 142.945312 161.105469 L 140.355469 166.972656 Z M 144.429688 161.105469 " fill-opacity="1" fill-rule="nonzero"/><path fill="#ff6464" d="M 219.476562 215.167969 L 218.78125 200.902344 L 225.191406 197.5625 L 236.574219 205.515625 L 235.402344 211.472656 L 219.476562 215.167969 " fill-opacity="1" fill-rule="nonzero"/><path fill="#ff8a66" d="M 225.191406 197.5625 L 225.191406 204.027344 L 218.78125 200.902344 Z M 225.191406 197.5625 " fill-opacity="1" fill-rule="nonzero"/><path fill="#ffa08f" d="M 225.191406 204.027344 L 231.695312 202.105469 L 225.191406 197.5625 Z M 225.191406 204.027344 " fill-opacity="1" fill-rule="nonzero"/><path fill="#ef5656" d="M 225.191406 204.027344 L 230.835938 207.734375 L 231.695312 202.105469 Z M 225.191406 204.027344 " fill-opacity="1" fill-rule="nonzero"/><path fill="#d6405e" d="M 230.835938 207.734375 L 236.574219 205.515625 L 231.695312 202.105469 Z M 230.835938 207.734375 " fill-opacity="1" fill-rule="nonzero"/><path fill="#d6764d" d="M 230.835938 207.734375 L 235.402344 211.472656 L 236.574219 205.515625 Z M 230.835938 207.734375 " fill-opacity="1" fill-rule="nonzero"/><path fill="#ff7b61" d="M 218.78125 200.902344 L 219.476562 215.167969 L 225.191406 204.027344 Z M 218.78125 200.902344 " fill-opacity="1" fill-rule="nonzero"/><path fill="#ef5656" d="M 219.476562 215.167969 L 230.835938 207.734375 L 235.402344 211.472656 Z M 219.476562 215.167969 " fill-opacity="1" fill-rule="nonzero"/><path fill="#ffc892" d="M 219.871094 200.792969 L 224.171875 198.488281 L 222.296875 201.730469 Z M 219.871094 200.792969 " fill-opacity="1" fill-rule="nonzero"/><path fill="#ffc892" d="M 219.085938 202.445312 L 219.632812 213.5625 L 220.964844 203.539062 Z M 219.085938 202.445312 " fill-opacity="1" fill-rule="nonzero"/><path fill="#ffccc5" d="M 225.949219 198.488281 L 228.8125 201.082031 L 225.949219 203.058594 Z M 225.949219 198.488281 " fill-opacity="1" fill-rule="nonzero"/><path fill="#964e42" d="M 47.757812 230.800781 L 58.675781 313.929688 L 177.191406 316.109375 L 191.507812 233.71875 L 47.757812 230.800781 " fill-opacity="1" fill-rule="nonzero"/><path fill="#b26932" d="M 54.710938 233.0625 L 190.921875 237.105469 L 191.507812 233.71875 L 47.757812 230.800781 L 58.675781 313.929688 L 65.351562 314.050781 L 54.710938 233.0625 " fill-opacity="1" fill-rule="nonzero"/><path fill="#632d28" d="M 209.9375 309.308594 L 222.023438 234.71875 L 274.421875 223.820312 L 258.40625 296.011719 L 209.9375 309.308594 " fill-opacity="1" fill-rule="nonzero"/><path fill="#cc8e3b" d="M 269.453125 224.855469 L 254.480469 292.351562 L 210.742188 304.351562 L 209.9375 309.308594 L 258.40625 296.011719 L 274.421875 223.820312 L 269.453125 224.855469 " fill-opacity="1" fill-rule="nonzero"/><g clip-path="url(#628d7fd0a9)"><path fill="#eaba44" d="M 177.191406 316.109375 L 176.605469 327.871094 L 192.695312 328.351562 L 197.21875 301.8125 C 180.84375 304.015625 177.191406 316.109375 177.191406 316.109375 " fill-opacity="1" fill-rule="nonzero"/></g><g clip-path="url(#6425f0148d)"><path fill="#cc8e3b" d="M 197.21875 301.8125 L 192.695312 328.351562 L 208.296875 323.039062 L 209.9375 309.308594 C 203.144531 301.417969 197.21875 301.8125 197.21875 301.8125 " fill-opacity="1" fill-rule="nonzero"/></g><path fill="#eaba44" d="M 45.261719 308.179688 C 45.261719 308.179688 51.125 307.472656 58.675781 313.929688 L 59.507812 324.378906 L 47.566406 324.023438 L 45.261719 308.179688 " fill-opacity="1" fill-rule="nonzero"/><path fill="#cc8e3b" d="M 258.40625 296.011719 L 256.386719 306.679688 L 266.355469 303.289062 L 269.371094 289.476562 C 269.371094 289.476562 264.414062 288.917969 258.40625 296.011719 " fill-opacity="1" fill-rule="nonzero"/><path fill="#632d28" d="M 56.484375 246.554688 L 188.441406 251.363281 L 187.839844 254.84375 L 56.878906 249.542969 L 56.484375 246.554688 " fill-opacity="1" fill-rule="nonzero"/><path fill="#632d28" d="M 58.894531 264.894531 L 185.523438 268.164062 L 185.011719 271.109375 L 59.203125 267.242188 L 58.894531 264.894531 " fill-opacity="1" fill-rule="nonzero"/><path fill="#632d28" d="M 60.9375 280.445312 L 182.859375 283.488281 L 182.359375 286.375 L 61.375 283.757812 L 60.9375 280.445312 " fill-opacity="1" fill-rule="nonzero"/><path fill="#632d28" d="M 63.371094 298.964844 L 179.675781 301.8125 L 179.050781 305.402344 L 63.792969 302.183594 L 63.371094 298.964844 " fill-opacity="1" fill-rule="nonzero"/><path fill="#4c1f1d" d="M 219.894531 248.039062 L 266.304688 238.835938 L 265.210938 243.753906 L 219.0625 253.179688 L 219.894531 248.039062 " fill-opacity="1" fill-rule="nonzero"/><path fill="#4c1f1d" d="M 217.011719 265.652344 L 262.355469 256.835938 L 261.378906 261.242188 L 216.238281 270.40625 L 217.011719 265.652344 " fill-opacity="1" fill-rule="nonzero"/><path fill="#4c1f1d" d="M 214.710938 279.851562 L 259.425781 270.046875 L 258.632812 273.621094 L 214.234375 282.796875 L 214.710938 279.851562 " fill-opacity="1" fill-rule="nonzero"/><path fill="#4c1f1d" d="M 212.289062 294.816406 L 256.386719 283.757812 L 256.007812 285.453125 L 211.933594 296.988281 L 212.289062 294.816406 " fill-opacity="1" fill-rule="nonzero"/><path fill="#964e42" d="M 266.050781 61.816406 L 72.851562 58.214844 L 41.480469 89.121094 L 212.8125 92.121094 L 266.050781 61.816406 " fill-opacity="1" fill-rule="nonzero"/><path fill="#cc8e3b" d="M 231.695312 81.273438 L 52.671875 77.933594 L 41.480469 89.121094 L 212.8125 92.121094 L 231.695312 81.273438 " fill-opacity="1" fill-rule="nonzero"/><g clip-path="url(#e2f059ed9b)"><path fill="#632d28" d="M 266.050781 61.816406 L 290.4375 76.570312 C 290.4375 76.570312 325.808594 71.808594 337.390625 94.578125 C 349.746094 118.859375 335.414062 144.625 335.414062 144.625 L 342.578125 164.039062 L 296.445312 198.957031 L 225.285156 88.300781 L 266.050781 61.816406 " fill-opacity="1" fill-rule="nonzero"/></g><path fill="#4c1f1d" d="M 280.898438 74.210938 L 330.980469 142.867188 L 332.796875 139.957031 L 283.078125 72.71875 L 280.898438 74.210938 " fill-opacity="1" fill-rule="nonzero"/><path fill="#4c1f1d" d="M 255.722656 80.691406 L 311.957031 176.136719 L 315.726562 173.242188 L 258.730469 79.050781 L 255.722656 80.691406 " fill-opacity="1" fill-rule="nonzero"/><path fill="#4c1f1d" d="M 265.394531 74.976562 L 324.328125 168.148438 L 326.691406 165.601562 L 266.457031 72.621094 L 265.394531 74.976562 " fill-opacity="1" fill-rule="nonzero"/><g clip-path="url(#7ca5861a03)"><path fill="#b26932" d="M 327.746094 163.140625 L 291.882812 190.664062 L 233.773438 92.726562 L 266.050781 75.167969 L 290.800781 92.121094 C 303.726562 85.753906 325.5625 88.847656 330.839844 103.945312 C 336.117188 119.039062 319.738281 142.867188 319.738281 142.867188 Z M 335.414062 144.625 C 335.414062 144.625 349.746094 118.859375 337.390625 94.578125 C 325.808594 71.808594 290.4375 76.570312 290.4375 76.570312 L 266.050781 61.816406 L 212.8125 92.121094 L 287.164062 207.980469 L 342.578125 164.039062 L 335.414062 144.625 " fill-opacity="1" fill-rule="nonzero"/></g><path fill="#4c1f1d" d="M 244.070312 87.125 L 240.699219 88.957031 L 241.136719 89.675781 L 299.160156 185.078125 L 302.695312 182.367188 L 244.070312 87.125 " fill-opacity="1" fill-rule="nonzero"/><path fill="#b26932" d="M 141.84375 51.367188 C 141.84375 51.367188 113.582031 72.105469 115.226562 83.886719 C 115.28125 84.265625 117.394531 88.542969 117.507812 88.898438 C 121.121094 100.15625 145.390625 102.785156 156.558594 92.175781 C 167.726562 81.566406 182.503906 56.613281 182.503906 56.613281 L 180.222656 51.601562 L 141.84375 51.367188 " fill-opacity="1" fill-rule="nonzero"/><g clip-path="url(#918b78eb77)"><path fill="#ffcc5a" d="M 139.5625 46.359375 C 139.5625 46.359375 111.613281 72.625 115.226562 83.886719 C 118.839844 95.144531 143.109375 97.773438 154.28125 87.164062 C 165.449219 76.554688 180.222656 51.601562 180.222656 51.601562 L 139.5625 46.359375 " fill-opacity="1" fill-rule="nonzero"/></g><path fill="#964e42" d="M 141.929688 64.386719 C 141.929688 64.386719 143.308594 53.808594 150.160156 54.050781 C 157.007812 54.292969 148.539062 65.054688 146.957031 65.953125 L 138.15625 85.082031 L 129.90625 82.183594 L 141.929688 64.386719 " fill-opacity="1" fill-rule="nonzero"/><path fill="#ffe888" d="M 139.609375 49.324219 C 139.609375 49.324219 121.976562 66.855469 119.570312 75.53125 C 117.164062 84.207031 124.441406 88.628906 126.410156 87.050781 C 128.378906 85.472656 128.75 74.054688 131.539062 69.511719 C 134.332031 64.964844 146.332031 50.191406 146.332031 50.191406 L 139.609375 49.324219 " fill-opacity="1" fill-rule="nonzero"/></svg>